<?xml version="1.0" encoding="UTF-8"?>
<!-- Do not edit this file with editors other than draw.io -->
<!DOCTYPE svg PUBLIC "-//W3C//DTD SVG 1.1//EN" "http://www.w3.org/Graphics/SVG/1.1/DTD/svg11.dtd">
<svg xmlns="http://www.w3.org/2000/svg" xmlns:xlink="http://www.w3.org/1999/xlink" version="1.1" width="154px" height="172px" viewBox="-0.5 -0.5 154 172" content="&lt;mxfile host=&quot;app.diagrams.net&quot; modified=&quot;2024-06-21T12:55:54.043Z&quot; agent=&quot;Mozilla/5.0 (Windows NT 10.0; Win64; x64) AppleWebKit/537.36 (KHTML, like Gecko) Chrome/126.0.0.0 Safari/537.36 Edg/126.0.0.0&quot; etag=&quot;Yo_q9iATW9rplzp5yTPe&quot; version=&quot;24.6.0&quot; type=&quot;github&quot;&gt;&#10;  &lt;diagram name=&quot;Page-1&quot; id=&quot;glWzn9amAHWQUsAXX45R&quot;&gt;&#10;    &lt;mxGraphModel dx=&quot;863&quot; dy=&quot;561&quot; grid=&quot;1&quot; gridSize=&quot;10&quot; guides=&quot;1&quot; tooltips=&quot;1&quot; connect=&quot;1&quot; arrows=&quot;1&quot; fold=&quot;1&quot; page=&quot;1&quot; pageScale=&quot;1&quot; pageWidth=&quot;850&quot; pageHeight=&quot;1100&quot; math=&quot;0&quot; shadow=&quot;0&quot;&gt;&#10;      &lt;root&gt;&#10;        &lt;mxCell id=&quot;0&quot; /&gt;&#10;        &lt;mxCell id=&quot;1&quot; parent=&quot;0&quot; /&gt;&#10;        &lt;mxCell id=&quot;TIZTyxo3Xke5S-ONJW2V-1&quot; value=&quot;&quot; style=&quot;pointerEvents=1;verticalLabelPosition=bottom;shadow=0;dashed=0;align=center;html=1;verticalAlign=top;shape=mxgraph.electrical.inductors.inductor_3;rotation=-45;&quot; vertex=&quot;1&quot; parent=&quot;1&quot;&gt;&#10;          &lt;mxGeometry x=&quot;392&quot; y=&quot;428&quot; width=&quot;100&quot; height=&quot;8&quot; as=&quot;geometry&quot; /&gt;&#10;        &lt;/mxCell&gt;&#10;        &lt;mxCell id=&quot;TIZTyxo3Xke5S-ONJW2V-2&quot; value=&quot;&quot; style=&quot;pointerEvents=1;verticalLabelPosition=bottom;shadow=0;dashed=0;align=center;html=1;verticalAlign=top;shape=mxgraph.electrical.inductors.inductor_3;rotation=-90;&quot; vertex=&quot;1&quot; parent=&quot;1&quot;&gt;&#10;          &lt;mxGeometry x=&quot;426&quot; y=&quot;346&quot; width=&quot;100&quot; height=&quot;8&quot; as=&quot;geometry&quot; /&gt;&#10;        &lt;/mxCell&gt;&#10;        &lt;mxCell id=&quot;TIZTyxo3Xke5S-ONJW2V-3&quot; value=&quot;&quot; style=&quot;pointerEvents=1;verticalLabelPosition=bottom;shadow=0;dashed=0;align=center;html=1;verticalAlign=top;shape=mxgraph.electrical.inductors.inductor_3;rotation=45;&quot; vertex=&quot;1&quot; parent=&quot;1&quot;&gt;&#10;          &lt;mxGeometry x=&quot;468&quot; y=&quot;428&quot; width=&quot;100&quot; height=&quot;8&quot; as=&quot;geometry&quot; /&gt;&#10;        &lt;/mxCell&gt;&#10;      &lt;/root&gt;&#10;    &lt;/mxGraphModel&gt;&#10;  &lt;/diagram&gt;&#10;&lt;/mxfile&gt;&#10;" resource="https://app.diagrams.net/?src=about#Hstephaneamans%2Fapp-esc_brushless%2Fdocumentation%2F01-documentation%2Fsvg_files%2Fesc_commutation_principle.drawio.svg#%7B%22pageId%22%3A%22glWzn9amAHWQUsAXX45R%22%7D"><defs/><g><g data-cell-id="0"><g data-cell-id="1"><g data-cell-id="TIZTyxo3Xke5S-ONJW2V-1"><g><rect x="-12" y="128" width="100" height="8" fill="none" stroke="none" transform="rotate(-45,38,132)" pointer-events="all"/><path d="M -12 136 L 6 136 C 6 131.58 9.58 128 14 128 C 18.42 128 22 131.58 22 136 C 22 131.58 25.58 128 30 128 C 34.42 128 38 131.58 38 136 C 38 131.58 41.58 128 46 128 C 50.42 128 54 131.58 54 136 C 54 131.58 57.58 128 62 128 C 66.42 128 70 131.58 70 136 L 88 136" fill="none" stroke="rgb(0, 0, 0)" stroke-linejoin="round" stroke-miterlimit="10" transform="rotate(-45,38,132)" pointer-events="all"/></g></g><g data-cell-id="TIZTyxo3Xke5S-ONJW2V-2"><g><rect x="22" y="46" width="100" height="8" fill="none" stroke="none" transform="rotate(-90,72,50)" pointer-events="all"/><path d="M 22 54 L 40 54 C 40 49.58 43.58 46 48 46 C 52.42 46 56 49.58 56 54 C 56 49.58 59.58 46 64 46 C 68.42 46 72 49.58 72 54 C 72 49.58 75.58 46 80 46 C 84.42 46 88 49.58 88 54 C 88 49.58 91.58 46 96 46 C 100.42 46 104 49.58 104 54 L 122 54" fill="none" stroke="rgb(0, 0, 0)" stroke-linejoin="round" stroke-miterlimit="10" transform="rotate(-90,72,50)" pointer-events="all"/></g></g><g data-cell-id="TIZTyxo3Xke5S-ONJW2V-3"><g><rect x="64" y="128" width="100" height="8" fill="none" stroke="none" transform="rotate(45,114,132)" pointer-events="all"/><path d="M 64 136 L 82 136 C 82 131.58 85.58 128 90 128 C 94.42 128 98 131.58 98 136 C 98 131.58 101.58 128 106 128 C 110.42 128 114 131.58 114 136 C 114 131.58 117.58 128 122 128 C 126.42 128 130 131.58 130 136 C 130 131.58 133.58 128 138 128 C 142.42 128 146 131.58 146 136 L 164 136" fill="none" stroke="rgb(0, 0, 0)" stroke-linejoin="round" stroke-miterlimit="10" transform="rotate(45,114,132)" pointer-events="all"/></g></g></g></g></g></svg>