<?xml version="1.0" encoding="UTF-8"?>
<!-- Do not edit this file with editors other than draw.io -->
<!DOCTYPE svg PUBLIC "-//W3C//DTD SVG 1.1//EN" "http://www.w3.org/Graphics/SVG/1.1/DTD/svg11.dtd">
<svg xmlns="http://www.w3.org/2000/svg" xmlns:xlink="http://www.w3.org/1999/xlink" version="1.1" width="481px" height="202px" viewBox="-0.5 -0.5 481 202" content="&lt;mxfile host=&quot;app.diagrams.net&quot; modified=&quot;2024-06-21T13:00:49.123Z&quot; agent=&quot;Mozilla/5.0 (Windows NT 10.0; Win64; x64) AppleWebKit/537.36 (KHTML, like Gecko) Chrome/126.0.0.0 Safari/537.36 Edg/126.0.0.0&quot; etag=&quot;pCt5x2wEEzwZOKExolTE&quot; version=&quot;24.6.0&quot; type=&quot;github&quot;&gt;&#10;  &lt;diagram name=&quot;Page-1&quot; id=&quot;glWzn9amAHWQUsAXX45R&quot;&gt;&#10;    &lt;mxGraphModel dx=&quot;863&quot; dy=&quot;561&quot; grid=&quot;1&quot; gridSize=&quot;10&quot; guides=&quot;1&quot; tooltips=&quot;1&quot; connect=&quot;1&quot; arrows=&quot;1&quot; fold=&quot;1&quot; page=&quot;1&quot; pageScale=&quot;1&quot; pageWidth=&quot;850&quot; pageHeight=&quot;1100&quot; math=&quot;0&quot; shadow=&quot;0&quot;&gt;&#10;      &lt;root&gt;&#10;        &lt;mxCell id=&quot;0&quot; /&gt;&#10;        &lt;mxCell id=&quot;1&quot; parent=&quot;0&quot; /&gt;&#10;        &lt;mxCell id=&quot;TIZTyxo3Xke5S-ONJW2V-5&quot; value=&quot;&quot; style=&quot;ellipse;whiteSpace=wrap;html=1;&quot; vertex=&quot;1&quot; parent=&quot;1&quot;&gt;&#10;          &lt;mxGeometry x=&quot;390&quot; y=&quot;310&quot; width=&quot;180&quot; height=&quot;170&quot; as=&quot;geometry&quot; /&gt;&#10;        &lt;/mxCell&gt;&#10;        &lt;mxCell id=&quot;TIZTyxo3Xke5S-ONJW2V-1&quot; value=&quot;&quot; style=&quot;pointerEvents=1;verticalLabelPosition=bottom;shadow=0;dashed=0;align=center;html=1;verticalAlign=top;shape=mxgraph.electrical.inductors.inductor_3;rotation=-45;&quot; vertex=&quot;1&quot; parent=&quot;1&quot;&gt;&#10;          &lt;mxGeometry x=&quot;392&quot; y=&quot;428&quot; width=&quot;100&quot; height=&quot;8&quot; as=&quot;geometry&quot; /&gt;&#10;        &lt;/mxCell&gt;&#10;        &lt;mxCell id=&quot;TIZTyxo3Xke5S-ONJW2V-2&quot; value=&quot;&quot; style=&quot;pointerEvents=1;verticalLabelPosition=bottom;shadow=0;dashed=0;align=center;html=1;verticalAlign=top;shape=mxgraph.electrical.inductors.inductor_3;rotation=-90;&quot; vertex=&quot;1&quot; parent=&quot;1&quot;&gt;&#10;          &lt;mxGeometry x=&quot;426&quot; y=&quot;346&quot; width=&quot;100&quot; height=&quot;8&quot; as=&quot;geometry&quot; /&gt;&#10;        &lt;/mxCell&gt;&#10;        &lt;mxCell id=&quot;TIZTyxo3Xke5S-ONJW2V-3&quot; value=&quot;&quot; style=&quot;pointerEvents=1;verticalLabelPosition=bottom;shadow=0;dashed=0;align=center;html=1;verticalAlign=top;shape=mxgraph.electrical.inductors.inductor_3;rotation=45;&quot; vertex=&quot;1&quot; parent=&quot;1&quot;&gt;&#10;          &lt;mxGeometry x=&quot;468&quot; y=&quot;428&quot; width=&quot;100&quot; height=&quot;8&quot; as=&quot;geometry&quot; /&gt;&#10;        &lt;/mxCell&gt;&#10;        &lt;mxCell id=&quot;TIZTyxo3Xke5S-ONJW2V-4&quot; value=&quot;&quot; style=&quot;rounded=0;whiteSpace=wrap;html=1;fillColor=#dae8fc;strokeColor=#6c8ebf;&quot; vertex=&quot;1&quot; parent=&quot;1&quot;&gt;&#10;          &lt;mxGeometry x=&quot;250&quot; y=&quot;360&quot; width=&quot;30&quot; height=&quot;60&quot; as=&quot;geometry&quot; /&gt;&#10;        &lt;/mxCell&gt;&#10;        &lt;mxCell id=&quot;TIZTyxo3Xke5S-ONJW2V-7&quot; value=&quot;&quot; style=&quot;rounded=0;whiteSpace=wrap;html=1;fillColor=#dae8fc;strokeColor=#6c8ebf;&quot; vertex=&quot;1&quot; parent=&quot;1&quot;&gt;&#10;          &lt;mxGeometry x=&quot;250&quot; y=&quot;440&quot; width=&quot;30&quot; height=&quot;60&quot; as=&quot;geometry&quot; /&gt;&#10;        &lt;/mxCell&gt;&#10;        &lt;mxCell id=&quot;TIZTyxo3Xke5S-ONJW2V-8&quot; value=&quot;&quot; style=&quot;rounded=0;whiteSpace=wrap;html=1;fillColor=#ffe6cc;strokeColor=#d79b00;&quot; vertex=&quot;1&quot; parent=&quot;1&quot;&gt;&#10;          &lt;mxGeometry x=&quot;170&quot; y=&quot;360&quot; width=&quot;30&quot; height=&quot;60&quot; as=&quot;geometry&quot; /&gt;&#10;        &lt;/mxCell&gt;&#10;        &lt;mxCell id=&quot;TIZTyxo3Xke5S-ONJW2V-9&quot; value=&quot;&quot; style=&quot;rounded=0;whiteSpace=wrap;html=1;fillColor=#ffe6cc;strokeColor=#d79b00;&quot; vertex=&quot;1&quot; parent=&quot;1&quot;&gt;&#10;          &lt;mxGeometry x=&quot;170&quot; y=&quot;440&quot; width=&quot;30&quot; height=&quot;60&quot; as=&quot;geometry&quot; /&gt;&#10;        &lt;/mxCell&gt;&#10;        &lt;mxCell id=&quot;TIZTyxo3Xke5S-ONJW2V-10&quot; value=&quot;&quot; style=&quot;rounded=0;whiteSpace=wrap;html=1;fillColor=#fff2cc;strokeColor=#d6b656;&quot; vertex=&quot;1&quot; parent=&quot;1&quot;&gt;&#10;          &lt;mxGeometry x=&quot;90&quot; y=&quot;360&quot; width=&quot;30&quot; height=&quot;60&quot; as=&quot;geometry&quot; /&gt;&#10;        &lt;/mxCell&gt;&#10;        &lt;mxCell id=&quot;TIZTyxo3Xke5S-ONJW2V-11&quot; value=&quot;&quot; style=&quot;rounded=0;whiteSpace=wrap;html=1;fillColor=#fff2cc;strokeColor=#d6b656;&quot; vertex=&quot;1&quot; parent=&quot;1&quot;&gt;&#10;          &lt;mxGeometry x=&quot;90&quot; y=&quot;440&quot; width=&quot;30&quot; height=&quot;60&quot; as=&quot;geometry&quot; /&gt;&#10;        &lt;/mxCell&gt;&#10;      &lt;/root&gt;&#10;    &lt;/mxGraphModel&gt;&#10;  &lt;/diagram&gt;&#10;&lt;/mxfile&gt;&#10;" resource="https://app.diagrams.net/?src=about#Hstephaneamans%2Fapp-esc_brushless%2Fdocumentation%2F01-documentation%2Fsvg_files%2Fesc_commutation_principle.drawio.svg#%7B%22pageId%22%3A%22glWzn9amAHWQUsAXX45R%22%7D"><defs/><g><g data-cell-id="0"><g data-cell-id="1"><g data-cell-id="TIZTyxo3Xke5S-ONJW2V-5"><g><ellipse cx="390" cy="95" rx="90" ry="85" fill="rgb(255, 255, 255)" stroke="rgb(0, 0, 0)" pointer-events="all"/></g></g><g data-cell-id="TIZTyxo3Xke5S-ONJW2V-1"><g><rect x="302" y="128" width="100" height="8" fill="none" stroke="none" transform="rotate(-45,352,132)" pointer-events="all"/><path d="M 302 136 L 320 136 C 320 131.58 323.58 128 328 128 C 332.42 128 336 131.58 336 136 C 336 131.58 339.58 128 344 128 C 348.42 128 352 131.58 352 136 C 352 131.58 355.58 128 360 128 C 364.42 128 368 131.58 368 136 C 368 131.58 371.58 128 376 128 C 380.42 128 384 131.58 384 136 L 402 136" fill="none" stroke="rgb(0, 0, 0)" stroke-linejoin="round" stroke-miterlimit="10" transform="rotate(-45,352,132)" pointer-events="all"/></g></g><g data-cell-id="TIZTyxo3Xke5S-ONJW2V-2"><g><rect x="336" y="46" width="100" height="8" fill="none" stroke="none" transform="rotate(-90,386,50)" pointer-events="all"/><path d="M 336 54 L 354 54 C 354 49.58 357.58 46 362 46 C 366.42 46 370 49.58 370 54 C 370 49.58 373.58 46 378 46 C 382.42 46 386 49.58 386 54 C 386 49.58 389.58 46 394 46 C 398.42 46 402 49.58 402 54 C 402 49.58 405.58 46 410 46 C 414.42 46 418 49.58 418 54 L 436 54" fill="none" stroke="rgb(0, 0, 0)" stroke-linejoin="round" stroke-miterlimit="10" transform="rotate(-90,386,50)" pointer-events="all"/></g></g><g data-cell-id="TIZTyxo3Xke5S-ONJW2V-3"><g><rect x="378" y="128" width="100" height="8" fill="none" stroke="none" transform="rotate(45,428,132)" pointer-events="all"/><path d="M 378 136 L 396 136 C 396 131.58 399.58 128 404 128 C 408.42 128 412 131.58 412 136 C 412 131.58 415.58 128 420 128 C 424.42 128 428 131.58 428 136 C 428 131.58 431.58 128 436 128 C 440.42 128 444 131.58 444 136 C 444 131.58 447.58 128 452 128 C 456.42 128 460 131.58 460 136 L 478 136" fill="none" stroke="rgb(0, 0, 0)" stroke-linejoin="round" stroke-miterlimit="10" transform="rotate(45,428,132)" pointer-events="all"/></g></g><g data-cell-id="TIZTyxo3Xke5S-ONJW2V-4"><g><rect x="160" y="60" width="30" height="60" fill="#dae8fc" stroke="#6c8ebf" pointer-events="all"/></g></g><g data-cell-id="TIZTyxo3Xke5S-ONJW2V-7"><g><rect x="160" y="140" width="30" height="60" fill="#dae8fc" stroke="#6c8ebf" pointer-events="all"/></g></g><g data-cell-id="TIZTyxo3Xke5S-ONJW2V-8"><g><rect x="80" y="60" width="30" height="60" fill="#ffe6cc" stroke="#d79b00" pointer-events="all"/></g></g><g data-cell-id="TIZTyxo3Xke5S-ONJW2V-9"><g><rect x="80" y="140" width="30" height="60" fill="#ffe6cc" stroke="#d79b00" pointer-events="all"/></g></g><g data-cell-id="TIZTyxo3Xke5S-ONJW2V-10"><g><rect x="0" y="60" width="30" height="60" fill="#fff2cc" stroke="#d6b656" pointer-events="all"/></g></g><g data-cell-id="TIZTyxo3Xke5S-ONJW2V-11"><g><rect x="0" y="140" width="30" height="60" fill="#fff2cc" stroke="#d6b656" pointer-events="all"/></g></g></g></g></g></svg>