G04 #@! TF.GenerationSoftware,KiCad,Pcbnew,5.1.10-1.fc32*
G04 #@! TF.CreationDate,2021-08-09T17:43:32+02:00*
G04 #@! TF.ProjectId,esc_brushless,6573635f-6272-4757-9368-6c6573732e6b,rev?*
G04 #@! TF.SameCoordinates,Original*
G04 #@! TF.FileFunction,Legend,Top*
G04 #@! TF.FilePolarity,Positive*
%FSLAX46Y46*%
G04 Gerber Fmt 4.6, Leading zero omitted, Abs format (unit mm)*
G04 Created by KiCad (PCBNEW 5.1.10-1.fc32) date 2021-08-09 17:43:32*
%MOMM*%
%LPD*%
G01*
G04 APERTURE LIST*
%ADD10C,0.125000*%
%ADD11C,0.300000*%
%ADD12C,0.120000*%
%ADD13C,0.150000*%
%ADD14R,0.450000X0.700000*%
%ADD15R,3.400000X3.400000*%
%ADD16R,1.700000X1.700000*%
%ADD17O,1.700000X1.700000*%
%ADD18R,3.500000X2.000000*%
%ADD19R,7.000000X7.000000*%
%ADD20O,1.250000X1.250000*%
%ADD21R,1.550000X0.300000*%
%ADD22R,3.610000X6.350000*%
G04 APERTURE END LIST*
D10*
X203708095Y-94182380D02*
X203779523Y-94206190D01*
X203898571Y-94206190D01*
X203946190Y-94182380D01*
X203970000Y-94158571D01*
X203993809Y-94110952D01*
X203993809Y-94063333D01*
X203970000Y-94015714D01*
X203946190Y-93991904D01*
X203898571Y-93968095D01*
X203803333Y-93944285D01*
X203755714Y-93920476D01*
X203731904Y-93896666D01*
X203708095Y-93849047D01*
X203708095Y-93801428D01*
X203731904Y-93753809D01*
X203755714Y-93730000D01*
X203803333Y-93706190D01*
X203922380Y-93706190D01*
X203993809Y-93730000D01*
X204136666Y-93706190D02*
X204422380Y-93706190D01*
X204279523Y-94206190D02*
X204279523Y-93706190D01*
X204755714Y-93944285D02*
X204589047Y-93944285D01*
X204589047Y-94206190D02*
X204589047Y-93706190D01*
X204827142Y-93706190D01*
X204993809Y-94063333D02*
X205231904Y-94063333D01*
X204946190Y-94206190D02*
X205112857Y-93706190D01*
X205279523Y-94206190D01*
D11*
X214535714Y-93867857D02*
X215035714Y-93867857D01*
X215250000Y-94653571D02*
X214535714Y-94653571D01*
X214535714Y-93153571D01*
X215250000Y-93153571D01*
X215821428Y-94582142D02*
X216035714Y-94653571D01*
X216392857Y-94653571D01*
X216535714Y-94582142D01*
X216607142Y-94510714D01*
X216678571Y-94367857D01*
X216678571Y-94225000D01*
X216607142Y-94082142D01*
X216535714Y-94010714D01*
X216392857Y-93939285D01*
X216107142Y-93867857D01*
X215964285Y-93796428D01*
X215892857Y-93725000D01*
X215821428Y-93582142D01*
X215821428Y-93439285D01*
X215892857Y-93296428D01*
X215964285Y-93225000D01*
X216107142Y-93153571D01*
X216464285Y-93153571D01*
X216678571Y-93225000D01*
X218178571Y-94510714D02*
X218107142Y-94582142D01*
X217892857Y-94653571D01*
X217750000Y-94653571D01*
X217535714Y-94582142D01*
X217392857Y-94439285D01*
X217321428Y-94296428D01*
X217250000Y-94010714D01*
X217250000Y-93796428D01*
X217321428Y-93510714D01*
X217392857Y-93367857D01*
X217535714Y-93225000D01*
X217750000Y-93153571D01*
X217892857Y-93153571D01*
X218107142Y-93225000D01*
X218178571Y-93296428D01*
X219964285Y-94653571D02*
X219964285Y-93153571D01*
X219964285Y-93725000D02*
X220107142Y-93653571D01*
X220392857Y-93653571D01*
X220535714Y-93725000D01*
X220607142Y-93796428D01*
X220678571Y-93939285D01*
X220678571Y-94367857D01*
X220607142Y-94510714D01*
X220535714Y-94582142D01*
X220392857Y-94653571D01*
X220107142Y-94653571D01*
X219964285Y-94582142D01*
X221321428Y-94653571D02*
X221321428Y-93653571D01*
X221321428Y-93939285D02*
X221392857Y-93796428D01*
X221464285Y-93725000D01*
X221607142Y-93653571D01*
X221750000Y-93653571D01*
X222892857Y-93653571D02*
X222892857Y-94653571D01*
X222250000Y-93653571D02*
X222250000Y-94439285D01*
X222321428Y-94582142D01*
X222464285Y-94653571D01*
X222678571Y-94653571D01*
X222821428Y-94582142D01*
X222892857Y-94510714D01*
X223535714Y-94582142D02*
X223678571Y-94653571D01*
X223964285Y-94653571D01*
X224107142Y-94582142D01*
X224178571Y-94439285D01*
X224178571Y-94367857D01*
X224107142Y-94225000D01*
X223964285Y-94153571D01*
X223750000Y-94153571D01*
X223607142Y-94082142D01*
X223535714Y-93939285D01*
X223535714Y-93867857D01*
X223607142Y-93725000D01*
X223750000Y-93653571D01*
X223964285Y-93653571D01*
X224107142Y-93725000D01*
X224821428Y-94653571D02*
X224821428Y-93153571D01*
X225464285Y-94653571D02*
X225464285Y-93867857D01*
X225392857Y-93725000D01*
X225250000Y-93653571D01*
X225035714Y-93653571D01*
X224892857Y-93725000D01*
X224821428Y-93796428D01*
X226392857Y-94653571D02*
X226250000Y-94582142D01*
X226178571Y-94439285D01*
X226178571Y-93153571D01*
X227535714Y-94582142D02*
X227392857Y-94653571D01*
X227107142Y-94653571D01*
X226964285Y-94582142D01*
X226892857Y-94439285D01*
X226892857Y-93867857D01*
X226964285Y-93725000D01*
X227107142Y-93653571D01*
X227392857Y-93653571D01*
X227535714Y-93725000D01*
X227607142Y-93867857D01*
X227607142Y-94010714D01*
X226892857Y-94153571D01*
X228178571Y-94582142D02*
X228321428Y-94653571D01*
X228607142Y-94653571D01*
X228750000Y-94582142D01*
X228821428Y-94439285D01*
X228821428Y-94367857D01*
X228750000Y-94225000D01*
X228607142Y-94153571D01*
X228392857Y-94153571D01*
X228250000Y-94082142D01*
X228178571Y-93939285D01*
X228178571Y-93867857D01*
X228250000Y-93725000D01*
X228392857Y-93653571D01*
X228607142Y-93653571D01*
X228750000Y-93725000D01*
X229392857Y-94582142D02*
X229535714Y-94653571D01*
X229821428Y-94653571D01*
X229964285Y-94582142D01*
X230035714Y-94439285D01*
X230035714Y-94367857D01*
X229964285Y-94225000D01*
X229821428Y-94153571D01*
X229607142Y-94153571D01*
X229464285Y-94082142D01*
X229392857Y-93939285D01*
X229392857Y-93867857D01*
X229464285Y-93725000D01*
X229607142Y-93653571D01*
X229821428Y-93653571D01*
X229964285Y-93725000D01*
X220107142Y-96203571D02*
X220464285Y-97203571D01*
X220821428Y-96203571D01*
X222178571Y-97203571D02*
X221321428Y-97203571D01*
X221750000Y-97203571D02*
X221750000Y-95703571D01*
X221607142Y-95917857D01*
X221464285Y-96060714D01*
X221321428Y-96132142D01*
X222821428Y-97060714D02*
X222892857Y-97132142D01*
X222821428Y-97203571D01*
X222750000Y-97132142D01*
X222821428Y-97060714D01*
X222821428Y-97203571D01*
X223821428Y-95703571D02*
X223964285Y-95703571D01*
X224107142Y-95775000D01*
X224178571Y-95846428D01*
X224250000Y-95989285D01*
X224321428Y-96275000D01*
X224321428Y-96632142D01*
X224250000Y-96917857D01*
X224178571Y-97060714D01*
X224107142Y-97132142D01*
X223964285Y-97203571D01*
X223821428Y-97203571D01*
X223678571Y-97132142D01*
X223607142Y-97060714D01*
X223535714Y-96917857D01*
X223464285Y-96632142D01*
X223464285Y-96275000D01*
X223535714Y-95989285D01*
X223607142Y-95846428D01*
X223678571Y-95775000D01*
X223821428Y-95703571D01*
D12*
X248512000Y-117101252D02*
X248512000Y-116578748D01*
X247042000Y-117101252D02*
X247042000Y-116578748D01*
X247042000Y-108846252D02*
X247042000Y-108323748D01*
X248512000Y-108846252D02*
X248512000Y-108323748D01*
X248512000Y-100464252D02*
X248512000Y-99941748D01*
X247042000Y-100464252D02*
X247042000Y-99941748D01*
X222033000Y-101422252D02*
X222033000Y-99999748D01*
X224753000Y-101422252D02*
X224753000Y-99999748D01*
X218586267Y-116080000D02*
X218293733Y-116080000D01*
X218586267Y-115060000D02*
X218293733Y-115060000D01*
X221490000Y-101238267D02*
X221490000Y-100945733D01*
X220470000Y-101238267D02*
X220470000Y-100945733D01*
X205505267Y-112012000D02*
X205212733Y-112012000D01*
X205505267Y-113032000D02*
X205212733Y-113032000D01*
X205505267Y-114556000D02*
X205212733Y-114556000D01*
X205505267Y-113536000D02*
X205212733Y-113536000D01*
X218459267Y-99824000D02*
X218166733Y-99824000D01*
X218459267Y-98804000D02*
X218166733Y-98804000D01*
X221849733Y-105154000D02*
X222142267Y-105154000D01*
X221849733Y-106174000D02*
X222142267Y-106174000D01*
X222230733Y-108841000D02*
X222523267Y-108841000D01*
X222230733Y-107821000D02*
X222523267Y-107821000D01*
X222230733Y-110361000D02*
X222523267Y-110361000D01*
X222230733Y-111381000D02*
X222523267Y-111381000D01*
X208934267Y-106551000D02*
X208641733Y-106551000D01*
X208934267Y-107571000D02*
X208641733Y-107571000D01*
X208641733Y-98169000D02*
X208934267Y-98169000D01*
X208641733Y-99189000D02*
X208934267Y-99189000D01*
X208934267Y-101217000D02*
X208641733Y-101217000D01*
X208934267Y-102237000D02*
X208641733Y-102237000D01*
X194075267Y-102872000D02*
X193782733Y-102872000D01*
X194075267Y-101852000D02*
X193782733Y-101852000D01*
X204762000Y-116740000D02*
X202477000Y-116740000D01*
X202477000Y-116740000D02*
X202477000Y-118210000D01*
X202477000Y-118210000D02*
X204762000Y-118210000D01*
X194048000Y-99092000D02*
X194708000Y-99092000D01*
X192388000Y-99092000D02*
X193048000Y-99092000D01*
X192388000Y-99092000D02*
X192388000Y-101122000D01*
X194708000Y-100502000D02*
X194708000Y-99092000D01*
X190246000Y-93853000D02*
X191576000Y-93853000D01*
X190246000Y-95183000D02*
X190246000Y-93853000D01*
X194310000Y-97917000D02*
X190246000Y-97917000D01*
X194310000Y-118237000D02*
X190246000Y-118237000D01*
X190246000Y-115503000D02*
X190246000Y-114173000D01*
X190246000Y-114173000D02*
X191576000Y-114173000D01*
X190313000Y-111947000D02*
X192973000Y-111947000D01*
X190313000Y-106807000D02*
X190313000Y-111947000D01*
X192973000Y-106807000D02*
X192973000Y-111947000D01*
X190313000Y-106807000D02*
X192973000Y-106807000D01*
X190313000Y-105537000D02*
X190313000Y-104207000D01*
X190313000Y-104207000D02*
X191643000Y-104207000D01*
X201736000Y-117789000D02*
X201736000Y-115129000D01*
X199136000Y-117789000D02*
X201736000Y-117789000D01*
X199136000Y-115129000D02*
X201736000Y-115129000D01*
X199136000Y-117789000D02*
X199136000Y-115129000D01*
X197866000Y-117789000D02*
X196536000Y-117789000D01*
X196536000Y-117789000D02*
X196536000Y-116459000D01*
X252857000Y-114681000D02*
X248793000Y-114681000D01*
X248793000Y-111947000D02*
X248793000Y-110617000D01*
X248793000Y-110617000D02*
X250123000Y-110617000D01*
X248793000Y-102235000D02*
X250123000Y-102235000D01*
X248793000Y-103565000D02*
X248793000Y-102235000D01*
X252857000Y-106299000D02*
X248793000Y-106299000D01*
X248793000Y-93599000D02*
X250123000Y-93599000D01*
X248793000Y-94929000D02*
X248793000Y-93599000D01*
X252857000Y-97663000D02*
X248793000Y-97663000D01*
X236231000Y-117700000D02*
X236231000Y-117300000D01*
X237731000Y-117700000D02*
X236231000Y-117700000D01*
X236231000Y-115900000D02*
X236231000Y-112700000D01*
X236231000Y-110900000D02*
X237731000Y-110900000D01*
X236231000Y-111250000D02*
X236231000Y-110900000D01*
X236231000Y-102106000D02*
X236231000Y-101756000D01*
X236231000Y-101756000D02*
X237731000Y-101756000D01*
X236231000Y-106756000D02*
X236231000Y-103556000D01*
X237731000Y-108556000D02*
X236231000Y-108556000D01*
X236231000Y-108556000D02*
X236231000Y-108156000D01*
X236104000Y-93343000D02*
X236104000Y-92993000D01*
X236104000Y-92993000D02*
X237604000Y-92993000D01*
X236104000Y-97993000D02*
X236104000Y-94793000D01*
X237604000Y-99793000D02*
X236104000Y-99793000D01*
X236104000Y-99793000D02*
X236104000Y-99393000D01*
X191911500Y-101726276D02*
X191911500Y-102235724D01*
X190866500Y-101726276D02*
X190866500Y-102235724D01*
X207009276Y-116952500D02*
X207518724Y-116952500D01*
X207009276Y-117997500D02*
X207518724Y-117997500D01*
X227979500Y-105918724D02*
X227979500Y-105409276D01*
X226934500Y-105918724D02*
X226934500Y-105409276D01*
X227076724Y-101106500D02*
X226567276Y-101106500D01*
X227076724Y-100061500D02*
X226567276Y-100061500D01*
X231281500Y-94488724D02*
X231281500Y-93979276D01*
X230236500Y-94488724D02*
X230236500Y-93979276D01*
X228712500Y-105918724D02*
X228712500Y-105409276D01*
X229757500Y-105918724D02*
X229757500Y-105409276D01*
X227076724Y-98537500D02*
X226567276Y-98537500D01*
X227076724Y-99582500D02*
X226567276Y-99582500D01*
X228894724Y-97296500D02*
X228385276Y-97296500D01*
X228894724Y-96251500D02*
X228385276Y-96251500D01*
X245476500Y-116840724D02*
X245476500Y-116331276D01*
X246521500Y-116840724D02*
X246521500Y-116331276D01*
X249032500Y-116331276D02*
X249032500Y-116840724D01*
X250077500Y-116331276D02*
X250077500Y-116840724D01*
X246521500Y-109093724D02*
X246521500Y-108584276D01*
X245476500Y-109093724D02*
X245476500Y-108584276D01*
X250077500Y-108584276D02*
X250077500Y-109093724D01*
X249032500Y-108584276D02*
X249032500Y-109093724D01*
X245476500Y-100711724D02*
X245476500Y-100202276D01*
X246521500Y-100711724D02*
X246521500Y-100202276D01*
X249032500Y-100202276D02*
X249032500Y-100711724D01*
X250077500Y-100202276D02*
X250077500Y-100711724D01*
X212597276Y-93965500D02*
X213106724Y-93965500D01*
X212597276Y-95010500D02*
X213106724Y-95010500D01*
X209042724Y-103773500D02*
X208533276Y-103773500D01*
X209042724Y-102728500D02*
X208533276Y-102728500D01*
X208533276Y-95899500D02*
X209042724Y-95899500D01*
X208533276Y-94854500D02*
X209042724Y-94854500D01*
X209042724Y-113044500D02*
X208533276Y-113044500D01*
X209042724Y-111999500D02*
X208533276Y-111999500D01*
X209042724Y-113523500D02*
X208533276Y-113523500D01*
X209042724Y-114568500D02*
X208533276Y-114568500D01*
X209042724Y-96505500D02*
X208533276Y-96505500D01*
X209042724Y-97550500D02*
X208533276Y-97550500D01*
X212573776Y-98791500D02*
X213083224Y-98791500D01*
X212573776Y-99836500D02*
X213083224Y-99836500D01*
X212597276Y-95743500D02*
X213106724Y-95743500D01*
X212597276Y-96788500D02*
X213106724Y-96788500D01*
X213106724Y-97267500D02*
X212597276Y-97267500D01*
X213106724Y-98312500D02*
X212597276Y-98312500D01*
X209042724Y-100725500D02*
X208533276Y-100725500D01*
X209042724Y-99680500D02*
X208533276Y-99680500D01*
X196342724Y-93711500D02*
X195833276Y-93711500D01*
X196342724Y-94756500D02*
X195833276Y-94756500D01*
X195833276Y-96407500D02*
X196342724Y-96407500D01*
X195833276Y-95362500D02*
X196342724Y-95362500D01*
X201526000Y-100711000D02*
G75*
G03*
X201526000Y-100711000I-1120000J0D01*
G01*
D13*
X212217000Y-114567000D02*
X218567000Y-114567000D01*
X211142000Y-100242000D02*
X218567000Y-100242000D01*
X212217000Y-114567000D02*
X212217000Y-114559500D01*
X218567000Y-114567000D02*
X218567000Y-114559500D01*
X218567000Y-100317000D02*
X218567000Y-100324500D01*
D12*
X202042000Y-110544000D02*
X202492000Y-110544000D01*
X202492000Y-110544000D02*
X202492000Y-110094000D01*
X195722000Y-110544000D02*
X195272000Y-110544000D01*
X195272000Y-110544000D02*
X195272000Y-110094000D01*
X202042000Y-103324000D02*
X202492000Y-103324000D01*
X202492000Y-103324000D02*
X202492000Y-103774000D01*
X195722000Y-103324000D02*
X195272000Y-103324000D01*
X195272000Y-103324000D02*
X195272000Y-103774000D01*
X195272000Y-103774000D02*
X193982000Y-103774000D01*
X226951000Y-114407733D02*
X226951000Y-114700267D01*
X225931000Y-114407733D02*
X225931000Y-114700267D01*
%LPC*%
G36*
G01*
X248252000Y-118465000D02*
X247302000Y-118465000D01*
G75*
G02*
X247052000Y-118215000I0J250000D01*
G01*
X247052000Y-117540000D01*
G75*
G02*
X247302000Y-117290000I250000J0D01*
G01*
X248252000Y-117290000D01*
G75*
G02*
X248502000Y-117540000I0J-250000D01*
G01*
X248502000Y-118215000D01*
G75*
G02*
X248252000Y-118465000I-250000J0D01*
G01*
G37*
G36*
G01*
X248252000Y-116390000D02*
X247302000Y-116390000D01*
G75*
G02*
X247052000Y-116140000I0J250000D01*
G01*
X247052000Y-115465000D01*
G75*
G02*
X247302000Y-115215000I250000J0D01*
G01*
X248252000Y-115215000D01*
G75*
G02*
X248502000Y-115465000I0J-250000D01*
G01*
X248502000Y-116140000D01*
G75*
G02*
X248252000Y-116390000I-250000J0D01*
G01*
G37*
G36*
G01*
X248252000Y-108135000D02*
X247302000Y-108135000D01*
G75*
G02*
X247052000Y-107885000I0J250000D01*
G01*
X247052000Y-107210000D01*
G75*
G02*
X247302000Y-106960000I250000J0D01*
G01*
X248252000Y-106960000D01*
G75*
G02*
X248502000Y-107210000I0J-250000D01*
G01*
X248502000Y-107885000D01*
G75*
G02*
X248252000Y-108135000I-250000J0D01*
G01*
G37*
G36*
G01*
X248252000Y-110210000D02*
X247302000Y-110210000D01*
G75*
G02*
X247052000Y-109960000I0J250000D01*
G01*
X247052000Y-109285000D01*
G75*
G02*
X247302000Y-109035000I250000J0D01*
G01*
X248252000Y-109035000D01*
G75*
G02*
X248502000Y-109285000I0J-250000D01*
G01*
X248502000Y-109960000D01*
G75*
G02*
X248252000Y-110210000I-250000J0D01*
G01*
G37*
G36*
G01*
X248252000Y-101828000D02*
X247302000Y-101828000D01*
G75*
G02*
X247052000Y-101578000I0J250000D01*
G01*
X247052000Y-100903000D01*
G75*
G02*
X247302000Y-100653000I250000J0D01*
G01*
X248252000Y-100653000D01*
G75*
G02*
X248502000Y-100903000I0J-250000D01*
G01*
X248502000Y-101578000D01*
G75*
G02*
X248252000Y-101828000I-250000J0D01*
G01*
G37*
G36*
G01*
X248252000Y-99753000D02*
X247302000Y-99753000D01*
G75*
G02*
X247052000Y-99503000I0J250000D01*
G01*
X247052000Y-98828000D01*
G75*
G02*
X247302000Y-98578000I250000J0D01*
G01*
X248252000Y-98578000D01*
G75*
G02*
X248502000Y-98828000I0J-250000D01*
G01*
X248502000Y-99503000D01*
G75*
G02*
X248252000Y-99753000I-250000J0D01*
G01*
G37*
G36*
G01*
X224493002Y-102936000D02*
X222292998Y-102936000D01*
G75*
G02*
X222043000Y-102686002I0J249998D01*
G01*
X222043000Y-101860998D01*
G75*
G02*
X222292998Y-101611000I249998J0D01*
G01*
X224493002Y-101611000D01*
G75*
G02*
X224743000Y-101860998I0J-249998D01*
G01*
X224743000Y-102686002D01*
G75*
G02*
X224493002Y-102936000I-249998J0D01*
G01*
G37*
G36*
G01*
X224493002Y-99811000D02*
X222292998Y-99811000D01*
G75*
G02*
X222043000Y-99561002I0J249998D01*
G01*
X222043000Y-98735998D01*
G75*
G02*
X222292998Y-98486000I249998J0D01*
G01*
X224493002Y-98486000D01*
G75*
G02*
X224743000Y-98735998I0J-249998D01*
G01*
X224743000Y-99561002D01*
G75*
G02*
X224493002Y-99811000I-249998J0D01*
G01*
G37*
G36*
G01*
X219840000Y-115332500D02*
X219840000Y-115807500D01*
G75*
G02*
X219602500Y-116045000I-237500J0D01*
G01*
X219002500Y-116045000D01*
G75*
G02*
X218765000Y-115807500I0J237500D01*
G01*
X218765000Y-115332500D01*
G75*
G02*
X219002500Y-115095000I237500J0D01*
G01*
X219602500Y-115095000D01*
G75*
G02*
X219840000Y-115332500I0J-237500D01*
G01*
G37*
G36*
G01*
X218115000Y-115332500D02*
X218115000Y-115807500D01*
G75*
G02*
X217877500Y-116045000I-237500J0D01*
G01*
X217277500Y-116045000D01*
G75*
G02*
X217040000Y-115807500I0J237500D01*
G01*
X217040000Y-115332500D01*
G75*
G02*
X217277500Y-115095000I237500J0D01*
G01*
X217877500Y-115095000D01*
G75*
G02*
X218115000Y-115332500I0J-237500D01*
G01*
G37*
G36*
G01*
X221217500Y-100767000D02*
X220742500Y-100767000D01*
G75*
G02*
X220505000Y-100529500I0J237500D01*
G01*
X220505000Y-99929500D01*
G75*
G02*
X220742500Y-99692000I237500J0D01*
G01*
X221217500Y-99692000D01*
G75*
G02*
X221455000Y-99929500I0J-237500D01*
G01*
X221455000Y-100529500D01*
G75*
G02*
X221217500Y-100767000I-237500J0D01*
G01*
G37*
G36*
G01*
X221217500Y-102492000D02*
X220742500Y-102492000D01*
G75*
G02*
X220505000Y-102254500I0J237500D01*
G01*
X220505000Y-101654500D01*
G75*
G02*
X220742500Y-101417000I237500J0D01*
G01*
X221217500Y-101417000D01*
G75*
G02*
X221455000Y-101654500I0J-237500D01*
G01*
X221455000Y-102254500D01*
G75*
G02*
X221217500Y-102492000I-237500J0D01*
G01*
G37*
G36*
G01*
X205034000Y-112284500D02*
X205034000Y-112759500D01*
G75*
G02*
X204796500Y-112997000I-237500J0D01*
G01*
X204196500Y-112997000D01*
G75*
G02*
X203959000Y-112759500I0J237500D01*
G01*
X203959000Y-112284500D01*
G75*
G02*
X204196500Y-112047000I237500J0D01*
G01*
X204796500Y-112047000D01*
G75*
G02*
X205034000Y-112284500I0J-237500D01*
G01*
G37*
G36*
G01*
X206759000Y-112284500D02*
X206759000Y-112759500D01*
G75*
G02*
X206521500Y-112997000I-237500J0D01*
G01*
X205921500Y-112997000D01*
G75*
G02*
X205684000Y-112759500I0J237500D01*
G01*
X205684000Y-112284500D01*
G75*
G02*
X205921500Y-112047000I237500J0D01*
G01*
X206521500Y-112047000D01*
G75*
G02*
X206759000Y-112284500I0J-237500D01*
G01*
G37*
G36*
G01*
X206759000Y-113808500D02*
X206759000Y-114283500D01*
G75*
G02*
X206521500Y-114521000I-237500J0D01*
G01*
X205921500Y-114521000D01*
G75*
G02*
X205684000Y-114283500I0J237500D01*
G01*
X205684000Y-113808500D01*
G75*
G02*
X205921500Y-113571000I237500J0D01*
G01*
X206521500Y-113571000D01*
G75*
G02*
X206759000Y-113808500I0J-237500D01*
G01*
G37*
G36*
G01*
X205034000Y-113808500D02*
X205034000Y-114283500D01*
G75*
G02*
X204796500Y-114521000I-237500J0D01*
G01*
X204196500Y-114521000D01*
G75*
G02*
X203959000Y-114283500I0J237500D01*
G01*
X203959000Y-113808500D01*
G75*
G02*
X204196500Y-113571000I237500J0D01*
G01*
X204796500Y-113571000D01*
G75*
G02*
X205034000Y-113808500I0J-237500D01*
G01*
G37*
G36*
G01*
X219713000Y-99076500D02*
X219713000Y-99551500D01*
G75*
G02*
X219475500Y-99789000I-237500J0D01*
G01*
X218875500Y-99789000D01*
G75*
G02*
X218638000Y-99551500I0J237500D01*
G01*
X218638000Y-99076500D01*
G75*
G02*
X218875500Y-98839000I237500J0D01*
G01*
X219475500Y-98839000D01*
G75*
G02*
X219713000Y-99076500I0J-237500D01*
G01*
G37*
G36*
G01*
X217988000Y-99076500D02*
X217988000Y-99551500D01*
G75*
G02*
X217750500Y-99789000I-237500J0D01*
G01*
X217150500Y-99789000D01*
G75*
G02*
X216913000Y-99551500I0J237500D01*
G01*
X216913000Y-99076500D01*
G75*
G02*
X217150500Y-98839000I237500J0D01*
G01*
X217750500Y-98839000D01*
G75*
G02*
X217988000Y-99076500I0J-237500D01*
G01*
G37*
G36*
G01*
X220596000Y-105901500D02*
X220596000Y-105426500D01*
G75*
G02*
X220833500Y-105189000I237500J0D01*
G01*
X221433500Y-105189000D01*
G75*
G02*
X221671000Y-105426500I0J-237500D01*
G01*
X221671000Y-105901500D01*
G75*
G02*
X221433500Y-106139000I-237500J0D01*
G01*
X220833500Y-106139000D01*
G75*
G02*
X220596000Y-105901500I0J237500D01*
G01*
G37*
G36*
G01*
X222321000Y-105901500D02*
X222321000Y-105426500D01*
G75*
G02*
X222558500Y-105189000I237500J0D01*
G01*
X223158500Y-105189000D01*
G75*
G02*
X223396000Y-105426500I0J-237500D01*
G01*
X223396000Y-105901500D01*
G75*
G02*
X223158500Y-106139000I-237500J0D01*
G01*
X222558500Y-106139000D01*
G75*
G02*
X222321000Y-105901500I0J237500D01*
G01*
G37*
G36*
G01*
X222702000Y-108568500D02*
X222702000Y-108093500D01*
G75*
G02*
X222939500Y-107856000I237500J0D01*
G01*
X223539500Y-107856000D01*
G75*
G02*
X223777000Y-108093500I0J-237500D01*
G01*
X223777000Y-108568500D01*
G75*
G02*
X223539500Y-108806000I-237500J0D01*
G01*
X222939500Y-108806000D01*
G75*
G02*
X222702000Y-108568500I0J237500D01*
G01*
G37*
G36*
G01*
X220977000Y-108568500D02*
X220977000Y-108093500D01*
G75*
G02*
X221214500Y-107856000I237500J0D01*
G01*
X221814500Y-107856000D01*
G75*
G02*
X222052000Y-108093500I0J-237500D01*
G01*
X222052000Y-108568500D01*
G75*
G02*
X221814500Y-108806000I-237500J0D01*
G01*
X221214500Y-108806000D01*
G75*
G02*
X220977000Y-108568500I0J237500D01*
G01*
G37*
G36*
G01*
X220977000Y-111108500D02*
X220977000Y-110633500D01*
G75*
G02*
X221214500Y-110396000I237500J0D01*
G01*
X221814500Y-110396000D01*
G75*
G02*
X222052000Y-110633500I0J-237500D01*
G01*
X222052000Y-111108500D01*
G75*
G02*
X221814500Y-111346000I-237500J0D01*
G01*
X221214500Y-111346000D01*
G75*
G02*
X220977000Y-111108500I0J237500D01*
G01*
G37*
G36*
G01*
X222702000Y-111108500D02*
X222702000Y-110633500D01*
G75*
G02*
X222939500Y-110396000I237500J0D01*
G01*
X223539500Y-110396000D01*
G75*
G02*
X223777000Y-110633500I0J-237500D01*
G01*
X223777000Y-111108500D01*
G75*
G02*
X223539500Y-111346000I-237500J0D01*
G01*
X222939500Y-111346000D01*
G75*
G02*
X222702000Y-111108500I0J237500D01*
G01*
G37*
G36*
G01*
X208463000Y-106823500D02*
X208463000Y-107298500D01*
G75*
G02*
X208225500Y-107536000I-237500J0D01*
G01*
X207625500Y-107536000D01*
G75*
G02*
X207388000Y-107298500I0J237500D01*
G01*
X207388000Y-106823500D01*
G75*
G02*
X207625500Y-106586000I237500J0D01*
G01*
X208225500Y-106586000D01*
G75*
G02*
X208463000Y-106823500I0J-237500D01*
G01*
G37*
G36*
G01*
X210188000Y-106823500D02*
X210188000Y-107298500D01*
G75*
G02*
X209950500Y-107536000I-237500J0D01*
G01*
X209350500Y-107536000D01*
G75*
G02*
X209113000Y-107298500I0J237500D01*
G01*
X209113000Y-106823500D01*
G75*
G02*
X209350500Y-106586000I237500J0D01*
G01*
X209950500Y-106586000D01*
G75*
G02*
X210188000Y-106823500I0J-237500D01*
G01*
G37*
G36*
G01*
X207388000Y-98916500D02*
X207388000Y-98441500D01*
G75*
G02*
X207625500Y-98204000I237500J0D01*
G01*
X208225500Y-98204000D01*
G75*
G02*
X208463000Y-98441500I0J-237500D01*
G01*
X208463000Y-98916500D01*
G75*
G02*
X208225500Y-99154000I-237500J0D01*
G01*
X207625500Y-99154000D01*
G75*
G02*
X207388000Y-98916500I0J237500D01*
G01*
G37*
G36*
G01*
X209113000Y-98916500D02*
X209113000Y-98441500D01*
G75*
G02*
X209350500Y-98204000I237500J0D01*
G01*
X209950500Y-98204000D01*
G75*
G02*
X210188000Y-98441500I0J-237500D01*
G01*
X210188000Y-98916500D01*
G75*
G02*
X209950500Y-99154000I-237500J0D01*
G01*
X209350500Y-99154000D01*
G75*
G02*
X209113000Y-98916500I0J237500D01*
G01*
G37*
G36*
G01*
X208463000Y-101489500D02*
X208463000Y-101964500D01*
G75*
G02*
X208225500Y-102202000I-237500J0D01*
G01*
X207625500Y-102202000D01*
G75*
G02*
X207388000Y-101964500I0J237500D01*
G01*
X207388000Y-101489500D01*
G75*
G02*
X207625500Y-101252000I237500J0D01*
G01*
X208225500Y-101252000D01*
G75*
G02*
X208463000Y-101489500I0J-237500D01*
G01*
G37*
G36*
G01*
X210188000Y-101489500D02*
X210188000Y-101964500D01*
G75*
G02*
X209950500Y-102202000I-237500J0D01*
G01*
X209350500Y-102202000D01*
G75*
G02*
X209113000Y-101964500I0J237500D01*
G01*
X209113000Y-101489500D01*
G75*
G02*
X209350500Y-101252000I237500J0D01*
G01*
X209950500Y-101252000D01*
G75*
G02*
X210188000Y-101489500I0J-237500D01*
G01*
G37*
G36*
G01*
X195329000Y-102124500D02*
X195329000Y-102599500D01*
G75*
G02*
X195091500Y-102837000I-237500J0D01*
G01*
X194491500Y-102837000D01*
G75*
G02*
X194254000Y-102599500I0J237500D01*
G01*
X194254000Y-102124500D01*
G75*
G02*
X194491500Y-101887000I237500J0D01*
G01*
X195091500Y-101887000D01*
G75*
G02*
X195329000Y-102124500I0J-237500D01*
G01*
G37*
G36*
G01*
X193604000Y-102124500D02*
X193604000Y-102599500D01*
G75*
G02*
X193366500Y-102837000I-237500J0D01*
G01*
X192766500Y-102837000D01*
G75*
G02*
X192529000Y-102599500I0J237500D01*
G01*
X192529000Y-102124500D01*
G75*
G02*
X192766500Y-101887000I237500J0D01*
G01*
X193366500Y-101887000D01*
G75*
G02*
X193604000Y-102124500I0J-237500D01*
G01*
G37*
G36*
G01*
X202737000Y-117731250D02*
X202737000Y-117218750D01*
G75*
G02*
X202955750Y-117000000I218750J0D01*
G01*
X203393250Y-117000000D01*
G75*
G02*
X203612000Y-117218750I0J-218750D01*
G01*
X203612000Y-117731250D01*
G75*
G02*
X203393250Y-117950000I-218750J0D01*
G01*
X202955750Y-117950000D01*
G75*
G02*
X202737000Y-117731250I0J218750D01*
G01*
G37*
G36*
G01*
X204312000Y-117731250D02*
X204312000Y-117218750D01*
G75*
G02*
X204530750Y-117000000I218750J0D01*
G01*
X204968250Y-117000000D01*
G75*
G02*
X205187000Y-117218750I0J-218750D01*
G01*
X205187000Y-117731250D01*
G75*
G02*
X204968250Y-117950000I-218750J0D01*
G01*
X204530750Y-117950000D01*
G75*
G02*
X204312000Y-117731250I0J218750D01*
G01*
G37*
D14*
X192898000Y-100822000D03*
X194198000Y-100822000D03*
X193548000Y-98822000D03*
D15*
X192278000Y-95885000D03*
X192278000Y-116205000D03*
D16*
X191643000Y-105537000D03*
D17*
X191643000Y-108077000D03*
X191643000Y-110617000D03*
D16*
X197866000Y-116459000D03*
D17*
X200406000Y-116459000D03*
D15*
X250825000Y-112649000D03*
X250825000Y-104267000D03*
X250825000Y-95631000D03*
D18*
X233931000Y-112000000D03*
X233931000Y-116580000D03*
D19*
X241331000Y-114300000D03*
X241331000Y-105156000D03*
D18*
X233931000Y-107436000D03*
X233931000Y-102856000D03*
D19*
X241204000Y-96393000D03*
D18*
X233804000Y-98673000D03*
X233804000Y-94093000D03*
G36*
G01*
X191151500Y-100581000D02*
X191626500Y-100581000D01*
G75*
G02*
X191864000Y-100818500I0J-237500D01*
G01*
X191864000Y-101318500D01*
G75*
G02*
X191626500Y-101556000I-237500J0D01*
G01*
X191151500Y-101556000D01*
G75*
G02*
X190914000Y-101318500I0J237500D01*
G01*
X190914000Y-100818500D01*
G75*
G02*
X191151500Y-100581000I237500J0D01*
G01*
G37*
G36*
G01*
X191151500Y-102406000D02*
X191626500Y-102406000D01*
G75*
G02*
X191864000Y-102643500I0J-237500D01*
G01*
X191864000Y-103143500D01*
G75*
G02*
X191626500Y-103381000I-237500J0D01*
G01*
X191151500Y-103381000D01*
G75*
G02*
X190914000Y-103143500I0J237500D01*
G01*
X190914000Y-102643500D01*
G75*
G02*
X191151500Y-102406000I237500J0D01*
G01*
G37*
G36*
G01*
X205864000Y-117712500D02*
X205864000Y-117237500D01*
G75*
G02*
X206101500Y-117000000I237500J0D01*
G01*
X206601500Y-117000000D01*
G75*
G02*
X206839000Y-117237500I0J-237500D01*
G01*
X206839000Y-117712500D01*
G75*
G02*
X206601500Y-117950000I-237500J0D01*
G01*
X206101500Y-117950000D01*
G75*
G02*
X205864000Y-117712500I0J237500D01*
G01*
G37*
G36*
G01*
X207689000Y-117712500D02*
X207689000Y-117237500D01*
G75*
G02*
X207926500Y-117000000I237500J0D01*
G01*
X208426500Y-117000000D01*
G75*
G02*
X208664000Y-117237500I0J-237500D01*
G01*
X208664000Y-117712500D01*
G75*
G02*
X208426500Y-117950000I-237500J0D01*
G01*
X207926500Y-117950000D01*
G75*
G02*
X207689000Y-117712500I0J237500D01*
G01*
G37*
G36*
G01*
X227694500Y-105239000D02*
X227219500Y-105239000D01*
G75*
G02*
X226982000Y-105001500I0J237500D01*
G01*
X226982000Y-104501500D01*
G75*
G02*
X227219500Y-104264000I237500J0D01*
G01*
X227694500Y-104264000D01*
G75*
G02*
X227932000Y-104501500I0J-237500D01*
G01*
X227932000Y-105001500D01*
G75*
G02*
X227694500Y-105239000I-237500J0D01*
G01*
G37*
G36*
G01*
X227694500Y-107064000D02*
X227219500Y-107064000D01*
G75*
G02*
X226982000Y-106826500I0J237500D01*
G01*
X226982000Y-106326500D01*
G75*
G02*
X227219500Y-106089000I237500J0D01*
G01*
X227694500Y-106089000D01*
G75*
G02*
X227932000Y-106326500I0J-237500D01*
G01*
X227932000Y-106826500D01*
G75*
G02*
X227694500Y-107064000I-237500J0D01*
G01*
G37*
G36*
G01*
X228222000Y-100346500D02*
X228222000Y-100821500D01*
G75*
G02*
X227984500Y-101059000I-237500J0D01*
G01*
X227484500Y-101059000D01*
G75*
G02*
X227247000Y-100821500I0J237500D01*
G01*
X227247000Y-100346500D01*
G75*
G02*
X227484500Y-100109000I237500J0D01*
G01*
X227984500Y-100109000D01*
G75*
G02*
X228222000Y-100346500I0J-237500D01*
G01*
G37*
G36*
G01*
X226397000Y-100346500D02*
X226397000Y-100821500D01*
G75*
G02*
X226159500Y-101059000I-237500J0D01*
G01*
X225659500Y-101059000D01*
G75*
G02*
X225422000Y-100821500I0J237500D01*
G01*
X225422000Y-100346500D01*
G75*
G02*
X225659500Y-100109000I237500J0D01*
G01*
X226159500Y-100109000D01*
G75*
G02*
X226397000Y-100346500I0J-237500D01*
G01*
G37*
G36*
G01*
X230996500Y-93809000D02*
X230521500Y-93809000D01*
G75*
G02*
X230284000Y-93571500I0J237500D01*
G01*
X230284000Y-93071500D01*
G75*
G02*
X230521500Y-92834000I237500J0D01*
G01*
X230996500Y-92834000D01*
G75*
G02*
X231234000Y-93071500I0J-237500D01*
G01*
X231234000Y-93571500D01*
G75*
G02*
X230996500Y-93809000I-237500J0D01*
G01*
G37*
G36*
G01*
X230996500Y-95634000D02*
X230521500Y-95634000D01*
G75*
G02*
X230284000Y-95396500I0J237500D01*
G01*
X230284000Y-94896500D01*
G75*
G02*
X230521500Y-94659000I237500J0D01*
G01*
X230996500Y-94659000D01*
G75*
G02*
X231234000Y-94896500I0J-237500D01*
G01*
X231234000Y-95396500D01*
G75*
G02*
X230996500Y-95634000I-237500J0D01*
G01*
G37*
G36*
G01*
X229472500Y-107064000D02*
X228997500Y-107064000D01*
G75*
G02*
X228760000Y-106826500I0J237500D01*
G01*
X228760000Y-106326500D01*
G75*
G02*
X228997500Y-106089000I237500J0D01*
G01*
X229472500Y-106089000D01*
G75*
G02*
X229710000Y-106326500I0J-237500D01*
G01*
X229710000Y-106826500D01*
G75*
G02*
X229472500Y-107064000I-237500J0D01*
G01*
G37*
G36*
G01*
X229472500Y-105239000D02*
X228997500Y-105239000D01*
G75*
G02*
X228760000Y-105001500I0J237500D01*
G01*
X228760000Y-104501500D01*
G75*
G02*
X228997500Y-104264000I237500J0D01*
G01*
X229472500Y-104264000D01*
G75*
G02*
X229710000Y-104501500I0J-237500D01*
G01*
X229710000Y-105001500D01*
G75*
G02*
X229472500Y-105239000I-237500J0D01*
G01*
G37*
G36*
G01*
X226397000Y-98822500D02*
X226397000Y-99297500D01*
G75*
G02*
X226159500Y-99535000I-237500J0D01*
G01*
X225659500Y-99535000D01*
G75*
G02*
X225422000Y-99297500I0J237500D01*
G01*
X225422000Y-98822500D01*
G75*
G02*
X225659500Y-98585000I237500J0D01*
G01*
X226159500Y-98585000D01*
G75*
G02*
X226397000Y-98822500I0J-237500D01*
G01*
G37*
G36*
G01*
X228222000Y-98822500D02*
X228222000Y-99297500D01*
G75*
G02*
X227984500Y-99535000I-237500J0D01*
G01*
X227484500Y-99535000D01*
G75*
G02*
X227247000Y-99297500I0J237500D01*
G01*
X227247000Y-98822500D01*
G75*
G02*
X227484500Y-98585000I237500J0D01*
G01*
X227984500Y-98585000D01*
G75*
G02*
X228222000Y-98822500I0J-237500D01*
G01*
G37*
G36*
G01*
X230040000Y-96536500D02*
X230040000Y-97011500D01*
G75*
G02*
X229802500Y-97249000I-237500J0D01*
G01*
X229302500Y-97249000D01*
G75*
G02*
X229065000Y-97011500I0J237500D01*
G01*
X229065000Y-96536500D01*
G75*
G02*
X229302500Y-96299000I237500J0D01*
G01*
X229802500Y-96299000D01*
G75*
G02*
X230040000Y-96536500I0J-237500D01*
G01*
G37*
G36*
G01*
X228215000Y-96536500D02*
X228215000Y-97011500D01*
G75*
G02*
X227977500Y-97249000I-237500J0D01*
G01*
X227477500Y-97249000D01*
G75*
G02*
X227240000Y-97011500I0J237500D01*
G01*
X227240000Y-96536500D01*
G75*
G02*
X227477500Y-96299000I237500J0D01*
G01*
X227977500Y-96299000D01*
G75*
G02*
X228215000Y-96536500I0J-237500D01*
G01*
G37*
G36*
G01*
X246236500Y-117986000D02*
X245761500Y-117986000D01*
G75*
G02*
X245524000Y-117748500I0J237500D01*
G01*
X245524000Y-117248500D01*
G75*
G02*
X245761500Y-117011000I237500J0D01*
G01*
X246236500Y-117011000D01*
G75*
G02*
X246474000Y-117248500I0J-237500D01*
G01*
X246474000Y-117748500D01*
G75*
G02*
X246236500Y-117986000I-237500J0D01*
G01*
G37*
G36*
G01*
X246236500Y-116161000D02*
X245761500Y-116161000D01*
G75*
G02*
X245524000Y-115923500I0J237500D01*
G01*
X245524000Y-115423500D01*
G75*
G02*
X245761500Y-115186000I237500J0D01*
G01*
X246236500Y-115186000D01*
G75*
G02*
X246474000Y-115423500I0J-237500D01*
G01*
X246474000Y-115923500D01*
G75*
G02*
X246236500Y-116161000I-237500J0D01*
G01*
G37*
G36*
G01*
X249317500Y-117011000D02*
X249792500Y-117011000D01*
G75*
G02*
X250030000Y-117248500I0J-237500D01*
G01*
X250030000Y-117748500D01*
G75*
G02*
X249792500Y-117986000I-237500J0D01*
G01*
X249317500Y-117986000D01*
G75*
G02*
X249080000Y-117748500I0J237500D01*
G01*
X249080000Y-117248500D01*
G75*
G02*
X249317500Y-117011000I237500J0D01*
G01*
G37*
G36*
G01*
X249317500Y-115186000D02*
X249792500Y-115186000D01*
G75*
G02*
X250030000Y-115423500I0J-237500D01*
G01*
X250030000Y-115923500D01*
G75*
G02*
X249792500Y-116161000I-237500J0D01*
G01*
X249317500Y-116161000D01*
G75*
G02*
X249080000Y-115923500I0J237500D01*
G01*
X249080000Y-115423500D01*
G75*
G02*
X249317500Y-115186000I237500J0D01*
G01*
G37*
G36*
G01*
X246236500Y-108414000D02*
X245761500Y-108414000D01*
G75*
G02*
X245524000Y-108176500I0J237500D01*
G01*
X245524000Y-107676500D01*
G75*
G02*
X245761500Y-107439000I237500J0D01*
G01*
X246236500Y-107439000D01*
G75*
G02*
X246474000Y-107676500I0J-237500D01*
G01*
X246474000Y-108176500D01*
G75*
G02*
X246236500Y-108414000I-237500J0D01*
G01*
G37*
G36*
G01*
X246236500Y-110239000D02*
X245761500Y-110239000D01*
G75*
G02*
X245524000Y-110001500I0J237500D01*
G01*
X245524000Y-109501500D01*
G75*
G02*
X245761500Y-109264000I237500J0D01*
G01*
X246236500Y-109264000D01*
G75*
G02*
X246474000Y-109501500I0J-237500D01*
G01*
X246474000Y-110001500D01*
G75*
G02*
X246236500Y-110239000I-237500J0D01*
G01*
G37*
G36*
G01*
X249317500Y-107439000D02*
X249792500Y-107439000D01*
G75*
G02*
X250030000Y-107676500I0J-237500D01*
G01*
X250030000Y-108176500D01*
G75*
G02*
X249792500Y-108414000I-237500J0D01*
G01*
X249317500Y-108414000D01*
G75*
G02*
X249080000Y-108176500I0J237500D01*
G01*
X249080000Y-107676500D01*
G75*
G02*
X249317500Y-107439000I237500J0D01*
G01*
G37*
G36*
G01*
X249317500Y-109264000D02*
X249792500Y-109264000D01*
G75*
G02*
X250030000Y-109501500I0J-237500D01*
G01*
X250030000Y-110001500D01*
G75*
G02*
X249792500Y-110239000I-237500J0D01*
G01*
X249317500Y-110239000D01*
G75*
G02*
X249080000Y-110001500I0J237500D01*
G01*
X249080000Y-109501500D01*
G75*
G02*
X249317500Y-109264000I237500J0D01*
G01*
G37*
G36*
G01*
X246236500Y-101857000D02*
X245761500Y-101857000D01*
G75*
G02*
X245524000Y-101619500I0J237500D01*
G01*
X245524000Y-101119500D01*
G75*
G02*
X245761500Y-100882000I237500J0D01*
G01*
X246236500Y-100882000D01*
G75*
G02*
X246474000Y-101119500I0J-237500D01*
G01*
X246474000Y-101619500D01*
G75*
G02*
X246236500Y-101857000I-237500J0D01*
G01*
G37*
G36*
G01*
X246236500Y-100032000D02*
X245761500Y-100032000D01*
G75*
G02*
X245524000Y-99794500I0J237500D01*
G01*
X245524000Y-99294500D01*
G75*
G02*
X245761500Y-99057000I237500J0D01*
G01*
X246236500Y-99057000D01*
G75*
G02*
X246474000Y-99294500I0J-237500D01*
G01*
X246474000Y-99794500D01*
G75*
G02*
X246236500Y-100032000I-237500J0D01*
G01*
G37*
G36*
G01*
X249317500Y-100882000D02*
X249792500Y-100882000D01*
G75*
G02*
X250030000Y-101119500I0J-237500D01*
G01*
X250030000Y-101619500D01*
G75*
G02*
X249792500Y-101857000I-237500J0D01*
G01*
X249317500Y-101857000D01*
G75*
G02*
X249080000Y-101619500I0J237500D01*
G01*
X249080000Y-101119500D01*
G75*
G02*
X249317500Y-100882000I237500J0D01*
G01*
G37*
G36*
G01*
X249317500Y-99057000D02*
X249792500Y-99057000D01*
G75*
G02*
X250030000Y-99294500I0J-237500D01*
G01*
X250030000Y-99794500D01*
G75*
G02*
X249792500Y-100032000I-237500J0D01*
G01*
X249317500Y-100032000D01*
G75*
G02*
X249080000Y-99794500I0J237500D01*
G01*
X249080000Y-99294500D01*
G75*
G02*
X249317500Y-99057000I237500J0D01*
G01*
G37*
G36*
G01*
X211452000Y-94725500D02*
X211452000Y-94250500D01*
G75*
G02*
X211689500Y-94013000I237500J0D01*
G01*
X212189500Y-94013000D01*
G75*
G02*
X212427000Y-94250500I0J-237500D01*
G01*
X212427000Y-94725500D01*
G75*
G02*
X212189500Y-94963000I-237500J0D01*
G01*
X211689500Y-94963000D01*
G75*
G02*
X211452000Y-94725500I0J237500D01*
G01*
G37*
G36*
G01*
X213277000Y-94725500D02*
X213277000Y-94250500D01*
G75*
G02*
X213514500Y-94013000I237500J0D01*
G01*
X214014500Y-94013000D01*
G75*
G02*
X214252000Y-94250500I0J-237500D01*
G01*
X214252000Y-94725500D01*
G75*
G02*
X214014500Y-94963000I-237500J0D01*
G01*
X213514500Y-94963000D01*
G75*
G02*
X213277000Y-94725500I0J237500D01*
G01*
G37*
G36*
G01*
X210188000Y-103013500D02*
X210188000Y-103488500D01*
G75*
G02*
X209950500Y-103726000I-237500J0D01*
G01*
X209450500Y-103726000D01*
G75*
G02*
X209213000Y-103488500I0J237500D01*
G01*
X209213000Y-103013500D01*
G75*
G02*
X209450500Y-102776000I237500J0D01*
G01*
X209950500Y-102776000D01*
G75*
G02*
X210188000Y-103013500I0J-237500D01*
G01*
G37*
G36*
G01*
X208363000Y-103013500D02*
X208363000Y-103488500D01*
G75*
G02*
X208125500Y-103726000I-237500J0D01*
G01*
X207625500Y-103726000D01*
G75*
G02*
X207388000Y-103488500I0J237500D01*
G01*
X207388000Y-103013500D01*
G75*
G02*
X207625500Y-102776000I237500J0D01*
G01*
X208125500Y-102776000D01*
G75*
G02*
X208363000Y-103013500I0J-237500D01*
G01*
G37*
G36*
G01*
X209213000Y-95614500D02*
X209213000Y-95139500D01*
G75*
G02*
X209450500Y-94902000I237500J0D01*
G01*
X209950500Y-94902000D01*
G75*
G02*
X210188000Y-95139500I0J-237500D01*
G01*
X210188000Y-95614500D01*
G75*
G02*
X209950500Y-95852000I-237500J0D01*
G01*
X209450500Y-95852000D01*
G75*
G02*
X209213000Y-95614500I0J237500D01*
G01*
G37*
G36*
G01*
X207388000Y-95614500D02*
X207388000Y-95139500D01*
G75*
G02*
X207625500Y-94902000I237500J0D01*
G01*
X208125500Y-94902000D01*
G75*
G02*
X208363000Y-95139500I0J-237500D01*
G01*
X208363000Y-95614500D01*
G75*
G02*
X208125500Y-95852000I-237500J0D01*
G01*
X207625500Y-95852000D01*
G75*
G02*
X207388000Y-95614500I0J237500D01*
G01*
G37*
G36*
G01*
X210188000Y-112284500D02*
X210188000Y-112759500D01*
G75*
G02*
X209950500Y-112997000I-237500J0D01*
G01*
X209450500Y-112997000D01*
G75*
G02*
X209213000Y-112759500I0J237500D01*
G01*
X209213000Y-112284500D01*
G75*
G02*
X209450500Y-112047000I237500J0D01*
G01*
X209950500Y-112047000D01*
G75*
G02*
X210188000Y-112284500I0J-237500D01*
G01*
G37*
G36*
G01*
X208363000Y-112284500D02*
X208363000Y-112759500D01*
G75*
G02*
X208125500Y-112997000I-237500J0D01*
G01*
X207625500Y-112997000D01*
G75*
G02*
X207388000Y-112759500I0J237500D01*
G01*
X207388000Y-112284500D01*
G75*
G02*
X207625500Y-112047000I237500J0D01*
G01*
X208125500Y-112047000D01*
G75*
G02*
X208363000Y-112284500I0J-237500D01*
G01*
G37*
G36*
G01*
X208363000Y-113808500D02*
X208363000Y-114283500D01*
G75*
G02*
X208125500Y-114521000I-237500J0D01*
G01*
X207625500Y-114521000D01*
G75*
G02*
X207388000Y-114283500I0J237500D01*
G01*
X207388000Y-113808500D01*
G75*
G02*
X207625500Y-113571000I237500J0D01*
G01*
X208125500Y-113571000D01*
G75*
G02*
X208363000Y-113808500I0J-237500D01*
G01*
G37*
G36*
G01*
X210188000Y-113808500D02*
X210188000Y-114283500D01*
G75*
G02*
X209950500Y-114521000I-237500J0D01*
G01*
X209450500Y-114521000D01*
G75*
G02*
X209213000Y-114283500I0J237500D01*
G01*
X209213000Y-113808500D01*
G75*
G02*
X209450500Y-113571000I237500J0D01*
G01*
X209950500Y-113571000D01*
G75*
G02*
X210188000Y-113808500I0J-237500D01*
G01*
G37*
G36*
G01*
X208363000Y-96790500D02*
X208363000Y-97265500D01*
G75*
G02*
X208125500Y-97503000I-237500J0D01*
G01*
X207625500Y-97503000D01*
G75*
G02*
X207388000Y-97265500I0J237500D01*
G01*
X207388000Y-96790500D01*
G75*
G02*
X207625500Y-96553000I237500J0D01*
G01*
X208125500Y-96553000D01*
G75*
G02*
X208363000Y-96790500I0J-237500D01*
G01*
G37*
G36*
G01*
X210188000Y-96790500D02*
X210188000Y-97265500D01*
G75*
G02*
X209950500Y-97503000I-237500J0D01*
G01*
X209450500Y-97503000D01*
G75*
G02*
X209213000Y-97265500I0J237500D01*
G01*
X209213000Y-96790500D01*
G75*
G02*
X209450500Y-96553000I237500J0D01*
G01*
X209950500Y-96553000D01*
G75*
G02*
X210188000Y-96790500I0J-237500D01*
G01*
G37*
G36*
G01*
X211428500Y-99551500D02*
X211428500Y-99076500D01*
G75*
G02*
X211666000Y-98839000I237500J0D01*
G01*
X212166000Y-98839000D01*
G75*
G02*
X212403500Y-99076500I0J-237500D01*
G01*
X212403500Y-99551500D01*
G75*
G02*
X212166000Y-99789000I-237500J0D01*
G01*
X211666000Y-99789000D01*
G75*
G02*
X211428500Y-99551500I0J237500D01*
G01*
G37*
G36*
G01*
X213253500Y-99551500D02*
X213253500Y-99076500D01*
G75*
G02*
X213491000Y-98839000I237500J0D01*
G01*
X213991000Y-98839000D01*
G75*
G02*
X214228500Y-99076500I0J-237500D01*
G01*
X214228500Y-99551500D01*
G75*
G02*
X213991000Y-99789000I-237500J0D01*
G01*
X213491000Y-99789000D01*
G75*
G02*
X213253500Y-99551500I0J237500D01*
G01*
G37*
G36*
G01*
X211452000Y-96503500D02*
X211452000Y-96028500D01*
G75*
G02*
X211689500Y-95791000I237500J0D01*
G01*
X212189500Y-95791000D01*
G75*
G02*
X212427000Y-96028500I0J-237500D01*
G01*
X212427000Y-96503500D01*
G75*
G02*
X212189500Y-96741000I-237500J0D01*
G01*
X211689500Y-96741000D01*
G75*
G02*
X211452000Y-96503500I0J237500D01*
G01*
G37*
G36*
G01*
X213277000Y-96503500D02*
X213277000Y-96028500D01*
G75*
G02*
X213514500Y-95791000I237500J0D01*
G01*
X214014500Y-95791000D01*
G75*
G02*
X214252000Y-96028500I0J-237500D01*
G01*
X214252000Y-96503500D01*
G75*
G02*
X214014500Y-96741000I-237500J0D01*
G01*
X213514500Y-96741000D01*
G75*
G02*
X213277000Y-96503500I0J237500D01*
G01*
G37*
G36*
G01*
X212427000Y-97552500D02*
X212427000Y-98027500D01*
G75*
G02*
X212189500Y-98265000I-237500J0D01*
G01*
X211689500Y-98265000D01*
G75*
G02*
X211452000Y-98027500I0J237500D01*
G01*
X211452000Y-97552500D01*
G75*
G02*
X211689500Y-97315000I237500J0D01*
G01*
X212189500Y-97315000D01*
G75*
G02*
X212427000Y-97552500I0J-237500D01*
G01*
G37*
G36*
G01*
X214252000Y-97552500D02*
X214252000Y-98027500D01*
G75*
G02*
X214014500Y-98265000I-237500J0D01*
G01*
X213514500Y-98265000D01*
G75*
G02*
X213277000Y-98027500I0J237500D01*
G01*
X213277000Y-97552500D01*
G75*
G02*
X213514500Y-97315000I237500J0D01*
G01*
X214014500Y-97315000D01*
G75*
G02*
X214252000Y-97552500I0J-237500D01*
G01*
G37*
G36*
G01*
X210188000Y-99965500D02*
X210188000Y-100440500D01*
G75*
G02*
X209950500Y-100678000I-237500J0D01*
G01*
X209450500Y-100678000D01*
G75*
G02*
X209213000Y-100440500I0J237500D01*
G01*
X209213000Y-99965500D01*
G75*
G02*
X209450500Y-99728000I237500J0D01*
G01*
X209950500Y-99728000D01*
G75*
G02*
X210188000Y-99965500I0J-237500D01*
G01*
G37*
G36*
G01*
X208363000Y-99965500D02*
X208363000Y-100440500D01*
G75*
G02*
X208125500Y-100678000I-237500J0D01*
G01*
X207625500Y-100678000D01*
G75*
G02*
X207388000Y-100440500I0J237500D01*
G01*
X207388000Y-99965500D01*
G75*
G02*
X207625500Y-99728000I237500J0D01*
G01*
X208125500Y-99728000D01*
G75*
G02*
X208363000Y-99965500I0J-237500D01*
G01*
G37*
G36*
G01*
X195663000Y-93996500D02*
X195663000Y-94471500D01*
G75*
G02*
X195425500Y-94709000I-237500J0D01*
G01*
X194925500Y-94709000D01*
G75*
G02*
X194688000Y-94471500I0J237500D01*
G01*
X194688000Y-93996500D01*
G75*
G02*
X194925500Y-93759000I237500J0D01*
G01*
X195425500Y-93759000D01*
G75*
G02*
X195663000Y-93996500I0J-237500D01*
G01*
G37*
G36*
G01*
X197488000Y-93996500D02*
X197488000Y-94471500D01*
G75*
G02*
X197250500Y-94709000I-237500J0D01*
G01*
X196750500Y-94709000D01*
G75*
G02*
X196513000Y-94471500I0J237500D01*
G01*
X196513000Y-93996500D01*
G75*
G02*
X196750500Y-93759000I237500J0D01*
G01*
X197250500Y-93759000D01*
G75*
G02*
X197488000Y-93996500I0J-237500D01*
G01*
G37*
G36*
G01*
X196513000Y-96122500D02*
X196513000Y-95647500D01*
G75*
G02*
X196750500Y-95410000I237500J0D01*
G01*
X197250500Y-95410000D01*
G75*
G02*
X197488000Y-95647500I0J-237500D01*
G01*
X197488000Y-96122500D01*
G75*
G02*
X197250500Y-96360000I-237500J0D01*
G01*
X196750500Y-96360000D01*
G75*
G02*
X196513000Y-96122500I0J237500D01*
G01*
G37*
G36*
G01*
X194688000Y-96122500D02*
X194688000Y-95647500D01*
G75*
G02*
X194925500Y-95410000I237500J0D01*
G01*
X195425500Y-95410000D01*
G75*
G02*
X195663000Y-95647500I0J-237500D01*
G01*
X195663000Y-96122500D01*
G75*
G02*
X195425500Y-96360000I-237500J0D01*
G01*
X194925500Y-96360000D01*
G75*
G02*
X194688000Y-96122500I0J237500D01*
G01*
G37*
D20*
X200406000Y-100711000D03*
D21*
X211642000Y-100692000D03*
X211642000Y-101192000D03*
X211642000Y-101692000D03*
X211642000Y-102192000D03*
X211642000Y-102692000D03*
X211642000Y-103192000D03*
X211642000Y-103692000D03*
X211642000Y-104192000D03*
X211642000Y-104692000D03*
X211642000Y-105192000D03*
X211642000Y-105692000D03*
X211642000Y-106192000D03*
X211642000Y-106692000D03*
X211642000Y-107192000D03*
X211642000Y-107692000D03*
X211642000Y-108192000D03*
X211642000Y-108692000D03*
X211642000Y-109192000D03*
X211642000Y-109692000D03*
X211642000Y-110192000D03*
X211642000Y-110692000D03*
X211642000Y-111192000D03*
X211642000Y-111692000D03*
X211642000Y-112192000D03*
X211642000Y-112692000D03*
X211642000Y-113192000D03*
X211642000Y-113692000D03*
X211642000Y-114192000D03*
X219142000Y-114192000D03*
X219142000Y-113692000D03*
X219142000Y-113192000D03*
X219142000Y-112692000D03*
X219142000Y-112192000D03*
X219142000Y-111692000D03*
X219142000Y-111192000D03*
X219142000Y-110692000D03*
X219142000Y-110192000D03*
X219142000Y-109692000D03*
X219142000Y-109192000D03*
X219142000Y-108692000D03*
X219142000Y-108192000D03*
X219142000Y-107692000D03*
X219142000Y-107192000D03*
X219142000Y-106692000D03*
X219142000Y-106192000D03*
X219142000Y-105692000D03*
X219142000Y-105192000D03*
X219142000Y-104692000D03*
X219142000Y-104192000D03*
X219142000Y-103692000D03*
X219142000Y-103192000D03*
X219142000Y-102692000D03*
X219142000Y-102192000D03*
X219142000Y-101692000D03*
X219142000Y-101192000D03*
X219142000Y-100692000D03*
D22*
X215392000Y-107442000D03*
G36*
G01*
X193982000Y-104259000D02*
X193982000Y-104109000D01*
G75*
G02*
X194057000Y-104034000I75000J0D01*
G01*
X195382000Y-104034000D01*
G75*
G02*
X195457000Y-104109000I0J-75000D01*
G01*
X195457000Y-104259000D01*
G75*
G02*
X195382000Y-104334000I-75000J0D01*
G01*
X194057000Y-104334000D01*
G75*
G02*
X193982000Y-104259000I0J75000D01*
G01*
G37*
G36*
G01*
X193982000Y-104759000D02*
X193982000Y-104609000D01*
G75*
G02*
X194057000Y-104534000I75000J0D01*
G01*
X195382000Y-104534000D01*
G75*
G02*
X195457000Y-104609000I0J-75000D01*
G01*
X195457000Y-104759000D01*
G75*
G02*
X195382000Y-104834000I-75000J0D01*
G01*
X194057000Y-104834000D01*
G75*
G02*
X193982000Y-104759000I0J75000D01*
G01*
G37*
G36*
G01*
X193982000Y-105259000D02*
X193982000Y-105109000D01*
G75*
G02*
X194057000Y-105034000I75000J0D01*
G01*
X195382000Y-105034000D01*
G75*
G02*
X195457000Y-105109000I0J-75000D01*
G01*
X195457000Y-105259000D01*
G75*
G02*
X195382000Y-105334000I-75000J0D01*
G01*
X194057000Y-105334000D01*
G75*
G02*
X193982000Y-105259000I0J75000D01*
G01*
G37*
G36*
G01*
X193982000Y-105759000D02*
X193982000Y-105609000D01*
G75*
G02*
X194057000Y-105534000I75000J0D01*
G01*
X195382000Y-105534000D01*
G75*
G02*
X195457000Y-105609000I0J-75000D01*
G01*
X195457000Y-105759000D01*
G75*
G02*
X195382000Y-105834000I-75000J0D01*
G01*
X194057000Y-105834000D01*
G75*
G02*
X193982000Y-105759000I0J75000D01*
G01*
G37*
G36*
G01*
X193982000Y-106259000D02*
X193982000Y-106109000D01*
G75*
G02*
X194057000Y-106034000I75000J0D01*
G01*
X195382000Y-106034000D01*
G75*
G02*
X195457000Y-106109000I0J-75000D01*
G01*
X195457000Y-106259000D01*
G75*
G02*
X195382000Y-106334000I-75000J0D01*
G01*
X194057000Y-106334000D01*
G75*
G02*
X193982000Y-106259000I0J75000D01*
G01*
G37*
G36*
G01*
X193982000Y-106759000D02*
X193982000Y-106609000D01*
G75*
G02*
X194057000Y-106534000I75000J0D01*
G01*
X195382000Y-106534000D01*
G75*
G02*
X195457000Y-106609000I0J-75000D01*
G01*
X195457000Y-106759000D01*
G75*
G02*
X195382000Y-106834000I-75000J0D01*
G01*
X194057000Y-106834000D01*
G75*
G02*
X193982000Y-106759000I0J75000D01*
G01*
G37*
G36*
G01*
X193982000Y-107259000D02*
X193982000Y-107109000D01*
G75*
G02*
X194057000Y-107034000I75000J0D01*
G01*
X195382000Y-107034000D01*
G75*
G02*
X195457000Y-107109000I0J-75000D01*
G01*
X195457000Y-107259000D01*
G75*
G02*
X195382000Y-107334000I-75000J0D01*
G01*
X194057000Y-107334000D01*
G75*
G02*
X193982000Y-107259000I0J75000D01*
G01*
G37*
G36*
G01*
X193982000Y-107759000D02*
X193982000Y-107609000D01*
G75*
G02*
X194057000Y-107534000I75000J0D01*
G01*
X195382000Y-107534000D01*
G75*
G02*
X195457000Y-107609000I0J-75000D01*
G01*
X195457000Y-107759000D01*
G75*
G02*
X195382000Y-107834000I-75000J0D01*
G01*
X194057000Y-107834000D01*
G75*
G02*
X193982000Y-107759000I0J75000D01*
G01*
G37*
G36*
G01*
X193982000Y-108259000D02*
X193982000Y-108109000D01*
G75*
G02*
X194057000Y-108034000I75000J0D01*
G01*
X195382000Y-108034000D01*
G75*
G02*
X195457000Y-108109000I0J-75000D01*
G01*
X195457000Y-108259000D01*
G75*
G02*
X195382000Y-108334000I-75000J0D01*
G01*
X194057000Y-108334000D01*
G75*
G02*
X193982000Y-108259000I0J75000D01*
G01*
G37*
G36*
G01*
X193982000Y-108759000D02*
X193982000Y-108609000D01*
G75*
G02*
X194057000Y-108534000I75000J0D01*
G01*
X195382000Y-108534000D01*
G75*
G02*
X195457000Y-108609000I0J-75000D01*
G01*
X195457000Y-108759000D01*
G75*
G02*
X195382000Y-108834000I-75000J0D01*
G01*
X194057000Y-108834000D01*
G75*
G02*
X193982000Y-108759000I0J75000D01*
G01*
G37*
G36*
G01*
X193982000Y-109259000D02*
X193982000Y-109109000D01*
G75*
G02*
X194057000Y-109034000I75000J0D01*
G01*
X195382000Y-109034000D01*
G75*
G02*
X195457000Y-109109000I0J-75000D01*
G01*
X195457000Y-109259000D01*
G75*
G02*
X195382000Y-109334000I-75000J0D01*
G01*
X194057000Y-109334000D01*
G75*
G02*
X193982000Y-109259000I0J75000D01*
G01*
G37*
G36*
G01*
X193982000Y-109759000D02*
X193982000Y-109609000D01*
G75*
G02*
X194057000Y-109534000I75000J0D01*
G01*
X195382000Y-109534000D01*
G75*
G02*
X195457000Y-109609000I0J-75000D01*
G01*
X195457000Y-109759000D01*
G75*
G02*
X195382000Y-109834000I-75000J0D01*
G01*
X194057000Y-109834000D01*
G75*
G02*
X193982000Y-109759000I0J75000D01*
G01*
G37*
G36*
G01*
X195982000Y-111759000D02*
X195982000Y-110434000D01*
G75*
G02*
X196057000Y-110359000I75000J0D01*
G01*
X196207000Y-110359000D01*
G75*
G02*
X196282000Y-110434000I0J-75000D01*
G01*
X196282000Y-111759000D01*
G75*
G02*
X196207000Y-111834000I-75000J0D01*
G01*
X196057000Y-111834000D01*
G75*
G02*
X195982000Y-111759000I0J75000D01*
G01*
G37*
G36*
G01*
X196482000Y-111759000D02*
X196482000Y-110434000D01*
G75*
G02*
X196557000Y-110359000I75000J0D01*
G01*
X196707000Y-110359000D01*
G75*
G02*
X196782000Y-110434000I0J-75000D01*
G01*
X196782000Y-111759000D01*
G75*
G02*
X196707000Y-111834000I-75000J0D01*
G01*
X196557000Y-111834000D01*
G75*
G02*
X196482000Y-111759000I0J75000D01*
G01*
G37*
G36*
G01*
X196982000Y-111759000D02*
X196982000Y-110434000D01*
G75*
G02*
X197057000Y-110359000I75000J0D01*
G01*
X197207000Y-110359000D01*
G75*
G02*
X197282000Y-110434000I0J-75000D01*
G01*
X197282000Y-111759000D01*
G75*
G02*
X197207000Y-111834000I-75000J0D01*
G01*
X197057000Y-111834000D01*
G75*
G02*
X196982000Y-111759000I0J75000D01*
G01*
G37*
G36*
G01*
X197482000Y-111759000D02*
X197482000Y-110434000D01*
G75*
G02*
X197557000Y-110359000I75000J0D01*
G01*
X197707000Y-110359000D01*
G75*
G02*
X197782000Y-110434000I0J-75000D01*
G01*
X197782000Y-111759000D01*
G75*
G02*
X197707000Y-111834000I-75000J0D01*
G01*
X197557000Y-111834000D01*
G75*
G02*
X197482000Y-111759000I0J75000D01*
G01*
G37*
G36*
G01*
X197982000Y-111759000D02*
X197982000Y-110434000D01*
G75*
G02*
X198057000Y-110359000I75000J0D01*
G01*
X198207000Y-110359000D01*
G75*
G02*
X198282000Y-110434000I0J-75000D01*
G01*
X198282000Y-111759000D01*
G75*
G02*
X198207000Y-111834000I-75000J0D01*
G01*
X198057000Y-111834000D01*
G75*
G02*
X197982000Y-111759000I0J75000D01*
G01*
G37*
G36*
G01*
X198482000Y-111759000D02*
X198482000Y-110434000D01*
G75*
G02*
X198557000Y-110359000I75000J0D01*
G01*
X198707000Y-110359000D01*
G75*
G02*
X198782000Y-110434000I0J-75000D01*
G01*
X198782000Y-111759000D01*
G75*
G02*
X198707000Y-111834000I-75000J0D01*
G01*
X198557000Y-111834000D01*
G75*
G02*
X198482000Y-111759000I0J75000D01*
G01*
G37*
G36*
G01*
X198982000Y-111759000D02*
X198982000Y-110434000D01*
G75*
G02*
X199057000Y-110359000I75000J0D01*
G01*
X199207000Y-110359000D01*
G75*
G02*
X199282000Y-110434000I0J-75000D01*
G01*
X199282000Y-111759000D01*
G75*
G02*
X199207000Y-111834000I-75000J0D01*
G01*
X199057000Y-111834000D01*
G75*
G02*
X198982000Y-111759000I0J75000D01*
G01*
G37*
G36*
G01*
X199482000Y-111759000D02*
X199482000Y-110434000D01*
G75*
G02*
X199557000Y-110359000I75000J0D01*
G01*
X199707000Y-110359000D01*
G75*
G02*
X199782000Y-110434000I0J-75000D01*
G01*
X199782000Y-111759000D01*
G75*
G02*
X199707000Y-111834000I-75000J0D01*
G01*
X199557000Y-111834000D01*
G75*
G02*
X199482000Y-111759000I0J75000D01*
G01*
G37*
G36*
G01*
X199982000Y-111759000D02*
X199982000Y-110434000D01*
G75*
G02*
X200057000Y-110359000I75000J0D01*
G01*
X200207000Y-110359000D01*
G75*
G02*
X200282000Y-110434000I0J-75000D01*
G01*
X200282000Y-111759000D01*
G75*
G02*
X200207000Y-111834000I-75000J0D01*
G01*
X200057000Y-111834000D01*
G75*
G02*
X199982000Y-111759000I0J75000D01*
G01*
G37*
G36*
G01*
X200482000Y-111759000D02*
X200482000Y-110434000D01*
G75*
G02*
X200557000Y-110359000I75000J0D01*
G01*
X200707000Y-110359000D01*
G75*
G02*
X200782000Y-110434000I0J-75000D01*
G01*
X200782000Y-111759000D01*
G75*
G02*
X200707000Y-111834000I-75000J0D01*
G01*
X200557000Y-111834000D01*
G75*
G02*
X200482000Y-111759000I0J75000D01*
G01*
G37*
G36*
G01*
X200982000Y-111759000D02*
X200982000Y-110434000D01*
G75*
G02*
X201057000Y-110359000I75000J0D01*
G01*
X201207000Y-110359000D01*
G75*
G02*
X201282000Y-110434000I0J-75000D01*
G01*
X201282000Y-111759000D01*
G75*
G02*
X201207000Y-111834000I-75000J0D01*
G01*
X201057000Y-111834000D01*
G75*
G02*
X200982000Y-111759000I0J75000D01*
G01*
G37*
G36*
G01*
X201482000Y-111759000D02*
X201482000Y-110434000D01*
G75*
G02*
X201557000Y-110359000I75000J0D01*
G01*
X201707000Y-110359000D01*
G75*
G02*
X201782000Y-110434000I0J-75000D01*
G01*
X201782000Y-111759000D01*
G75*
G02*
X201707000Y-111834000I-75000J0D01*
G01*
X201557000Y-111834000D01*
G75*
G02*
X201482000Y-111759000I0J75000D01*
G01*
G37*
G36*
G01*
X202307000Y-109759000D02*
X202307000Y-109609000D01*
G75*
G02*
X202382000Y-109534000I75000J0D01*
G01*
X203707000Y-109534000D01*
G75*
G02*
X203782000Y-109609000I0J-75000D01*
G01*
X203782000Y-109759000D01*
G75*
G02*
X203707000Y-109834000I-75000J0D01*
G01*
X202382000Y-109834000D01*
G75*
G02*
X202307000Y-109759000I0J75000D01*
G01*
G37*
G36*
G01*
X202307000Y-109259000D02*
X202307000Y-109109000D01*
G75*
G02*
X202382000Y-109034000I75000J0D01*
G01*
X203707000Y-109034000D01*
G75*
G02*
X203782000Y-109109000I0J-75000D01*
G01*
X203782000Y-109259000D01*
G75*
G02*
X203707000Y-109334000I-75000J0D01*
G01*
X202382000Y-109334000D01*
G75*
G02*
X202307000Y-109259000I0J75000D01*
G01*
G37*
G36*
G01*
X202307000Y-108759000D02*
X202307000Y-108609000D01*
G75*
G02*
X202382000Y-108534000I75000J0D01*
G01*
X203707000Y-108534000D01*
G75*
G02*
X203782000Y-108609000I0J-75000D01*
G01*
X203782000Y-108759000D01*
G75*
G02*
X203707000Y-108834000I-75000J0D01*
G01*
X202382000Y-108834000D01*
G75*
G02*
X202307000Y-108759000I0J75000D01*
G01*
G37*
G36*
G01*
X202307000Y-108259000D02*
X202307000Y-108109000D01*
G75*
G02*
X202382000Y-108034000I75000J0D01*
G01*
X203707000Y-108034000D01*
G75*
G02*
X203782000Y-108109000I0J-75000D01*
G01*
X203782000Y-108259000D01*
G75*
G02*
X203707000Y-108334000I-75000J0D01*
G01*
X202382000Y-108334000D01*
G75*
G02*
X202307000Y-108259000I0J75000D01*
G01*
G37*
G36*
G01*
X202307000Y-107759000D02*
X202307000Y-107609000D01*
G75*
G02*
X202382000Y-107534000I75000J0D01*
G01*
X203707000Y-107534000D01*
G75*
G02*
X203782000Y-107609000I0J-75000D01*
G01*
X203782000Y-107759000D01*
G75*
G02*
X203707000Y-107834000I-75000J0D01*
G01*
X202382000Y-107834000D01*
G75*
G02*
X202307000Y-107759000I0J75000D01*
G01*
G37*
G36*
G01*
X202307000Y-107259000D02*
X202307000Y-107109000D01*
G75*
G02*
X202382000Y-107034000I75000J0D01*
G01*
X203707000Y-107034000D01*
G75*
G02*
X203782000Y-107109000I0J-75000D01*
G01*
X203782000Y-107259000D01*
G75*
G02*
X203707000Y-107334000I-75000J0D01*
G01*
X202382000Y-107334000D01*
G75*
G02*
X202307000Y-107259000I0J75000D01*
G01*
G37*
G36*
G01*
X202307000Y-106759000D02*
X202307000Y-106609000D01*
G75*
G02*
X202382000Y-106534000I75000J0D01*
G01*
X203707000Y-106534000D01*
G75*
G02*
X203782000Y-106609000I0J-75000D01*
G01*
X203782000Y-106759000D01*
G75*
G02*
X203707000Y-106834000I-75000J0D01*
G01*
X202382000Y-106834000D01*
G75*
G02*
X202307000Y-106759000I0J75000D01*
G01*
G37*
G36*
G01*
X202307000Y-106259000D02*
X202307000Y-106109000D01*
G75*
G02*
X202382000Y-106034000I75000J0D01*
G01*
X203707000Y-106034000D01*
G75*
G02*
X203782000Y-106109000I0J-75000D01*
G01*
X203782000Y-106259000D01*
G75*
G02*
X203707000Y-106334000I-75000J0D01*
G01*
X202382000Y-106334000D01*
G75*
G02*
X202307000Y-106259000I0J75000D01*
G01*
G37*
G36*
G01*
X202307000Y-105759000D02*
X202307000Y-105609000D01*
G75*
G02*
X202382000Y-105534000I75000J0D01*
G01*
X203707000Y-105534000D01*
G75*
G02*
X203782000Y-105609000I0J-75000D01*
G01*
X203782000Y-105759000D01*
G75*
G02*
X203707000Y-105834000I-75000J0D01*
G01*
X202382000Y-105834000D01*
G75*
G02*
X202307000Y-105759000I0J75000D01*
G01*
G37*
G36*
G01*
X202307000Y-105259000D02*
X202307000Y-105109000D01*
G75*
G02*
X202382000Y-105034000I75000J0D01*
G01*
X203707000Y-105034000D01*
G75*
G02*
X203782000Y-105109000I0J-75000D01*
G01*
X203782000Y-105259000D01*
G75*
G02*
X203707000Y-105334000I-75000J0D01*
G01*
X202382000Y-105334000D01*
G75*
G02*
X202307000Y-105259000I0J75000D01*
G01*
G37*
G36*
G01*
X202307000Y-104759000D02*
X202307000Y-104609000D01*
G75*
G02*
X202382000Y-104534000I75000J0D01*
G01*
X203707000Y-104534000D01*
G75*
G02*
X203782000Y-104609000I0J-75000D01*
G01*
X203782000Y-104759000D01*
G75*
G02*
X203707000Y-104834000I-75000J0D01*
G01*
X202382000Y-104834000D01*
G75*
G02*
X202307000Y-104759000I0J75000D01*
G01*
G37*
G36*
G01*
X202307000Y-104259000D02*
X202307000Y-104109000D01*
G75*
G02*
X202382000Y-104034000I75000J0D01*
G01*
X203707000Y-104034000D01*
G75*
G02*
X203782000Y-104109000I0J-75000D01*
G01*
X203782000Y-104259000D01*
G75*
G02*
X203707000Y-104334000I-75000J0D01*
G01*
X202382000Y-104334000D01*
G75*
G02*
X202307000Y-104259000I0J75000D01*
G01*
G37*
G36*
G01*
X201482000Y-103434000D02*
X201482000Y-102109000D01*
G75*
G02*
X201557000Y-102034000I75000J0D01*
G01*
X201707000Y-102034000D01*
G75*
G02*
X201782000Y-102109000I0J-75000D01*
G01*
X201782000Y-103434000D01*
G75*
G02*
X201707000Y-103509000I-75000J0D01*
G01*
X201557000Y-103509000D01*
G75*
G02*
X201482000Y-103434000I0J75000D01*
G01*
G37*
G36*
G01*
X200982000Y-103434000D02*
X200982000Y-102109000D01*
G75*
G02*
X201057000Y-102034000I75000J0D01*
G01*
X201207000Y-102034000D01*
G75*
G02*
X201282000Y-102109000I0J-75000D01*
G01*
X201282000Y-103434000D01*
G75*
G02*
X201207000Y-103509000I-75000J0D01*
G01*
X201057000Y-103509000D01*
G75*
G02*
X200982000Y-103434000I0J75000D01*
G01*
G37*
G36*
G01*
X200482000Y-103434000D02*
X200482000Y-102109000D01*
G75*
G02*
X200557000Y-102034000I75000J0D01*
G01*
X200707000Y-102034000D01*
G75*
G02*
X200782000Y-102109000I0J-75000D01*
G01*
X200782000Y-103434000D01*
G75*
G02*
X200707000Y-103509000I-75000J0D01*
G01*
X200557000Y-103509000D01*
G75*
G02*
X200482000Y-103434000I0J75000D01*
G01*
G37*
G36*
G01*
X199982000Y-103434000D02*
X199982000Y-102109000D01*
G75*
G02*
X200057000Y-102034000I75000J0D01*
G01*
X200207000Y-102034000D01*
G75*
G02*
X200282000Y-102109000I0J-75000D01*
G01*
X200282000Y-103434000D01*
G75*
G02*
X200207000Y-103509000I-75000J0D01*
G01*
X200057000Y-103509000D01*
G75*
G02*
X199982000Y-103434000I0J75000D01*
G01*
G37*
G36*
G01*
X199482000Y-103434000D02*
X199482000Y-102109000D01*
G75*
G02*
X199557000Y-102034000I75000J0D01*
G01*
X199707000Y-102034000D01*
G75*
G02*
X199782000Y-102109000I0J-75000D01*
G01*
X199782000Y-103434000D01*
G75*
G02*
X199707000Y-103509000I-75000J0D01*
G01*
X199557000Y-103509000D01*
G75*
G02*
X199482000Y-103434000I0J75000D01*
G01*
G37*
G36*
G01*
X198982000Y-103434000D02*
X198982000Y-102109000D01*
G75*
G02*
X199057000Y-102034000I75000J0D01*
G01*
X199207000Y-102034000D01*
G75*
G02*
X199282000Y-102109000I0J-75000D01*
G01*
X199282000Y-103434000D01*
G75*
G02*
X199207000Y-103509000I-75000J0D01*
G01*
X199057000Y-103509000D01*
G75*
G02*
X198982000Y-103434000I0J75000D01*
G01*
G37*
G36*
G01*
X198482000Y-103434000D02*
X198482000Y-102109000D01*
G75*
G02*
X198557000Y-102034000I75000J0D01*
G01*
X198707000Y-102034000D01*
G75*
G02*
X198782000Y-102109000I0J-75000D01*
G01*
X198782000Y-103434000D01*
G75*
G02*
X198707000Y-103509000I-75000J0D01*
G01*
X198557000Y-103509000D01*
G75*
G02*
X198482000Y-103434000I0J75000D01*
G01*
G37*
G36*
G01*
X197982000Y-103434000D02*
X197982000Y-102109000D01*
G75*
G02*
X198057000Y-102034000I75000J0D01*
G01*
X198207000Y-102034000D01*
G75*
G02*
X198282000Y-102109000I0J-75000D01*
G01*
X198282000Y-103434000D01*
G75*
G02*
X198207000Y-103509000I-75000J0D01*
G01*
X198057000Y-103509000D01*
G75*
G02*
X197982000Y-103434000I0J75000D01*
G01*
G37*
G36*
G01*
X197482000Y-103434000D02*
X197482000Y-102109000D01*
G75*
G02*
X197557000Y-102034000I75000J0D01*
G01*
X197707000Y-102034000D01*
G75*
G02*
X197782000Y-102109000I0J-75000D01*
G01*
X197782000Y-103434000D01*
G75*
G02*
X197707000Y-103509000I-75000J0D01*
G01*
X197557000Y-103509000D01*
G75*
G02*
X197482000Y-103434000I0J75000D01*
G01*
G37*
G36*
G01*
X196982000Y-103434000D02*
X196982000Y-102109000D01*
G75*
G02*
X197057000Y-102034000I75000J0D01*
G01*
X197207000Y-102034000D01*
G75*
G02*
X197282000Y-102109000I0J-75000D01*
G01*
X197282000Y-103434000D01*
G75*
G02*
X197207000Y-103509000I-75000J0D01*
G01*
X197057000Y-103509000D01*
G75*
G02*
X196982000Y-103434000I0J75000D01*
G01*
G37*
G36*
G01*
X196482000Y-103434000D02*
X196482000Y-102109000D01*
G75*
G02*
X196557000Y-102034000I75000J0D01*
G01*
X196707000Y-102034000D01*
G75*
G02*
X196782000Y-102109000I0J-75000D01*
G01*
X196782000Y-103434000D01*
G75*
G02*
X196707000Y-103509000I-75000J0D01*
G01*
X196557000Y-103509000D01*
G75*
G02*
X196482000Y-103434000I0J75000D01*
G01*
G37*
G36*
G01*
X195982000Y-103434000D02*
X195982000Y-102109000D01*
G75*
G02*
X196057000Y-102034000I75000J0D01*
G01*
X196207000Y-102034000D01*
G75*
G02*
X196282000Y-102109000I0J-75000D01*
G01*
X196282000Y-103434000D01*
G75*
G02*
X196207000Y-103509000I-75000J0D01*
G01*
X196057000Y-103509000D01*
G75*
G02*
X195982000Y-103434000I0J75000D01*
G01*
G37*
G36*
G01*
X226203500Y-113154000D02*
X226678500Y-113154000D01*
G75*
G02*
X226916000Y-113391500I0J-237500D01*
G01*
X226916000Y-113991500D01*
G75*
G02*
X226678500Y-114229000I-237500J0D01*
G01*
X226203500Y-114229000D01*
G75*
G02*
X225966000Y-113991500I0J237500D01*
G01*
X225966000Y-113391500D01*
G75*
G02*
X226203500Y-113154000I237500J0D01*
G01*
G37*
G36*
G01*
X226203500Y-114879000D02*
X226678500Y-114879000D01*
G75*
G02*
X226916000Y-115116500I0J-237500D01*
G01*
X226916000Y-115716500D01*
G75*
G02*
X226678500Y-115954000I-237500J0D01*
G01*
X226203500Y-115954000D01*
G75*
G02*
X225966000Y-115716500I0J237500D01*
G01*
X225966000Y-115116500D01*
G75*
G02*
X226203500Y-114879000I237500J0D01*
G01*
G37*
M02*
