G04 #@! TF.GenerationSoftware,KiCad,Pcbnew,6.0.6-1.fc36*
G04 #@! TF.CreationDate,2022-08-14T11:42:17+02:00*
G04 #@! TF.ProjectId,esc_brushless,6573635f-6272-4757-9368-6c6573732e6b,1.1.0*
G04 #@! TF.SameCoordinates,Original*
G04 #@! TF.FileFunction,Copper,L4,Bot*
G04 #@! TF.FilePolarity,Positive*
%FSLAX46Y46*%
G04 Gerber Fmt 4.6, Leading zero omitted, Abs format (unit mm)*
G04 Created by KiCad (PCBNEW 6.0.6-1.fc36) date 2022-08-14 11:42:17*
%MOMM*%
%LPD*%
G01*
G04 APERTURE LIST*
G04 Aperture macros list*
%AMRoundRect*
0 Rectangle with rounded corners*
0 $1 Rounding radius*
0 $2 $3 $4 $5 $6 $7 $8 $9 X,Y pos of 4 corners*
0 Add a 4 corners polygon primitive as box body*
4,1,4,$2,$3,$4,$5,$6,$7,$8,$9,$2,$3,0*
0 Add four circle primitives for the rounded corners*
1,1,$1+$1,$2,$3*
1,1,$1+$1,$4,$5*
1,1,$1+$1,$6,$7*
1,1,$1+$1,$8,$9*
0 Add four rect primitives between the rounded corners*
20,1,$1+$1,$2,$3,$4,$5,0*
20,1,$1+$1,$4,$5,$6,$7,0*
20,1,$1+$1,$6,$7,$8,$9,0*
20,1,$1+$1,$8,$9,$2,$3,0*%
G04 Aperture macros list end*
G04 #@! TA.AperFunction,ComponentPad*
%ADD10R,3.400000X3.400000*%
G04 #@! TD*
G04 #@! TA.AperFunction,ComponentPad*
%ADD11O,1.700000X1.700000*%
G04 #@! TD*
G04 #@! TA.AperFunction,ComponentPad*
%ADD12R,1.700000X1.700000*%
G04 #@! TD*
G04 #@! TA.AperFunction,SMDPad,CuDef*
%ADD13RoundRect,0.237500X-0.237500X0.300000X-0.237500X-0.300000X0.237500X-0.300000X0.237500X0.300000X0*%
G04 #@! TD*
G04 #@! TA.AperFunction,SMDPad,CuDef*
%ADD14RoundRect,0.249998X1.100002X-0.412502X1.100002X0.412502X-1.100002X0.412502X-1.100002X-0.412502X0*%
G04 #@! TD*
G04 #@! TA.AperFunction,SMDPad,CuDef*
%ADD15RoundRect,0.249998X0.412502X1.100002X-0.412502X1.100002X-0.412502X-1.100002X0.412502X-1.100002X0*%
G04 #@! TD*
G04 #@! TA.AperFunction,SMDPad,CuDef*
%ADD16RoundRect,0.237500X0.300000X0.237500X-0.300000X0.237500X-0.300000X-0.237500X0.300000X-0.237500X0*%
G04 #@! TD*
G04 #@! TA.AperFunction,SMDPad,CuDef*
%ADD17RoundRect,0.237500X0.237500X-0.300000X0.237500X0.300000X-0.237500X0.300000X-0.237500X-0.300000X0*%
G04 #@! TD*
G04 #@! TA.AperFunction,SMDPad,CuDef*
%ADD18RoundRect,0.249998X0.650002X-0.412502X0.650002X0.412502X-0.650002X0.412502X-0.650002X-0.412502X0*%
G04 #@! TD*
G04 #@! TA.AperFunction,SMDPad,CuDef*
%ADD19RoundRect,0.237500X-0.300000X-0.237500X0.300000X-0.237500X0.300000X0.237500X-0.300000X0.237500X0*%
G04 #@! TD*
G04 #@! TA.AperFunction,SMDPad,CuDef*
%ADD20R,3.500000X2.300000*%
G04 #@! TD*
G04 #@! TA.AperFunction,SMDPad,CuDef*
%ADD21O,2.700000X8.000000*%
G04 #@! TD*
G04 #@! TA.AperFunction,SMDPad,CuDef*
%ADD22R,3.500000X2.000000*%
G04 #@! TD*
G04 #@! TA.AperFunction,SMDPad,CuDef*
%ADD23R,7.000000X7.000000*%
G04 #@! TD*
G04 #@! TA.AperFunction,SMDPad,CuDef*
%ADD24R,0.800000X0.900000*%
G04 #@! TD*
G04 #@! TA.AperFunction,SMDPad,CuDef*
%ADD25R,0.900000X0.800000*%
G04 #@! TD*
G04 #@! TA.AperFunction,SMDPad,CuDef*
%ADD26RoundRect,0.237500X-0.250000X-0.237500X0.250000X-0.237500X0.250000X0.237500X-0.250000X0.237500X0*%
G04 #@! TD*
G04 #@! TA.AperFunction,SMDPad,CuDef*
%ADD27RoundRect,0.237500X0.250000X0.237500X-0.250000X0.237500X-0.250000X-0.237500X0.250000X-0.237500X0*%
G04 #@! TD*
G04 #@! TA.AperFunction,SMDPad,CuDef*
%ADD28RoundRect,0.237500X0.237500X-0.250000X0.237500X0.250000X-0.237500X0.250000X-0.237500X-0.250000X0*%
G04 #@! TD*
G04 #@! TA.AperFunction,SMDPad,CuDef*
%ADD29RoundRect,0.237500X-0.237500X0.250000X-0.237500X-0.250000X0.237500X-0.250000X0.237500X0.250000X0*%
G04 #@! TD*
G04 #@! TA.AperFunction,SMDPad,CuDef*
%ADD30O,1.250000X1.250000*%
G04 #@! TD*
G04 #@! TA.AperFunction,SMDPad,CuDef*
%ADD31RoundRect,0.150000X-0.150000X0.512500X-0.150000X-0.512500X0.150000X-0.512500X0.150000X0.512500X0*%
G04 #@! TD*
G04 #@! TA.AperFunction,SMDPad,CuDef*
%ADD32RoundRect,0.150000X-0.150000X0.825000X-0.150000X-0.825000X0.150000X-0.825000X0.150000X0.825000X0*%
G04 #@! TD*
G04 #@! TA.AperFunction,SMDPad,CuDef*
%ADD33RoundRect,0.250600X-0.449400X0.449400X-0.449400X-0.449400X0.449400X-0.449400X0.449400X0.449400X0*%
G04 #@! TD*
G04 #@! TA.AperFunction,SMDPad,CuDef*
%ADD34RoundRect,0.249999X-1.425001X0.450001X-1.425001X-0.450001X1.425001X-0.450001X1.425001X0.450001X0*%
G04 #@! TD*
G04 #@! TA.AperFunction,ViaPad*
%ADD35C,0.600000*%
G04 #@! TD*
G04 #@! TA.AperFunction,ViaPad*
%ADD36C,0.800000*%
G04 #@! TD*
G04 #@! TA.AperFunction,Conductor*
%ADD37C,0.381000*%
G04 #@! TD*
G04 #@! TA.AperFunction,Conductor*
%ADD38C,0.762000*%
G04 #@! TD*
G04 #@! TA.AperFunction,Conductor*
%ADD39C,0.250000*%
G04 #@! TD*
G04 #@! TA.AperFunction,Conductor*
%ADD40C,1.524000*%
G04 #@! TD*
G04 APERTURE END LIST*
D10*
X79883000Y-55626000D03*
X79883000Y-75946000D03*
D11*
X79248000Y-70358000D03*
X79248000Y-67818000D03*
D12*
X79248000Y-65278000D03*
D11*
X88011000Y-76200000D03*
D12*
X85471000Y-76200000D03*
D10*
X138430000Y-64008000D03*
X138430000Y-55372000D03*
X138430000Y-72390000D03*
D13*
X112268000Y-65505500D03*
X112268000Y-63780500D03*
D14*
X134366000Y-62064500D03*
X134366000Y-65189500D03*
X134239000Y-53301500D03*
X134239000Y-56426500D03*
D15*
X103212500Y-75311000D03*
X106337500Y-75311000D03*
D16*
X101118500Y-72898000D03*
X102843500Y-72898000D03*
D17*
X105283000Y-61367500D03*
X105283000Y-63092500D03*
D13*
X100584000Y-66521500D03*
X100584000Y-64796500D03*
D18*
X93726000Y-54825500D03*
X93726000Y-57950500D03*
D19*
X85825500Y-63373000D03*
X84100500Y-63373000D03*
X85825500Y-66421000D03*
X84100500Y-66421000D03*
X85825500Y-64897000D03*
X84100500Y-64897000D03*
D13*
X84836000Y-59790500D03*
X84836000Y-58065500D03*
D17*
X91694000Y-54636500D03*
X91694000Y-56361500D03*
X86233000Y-54636500D03*
X86233000Y-56361500D03*
X82550000Y-71908500D03*
X82550000Y-73633500D03*
D20*
X111158000Y-56388000D03*
X105758000Y-56388000D03*
D21*
X96537000Y-57912000D03*
X101837000Y-57912000D03*
D22*
X121536000Y-62617000D03*
D23*
X128936000Y-64897000D03*
D22*
X121536000Y-67197000D03*
X121409000Y-53981000D03*
D23*
X128809000Y-56261000D03*
D22*
X121409000Y-58561000D03*
D24*
X92710000Y-61357000D03*
X91760000Y-63357000D03*
X93660000Y-63357000D03*
D25*
X88376000Y-59055000D03*
X86376000Y-58105000D03*
X86376000Y-60005000D03*
D26*
X121689500Y-69469000D03*
X119864500Y-69469000D03*
D27*
X123293500Y-69469000D03*
X125118500Y-69469000D03*
D28*
X118491000Y-53189500D03*
X118491000Y-55014500D03*
D26*
X97051500Y-63373000D03*
X95226500Y-63373000D03*
D29*
X90043000Y-63142500D03*
X90043000Y-61317500D03*
D27*
X91797500Y-65024000D03*
X93622500Y-65024000D03*
D26*
X97051500Y-65024000D03*
X95226500Y-65024000D03*
D29*
X83312000Y-59840500D03*
X83312000Y-58015500D03*
D30*
X88011000Y-65278000D03*
D31*
X87823000Y-56255500D03*
X89723000Y-56255500D03*
X89723000Y-53980500D03*
X88773000Y-53980500D03*
X87823000Y-53980500D03*
D32*
X84201000Y-73595000D03*
X85471000Y-73595000D03*
X86741000Y-73595000D03*
X88011000Y-73595000D03*
X88011000Y-68645000D03*
X86741000Y-68645000D03*
X85471000Y-68645000D03*
X84201000Y-68645000D03*
D33*
X114046000Y-67691000D03*
X114046000Y-61595000D03*
D34*
X117094000Y-67693000D03*
X117094000Y-61593000D03*
D27*
X119864500Y-78613000D03*
X121689500Y-78613000D03*
D22*
X121536000Y-71761000D03*
D23*
X128936000Y-74041000D03*
D22*
X121536000Y-76341000D03*
D14*
X134620000Y-70319500D03*
X134620000Y-73444500D03*
D27*
X116435500Y-69469000D03*
X118260500Y-69469000D03*
D16*
X101118500Y-70993000D03*
X102843500Y-70993000D03*
D30*
X88011000Y-62865000D03*
D33*
X114046000Y-77470000D03*
X114046000Y-71374000D03*
D34*
X117094000Y-77472000D03*
X117094000Y-71372000D03*
D35*
X117856000Y-77343000D03*
X85852000Y-66421000D03*
X94170500Y-66738500D03*
X99314000Y-51816000D03*
X78486000Y-51816000D03*
X103251000Y-75692000D03*
X100584000Y-64770000D03*
D36*
X88773000Y-54483000D03*
D35*
X133731000Y-62230000D03*
X133477000Y-53276500D03*
X116840000Y-64516000D03*
X91567000Y-51816000D03*
X138938000Y-79629000D03*
X116205000Y-67691000D03*
X92075000Y-72263000D03*
X116332000Y-77343000D03*
X123063000Y-64897000D03*
X121666000Y-69469000D03*
X80645000Y-62103000D03*
X138430000Y-51816000D03*
X117094000Y-51816000D03*
X134937500Y-53276500D03*
X126873000Y-69469000D03*
X103251000Y-74930000D03*
X101092000Y-74168000D03*
X140462000Y-59436000D03*
X135064500Y-62230000D03*
X109728000Y-79629000D03*
X140462000Y-68072000D03*
X115316000Y-56506750D03*
X95377000Y-79629000D03*
X94234000Y-60579000D03*
X117856000Y-67691000D03*
X105410000Y-66421000D03*
X116332000Y-71501000D03*
X117856000Y-71501000D03*
X116205000Y-61595000D03*
X117856000Y-61595000D03*
X112785010Y-68707000D03*
X134366000Y-65278000D03*
X106426000Y-75819000D03*
X133438500Y-56515000D03*
D36*
X108585000Y-61695500D03*
D35*
X134239000Y-56515000D03*
X106426000Y-74930000D03*
X134581500Y-73444500D03*
X133692500Y-73444500D03*
X133438500Y-65278000D03*
X102870000Y-70993000D03*
X102870000Y-72898000D03*
X109106250Y-70598750D03*
X109156500Y-68135500D03*
X105410000Y-65532000D03*
X104775000Y-62611000D03*
X104775000Y-63500000D03*
X105283000Y-61341000D03*
X100584000Y-66421000D03*
X83058000Y-60452000D03*
X83058000Y-59626500D03*
X94107000Y-58102500D03*
X82550000Y-73660000D03*
X80391000Y-63119000D03*
X99441000Y-56007000D03*
D36*
X87823000Y-53274000D03*
D35*
X78994000Y-60833000D03*
D36*
X99441000Y-54229000D03*
D35*
X84074000Y-65532000D03*
D36*
X96837500Y-71120000D03*
X82042000Y-59690000D03*
D35*
X84074000Y-66294000D03*
X111315500Y-66167000D03*
X84074000Y-64643000D03*
X100584000Y-67564000D03*
X95821500Y-77216000D03*
D36*
X82042000Y-58801000D03*
D35*
X90805000Y-60325000D03*
X89535000Y-60198000D03*
X110490000Y-75311000D03*
X105410000Y-64389000D03*
X105410000Y-67437000D03*
X105410000Y-69977000D03*
X88011000Y-65278000D03*
X89154000Y-63754000D03*
X84201000Y-68707000D03*
X100584000Y-68707000D03*
X89281000Y-67437000D03*
X89281000Y-68326000D03*
X100584000Y-69977000D03*
X85471000Y-68707000D03*
X86741000Y-68707000D03*
X88011000Y-68707000D03*
X114046000Y-71501000D03*
X114046000Y-77343000D03*
X109347000Y-73787000D03*
X109347000Y-74803000D03*
D37*
X88773000Y-54419500D02*
X88773000Y-53980500D01*
X85825500Y-66421000D02*
X85825500Y-64897000D01*
D38*
X101092000Y-72924500D02*
X101118500Y-72898000D01*
X93660000Y-63357000D02*
X93660000Y-64986500D01*
D37*
X80798500Y-71908500D02*
X79248000Y-70358000D01*
D38*
X101092000Y-74168000D02*
X101092000Y-72924500D01*
D37*
X84709000Y-61595000D02*
X84709000Y-59790500D01*
D38*
X101118500Y-70993000D02*
X101118500Y-72898000D01*
D37*
X85825500Y-63373000D02*
X85825500Y-62711500D01*
X85825500Y-62711500D02*
X84709000Y-61595000D01*
D38*
X93660000Y-64986500D02*
X93622500Y-65024000D01*
D37*
X82550000Y-71908500D02*
X80798500Y-71908500D01*
X85825500Y-64897000D02*
X85825500Y-63373000D01*
D39*
X108081489Y-66802000D02*
X108081489Y-70870489D01*
X116205000Y-73533000D02*
X117094000Y-72644000D01*
X108712000Y-75093002D02*
X109554999Y-75936001D01*
X107700489Y-66421000D02*
X108081489Y-66802000D01*
X109554999Y-75936001D02*
X111009409Y-75936001D01*
X112903000Y-73533000D02*
X116205000Y-73533000D01*
X117094000Y-72644000D02*
X117094000Y-71245000D01*
X111829009Y-75116401D02*
X111829010Y-74606990D01*
X105410000Y-66421000D02*
X107700489Y-66421000D01*
X108081489Y-70870489D02*
X108712000Y-71501000D01*
X108712000Y-71501000D02*
X108712000Y-75093002D01*
X111009409Y-75936001D02*
X111829009Y-75116401D01*
X111829010Y-74606990D02*
X112903000Y-73533000D01*
X112785010Y-68716010D02*
X114733828Y-68716010D01*
X114733828Y-68716010D02*
X115071010Y-68378828D01*
X115071010Y-62728990D02*
X116205000Y-61595000D01*
X115071010Y-68378828D02*
X115071010Y-62728990D01*
D40*
X134366000Y-65189500D02*
X133438500Y-65189500D01*
X133438500Y-65189500D02*
X129228500Y-65189500D01*
X134581500Y-73444500D02*
X133692500Y-73444500D01*
X133692500Y-73444500D02*
X129532500Y-73444500D01*
X134239000Y-56426500D02*
X133438500Y-56426500D01*
X133438500Y-56426500D02*
X128974500Y-56426500D01*
X129532500Y-73444500D02*
X128936000Y-74041000D01*
D38*
X130573000Y-53975000D02*
X130559000Y-53961000D01*
D40*
X134620000Y-73444500D02*
X134581500Y-73444500D01*
D38*
X130559000Y-53961000D02*
X130559000Y-53978000D01*
D40*
X128974500Y-56426500D02*
X128809000Y-56261000D01*
D39*
X113164590Y-59817000D02*
X115951000Y-59817000D01*
X117447990Y-54002010D02*
X121387990Y-54002010D01*
D38*
X138430000Y-55372000D02*
X138430000Y-54610000D01*
D39*
X115951000Y-59817000D02*
X116782010Y-58985990D01*
D38*
X138049000Y-54229000D02*
X136398000Y-52578000D01*
X138049000Y-55372000D02*
X138049000Y-54229000D01*
D39*
X116782010Y-54667990D02*
X117447990Y-54002010D01*
X116782010Y-58985990D02*
X116782010Y-56318990D01*
D38*
X136398000Y-52578000D02*
X135877990Y-52057990D01*
D39*
X109106250Y-70598750D02*
X108531499Y-70023999D01*
D38*
X138430000Y-54610000D02*
X136398000Y-52578000D01*
D39*
X108531499Y-70023999D02*
X108531499Y-64450091D01*
X121387990Y-54002010D02*
X121409000Y-53981000D01*
X116782010Y-56318990D02*
X116782010Y-54667990D01*
D38*
X123332010Y-52057990D02*
X121409000Y-53981000D01*
D39*
X108531499Y-64450091D02*
X113164590Y-59817000D01*
D38*
X135877990Y-52057990D02*
X123332010Y-52057990D01*
X138430000Y-63440772D02*
X136681614Y-61692386D01*
X135805227Y-60815999D02*
X123337001Y-60815999D01*
X138176000Y-64008000D02*
X138176000Y-63186772D01*
D39*
X121536000Y-62617000D02*
X119375500Y-60456500D01*
D38*
X136681614Y-61692386D02*
X135805227Y-60815999D01*
X123337001Y-60815999D02*
X121536000Y-62617000D01*
X138430000Y-64008000D02*
X138430000Y-63440772D01*
D39*
X109716980Y-67575020D02*
X109716981Y-63901019D01*
X119375500Y-60456500D02*
X113161500Y-60456500D01*
X109716981Y-63901019D02*
X113161500Y-60456500D01*
D38*
X138176000Y-63186772D02*
X136681614Y-61692386D01*
D39*
X109156500Y-68135500D02*
X109716980Y-67575020D01*
X104784999Y-66157001D02*
X104784999Y-67737001D01*
D38*
X121536000Y-71761000D02*
X122307000Y-71761000D01*
X124333000Y-73787000D02*
X124333000Y-75057000D01*
D39*
X107181469Y-68446469D02*
X106807000Y-68072000D01*
X107811980Y-71873800D02*
X107250090Y-71311910D01*
X107811980Y-75465802D02*
X107811980Y-71873800D01*
X105119998Y-68072000D02*
X106807000Y-68072000D01*
D38*
X124971199Y-78122001D02*
X124333000Y-77483802D01*
X124333000Y-77483802D02*
X124333000Y-75057000D01*
D39*
X105410000Y-65532000D02*
X104784999Y-66157001D01*
X107250090Y-71311910D02*
X107181469Y-71243289D01*
X112522390Y-76836020D02*
X109182197Y-76836019D01*
D38*
X138430000Y-72390000D02*
X138430000Y-74852000D01*
X124333000Y-75057000D02*
X124333000Y-74422000D01*
D39*
X109182197Y-76836019D02*
X107811980Y-75465802D01*
X107181469Y-71243289D02*
X107181469Y-68446469D01*
D38*
X138430000Y-74852000D02*
X135159999Y-78122001D01*
X135159999Y-78122001D02*
X124971199Y-78122001D01*
D39*
X121536000Y-71761000D02*
X118268290Y-75028710D01*
D38*
X122307000Y-71761000D02*
X124333000Y-73787000D01*
D39*
X118268290Y-75028710D02*
X114329700Y-75028710D01*
X114329700Y-75028710D02*
X112522390Y-76836020D01*
X104784999Y-67737001D02*
X105119998Y-68072000D01*
D40*
X105758000Y-56388000D02*
X103361000Y-56388000D01*
D38*
X104775000Y-63500000D02*
X101837000Y-60562000D01*
X104775000Y-62611000D02*
X104801500Y-62611000D01*
X101837000Y-60562000D02*
X101837000Y-57912000D01*
X104801500Y-62611000D02*
X105283000Y-63092500D01*
D40*
X103361000Y-56388000D02*
X101837000Y-57912000D01*
D38*
X104775000Y-62611000D02*
X104775000Y-63500000D01*
X104775000Y-62611000D02*
X101837000Y-59673000D01*
X101837000Y-59673000D02*
X101837000Y-57912000D01*
X87823000Y-53274000D02*
X87823000Y-52956500D01*
D39*
X82550000Y-73633500D02*
X84162500Y-73633500D01*
D38*
X94322500Y-57950500D02*
X96498500Y-57950500D01*
X93726000Y-56959500D02*
X93726000Y-57950500D01*
X90637990Y-53045990D02*
X90637990Y-55305490D01*
X82677000Y-60833000D02*
X81661000Y-60833000D01*
X88265000Y-52514500D02*
X90106500Y-52514500D01*
X93726000Y-57950500D02*
X94322500Y-57950500D01*
X80518000Y-60833000D02*
X78994000Y-60833000D01*
D39*
X84162500Y-73633500D02*
X84201000Y-73595000D01*
D38*
X87823000Y-53980500D02*
X87823000Y-53274000D01*
X93128000Y-56361500D02*
X93726000Y-56959500D01*
X91694000Y-56361500D02*
X93128000Y-56361500D01*
X81915000Y-63119000D02*
X83058000Y-61976000D01*
X83058000Y-60452000D02*
X82677000Y-60833000D01*
X90637990Y-55305490D02*
X91694000Y-56361500D01*
X83058000Y-60452000D02*
X83058000Y-59626500D01*
X83058000Y-61976000D02*
X83058000Y-60452000D01*
X82319500Y-60833000D02*
X81661000Y-60833000D01*
X83312000Y-59840500D02*
X83312000Y-60198000D01*
X90106500Y-52514500D02*
X90637990Y-53045990D01*
X81661000Y-60833000D02*
X80518000Y-60833000D01*
X87823000Y-52956500D02*
X88265000Y-52514500D01*
X80391000Y-63119000D02*
X81915000Y-63119000D01*
X83312000Y-60198000D02*
X83058000Y-60452000D01*
D37*
X98277510Y-55455990D02*
X98277510Y-64940010D01*
D39*
X111823500Y-66992500D02*
X111823500Y-69024500D01*
X111823500Y-66675000D02*
X111823500Y-66992500D01*
X111823500Y-69024500D02*
X112268000Y-69469000D01*
X116435500Y-69469000D02*
X112268000Y-69469000D01*
D38*
X84074000Y-66294000D02*
X84074000Y-64643000D01*
X82042000Y-58801000D02*
X82255990Y-58587010D01*
D39*
X111823500Y-66802000D02*
X111823500Y-66992500D01*
D37*
X98277510Y-65044490D02*
X98277510Y-66591010D01*
D38*
X82042000Y-59690000D02*
X82042000Y-58801000D01*
D37*
X99504500Y-54229000D02*
X98277510Y-55455990D01*
D38*
X82255990Y-57426460D02*
X83320950Y-56361500D01*
X87823000Y-56255500D02*
X86339000Y-56255500D01*
X83320950Y-56361500D02*
X86233000Y-56361500D01*
D37*
X98277510Y-66591010D02*
X99250500Y-67564000D01*
D38*
X86339000Y-56255500D02*
X86233000Y-56361500D01*
D37*
X98257020Y-65024000D02*
X98277510Y-65044490D01*
D39*
X111315500Y-66167000D02*
X111823500Y-66675000D01*
D37*
X98277510Y-64940010D02*
X98277510Y-65044490D01*
X97051500Y-65024000D02*
X98257020Y-65024000D01*
X99250500Y-67564000D02*
X100584000Y-67564000D01*
D38*
X82255990Y-58587010D02*
X82255990Y-57426460D01*
X84100500Y-63500000D02*
X84100500Y-65024000D01*
D39*
X89723000Y-54921232D02*
X89090500Y-55553732D01*
D37*
X89723000Y-54828602D02*
X89032490Y-55519112D01*
X88196888Y-57308510D02*
X86711632Y-57308510D01*
X89723000Y-53980500D02*
X89723000Y-54828602D01*
X86209500Y-58065500D02*
X86249000Y-58105000D01*
X84659000Y-58015500D02*
X84709000Y-58065500D01*
X86711632Y-57308510D02*
X86583321Y-57436821D01*
X83185000Y-58015500D02*
X84659000Y-58015500D01*
X89032490Y-56472908D02*
X88196888Y-57308510D01*
X89032490Y-55519112D02*
X89032490Y-56472908D01*
X86376000Y-58105000D02*
X86376000Y-57644142D01*
X84709000Y-58065500D02*
X86209500Y-58065500D01*
X86315000Y-58039000D02*
X86249000Y-58105000D01*
X86376000Y-57644142D02*
X86583321Y-57436821D01*
D39*
X90043000Y-63142500D02*
X90043000Y-66421000D01*
X79721010Y-67344990D02*
X88103010Y-67344990D01*
X94435499Y-62581999D02*
X92999999Y-62581999D01*
X90043000Y-66421000D02*
X90043000Y-66675000D01*
X92999999Y-62581999D02*
X92809990Y-62772008D01*
X95226500Y-63373000D02*
X94435499Y-62581999D01*
X90043000Y-66421000D02*
X90297000Y-66675000D01*
X91948000Y-66675000D02*
X92809990Y-65813010D01*
X79248000Y-67818000D02*
X79721010Y-67344990D01*
X90297000Y-66675000D02*
X91948000Y-66675000D01*
X92809990Y-62772008D02*
X92809990Y-64996990D01*
X88773000Y-66675000D02*
X89789000Y-66675000D01*
X90043000Y-66675000D02*
X90297000Y-66675000D01*
X88103010Y-67344990D02*
X88773000Y-66675000D01*
X92809990Y-65813010D02*
X92809990Y-64996990D01*
X90043000Y-66421000D02*
X89789000Y-66675000D01*
X89789000Y-66675000D02*
X90043000Y-66675000D01*
X85471000Y-73595000D02*
X85471000Y-76200000D01*
X86741000Y-74930000D02*
X88011000Y-76200000D01*
X86741000Y-73595000D02*
X86741000Y-74930000D01*
D37*
X121689500Y-78613000D02*
X121689500Y-76494500D01*
X121689500Y-76494500D02*
X121536000Y-76341000D01*
D38*
X122846500Y-67197000D02*
X121536000Y-67197000D01*
X125118500Y-69469000D02*
X122846500Y-67197000D01*
X121409000Y-58036000D02*
X121409000Y-58561000D01*
X118491000Y-55014500D02*
X118491000Y-55118000D01*
X118491000Y-55118000D02*
X121409000Y-58036000D01*
D39*
X90948000Y-63357000D02*
X90934999Y-63370001D01*
X91797500Y-65024000D02*
X90934999Y-64161499D01*
X91760000Y-63357000D02*
X90948000Y-63357000D01*
X90934999Y-64161499D02*
X90934999Y-63370001D01*
X90934999Y-63370001D02*
X90934999Y-61470999D01*
X90934999Y-61470999D02*
X90781500Y-61317500D01*
X90170000Y-61317500D02*
X90781500Y-61317500D01*
X92710000Y-61357000D02*
X94963179Y-61357000D01*
X95400500Y-65024000D02*
X95896750Y-64527750D01*
X96039010Y-62432832D02*
X95447839Y-61841661D01*
X96039010Y-64385490D02*
X95896750Y-64527750D01*
X97051500Y-63373000D02*
X96075500Y-63373000D01*
X96039010Y-63336510D02*
X96039010Y-63019010D01*
X94963179Y-61357000D02*
X95447839Y-61841661D01*
X90805000Y-60325000D02*
X91678000Y-60325000D01*
X91678000Y-60325000D02*
X92710000Y-61357000D01*
X95226500Y-65024000D02*
X95400500Y-65024000D01*
X96075500Y-63373000D02*
X96039010Y-63336510D01*
X96039010Y-63019010D02*
X96039010Y-64385490D01*
X96039010Y-63019010D02*
X96039010Y-62432832D01*
X86249000Y-60005000D02*
X89342000Y-60005000D01*
X89342000Y-60005000D02*
X89535000Y-60198000D01*
X111379000Y-74930000D02*
X111379000Y-70866000D01*
X110998000Y-75311000D02*
X111379000Y-74930000D01*
X110490000Y-75311000D02*
X110998000Y-75311000D01*
X111379000Y-70866000D02*
X111898010Y-70346990D01*
X118260500Y-69469000D02*
X119864500Y-69469000D01*
X111898010Y-70346990D02*
X117382510Y-70346990D01*
X117382510Y-70346990D02*
X118260500Y-69469000D01*
X119853490Y-78624010D02*
X107324820Y-78624010D01*
X104584500Y-64579500D02*
X104648000Y-64516000D01*
X104334989Y-67115011D02*
X104334989Y-64829011D01*
X104334990Y-67923402D02*
X106035001Y-69623413D01*
X104457500Y-64706500D02*
X104584500Y-64579500D01*
X104775000Y-64389000D02*
X105410000Y-64389000D01*
X107324820Y-78624010D02*
X105349990Y-76649180D01*
X104334989Y-67115011D02*
X104334990Y-67923402D01*
X105349990Y-73853990D02*
X106035001Y-73168979D01*
X105349990Y-76649180D02*
X105349990Y-73853990D01*
X106035001Y-69623413D02*
X106035001Y-69859999D01*
X106035001Y-73168979D02*
X106035001Y-69859999D01*
X104648000Y-64516000D02*
X104775000Y-64389000D01*
X104334989Y-67923401D02*
X104334989Y-67115011D01*
X104334989Y-64829011D02*
X104648000Y-64516000D01*
X119864500Y-78613000D02*
X119853490Y-78624010D01*
X107123479Y-67437000D02*
X107631479Y-67945000D01*
X119460999Y-72563001D02*
X119460999Y-70500999D01*
X119603998Y-70358000D02*
X122879500Y-70358000D01*
X108261990Y-71687400D02*
X108261990Y-75279402D01*
X105410000Y-67437000D02*
X107123479Y-67437000D01*
X117475000Y-74549000D02*
X119460999Y-72563001D01*
X123293500Y-69944000D02*
X123293500Y-69469000D01*
X119460999Y-70500999D02*
X119603998Y-70358000D01*
X107631479Y-67945000D02*
X107631479Y-71056889D01*
X114173000Y-74549000D02*
X117475000Y-74549000D01*
X112335990Y-76386010D02*
X114173000Y-74549000D01*
X108261990Y-75279402D02*
X109368598Y-76386010D01*
X109368598Y-76386010D02*
X112335990Y-76386010D01*
X107631479Y-71056889D02*
X108261990Y-71687400D01*
X122879500Y-70358000D02*
X123293500Y-69944000D01*
X100161990Y-54568189D02*
X101540679Y-53189500D01*
X101453679Y-62547500D02*
X100161990Y-61255811D01*
X102423458Y-62547500D02*
X102171500Y-62547500D01*
X103884979Y-64009021D02*
X102423458Y-62547500D01*
X103354500Y-53189500D02*
X117451500Y-53189500D01*
X100161990Y-61255811D02*
X100161990Y-54568189D01*
X101540679Y-53189500D02*
X103354500Y-53189500D01*
X102171500Y-62547500D02*
X101453679Y-62547500D01*
X105410000Y-69977000D02*
X103884979Y-68451979D01*
X103884979Y-68451979D02*
X103884979Y-64009021D01*
X118491000Y-53189500D02*
X117451500Y-53189500D01*
X88900000Y-63754000D02*
X88011000Y-62865000D01*
X89154000Y-63754000D02*
X88900000Y-63754000D01*
X90551000Y-68707000D02*
X89281000Y-67437000D01*
X100584000Y-68707000D02*
X90551000Y-68707000D01*
X90932000Y-69977000D02*
X100584000Y-69977000D01*
X89281000Y-68326000D02*
X90932000Y-69977000D01*
X111601510Y-64446990D02*
X112268000Y-63780500D01*
X112268000Y-63780500D02*
X113511500Y-63780500D01*
X109912285Y-74099695D02*
X110166990Y-73844990D01*
X109347000Y-73787000D02*
X109659695Y-74099695D01*
X110166990Y-70923990D02*
X110166990Y-64964600D01*
X110166990Y-71314600D02*
X110166990Y-73844990D01*
X113511500Y-63780500D02*
X114046000Y-63246000D01*
X110166990Y-71374000D02*
X110166990Y-70923990D01*
X110166990Y-64964600D02*
X110684600Y-64446990D01*
X110166990Y-70923990D02*
X110166990Y-71314600D01*
X109659695Y-74099695D02*
X109912285Y-74099695D01*
X114046000Y-63246000D02*
X114046000Y-61595000D01*
X110684600Y-64446990D02*
X111601510Y-64446990D01*
X112294500Y-65532000D02*
X112268000Y-65505500D01*
X112268000Y-65505500D02*
X112114500Y-65505500D01*
X110617000Y-74169410D02*
X110617000Y-73406000D01*
X109473295Y-74549705D02*
X110236705Y-74549705D01*
X110617000Y-71501000D02*
X110617000Y-73406000D01*
X110617000Y-65151000D02*
X110617000Y-71501000D01*
X112114500Y-65505500D02*
X111506000Y-64897000D01*
X113538000Y-65532000D02*
X112294500Y-65532000D01*
X109347000Y-74676000D02*
X109473295Y-74549705D01*
X109347000Y-74803000D02*
X109347000Y-74676000D01*
X114046000Y-66040000D02*
X113538000Y-65532000D01*
X114046000Y-67691000D02*
X114046000Y-66040000D01*
X111506000Y-64897000D02*
X110871000Y-64897000D01*
X110871000Y-64897000D02*
X110617000Y-65151000D01*
X110236705Y-74549705D02*
X110617000Y-74169410D01*
G04 #@! TA.AperFunction,Conductor*
G36*
X122587488Y-51328502D02*
G01*
X122633981Y-51382158D01*
X122644085Y-51452432D01*
X122614591Y-51517012D01*
X122608462Y-51523595D01*
X121696462Y-52435595D01*
X121634150Y-52469621D01*
X121607367Y-52472500D01*
X119610866Y-52472500D01*
X119548684Y-52479255D01*
X119459123Y-52512830D01*
X119388315Y-52518013D01*
X119325946Y-52484092D01*
X119319595Y-52476975D01*
X119317116Y-52472969D01*
X119275127Y-52431053D01*
X119199184Y-52355242D01*
X119199179Y-52355238D01*
X119194003Y-52350071D01*
X119099521Y-52291831D01*
X119052150Y-52262631D01*
X119052148Y-52262630D01*
X119045920Y-52258791D01*
X118880809Y-52204026D01*
X118873973Y-52203326D01*
X118873970Y-52203325D01*
X118822474Y-52198049D01*
X118778072Y-52193500D01*
X118203928Y-52193500D01*
X118200682Y-52193837D01*
X118200678Y-52193837D01*
X118106765Y-52203581D01*
X118106761Y-52203582D01*
X118099907Y-52204293D01*
X118093371Y-52206474D01*
X118093369Y-52206474D01*
X117960605Y-52250768D01*
X117934893Y-52259346D01*
X117786969Y-52350884D01*
X117664071Y-52473997D01*
X117660233Y-52480224D01*
X117660231Y-52480226D01*
X117650436Y-52496116D01*
X117597664Y-52543609D01*
X117543176Y-52556000D01*
X101619447Y-52556000D01*
X101608264Y-52555473D01*
X101600771Y-52553798D01*
X101592845Y-52554047D01*
X101592844Y-52554047D01*
X101532681Y-52555938D01*
X101528723Y-52556000D01*
X101500823Y-52556000D01*
X101496833Y-52556504D01*
X101484999Y-52557436D01*
X101440790Y-52558826D01*
X101433174Y-52561039D01*
X101433172Y-52561039D01*
X101421331Y-52564479D01*
X101401972Y-52568488D01*
X101400662Y-52568654D01*
X101381882Y-52571026D01*
X101374516Y-52573942D01*
X101374510Y-52573944D01*
X101340777Y-52587300D01*
X101329547Y-52591145D01*
X101302520Y-52598997D01*
X101287086Y-52603481D01*
X101280263Y-52607516D01*
X101269645Y-52613795D01*
X101251892Y-52622492D01*
X101247412Y-52624266D01*
X101233062Y-52629948D01*
X101226647Y-52634609D01*
X101197291Y-52655937D01*
X101187374Y-52662451D01*
X101149317Y-52684958D01*
X101134996Y-52699279D01*
X101119963Y-52712119D01*
X101103572Y-52724028D01*
X101098522Y-52730132D01*
X101098517Y-52730137D01*
X101075386Y-52758098D01*
X101067396Y-52766879D01*
X100256006Y-53578268D01*
X100193694Y-53612293D01*
X100122878Y-53607228D01*
X100073277Y-53573484D01*
X100052253Y-53550134D01*
X99897752Y-53437882D01*
X99891724Y-53435198D01*
X99891722Y-53435197D01*
X99729319Y-53362891D01*
X99729318Y-53362891D01*
X99723288Y-53360206D01*
X99629887Y-53340353D01*
X99542944Y-53321872D01*
X99542939Y-53321872D01*
X99536487Y-53320500D01*
X99345513Y-53320500D01*
X99339061Y-53321872D01*
X99339056Y-53321872D01*
X99252112Y-53340353D01*
X99158712Y-53360206D01*
X99152682Y-53362891D01*
X99152681Y-53362891D01*
X98990278Y-53435197D01*
X98990276Y-53435198D01*
X98984248Y-53437882D01*
X98829747Y-53550134D01*
X98825326Y-53555044D01*
X98825325Y-53555045D01*
X98714757Y-53677844D01*
X98701960Y-53692056D01*
X98666508Y-53753460D01*
X98618853Y-53836002D01*
X98606473Y-53857444D01*
X98593349Y-53897834D01*
X98550127Y-54030859D01*
X98547458Y-54039072D01*
X98546768Y-54045637D01*
X98533514Y-54171741D01*
X98506501Y-54237398D01*
X98497299Y-54247666D01*
X98359769Y-54385196D01*
X98297457Y-54419222D01*
X98226642Y-54414157D01*
X98169806Y-54371610D01*
X98160526Y-54357284D01*
X98098507Y-54245630D01*
X98098504Y-54245625D01*
X98096286Y-54241632D01*
X97932657Y-54027227D01*
X97739792Y-53838688D01*
X97521730Y-53679966D01*
X97415101Y-53623866D01*
X97287079Y-53556510D01*
X97287073Y-53556507D01*
X97283039Y-53554385D01*
X97278734Y-53552865D01*
X97278730Y-53552863D01*
X97033033Y-53466098D01*
X97033032Y-53466098D01*
X97028720Y-53464575D01*
X96879667Y-53435197D01*
X96768572Y-53413300D01*
X96768566Y-53413299D01*
X96764100Y-53412419D01*
X96759547Y-53412192D01*
X96759544Y-53412192D01*
X96499292Y-53399236D01*
X96499286Y-53399236D01*
X96494723Y-53399009D01*
X96226231Y-53424625D01*
X96221797Y-53425710D01*
X96221791Y-53425711D01*
X95996780Y-53480771D01*
X95964250Y-53488731D01*
X95714267Y-53589985D01*
X95585712Y-53665257D01*
X95493863Y-53719037D01*
X95481518Y-53726265D01*
X95378957Y-53808285D01*
X95296199Y-53874469D01*
X95270881Y-53894716D01*
X95195025Y-53975919D01*
X95188378Y-53983035D01*
X95127259Y-54019160D01*
X95056312Y-54016507D01*
X94998062Y-53975919D01*
X94989159Y-53963325D01*
X94977937Y-53945190D01*
X94968901Y-53933791D01*
X94854172Y-53819262D01*
X94842761Y-53810250D01*
X94704759Y-53725184D01*
X94691578Y-53719037D01*
X94537292Y-53667862D01*
X94523916Y-53664995D01*
X94429564Y-53655328D01*
X94423147Y-53655000D01*
X93998115Y-53655000D01*
X93982876Y-53659475D01*
X93981671Y-53660865D01*
X93980000Y-53668548D01*
X93980000Y-54953500D01*
X93959998Y-55021621D01*
X93906342Y-55068114D01*
X93854000Y-55079500D01*
X92404000Y-55079500D01*
X92335879Y-55059498D01*
X92289386Y-55005842D01*
X92278000Y-54953500D01*
X92278000Y-54908615D01*
X92273525Y-54893376D01*
X92272135Y-54892171D01*
X92264452Y-54890500D01*
X91653490Y-54890500D01*
X91585369Y-54870498D01*
X91538876Y-54816842D01*
X91527490Y-54764500D01*
X91527490Y-54364385D01*
X91948000Y-54364385D01*
X91952475Y-54379624D01*
X91953865Y-54380829D01*
X91961548Y-54382500D01*
X92591000Y-54382500D01*
X92659121Y-54402502D01*
X92705614Y-54456158D01*
X92717000Y-54508500D01*
X92717000Y-54553385D01*
X92721475Y-54568624D01*
X92722865Y-54569829D01*
X92730548Y-54571500D01*
X93453885Y-54571500D01*
X93469124Y-54567025D01*
X93470329Y-54565635D01*
X93472000Y-54557952D01*
X93472000Y-53673116D01*
X93467525Y-53657877D01*
X93466135Y-53656672D01*
X93458452Y-53655001D01*
X93028903Y-53655001D01*
X93022384Y-53655338D01*
X92926792Y-53665257D01*
X92913398Y-53668149D01*
X92759215Y-53719588D01*
X92746036Y-53725762D01*
X92601964Y-53814916D01*
X92600252Y-53812149D01*
X92547828Y-53833333D01*
X92478072Y-53820123D01*
X92446427Y-53797116D01*
X92401871Y-53752637D01*
X92390460Y-53743625D01*
X92254937Y-53660088D01*
X92241759Y-53653944D01*
X92090234Y-53603685D01*
X92076868Y-53600819D01*
X91984230Y-53591328D01*
X91977815Y-53591000D01*
X91966115Y-53591000D01*
X91950876Y-53595475D01*
X91949671Y-53596865D01*
X91948000Y-53604548D01*
X91948000Y-54364385D01*
X91527490Y-54364385D01*
X91527490Y-53125915D01*
X91529041Y-53106204D01*
X91530132Y-53099317D01*
X91530132Y-53099315D01*
X91531164Y-53092800D01*
X91528210Y-53036425D01*
X91527663Y-53025998D01*
X91527490Y-53019404D01*
X91527490Y-52999370D01*
X91525396Y-52979444D01*
X91524879Y-52972870D01*
X91521724Y-52912671D01*
X91521724Y-52912668D01*
X91521378Y-52906075D01*
X91517866Y-52892967D01*
X91514265Y-52873534D01*
X91513536Y-52866604D01*
X91513535Y-52866600D01*
X91512845Y-52860034D01*
X91492168Y-52796398D01*
X91490297Y-52790081D01*
X91472984Y-52725465D01*
X91466824Y-52713375D01*
X91459259Y-52695111D01*
X91457109Y-52688494D01*
X91457107Y-52688489D01*
X91455065Y-52682205D01*
X91421614Y-52624266D01*
X91418468Y-52618471D01*
X91391096Y-52564752D01*
X91391094Y-52564749D01*
X91388096Y-52558865D01*
X91383938Y-52553730D01*
X91379557Y-52548319D01*
X91368362Y-52532031D01*
X91367412Y-52530385D01*
X91361575Y-52520275D01*
X91316817Y-52470566D01*
X91312533Y-52465551D01*
X91302002Y-52452546D01*
X91301999Y-52452542D01*
X91299927Y-52449984D01*
X91285780Y-52435837D01*
X91281239Y-52431053D01*
X91240875Y-52386224D01*
X91240873Y-52386223D01*
X91236460Y-52381321D01*
X91225472Y-52373338D01*
X91210444Y-52360501D01*
X90791989Y-51942046D01*
X90779152Y-51927018D01*
X90771169Y-51916030D01*
X90721437Y-51871251D01*
X90716653Y-51866710D01*
X90702506Y-51852563D01*
X90686946Y-51839963D01*
X90681925Y-51835675D01*
X90637119Y-51795330D01*
X90637115Y-51795327D01*
X90632215Y-51790915D01*
X90626505Y-51787619D01*
X90626502Y-51787616D01*
X90620455Y-51784125D01*
X90604170Y-51772932D01*
X90593625Y-51764393D01*
X90534018Y-51734022D01*
X90528224Y-51730876D01*
X90522475Y-51727557D01*
X90470285Y-51697425D01*
X90457375Y-51693230D01*
X90439114Y-51685666D01*
X90427024Y-51679506D01*
X90362406Y-51662191D01*
X90356082Y-51660318D01*
X90347481Y-51657523D01*
X90292456Y-51639645D01*
X90285889Y-51638955D01*
X90285885Y-51638954D01*
X90280212Y-51638358D01*
X90278970Y-51638228D01*
X90259528Y-51634625D01*
X90254261Y-51633214D01*
X90252793Y-51632820D01*
X90252792Y-51632820D01*
X90246415Y-51631111D01*
X90239818Y-51630765D01*
X90239816Y-51630765D01*
X90179613Y-51627610D01*
X90173039Y-51627093D01*
X90156395Y-51625344D01*
X90156391Y-51625344D01*
X90153120Y-51625000D01*
X90133093Y-51625000D01*
X90126499Y-51624827D01*
X90066282Y-51621671D01*
X90066278Y-51621671D01*
X90059690Y-51621326D01*
X90053175Y-51622358D01*
X90053173Y-51622358D01*
X90046286Y-51623449D01*
X90026575Y-51625000D01*
X88344924Y-51625000D01*
X88325213Y-51623449D01*
X88318326Y-51622358D01*
X88318324Y-51622358D01*
X88311809Y-51621326D01*
X88305222Y-51621671D01*
X88305217Y-51621671D01*
X88245007Y-51624827D01*
X88238413Y-51625000D01*
X88218380Y-51625000D01*
X88215106Y-51625344D01*
X88215107Y-51625344D01*
X88198454Y-51627094D01*
X88191880Y-51627611D01*
X88131681Y-51630766D01*
X88131678Y-51630766D01*
X88125085Y-51631112D01*
X88118706Y-51632821D01*
X88118707Y-51632821D01*
X88111977Y-51634624D01*
X88092544Y-51638225D01*
X88085614Y-51638954D01*
X88085610Y-51638955D01*
X88079044Y-51639645D01*
X88015408Y-51660322D01*
X88009101Y-51662190D01*
X87944475Y-51679506D01*
X87938588Y-51682506D01*
X87938587Y-51682506D01*
X87932385Y-51685666D01*
X87914121Y-51693231D01*
X87907504Y-51695381D01*
X87907499Y-51695383D01*
X87901215Y-51697425D01*
X87847436Y-51728474D01*
X87843276Y-51730876D01*
X87837481Y-51734022D01*
X87783762Y-51761394D01*
X87783759Y-51761396D01*
X87777875Y-51764394D01*
X87772743Y-51768550D01*
X87772740Y-51768552D01*
X87767329Y-51772933D01*
X87751044Y-51784126D01*
X87739285Y-51790915D01*
X87734378Y-51795333D01*
X87734377Y-51795334D01*
X87689576Y-51835673D01*
X87684561Y-51839957D01*
X87671559Y-51850486D01*
X87668994Y-51852563D01*
X87654847Y-51866710D01*
X87650063Y-51871251D01*
X87600331Y-51916030D01*
X87592348Y-51927018D01*
X87579511Y-51942046D01*
X87250546Y-52271011D01*
X87235518Y-52283848D01*
X87224530Y-52291831D01*
X87220117Y-52296733D01*
X87220115Y-52296734D01*
X87179751Y-52341563D01*
X87175210Y-52346347D01*
X87161063Y-52360494D01*
X87158986Y-52363059D01*
X87148463Y-52376054D01*
X87144181Y-52381068D01*
X87130669Y-52396075D01*
X87103830Y-52425881D01*
X87103827Y-52425885D01*
X87099415Y-52430785D01*
X87096119Y-52436495D01*
X87096116Y-52436498D01*
X87092625Y-52442545D01*
X87081432Y-52458830D01*
X87072893Y-52469375D01*
X87042523Y-52528980D01*
X87039376Y-52534776D01*
X87005925Y-52592715D01*
X87003884Y-52598997D01*
X87001731Y-52605623D01*
X86994167Y-52623884D01*
X86988006Y-52635976D01*
X86980911Y-52662453D01*
X86970691Y-52700594D01*
X86968818Y-52706918D01*
X86948145Y-52770544D01*
X86947455Y-52777111D01*
X86947454Y-52777115D01*
X86946728Y-52784029D01*
X86943125Y-52803472D01*
X86939611Y-52816585D01*
X86939265Y-52823182D01*
X86939265Y-52823184D01*
X86936110Y-52883387D01*
X86935593Y-52889961D01*
X86934570Y-52899697D01*
X86933500Y-52909880D01*
X86933500Y-52929907D01*
X86933327Y-52936501D01*
X86931077Y-52979444D01*
X86929826Y-53003310D01*
X86930858Y-53009825D01*
X86930858Y-53009827D01*
X86931949Y-53016714D01*
X86933500Y-53036425D01*
X86933500Y-53055133D01*
X86930936Y-53079523D01*
X86929458Y-53084072D01*
X86928768Y-53090633D01*
X86928768Y-53090635D01*
X86920400Y-53170255D01*
X86909496Y-53274000D01*
X86910186Y-53280565D01*
X86925398Y-53425295D01*
X86929458Y-53463928D01*
X86930936Y-53468477D01*
X86933500Y-53492867D01*
X86933500Y-53530063D01*
X86913498Y-53598184D01*
X86859842Y-53644677D01*
X86789568Y-53654781D01*
X86767833Y-53649656D01*
X86629235Y-53603685D01*
X86615868Y-53600819D01*
X86523230Y-53591328D01*
X86516815Y-53591000D01*
X86505115Y-53591000D01*
X86489876Y-53595475D01*
X86488671Y-53596865D01*
X86487000Y-53604548D01*
X86487000Y-54764500D01*
X86466998Y-54832621D01*
X86413342Y-54879114D01*
X86361000Y-54890500D01*
X85268115Y-54890500D01*
X85252876Y-54894975D01*
X85251671Y-54896365D01*
X85250000Y-54904048D01*
X85250000Y-54982766D01*
X85250337Y-54989282D01*
X85260075Y-55083132D01*
X85262968Y-55096528D01*
X85313488Y-55247953D01*
X85319652Y-55261113D01*
X85331152Y-55279696D01*
X85349990Y-55348148D01*
X85328829Y-55415918D01*
X85274389Y-55461489D01*
X85224008Y-55472000D01*
X83400875Y-55472000D01*
X83381164Y-55470449D01*
X83374277Y-55469358D01*
X83374275Y-55469358D01*
X83367760Y-55468326D01*
X83361172Y-55468671D01*
X83361168Y-55468671D01*
X83300951Y-55471827D01*
X83294357Y-55472000D01*
X83274330Y-55472000D01*
X83271059Y-55472344D01*
X83271055Y-55472344D01*
X83254411Y-55474093D01*
X83247837Y-55474610D01*
X83187634Y-55477765D01*
X83187632Y-55477765D01*
X83181035Y-55478111D01*
X83167922Y-55481625D01*
X83148480Y-55485228D01*
X83147238Y-55485358D01*
X83141565Y-55485954D01*
X83141561Y-55485955D01*
X83134994Y-55486645D01*
X83079969Y-55504523D01*
X83071368Y-55507318D01*
X83065044Y-55509191D01*
X83000426Y-55526506D01*
X82988334Y-55532667D01*
X82970075Y-55540230D01*
X82957165Y-55544425D01*
X82910325Y-55571468D01*
X82899226Y-55577876D01*
X82893430Y-55581023D01*
X82833825Y-55611393D01*
X82823280Y-55619932D01*
X82806995Y-55631125D01*
X82800948Y-55634616D01*
X82800945Y-55634619D01*
X82795235Y-55637915D01*
X82790335Y-55642327D01*
X82790331Y-55642330D01*
X82780939Y-55650787D01*
X82748184Y-55680281D01*
X82745525Y-55682675D01*
X82740504Y-55686963D01*
X82724944Y-55699563D01*
X82710797Y-55713710D01*
X82706013Y-55718251D01*
X82656281Y-55763030D01*
X82648298Y-55774018D01*
X82635461Y-55789046D01*
X82306595Y-56117912D01*
X82244283Y-56151938D01*
X82173468Y-56146873D01*
X82116632Y-56104326D01*
X82091821Y-56037806D01*
X82091500Y-56028817D01*
X82091500Y-54364385D01*
X85250000Y-54364385D01*
X85254475Y-54379624D01*
X85255865Y-54380829D01*
X85263548Y-54382500D01*
X85960885Y-54382500D01*
X85976124Y-54378025D01*
X85977329Y-54376635D01*
X85979000Y-54368952D01*
X85979000Y-53609115D01*
X85974525Y-53593876D01*
X85973135Y-53592671D01*
X85965452Y-53591000D01*
X85949234Y-53591000D01*
X85942718Y-53591337D01*
X85848868Y-53601075D01*
X85835472Y-53603968D01*
X85684047Y-53654488D01*
X85670885Y-53660653D01*
X85535508Y-53744426D01*
X85524110Y-53753460D01*
X85411637Y-53866129D01*
X85402625Y-53877540D01*
X85319088Y-54013063D01*
X85312944Y-54026241D01*
X85262685Y-54177766D01*
X85259819Y-54191132D01*
X85250328Y-54283770D01*
X85250000Y-54290185D01*
X85250000Y-54364385D01*
X82091500Y-54364385D01*
X82091500Y-53877866D01*
X82084745Y-53815684D01*
X82033615Y-53679295D01*
X81946261Y-53562739D01*
X81829705Y-53475385D01*
X81693316Y-53424255D01*
X81631134Y-53417500D01*
X78134866Y-53417500D01*
X78072684Y-53424255D01*
X77936295Y-53475385D01*
X77819739Y-53562739D01*
X77732385Y-53679295D01*
X77681255Y-53815684D01*
X77674500Y-53877866D01*
X77674500Y-57374134D01*
X77681255Y-57436316D01*
X77732385Y-57572705D01*
X77819739Y-57689261D01*
X77936295Y-57776615D01*
X78072684Y-57827745D01*
X78134866Y-57834500D01*
X81240490Y-57834500D01*
X81308611Y-57854502D01*
X81355104Y-57908158D01*
X81366490Y-57960500D01*
X81366490Y-58145132D01*
X81346488Y-58213253D01*
X81334127Y-58229441D01*
X81302960Y-58264056D01*
X81299657Y-58269777D01*
X81218621Y-58410136D01*
X81207473Y-58429444D01*
X81148458Y-58611072D01*
X81128496Y-58801000D01*
X81129186Y-58807565D01*
X81145421Y-58962029D01*
X81148458Y-58990928D01*
X81149936Y-58995477D01*
X81152500Y-59019867D01*
X81152500Y-59471133D01*
X81149936Y-59495523D01*
X81148458Y-59500072D01*
X81147768Y-59506633D01*
X81147768Y-59506635D01*
X81131386Y-59662500D01*
X81128496Y-59690000D01*
X81129186Y-59696565D01*
X81140512Y-59804330D01*
X81127740Y-59874168D01*
X81079237Y-59926015D01*
X81015202Y-59943500D01*
X78947380Y-59943500D01*
X78837197Y-59955081D01*
X78814608Y-59957455D01*
X78814607Y-59957455D01*
X78808044Y-59958145D01*
X78801766Y-59960185D01*
X78801765Y-59960185D01*
X78790978Y-59963690D01*
X78630215Y-60015925D01*
X78624493Y-60019228D01*
X78624492Y-60019229D01*
X78596272Y-60035522D01*
X78468285Y-60109415D01*
X78463378Y-60113833D01*
X78463377Y-60113834D01*
X78336015Y-60228512D01*
X78329331Y-60234530D01*
X78325452Y-60239869D01*
X78297740Y-60278012D01*
X78219427Y-60385800D01*
X78216743Y-60391828D01*
X78216742Y-60391830D01*
X78149108Y-60543739D01*
X78143375Y-60556615D01*
X78127668Y-60630512D01*
X78113449Y-60697410D01*
X78104500Y-60739510D01*
X78104500Y-60926490D01*
X78143375Y-61109385D01*
X78146060Y-61115414D01*
X78146060Y-61115416D01*
X78213887Y-61267756D01*
X78219427Y-61280200D01*
X78223307Y-61285541D01*
X78223308Y-61285542D01*
X78237860Y-61305571D01*
X78329331Y-61431470D01*
X78334233Y-61435883D01*
X78334234Y-61435885D01*
X78411629Y-61505572D01*
X78468285Y-61556585D01*
X78630215Y-61650075D01*
X78665359Y-61661494D01*
X78801765Y-61705815D01*
X78801766Y-61705815D01*
X78808044Y-61707855D01*
X78814607Y-61708545D01*
X78814608Y-61708545D01*
X78837197Y-61710919D01*
X78947380Y-61722500D01*
X81749367Y-61722500D01*
X81817488Y-61742502D01*
X81863981Y-61796158D01*
X81874085Y-61866432D01*
X81844591Y-61931012D01*
X81838462Y-61937595D01*
X81583462Y-62192595D01*
X81521150Y-62226621D01*
X81494367Y-62229500D01*
X80344380Y-62229500D01*
X80240028Y-62240468D01*
X80211608Y-62243455D01*
X80211607Y-62243455D01*
X80205044Y-62244145D01*
X80198766Y-62246185D01*
X80198765Y-62246185D01*
X80146143Y-62263283D01*
X80027215Y-62301925D01*
X80021493Y-62305228D01*
X80021492Y-62305229D01*
X79911727Y-62368602D01*
X79865285Y-62395415D01*
X79860378Y-62399833D01*
X79860377Y-62399834D01*
X79778127Y-62473893D01*
X79726331Y-62520530D01*
X79722452Y-62525869D01*
X79630539Y-62652377D01*
X79616427Y-62671800D01*
X79613743Y-62677828D01*
X79613742Y-62677830D01*
X79557732Y-62803631D01*
X79540375Y-62842615D01*
X79521502Y-62931405D01*
X79505053Y-63008796D01*
X79501500Y-63025510D01*
X79501500Y-63212490D01*
X79502872Y-63218943D01*
X79502872Y-63218947D01*
X79508408Y-63244991D01*
X79540375Y-63395385D01*
X79543060Y-63401414D01*
X79543060Y-63401416D01*
X79609809Y-63551335D01*
X79616427Y-63566200D01*
X79620307Y-63571541D01*
X79620308Y-63571542D01*
X79726331Y-63717470D01*
X79724438Y-63718846D01*
X79750521Y-63773193D01*
X79741759Y-63843647D01*
X79696298Y-63898180D01*
X79626168Y-63919500D01*
X78349866Y-63919500D01*
X78287684Y-63926255D01*
X78151295Y-63977385D01*
X78034739Y-64064739D01*
X77947385Y-64181295D01*
X77896255Y-64317684D01*
X77889500Y-64379866D01*
X77889500Y-66176134D01*
X77896255Y-66238316D01*
X77947385Y-66374705D01*
X78034739Y-66491261D01*
X78151295Y-66578615D01*
X78159704Y-66581767D01*
X78159705Y-66581768D01*
X78268451Y-66622535D01*
X78325216Y-66665176D01*
X78349916Y-66731738D01*
X78334709Y-66801087D01*
X78315316Y-66827568D01*
X78188629Y-66960138D01*
X78185715Y-66964410D01*
X78185714Y-66964411D01*
X78161838Y-66999412D01*
X78062743Y-67144680D01*
X78042653Y-67187960D01*
X77973506Y-67336926D01*
X77968688Y-67347305D01*
X77908989Y-67562570D01*
X77885251Y-67784695D01*
X77885548Y-67789848D01*
X77885548Y-67789851D01*
X77893953Y-67935614D01*
X77898110Y-68007715D01*
X77899247Y-68012761D01*
X77899248Y-68012767D01*
X77920275Y-68106069D01*
X77947222Y-68225639D01*
X77985461Y-68319811D01*
X78011961Y-68385072D01*
X78031266Y-68432616D01*
X78077042Y-68507316D01*
X78104024Y-68551346D01*
X78147987Y-68623088D01*
X78294250Y-68791938D01*
X78466126Y-68934632D01*
X78474190Y-68939344D01*
X78539955Y-68977774D01*
X78588679Y-69029412D01*
X78601750Y-69099195D01*
X78575019Y-69164967D01*
X78534562Y-69198327D01*
X78526457Y-69202546D01*
X78517738Y-69208036D01*
X78347433Y-69335905D01*
X78339726Y-69342748D01*
X78192590Y-69496717D01*
X78186104Y-69504727D01*
X78066098Y-69680649D01*
X78061000Y-69689623D01*
X77971338Y-69882783D01*
X77967775Y-69892470D01*
X77912389Y-70092183D01*
X77913912Y-70100607D01*
X77926292Y-70104000D01*
X80566344Y-70104000D01*
X80579875Y-70100027D01*
X80581180Y-70090947D01*
X80539214Y-69923875D01*
X80535894Y-69914124D01*
X80450972Y-69718814D01*
X80446105Y-69709739D01*
X80330426Y-69530926D01*
X80324136Y-69522757D01*
X80180806Y-69365240D01*
X80173273Y-69358215D01*
X80006139Y-69226222D01*
X79997556Y-69220520D01*
X79960602Y-69200120D01*
X79910631Y-69149687D01*
X79895859Y-69080245D01*
X79920975Y-69013839D01*
X79948327Y-68987232D01*
X79971797Y-68970491D01*
X80127860Y-68859173D01*
X80136296Y-68850767D01*
X80246565Y-68740882D01*
X80286096Y-68701489D01*
X80345594Y-68618689D01*
X80413435Y-68524277D01*
X80416453Y-68520077D01*
X80426643Y-68499460D01*
X80513136Y-68324453D01*
X80513137Y-68324451D01*
X80515430Y-68319811D01*
X80580370Y-68106069D01*
X80582743Y-68088045D01*
X80611465Y-68023117D01*
X80670729Y-67984025D01*
X80707665Y-67978490D01*
X83266500Y-67978490D01*
X83334621Y-67998492D01*
X83381114Y-68052148D01*
X83392500Y-68104490D01*
X83392500Y-68647845D01*
X83391506Y-68663637D01*
X83387463Y-68695640D01*
X83390416Y-68725757D01*
X83391899Y-68740882D01*
X83392500Y-68753177D01*
X83392500Y-69536502D01*
X83392693Y-69538950D01*
X83392693Y-69538958D01*
X83394064Y-69556370D01*
X83395438Y-69573831D01*
X83418030Y-69651594D01*
X83434923Y-69709739D01*
X83441855Y-69733601D01*
X83445892Y-69740427D01*
X83522509Y-69869980D01*
X83522511Y-69869983D01*
X83526547Y-69876807D01*
X83644193Y-69994453D01*
X83651017Y-69998489D01*
X83651020Y-69998491D01*
X83719949Y-70039255D01*
X83787399Y-70079145D01*
X83795010Y-70081356D01*
X83795012Y-70081357D01*
X83847231Y-70096528D01*
X83947169Y-70125562D01*
X83953574Y-70126066D01*
X83953579Y-70126067D01*
X83982042Y-70128307D01*
X83982050Y-70128307D01*
X83984498Y-70128500D01*
X84417502Y-70128500D01*
X84419950Y-70128307D01*
X84419958Y-70128307D01*
X84448421Y-70126067D01*
X84448426Y-70126066D01*
X84454831Y-70125562D01*
X84554769Y-70096528D01*
X84606988Y-70081357D01*
X84606990Y-70081356D01*
X84614601Y-70079145D01*
X84757807Y-69994453D01*
X84760489Y-69991771D01*
X84824861Y-69966498D01*
X84894484Y-69980400D01*
X84910312Y-69990572D01*
X84914193Y-69994453D01*
X85057399Y-70079145D01*
X85065010Y-70081356D01*
X85065012Y-70081357D01*
X85117231Y-70096528D01*
X85217169Y-70125562D01*
X85223574Y-70126066D01*
X85223579Y-70126067D01*
X85252042Y-70128307D01*
X85252050Y-70128307D01*
X85254498Y-70128500D01*
X85687502Y-70128500D01*
X85689950Y-70128307D01*
X85689958Y-70128307D01*
X85718421Y-70126067D01*
X85718426Y-70126066D01*
X85724831Y-70125562D01*
X85824769Y-70096528D01*
X85876988Y-70081357D01*
X85876990Y-70081356D01*
X85884601Y-70079145D01*
X86027807Y-69994453D01*
X86030489Y-69991771D01*
X86094861Y-69966498D01*
X86164484Y-69980400D01*
X86180312Y-69990572D01*
X86184193Y-69994453D01*
X86327399Y-70079145D01*
X86335010Y-70081356D01*
X86335012Y-70081357D01*
X86387231Y-70096528D01*
X86487169Y-70125562D01*
X86493574Y-70126066D01*
X86493579Y-70126067D01*
X86522042Y-70128307D01*
X86522050Y-70128307D01*
X86524498Y-70128500D01*
X86957502Y-70128500D01*
X86959950Y-70128307D01*
X86959958Y-70128307D01*
X86988421Y-70126067D01*
X86988426Y-70126066D01*
X86994831Y-70125562D01*
X87094769Y-70096528D01*
X87146988Y-70081357D01*
X87146990Y-70081356D01*
X87154601Y-70079145D01*
X87297807Y-69994453D01*
X87300489Y-69991771D01*
X87364861Y-69966498D01*
X87434484Y-69980400D01*
X87450312Y-69990572D01*
X87454193Y-69994453D01*
X87597399Y-70079145D01*
X87605010Y-70081356D01*
X87605012Y-70081357D01*
X87657231Y-70096528D01*
X87757169Y-70125562D01*
X87763574Y-70126066D01*
X87763579Y-70126067D01*
X87792042Y-70128307D01*
X87792050Y-70128307D01*
X87794498Y-70128500D01*
X88227502Y-70128500D01*
X88229950Y-70128307D01*
X88229958Y-70128307D01*
X88258421Y-70126067D01*
X88258426Y-70126066D01*
X88264831Y-70125562D01*
X88364769Y-70096528D01*
X88416988Y-70081357D01*
X88416990Y-70081356D01*
X88424601Y-70079145D01*
X88492051Y-70039255D01*
X88560980Y-69998491D01*
X88560983Y-69998489D01*
X88567807Y-69994453D01*
X88685453Y-69876807D01*
X88689489Y-69869983D01*
X88689491Y-69869980D01*
X88766108Y-69740427D01*
X88770145Y-69733601D01*
X88777078Y-69709739D01*
X88793970Y-69651594D01*
X88816562Y-69573831D01*
X88817937Y-69556370D01*
X88819307Y-69538958D01*
X88819307Y-69538950D01*
X88819500Y-69536502D01*
X88819500Y-69198308D01*
X88839502Y-69130187D01*
X88893158Y-69083694D01*
X88963432Y-69073590D01*
X88989414Y-69080209D01*
X89084168Y-69115448D01*
X89091153Y-69116380D01*
X89091157Y-69116381D01*
X89126087Y-69121041D01*
X89146187Y-69123723D01*
X89211063Y-69152558D01*
X89218617Y-69159521D01*
X90428343Y-70369247D01*
X90435887Y-70377537D01*
X90440000Y-70384018D01*
X90445777Y-70389443D01*
X90489667Y-70430658D01*
X90492509Y-70433413D01*
X90512231Y-70453135D01*
X90515355Y-70455558D01*
X90515359Y-70455562D01*
X90515424Y-70455612D01*
X90524445Y-70463317D01*
X90556679Y-70493586D01*
X90563627Y-70497405D01*
X90563629Y-70497407D01*
X90574432Y-70503346D01*
X90590959Y-70514202D01*
X90600698Y-70521757D01*
X90600700Y-70521758D01*
X90606960Y-70526614D01*
X90647540Y-70544174D01*
X90658188Y-70549391D01*
X90678294Y-70560444D01*
X90696940Y-70570695D01*
X90704616Y-70572666D01*
X90704619Y-70572667D01*
X90716562Y-70575733D01*
X90735267Y-70582137D01*
X90753855Y-70590181D01*
X90761678Y-70591420D01*
X90761688Y-70591423D01*
X90797524Y-70597099D01*
X90809144Y-70599505D01*
X90826271Y-70603902D01*
X90851970Y-70610500D01*
X90872224Y-70610500D01*
X90891934Y-70612051D01*
X90911943Y-70615220D01*
X90919835Y-70614474D01*
X90931263Y-70613394D01*
X90955962Y-70611059D01*
X90967819Y-70610500D01*
X95874370Y-70610500D01*
X95942491Y-70630502D01*
X95988984Y-70684158D01*
X95999088Y-70754432D01*
X95994205Y-70775430D01*
X95943958Y-70930072D01*
X95923996Y-71120000D01*
X95924686Y-71126565D01*
X95942730Y-71298241D01*
X95943958Y-71309928D01*
X96002973Y-71491556D01*
X96098460Y-71656944D01*
X96102878Y-71661851D01*
X96102879Y-71661852D01*
X96148360Y-71712364D01*
X96226247Y-71798866D01*
X96380748Y-71911118D01*
X96386776Y-71913802D01*
X96386778Y-71913803D01*
X96536237Y-71980346D01*
X96555212Y-71988794D01*
X96648612Y-72008647D01*
X96735556Y-72027128D01*
X96735561Y-72027128D01*
X96742013Y-72028500D01*
X96932987Y-72028500D01*
X96939439Y-72027128D01*
X96939444Y-72027128D01*
X97026388Y-72008647D01*
X97119788Y-71988794D01*
X97138763Y-71980346D01*
X97288222Y-71913803D01*
X97288224Y-71913802D01*
X97294252Y-71911118D01*
X97448753Y-71798866D01*
X97526640Y-71712364D01*
X97572121Y-71661852D01*
X97572122Y-71661851D01*
X97576540Y-71656944D01*
X97672027Y-71491556D01*
X97731042Y-71309928D01*
X97732271Y-71298241D01*
X97750314Y-71126565D01*
X97751004Y-71120000D01*
X97731042Y-70930072D01*
X97680797Y-70775435D01*
X97678769Y-70704469D01*
X97715432Y-70643671D01*
X97779144Y-70612346D01*
X97800630Y-70610500D01*
X99947000Y-70610500D01*
X100015121Y-70630502D01*
X100061614Y-70684158D01*
X100065946Y-70704074D01*
X100067896Y-70703502D01*
X100077475Y-70736124D01*
X100078865Y-70737329D01*
X100086548Y-70739000D01*
X100290693Y-70739000D01*
X100334608Y-70746901D01*
X100387168Y-70766448D01*
X100466168Y-70776989D01*
X100559980Y-70789507D01*
X100559984Y-70789507D01*
X100566961Y-70790438D01*
X100573972Y-70789800D01*
X100573976Y-70789800D01*
X100716459Y-70776832D01*
X100747600Y-70773998D01*
X100754302Y-70771820D01*
X100754304Y-70771820D01*
X100836333Y-70745167D01*
X100875269Y-70739000D01*
X101246500Y-70739000D01*
X101314621Y-70759002D01*
X101361114Y-70812658D01*
X101372500Y-70865000D01*
X101372500Y-73862885D01*
X101376975Y-73878124D01*
X101378365Y-73879329D01*
X101386048Y-73881000D01*
X101464766Y-73881000D01*
X101471282Y-73880663D01*
X101565132Y-73870925D01*
X101578528Y-73868032D01*
X101729953Y-73817512D01*
X101743115Y-73811347D01*
X101878492Y-73727574D01*
X101889894Y-73718536D01*
X101891567Y-73716861D01*
X101892993Y-73716081D01*
X101895627Y-73713993D01*
X101895984Y-73714444D01*
X101953849Y-73682781D01*
X102024669Y-73687784D01*
X102069754Y-73716701D01*
X102072812Y-73719754D01*
X102072817Y-73719758D01*
X102077997Y-73724929D01*
X102079932Y-73726122D01*
X102119793Y-73782347D01*
X102123024Y-73853270D01*
X102114832Y-73876562D01*
X102106037Y-73895422D01*
X102054862Y-74049708D01*
X102051995Y-74063084D01*
X102042328Y-74157436D01*
X102042000Y-74163853D01*
X102042000Y-75038885D01*
X102046475Y-75054124D01*
X102047865Y-75055329D01*
X102055548Y-75057000D01*
X104364884Y-75057000D01*
X104380123Y-75052525D01*
X104381328Y-75051135D01*
X104382999Y-75043452D01*
X104382999Y-74163903D01*
X104382662Y-74157384D01*
X104372743Y-74061792D01*
X104369851Y-74048398D01*
X104318412Y-73894215D01*
X104312238Y-73881036D01*
X104226937Y-73743190D01*
X104217901Y-73731791D01*
X104103172Y-73617262D01*
X104091761Y-73608250D01*
X103953759Y-73523184D01*
X103940578Y-73517037D01*
X103936176Y-73515577D01*
X103877817Y-73475146D01*
X103850580Y-73409582D01*
X103856251Y-73356317D01*
X103870784Y-73312500D01*
X103878974Y-73287809D01*
X103879700Y-73280729D01*
X103889172Y-73188271D01*
X103889500Y-73185072D01*
X103889500Y-72610928D01*
X103888189Y-72598293D01*
X103879419Y-72513765D01*
X103879418Y-72513761D01*
X103878707Y-72506907D01*
X103823654Y-72341893D01*
X103732116Y-72193969D01*
X103715437Y-72177319D01*
X103614184Y-72076242D01*
X103614179Y-72076238D01*
X103609003Y-72071071D01*
X103602769Y-72067228D01*
X103579211Y-72052706D01*
X103531718Y-71999933D01*
X103520296Y-71929861D01*
X103548570Y-71864738D01*
X103579021Y-71838306D01*
X103610031Y-71819116D01*
X103623427Y-71805697D01*
X103727758Y-71701184D01*
X103727762Y-71701179D01*
X103732929Y-71696003D01*
X103744603Y-71677065D01*
X103820369Y-71554150D01*
X103820370Y-71554148D01*
X103824209Y-71547920D01*
X103878974Y-71382809D01*
X103889500Y-71280072D01*
X103889500Y-70705928D01*
X103884583Y-70658540D01*
X103879419Y-70608765D01*
X103879418Y-70608761D01*
X103878707Y-70601907D01*
X103875210Y-70591423D01*
X103825972Y-70443841D01*
X103823654Y-70436893D01*
X103798777Y-70396691D01*
X103735970Y-70295197D01*
X103732116Y-70288969D01*
X103687841Y-70244771D01*
X103614184Y-70171242D01*
X103614179Y-70171238D01*
X103609003Y-70166071D01*
X103597756Y-70159138D01*
X103467150Y-70078631D01*
X103467148Y-70078630D01*
X103460920Y-70074791D01*
X103295809Y-70020026D01*
X103288973Y-70019326D01*
X103288970Y-70019325D01*
X103222333Y-70012498D01*
X103193072Y-70009500D01*
X102493928Y-70009500D01*
X102490682Y-70009837D01*
X102490678Y-70009837D01*
X102396765Y-70019581D01*
X102396761Y-70019582D01*
X102389907Y-70020293D01*
X102383371Y-70022474D01*
X102383369Y-70022474D01*
X102281996Y-70056295D01*
X102224893Y-70075346D01*
X102076969Y-70166884D01*
X102071797Y-70172065D01*
X102069727Y-70174139D01*
X102067962Y-70175105D01*
X102066059Y-70176613D01*
X102065801Y-70176287D01*
X102007446Y-70208219D01*
X101936625Y-70203218D01*
X101891530Y-70174292D01*
X101888869Y-70171636D01*
X101877460Y-70162625D01*
X101741937Y-70079088D01*
X101728759Y-70072944D01*
X101577234Y-70022685D01*
X101563867Y-70019819D01*
X101501591Y-70013438D01*
X101435864Y-69986596D01*
X101395082Y-69928481D01*
X101389219Y-69902139D01*
X101378182Y-69803744D01*
X101377397Y-69796745D01*
X101348579Y-69713991D01*
X101320064Y-69632106D01*
X101320062Y-69632103D01*
X101317745Y-69625448D01*
X101281486Y-69567421D01*
X101225359Y-69477598D01*
X101221626Y-69471624D01*
X101211679Y-69461607D01*
X101181979Y-69431699D01*
X101148172Y-69369268D01*
X101153484Y-69298470D01*
X101184492Y-69251670D01*
X101193872Y-69242737D01*
X101207266Y-69229982D01*
X101307643Y-69078902D01*
X101367604Y-68921056D01*
X101369555Y-68915920D01*
X101369556Y-68915918D01*
X101372055Y-68909338D01*
X101373934Y-68895971D01*
X101396748Y-68733639D01*
X101396748Y-68733636D01*
X101397299Y-68729717D01*
X101397616Y-68707000D01*
X101377397Y-68526745D01*
X101374796Y-68519275D01*
X101320064Y-68362106D01*
X101320062Y-68362103D01*
X101317745Y-68355448D01*
X101221626Y-68201624D01*
X101224010Y-68200134D01*
X101202145Y-68146090D01*
X101215327Y-68076328D01*
X101222582Y-68063929D01*
X101307643Y-67935902D01*
X101365082Y-67784695D01*
X101369555Y-67772920D01*
X101369556Y-67772918D01*
X101372055Y-67766338D01*
X101397299Y-67586717D01*
X101397616Y-67564000D01*
X101377706Y-67386497D01*
X101389990Y-67316571D01*
X101404038Y-67294361D01*
X101405758Y-67292183D01*
X101410929Y-67287003D01*
X101493912Y-67152380D01*
X101498369Y-67145150D01*
X101498370Y-67145148D01*
X101502209Y-67138920D01*
X101556974Y-66973809D01*
X101559471Y-66949443D01*
X101567172Y-66874271D01*
X101567500Y-66871072D01*
X101567500Y-66171928D01*
X101566833Y-66165500D01*
X101557419Y-66074765D01*
X101557418Y-66074761D01*
X101556707Y-66067907D01*
X101544965Y-66032710D01*
X101503972Y-65909841D01*
X101501654Y-65902893D01*
X101410116Y-65754969D01*
X101402861Y-65747726D01*
X101401895Y-65745962D01*
X101400387Y-65744059D01*
X101400713Y-65743801D01*
X101368781Y-65685446D01*
X101373782Y-65614625D01*
X101402708Y-65569530D01*
X101405364Y-65566869D01*
X101414375Y-65555460D01*
X101497912Y-65419937D01*
X101504056Y-65406759D01*
X101554315Y-65255234D01*
X101557181Y-65241868D01*
X101566672Y-65149230D01*
X101567000Y-65142815D01*
X101567000Y-65068615D01*
X101562525Y-65053376D01*
X101561135Y-65052171D01*
X101553452Y-65050500D01*
X99619115Y-65050500D01*
X99603876Y-65054975D01*
X99602671Y-65056365D01*
X99601000Y-65064048D01*
X99601000Y-65142766D01*
X99601337Y-65149282D01*
X99611075Y-65243132D01*
X99613968Y-65256528D01*
X99664488Y-65407953D01*
X99670653Y-65421115D01*
X99754426Y-65556492D01*
X99763464Y-65567894D01*
X99765139Y-65569567D01*
X99765919Y-65570993D01*
X99768007Y-65573627D01*
X99767556Y-65573984D01*
X99799219Y-65631849D01*
X99794216Y-65702669D01*
X99765299Y-65747754D01*
X99763260Y-65749797D01*
X99757071Y-65755997D01*
X99753231Y-65762227D01*
X99753230Y-65762228D01*
X99670364Y-65896662D01*
X99665791Y-65904080D01*
X99611026Y-66069191D01*
X99610326Y-66076027D01*
X99610325Y-66076030D01*
X99608687Y-66092021D01*
X99600500Y-66171928D01*
X99600500Y-66621275D01*
X99580498Y-66689396D01*
X99526842Y-66735889D01*
X99456568Y-66745993D01*
X99391988Y-66716499D01*
X99385405Y-66710370D01*
X99013415Y-66338380D01*
X98979389Y-66276068D01*
X98976510Y-66249285D01*
X98976510Y-65073079D01*
X98976802Y-65064509D01*
X98980163Y-65015214D01*
X98980163Y-65015210D01*
X98980679Y-65007638D01*
X98978386Y-64994499D01*
X98976510Y-64972837D01*
X98976510Y-64524385D01*
X99601000Y-64524385D01*
X99605475Y-64539624D01*
X99606865Y-64540829D01*
X99614548Y-64542500D01*
X100311885Y-64542500D01*
X100327124Y-64538025D01*
X100328329Y-64536635D01*
X100330000Y-64528952D01*
X100330000Y-64524385D01*
X100838000Y-64524385D01*
X100842475Y-64539624D01*
X100843865Y-64540829D01*
X100851548Y-64542500D01*
X101548885Y-64542500D01*
X101564124Y-64538025D01*
X101565329Y-64536635D01*
X101567000Y-64528952D01*
X101567000Y-64450234D01*
X101566663Y-64443718D01*
X101556925Y-64349868D01*
X101554032Y-64336472D01*
X101503512Y-64185047D01*
X101497347Y-64171885D01*
X101413574Y-64036508D01*
X101404540Y-64025110D01*
X101291871Y-63912637D01*
X101280460Y-63903625D01*
X101144937Y-63820088D01*
X101131759Y-63813944D01*
X100980234Y-63763685D01*
X100966868Y-63760819D01*
X100874230Y-63751328D01*
X100867815Y-63751000D01*
X100856115Y-63751000D01*
X100840876Y-63755475D01*
X100839671Y-63756865D01*
X100838000Y-63764548D01*
X100838000Y-64524385D01*
X100330000Y-64524385D01*
X100330000Y-63769115D01*
X100325525Y-63753876D01*
X100324135Y-63752671D01*
X100316452Y-63751000D01*
X100300234Y-63751000D01*
X100293718Y-63751337D01*
X100199868Y-63761075D01*
X100186472Y-63763968D01*
X100035047Y-63814488D01*
X100021885Y-63820653D01*
X99886508Y-63904426D01*
X99875110Y-63913460D01*
X99762637Y-64026129D01*
X99753625Y-64037540D01*
X99670088Y-64173063D01*
X99663944Y-64186241D01*
X99613685Y-64337766D01*
X99610819Y-64351132D01*
X99601328Y-64443770D01*
X99601000Y-64450185D01*
X99601000Y-64524385D01*
X98976510Y-64524385D01*
X98976510Y-56878196D01*
X98996512Y-56810075D01*
X99050168Y-56763582D01*
X99120442Y-56753478D01*
X99146424Y-56760097D01*
X99244168Y-56796448D01*
X99346296Y-56810075D01*
X99419155Y-56819797D01*
X99484032Y-56848633D01*
X99523020Y-56907966D01*
X99528490Y-56944690D01*
X99528490Y-61177044D01*
X99527963Y-61188227D01*
X99526288Y-61195720D01*
X99526537Y-61203646D01*
X99526537Y-61203647D01*
X99528428Y-61263797D01*
X99528490Y-61267756D01*
X99528490Y-61295667D01*
X99528987Y-61299601D01*
X99528987Y-61299602D01*
X99528995Y-61299667D01*
X99529928Y-61311504D01*
X99531317Y-61355700D01*
X99535794Y-61371109D01*
X99536968Y-61375150D01*
X99540977Y-61394511D01*
X99543516Y-61414608D01*
X99546435Y-61421979D01*
X99546435Y-61421981D01*
X99559794Y-61455723D01*
X99563639Y-61466953D01*
X99575972Y-61509404D01*
X99580005Y-61516223D01*
X99580007Y-61516228D01*
X99586283Y-61526839D01*
X99594978Y-61544587D01*
X99602438Y-61563428D01*
X99607100Y-61569844D01*
X99607100Y-61569845D01*
X99628426Y-61599198D01*
X99634942Y-61609118D01*
X99637715Y-61613806D01*
X99657448Y-61647173D01*
X99671769Y-61661494D01*
X99684609Y-61676527D01*
X99696518Y-61692918D01*
X99722286Y-61714235D01*
X99730595Y-61721109D01*
X99739374Y-61729099D01*
X100950027Y-62939753D01*
X100957567Y-62948039D01*
X100961679Y-62954518D01*
X100967456Y-62959943D01*
X101011330Y-63001143D01*
X101014172Y-63003898D01*
X101033909Y-63023635D01*
X101037106Y-63026115D01*
X101046126Y-63033818D01*
X101078358Y-63064086D01*
X101085304Y-63067905D01*
X101085307Y-63067907D01*
X101096113Y-63073848D01*
X101112632Y-63084699D01*
X101128638Y-63097114D01*
X101135907Y-63100259D01*
X101135911Y-63100262D01*
X101169216Y-63114674D01*
X101179866Y-63119891D01*
X101218619Y-63141195D01*
X101226294Y-63143166D01*
X101226295Y-63143166D01*
X101238241Y-63146233D01*
X101256946Y-63152637D01*
X101275534Y-63160681D01*
X101283357Y-63161920D01*
X101283367Y-63161923D01*
X101319203Y-63167599D01*
X101330823Y-63170005D01*
X101365968Y-63179028D01*
X101373649Y-63181000D01*
X101393903Y-63181000D01*
X101413613Y-63182551D01*
X101433622Y-63185720D01*
X101441514Y-63184974D01*
X101477640Y-63181559D01*
X101489498Y-63181000D01*
X102108864Y-63181000D01*
X102176985Y-63201002D01*
X102197959Y-63217905D01*
X103214574Y-64234521D01*
X103248600Y-64296833D01*
X103251479Y-64323616D01*
X103251479Y-68373212D01*
X103250952Y-68384395D01*
X103249277Y-68391888D01*
X103249526Y-68399814D01*
X103249526Y-68399815D01*
X103251417Y-68459965D01*
X103251479Y-68463924D01*
X103251479Y-68491835D01*
X103251976Y-68495769D01*
X103251976Y-68495770D01*
X103251984Y-68495835D01*
X103252917Y-68507672D01*
X103254306Y-68551868D01*
X103259957Y-68571318D01*
X103263966Y-68590679D01*
X103266505Y-68610776D01*
X103269424Y-68618147D01*
X103269424Y-68618149D01*
X103282783Y-68651891D01*
X103286628Y-68663121D01*
X103296555Y-68697292D01*
X103298961Y-68705572D01*
X103302994Y-68712391D01*
X103302996Y-68712396D01*
X103309272Y-68723007D01*
X103317967Y-68740755D01*
X103325427Y-68759596D01*
X103330089Y-68766012D01*
X103330089Y-68766013D01*
X103351415Y-68795366D01*
X103357931Y-68805286D01*
X103375800Y-68835500D01*
X103380437Y-68843341D01*
X103394758Y-68857662D01*
X103407598Y-68872695D01*
X103419507Y-68889086D01*
X103450500Y-68914726D01*
X103453584Y-68917277D01*
X103462363Y-68925267D01*
X104574750Y-70037654D01*
X104608776Y-70099966D01*
X104611054Y-70114453D01*
X104614163Y-70146160D01*
X104671418Y-70318273D01*
X104675065Y-70324295D01*
X104675066Y-70324297D01*
X104756797Y-70459251D01*
X104765380Y-70473424D01*
X104770269Y-70478487D01*
X104770270Y-70478488D01*
X104833696Y-70544167D01*
X104891382Y-70603902D01*
X105043159Y-70703222D01*
X105049763Y-70705678D01*
X105049765Y-70705679D01*
X105206558Y-70763990D01*
X105206560Y-70763990D01*
X105213168Y-70766448D01*
X105268824Y-70773874D01*
X105292166Y-70776989D01*
X105357043Y-70805825D01*
X105396031Y-70865159D01*
X105401501Y-70901882D01*
X105401501Y-72854384D01*
X105381499Y-72922505D01*
X105364596Y-72943480D01*
X105160428Y-73147647D01*
X104957732Y-73350343D01*
X104949453Y-73357877D01*
X104942972Y-73361990D01*
X104896347Y-73411641D01*
X104893592Y-73414483D01*
X104873855Y-73434220D01*
X104871375Y-73437417D01*
X104863672Y-73446437D01*
X104833404Y-73478669D01*
X104829585Y-73485615D01*
X104829583Y-73485618D01*
X104823642Y-73496424D01*
X104812791Y-73512943D01*
X104800376Y-73528949D01*
X104797231Y-73536218D01*
X104797228Y-73536222D01*
X104782816Y-73569527D01*
X104777599Y-73580177D01*
X104756295Y-73618930D01*
X104754324Y-73626605D01*
X104754324Y-73626606D01*
X104751257Y-73638552D01*
X104744853Y-73657256D01*
X104736809Y-73675845D01*
X104735570Y-73683668D01*
X104735567Y-73683678D01*
X104729891Y-73719514D01*
X104727485Y-73731134D01*
X104724209Y-73743895D01*
X104716490Y-73773960D01*
X104716490Y-73794214D01*
X104714939Y-73813924D01*
X104711770Y-73833933D01*
X104712516Y-73841825D01*
X104715931Y-73877951D01*
X104716490Y-73889809D01*
X104716490Y-76570413D01*
X104715963Y-76581596D01*
X104714288Y-76589089D01*
X104714537Y-76597015D01*
X104714537Y-76597016D01*
X104716428Y-76657166D01*
X104716490Y-76661125D01*
X104716490Y-76689036D01*
X104716987Y-76692970D01*
X104716987Y-76692971D01*
X104716995Y-76693036D01*
X104717928Y-76704873D01*
X104719317Y-76749069D01*
X104724968Y-76768519D01*
X104728977Y-76787880D01*
X104731516Y-76807977D01*
X104734435Y-76815348D01*
X104734435Y-76815350D01*
X104747794Y-76849092D01*
X104751639Y-76860322D01*
X104760111Y-76889484D01*
X104763972Y-76902773D01*
X104768005Y-76909592D01*
X104768007Y-76909597D01*
X104774283Y-76920208D01*
X104782978Y-76937956D01*
X104790438Y-76956797D01*
X104795100Y-76963213D01*
X104795100Y-76963214D01*
X104816426Y-76992567D01*
X104822942Y-77002487D01*
X104838676Y-77029091D01*
X104845448Y-77040542D01*
X104859769Y-77054863D01*
X104872609Y-77069896D01*
X104884518Y-77086287D01*
X104916961Y-77113126D01*
X104918595Y-77114478D01*
X104927374Y-77122468D01*
X106821163Y-79016257D01*
X106828707Y-79024547D01*
X106832820Y-79031028D01*
X106838597Y-79036453D01*
X106882487Y-79077668D01*
X106885329Y-79080423D01*
X106905050Y-79100144D01*
X106908245Y-79102622D01*
X106917267Y-79110328D01*
X106949499Y-79140596D01*
X106956448Y-79144416D01*
X106967252Y-79150356D01*
X106983776Y-79161209D01*
X106999779Y-79173623D01*
X107040363Y-79191186D01*
X107050993Y-79196393D01*
X107089760Y-79217705D01*
X107097437Y-79219676D01*
X107097442Y-79219678D01*
X107109378Y-79222742D01*
X107128086Y-79229147D01*
X107146675Y-79237191D01*
X107154500Y-79238430D01*
X107154502Y-79238431D01*
X107190339Y-79244107D01*
X107201960Y-79246514D01*
X107237109Y-79255538D01*
X107244790Y-79257510D01*
X107265051Y-79257510D01*
X107284760Y-79259061D01*
X107304763Y-79262229D01*
X107312655Y-79261483D01*
X107317882Y-79260989D01*
X107348774Y-79258069D01*
X107360631Y-79257510D01*
X118918879Y-79257510D01*
X118987000Y-79277512D01*
X119017624Y-79305245D01*
X119022033Y-79310808D01*
X119025884Y-79317031D01*
X119031063Y-79322201D01*
X119143816Y-79434758D01*
X119143821Y-79434762D01*
X119148997Y-79439929D01*
X119297080Y-79531209D01*
X119462191Y-79585974D01*
X119469027Y-79586674D01*
X119469030Y-79586675D01*
X119520526Y-79591951D01*
X119564928Y-79596500D01*
X120164072Y-79596500D01*
X120167318Y-79596163D01*
X120167322Y-79596163D01*
X120261235Y-79586419D01*
X120261239Y-79586418D01*
X120268093Y-79585707D01*
X120274629Y-79583526D01*
X120274631Y-79583526D01*
X120407395Y-79539232D01*
X120433107Y-79530654D01*
X120581031Y-79439116D01*
X120586204Y-79433934D01*
X120687747Y-79332214D01*
X120750030Y-79298135D01*
X120820850Y-79303138D01*
X120865937Y-79332059D01*
X120968812Y-79434754D01*
X120968817Y-79434758D01*
X120973997Y-79439929D01*
X121122080Y-79531209D01*
X121287191Y-79585974D01*
X121294027Y-79586674D01*
X121294030Y-79586675D01*
X121345526Y-79591951D01*
X121389928Y-79596500D01*
X121989072Y-79596500D01*
X121992318Y-79596163D01*
X121992322Y-79596163D01*
X122086235Y-79586419D01*
X122086239Y-79586418D01*
X122093093Y-79585707D01*
X122099629Y-79583526D01*
X122099631Y-79583526D01*
X122232395Y-79539232D01*
X122258107Y-79530654D01*
X122406031Y-79439116D01*
X122411204Y-79433934D01*
X122523758Y-79321184D01*
X122523762Y-79321179D01*
X122528929Y-79316003D01*
X122572674Y-79245036D01*
X122616369Y-79174150D01*
X122616370Y-79174148D01*
X122620209Y-79167920D01*
X122674974Y-79002809D01*
X122685500Y-78900072D01*
X122685500Y-78325928D01*
X122674707Y-78221907D01*
X122652052Y-78154000D01*
X122621972Y-78063841D01*
X122619654Y-78056893D01*
X122610316Y-78041803D01*
X122591478Y-77973351D01*
X122612639Y-77905581D01*
X122667080Y-77860010D01*
X122717460Y-77849500D01*
X123334134Y-77849500D01*
X123396316Y-77842745D01*
X123403711Y-77839973D01*
X123407188Y-77839146D01*
X123478088Y-77842849D01*
X123535731Y-77884295D01*
X123545453Y-77898731D01*
X123545983Y-77899649D01*
X123549380Y-77905533D01*
X123552523Y-77911322D01*
X123582893Y-77970927D01*
X123587050Y-77976060D01*
X123591432Y-77981472D01*
X123602625Y-77997757D01*
X123606116Y-78003804D01*
X123606119Y-78003807D01*
X123609415Y-78009517D01*
X123613827Y-78014417D01*
X123613830Y-78014421D01*
X123654175Y-78059227D01*
X123658463Y-78064248D01*
X123671063Y-78079808D01*
X123685210Y-78093955D01*
X123689751Y-78098739D01*
X123727310Y-78140452D01*
X123734530Y-78148471D01*
X123745518Y-78156454D01*
X123760546Y-78169291D01*
X124285710Y-78694455D01*
X124298547Y-78709483D01*
X124306530Y-78720471D01*
X124311432Y-78724884D01*
X124311433Y-78724886D01*
X124356262Y-78765250D01*
X124361046Y-78769791D01*
X124375193Y-78783938D01*
X124377758Y-78786015D01*
X124390753Y-78796538D01*
X124395774Y-78800826D01*
X124440580Y-78841171D01*
X124440584Y-78841174D01*
X124445484Y-78845586D01*
X124451194Y-78848882D01*
X124451197Y-78848885D01*
X124457244Y-78852376D01*
X124473529Y-78863569D01*
X124484074Y-78872108D01*
X124538957Y-78900072D01*
X124543679Y-78902478D01*
X124549475Y-78905625D01*
X124607414Y-78939076D01*
X124620324Y-78943271D01*
X124638583Y-78950834D01*
X124650675Y-78956995D01*
X124707840Y-78972313D01*
X124715293Y-78974310D01*
X124721618Y-78976183D01*
X124785243Y-78996856D01*
X124791810Y-78997546D01*
X124791814Y-78997547D01*
X124797487Y-78998143D01*
X124798729Y-78998273D01*
X124818171Y-79001876D01*
X124831284Y-79005390D01*
X124837881Y-79005736D01*
X124837883Y-79005736D01*
X124898086Y-79008891D01*
X124904660Y-79009408D01*
X124921304Y-79011157D01*
X124921308Y-79011157D01*
X124924579Y-79011501D01*
X124944606Y-79011501D01*
X124951200Y-79011674D01*
X125011417Y-79014830D01*
X125011421Y-79014830D01*
X125018009Y-79015175D01*
X125024524Y-79014143D01*
X125024526Y-79014143D01*
X125031413Y-79013052D01*
X125051124Y-79011501D01*
X135080074Y-79011501D01*
X135099785Y-79013052D01*
X135106672Y-79014143D01*
X135106674Y-79014143D01*
X135113189Y-79015175D01*
X135119777Y-79014830D01*
X135119781Y-79014830D01*
X135179998Y-79011674D01*
X135186592Y-79011501D01*
X135206619Y-79011501D01*
X135209890Y-79011157D01*
X135209894Y-79011157D01*
X135226538Y-79009408D01*
X135233112Y-79008891D01*
X135293315Y-79005736D01*
X135293317Y-79005736D01*
X135299914Y-79005390D01*
X135313027Y-79001876D01*
X135332469Y-78998273D01*
X135333711Y-78998143D01*
X135339384Y-78997547D01*
X135339388Y-78997546D01*
X135345955Y-78996856D01*
X135409580Y-78976183D01*
X135415905Y-78974310D01*
X135423358Y-78972313D01*
X135480523Y-78956995D01*
X135492615Y-78950834D01*
X135510874Y-78943271D01*
X135523784Y-78939076D01*
X135581723Y-78905625D01*
X135587519Y-78902478D01*
X135592241Y-78900072D01*
X135647124Y-78872108D01*
X135657669Y-78863569D01*
X135673954Y-78852376D01*
X135680001Y-78848885D01*
X135680004Y-78848882D01*
X135685714Y-78845586D01*
X135690614Y-78841174D01*
X135690618Y-78841171D01*
X135735424Y-78800826D01*
X135740445Y-78796538D01*
X135753440Y-78786015D01*
X135756005Y-78783938D01*
X135770152Y-78769791D01*
X135774936Y-78765250D01*
X135819765Y-78724886D01*
X135819766Y-78724884D01*
X135824668Y-78720471D01*
X135832651Y-78709483D01*
X135845488Y-78694455D01*
X139002454Y-75537489D01*
X139017482Y-75524652D01*
X139028470Y-75516669D01*
X139037996Y-75506090D01*
X139073249Y-75466937D01*
X139077790Y-75462153D01*
X139091937Y-75448006D01*
X139104537Y-75432446D01*
X139108825Y-75427425D01*
X139149170Y-75382619D01*
X139149173Y-75382615D01*
X139153585Y-75377715D01*
X139156881Y-75372005D01*
X139156884Y-75372002D01*
X139160375Y-75365955D01*
X139171568Y-75349670D01*
X139175950Y-75344258D01*
X139180107Y-75339125D01*
X139210477Y-75279520D01*
X139213624Y-75273724D01*
X139230197Y-75245018D01*
X139247075Y-75215785D01*
X139251270Y-75202875D01*
X139258833Y-75184616D01*
X139264994Y-75172524D01*
X139282309Y-75107906D01*
X139284182Y-75101582D01*
X139295158Y-75067800D01*
X139304855Y-75037956D01*
X139305549Y-75031357D01*
X139306272Y-75024471D01*
X139309876Y-75005023D01*
X139311680Y-74998293D01*
X139311680Y-74998292D01*
X139313389Y-74991915D01*
X139313735Y-74985316D01*
X139316890Y-74925113D01*
X139317407Y-74918539D01*
X139319156Y-74901895D01*
X139319156Y-74901891D01*
X139319500Y-74898620D01*
X139319500Y-74878593D01*
X139319673Y-74871999D01*
X139322829Y-74811782D01*
X139322829Y-74811778D01*
X139323174Y-74805190D01*
X139321051Y-74791785D01*
X139319500Y-74772075D01*
X139319500Y-74724500D01*
X139339502Y-74656379D01*
X139393158Y-74609886D01*
X139445500Y-74598500D01*
X140178134Y-74598500D01*
X140240316Y-74591745D01*
X140376705Y-74540615D01*
X140493261Y-74453261D01*
X140580615Y-74336705D01*
X140631745Y-74200316D01*
X140638500Y-74138134D01*
X140638500Y-70641866D01*
X140631745Y-70579684D01*
X140580615Y-70443295D01*
X140493261Y-70326739D01*
X140376705Y-70239385D01*
X140240316Y-70188255D01*
X140178134Y-70181500D01*
X136681866Y-70181500D01*
X136619684Y-70188255D01*
X136619368Y-70185348D01*
X136562254Y-70182370D01*
X136504607Y-70140928D01*
X136478517Y-70074899D01*
X136477999Y-70063486D01*
X136477999Y-69859903D01*
X136477662Y-69853384D01*
X136467743Y-69757792D01*
X136464851Y-69744398D01*
X136413412Y-69590215D01*
X136407238Y-69577036D01*
X136321937Y-69439190D01*
X136312901Y-69427791D01*
X136198172Y-69313262D01*
X136186761Y-69304250D01*
X136048759Y-69219184D01*
X136035578Y-69213037D01*
X135881292Y-69161862D01*
X135867916Y-69158995D01*
X135773564Y-69149328D01*
X135767147Y-69149000D01*
X134892115Y-69149000D01*
X134876876Y-69153475D01*
X134875671Y-69154865D01*
X134874000Y-69162548D01*
X134874000Y-71471884D01*
X134878475Y-71487123D01*
X134879865Y-71488328D01*
X134887548Y-71489999D01*
X135767097Y-71489999D01*
X135773616Y-71489662D01*
X135869208Y-71479743D01*
X135882602Y-71476851D01*
X136036794Y-71425409D01*
X136042052Y-71422946D01*
X136112225Y-71412163D01*
X136177088Y-71441030D01*
X136216047Y-71500383D01*
X136221500Y-71537048D01*
X136221500Y-72226397D01*
X136201498Y-72294518D01*
X136147842Y-72341011D01*
X136077568Y-72351115D01*
X136045419Y-72341536D01*
X136042740Y-72339885D01*
X135898060Y-72291897D01*
X135881391Y-72286368D01*
X135881389Y-72286368D01*
X135874863Y-72284203D01*
X135868027Y-72283503D01*
X135868024Y-72283502D01*
X135824971Y-72279091D01*
X135770402Y-72273500D01*
X135137927Y-72273500D01*
X135090931Y-72264407D01*
X135083158Y-72261282D01*
X134988699Y-72223310D01*
X134766618Y-72177319D01*
X134762007Y-72177053D01*
X134762006Y-72177053D01*
X134710879Y-72174105D01*
X134710875Y-72174105D01*
X134709056Y-72174000D01*
X133070500Y-72174000D01*
X133002379Y-72153998D01*
X132955886Y-72100342D01*
X132944500Y-72048000D01*
X132944500Y-71493405D01*
X132964502Y-71425284D01*
X133018158Y-71378791D01*
X133088432Y-71368687D01*
X133136616Y-71386145D01*
X133191241Y-71419816D01*
X133204422Y-71425963D01*
X133358708Y-71477138D01*
X133372084Y-71480005D01*
X133466436Y-71489672D01*
X133472852Y-71490000D01*
X134347885Y-71490000D01*
X134363124Y-71485525D01*
X134364329Y-71484135D01*
X134366000Y-71476452D01*
X134366000Y-69167116D01*
X134361525Y-69151877D01*
X134360135Y-69150672D01*
X134352452Y-69149001D01*
X133472903Y-69149001D01*
X133466384Y-69149338D01*
X133370792Y-69159257D01*
X133357398Y-69162149D01*
X133203215Y-69213588D01*
X133190036Y-69219762D01*
X133052190Y-69305063D01*
X133040791Y-69314099D01*
X132926262Y-69428828D01*
X132917250Y-69440239D01*
X132832184Y-69578241D01*
X132826037Y-69591422D01*
X132774862Y-69745708D01*
X132771995Y-69759084D01*
X132762328Y-69853436D01*
X132762000Y-69859853D01*
X132762000Y-69938313D01*
X132741998Y-70006434D01*
X132688342Y-70052927D01*
X132618068Y-70063031D01*
X132591770Y-70056295D01*
X132546316Y-70039255D01*
X132484134Y-70032500D01*
X126220906Y-70032500D01*
X126152785Y-70012498D01*
X126106292Y-69958842D01*
X126096188Y-69888568D01*
X126101311Y-69866839D01*
X126101809Y-69865338D01*
X126101810Y-69865333D01*
X126103974Y-69858809D01*
X126105076Y-69848059D01*
X126110457Y-69795529D01*
X126114500Y-69756072D01*
X126114500Y-69181928D01*
X126111119Y-69149338D01*
X126104419Y-69084765D01*
X126104418Y-69084761D01*
X126103707Y-69077907D01*
X126101526Y-69071370D01*
X126100070Y-69064628D01*
X126101274Y-69064368D01*
X126098943Y-69000428D01*
X126135126Y-68939344D01*
X126198590Y-68907518D01*
X126221052Y-68905500D01*
X132484134Y-68905500D01*
X132546316Y-68898745D01*
X132682705Y-68847615D01*
X132799261Y-68760261D01*
X132886615Y-68643705D01*
X132937745Y-68507316D01*
X132944500Y-68445134D01*
X132944500Y-66586000D01*
X132964502Y-66517879D01*
X133018158Y-66471386D01*
X133070500Y-66460000D01*
X134423535Y-66460000D01*
X134426322Y-66459751D01*
X134426328Y-66459751D01*
X134496506Y-66453487D01*
X134591895Y-66444974D01*
X134810651Y-66385130D01*
X134815709Y-66382718D01*
X134815713Y-66382716D01*
X134836556Y-66372774D01*
X134890800Y-66360500D01*
X135516402Y-66360500D01*
X135519648Y-66360163D01*
X135519652Y-66360163D01*
X135549585Y-66357057D01*
X135622168Y-66349526D01*
X135789947Y-66293550D01*
X135940349Y-66200479D01*
X136065306Y-66075304D01*
X136077815Y-66055011D01*
X136105606Y-66009927D01*
X136158378Y-65962434D01*
X136228450Y-65951012D01*
X136293573Y-65979286D01*
X136313690Y-66000478D01*
X136366739Y-66071261D01*
X136483295Y-66158615D01*
X136619684Y-66209745D01*
X136681866Y-66216500D01*
X140178134Y-66216500D01*
X140240316Y-66209745D01*
X140376705Y-66158615D01*
X140493261Y-66071261D01*
X140580615Y-65954705D01*
X140631745Y-65818316D01*
X140638500Y-65756134D01*
X140638500Y-62259866D01*
X140631745Y-62197684D01*
X140580615Y-62061295D01*
X140493261Y-61944739D01*
X140376705Y-61857385D01*
X140240316Y-61806255D01*
X140178134Y-61799500D01*
X138098861Y-61799500D01*
X138030740Y-61779498D01*
X138009766Y-61762595D01*
X136490716Y-60243545D01*
X136477879Y-60228517D01*
X136469896Y-60217529D01*
X136420164Y-60172750D01*
X136415380Y-60168209D01*
X136401233Y-60154062D01*
X136385673Y-60141462D01*
X136380652Y-60137174D01*
X136335846Y-60096829D01*
X136335842Y-60096826D01*
X136330942Y-60092414D01*
X136325232Y-60089118D01*
X136325229Y-60089115D01*
X136319182Y-60085624D01*
X136302897Y-60074431D01*
X136292352Y-60065892D01*
X136232747Y-60035522D01*
X136226951Y-60032375D01*
X136204181Y-60019229D01*
X136169012Y-59998924D01*
X136156102Y-59994729D01*
X136137843Y-59987166D01*
X136125751Y-59981005D01*
X136061133Y-59963690D01*
X136054809Y-59961817D01*
X136041384Y-59957455D01*
X135991183Y-59941144D01*
X135984616Y-59940454D01*
X135984612Y-59940453D01*
X135978939Y-59939857D01*
X135977697Y-59939727D01*
X135958255Y-59936124D01*
X135945142Y-59932610D01*
X135938545Y-59932264D01*
X135938543Y-59932264D01*
X135878340Y-59929109D01*
X135871766Y-59928592D01*
X135855122Y-59926843D01*
X135855118Y-59926843D01*
X135851847Y-59926499D01*
X135831820Y-59926499D01*
X135825226Y-59926326D01*
X135765009Y-59923170D01*
X135765005Y-59923170D01*
X135758417Y-59922825D01*
X135751902Y-59923857D01*
X135751900Y-59923857D01*
X135745013Y-59924948D01*
X135725302Y-59926499D01*
X132943500Y-59926499D01*
X132875379Y-59906497D01*
X132828886Y-59852841D01*
X132817500Y-59800499D01*
X132817500Y-57823000D01*
X132837502Y-57754879D01*
X132891158Y-57708386D01*
X132943500Y-57697000D01*
X134296535Y-57697000D01*
X134299322Y-57696751D01*
X134299328Y-57696751D01*
X134383247Y-57689261D01*
X134464895Y-57681974D01*
X134683651Y-57622130D01*
X134688709Y-57619718D01*
X134688713Y-57619716D01*
X134709556Y-57609774D01*
X134763800Y-57597500D01*
X135389402Y-57597500D01*
X135392648Y-57597163D01*
X135392652Y-57597163D01*
X135422585Y-57594057D01*
X135495168Y-57586526D01*
X135662947Y-57530550D01*
X135813349Y-57437479D01*
X135938306Y-57312304D01*
X135961052Y-57275404D01*
X136013946Y-57189593D01*
X136066718Y-57142100D01*
X136136790Y-57130676D01*
X136201914Y-57158950D01*
X136239188Y-57211480D01*
X136269544Y-57292453D01*
X136279385Y-57318705D01*
X136366739Y-57435261D01*
X136483295Y-57522615D01*
X136619684Y-57573745D01*
X136681866Y-57580500D01*
X140178134Y-57580500D01*
X140240316Y-57573745D01*
X140376705Y-57522615D01*
X140493261Y-57435261D01*
X140580615Y-57318705D01*
X140631745Y-57182316D01*
X140638500Y-57120134D01*
X140638500Y-53623866D01*
X140631745Y-53561684D01*
X140580615Y-53425295D01*
X140493261Y-53308739D01*
X140376705Y-53221385D01*
X140240316Y-53170255D01*
X140178134Y-53163500D01*
X138293633Y-53163500D01*
X138225512Y-53143498D01*
X138204538Y-53126595D01*
X136601538Y-51523595D01*
X136567512Y-51461283D01*
X136572577Y-51390468D01*
X136615124Y-51333632D01*
X136681644Y-51308821D01*
X136690633Y-51308500D01*
X140843500Y-51308500D01*
X140911621Y-51328502D01*
X140958114Y-51382158D01*
X140969500Y-51434500D01*
X140969500Y-80010500D01*
X140949498Y-80078621D01*
X140895842Y-80125114D01*
X140843500Y-80136500D01*
X77469500Y-80136500D01*
X77401379Y-80116498D01*
X77354886Y-80062842D01*
X77343500Y-80010500D01*
X77343500Y-77690669D01*
X77675001Y-77690669D01*
X77675371Y-77697490D01*
X77680895Y-77748352D01*
X77684521Y-77763604D01*
X77729676Y-77884054D01*
X77738214Y-77899649D01*
X77814715Y-78001724D01*
X77827276Y-78014285D01*
X77929351Y-78090786D01*
X77944946Y-78099324D01*
X78065394Y-78144478D01*
X78080649Y-78148105D01*
X78131514Y-78153631D01*
X78138328Y-78154000D01*
X79610885Y-78154000D01*
X79626124Y-78149525D01*
X79627329Y-78148135D01*
X79629000Y-78140452D01*
X79629000Y-78135884D01*
X80137000Y-78135884D01*
X80141475Y-78151123D01*
X80142865Y-78152328D01*
X80150548Y-78153999D01*
X81627669Y-78153999D01*
X81634490Y-78153629D01*
X81685352Y-78148105D01*
X81700604Y-78144479D01*
X81821054Y-78099324D01*
X81836649Y-78090786D01*
X81938724Y-78014285D01*
X81951285Y-78001724D01*
X82027786Y-77899649D01*
X82036324Y-77884054D01*
X82081478Y-77763606D01*
X82085105Y-77748351D01*
X82090631Y-77697486D01*
X82091000Y-77690672D01*
X82091000Y-76218115D01*
X82086525Y-76202876D01*
X82085135Y-76201671D01*
X82077452Y-76200000D01*
X80155115Y-76200000D01*
X80139876Y-76204475D01*
X80138671Y-76205865D01*
X80137000Y-76213548D01*
X80137000Y-78135884D01*
X79629000Y-78135884D01*
X79629000Y-76218115D01*
X79624525Y-76202876D01*
X79623135Y-76201671D01*
X79615452Y-76200000D01*
X77693116Y-76200000D01*
X77677877Y-76204475D01*
X77676672Y-76205865D01*
X77675001Y-76213548D01*
X77675001Y-77690669D01*
X77343500Y-77690669D01*
X77343500Y-75673885D01*
X77675000Y-75673885D01*
X77679475Y-75689124D01*
X77680865Y-75690329D01*
X77688548Y-75692000D01*
X79610885Y-75692000D01*
X79626124Y-75687525D01*
X79627329Y-75686135D01*
X79629000Y-75678452D01*
X79629000Y-75673885D01*
X80137000Y-75673885D01*
X80141475Y-75689124D01*
X80142865Y-75690329D01*
X80150548Y-75692000D01*
X82072884Y-75692000D01*
X82088123Y-75687525D01*
X82089328Y-75686135D01*
X82090999Y-75678452D01*
X82090999Y-74801454D01*
X82111001Y-74733333D01*
X82164657Y-74686840D01*
X82229841Y-74676110D01*
X82262928Y-74679500D01*
X82837072Y-74679500D01*
X82840318Y-74679163D01*
X82840322Y-74679163D01*
X82934235Y-74669419D01*
X82934239Y-74669418D01*
X82941093Y-74668707D01*
X82947629Y-74666526D01*
X82947631Y-74666526D01*
X83099159Y-74615972D01*
X83106107Y-74613654D01*
X83232439Y-74535477D01*
X83300889Y-74516641D01*
X83368659Y-74537802D01*
X83414230Y-74592243D01*
X83419737Y-74607470D01*
X83439586Y-74675790D01*
X83441855Y-74683601D01*
X83445892Y-74690427D01*
X83522509Y-74819980D01*
X83522511Y-74819983D01*
X83526547Y-74826807D01*
X83644193Y-74944453D01*
X83651017Y-74948489D01*
X83651020Y-74948491D01*
X83735231Y-74998293D01*
X83787399Y-75029145D01*
X83795010Y-75031356D01*
X83795012Y-75031357D01*
X83839357Y-75044240D01*
X83947169Y-75075562D01*
X83953574Y-75076066D01*
X83953579Y-75076067D01*
X83982042Y-75078307D01*
X83982050Y-75078307D01*
X83984498Y-75078500D01*
X83999122Y-75078500D01*
X84067243Y-75098502D01*
X84113736Y-75152158D01*
X84123840Y-75222432D01*
X84121897Y-75232635D01*
X84119255Y-75239684D01*
X84112500Y-75301866D01*
X84112500Y-77098134D01*
X84119255Y-77160316D01*
X84170385Y-77296705D01*
X84257739Y-77413261D01*
X84374295Y-77500615D01*
X84510684Y-77551745D01*
X84572866Y-77558500D01*
X86369134Y-77558500D01*
X86431316Y-77551745D01*
X86567705Y-77500615D01*
X86684261Y-77413261D01*
X86771615Y-77296705D01*
X86791734Y-77243037D01*
X86815598Y-77179382D01*
X86858240Y-77122618D01*
X86924802Y-77097918D01*
X86994150Y-77113126D01*
X87028817Y-77141114D01*
X87057250Y-77173938D01*
X87229126Y-77316632D01*
X87422000Y-77429338D01*
X87426825Y-77431180D01*
X87426826Y-77431181D01*
X87452951Y-77441157D01*
X87630692Y-77509030D01*
X87635760Y-77510061D01*
X87635763Y-77510062D01*
X87743017Y-77531883D01*
X87849597Y-77553567D01*
X87854772Y-77553757D01*
X87854774Y-77553757D01*
X88067673Y-77561564D01*
X88067677Y-77561564D01*
X88072837Y-77561753D01*
X88077957Y-77561097D01*
X88077959Y-77561097D01*
X88289288Y-77534025D01*
X88289289Y-77534025D01*
X88294416Y-77533368D01*
X88299366Y-77531883D01*
X88503429Y-77470661D01*
X88503434Y-77470659D01*
X88508384Y-77469174D01*
X88708994Y-77370896D01*
X88890860Y-77241173D01*
X88895003Y-77237045D01*
X88927521Y-77204640D01*
X95007963Y-77204640D01*
X95025663Y-77385160D01*
X95082918Y-77557273D01*
X95086565Y-77563295D01*
X95086566Y-77563297D01*
X95167836Y-77697490D01*
X95176880Y-77712424D01*
X95181769Y-77717487D01*
X95181770Y-77717488D01*
X95226304Y-77763604D01*
X95302882Y-77842902D01*
X95454659Y-77942222D01*
X95461263Y-77944678D01*
X95461265Y-77944679D01*
X95618058Y-78002990D01*
X95618060Y-78002990D01*
X95624668Y-78005448D01*
X95708495Y-78016633D01*
X95797480Y-78028507D01*
X95797484Y-78028507D01*
X95804461Y-78029438D01*
X95811472Y-78028800D01*
X95811476Y-78028800D01*
X95969464Y-78014421D01*
X95985100Y-78012998D01*
X95991802Y-78010820D01*
X95991804Y-78010820D01*
X96150909Y-77959124D01*
X96150912Y-77959123D01*
X96157608Y-77956947D01*
X96313412Y-77864069D01*
X96444766Y-77738982D01*
X96545143Y-77587902D01*
X96591110Y-77466895D01*
X96607055Y-77424920D01*
X96607056Y-77424918D01*
X96609555Y-77418338D01*
X96610535Y-77411366D01*
X96634248Y-77242639D01*
X96634248Y-77242636D01*
X96634799Y-77238717D01*
X96635116Y-77216000D01*
X96614897Y-77035745D01*
X96612580Y-77029091D01*
X96557564Y-76871106D01*
X96557562Y-76871103D01*
X96555245Y-76864448D01*
X96545162Y-76848312D01*
X96462859Y-76716598D01*
X96459126Y-76710624D01*
X96453421Y-76704879D01*
X96336278Y-76586915D01*
X96336274Y-76586912D01*
X96331315Y-76581918D01*
X96320197Y-76574862D01*
X96272038Y-76544300D01*
X96178166Y-76484727D01*
X96112662Y-76461402D01*
X96103381Y-76458097D01*
X102042001Y-76458097D01*
X102042338Y-76464616D01*
X102052257Y-76560208D01*
X102055149Y-76573602D01*
X102106588Y-76727785D01*
X102112762Y-76740964D01*
X102198063Y-76878810D01*
X102207099Y-76890209D01*
X102321828Y-77004738D01*
X102333239Y-77013750D01*
X102471241Y-77098816D01*
X102484422Y-77104963D01*
X102638708Y-77156138D01*
X102652084Y-77159005D01*
X102746436Y-77168672D01*
X102752852Y-77169000D01*
X102940385Y-77169000D01*
X102955624Y-77164525D01*
X102956829Y-77163135D01*
X102958500Y-77155452D01*
X102958500Y-77150884D01*
X103466500Y-77150884D01*
X103470975Y-77166123D01*
X103472365Y-77167328D01*
X103480048Y-77168999D01*
X103672097Y-77168999D01*
X103678616Y-77168662D01*
X103774208Y-77158743D01*
X103787602Y-77155851D01*
X103941785Y-77104412D01*
X103954964Y-77098238D01*
X104092810Y-77012937D01*
X104104209Y-77003901D01*
X104218738Y-76889172D01*
X104227750Y-76877761D01*
X104312816Y-76739759D01*
X104318963Y-76726578D01*
X104370138Y-76572292D01*
X104373005Y-76558916D01*
X104382672Y-76464564D01*
X104383000Y-76458148D01*
X104383000Y-75583115D01*
X104378525Y-75567876D01*
X104377135Y-75566671D01*
X104369452Y-75565000D01*
X103484615Y-75565000D01*
X103469376Y-75569475D01*
X103468171Y-75570865D01*
X103466500Y-75578548D01*
X103466500Y-77150884D01*
X102958500Y-77150884D01*
X102958500Y-75583115D01*
X102954025Y-75567876D01*
X102952635Y-75566671D01*
X102944952Y-75565000D01*
X102060116Y-75565000D01*
X102044877Y-75569475D01*
X102043672Y-75570865D01*
X102042001Y-75578548D01*
X102042001Y-76458097D01*
X96103381Y-76458097D01*
X96013925Y-76426243D01*
X96013920Y-76426242D01*
X96007290Y-76423881D01*
X96000302Y-76423048D01*
X96000299Y-76423047D01*
X95877198Y-76408368D01*
X95827180Y-76402404D01*
X95820177Y-76403140D01*
X95820176Y-76403140D01*
X95653788Y-76420628D01*
X95653786Y-76420629D01*
X95646788Y-76421364D01*
X95475079Y-76479818D01*
X95412609Y-76518250D01*
X95326595Y-76571166D01*
X95326592Y-76571168D01*
X95320588Y-76574862D01*
X95315553Y-76579793D01*
X95315550Y-76579795D01*
X95196025Y-76696843D01*
X95190993Y-76701771D01*
X95092735Y-76854238D01*
X95090326Y-76860858D01*
X95090324Y-76860861D01*
X95034677Y-77013750D01*
X95030697Y-77024685D01*
X95007963Y-77204640D01*
X88927521Y-77204640D01*
X89009830Y-77122618D01*
X89049096Y-77083489D01*
X89075925Y-77046153D01*
X89176435Y-76906277D01*
X89179453Y-76902077D01*
X89185319Y-76890209D01*
X89276136Y-76706453D01*
X89276137Y-76706451D01*
X89278430Y-76701811D01*
X89339894Y-76499510D01*
X89341865Y-76493023D01*
X89341865Y-76493021D01*
X89343370Y-76488069D01*
X89372529Y-76266590D01*
X89372611Y-76263240D01*
X89374074Y-76203365D01*
X89374074Y-76203361D01*
X89374156Y-76200000D01*
X89355852Y-75977361D01*
X89301431Y-75760702D01*
X89212354Y-75555840D01*
X89172466Y-75494182D01*
X89093822Y-75372617D01*
X89093820Y-75372614D01*
X89091014Y-75368277D01*
X88940670Y-75203051D01*
X88936619Y-75199852D01*
X88936615Y-75199848D01*
X88769414Y-75067800D01*
X88769410Y-75067798D01*
X88765359Y-75064598D01*
X88706855Y-75032302D01*
X88656885Y-74981870D01*
X88642113Y-74912428D01*
X88667229Y-74846022D01*
X88678654Y-74832899D01*
X88679449Y-74832104D01*
X88689089Y-74819678D01*
X88765648Y-74690221D01*
X88771893Y-74675790D01*
X88814269Y-74529935D01*
X88816570Y-74517333D01*
X88818807Y-74488916D01*
X88819000Y-74483986D01*
X88819000Y-73867115D01*
X88814525Y-73851876D01*
X88813135Y-73850671D01*
X88805452Y-73849000D01*
X87883000Y-73849000D01*
X87814879Y-73828998D01*
X87768386Y-73775342D01*
X87757000Y-73723000D01*
X87757000Y-73322885D01*
X88265000Y-73322885D01*
X88269475Y-73338124D01*
X88270865Y-73339329D01*
X88278548Y-73341000D01*
X88800884Y-73341000D01*
X88816123Y-73336525D01*
X88817328Y-73335135D01*
X88818999Y-73327452D01*
X88818999Y-73181766D01*
X100073000Y-73181766D01*
X100073337Y-73188282D01*
X100083075Y-73282132D01*
X100085968Y-73295528D01*
X100136488Y-73446953D01*
X100142653Y-73460115D01*
X100226426Y-73595492D01*
X100235460Y-73606890D01*
X100348129Y-73719363D01*
X100359540Y-73728375D01*
X100495063Y-73811912D01*
X100508241Y-73818056D01*
X100659766Y-73868315D01*
X100673132Y-73871181D01*
X100765770Y-73880672D01*
X100772185Y-73881000D01*
X100846385Y-73881000D01*
X100861624Y-73876525D01*
X100862829Y-73875135D01*
X100864500Y-73867452D01*
X100864500Y-73170115D01*
X100860025Y-73154876D01*
X100858635Y-73153671D01*
X100850952Y-73152000D01*
X100091115Y-73152000D01*
X100075876Y-73156475D01*
X100074671Y-73157865D01*
X100073000Y-73165548D01*
X100073000Y-73181766D01*
X88818999Y-73181766D01*
X88818999Y-72706017D01*
X88818805Y-72701080D01*
X88816570Y-72672664D01*
X88814270Y-72660069D01*
X88804338Y-72625885D01*
X100073000Y-72625885D01*
X100077475Y-72641124D01*
X100078865Y-72642329D01*
X100086548Y-72644000D01*
X100846385Y-72644000D01*
X100861624Y-72639525D01*
X100862829Y-72638135D01*
X100864500Y-72630452D01*
X100864500Y-71265115D01*
X100860025Y-71249876D01*
X100858635Y-71248671D01*
X100850952Y-71247000D01*
X100091115Y-71247000D01*
X100075876Y-71251475D01*
X100074671Y-71252865D01*
X100073000Y-71260548D01*
X100073000Y-71276766D01*
X100073337Y-71283282D01*
X100083075Y-71377132D01*
X100085968Y-71390528D01*
X100136488Y-71541953D01*
X100142653Y-71555115D01*
X100226426Y-71690492D01*
X100235460Y-71701890D01*
X100348129Y-71814363D01*
X100359540Y-71823375D01*
X100383740Y-71838292D01*
X100431233Y-71891064D01*
X100442657Y-71961136D01*
X100414383Y-72026260D01*
X100383927Y-72052696D01*
X100358510Y-72068424D01*
X100347110Y-72077460D01*
X100234637Y-72190129D01*
X100225625Y-72201540D01*
X100142088Y-72337063D01*
X100135944Y-72350241D01*
X100085685Y-72501766D01*
X100082819Y-72515132D01*
X100073328Y-72607770D01*
X100073000Y-72614185D01*
X100073000Y-72625885D01*
X88804338Y-72625885D01*
X88771893Y-72514210D01*
X88765648Y-72499779D01*
X88689089Y-72370322D01*
X88679449Y-72357896D01*
X88573104Y-72251551D01*
X88560678Y-72241911D01*
X88431221Y-72165352D01*
X88416790Y-72159107D01*
X88282395Y-72120061D01*
X88268294Y-72120101D01*
X88265000Y-72127370D01*
X88265000Y-73322885D01*
X87757000Y-73322885D01*
X87757000Y-72133122D01*
X87753027Y-72119591D01*
X87745129Y-72118456D01*
X87605210Y-72159107D01*
X87590779Y-72165352D01*
X87461324Y-72241910D01*
X87453636Y-72247874D01*
X87387551Y-72273821D01*
X87317928Y-72259920D01*
X87301842Y-72249582D01*
X87297807Y-72245547D01*
X87266421Y-72226985D01*
X87210594Y-72193969D01*
X87154601Y-72160855D01*
X87146990Y-72158644D01*
X87146988Y-72158643D01*
X87085068Y-72140654D01*
X86994831Y-72114438D01*
X86988426Y-72113934D01*
X86988421Y-72113933D01*
X86959958Y-72111693D01*
X86959950Y-72111693D01*
X86957502Y-72111500D01*
X86524498Y-72111500D01*
X86522050Y-72111693D01*
X86522042Y-72111693D01*
X86493579Y-72113933D01*
X86493574Y-72113934D01*
X86487169Y-72114438D01*
X86396932Y-72140654D01*
X86335012Y-72158643D01*
X86335010Y-72158644D01*
X86327399Y-72160855D01*
X86184193Y-72245547D01*
X86181511Y-72248229D01*
X86117139Y-72273502D01*
X86047516Y-72259600D01*
X86031688Y-72249428D01*
X86027807Y-72245547D01*
X85884601Y-72160855D01*
X85876990Y-72158644D01*
X85876988Y-72158643D01*
X85815068Y-72140654D01*
X85724831Y-72114438D01*
X85718426Y-72113934D01*
X85718421Y-72113933D01*
X85689958Y-72111693D01*
X85689950Y-72111693D01*
X85687502Y-72111500D01*
X85254498Y-72111500D01*
X85252050Y-72111693D01*
X85252042Y-72111693D01*
X85223579Y-72113933D01*
X85223574Y-72113934D01*
X85217169Y-72114438D01*
X85126932Y-72140654D01*
X85065012Y-72158643D01*
X85065010Y-72158644D01*
X85057399Y-72160855D01*
X84914193Y-72245547D01*
X84911511Y-72248229D01*
X84847139Y-72273502D01*
X84777516Y-72259600D01*
X84761688Y-72249428D01*
X84757807Y-72245547D01*
X84614601Y-72160855D01*
X84606990Y-72158644D01*
X84606988Y-72158643D01*
X84545068Y-72140654D01*
X84454831Y-72114438D01*
X84448426Y-72113934D01*
X84448421Y-72113933D01*
X84419958Y-72111693D01*
X84419950Y-72111693D01*
X84417502Y-72111500D01*
X83984498Y-72111500D01*
X83982050Y-72111693D01*
X83982042Y-72111693D01*
X83953579Y-72113933D01*
X83953574Y-72113934D01*
X83947169Y-72114438D01*
X83856932Y-72140654D01*
X83795012Y-72158643D01*
X83795010Y-72158644D01*
X83787399Y-72160855D01*
X83705100Y-72209526D01*
X83636286Y-72226985D01*
X83568954Y-72204468D01*
X83556758Y-72189290D01*
X83556486Y-72189604D01*
X83527135Y-72164171D01*
X83519452Y-72162500D01*
X81585115Y-72162500D01*
X81569876Y-72166975D01*
X81568671Y-72168365D01*
X81567000Y-72176048D01*
X81567000Y-72254766D01*
X81567337Y-72261282D01*
X81577075Y-72355132D01*
X81579968Y-72368528D01*
X81630488Y-72519953D01*
X81636653Y-72533115D01*
X81720426Y-72668492D01*
X81729464Y-72679894D01*
X81731139Y-72681567D01*
X81731919Y-72682993D01*
X81734007Y-72685627D01*
X81733556Y-72685984D01*
X81765219Y-72743849D01*
X81760216Y-72814669D01*
X81731299Y-72859754D01*
X81728476Y-72862583D01*
X81723071Y-72867997D01*
X81719231Y-72874227D01*
X81719230Y-72874228D01*
X81638040Y-73005943D01*
X81631791Y-73016080D01*
X81577026Y-73181191D01*
X81576326Y-73188027D01*
X81576325Y-73188030D01*
X81576299Y-73188282D01*
X81566500Y-73283928D01*
X81566500Y-73612000D01*
X81546498Y-73680121D01*
X81492842Y-73726614D01*
X81440500Y-73738000D01*
X80155115Y-73738000D01*
X80139876Y-73742475D01*
X80138671Y-73743865D01*
X80137000Y-73751548D01*
X80137000Y-75673885D01*
X79629000Y-75673885D01*
X79629000Y-73756116D01*
X79624525Y-73740877D01*
X79623135Y-73739672D01*
X79615452Y-73738001D01*
X78138331Y-73738001D01*
X78131510Y-73738371D01*
X78080648Y-73743895D01*
X78065396Y-73747521D01*
X77944946Y-73792676D01*
X77929351Y-73801214D01*
X77827276Y-73877715D01*
X77814715Y-73890276D01*
X77738214Y-73992351D01*
X77729676Y-74007946D01*
X77684522Y-74128394D01*
X77680895Y-74143649D01*
X77675369Y-74194514D01*
X77675000Y-74201328D01*
X77675000Y-75673885D01*
X77343500Y-75673885D01*
X77343500Y-70625966D01*
X77916257Y-70625966D01*
X77946565Y-70760446D01*
X77949645Y-70770275D01*
X78029770Y-70967603D01*
X78034413Y-70976794D01*
X78145694Y-71158388D01*
X78151777Y-71166699D01*
X78291213Y-71327667D01*
X78298580Y-71334883D01*
X78462434Y-71470916D01*
X78470881Y-71476831D01*
X78654756Y-71584279D01*
X78664042Y-71588729D01*
X78863001Y-71664703D01*
X78872899Y-71667579D01*
X78976250Y-71688606D01*
X78990299Y-71687410D01*
X78994000Y-71677065D01*
X78994000Y-71676517D01*
X79502000Y-71676517D01*
X79506064Y-71690359D01*
X79519478Y-71692393D01*
X79526184Y-71691534D01*
X79536262Y-71689392D01*
X79712943Y-71636385D01*
X81567000Y-71636385D01*
X81571475Y-71651624D01*
X81572865Y-71652829D01*
X81580548Y-71654500D01*
X82277885Y-71654500D01*
X82293124Y-71650025D01*
X82294329Y-71648635D01*
X82296000Y-71640952D01*
X82296000Y-71636385D01*
X82804000Y-71636385D01*
X82808475Y-71651624D01*
X82809865Y-71652829D01*
X82817548Y-71654500D01*
X83514885Y-71654500D01*
X83530124Y-71650025D01*
X83531329Y-71648635D01*
X83533000Y-71640952D01*
X83533000Y-71562234D01*
X83532663Y-71555718D01*
X83522925Y-71461868D01*
X83520032Y-71448472D01*
X83469512Y-71297047D01*
X83463347Y-71283885D01*
X83379574Y-71148508D01*
X83370540Y-71137110D01*
X83257871Y-71024637D01*
X83246460Y-71015625D01*
X83110937Y-70932088D01*
X83097759Y-70925944D01*
X82946234Y-70875685D01*
X82932868Y-70872819D01*
X82840230Y-70863328D01*
X82833815Y-70863000D01*
X82822115Y-70863000D01*
X82806876Y-70867475D01*
X82805671Y-70868865D01*
X82804000Y-70876548D01*
X82804000Y-71636385D01*
X82296000Y-71636385D01*
X82296000Y-70881115D01*
X82291525Y-70865876D01*
X82290135Y-70864671D01*
X82282452Y-70863000D01*
X82266234Y-70863000D01*
X82259718Y-70863337D01*
X82165868Y-70873075D01*
X82152472Y-70875968D01*
X82001047Y-70926488D01*
X81987885Y-70932653D01*
X81852508Y-71016426D01*
X81841110Y-71025460D01*
X81728637Y-71138129D01*
X81719625Y-71149540D01*
X81636088Y-71285063D01*
X81629944Y-71298241D01*
X81579685Y-71449766D01*
X81576819Y-71463132D01*
X81567328Y-71555770D01*
X81567000Y-71562185D01*
X81567000Y-71636385D01*
X79712943Y-71636385D01*
X79740255Y-71628191D01*
X79749842Y-71624433D01*
X79941095Y-71530739D01*
X79949945Y-71525464D01*
X80123328Y-71401792D01*
X80131200Y-71395139D01*
X80282052Y-71244812D01*
X80288730Y-71236965D01*
X80413003Y-71064020D01*
X80418313Y-71055183D01*
X80512670Y-70864267D01*
X80516469Y-70854672D01*
X80578377Y-70650910D01*
X80580555Y-70640837D01*
X80581986Y-70629962D01*
X80579775Y-70615778D01*
X80566617Y-70612000D01*
X79520115Y-70612000D01*
X79504876Y-70616475D01*
X79503671Y-70617865D01*
X79502000Y-70625548D01*
X79502000Y-71676517D01*
X78994000Y-71676517D01*
X78994000Y-70630115D01*
X78989525Y-70614876D01*
X78988135Y-70613671D01*
X78980452Y-70612000D01*
X77931225Y-70612000D01*
X77917694Y-70615973D01*
X77916257Y-70625966D01*
X77343500Y-70625966D01*
X77343500Y-51434500D01*
X77363502Y-51366379D01*
X77417158Y-51319886D01*
X77469500Y-51308500D01*
X122519367Y-51308500D01*
X122587488Y-51328502D01*
G37*
G04 #@! TD.AperFunction*
G04 #@! TA.AperFunction,Conductor*
G36*
X119204577Y-75092495D02*
G01*
X119261412Y-75135042D01*
X119286223Y-75201562D01*
X119283861Y-75230641D01*
X119284255Y-75230684D01*
X119277500Y-75292866D01*
X119277500Y-76404286D01*
X119257498Y-76472407D01*
X119203842Y-76518900D01*
X119133568Y-76529004D01*
X119068988Y-76499510D01*
X119062482Y-76493459D01*
X118997168Y-76428258D01*
X118985761Y-76419250D01*
X118847758Y-76334184D01*
X118834577Y-76328037D01*
X118680291Y-76276862D01*
X118666915Y-76273995D01*
X118572563Y-76264328D01*
X118566146Y-76264000D01*
X117366115Y-76264000D01*
X117350876Y-76268475D01*
X117349671Y-76269865D01*
X117348000Y-76277548D01*
X117348000Y-77600000D01*
X117327998Y-77668121D01*
X117274342Y-77714614D01*
X117222000Y-77726000D01*
X116966000Y-77726000D01*
X116897879Y-77705998D01*
X116851386Y-77652342D01*
X116840000Y-77600000D01*
X116840000Y-76282115D01*
X116835525Y-76266876D01*
X116834135Y-76265671D01*
X116826452Y-76264000D01*
X115621902Y-76264000D01*
X115615387Y-76264337D01*
X115519795Y-76274256D01*
X115506396Y-76277150D01*
X115352215Y-76328588D01*
X115339036Y-76334762D01*
X115201190Y-76420063D01*
X115189795Y-76429095D01*
X115172784Y-76446136D01*
X115110501Y-76480216D01*
X115039681Y-76475213D01*
X114994593Y-76446292D01*
X114969077Y-76420821D01*
X114942253Y-76404286D01*
X114829464Y-76334762D01*
X114818394Y-76327938D01*
X114716965Y-76294295D01*
X114656915Y-76274377D01*
X114656913Y-76274377D01*
X114650384Y-76272211D01*
X114545841Y-76261500D01*
X114297004Y-76261500D01*
X114228883Y-76241498D01*
X114182390Y-76187842D01*
X114172286Y-76117568D01*
X114201780Y-76052988D01*
X114207909Y-76046405D01*
X114555199Y-75699115D01*
X114617511Y-75665089D01*
X114644294Y-75662210D01*
X118189523Y-75662210D01*
X118200706Y-75662737D01*
X118208199Y-75664412D01*
X118216125Y-75664163D01*
X118216126Y-75664163D01*
X118276276Y-75662272D01*
X118280235Y-75662210D01*
X118308146Y-75662210D01*
X118312081Y-75661713D01*
X118312146Y-75661705D01*
X118323983Y-75660772D01*
X118356241Y-75659758D01*
X118360260Y-75659632D01*
X118368179Y-75659383D01*
X118387633Y-75653731D01*
X118406990Y-75649723D01*
X118419220Y-75648178D01*
X118419221Y-75648178D01*
X118427087Y-75647184D01*
X118434458Y-75644265D01*
X118434460Y-75644265D01*
X118468202Y-75630906D01*
X118479432Y-75627061D01*
X118514273Y-75616939D01*
X118514274Y-75616939D01*
X118521883Y-75614728D01*
X118528702Y-75610695D01*
X118528707Y-75610693D01*
X118539318Y-75604417D01*
X118557066Y-75595722D01*
X118575907Y-75588262D01*
X118582992Y-75583115D01*
X118611677Y-75562274D01*
X118621597Y-75555758D01*
X118652825Y-75537290D01*
X118652828Y-75537288D01*
X118659652Y-75533252D01*
X118673973Y-75518931D01*
X118689007Y-75506090D01*
X118698984Y-75498841D01*
X118705397Y-75494182D01*
X118733588Y-75460105D01*
X118741568Y-75451336D01*
X119071449Y-75121455D01*
X119133761Y-75087430D01*
X119204577Y-75092495D01*
G37*
G04 #@! TD.AperFunction*
G04 #@! TA.AperFunction,Conductor*
G36*
X93856121Y-63235501D02*
G01*
X93902614Y-63289157D01*
X93914000Y-63341499D01*
X93914000Y-64272521D01*
X93893998Y-64340642D01*
X93883224Y-64355034D01*
X93878171Y-64360865D01*
X93876500Y-64368548D01*
X93876500Y-65988885D01*
X93880975Y-66004124D01*
X93882365Y-66005329D01*
X93890048Y-66007000D01*
X93918766Y-66007000D01*
X93925282Y-66006663D01*
X94019132Y-65996925D01*
X94032528Y-65994032D01*
X94183953Y-65943512D01*
X94197115Y-65937347D01*
X94332493Y-65853573D01*
X94345814Y-65843015D01*
X94411624Y-65816377D01*
X94481389Y-65829548D01*
X94502173Y-65842879D01*
X94505811Y-65845752D01*
X94510997Y-65850929D01*
X94583489Y-65895614D01*
X94648790Y-65935866D01*
X94659080Y-65942209D01*
X94824191Y-65996974D01*
X94831027Y-65997674D01*
X94831030Y-65997675D01*
X94882526Y-66002951D01*
X94926928Y-66007500D01*
X95526072Y-66007500D01*
X95529318Y-66007163D01*
X95529322Y-66007163D01*
X95623235Y-65997419D01*
X95623239Y-65997418D01*
X95630093Y-65996707D01*
X95636629Y-65994526D01*
X95636631Y-65994526D01*
X95781190Y-65946297D01*
X95795107Y-65941654D01*
X95943031Y-65850116D01*
X95952235Y-65840896D01*
X96049747Y-65743214D01*
X96112030Y-65709135D01*
X96182850Y-65714138D01*
X96227937Y-65743059D01*
X96330812Y-65845754D01*
X96330817Y-65845758D01*
X96335997Y-65850929D01*
X96342227Y-65854769D01*
X96342228Y-65854770D01*
X96473790Y-65935866D01*
X96484080Y-65942209D01*
X96649191Y-65996974D01*
X96656027Y-65997674D01*
X96656030Y-65997675D01*
X96707526Y-66002951D01*
X96751928Y-66007500D01*
X97351072Y-66007500D01*
X97354318Y-66007163D01*
X97354322Y-66007163D01*
X97391571Y-66003298D01*
X97439507Y-65998324D01*
X97509327Y-66011189D01*
X97561109Y-66059759D01*
X97578510Y-66123651D01*
X97578510Y-66562411D01*
X97578218Y-66570981D01*
X97577483Y-66581768D01*
X97574340Y-66627862D01*
X97575645Y-66635338D01*
X97575645Y-66635342D01*
X97585173Y-66689934D01*
X97586136Y-66696459D01*
X97592131Y-66745993D01*
X97593701Y-66758970D01*
X97596385Y-66766072D01*
X97597229Y-66769510D01*
X97601093Y-66783633D01*
X97602123Y-66787044D01*
X97603429Y-66794527D01*
X97606482Y-66801482D01*
X97628749Y-66852208D01*
X97631240Y-66858314D01*
X97633767Y-66865000D01*
X97653504Y-66917232D01*
X97657803Y-66923487D01*
X97659445Y-66926628D01*
X97666543Y-66939382D01*
X97668380Y-66942488D01*
X97671433Y-66949443D01*
X97676058Y-66955470D01*
X97676060Y-66955474D01*
X97709775Y-66999412D01*
X97713639Y-67004730D01*
X97749331Y-67056662D01*
X97795207Y-67097536D01*
X97800465Y-67102500D01*
X98556369Y-67858405D01*
X98590394Y-67920717D01*
X98585329Y-67991533D01*
X98542782Y-68048368D01*
X98476262Y-68073179D01*
X98467273Y-68073500D01*
X90865595Y-68073500D01*
X90797474Y-68053498D01*
X90776500Y-68036595D01*
X90263500Y-67523595D01*
X90229474Y-67461283D01*
X90234539Y-67390468D01*
X90277086Y-67333632D01*
X90343606Y-67308821D01*
X90352595Y-67308500D01*
X91869233Y-67308500D01*
X91880416Y-67309027D01*
X91887909Y-67310702D01*
X91895835Y-67310453D01*
X91895836Y-67310453D01*
X91955986Y-67308562D01*
X91959945Y-67308500D01*
X91987856Y-67308500D01*
X91991791Y-67308003D01*
X91991856Y-67307995D01*
X92003693Y-67307062D01*
X92035951Y-67306048D01*
X92039970Y-67305922D01*
X92047889Y-67305673D01*
X92067343Y-67300021D01*
X92086700Y-67296013D01*
X92098930Y-67294468D01*
X92098931Y-67294468D01*
X92106797Y-67293474D01*
X92114168Y-67290555D01*
X92114170Y-67290555D01*
X92147912Y-67277196D01*
X92159142Y-67273351D01*
X92193983Y-67263229D01*
X92193984Y-67263229D01*
X92201593Y-67261018D01*
X92208412Y-67256985D01*
X92208417Y-67256983D01*
X92219028Y-67250707D01*
X92236776Y-67242012D01*
X92255617Y-67234552D01*
X92291387Y-67208564D01*
X92301307Y-67202048D01*
X92332535Y-67183580D01*
X92332538Y-67183578D01*
X92339362Y-67179542D01*
X92353683Y-67165221D01*
X92368717Y-67152380D01*
X92378694Y-67145131D01*
X92385107Y-67140472D01*
X92390158Y-67134367D01*
X92390163Y-67134362D01*
X92413299Y-67106396D01*
X92421287Y-67097618D01*
X93202243Y-66316662D01*
X93210529Y-66309122D01*
X93217008Y-66305010D01*
X93263634Y-66255358D01*
X93266388Y-66252517D01*
X93286125Y-66232780D01*
X93288605Y-66229583D01*
X93296310Y-66220561D01*
X93321149Y-66194110D01*
X93326576Y-66188331D01*
X93330395Y-66181385D01*
X93330397Y-66181382D01*
X93336338Y-66170576D01*
X93347189Y-66154057D01*
X93348565Y-66152283D01*
X93359604Y-66138051D01*
X93362749Y-66130782D01*
X93362752Y-66130778D01*
X93377164Y-66097473D01*
X93382381Y-66086823D01*
X93403685Y-66048070D01*
X93408723Y-66028447D01*
X93415127Y-66009744D01*
X93420023Y-65998430D01*
X93420023Y-65998429D01*
X93423171Y-65991155D01*
X93424410Y-65983332D01*
X93424413Y-65983322D01*
X93430089Y-65947486D01*
X93432495Y-65935866D01*
X93441518Y-65900721D01*
X93441518Y-65900720D01*
X93443490Y-65893040D01*
X93443490Y-65872786D01*
X93445041Y-65853075D01*
X93446970Y-65840896D01*
X93448210Y-65833067D01*
X93444049Y-65789048D01*
X93443490Y-65777191D01*
X93443490Y-63341499D01*
X93463492Y-63273378D01*
X93517148Y-63226885D01*
X93569490Y-63215499D01*
X93788000Y-63215499D01*
X93856121Y-63235501D01*
G37*
G04 #@! TD.AperFunction*
G04 #@! TA.AperFunction,Conductor*
G36*
X124869621Y-61725501D02*
G01*
X124916114Y-61779157D01*
X124927500Y-61831499D01*
X124927500Y-67715867D01*
X124907498Y-67783988D01*
X124853842Y-67830481D01*
X124783568Y-67840585D01*
X124718988Y-67811091D01*
X124712405Y-67804962D01*
X123831405Y-66923962D01*
X123797379Y-66861650D01*
X123794500Y-66834867D01*
X123794500Y-66148866D01*
X123787745Y-66086684D01*
X123736615Y-65950295D01*
X123649261Y-65833739D01*
X123532705Y-65746385D01*
X123396316Y-65695255D01*
X123334134Y-65688500D01*
X119737866Y-65688500D01*
X119675684Y-65695255D01*
X119539295Y-65746385D01*
X119422739Y-65833739D01*
X119335385Y-65950295D01*
X119284255Y-66086684D01*
X119277500Y-66148866D01*
X119277500Y-66625286D01*
X119257498Y-66693407D01*
X119203842Y-66739900D01*
X119133568Y-66750004D01*
X119068988Y-66720510D01*
X119062482Y-66714459D01*
X118997168Y-66649258D01*
X118985761Y-66640250D01*
X118847758Y-66555184D01*
X118834577Y-66549037D01*
X118680291Y-66497862D01*
X118666915Y-66494995D01*
X118572563Y-66485328D01*
X118566146Y-66485000D01*
X117366115Y-66485000D01*
X117350876Y-66489475D01*
X117349671Y-66490865D01*
X117348000Y-66498548D01*
X117348000Y-67821000D01*
X117327998Y-67889121D01*
X117274342Y-67935614D01*
X117222000Y-67947000D01*
X116966000Y-67947000D01*
X116897879Y-67926998D01*
X116851386Y-67873342D01*
X116840000Y-67821000D01*
X116840000Y-66503115D01*
X116835525Y-66487876D01*
X116834135Y-66486671D01*
X116826452Y-66485000D01*
X115830510Y-66485000D01*
X115762389Y-66464998D01*
X115715896Y-66411342D01*
X115704510Y-66359000D01*
X115704510Y-63043584D01*
X115724512Y-62975463D01*
X115741415Y-62954489D01*
X115857499Y-62838405D01*
X115919811Y-62804379D01*
X115946594Y-62801500D01*
X118411815Y-62801499D01*
X118569400Y-62801499D01*
X118675167Y-62790526D01*
X118709953Y-62778920D01*
X118836002Y-62736867D01*
X118836004Y-62736866D01*
X118842946Y-62734550D01*
X118993349Y-62641479D01*
X119062327Y-62572380D01*
X119124609Y-62538300D01*
X119195429Y-62543303D01*
X119252302Y-62585800D01*
X119277171Y-62652298D01*
X119277500Y-62661397D01*
X119277500Y-63665134D01*
X119284255Y-63727316D01*
X119335385Y-63863705D01*
X119422739Y-63980261D01*
X119539295Y-64067615D01*
X119675684Y-64118745D01*
X119731560Y-64124815D01*
X119733724Y-64125050D01*
X119737866Y-64125500D01*
X123334134Y-64125500D01*
X123338277Y-64125050D01*
X123340440Y-64124815D01*
X123396316Y-64118745D01*
X123532705Y-64067615D01*
X123649261Y-63980261D01*
X123736615Y-63863705D01*
X123787745Y-63727316D01*
X123794500Y-63665134D01*
X123794500Y-61831499D01*
X123814502Y-61763378D01*
X123868158Y-61716885D01*
X123920500Y-61705499D01*
X124801500Y-61705499D01*
X124869621Y-61725501D01*
G37*
G04 #@! TD.AperFunction*
G04 #@! TA.AperFunction,Conductor*
G36*
X85032121Y-59556502D02*
G01*
X85078614Y-59610158D01*
X85090000Y-59662500D01*
X85090000Y-60817885D01*
X85094475Y-60833124D01*
X85095865Y-60834329D01*
X85103548Y-60836000D01*
X85119766Y-60836000D01*
X85126282Y-60835663D01*
X85220132Y-60825925D01*
X85233528Y-60823032D01*
X85384953Y-60772512D01*
X85398115Y-60766347D01*
X85414892Y-60755965D01*
X85483344Y-60737127D01*
X85551114Y-60758288D01*
X85561884Y-60767120D01*
X85562739Y-60768261D01*
X85568963Y-60772926D01*
X85568972Y-60772933D01*
X85619094Y-60810497D01*
X85679295Y-60855615D01*
X85815684Y-60906745D01*
X85877866Y-60913500D01*
X86874134Y-60913500D01*
X86936316Y-60906745D01*
X87072705Y-60855615D01*
X87189261Y-60768261D01*
X87194643Y-60761080D01*
X87248713Y-60688935D01*
X87305573Y-60646420D01*
X87349539Y-60638500D01*
X88786304Y-60638500D01*
X88854425Y-60658502D01*
X88886133Y-60687622D01*
X88886731Y-60688398D01*
X88890380Y-60694424D01*
X88895273Y-60699491D01*
X88895274Y-60699492D01*
X88929225Y-60734649D01*
X89016382Y-60824902D01*
X89022276Y-60828759D01*
X89022565Y-60828998D01*
X89062303Y-60887831D01*
X89067594Y-60938925D01*
X89059500Y-61017928D01*
X89059500Y-61617072D01*
X89059837Y-61620318D01*
X89059837Y-61620322D01*
X89068708Y-61705815D01*
X89070293Y-61721093D01*
X89072474Y-61727629D01*
X89072474Y-61727631D01*
X89103227Y-61819809D01*
X89125346Y-61886107D01*
X89216884Y-62034031D01*
X89222066Y-62039204D01*
X89323786Y-62140747D01*
X89357865Y-62203030D01*
X89352862Y-62273850D01*
X89323942Y-62318937D01*
X89310707Y-62332195D01*
X89235226Y-62407809D01*
X89172944Y-62441888D01*
X89102124Y-62436885D01*
X89045251Y-62394389D01*
X89033047Y-62374519D01*
X88984163Y-62275392D01*
X88981608Y-62270211D01*
X88971347Y-62256469D01*
X88860416Y-62107915D01*
X88860415Y-62107914D01*
X88856963Y-62103291D01*
X88703987Y-61961881D01*
X88652175Y-61929190D01*
X88532683Y-61853796D01*
X88527803Y-61850717D01*
X88334311Y-61773522D01*
X88129991Y-61732880D01*
X88124216Y-61732804D01*
X88124212Y-61732804D01*
X88019901Y-61731439D01*
X87921686Y-61730153D01*
X87915989Y-61731132D01*
X87915988Y-61731132D01*
X87899257Y-61734007D01*
X87716372Y-61765433D01*
X87520925Y-61837537D01*
X87515964Y-61840489D01*
X87515963Y-61840489D01*
X87352743Y-61937595D01*
X87341891Y-61944051D01*
X87185266Y-62081407D01*
X87181699Y-62085932D01*
X87181694Y-62085937D01*
X87059872Y-62240468D01*
X87056294Y-62245007D01*
X87053603Y-62250123D01*
X87053601Y-62250125D01*
X86970640Y-62407808D01*
X86959296Y-62429370D01*
X86910724Y-62585800D01*
X86906138Y-62600568D01*
X86866835Y-62659693D01*
X86801805Y-62688184D01*
X86731696Y-62676994D01*
X86696787Y-62652377D01*
X86595871Y-62551637D01*
X86584460Y-62542625D01*
X86448937Y-62459088D01*
X86435759Y-62452944D01*
X86284234Y-62402685D01*
X86270868Y-62399819D01*
X86178230Y-62390328D01*
X86171815Y-62390000D01*
X86097615Y-62390000D01*
X86082376Y-62394475D01*
X86081171Y-62395865D01*
X86079500Y-62403548D01*
X86079500Y-66148885D01*
X86083975Y-66164124D01*
X86085365Y-66165329D01*
X86093048Y-66167000D01*
X86852885Y-66167000D01*
X86868124Y-66162525D01*
X86869329Y-66161135D01*
X86871000Y-66153452D01*
X86871000Y-66137234D01*
X86870663Y-66130718D01*
X86860924Y-66036864D01*
X86860027Y-66032710D01*
X86860220Y-66030073D01*
X86860213Y-66030010D01*
X86860224Y-66030009D01*
X86865197Y-65961902D01*
X86907829Y-65905130D01*
X86974386Y-65880419D01*
X87043738Y-65895614D01*
X87086084Y-65933391D01*
X87145387Y-66017303D01*
X87161203Y-66032710D01*
X87285769Y-66154057D01*
X87294609Y-66162669D01*
X87299405Y-66165874D01*
X87299408Y-66165876D01*
X87418896Y-66245715D01*
X87467823Y-66278407D01*
X87473131Y-66280688D01*
X87473132Y-66280688D01*
X87653926Y-66358363D01*
X87653929Y-66358364D01*
X87659229Y-66360641D01*
X87862415Y-66406617D01*
X87862351Y-66406898D01*
X87924633Y-66434453D01*
X87963723Y-66493719D01*
X87964565Y-66564711D01*
X87932352Y-66619743D01*
X87877509Y-66674586D01*
X87815196Y-66708611D01*
X87788414Y-66711490D01*
X86952314Y-66711490D01*
X86884193Y-66691488D01*
X86869802Y-66680715D01*
X86865135Y-66676671D01*
X86857452Y-66675000D01*
X85697500Y-66675000D01*
X85629379Y-66654998D01*
X85582886Y-66601342D01*
X85571500Y-66549000D01*
X85571500Y-62408115D01*
X85567025Y-62392876D01*
X85565635Y-62391671D01*
X85557952Y-62390000D01*
X85479234Y-62390000D01*
X85472718Y-62390337D01*
X85378868Y-62400075D01*
X85365472Y-62402968D01*
X85214047Y-62453488D01*
X85200885Y-62459653D01*
X85065508Y-62543426D01*
X85054106Y-62552464D01*
X85052433Y-62554139D01*
X85051007Y-62554919D01*
X85048373Y-62557007D01*
X85048016Y-62556556D01*
X84990151Y-62588219D01*
X84919331Y-62583216D01*
X84874246Y-62554299D01*
X84871185Y-62551244D01*
X84866003Y-62546071D01*
X84853396Y-62538300D01*
X84724150Y-62458631D01*
X84724148Y-62458630D01*
X84717920Y-62454791D01*
X84552809Y-62400026D01*
X84545973Y-62399326D01*
X84545970Y-62399325D01*
X84494474Y-62394049D01*
X84450072Y-62389500D01*
X84032345Y-62389500D01*
X83964224Y-62369498D01*
X83917731Y-62315842D01*
X83907627Y-62245568D01*
X83912512Y-62224563D01*
X83922900Y-62192595D01*
X83932855Y-62161956D01*
X83933546Y-62155386D01*
X83934275Y-62148456D01*
X83937876Y-62129023D01*
X83939679Y-62122293D01*
X83941388Y-62115915D01*
X83941808Y-62107915D01*
X83944889Y-62049120D01*
X83945406Y-62042546D01*
X83947156Y-62025893D01*
X83947500Y-62022620D01*
X83947500Y-62002586D01*
X83947673Y-61995992D01*
X83950829Y-61935782D01*
X83950829Y-61935777D01*
X83951174Y-61929190D01*
X83949051Y-61915785D01*
X83947500Y-61896075D01*
X83947500Y-60871272D01*
X83967502Y-60803151D01*
X83975580Y-60791977D01*
X83986543Y-60778439D01*
X83990828Y-60773423D01*
X84025741Y-60734649D01*
X84086187Y-60697410D01*
X84157171Y-60698762D01*
X84185491Y-60711700D01*
X84275059Y-60766910D01*
X84288241Y-60773056D01*
X84439766Y-60823315D01*
X84453132Y-60826181D01*
X84545770Y-60835672D01*
X84552185Y-60836000D01*
X84563885Y-60836000D01*
X84579124Y-60831525D01*
X84580329Y-60830135D01*
X84582000Y-60822452D01*
X84582000Y-59662500D01*
X84602002Y-59594379D01*
X84655658Y-59547886D01*
X84708000Y-59536500D01*
X84964000Y-59536500D01*
X85032121Y-59556502D01*
G37*
G04 #@! TD.AperFunction*
G04 #@! TA.AperFunction,Conductor*
G36*
X116495025Y-53843002D02*
G01*
X116541518Y-53896658D01*
X116551622Y-53966932D01*
X116522128Y-54031512D01*
X116515999Y-54038095D01*
X116389752Y-54164342D01*
X116381472Y-54171877D01*
X116374992Y-54175990D01*
X116328367Y-54225641D01*
X116325612Y-54228483D01*
X116305875Y-54248220D01*
X116303395Y-54251417D01*
X116295692Y-54260437D01*
X116265424Y-54292669D01*
X116261605Y-54299615D01*
X116261603Y-54299618D01*
X116255662Y-54310424D01*
X116244811Y-54326943D01*
X116232396Y-54342949D01*
X116229251Y-54350218D01*
X116229248Y-54350222D01*
X116214836Y-54383527D01*
X116209619Y-54394177D01*
X116188315Y-54432930D01*
X116186344Y-54440605D01*
X116186344Y-54440606D01*
X116183277Y-54452552D01*
X116176873Y-54471256D01*
X116176552Y-54471999D01*
X116168829Y-54489845D01*
X116167590Y-54497668D01*
X116167587Y-54497678D01*
X116161911Y-54533514D01*
X116159505Y-54545134D01*
X116156214Y-54557952D01*
X116148510Y-54587960D01*
X116148510Y-54608214D01*
X116146959Y-54627924D01*
X116143790Y-54647933D01*
X116144536Y-54655825D01*
X116147951Y-54691951D01*
X116148510Y-54703809D01*
X116148510Y-58671395D01*
X116128508Y-58739516D01*
X116111605Y-58760491D01*
X115725499Y-59146596D01*
X115663187Y-59180621D01*
X115636404Y-59183500D01*
X113243357Y-59183500D01*
X113232174Y-59182973D01*
X113224681Y-59181298D01*
X113216755Y-59181547D01*
X113216754Y-59181547D01*
X113156604Y-59183438D01*
X113152645Y-59183500D01*
X113124734Y-59183500D01*
X113120800Y-59183997D01*
X113120799Y-59183997D01*
X113120734Y-59184005D01*
X113108897Y-59184938D01*
X113077080Y-59185938D01*
X113072619Y-59186078D01*
X113064700Y-59186327D01*
X113047044Y-59191456D01*
X113045248Y-59191978D01*
X113025896Y-59195986D01*
X113018825Y-59196880D01*
X113005793Y-59198526D01*
X112998424Y-59201443D01*
X112998422Y-59201444D01*
X112964687Y-59214800D01*
X112953459Y-59218645D01*
X112910997Y-59230982D01*
X112904174Y-59235017D01*
X112904172Y-59235018D01*
X112893562Y-59241293D01*
X112875814Y-59249988D01*
X112856973Y-59257448D01*
X112850557Y-59262110D01*
X112850556Y-59262110D01*
X112821203Y-59283436D01*
X112811283Y-59289952D01*
X112780055Y-59308420D01*
X112780052Y-59308422D01*
X112773228Y-59312458D01*
X112758907Y-59326779D01*
X112743874Y-59339619D01*
X112727483Y-59351528D01*
X112710961Y-59371500D01*
X112699292Y-59385605D01*
X112691302Y-59394384D01*
X108139246Y-63946439D01*
X108130960Y-63953979D01*
X108124481Y-63958091D01*
X108119056Y-63963868D01*
X108077856Y-64007742D01*
X108075101Y-64010584D01*
X108055364Y-64030321D01*
X108052884Y-64033518D01*
X108045181Y-64042538D01*
X108014913Y-64074770D01*
X108011094Y-64081716D01*
X108011092Y-64081719D01*
X108005151Y-64092525D01*
X107994300Y-64109044D01*
X107981885Y-64125050D01*
X107978740Y-64132319D01*
X107978737Y-64132323D01*
X107964325Y-64165628D01*
X107959108Y-64176278D01*
X107937804Y-64215031D01*
X107935833Y-64222706D01*
X107935833Y-64222707D01*
X107932766Y-64234653D01*
X107926362Y-64253357D01*
X107918318Y-64271946D01*
X107917079Y-64279769D01*
X107917076Y-64279779D01*
X107911400Y-64315615D01*
X107908994Y-64327235D01*
X107905183Y-64342080D01*
X107897999Y-64370061D01*
X107897999Y-64390315D01*
X107896448Y-64410025D01*
X107893279Y-64430034D01*
X107894025Y-64437926D01*
X107897440Y-64474052D01*
X107897999Y-64485910D01*
X107897999Y-65661500D01*
X107877997Y-65729621D01*
X107824341Y-65776114D01*
X107771999Y-65787500D01*
X107760265Y-65787500D01*
X107740554Y-65785949D01*
X107728375Y-65784020D01*
X107720546Y-65782780D01*
X107712654Y-65783526D01*
X107676528Y-65786941D01*
X107664670Y-65787500D01*
X106335530Y-65787500D01*
X106267409Y-65767498D01*
X106220916Y-65713842D01*
X106210756Y-65643964D01*
X106214880Y-65614625D01*
X106220591Y-65573984D01*
X106222748Y-65558639D01*
X106222748Y-65558636D01*
X106223299Y-65554717D01*
X106223616Y-65532000D01*
X106203397Y-65351745D01*
X106178843Y-65281235D01*
X106146064Y-65187106D01*
X106146062Y-65187103D01*
X106143745Y-65180448D01*
X106047626Y-65026624D01*
X106050010Y-65025134D01*
X106028145Y-64971090D01*
X106041327Y-64901328D01*
X106048582Y-64888929D01*
X106049935Y-64886893D01*
X106133643Y-64760902D01*
X106181777Y-64634191D01*
X106195555Y-64597920D01*
X106195556Y-64597918D01*
X106198055Y-64591338D01*
X106200678Y-64572677D01*
X106222748Y-64415639D01*
X106222748Y-64415636D01*
X106223299Y-64411717D01*
X106223616Y-64389000D01*
X106203397Y-64208745D01*
X106201080Y-64202091D01*
X106146064Y-64044106D01*
X106146062Y-64044103D01*
X106143745Y-64037448D01*
X106112477Y-63987409D01*
X106093343Y-63919042D01*
X106112073Y-63854526D01*
X106197369Y-63716150D01*
X106197370Y-63716148D01*
X106201209Y-63709920D01*
X106255974Y-63544809D01*
X106257221Y-63532644D01*
X106264859Y-63458085D01*
X106266500Y-63442072D01*
X106266500Y-62742928D01*
X106266131Y-62739368D01*
X106256419Y-62645765D01*
X106256418Y-62645761D01*
X106255707Y-62638907D01*
X106243604Y-62602628D01*
X106202972Y-62480841D01*
X106200654Y-62473893D01*
X106154510Y-62399325D01*
X106112969Y-62332195D01*
X106112968Y-62332194D01*
X106109116Y-62325969D01*
X106102212Y-62319077D01*
X106101411Y-62317613D01*
X106099389Y-62315062D01*
X106099826Y-62314716D01*
X106068134Y-62256796D01*
X106073137Y-62185976D01*
X106102056Y-62140890D01*
X106104757Y-62138184D01*
X106109929Y-62133003D01*
X106138941Y-62085937D01*
X106197369Y-61991150D01*
X106197370Y-61991148D01*
X106201209Y-61984920D01*
X106255974Y-61819809D01*
X106257079Y-61809029D01*
X106261951Y-61761474D01*
X106266500Y-61717072D01*
X106266500Y-61695500D01*
X107671496Y-61695500D01*
X107672186Y-61702065D01*
X107689077Y-61862771D01*
X107691458Y-61885428D01*
X107750473Y-62067056D01*
X107753776Y-62072778D01*
X107753777Y-62072779D01*
X107761374Y-62085937D01*
X107845960Y-62232444D01*
X107850378Y-62237351D01*
X107850379Y-62237352D01*
X107923966Y-62319079D01*
X107973747Y-62374366D01*
X108066683Y-62441888D01*
X108120297Y-62480841D01*
X108128248Y-62486618D01*
X108134276Y-62489302D01*
X108134278Y-62489303D01*
X108281655Y-62554919D01*
X108302712Y-62564294D01*
X108391733Y-62583216D01*
X108483056Y-62602628D01*
X108483061Y-62602628D01*
X108489513Y-62604000D01*
X108680487Y-62604000D01*
X108686939Y-62602628D01*
X108686944Y-62602628D01*
X108778267Y-62583216D01*
X108867288Y-62564294D01*
X108888345Y-62554919D01*
X109035722Y-62489303D01*
X109035724Y-62489302D01*
X109041752Y-62486618D01*
X109049704Y-62480841D01*
X109103317Y-62441888D01*
X109196253Y-62374366D01*
X109246034Y-62319079D01*
X109319621Y-62237352D01*
X109319622Y-62237351D01*
X109324040Y-62232444D01*
X109408626Y-62085937D01*
X109416223Y-62072779D01*
X109416224Y-62072778D01*
X109419527Y-62067056D01*
X109478542Y-61885428D01*
X109480924Y-61862771D01*
X109497814Y-61702065D01*
X109498504Y-61695500D01*
X109485297Y-61569845D01*
X109479232Y-61512135D01*
X109479232Y-61512133D01*
X109478542Y-61505572D01*
X109419527Y-61323944D01*
X109324040Y-61158556D01*
X109278970Y-61108500D01*
X109200675Y-61021545D01*
X109200674Y-61021544D01*
X109196253Y-61016634D01*
X109041752Y-60904382D01*
X109035724Y-60901698D01*
X109035722Y-60901697D01*
X108873319Y-60829391D01*
X108873318Y-60829391D01*
X108867288Y-60826706D01*
X108773888Y-60806853D01*
X108686944Y-60788372D01*
X108686939Y-60788372D01*
X108680487Y-60787000D01*
X108489513Y-60787000D01*
X108483061Y-60788372D01*
X108483056Y-60788372D01*
X108396112Y-60806853D01*
X108302712Y-60826706D01*
X108296682Y-60829391D01*
X108296681Y-60829391D01*
X108134278Y-60901697D01*
X108134276Y-60901698D01*
X108128248Y-60904382D01*
X107973747Y-61016634D01*
X107969326Y-61021544D01*
X107969325Y-61021545D01*
X107891031Y-61108500D01*
X107845960Y-61158556D01*
X107750473Y-61323944D01*
X107691458Y-61505572D01*
X107690768Y-61512133D01*
X107690768Y-61512135D01*
X107684703Y-61569845D01*
X107671496Y-61695500D01*
X106266500Y-61695500D01*
X106266500Y-61017928D01*
X106255707Y-60913907D01*
X106251634Y-60901697D01*
X106202972Y-60755841D01*
X106200654Y-60748893D01*
X106109116Y-60600969D01*
X106103934Y-60595796D01*
X105991184Y-60483242D01*
X105991179Y-60483238D01*
X105986003Y-60478071D01*
X105950822Y-60456385D01*
X105844150Y-60390631D01*
X105844148Y-60390630D01*
X105837920Y-60386791D01*
X105672809Y-60332026D01*
X105665973Y-60331326D01*
X105665970Y-60331325D01*
X105614474Y-60326049D01*
X105570072Y-60321500D01*
X104995928Y-60321500D01*
X104992682Y-60321837D01*
X104992678Y-60321837D01*
X104898765Y-60331581D01*
X104898761Y-60331582D01*
X104891907Y-60332293D01*
X104885371Y-60334474D01*
X104885369Y-60334474D01*
X104804078Y-60361595D01*
X104726893Y-60387346D01*
X104578969Y-60478884D01*
X104573796Y-60484066D01*
X104461242Y-60596816D01*
X104461238Y-60596821D01*
X104456071Y-60601997D01*
X104393583Y-60703372D01*
X104374922Y-60733645D01*
X104322150Y-60781138D01*
X104252078Y-60792562D01*
X104186954Y-60764288D01*
X104178567Y-60756624D01*
X103732405Y-60310462D01*
X103698379Y-60248150D01*
X103695500Y-60221367D01*
X103695500Y-58145748D01*
X103715502Y-58077627D01*
X103769158Y-58031134D01*
X103839432Y-58021030D01*
X103865729Y-58027766D01*
X103890282Y-58036971D01*
X103890288Y-58036973D01*
X103897684Y-58039745D01*
X103959866Y-58046500D01*
X107556134Y-58046500D01*
X107618316Y-58039745D01*
X107754705Y-57988615D01*
X107871261Y-57901261D01*
X107958615Y-57784705D01*
X108009745Y-57648316D01*
X108016500Y-57586134D01*
X108016500Y-57582669D01*
X108900001Y-57582669D01*
X108900371Y-57589490D01*
X108905895Y-57640352D01*
X108909521Y-57655604D01*
X108954676Y-57776054D01*
X108963214Y-57791649D01*
X109039715Y-57893724D01*
X109052276Y-57906285D01*
X109154351Y-57982786D01*
X109169946Y-57991324D01*
X109290394Y-58036478D01*
X109305649Y-58040105D01*
X109356514Y-58045631D01*
X109363328Y-58046000D01*
X110885885Y-58046000D01*
X110901124Y-58041525D01*
X110902329Y-58040135D01*
X110904000Y-58032452D01*
X110904000Y-58027884D01*
X111412000Y-58027884D01*
X111416475Y-58043123D01*
X111417865Y-58044328D01*
X111425548Y-58045999D01*
X112952669Y-58045999D01*
X112959490Y-58045629D01*
X113010352Y-58040105D01*
X113025604Y-58036479D01*
X113146054Y-57991324D01*
X113161649Y-57982786D01*
X113263724Y-57906285D01*
X113276285Y-57893724D01*
X113352786Y-57791649D01*
X113361324Y-57776054D01*
X113406478Y-57655606D01*
X113410105Y-57640351D01*
X113415631Y-57589486D01*
X113416000Y-57582672D01*
X113416000Y-56660115D01*
X113411525Y-56644876D01*
X113410135Y-56643671D01*
X113402452Y-56642000D01*
X111430115Y-56642000D01*
X111414876Y-56646475D01*
X111413671Y-56647865D01*
X111412000Y-56655548D01*
X111412000Y-58027884D01*
X110904000Y-58027884D01*
X110904000Y-56660115D01*
X110899525Y-56644876D01*
X110898135Y-56643671D01*
X110890452Y-56642000D01*
X108918116Y-56642000D01*
X108902877Y-56646475D01*
X108901672Y-56647865D01*
X108900001Y-56655548D01*
X108900001Y-57582669D01*
X108016500Y-57582669D01*
X108016500Y-56115885D01*
X108900000Y-56115885D01*
X108904475Y-56131124D01*
X108905865Y-56132329D01*
X108913548Y-56134000D01*
X110885885Y-56134000D01*
X110901124Y-56129525D01*
X110902329Y-56128135D01*
X110904000Y-56120452D01*
X110904000Y-56115885D01*
X111412000Y-56115885D01*
X111416475Y-56131124D01*
X111417865Y-56132329D01*
X111425548Y-56134000D01*
X113397884Y-56134000D01*
X113413123Y-56129525D01*
X113414328Y-56128135D01*
X113415999Y-56120452D01*
X113415999Y-55193331D01*
X113415629Y-55186510D01*
X113410105Y-55135648D01*
X113406479Y-55120396D01*
X113361324Y-54999946D01*
X113352786Y-54984351D01*
X113276285Y-54882276D01*
X113263724Y-54869715D01*
X113161649Y-54793214D01*
X113146054Y-54784676D01*
X113025606Y-54739522D01*
X113010351Y-54735895D01*
X112959486Y-54730369D01*
X112952672Y-54730000D01*
X111430115Y-54730000D01*
X111414876Y-54734475D01*
X111413671Y-54735865D01*
X111412000Y-54743548D01*
X111412000Y-56115885D01*
X110904000Y-56115885D01*
X110904000Y-54748116D01*
X110899525Y-54732877D01*
X110898135Y-54731672D01*
X110890452Y-54730001D01*
X109363331Y-54730001D01*
X109356510Y-54730371D01*
X109305648Y-54735895D01*
X109290396Y-54739521D01*
X109169946Y-54784676D01*
X109154351Y-54793214D01*
X109052276Y-54869715D01*
X109039715Y-54882276D01*
X108963214Y-54984351D01*
X108954676Y-54999946D01*
X108909522Y-55120394D01*
X108905895Y-55135649D01*
X108900369Y-55186514D01*
X108900000Y-55193328D01*
X108900000Y-56115885D01*
X108016500Y-56115885D01*
X108016500Y-55189866D01*
X108009745Y-55127684D01*
X107958615Y-54991295D01*
X107871261Y-54874739D01*
X107754705Y-54787385D01*
X107618316Y-54736255D01*
X107556134Y-54729500D01*
X103959866Y-54729500D01*
X103897684Y-54736255D01*
X103776761Y-54781587D01*
X103705955Y-54786770D01*
X103643586Y-54752849D01*
X103614705Y-54708246D01*
X103528868Y-54481682D01*
X103528867Y-54481679D01*
X103527250Y-54477412D01*
X103396286Y-54241632D01*
X103232657Y-54027227D01*
X103233941Y-54026247D01*
X103206714Y-53968208D01*
X103216097Y-53897834D01*
X103262038Y-53843705D01*
X103331241Y-53823000D01*
X116426904Y-53823000D01*
X116495025Y-53843002D01*
G37*
G04 #@! TD.AperFunction*
G04 #@! TA.AperFunction,Conductor*
G36*
X134562121Y-61830502D02*
G01*
X134608614Y-61884158D01*
X134620000Y-61936500D01*
X134620000Y-63216884D01*
X134624475Y-63232123D01*
X134625865Y-63233328D01*
X134633548Y-63234999D01*
X135513097Y-63234999D01*
X135519616Y-63234662D01*
X135615208Y-63224743D01*
X135628602Y-63221851D01*
X135782785Y-63170412D01*
X135795964Y-63164238D01*
X135933810Y-63078937D01*
X135945205Y-63069905D01*
X136006327Y-63008676D01*
X136068609Y-62974597D01*
X136139429Y-62979600D01*
X136196302Y-63022097D01*
X136221171Y-63088595D01*
X136221500Y-63097694D01*
X136221500Y-64155582D01*
X136201498Y-64223703D01*
X136147842Y-64270196D01*
X136077568Y-64280300D01*
X136012988Y-64250806D01*
X136006482Y-64244755D01*
X135944484Y-64182865D01*
X135939304Y-64177694D01*
X135928574Y-64171080D01*
X135794970Y-64088725D01*
X135794968Y-64088724D01*
X135788740Y-64084885D01*
X135697385Y-64054584D01*
X135627391Y-64031368D01*
X135627389Y-64031368D01*
X135620863Y-64029203D01*
X135614027Y-64028503D01*
X135614024Y-64028502D01*
X135570971Y-64024091D01*
X135516402Y-64018500D01*
X134883927Y-64018500D01*
X134836931Y-64009407D01*
X134836342Y-64009170D01*
X134734699Y-63968310D01*
X134512618Y-63922319D01*
X134508007Y-63922053D01*
X134508006Y-63922053D01*
X134456879Y-63919105D01*
X134456875Y-63919105D01*
X134455056Y-63919000D01*
X133070500Y-63919000D01*
X133002379Y-63898998D01*
X132955886Y-63845342D01*
X132944500Y-63793000D01*
X132944500Y-63343541D01*
X132964502Y-63275420D01*
X133018158Y-63228927D01*
X133088432Y-63218823D01*
X133097907Y-63221059D01*
X133097985Y-63220697D01*
X133118078Y-63225005D01*
X133212436Y-63234672D01*
X133218852Y-63235000D01*
X134093885Y-63235000D01*
X134109124Y-63230525D01*
X134110329Y-63229135D01*
X134112000Y-63221452D01*
X134112000Y-61936500D01*
X134132002Y-61868379D01*
X134185658Y-61821886D01*
X134238000Y-61810500D01*
X134494000Y-61810500D01*
X134562121Y-61830502D01*
G37*
G04 #@! TD.AperFunction*
G04 #@! TA.AperFunction,Conductor*
G36*
X90687407Y-56840986D02*
G01*
X90741195Y-56887326D01*
X90754916Y-56915872D01*
X90776346Y-56980107D01*
X90867884Y-57128031D01*
X90873066Y-57133204D01*
X90985816Y-57245758D01*
X90985821Y-57245762D01*
X90990997Y-57250929D01*
X90997227Y-57254769D01*
X90997228Y-57254770D01*
X91107436Y-57322703D01*
X91139080Y-57342209D01*
X91304191Y-57396974D01*
X91311027Y-57397674D01*
X91311030Y-57397675D01*
X91362526Y-57402951D01*
X91406928Y-57407500D01*
X91981072Y-57407500D01*
X91984318Y-57407163D01*
X91984322Y-57407163D01*
X92078235Y-57397419D01*
X92078239Y-57397418D01*
X92085093Y-57396707D01*
X92091630Y-57394526D01*
X92091635Y-57394525D01*
X92151625Y-57374511D01*
X92222574Y-57371927D01*
X92283658Y-57408111D01*
X92315482Y-57471575D01*
X92317500Y-57494035D01*
X92317500Y-58413402D01*
X92328474Y-58519168D01*
X92384450Y-58686947D01*
X92477521Y-58837349D01*
X92602696Y-58962306D01*
X92608926Y-58966146D01*
X92608927Y-58966147D01*
X92738812Y-59046209D01*
X92753260Y-59055115D01*
X92833003Y-59081564D01*
X92914609Y-59108632D01*
X92914611Y-59108632D01*
X92921137Y-59110797D01*
X92927973Y-59111497D01*
X92927976Y-59111498D01*
X92971029Y-59115909D01*
X93025598Y-59121500D01*
X94426402Y-59121500D01*
X94429648Y-59121163D01*
X94429652Y-59121163D01*
X94525308Y-59111238D01*
X94525310Y-59111238D01*
X94532168Y-59110526D01*
X94532277Y-59111577D01*
X94596703Y-59116278D01*
X94653477Y-59158907D01*
X94678192Y-59225463D01*
X94678500Y-59234270D01*
X94678500Y-60597500D01*
X94658498Y-60665621D01*
X94604842Y-60712114D01*
X94552500Y-60723500D01*
X93668433Y-60723500D01*
X93600312Y-60703498D01*
X93561000Y-60661322D01*
X93560615Y-60660295D01*
X93473261Y-60543739D01*
X93356705Y-60456385D01*
X93220316Y-60405255D01*
X93158134Y-60398500D01*
X92699595Y-60398500D01*
X92631474Y-60378498D01*
X92610500Y-60361595D01*
X92181652Y-59932747D01*
X92174112Y-59924461D01*
X92170000Y-59917982D01*
X92120348Y-59871356D01*
X92117507Y-59868602D01*
X92097770Y-59848865D01*
X92094573Y-59846385D01*
X92085551Y-59838680D01*
X92053321Y-59808414D01*
X92046375Y-59804595D01*
X92046372Y-59804593D01*
X92035566Y-59798652D01*
X92019047Y-59787801D01*
X92012299Y-59782567D01*
X92003041Y-59775386D01*
X91995772Y-59772241D01*
X91995768Y-59772238D01*
X91962463Y-59757826D01*
X91951813Y-59752609D01*
X91913060Y-59731305D01*
X91893437Y-59726267D01*
X91874734Y-59719863D01*
X91863420Y-59714967D01*
X91863419Y-59714967D01*
X91856145Y-59711819D01*
X91848322Y-59710580D01*
X91848312Y-59710577D01*
X91812476Y-59704901D01*
X91800856Y-59702495D01*
X91765711Y-59693472D01*
X91765710Y-59693472D01*
X91758030Y-59691500D01*
X91737776Y-59691500D01*
X91718065Y-59689949D01*
X91705886Y-59688020D01*
X91698057Y-59686780D01*
X91690165Y-59687526D01*
X91654039Y-59690941D01*
X91642181Y-59691500D01*
X91352338Y-59691500D01*
X91284824Y-59671885D01*
X91187557Y-59610158D01*
X91161666Y-59593727D01*
X91091986Y-59568915D01*
X90997425Y-59535243D01*
X90997420Y-59535242D01*
X90990790Y-59532881D01*
X90983802Y-59532048D01*
X90983799Y-59532047D01*
X90860698Y-59517368D01*
X90810680Y-59511404D01*
X90803677Y-59512140D01*
X90803676Y-59512140D01*
X90637288Y-59529628D01*
X90637286Y-59529629D01*
X90630288Y-59530364D01*
X90458579Y-59588818D01*
X90304088Y-59683862D01*
X90302721Y-59681641D01*
X90247863Y-59703394D01*
X90178194Y-59689729D01*
X90146892Y-59666710D01*
X90049778Y-59568915D01*
X90049774Y-59568912D01*
X90044815Y-59563918D01*
X90033130Y-59556502D01*
X89963380Y-59512238D01*
X89891666Y-59466727D01*
X89862463Y-59456328D01*
X89727425Y-59408243D01*
X89727420Y-59408242D01*
X89720790Y-59405881D01*
X89713802Y-59405048D01*
X89713799Y-59405047D01*
X89576363Y-59388659D01*
X89540680Y-59384404D01*
X89533677Y-59385140D01*
X89533676Y-59385140D01*
X89524895Y-59386063D01*
X89516694Y-59386925D01*
X89483809Y-59386063D01*
X89476474Y-59384901D01*
X89464856Y-59382495D01*
X89429712Y-59373472D01*
X89429709Y-59373472D01*
X89423380Y-59371847D01*
X89422031Y-59371500D01*
X89422106Y-59371209D01*
X89361231Y-59344660D01*
X89353192Y-59332383D01*
X89328135Y-59310671D01*
X89320452Y-59309000D01*
X87436116Y-59309000D01*
X87410669Y-59316472D01*
X87368115Y-59343819D01*
X87297118Y-59343819D01*
X87237393Y-59305434D01*
X87231792Y-59298488D01*
X87225395Y-59289952D01*
X87189261Y-59241739D01*
X87156237Y-59216989D01*
X87074628Y-59155826D01*
X87032113Y-59098967D01*
X87027087Y-59028148D01*
X87061147Y-58965855D01*
X87074628Y-58954174D01*
X87182080Y-58873643D01*
X87182081Y-58873642D01*
X87189261Y-58868261D01*
X87231834Y-58811456D01*
X87288693Y-58768941D01*
X87359512Y-58763915D01*
X87415173Y-58791797D01*
X87423865Y-58799329D01*
X87431548Y-58801000D01*
X89315884Y-58801000D01*
X89331123Y-58796525D01*
X89332328Y-58795135D01*
X89333999Y-58787452D01*
X89333999Y-58610331D01*
X89333629Y-58603510D01*
X89328105Y-58552648D01*
X89324479Y-58537396D01*
X89279324Y-58416946D01*
X89270786Y-58401351D01*
X89194285Y-58299276D01*
X89181724Y-58286715D01*
X89079649Y-58210214D01*
X89064054Y-58201676D01*
X88943606Y-58156522D01*
X88928351Y-58152895D01*
X88877486Y-58147369D01*
X88870672Y-58147000D01*
X88621118Y-58147000D01*
X88552997Y-58126998D01*
X88506504Y-58073342D01*
X88496400Y-58003068D01*
X88525894Y-57938488D01*
X88553663Y-57915315D01*
X88555321Y-57914587D01*
X88561341Y-57909968D01*
X88561349Y-57909963D01*
X88605290Y-57876245D01*
X88610608Y-57872381D01*
X88662540Y-57836689D01*
X88703414Y-57790813D01*
X88708378Y-57785555D01*
X89119258Y-57374676D01*
X89181570Y-57340651D01*
X89252386Y-57345716D01*
X89272493Y-57355319D01*
X89302573Y-57373108D01*
X89309399Y-57377145D01*
X89317010Y-57379356D01*
X89317012Y-57379357D01*
X89369222Y-57394525D01*
X89469169Y-57423562D01*
X89475574Y-57424066D01*
X89475579Y-57424067D01*
X89504042Y-57426307D01*
X89504050Y-57426307D01*
X89506498Y-57426500D01*
X89939502Y-57426500D01*
X89941950Y-57426307D01*
X89941958Y-57426307D01*
X89970421Y-57424067D01*
X89970426Y-57424066D01*
X89976831Y-57423562D01*
X90076778Y-57394525D01*
X90128988Y-57379357D01*
X90128990Y-57379356D01*
X90136601Y-57377145D01*
X90173507Y-57355319D01*
X90272980Y-57296491D01*
X90272983Y-57296489D01*
X90279807Y-57292453D01*
X90397453Y-57174807D01*
X90401489Y-57167983D01*
X90401491Y-57167980D01*
X90478108Y-57038427D01*
X90482145Y-57031601D01*
X90495295Y-56986338D01*
X90514395Y-56920596D01*
X90552608Y-56860761D01*
X90617104Y-56831083D01*
X90687407Y-56840986D01*
G37*
G04 #@! TD.AperFunction*
G04 #@! TA.AperFunction,Conductor*
G36*
X134435121Y-53067502D02*
G01*
X134481614Y-53121158D01*
X134493000Y-53173500D01*
X134493000Y-54453884D01*
X134497475Y-54469123D01*
X134498865Y-54470328D01*
X134506548Y-54471999D01*
X135386097Y-54471999D01*
X135392616Y-54471662D01*
X135488208Y-54461743D01*
X135501602Y-54458851D01*
X135655785Y-54407412D01*
X135668964Y-54401238D01*
X135806810Y-54315937D01*
X135818209Y-54306901D01*
X135932738Y-54192172D01*
X135941750Y-54180761D01*
X135988240Y-54105341D01*
X136041012Y-54057848D01*
X136111084Y-54046424D01*
X136176208Y-54074698D01*
X136215707Y-54133692D01*
X136221500Y-54171457D01*
X136221500Y-55555563D01*
X136201498Y-55623684D01*
X136147842Y-55670177D01*
X136077568Y-55680281D01*
X136012988Y-55650787D01*
X135988356Y-55621866D01*
X135941333Y-55545877D01*
X135941327Y-55545870D01*
X135937479Y-55539651D01*
X135812304Y-55414694D01*
X135733308Y-55366000D01*
X135667970Y-55325725D01*
X135667968Y-55325724D01*
X135661740Y-55321885D01*
X135581997Y-55295436D01*
X135500391Y-55268368D01*
X135500389Y-55268368D01*
X135493863Y-55266203D01*
X135487027Y-55265503D01*
X135487024Y-55265502D01*
X135443971Y-55261091D01*
X135389402Y-55255500D01*
X134756927Y-55255500D01*
X134709931Y-55246407D01*
X134663409Y-55227705D01*
X134607699Y-55205310D01*
X134385618Y-55159319D01*
X134381007Y-55159053D01*
X134381006Y-55159053D01*
X134329879Y-55156105D01*
X134329875Y-55156105D01*
X134328056Y-55156000D01*
X132943500Y-55156000D01*
X132875379Y-55135998D01*
X132828886Y-55082342D01*
X132817500Y-55030000D01*
X132817500Y-54580541D01*
X132837502Y-54512420D01*
X132891158Y-54465927D01*
X132961432Y-54455823D01*
X132970907Y-54458059D01*
X132970985Y-54457697D01*
X132991078Y-54462005D01*
X133085436Y-54471672D01*
X133091852Y-54472000D01*
X133966885Y-54472000D01*
X133982124Y-54467525D01*
X133983329Y-54466135D01*
X133985000Y-54458452D01*
X133985000Y-53173500D01*
X134005002Y-53105379D01*
X134058658Y-53058886D01*
X134111000Y-53047500D01*
X134367000Y-53047500D01*
X134435121Y-53067502D01*
G37*
G04 #@! TD.AperFunction*
M02*
