M48
; DRILL file {KiCad 5.1.10-1.fc32} date Mon Aug  9 17:38:08 2021
; FORMAT={-:-/ absolute / metric / decimal}
; #@! TF.CreationDate,2021-08-09T17:38:08+02:00
; #@! TF.GenerationSoftware,Kicad,Pcbnew,5.1.10-1.fc32
; #@! TF.FileFunction,Plated,1,4,PTH
FMAT,2
METRIC
T1C0.300
T2C0.400
T3C1.000
T4C2.000
%
G90
G05
T1
X190.881Y-92.075
X191.389Y-101.092
X192.786Y-103.378
X193.066Y-102.362
X194.945Y-113.892
X195.453Y-99.885
X195.453Y-100.711
X196.469Y-104.902
X196.469Y-105.791
X196.469Y-106.553
X196.596Y-108.966
X197.866Y-108.966
X198.22Y-106.68
X199.136Y-108.966
X200.406Y-105.537
X200.406Y-108.966
X201.549Y-104.013
X201.676Y-107.696
X201.676Y-108.585
X201.93Y-100.457
X203.2Y-100.584
X203.962Y-92.075
X204.496Y-112.522
X206.502Y-98.361
X206.565Y-106.997
X206.629Y-100.838
X207.772Y-119.888
X208.216Y-117.475
X211.709Y-92.075
X211.836Y-96.266
X212.979Y-105.029
X212.979Y-106.68
X212.979Y-107.823
X212.979Y-108.966
X212.979Y-110.236
X213.487Y-114.427
X215.265Y-111.252
X215.265Y-113.157
X215.646Y-115.189
X215.646Y-115.951
X217.17Y-102.87
X217.17Y-103.759
X217.678Y-101.6
X217.805Y-104.648
X217.805Y-105.791
X217.805Y-106.68
X217.805Y-107.696
X217.805Y-110.236
X218.821Y-115.189
X218.821Y-116.078
X221.501Y-110.858
X221.551Y-108.394
X221.742Y-114.046
X221.742Y-115.062
X222.123Y-119.888
X222.885Y-115.57
X223.71Y-106.426
X225.18Y-108.975
X226.441Y-111.76
X226.441Y-117.602
X227.719Y-96.766
X228.6Y-101.854
X228.6Y-107.95
X228.727Y-111.76
X228.727Y-117.602
X229.235Y-104.775
X229.489Y-92.075
X230.251Y-101.854
X230.251Y-107.95
X230.251Y-111.76
X230.251Y-117.602
X234.061Y-109.728
X235.458Y-105.156
X239.268Y-109.728
X245.833Y-96.685
X245.833Y-105.448
X245.872Y-93.535
X246.087Y-113.703
X246.126Y-102.489
X246.634Y-96.685
X246.761Y-105.448
X246.976Y-113.703
X247.332Y-93.535
X247.459Y-102.489
X250.825Y-92.075
X251.333Y-119.888
X252.857Y-99.695
X252.857Y-108.331
T2
X194.437Y-99.06
X194.437Y-99.949
X200.218Y-93.533
X201.168Y-94.678
X209.232Y-111.379
X211.899Y-94.488
X220.98Y-101.954
T3
X191.643Y-105.537
X191.643Y-108.077
X191.643Y-110.617
X197.866Y-116.459
X200.406Y-116.459
T4
X192.278Y-95.885
X192.278Y-116.205
X250.825Y-95.631
X250.825Y-104.267
X250.825Y-112.649
T0
M30
