G04 #@! TF.GenerationSoftware,KiCad,Pcbnew,5.1.10-1.fc32*
G04 #@! TF.CreationDate,2021-08-09T17:43:32+02:00*
G04 #@! TF.ProjectId,esc_brushless,6573635f-6272-4757-9368-6c6573732e6b,rev?*
G04 #@! TF.SameCoordinates,Original*
G04 #@! TF.FileFunction,Soldermask,Bot*
G04 #@! TF.FilePolarity,Negative*
%FSLAX46Y46*%
G04 Gerber Fmt 4.6, Leading zero omitted, Abs format (unit mm)*
G04 Created by KiCad (PCBNEW 5.1.10-1.fc32) date 2021-08-09 17:43:32*
%MOMM*%
%LPD*%
G01*
G04 APERTURE LIST*
%ADD10R,3.500000X2.300000*%
%ADD11R,3.400000X3.400000*%
%ADD12R,1.700000X1.700000*%
%ADD13O,1.700000X1.700000*%
%ADD14O,2.700000X8.000000*%
%ADD15R,7.000000X7.000000*%
%ADD16R,3.500000X2.000000*%
%ADD17R,0.800000X0.900000*%
%ADD18R,0.900000X0.800000*%
%ADD19O,1.250000X1.250000*%
G04 APERTURE END LIST*
G36*
G01*
X224425500Y-103502000D02*
X224900500Y-103502000D01*
G75*
G02*
X225138000Y-103739500I0J-237500D01*
G01*
X225138000Y-104339500D01*
G75*
G02*
X224900500Y-104577000I-237500J0D01*
G01*
X224425500Y-104577000D01*
G75*
G02*
X224188000Y-104339500I0J237500D01*
G01*
X224188000Y-103739500D01*
G75*
G02*
X224425500Y-103502000I237500J0D01*
G01*
G37*
G36*
G01*
X224425500Y-105227000D02*
X224900500Y-105227000D01*
G75*
G02*
X225138000Y-105464500I0J-237500D01*
G01*
X225138000Y-106064500D01*
G75*
G02*
X224900500Y-106302000I-237500J0D01*
G01*
X224425500Y-106302000D01*
G75*
G02*
X224188000Y-106064500I0J237500D01*
G01*
X224188000Y-105464500D01*
G75*
G02*
X224425500Y-105227000I237500J0D01*
G01*
G37*
G36*
G01*
X248115002Y-111241000D02*
X245914998Y-111241000D01*
G75*
G02*
X245665000Y-110991002I0J249998D01*
G01*
X245665000Y-110165998D01*
G75*
G02*
X245914998Y-109916000I249998J0D01*
G01*
X248115002Y-109916000D01*
G75*
G02*
X248365000Y-110165998I0J-249998D01*
G01*
X248365000Y-110991002D01*
G75*
G02*
X248115002Y-111241000I-249998J0D01*
G01*
G37*
G36*
G01*
X248115002Y-114366000D02*
X245914998Y-114366000D01*
G75*
G02*
X245665000Y-114116002I0J249998D01*
G01*
X245665000Y-113290998D01*
G75*
G02*
X245914998Y-113041000I249998J0D01*
G01*
X248115002Y-113041000D01*
G75*
G02*
X248365000Y-113290998I0J-249998D01*
G01*
X248365000Y-114116002D01*
G75*
G02*
X248115002Y-114366000I-249998J0D01*
G01*
G37*
G36*
G01*
X247861002Y-106111000D02*
X245660998Y-106111000D01*
G75*
G02*
X245411000Y-105861002I0J249998D01*
G01*
X245411000Y-105035998D01*
G75*
G02*
X245660998Y-104786000I249998J0D01*
G01*
X247861002Y-104786000D01*
G75*
G02*
X248111000Y-105035998I0J-249998D01*
G01*
X248111000Y-105861002D01*
G75*
G02*
X247861002Y-106111000I-249998J0D01*
G01*
G37*
G36*
G01*
X247861002Y-102986000D02*
X245660998Y-102986000D01*
G75*
G02*
X245411000Y-102736002I0J249998D01*
G01*
X245411000Y-101910998D01*
G75*
G02*
X245660998Y-101661000I249998J0D01*
G01*
X247861002Y-101661000D01*
G75*
G02*
X248111000Y-101910998I0J-249998D01*
G01*
X248111000Y-102736002D01*
G75*
G02*
X247861002Y-102986000I-249998J0D01*
G01*
G37*
G36*
G01*
X247734002Y-94223000D02*
X245533998Y-94223000D01*
G75*
G02*
X245284000Y-93973002I0J249998D01*
G01*
X245284000Y-93147998D01*
G75*
G02*
X245533998Y-92898000I249998J0D01*
G01*
X247734002Y-92898000D01*
G75*
G02*
X247984000Y-93147998I0J-249998D01*
G01*
X247984000Y-93973002D01*
G75*
G02*
X247734002Y-94223000I-249998J0D01*
G01*
G37*
G36*
G01*
X247734002Y-97348000D02*
X245533998Y-97348000D01*
G75*
G02*
X245284000Y-97098002I0J249998D01*
G01*
X245284000Y-96272998D01*
G75*
G02*
X245533998Y-96023000I249998J0D01*
G01*
X247734002Y-96023000D01*
G75*
G02*
X247984000Y-96272998I0J-249998D01*
G01*
X247984000Y-97098002D01*
G75*
G02*
X247734002Y-97348000I-249998J0D01*
G01*
G37*
G36*
G01*
X219395000Y-114469998D02*
X219395000Y-116670002D01*
G75*
G02*
X219145002Y-116920000I-249998J0D01*
G01*
X218319998Y-116920000D01*
G75*
G02*
X218070000Y-116670002I0J249998D01*
G01*
X218070000Y-114469998D01*
G75*
G02*
X218319998Y-114220000I249998J0D01*
G01*
X219145002Y-114220000D01*
G75*
G02*
X219395000Y-114469998I0J-249998D01*
G01*
G37*
G36*
G01*
X216270000Y-114469998D02*
X216270000Y-116670002D01*
G75*
G02*
X216020002Y-116920000I-249998J0D01*
G01*
X215194998Y-116920000D01*
G75*
G02*
X214945000Y-116670002I0J249998D01*
G01*
X214945000Y-114469998D01*
G75*
G02*
X215194998Y-114220000I249998J0D01*
G01*
X216020002Y-114220000D01*
G75*
G02*
X216270000Y-114469998I0J-249998D01*
G01*
G37*
G36*
G01*
X215776000Y-111014500D02*
X215776000Y-111489500D01*
G75*
G02*
X215538500Y-111727000I-237500J0D01*
G01*
X214938500Y-111727000D01*
G75*
G02*
X214701000Y-111489500I0J237500D01*
G01*
X214701000Y-111014500D01*
G75*
G02*
X214938500Y-110777000I237500J0D01*
G01*
X215538500Y-110777000D01*
G75*
G02*
X215776000Y-111014500I0J-237500D01*
G01*
G37*
G36*
G01*
X214051000Y-111014500D02*
X214051000Y-111489500D01*
G75*
G02*
X213813500Y-111727000I-237500J0D01*
G01*
X213213500Y-111727000D01*
G75*
G02*
X212976000Y-111489500I0J237500D01*
G01*
X212976000Y-111014500D01*
G75*
G02*
X213213500Y-110777000I237500J0D01*
G01*
X213813500Y-110777000D01*
G75*
G02*
X214051000Y-111014500I0J-237500D01*
G01*
G37*
G36*
G01*
X215776000Y-112919500D02*
X215776000Y-113394500D01*
G75*
G02*
X215538500Y-113632000I-237500J0D01*
G01*
X214938500Y-113632000D01*
G75*
G02*
X214701000Y-113394500I0J237500D01*
G01*
X214701000Y-112919500D01*
G75*
G02*
X214938500Y-112682000I237500J0D01*
G01*
X215538500Y-112682000D01*
G75*
G02*
X215776000Y-112919500I0J-237500D01*
G01*
G37*
G36*
G01*
X214051000Y-112919500D02*
X214051000Y-113394500D01*
G75*
G02*
X213813500Y-113632000I-237500J0D01*
G01*
X213213500Y-113632000D01*
G75*
G02*
X212976000Y-113394500I0J237500D01*
G01*
X212976000Y-112919500D01*
G75*
G02*
X213213500Y-112682000I237500J0D01*
G01*
X213813500Y-112682000D01*
G75*
G02*
X214051000Y-112919500I0J-237500D01*
G01*
G37*
G36*
G01*
X217915500Y-103889000D02*
X217440500Y-103889000D01*
G75*
G02*
X217203000Y-103651500I0J237500D01*
G01*
X217203000Y-103051500D01*
G75*
G02*
X217440500Y-102814000I237500J0D01*
G01*
X217915500Y-102814000D01*
G75*
G02*
X218153000Y-103051500I0J-237500D01*
G01*
X218153000Y-103651500D01*
G75*
G02*
X217915500Y-103889000I-237500J0D01*
G01*
G37*
G36*
G01*
X217915500Y-102164000D02*
X217440500Y-102164000D01*
G75*
G02*
X217203000Y-101926500I0J237500D01*
G01*
X217203000Y-101326500D01*
G75*
G02*
X217440500Y-101089000I237500J0D01*
G01*
X217915500Y-101089000D01*
G75*
G02*
X218153000Y-101326500I0J-237500D01*
G01*
X218153000Y-101926500D01*
G75*
G02*
X217915500Y-102164000I-237500J0D01*
G01*
G37*
G36*
G01*
X212741500Y-106243000D02*
X213216500Y-106243000D01*
G75*
G02*
X213454000Y-106480500I0J-237500D01*
G01*
X213454000Y-107080500D01*
G75*
G02*
X213216500Y-107318000I-237500J0D01*
G01*
X212741500Y-107318000D01*
G75*
G02*
X212504000Y-107080500I0J237500D01*
G01*
X212504000Y-106480500D01*
G75*
G02*
X212741500Y-106243000I237500J0D01*
G01*
G37*
G36*
G01*
X212741500Y-104518000D02*
X213216500Y-104518000D01*
G75*
G02*
X213454000Y-104755500I0J-237500D01*
G01*
X213454000Y-105355500D01*
G75*
G02*
X213216500Y-105593000I-237500J0D01*
G01*
X212741500Y-105593000D01*
G75*
G02*
X212504000Y-105355500I0J237500D01*
G01*
X212504000Y-104755500D01*
G75*
G02*
X212741500Y-104518000I237500J0D01*
G01*
G37*
G36*
G01*
X206771002Y-98872000D02*
X205470998Y-98872000D01*
G75*
G02*
X205221000Y-98622002I0J249998D01*
G01*
X205221000Y-97796998D01*
G75*
G02*
X205470998Y-97547000I249998J0D01*
G01*
X206771002Y-97547000D01*
G75*
G02*
X207021000Y-97796998I0J-249998D01*
G01*
X207021000Y-98622002D01*
G75*
G02*
X206771002Y-98872000I-249998J0D01*
G01*
G37*
G36*
G01*
X206771002Y-95747000D02*
X205470998Y-95747000D01*
G75*
G02*
X205221000Y-95497002I0J249998D01*
G01*
X205221000Y-94671998D01*
G75*
G02*
X205470998Y-94422000I249998J0D01*
G01*
X206771002Y-94422000D01*
G75*
G02*
X207021000Y-94671998I0J-249998D01*
G01*
X207021000Y-95497002D01*
G75*
G02*
X206771002Y-95747000I-249998J0D01*
G01*
G37*
G36*
G01*
X197683000Y-103869500D02*
X197683000Y-103394500D01*
G75*
G02*
X197920500Y-103157000I237500J0D01*
G01*
X198520500Y-103157000D01*
G75*
G02*
X198758000Y-103394500I0J-237500D01*
G01*
X198758000Y-103869500D01*
G75*
G02*
X198520500Y-104107000I-237500J0D01*
G01*
X197920500Y-104107000D01*
G75*
G02*
X197683000Y-103869500I0J237500D01*
G01*
G37*
G36*
G01*
X195958000Y-103869500D02*
X195958000Y-103394500D01*
G75*
G02*
X196195500Y-103157000I237500J0D01*
G01*
X196795500Y-103157000D01*
G75*
G02*
X197033000Y-103394500I0J-237500D01*
G01*
X197033000Y-103869500D01*
G75*
G02*
X196795500Y-104107000I-237500J0D01*
G01*
X196195500Y-104107000D01*
G75*
G02*
X195958000Y-103869500I0J237500D01*
G01*
G37*
G36*
G01*
X195958000Y-106917500D02*
X195958000Y-106442500D01*
G75*
G02*
X196195500Y-106205000I237500J0D01*
G01*
X196795500Y-106205000D01*
G75*
G02*
X197033000Y-106442500I0J-237500D01*
G01*
X197033000Y-106917500D01*
G75*
G02*
X196795500Y-107155000I-237500J0D01*
G01*
X196195500Y-107155000D01*
G75*
G02*
X195958000Y-106917500I0J237500D01*
G01*
G37*
G36*
G01*
X197683000Y-106917500D02*
X197683000Y-106442500D01*
G75*
G02*
X197920500Y-106205000I237500J0D01*
G01*
X198520500Y-106205000D01*
G75*
G02*
X198758000Y-106442500I0J-237500D01*
G01*
X198758000Y-106917500D01*
G75*
G02*
X198520500Y-107155000I-237500J0D01*
G01*
X197920500Y-107155000D01*
G75*
G02*
X197683000Y-106917500I0J237500D01*
G01*
G37*
G36*
G01*
X197683000Y-105393500D02*
X197683000Y-104918500D01*
G75*
G02*
X197920500Y-104681000I237500J0D01*
G01*
X198520500Y-104681000D01*
G75*
G02*
X198758000Y-104918500I0J-237500D01*
G01*
X198758000Y-105393500D01*
G75*
G02*
X198520500Y-105631000I-237500J0D01*
G01*
X197920500Y-105631000D01*
G75*
G02*
X197683000Y-105393500I0J237500D01*
G01*
G37*
G36*
G01*
X195958000Y-105393500D02*
X195958000Y-104918500D01*
G75*
G02*
X196195500Y-104681000I237500J0D01*
G01*
X196795500Y-104681000D01*
G75*
G02*
X197033000Y-104918500I0J-237500D01*
G01*
X197033000Y-105393500D01*
G75*
G02*
X196795500Y-105631000I-237500J0D01*
G01*
X196195500Y-105631000D01*
G75*
G02*
X195958000Y-105393500I0J237500D01*
G01*
G37*
G36*
G01*
X196993500Y-99512000D02*
X197468500Y-99512000D01*
G75*
G02*
X197706000Y-99749500I0J-237500D01*
G01*
X197706000Y-100349500D01*
G75*
G02*
X197468500Y-100587000I-237500J0D01*
G01*
X196993500Y-100587000D01*
G75*
G02*
X196756000Y-100349500I0J237500D01*
G01*
X196756000Y-99749500D01*
G75*
G02*
X196993500Y-99512000I237500J0D01*
G01*
G37*
G36*
G01*
X196993500Y-97787000D02*
X197468500Y-97787000D01*
G75*
G02*
X197706000Y-98024500I0J-237500D01*
G01*
X197706000Y-98624500D01*
G75*
G02*
X197468500Y-98862000I-237500J0D01*
G01*
X196993500Y-98862000D01*
G75*
G02*
X196756000Y-98624500I0J237500D01*
G01*
X196756000Y-98024500D01*
G75*
G02*
X196993500Y-97787000I237500J0D01*
G01*
G37*
G36*
G01*
X204326500Y-95433000D02*
X203851500Y-95433000D01*
G75*
G02*
X203614000Y-95195500I0J237500D01*
G01*
X203614000Y-94595500D01*
G75*
G02*
X203851500Y-94358000I237500J0D01*
G01*
X204326500Y-94358000D01*
G75*
G02*
X204564000Y-94595500I0J-237500D01*
G01*
X204564000Y-95195500D01*
G75*
G02*
X204326500Y-95433000I-237500J0D01*
G01*
G37*
G36*
G01*
X204326500Y-97158000D02*
X203851500Y-97158000D01*
G75*
G02*
X203614000Y-96920500I0J237500D01*
G01*
X203614000Y-96320500D01*
G75*
G02*
X203851500Y-96083000I237500J0D01*
G01*
X204326500Y-96083000D01*
G75*
G02*
X204564000Y-96320500I0J-237500D01*
G01*
X204564000Y-96920500D01*
G75*
G02*
X204326500Y-97158000I-237500J0D01*
G01*
G37*
G36*
G01*
X198865500Y-97158000D02*
X198390500Y-97158000D01*
G75*
G02*
X198153000Y-96920500I0J237500D01*
G01*
X198153000Y-96320500D01*
G75*
G02*
X198390500Y-96083000I237500J0D01*
G01*
X198865500Y-96083000D01*
G75*
G02*
X199103000Y-96320500I0J-237500D01*
G01*
X199103000Y-96920500D01*
G75*
G02*
X198865500Y-97158000I-237500J0D01*
G01*
G37*
G36*
G01*
X198865500Y-95433000D02*
X198390500Y-95433000D01*
G75*
G02*
X198153000Y-95195500I0J237500D01*
G01*
X198153000Y-94595500D01*
G75*
G02*
X198390500Y-94358000I237500J0D01*
G01*
X198865500Y-94358000D01*
G75*
G02*
X199103000Y-94595500I0J-237500D01*
G01*
X199103000Y-95195500D01*
G75*
G02*
X198865500Y-95433000I-237500J0D01*
G01*
G37*
G36*
G01*
X195182500Y-112705000D02*
X194707500Y-112705000D01*
G75*
G02*
X194470000Y-112467500I0J237500D01*
G01*
X194470000Y-111867500D01*
G75*
G02*
X194707500Y-111630000I237500J0D01*
G01*
X195182500Y-111630000D01*
G75*
G02*
X195420000Y-111867500I0J-237500D01*
G01*
X195420000Y-112467500D01*
G75*
G02*
X195182500Y-112705000I-237500J0D01*
G01*
G37*
G36*
G01*
X195182500Y-114430000D02*
X194707500Y-114430000D01*
G75*
G02*
X194470000Y-114192500I0J237500D01*
G01*
X194470000Y-113592500D01*
G75*
G02*
X194707500Y-113355000I237500J0D01*
G01*
X195182500Y-113355000D01*
G75*
G02*
X195420000Y-113592500I0J-237500D01*
G01*
X195420000Y-114192500D01*
G75*
G02*
X195182500Y-114430000I-237500J0D01*
G01*
G37*
D10*
X218153000Y-96647000D03*
X223553000Y-96647000D03*
D11*
X192278000Y-95885000D03*
X192278000Y-116205000D03*
D12*
X191643000Y-105537000D03*
D13*
X191643000Y-108077000D03*
X191643000Y-110617000D03*
D12*
X197866000Y-116459000D03*
D13*
X200406000Y-116459000D03*
D11*
X250825000Y-112649000D03*
X250825000Y-104267000D03*
X250825000Y-95631000D03*
D14*
X214232000Y-98171000D03*
X208932000Y-98171000D03*
D15*
X241331000Y-114300000D03*
D16*
X233931000Y-112020000D03*
X233931000Y-116600000D03*
X233931000Y-107456000D03*
X233931000Y-102876000D03*
D15*
X241331000Y-105156000D03*
D16*
X233804000Y-98820000D03*
X233804000Y-94240000D03*
D15*
X241204000Y-96520000D03*
D17*
X206055000Y-103616000D03*
X204155000Y-103616000D03*
X205105000Y-101616000D03*
D18*
X200771000Y-99314000D03*
X198771000Y-98364000D03*
X198771000Y-100264000D03*
G36*
G01*
X231143000Y-109490500D02*
X231143000Y-109965500D01*
G75*
G02*
X230905500Y-110203000I-237500J0D01*
G01*
X230405500Y-110203000D01*
G75*
G02*
X230168000Y-109965500I0J237500D01*
G01*
X230168000Y-109490500D01*
G75*
G02*
X230405500Y-109253000I237500J0D01*
G01*
X230905500Y-109253000D01*
G75*
G02*
X231143000Y-109490500I0J-237500D01*
G01*
G37*
G36*
G01*
X229318000Y-109490500D02*
X229318000Y-109965500D01*
G75*
G02*
X229080500Y-110203000I-237500J0D01*
G01*
X228580500Y-110203000D01*
G75*
G02*
X228343000Y-109965500I0J237500D01*
G01*
X228343000Y-109490500D01*
G75*
G02*
X228580500Y-109253000I237500J0D01*
G01*
X229080500Y-109253000D01*
G75*
G02*
X229318000Y-109490500I0J-237500D01*
G01*
G37*
G36*
G01*
X233597000Y-109965500D02*
X233597000Y-109490500D01*
G75*
G02*
X233834500Y-109253000I237500J0D01*
G01*
X234334500Y-109253000D01*
G75*
G02*
X234572000Y-109490500I0J-237500D01*
G01*
X234572000Y-109965500D01*
G75*
G02*
X234334500Y-110203000I-237500J0D01*
G01*
X233834500Y-110203000D01*
G75*
G02*
X233597000Y-109965500I0J237500D01*
G01*
G37*
G36*
G01*
X231772000Y-109965500D02*
X231772000Y-109490500D01*
G75*
G02*
X232009500Y-109253000I237500J0D01*
G01*
X232509500Y-109253000D01*
G75*
G02*
X232747000Y-109490500I0J-237500D01*
G01*
X232747000Y-109965500D01*
G75*
G02*
X232509500Y-110203000I-237500J0D01*
G01*
X232009500Y-110203000D01*
G75*
G02*
X231772000Y-109965500I0J237500D01*
G01*
G37*
G36*
G01*
X234572000Y-118634500D02*
X234572000Y-119109500D01*
G75*
G02*
X234334500Y-119347000I-237500J0D01*
G01*
X233834500Y-119347000D01*
G75*
G02*
X233597000Y-119109500I0J237500D01*
G01*
X233597000Y-118634500D01*
G75*
G02*
X233834500Y-118397000I237500J0D01*
G01*
X234334500Y-118397000D01*
G75*
G02*
X234572000Y-118634500I0J-237500D01*
G01*
G37*
G36*
G01*
X232747000Y-118634500D02*
X232747000Y-119109500D01*
G75*
G02*
X232509500Y-119347000I-237500J0D01*
G01*
X232009500Y-119347000D01*
G75*
G02*
X231772000Y-119109500I0J237500D01*
G01*
X231772000Y-118634500D01*
G75*
G02*
X232009500Y-118397000I237500J0D01*
G01*
X232509500Y-118397000D01*
G75*
G02*
X232747000Y-118634500I0J-237500D01*
G01*
G37*
G36*
G01*
X236176000Y-109490500D02*
X236176000Y-109965500D01*
G75*
G02*
X235938500Y-110203000I-237500J0D01*
G01*
X235438500Y-110203000D01*
G75*
G02*
X235201000Y-109965500I0J237500D01*
G01*
X235201000Y-109490500D01*
G75*
G02*
X235438500Y-109253000I237500J0D01*
G01*
X235938500Y-109253000D01*
G75*
G02*
X236176000Y-109490500I0J-237500D01*
G01*
G37*
G36*
G01*
X238001000Y-109490500D02*
X238001000Y-109965500D01*
G75*
G02*
X237763500Y-110203000I-237500J0D01*
G01*
X237263500Y-110203000D01*
G75*
G02*
X237026000Y-109965500I0J237500D01*
G01*
X237026000Y-109490500D01*
G75*
G02*
X237263500Y-109253000I237500J0D01*
G01*
X237763500Y-109253000D01*
G75*
G02*
X238001000Y-109490500I0J-237500D01*
G01*
G37*
G36*
G01*
X231123500Y-95761000D02*
X230648500Y-95761000D01*
G75*
G02*
X230411000Y-95523500I0J237500D01*
G01*
X230411000Y-95023500D01*
G75*
G02*
X230648500Y-94786000I237500J0D01*
G01*
X231123500Y-94786000D01*
G75*
G02*
X231361000Y-95023500I0J-237500D01*
G01*
X231361000Y-95523500D01*
G75*
G02*
X231123500Y-95761000I-237500J0D01*
G01*
G37*
G36*
G01*
X231123500Y-93936000D02*
X230648500Y-93936000D01*
G75*
G02*
X230411000Y-93698500I0J237500D01*
G01*
X230411000Y-93198500D01*
G75*
G02*
X230648500Y-92961000I237500J0D01*
G01*
X231123500Y-92961000D01*
G75*
G02*
X231361000Y-93198500I0J-237500D01*
G01*
X231361000Y-93698500D01*
G75*
G02*
X231123500Y-93936000I-237500J0D01*
G01*
G37*
G36*
G01*
X208959000Y-103869500D02*
X208959000Y-103394500D01*
G75*
G02*
X209196500Y-103157000I237500J0D01*
G01*
X209696500Y-103157000D01*
G75*
G02*
X209934000Y-103394500I0J-237500D01*
G01*
X209934000Y-103869500D01*
G75*
G02*
X209696500Y-104107000I-237500J0D01*
G01*
X209196500Y-104107000D01*
G75*
G02*
X208959000Y-103869500I0J237500D01*
G01*
G37*
G36*
G01*
X207134000Y-103869500D02*
X207134000Y-103394500D01*
G75*
G02*
X207371500Y-103157000I237500J0D01*
G01*
X207871500Y-103157000D01*
G75*
G02*
X208109000Y-103394500I0J-237500D01*
G01*
X208109000Y-103869500D01*
G75*
G02*
X207871500Y-104107000I-237500J0D01*
G01*
X207371500Y-104107000D01*
G75*
G02*
X207134000Y-103869500I0J237500D01*
G01*
G37*
G36*
G01*
X202200500Y-102914000D02*
X202675500Y-102914000D01*
G75*
G02*
X202913000Y-103151500I0J-237500D01*
G01*
X202913000Y-103651500D01*
G75*
G02*
X202675500Y-103889000I-237500J0D01*
G01*
X202200500Y-103889000D01*
G75*
G02*
X201963000Y-103651500I0J237500D01*
G01*
X201963000Y-103151500D01*
G75*
G02*
X202200500Y-102914000I237500J0D01*
G01*
G37*
G36*
G01*
X202200500Y-101089000D02*
X202675500Y-101089000D01*
G75*
G02*
X202913000Y-101326500I0J-237500D01*
G01*
X202913000Y-101826500D01*
G75*
G02*
X202675500Y-102064000I-237500J0D01*
G01*
X202200500Y-102064000D01*
G75*
G02*
X201963000Y-101826500I0J237500D01*
G01*
X201963000Y-101326500D01*
G75*
G02*
X202200500Y-101089000I237500J0D01*
G01*
G37*
G36*
G01*
X206505000Y-105045500D02*
X206505000Y-105520500D01*
G75*
G02*
X206267500Y-105758000I-237500J0D01*
G01*
X205767500Y-105758000D01*
G75*
G02*
X205530000Y-105520500I0J237500D01*
G01*
X205530000Y-105045500D01*
G75*
G02*
X205767500Y-104808000I237500J0D01*
G01*
X206267500Y-104808000D01*
G75*
G02*
X206505000Y-105045500I0J-237500D01*
G01*
G37*
G36*
G01*
X204680000Y-105045500D02*
X204680000Y-105520500D01*
G75*
G02*
X204442500Y-105758000I-237500J0D01*
G01*
X203942500Y-105758000D01*
G75*
G02*
X203705000Y-105520500I0J237500D01*
G01*
X203705000Y-105045500D01*
G75*
G02*
X203942500Y-104808000I237500J0D01*
G01*
X204442500Y-104808000D01*
G75*
G02*
X204680000Y-105045500I0J-237500D01*
G01*
G37*
G36*
G01*
X208959000Y-105520500D02*
X208959000Y-105045500D01*
G75*
G02*
X209196500Y-104808000I237500J0D01*
G01*
X209696500Y-104808000D01*
G75*
G02*
X209934000Y-105045500I0J-237500D01*
G01*
X209934000Y-105520500D01*
G75*
G02*
X209696500Y-105758000I-237500J0D01*
G01*
X209196500Y-105758000D01*
G75*
G02*
X208959000Y-105520500I0J237500D01*
G01*
G37*
G36*
G01*
X207134000Y-105520500D02*
X207134000Y-105045500D01*
G75*
G02*
X207371500Y-104808000I237500J0D01*
G01*
X207871500Y-104808000D01*
G75*
G02*
X208109000Y-105045500I0J-237500D01*
G01*
X208109000Y-105520500D01*
G75*
G02*
X207871500Y-105758000I-237500J0D01*
G01*
X207371500Y-105758000D01*
G75*
G02*
X207134000Y-105520500I0J237500D01*
G01*
G37*
G36*
G01*
X195469500Y-99612000D02*
X195944500Y-99612000D01*
G75*
G02*
X196182000Y-99849500I0J-237500D01*
G01*
X196182000Y-100349500D01*
G75*
G02*
X195944500Y-100587000I-237500J0D01*
G01*
X195469500Y-100587000D01*
G75*
G02*
X195232000Y-100349500I0J237500D01*
G01*
X195232000Y-99849500D01*
G75*
G02*
X195469500Y-99612000I237500J0D01*
G01*
G37*
G36*
G01*
X195469500Y-97787000D02*
X195944500Y-97787000D01*
G75*
G02*
X196182000Y-98024500I0J-237500D01*
G01*
X196182000Y-98524500D01*
G75*
G02*
X195944500Y-98762000I-237500J0D01*
G01*
X195469500Y-98762000D01*
G75*
G02*
X195232000Y-98524500I0J237500D01*
G01*
X195232000Y-98024500D01*
G75*
G02*
X195469500Y-97787000I237500J0D01*
G01*
G37*
D19*
X200406000Y-105537000D03*
X200406000Y-103124000D03*
G36*
G01*
X200068000Y-93577000D02*
X200368000Y-93577000D01*
G75*
G02*
X200518000Y-93727000I0J-150000D01*
G01*
X200518000Y-94752000D01*
G75*
G02*
X200368000Y-94902000I-150000J0D01*
G01*
X200068000Y-94902000D01*
G75*
G02*
X199918000Y-94752000I0J150000D01*
G01*
X199918000Y-93727000D01*
G75*
G02*
X200068000Y-93577000I150000J0D01*
G01*
G37*
G36*
G01*
X201018000Y-93577000D02*
X201318000Y-93577000D01*
G75*
G02*
X201468000Y-93727000I0J-150000D01*
G01*
X201468000Y-94752000D01*
G75*
G02*
X201318000Y-94902000I-150000J0D01*
G01*
X201018000Y-94902000D01*
G75*
G02*
X200868000Y-94752000I0J150000D01*
G01*
X200868000Y-93727000D01*
G75*
G02*
X201018000Y-93577000I150000J0D01*
G01*
G37*
G36*
G01*
X201968000Y-93577000D02*
X202268000Y-93577000D01*
G75*
G02*
X202418000Y-93727000I0J-150000D01*
G01*
X202418000Y-94752000D01*
G75*
G02*
X202268000Y-94902000I-150000J0D01*
G01*
X201968000Y-94902000D01*
G75*
G02*
X201818000Y-94752000I0J150000D01*
G01*
X201818000Y-93727000D01*
G75*
G02*
X201968000Y-93577000I150000J0D01*
G01*
G37*
G36*
G01*
X201968000Y-95852000D02*
X202268000Y-95852000D01*
G75*
G02*
X202418000Y-96002000I0J-150000D01*
G01*
X202418000Y-97027000D01*
G75*
G02*
X202268000Y-97177000I-150000J0D01*
G01*
X201968000Y-97177000D01*
G75*
G02*
X201818000Y-97027000I0J150000D01*
G01*
X201818000Y-96002000D01*
G75*
G02*
X201968000Y-95852000I150000J0D01*
G01*
G37*
G36*
G01*
X200068000Y-95852000D02*
X200368000Y-95852000D01*
G75*
G02*
X200518000Y-96002000I0J-150000D01*
G01*
X200518000Y-97027000D01*
G75*
G02*
X200368000Y-97177000I-150000J0D01*
G01*
X200068000Y-97177000D01*
G75*
G02*
X199918000Y-97027000I0J150000D01*
G01*
X199918000Y-96002000D01*
G75*
G02*
X200068000Y-95852000I150000J0D01*
G01*
G37*
G36*
G01*
X196446000Y-107929000D02*
X196746000Y-107929000D01*
G75*
G02*
X196896000Y-108079000I0J-150000D01*
G01*
X196896000Y-109729000D01*
G75*
G02*
X196746000Y-109879000I-150000J0D01*
G01*
X196446000Y-109879000D01*
G75*
G02*
X196296000Y-109729000I0J150000D01*
G01*
X196296000Y-108079000D01*
G75*
G02*
X196446000Y-107929000I150000J0D01*
G01*
G37*
G36*
G01*
X197716000Y-107929000D02*
X198016000Y-107929000D01*
G75*
G02*
X198166000Y-108079000I0J-150000D01*
G01*
X198166000Y-109729000D01*
G75*
G02*
X198016000Y-109879000I-150000J0D01*
G01*
X197716000Y-109879000D01*
G75*
G02*
X197566000Y-109729000I0J150000D01*
G01*
X197566000Y-108079000D01*
G75*
G02*
X197716000Y-107929000I150000J0D01*
G01*
G37*
G36*
G01*
X198986000Y-107929000D02*
X199286000Y-107929000D01*
G75*
G02*
X199436000Y-108079000I0J-150000D01*
G01*
X199436000Y-109729000D01*
G75*
G02*
X199286000Y-109879000I-150000J0D01*
G01*
X198986000Y-109879000D01*
G75*
G02*
X198836000Y-109729000I0J150000D01*
G01*
X198836000Y-108079000D01*
G75*
G02*
X198986000Y-107929000I150000J0D01*
G01*
G37*
G36*
G01*
X200256000Y-107929000D02*
X200556000Y-107929000D01*
G75*
G02*
X200706000Y-108079000I0J-150000D01*
G01*
X200706000Y-109729000D01*
G75*
G02*
X200556000Y-109879000I-150000J0D01*
G01*
X200256000Y-109879000D01*
G75*
G02*
X200106000Y-109729000I0J150000D01*
G01*
X200106000Y-108079000D01*
G75*
G02*
X200256000Y-107929000I150000J0D01*
G01*
G37*
G36*
G01*
X200256000Y-112879000D02*
X200556000Y-112879000D01*
G75*
G02*
X200706000Y-113029000I0J-150000D01*
G01*
X200706000Y-114679000D01*
G75*
G02*
X200556000Y-114829000I-150000J0D01*
G01*
X200256000Y-114829000D01*
G75*
G02*
X200106000Y-114679000I0J150000D01*
G01*
X200106000Y-113029000D01*
G75*
G02*
X200256000Y-112879000I150000J0D01*
G01*
G37*
G36*
G01*
X198986000Y-112879000D02*
X199286000Y-112879000D01*
G75*
G02*
X199436000Y-113029000I0J-150000D01*
G01*
X199436000Y-114679000D01*
G75*
G02*
X199286000Y-114829000I-150000J0D01*
G01*
X198986000Y-114829000D01*
G75*
G02*
X198836000Y-114679000I0J150000D01*
G01*
X198836000Y-113029000D01*
G75*
G02*
X198986000Y-112879000I150000J0D01*
G01*
G37*
G36*
G01*
X197716000Y-112879000D02*
X198016000Y-112879000D01*
G75*
G02*
X198166000Y-113029000I0J-150000D01*
G01*
X198166000Y-114679000D01*
G75*
G02*
X198016000Y-114829000I-150000J0D01*
G01*
X197716000Y-114829000D01*
G75*
G02*
X197566000Y-114679000I0J150000D01*
G01*
X197566000Y-113029000D01*
G75*
G02*
X197716000Y-112879000I150000J0D01*
G01*
G37*
G36*
G01*
X196446000Y-112879000D02*
X196746000Y-112879000D01*
G75*
G02*
X196896000Y-113029000I0J-150000D01*
G01*
X196896000Y-114679000D01*
G75*
G02*
X196746000Y-114829000I-150000J0D01*
G01*
X196446000Y-114829000D01*
G75*
G02*
X196296000Y-114679000I0J150000D01*
G01*
X196296000Y-113029000D01*
G75*
G02*
X196446000Y-112879000I150000J0D01*
G01*
G37*
G36*
G01*
X228063999Y-101152000D02*
X230914001Y-101152000D01*
G75*
G02*
X231164000Y-101401999I0J-249999D01*
G01*
X231164000Y-102302001D01*
G75*
G02*
X230914001Y-102552000I-249999J0D01*
G01*
X228063999Y-102552000D01*
G75*
G02*
X227814000Y-102302001I0J249999D01*
G01*
X227814000Y-101401999D01*
G75*
G02*
X228063999Y-101152000I249999J0D01*
G01*
G37*
G36*
G01*
X228063999Y-107252000D02*
X230914001Y-107252000D01*
G75*
G02*
X231164000Y-107501999I0J-249999D01*
G01*
X231164000Y-108402001D01*
G75*
G02*
X230914001Y-108652000I-249999J0D01*
G01*
X228063999Y-108652000D01*
G75*
G02*
X227814000Y-108402001I0J249999D01*
G01*
X227814000Y-107501999D01*
G75*
G02*
X228063999Y-107252000I249999J0D01*
G01*
G37*
G36*
G01*
X225991600Y-107250000D02*
X226890400Y-107250000D01*
G75*
G02*
X227141000Y-107500600I0J-250600D01*
G01*
X227141000Y-108399400D01*
G75*
G02*
X226890400Y-108650000I-250600J0D01*
G01*
X225991600Y-108650000D01*
G75*
G02*
X225741000Y-108399400I0J250600D01*
G01*
X225741000Y-107500600D01*
G75*
G02*
X225991600Y-107250000I250600J0D01*
G01*
G37*
G36*
G01*
X225991600Y-101154000D02*
X226890400Y-101154000D01*
G75*
G02*
X227141000Y-101404600I0J-250600D01*
G01*
X227141000Y-102303400D01*
G75*
G02*
X226890400Y-102554000I-250600J0D01*
G01*
X225991600Y-102554000D01*
G75*
G02*
X225741000Y-102303400I0J250600D01*
G01*
X225741000Y-101404600D01*
G75*
G02*
X225991600Y-101154000I250600J0D01*
G01*
G37*
G36*
G01*
X228063999Y-110931000D02*
X230914001Y-110931000D01*
G75*
G02*
X231164000Y-111180999I0J-249999D01*
G01*
X231164000Y-112081001D01*
G75*
G02*
X230914001Y-112331000I-249999J0D01*
G01*
X228063999Y-112331000D01*
G75*
G02*
X227814000Y-112081001I0J249999D01*
G01*
X227814000Y-111180999D01*
G75*
G02*
X228063999Y-110931000I249999J0D01*
G01*
G37*
G36*
G01*
X228063999Y-117031000D02*
X230914001Y-117031000D01*
G75*
G02*
X231164000Y-117280999I0J-249999D01*
G01*
X231164000Y-118181001D01*
G75*
G02*
X230914001Y-118431000I-249999J0D01*
G01*
X228063999Y-118431000D01*
G75*
G02*
X227814000Y-118181001I0J249999D01*
G01*
X227814000Y-117280999D01*
G75*
G02*
X228063999Y-117031000I249999J0D01*
G01*
G37*
G36*
G01*
X225991600Y-117029000D02*
X226890400Y-117029000D01*
G75*
G02*
X227141000Y-117279600I0J-250600D01*
G01*
X227141000Y-118178400D01*
G75*
G02*
X226890400Y-118429000I-250600J0D01*
G01*
X225991600Y-118429000D01*
G75*
G02*
X225741000Y-118178400I0J250600D01*
G01*
X225741000Y-117279600D01*
G75*
G02*
X225991600Y-117029000I250600J0D01*
G01*
G37*
G36*
G01*
X225991600Y-110933000D02*
X226890400Y-110933000D01*
G75*
G02*
X227141000Y-111183600I0J-250600D01*
G01*
X227141000Y-112082400D01*
G75*
G02*
X226890400Y-112333000I-250600J0D01*
G01*
X225991600Y-112333000D01*
G75*
G02*
X225741000Y-112082400I0J250600D01*
G01*
X225741000Y-111183600D01*
G75*
G02*
X225991600Y-110933000I250600J0D01*
G01*
G37*
M02*
