%FSLAX45Y45*%
G04 Gerber Fmt 4.5, Leading zero omitted, Abs format (unit mm)*
G04 Created by KiCad (PCBNEW 6.0.6-1.fc36) date 2022-08-14 11:43:38*
%MOMM*%
%LPD*%
G01*
G04 APERTURE LIST*
%TA.AperFunction,Profile*%
%ADD10C,0.100000*%
%TD*%
%ADD11C,0.200000*%
%ADD12C,0.030000*%
%ADD13C,0.040000*%
%ADD14C,0.100000*%
G04 APERTURE END LIST*
D10*
X14147800Y-8064500D02*
X14147800Y-5080000D01*
X14147800Y-5080000D02*
X7683500Y-5080000D01*
X7683500Y-8064500D02*
X14147800Y-8064500D01*
X7683500Y-5080000D02*
X7683500Y-8064500D01*
D11*
D12*
X7833600Y-5166600D02*
X7863600Y-5196600D01*
X7863600Y-5166600D02*
X7833600Y-5196600D01*
X7884400Y-6068300D02*
X7914400Y-6098300D01*
X7914400Y-6068300D02*
X7884400Y-6098300D01*
X8024100Y-6296900D02*
X8054100Y-6326900D01*
X8054100Y-6296900D02*
X8024100Y-6326900D01*
X8049500Y-6195300D02*
X8079500Y-6225300D01*
X8079500Y-6195300D02*
X8049500Y-6225300D01*
X8240000Y-7351000D02*
X8270000Y-7381000D01*
X8270000Y-7351000D02*
X8240000Y-7381000D01*
X8290800Y-5947650D02*
X8320800Y-5977650D01*
X8320800Y-5947650D02*
X8290800Y-5977650D01*
X8290800Y-6030200D02*
X8320800Y-6060200D01*
X8320800Y-6030200D02*
X8290800Y-6060200D01*
X8392400Y-6449300D02*
X8422400Y-6479300D01*
X8422400Y-6449300D02*
X8392400Y-6479300D01*
X8392400Y-6538200D02*
X8422400Y-6568200D01*
X8422400Y-6538200D02*
X8392400Y-6568200D01*
X8392400Y-6614400D02*
X8422400Y-6644400D01*
X8422400Y-6614400D02*
X8392400Y-6644400D01*
X8405100Y-6855700D02*
X8435100Y-6885700D01*
X8435100Y-6855700D02*
X8405100Y-6885700D01*
X8532100Y-6855700D02*
X8562100Y-6885700D01*
X8562100Y-6855700D02*
X8532100Y-6885700D01*
X8570200Y-6627100D02*
X8600200Y-6657100D01*
X8600200Y-6627100D02*
X8570200Y-6657100D01*
X8659100Y-6855700D02*
X8689100Y-6885700D01*
X8689100Y-6855700D02*
X8659100Y-6885700D01*
X8786100Y-6512800D02*
X8816100Y-6542800D01*
X8816100Y-6512800D02*
X8786100Y-6542800D01*
X8786100Y-6855700D02*
X8816100Y-6885700D01*
X8816100Y-6855700D02*
X8786100Y-6885700D01*
X8900400Y-6360400D02*
X8930400Y-6390400D01*
X8930400Y-6360400D02*
X8900400Y-6390400D01*
X8913100Y-6728700D02*
X8943100Y-6758700D01*
X8943100Y-6728700D02*
X8913100Y-6758700D01*
X8913100Y-6817600D02*
X8943100Y-6847600D01*
X8943100Y-6817600D02*
X8913100Y-6847600D01*
X8938500Y-6004800D02*
X8968500Y-6034800D01*
X8968500Y-6004800D02*
X8938500Y-6034800D01*
X9065500Y-6017500D02*
X9095500Y-6047500D01*
X9095500Y-6017500D02*
X9065500Y-6047500D01*
X9141700Y-5166600D02*
X9171700Y-5196600D01*
X9171700Y-5166600D02*
X9141700Y-5196600D01*
X9192500Y-7211300D02*
X9222500Y-7241300D01*
X9222500Y-7211300D02*
X9192500Y-7241300D01*
X9395700Y-5795250D02*
X9425700Y-5825250D01*
X9425700Y-5795250D02*
X9395700Y-5825250D01*
X9402050Y-6658850D02*
X9432050Y-6688850D01*
X9432050Y-6658850D02*
X9402050Y-6688850D01*
X9408400Y-6042900D02*
X9438400Y-6072900D01*
X9438400Y-6042900D02*
X9408400Y-6072900D01*
X9522700Y-7947900D02*
X9552700Y-7977900D01*
X9552700Y-7947900D02*
X9522700Y-7977900D01*
X9567150Y-7706600D02*
X9597150Y-7736600D01*
X9597150Y-7706600D02*
X9567150Y-7736600D01*
X9916400Y-5166600D02*
X9946400Y-5196600D01*
X9946400Y-5166600D02*
X9916400Y-5196600D01*
X9929100Y-5585700D02*
X9959100Y-5615700D01*
X9959100Y-5585700D02*
X9929100Y-5615700D01*
X10043400Y-6462000D02*
X10073400Y-6492000D01*
X10073400Y-6462000D02*
X10043400Y-6492000D01*
X10043400Y-6627100D02*
X10073400Y-6657100D01*
X10073400Y-6627100D02*
X10043400Y-6657100D01*
X10043400Y-6741400D02*
X10073400Y-6771400D01*
X10073400Y-6741400D02*
X10043400Y-6771400D01*
X10043400Y-6855700D02*
X10073400Y-6885700D01*
X10073400Y-6855700D02*
X10043400Y-6885700D01*
X10043400Y-6982700D02*
X10073400Y-7012700D01*
X10073400Y-6982700D02*
X10043400Y-7012700D01*
X10094200Y-7401800D02*
X10124200Y-7431800D01*
X10124200Y-7401800D02*
X10094200Y-7431800D01*
X10272000Y-7084300D02*
X10302000Y-7114300D01*
X10302000Y-7084300D02*
X10272000Y-7114300D01*
X10272000Y-7274800D02*
X10302000Y-7304800D01*
X10302000Y-7274800D02*
X10272000Y-7304800D01*
X10310100Y-7478000D02*
X10340100Y-7508000D01*
X10340100Y-7478000D02*
X10310100Y-7508000D01*
X10310100Y-7554200D02*
X10340100Y-7584200D01*
X10340100Y-7554200D02*
X10310100Y-7584200D01*
X10462500Y-6246100D02*
X10492500Y-6276100D01*
X10492500Y-6246100D02*
X10462500Y-6276100D01*
X10462500Y-6335000D02*
X10492500Y-6365000D01*
X10492500Y-6335000D02*
X10462500Y-6365000D01*
X10513300Y-6119100D02*
X10543300Y-6149100D01*
X10543300Y-6119100D02*
X10513300Y-6149100D01*
X10526000Y-6423900D02*
X10556000Y-6453900D01*
X10556000Y-6423900D02*
X10526000Y-6453900D01*
X10526000Y-6538200D02*
X10556000Y-6568200D01*
X10556000Y-6538200D02*
X10526000Y-6568200D01*
X10526000Y-6627100D02*
X10556000Y-6657100D01*
X10556000Y-6627100D02*
X10526000Y-6657100D01*
X10526000Y-6728700D02*
X10556000Y-6758700D01*
X10556000Y-6728700D02*
X10526000Y-6758700D01*
X10526000Y-6982700D02*
X10556000Y-7012700D01*
X10556000Y-6982700D02*
X10526000Y-7012700D01*
X10627600Y-7478000D02*
X10657600Y-7508000D01*
X10657600Y-7478000D02*
X10627600Y-7508000D01*
X10627600Y-7566900D02*
X10657600Y-7596900D01*
X10657600Y-7566900D02*
X10627600Y-7596900D01*
X10895625Y-7044875D02*
X10925625Y-7074875D01*
X10925625Y-7044875D02*
X10895625Y-7074875D01*
X10900650Y-6798550D02*
X10930650Y-6828550D01*
X10930650Y-6798550D02*
X10900650Y-6828550D01*
X10919700Y-7363700D02*
X10949700Y-7393700D01*
X10949700Y-7363700D02*
X10919700Y-7393700D01*
X10919700Y-7465300D02*
X10949700Y-7495300D01*
X10949700Y-7465300D02*
X10919700Y-7495300D01*
X10957800Y-7947900D02*
X10987800Y-7977900D01*
X10987800Y-7947900D02*
X10957800Y-7977900D01*
X11034000Y-7516100D02*
X11064000Y-7546100D01*
X11064000Y-7516100D02*
X11034000Y-7546100D01*
X11116550Y-6601700D02*
X11146550Y-6631700D01*
X11146550Y-6601700D02*
X11116550Y-6631700D01*
X11263501Y-6855700D02*
X11293501Y-6885700D01*
X11293501Y-6855700D02*
X11263501Y-6885700D01*
X11389600Y-7135100D02*
X11419600Y-7165100D01*
X11419600Y-7135100D02*
X11389600Y-7165100D01*
X11389600Y-7719300D02*
X11419600Y-7749300D01*
X11419600Y-7719300D02*
X11389600Y-7749300D01*
X11516600Y-5635675D02*
X11546600Y-5665675D01*
X11546600Y-5635675D02*
X11516600Y-5665675D01*
X11605500Y-6144500D02*
X11635500Y-6174500D01*
X11635500Y-6144500D02*
X11605500Y-6174500D01*
X11605500Y-6754100D02*
X11635500Y-6784100D01*
X11635500Y-6754100D02*
X11605500Y-6784100D01*
X11618200Y-7135100D02*
X11648200Y-7165100D01*
X11648200Y-7135100D02*
X11618200Y-7165100D01*
X11618200Y-7719300D02*
X11648200Y-7749300D01*
X11648200Y-7719300D02*
X11618200Y-7749300D01*
X11669000Y-6436600D02*
X11699000Y-6466600D01*
X11699000Y-6436600D02*
X11669000Y-6466600D01*
X11694400Y-5166600D02*
X11724400Y-5196600D01*
X11724400Y-5166600D02*
X11694400Y-5196600D01*
X11770600Y-6144500D02*
X11800600Y-6174500D01*
X11800600Y-6144500D02*
X11770600Y-6174500D01*
X11770600Y-6754100D02*
X11800600Y-6784100D01*
X11800600Y-6754100D02*
X11770600Y-6784100D01*
X11770600Y-7135100D02*
X11800600Y-7165100D01*
X11800600Y-7135100D02*
X11770600Y-7165100D01*
X11770600Y-7719300D02*
X11800600Y-7749300D01*
X11800600Y-7719300D02*
X11770600Y-7749300D01*
X12151600Y-6931900D02*
X12181600Y-6961900D01*
X12181600Y-6931900D02*
X12151600Y-6961900D01*
X12291300Y-6474700D02*
X12321300Y-6504700D01*
X12321300Y-6474700D02*
X12291300Y-6504700D01*
X12672300Y-6931900D02*
X12702300Y-6961900D01*
X12702300Y-6931900D02*
X12672300Y-6961900D01*
X13328850Y-5636500D02*
X13358850Y-5666500D01*
X13358850Y-5636500D02*
X13328850Y-5666500D01*
X13328850Y-6512800D02*
X13358850Y-6542800D01*
X13358850Y-6512800D02*
X13328850Y-6542800D01*
X13332700Y-5312650D02*
X13362700Y-5342650D01*
X13362700Y-5312650D02*
X13332700Y-5342650D01*
X13354250Y-7329450D02*
X13384250Y-7359450D01*
X13384250Y-7329450D02*
X13354250Y-7359450D01*
X13358100Y-6208000D02*
X13388100Y-6238000D01*
X13388100Y-6208000D02*
X13358100Y-6238000D01*
X13408900Y-5636500D02*
X13438900Y-5666500D01*
X13438900Y-5636500D02*
X13408900Y-5666500D01*
X13421600Y-6512800D02*
X13451600Y-6542800D01*
X13451600Y-6512800D02*
X13421600Y-6542800D01*
X13443150Y-7329450D02*
X13473150Y-7359450D01*
X13473150Y-7329450D02*
X13443150Y-7359450D01*
X13478750Y-5312650D02*
X13508750Y-5342650D01*
X13508750Y-5312650D02*
X13478750Y-5342650D01*
X13491450Y-6208000D02*
X13521450Y-6238000D01*
X13521450Y-6208000D02*
X13491450Y-6238000D01*
X13828000Y-5166600D02*
X13858000Y-5196600D01*
X13858000Y-5166600D02*
X13828000Y-5196600D01*
X13878800Y-7947900D02*
X13908800Y-7977900D01*
X13908800Y-7947900D02*
X13878800Y-7977900D01*
X14031200Y-5928600D02*
X14061200Y-5958600D01*
X14061200Y-5928600D02*
X14031200Y-5958600D01*
X14031200Y-6792200D02*
X14061200Y-6822200D01*
X14061200Y-6792200D02*
X14031200Y-6822200D01*
D13*
X8224200Y-5880100D02*
G75*
G03*
X8224200Y-5880100I-20000J0D01*
G01*
X8224200Y-5969000D02*
G75*
G03*
X8224200Y-5969000I-20000J0D01*
G01*
X8802300Y-5327400D02*
G75*
G03*
X8802300Y-5327400I-20000J0D01*
G01*
X8897300Y-5448300D02*
G75*
G03*
X8897300Y-5448300I-20000J0D01*
G01*
X9703750Y-7112000D02*
G75*
G03*
X9703750Y-7112000I-20000J0D01*
G01*
X9964100Y-5422900D02*
G75*
G03*
X9964100Y-5422900I-20000J0D01*
G01*
X10878500Y-6169550D02*
G75*
G03*
X10878500Y-6169550I-20000J0D01*
G01*
D14*
X7924800Y-6477800D02*
X7924800Y-6577800D01*
X7874800Y-6527800D02*
X7974800Y-6527800D01*
X7924800Y-6731800D02*
X7924800Y-6831800D01*
X7874800Y-6781800D02*
X7974800Y-6781800D01*
X7924800Y-6985800D02*
X7924800Y-7085800D01*
X7874800Y-7035800D02*
X7974800Y-7035800D01*
X8547100Y-7570000D02*
X8547100Y-7670000D01*
X8497100Y-7620000D02*
X8597100Y-7620000D01*
X8801100Y-7570000D02*
X8801100Y-7670000D01*
X8751100Y-7620000D02*
X8851100Y-7620000D01*
D11*
X8059011Y-5633311D02*
X8059011Y-5491889D01*
X7917589Y-5491889D01*
X7917589Y-5633311D01*
X8059011Y-5633311D01*
X8059011Y-7665311D02*
X8059011Y-7523889D01*
X7917589Y-7523889D01*
X7917589Y-7665311D01*
X8059011Y-7665311D01*
X13913711Y-5607911D02*
X13913711Y-5466489D01*
X13772289Y-5466489D01*
X13772289Y-5607911D01*
X13913711Y-5607911D01*
X13913711Y-6471511D02*
X13913711Y-6330089D01*
X13772289Y-6330089D01*
X13772289Y-6471511D01*
X13913711Y-6471511D01*
X13913711Y-7309711D02*
X13913711Y-7168289D01*
X13772289Y-7168289D01*
X13772289Y-7309711D01*
X13913711Y-7309711D01*
X7936119Y-8379976D02*
X7936119Y-8179976D01*
X7983738Y-8179976D01*
X8012309Y-8189500D01*
X8031357Y-8208548D01*
X8040881Y-8227595D01*
X8050405Y-8265690D01*
X8050405Y-8294262D01*
X8040881Y-8332357D01*
X8031357Y-8351405D01*
X8012309Y-8370452D01*
X7983738Y-8379976D01*
X7936119Y-8379976D01*
X8136119Y-8379976D02*
X8136119Y-8246643D01*
X8136119Y-8284738D02*
X8145643Y-8265690D01*
X8155167Y-8256167D01*
X8174214Y-8246643D01*
X8193262Y-8246643D01*
X8259928Y-8379976D02*
X8259928Y-8246643D01*
X8259928Y-8179976D02*
X8250405Y-8189500D01*
X8259928Y-8199024D01*
X8269452Y-8189500D01*
X8259928Y-8179976D01*
X8259928Y-8199024D01*
X8383738Y-8379976D02*
X8364690Y-8370452D01*
X8355167Y-8351405D01*
X8355167Y-8179976D01*
X8488500Y-8379976D02*
X8469452Y-8370452D01*
X8459929Y-8351405D01*
X8459929Y-8179976D01*
X8717071Y-8379976D02*
X8717071Y-8179976D01*
X8783738Y-8322833D01*
X8850405Y-8179976D01*
X8850405Y-8379976D01*
X9031357Y-8379976D02*
X9031357Y-8275214D01*
X9021833Y-8256167D01*
X9002786Y-8246643D01*
X8964690Y-8246643D01*
X8945643Y-8256167D01*
X9031357Y-8370452D02*
X9012310Y-8379976D01*
X8964690Y-8379976D01*
X8945643Y-8370452D01*
X8936119Y-8351405D01*
X8936119Y-8332357D01*
X8945643Y-8313309D01*
X8964690Y-8303786D01*
X9012310Y-8303786D01*
X9031357Y-8294262D01*
X9126595Y-8246643D02*
X9126595Y-8446643D01*
X9126595Y-8256167D02*
X9145643Y-8246643D01*
X9183738Y-8246643D01*
X9202786Y-8256167D01*
X9212310Y-8265690D01*
X9221833Y-8284738D01*
X9221833Y-8341881D01*
X9212310Y-8360928D01*
X9202786Y-8370452D01*
X9183738Y-8379976D01*
X9145643Y-8379976D01*
X9126595Y-8370452D01*
X9307548Y-8360928D02*
X9317071Y-8370452D01*
X9307548Y-8379976D01*
X9298024Y-8370452D01*
X9307548Y-8360928D01*
X9307548Y-8379976D01*
X9307548Y-8256167D02*
X9317071Y-8265690D01*
X9307548Y-8275214D01*
X9298024Y-8265690D01*
X9307548Y-8256167D01*
X9307548Y-8275214D01*
D12*
X7648500Y-8694500D02*
X7678500Y-8724500D01*
X7678500Y-8694500D02*
X7648500Y-8724500D01*
D11*
X7974214Y-8599976D02*
X7993262Y-8599976D01*
X8012309Y-8609500D01*
X8021833Y-8619024D01*
X8031357Y-8638071D01*
X8040881Y-8676167D01*
X8040881Y-8723786D01*
X8031357Y-8761881D01*
X8021833Y-8780929D01*
X8012309Y-8790452D01*
X7993262Y-8799976D01*
X7974214Y-8799976D01*
X7955167Y-8790452D01*
X7945643Y-8780929D01*
X7936119Y-8761881D01*
X7926595Y-8723786D01*
X7926595Y-8676167D01*
X7936119Y-8638071D01*
X7945643Y-8619024D01*
X7955167Y-8609500D01*
X7974214Y-8599976D01*
X8126595Y-8780929D02*
X8136119Y-8790452D01*
X8126595Y-8799976D01*
X8117071Y-8790452D01*
X8126595Y-8780929D01*
X8126595Y-8799976D01*
X8202786Y-8599976D02*
X8326595Y-8599976D01*
X8259928Y-8676167D01*
X8288500Y-8676167D01*
X8307548Y-8685690D01*
X8317071Y-8695214D01*
X8326595Y-8714262D01*
X8326595Y-8761881D01*
X8317071Y-8780929D01*
X8307548Y-8790452D01*
X8288500Y-8799976D01*
X8231357Y-8799976D01*
X8212309Y-8790452D01*
X8202786Y-8780929D01*
X8450405Y-8599976D02*
X8469452Y-8599976D01*
X8488500Y-8609500D01*
X8498024Y-8619024D01*
X8507548Y-8638071D01*
X8517071Y-8676167D01*
X8517071Y-8723786D01*
X8507548Y-8761881D01*
X8498024Y-8780929D01*
X8488500Y-8790452D01*
X8469452Y-8799976D01*
X8450405Y-8799976D01*
X8431357Y-8790452D01*
X8421833Y-8780929D01*
X8412310Y-8761881D01*
X8402786Y-8723786D01*
X8402786Y-8676167D01*
X8412310Y-8638071D01*
X8421833Y-8619024D01*
X8431357Y-8609500D01*
X8450405Y-8599976D01*
X8640881Y-8599976D02*
X8659929Y-8599976D01*
X8678976Y-8609500D01*
X8688500Y-8619024D01*
X8698024Y-8638071D01*
X8707548Y-8676167D01*
X8707548Y-8723786D01*
X8698024Y-8761881D01*
X8688500Y-8780929D01*
X8678976Y-8790452D01*
X8659929Y-8799976D01*
X8640881Y-8799976D01*
X8621833Y-8790452D01*
X8612310Y-8780929D01*
X8602786Y-8761881D01*
X8593262Y-8723786D01*
X8593262Y-8676167D01*
X8602786Y-8638071D01*
X8612310Y-8619024D01*
X8621833Y-8609500D01*
X8640881Y-8599976D01*
X8793262Y-8799976D02*
X8793262Y-8666643D01*
X8793262Y-8685690D02*
X8802786Y-8676167D01*
X8821833Y-8666643D01*
X8850405Y-8666643D01*
X8869452Y-8676167D01*
X8878976Y-8695214D01*
X8878976Y-8799976D01*
X8878976Y-8695214D02*
X8888500Y-8676167D01*
X8907548Y-8666643D01*
X8936119Y-8666643D01*
X8955167Y-8676167D01*
X8964690Y-8695214D01*
X8964690Y-8799976D01*
X9059929Y-8799976D02*
X9059929Y-8666643D01*
X9059929Y-8685690D02*
X9069452Y-8676167D01*
X9088500Y-8666643D01*
X9117071Y-8666643D01*
X9136119Y-8676167D01*
X9145643Y-8695214D01*
X9145643Y-8799976D01*
X9145643Y-8695214D02*
X9155167Y-8676167D01*
X9174214Y-8666643D01*
X9202786Y-8666643D01*
X9221833Y-8676167D01*
X9231357Y-8695214D01*
X9231357Y-8799976D01*
X9621833Y-8590452D02*
X9450405Y-8847595D01*
X9878976Y-8599976D02*
X9898024Y-8599976D01*
X9917071Y-8609500D01*
X9926595Y-8619024D01*
X9936119Y-8638071D01*
X9945643Y-8676167D01*
X9945643Y-8723786D01*
X9936119Y-8761881D01*
X9926595Y-8780929D01*
X9917071Y-8790452D01*
X9898024Y-8799976D01*
X9878976Y-8799976D01*
X9859929Y-8790452D01*
X9850405Y-8780929D01*
X9840881Y-8761881D01*
X9831357Y-8723786D01*
X9831357Y-8676167D01*
X9840881Y-8638071D01*
X9850405Y-8619024D01*
X9859929Y-8609500D01*
X9878976Y-8599976D01*
X10031357Y-8780929D02*
X10040881Y-8790452D01*
X10031357Y-8799976D01*
X10021833Y-8790452D01*
X10031357Y-8780929D01*
X10031357Y-8799976D01*
X10164690Y-8599976D02*
X10183738Y-8599976D01*
X10202786Y-8609500D01*
X10212310Y-8619024D01*
X10221833Y-8638071D01*
X10231357Y-8676167D01*
X10231357Y-8723786D01*
X10221833Y-8761881D01*
X10212310Y-8780929D01*
X10202786Y-8790452D01*
X10183738Y-8799976D01*
X10164690Y-8799976D01*
X10145643Y-8790452D01*
X10136119Y-8780929D01*
X10126595Y-8761881D01*
X10117071Y-8723786D01*
X10117071Y-8676167D01*
X10126595Y-8638071D01*
X10136119Y-8619024D01*
X10145643Y-8609500D01*
X10164690Y-8599976D01*
X10421833Y-8799976D02*
X10307548Y-8799976D01*
X10364690Y-8799976D02*
X10364690Y-8599976D01*
X10345643Y-8628548D01*
X10326595Y-8647595D01*
X10307548Y-8657119D01*
X10612310Y-8799976D02*
X10498024Y-8799976D01*
X10555167Y-8799976D02*
X10555167Y-8599976D01*
X10536119Y-8628548D01*
X10517071Y-8647595D01*
X10498024Y-8657119D01*
X10726595Y-8685690D02*
X10707548Y-8676167D01*
X10698024Y-8666643D01*
X10688500Y-8647595D01*
X10688500Y-8638071D01*
X10698024Y-8619024D01*
X10707548Y-8609500D01*
X10726595Y-8599976D01*
X10764690Y-8599976D01*
X10783738Y-8609500D01*
X10793262Y-8619024D01*
X10802786Y-8638071D01*
X10802786Y-8647595D01*
X10793262Y-8666643D01*
X10783738Y-8676167D01*
X10764690Y-8685690D01*
X10726595Y-8685690D01*
X10707548Y-8695214D01*
X10698024Y-8704738D01*
X10688500Y-8723786D01*
X10688500Y-8761881D01*
X10698024Y-8780929D01*
X10707548Y-8790452D01*
X10726595Y-8799976D01*
X10764690Y-8799976D01*
X10783738Y-8790452D01*
X10793262Y-8780929D01*
X10802786Y-8761881D01*
X10802786Y-8723786D01*
X10793262Y-8704738D01*
X10783738Y-8695214D01*
X10764690Y-8685690D01*
X10878976Y-8599976D02*
X10878976Y-8638071D01*
X10955167Y-8599976D02*
X10955167Y-8638071D01*
X11250405Y-8876167D02*
X11240881Y-8866643D01*
X11221833Y-8838071D01*
X11212309Y-8819024D01*
X11202786Y-8790452D01*
X11193262Y-8742833D01*
X11193262Y-8704738D01*
X11202786Y-8657119D01*
X11212309Y-8628548D01*
X11221833Y-8609500D01*
X11240881Y-8580929D01*
X11250405Y-8571405D01*
X11355167Y-8685690D02*
X11336119Y-8676167D01*
X11326595Y-8666643D01*
X11317071Y-8647595D01*
X11317071Y-8638071D01*
X11326595Y-8619024D01*
X11336119Y-8609500D01*
X11355167Y-8599976D01*
X11393262Y-8599976D01*
X11412309Y-8609500D01*
X11421833Y-8619024D01*
X11431357Y-8638071D01*
X11431357Y-8647595D01*
X11421833Y-8666643D01*
X11412309Y-8676167D01*
X11393262Y-8685690D01*
X11355167Y-8685690D01*
X11336119Y-8695214D01*
X11326595Y-8704738D01*
X11317071Y-8723786D01*
X11317071Y-8761881D01*
X11326595Y-8780929D01*
X11336119Y-8790452D01*
X11355167Y-8799976D01*
X11393262Y-8799976D01*
X11412309Y-8790452D01*
X11421833Y-8780929D01*
X11431357Y-8761881D01*
X11431357Y-8723786D01*
X11421833Y-8704738D01*
X11412309Y-8695214D01*
X11393262Y-8685690D01*
X11545643Y-8685690D02*
X11526595Y-8676167D01*
X11517071Y-8666643D01*
X11507548Y-8647595D01*
X11507548Y-8638071D01*
X11517071Y-8619024D01*
X11526595Y-8609500D01*
X11545643Y-8599976D01*
X11583738Y-8599976D01*
X11602786Y-8609500D01*
X11612309Y-8619024D01*
X11621833Y-8638071D01*
X11621833Y-8647595D01*
X11612309Y-8666643D01*
X11602786Y-8676167D01*
X11583738Y-8685690D01*
X11545643Y-8685690D01*
X11526595Y-8695214D01*
X11517071Y-8704738D01*
X11507548Y-8723786D01*
X11507548Y-8761881D01*
X11517071Y-8780929D01*
X11526595Y-8790452D01*
X11545643Y-8799976D01*
X11583738Y-8799976D01*
X11602786Y-8790452D01*
X11612309Y-8780929D01*
X11621833Y-8761881D01*
X11621833Y-8723786D01*
X11612309Y-8704738D01*
X11602786Y-8695214D01*
X11583738Y-8685690D01*
X11859928Y-8799976D02*
X11859928Y-8599976D01*
X11945643Y-8799976D02*
X11945643Y-8695214D01*
X11936119Y-8676167D01*
X11917071Y-8666643D01*
X11888500Y-8666643D01*
X11869452Y-8676167D01*
X11859928Y-8685690D01*
X12069452Y-8799976D02*
X12050405Y-8790452D01*
X12040881Y-8780929D01*
X12031357Y-8761881D01*
X12031357Y-8704738D01*
X12040881Y-8685690D01*
X12050405Y-8676167D01*
X12069452Y-8666643D01*
X12098024Y-8666643D01*
X12117071Y-8676167D01*
X12126595Y-8685690D01*
X12136119Y-8704738D01*
X12136119Y-8761881D01*
X12126595Y-8780929D01*
X12117071Y-8790452D01*
X12098024Y-8799976D01*
X12069452Y-8799976D01*
X12250405Y-8799976D02*
X12231357Y-8790452D01*
X12221833Y-8771405D01*
X12221833Y-8599976D01*
X12402786Y-8790452D02*
X12383738Y-8799976D01*
X12345643Y-8799976D01*
X12326595Y-8790452D01*
X12317071Y-8771405D01*
X12317071Y-8695214D01*
X12326595Y-8676167D01*
X12345643Y-8666643D01*
X12383738Y-8666643D01*
X12402786Y-8676167D01*
X12412309Y-8695214D01*
X12412309Y-8714262D01*
X12317071Y-8733310D01*
X12488500Y-8790452D02*
X12507548Y-8799976D01*
X12545643Y-8799976D01*
X12564690Y-8790452D01*
X12574214Y-8771405D01*
X12574214Y-8761881D01*
X12564690Y-8742833D01*
X12545643Y-8733310D01*
X12517071Y-8733310D01*
X12498024Y-8723786D01*
X12488500Y-8704738D01*
X12488500Y-8695214D01*
X12498024Y-8676167D01*
X12517071Y-8666643D01*
X12545643Y-8666643D01*
X12564690Y-8676167D01*
X12640881Y-8876167D02*
X12650405Y-8866643D01*
X12669452Y-8838071D01*
X12678976Y-8819024D01*
X12688500Y-8790452D01*
X12698024Y-8742833D01*
X12698024Y-8704738D01*
X12688500Y-8657119D01*
X12678976Y-8628548D01*
X12669452Y-8609500D01*
X12650405Y-8580929D01*
X12640881Y-8571405D01*
D13*
X7678500Y-8973500D02*
G75*
G03*
X7678500Y-8973500I-20000J0D01*
G01*
D11*
X7974214Y-8863976D02*
X7993262Y-8863976D01*
X8012309Y-8873500D01*
X8021833Y-8883024D01*
X8031357Y-8902071D01*
X8040881Y-8940167D01*
X8040881Y-8987786D01*
X8031357Y-9025881D01*
X8021833Y-9044929D01*
X8012309Y-9054452D01*
X7993262Y-9063976D01*
X7974214Y-9063976D01*
X7955167Y-9054452D01*
X7945643Y-9044929D01*
X7936119Y-9025881D01*
X7926595Y-8987786D01*
X7926595Y-8940167D01*
X7936119Y-8902071D01*
X7945643Y-8883024D01*
X7955167Y-8873500D01*
X7974214Y-8863976D01*
X8126595Y-9044929D02*
X8136119Y-9054452D01*
X8126595Y-9063976D01*
X8117071Y-9054452D01*
X8126595Y-9044929D01*
X8126595Y-9063976D01*
X8307548Y-8930643D02*
X8307548Y-9063976D01*
X8259928Y-8854452D02*
X8212309Y-8997310D01*
X8336119Y-8997310D01*
X8450405Y-8863976D02*
X8469452Y-8863976D01*
X8488500Y-8873500D01*
X8498024Y-8883024D01*
X8507548Y-8902071D01*
X8517071Y-8940167D01*
X8517071Y-8987786D01*
X8507548Y-9025881D01*
X8498024Y-9044929D01*
X8488500Y-9054452D01*
X8469452Y-9063976D01*
X8450405Y-9063976D01*
X8431357Y-9054452D01*
X8421833Y-9044929D01*
X8412310Y-9025881D01*
X8402786Y-8987786D01*
X8402786Y-8940167D01*
X8412310Y-8902071D01*
X8421833Y-8883024D01*
X8431357Y-8873500D01*
X8450405Y-8863976D01*
X8640881Y-8863976D02*
X8659929Y-8863976D01*
X8678976Y-8873500D01*
X8688500Y-8883024D01*
X8698024Y-8902071D01*
X8707548Y-8940167D01*
X8707548Y-8987786D01*
X8698024Y-9025881D01*
X8688500Y-9044929D01*
X8678976Y-9054452D01*
X8659929Y-9063976D01*
X8640881Y-9063976D01*
X8621833Y-9054452D01*
X8612310Y-9044929D01*
X8602786Y-9025881D01*
X8593262Y-8987786D01*
X8593262Y-8940167D01*
X8602786Y-8902071D01*
X8612310Y-8883024D01*
X8621833Y-8873500D01*
X8640881Y-8863976D01*
X8793262Y-9063976D02*
X8793262Y-8930643D01*
X8793262Y-8949690D02*
X8802786Y-8940167D01*
X8821833Y-8930643D01*
X8850405Y-8930643D01*
X8869452Y-8940167D01*
X8878976Y-8959214D01*
X8878976Y-9063976D01*
X8878976Y-8959214D02*
X8888500Y-8940167D01*
X8907548Y-8930643D01*
X8936119Y-8930643D01*
X8955167Y-8940167D01*
X8964690Y-8959214D01*
X8964690Y-9063976D01*
X9059929Y-9063976D02*
X9059929Y-8930643D01*
X9059929Y-8949690D02*
X9069452Y-8940167D01*
X9088500Y-8930643D01*
X9117071Y-8930643D01*
X9136119Y-8940167D01*
X9145643Y-8959214D01*
X9145643Y-9063976D01*
X9145643Y-8959214D02*
X9155167Y-8940167D01*
X9174214Y-8930643D01*
X9202786Y-8930643D01*
X9221833Y-8940167D01*
X9231357Y-8959214D01*
X9231357Y-9063976D01*
X9621833Y-8854452D02*
X9450405Y-9111595D01*
X9878976Y-8863976D02*
X9898024Y-8863976D01*
X9917071Y-8873500D01*
X9926595Y-8883024D01*
X9936119Y-8902071D01*
X9945643Y-8940167D01*
X9945643Y-8987786D01*
X9936119Y-9025881D01*
X9926595Y-9044929D01*
X9917071Y-9054452D01*
X9898024Y-9063976D01*
X9878976Y-9063976D01*
X9859929Y-9054452D01*
X9850405Y-9044929D01*
X9840881Y-9025881D01*
X9831357Y-8987786D01*
X9831357Y-8940167D01*
X9840881Y-8902071D01*
X9850405Y-8883024D01*
X9859929Y-8873500D01*
X9878976Y-8863976D01*
X10031357Y-9044929D02*
X10040881Y-9054452D01*
X10031357Y-9063976D01*
X10021833Y-9054452D01*
X10031357Y-9044929D01*
X10031357Y-9063976D01*
X10164690Y-8863976D02*
X10183738Y-8863976D01*
X10202786Y-8873500D01*
X10212310Y-8883024D01*
X10221833Y-8902071D01*
X10231357Y-8940167D01*
X10231357Y-8987786D01*
X10221833Y-9025881D01*
X10212310Y-9044929D01*
X10202786Y-9054452D01*
X10183738Y-9063976D01*
X10164690Y-9063976D01*
X10145643Y-9054452D01*
X10136119Y-9044929D01*
X10126595Y-9025881D01*
X10117071Y-8987786D01*
X10117071Y-8940167D01*
X10126595Y-8902071D01*
X10136119Y-8883024D01*
X10145643Y-8873500D01*
X10164690Y-8863976D01*
X10421833Y-9063976D02*
X10307548Y-9063976D01*
X10364690Y-9063976D02*
X10364690Y-8863976D01*
X10345643Y-8892548D01*
X10326595Y-8911595D01*
X10307548Y-8921119D01*
X10602786Y-8863976D02*
X10507548Y-8863976D01*
X10498024Y-8959214D01*
X10507548Y-8949690D01*
X10526595Y-8940167D01*
X10574214Y-8940167D01*
X10593262Y-8949690D01*
X10602786Y-8959214D01*
X10612310Y-8978262D01*
X10612310Y-9025881D01*
X10602786Y-9044929D01*
X10593262Y-9054452D01*
X10574214Y-9063976D01*
X10526595Y-9063976D01*
X10507548Y-9054452D01*
X10498024Y-9044929D01*
X10678976Y-8863976D02*
X10812310Y-8863976D01*
X10726595Y-9063976D01*
X10878976Y-8863976D02*
X10878976Y-8902071D01*
X10955167Y-8863976D02*
X10955167Y-8902071D01*
X11250405Y-9140167D02*
X11240881Y-9130643D01*
X11221833Y-9102071D01*
X11212309Y-9083024D01*
X11202786Y-9054452D01*
X11193262Y-9006833D01*
X11193262Y-8968738D01*
X11202786Y-8921119D01*
X11212309Y-8892548D01*
X11221833Y-8873500D01*
X11240881Y-8844929D01*
X11250405Y-8835405D01*
X11307548Y-8863976D02*
X11440881Y-8863976D01*
X11355167Y-9063976D01*
X11669452Y-9063976D02*
X11669452Y-8863976D01*
X11755167Y-9063976D02*
X11755167Y-8959214D01*
X11745643Y-8940167D01*
X11726595Y-8930643D01*
X11698024Y-8930643D01*
X11678976Y-8940167D01*
X11669452Y-8949690D01*
X11878976Y-9063976D02*
X11859928Y-9054452D01*
X11850405Y-9044929D01*
X11840881Y-9025881D01*
X11840881Y-8968738D01*
X11850405Y-8949690D01*
X11859928Y-8940167D01*
X11878976Y-8930643D01*
X11907548Y-8930643D01*
X11926595Y-8940167D01*
X11936119Y-8949690D01*
X11945643Y-8968738D01*
X11945643Y-9025881D01*
X11936119Y-9044929D01*
X11926595Y-9054452D01*
X11907548Y-9063976D01*
X11878976Y-9063976D01*
X12059928Y-9063976D02*
X12040881Y-9054452D01*
X12031357Y-9035405D01*
X12031357Y-8863976D01*
X12212309Y-9054452D02*
X12193262Y-9063976D01*
X12155167Y-9063976D01*
X12136119Y-9054452D01*
X12126595Y-9035405D01*
X12126595Y-8959214D01*
X12136119Y-8940167D01*
X12155167Y-8930643D01*
X12193262Y-8930643D01*
X12212309Y-8940167D01*
X12221833Y-8959214D01*
X12221833Y-8978262D01*
X12126595Y-8997310D01*
X12298024Y-9054452D02*
X12317071Y-9063976D01*
X12355167Y-9063976D01*
X12374214Y-9054452D01*
X12383738Y-9035405D01*
X12383738Y-9025881D01*
X12374214Y-9006833D01*
X12355167Y-8997310D01*
X12326595Y-8997310D01*
X12307548Y-8987786D01*
X12298024Y-8968738D01*
X12298024Y-8959214D01*
X12307548Y-8940167D01*
X12326595Y-8930643D01*
X12355167Y-8930643D01*
X12374214Y-8940167D01*
X12450405Y-9140167D02*
X12459928Y-9130643D01*
X12478976Y-9102071D01*
X12488500Y-9083024D01*
X12498024Y-9054452D01*
X12507548Y-9006833D01*
X12507548Y-8968738D01*
X12498024Y-8921119D01*
X12488500Y-8892548D01*
X12478976Y-8873500D01*
X12459928Y-8844929D01*
X12450405Y-8835405D01*
D14*
X7628500Y-9187500D02*
X7628500Y-9287500D01*
X7578500Y-9237500D02*
X7678500Y-9237500D01*
D11*
X8040881Y-9327976D02*
X7926595Y-9327976D01*
X7983738Y-9327976D02*
X7983738Y-9127976D01*
X7964690Y-9156548D01*
X7945643Y-9175595D01*
X7926595Y-9185119D01*
X8126595Y-9308929D02*
X8136119Y-9318452D01*
X8126595Y-9327976D01*
X8117071Y-9318452D01*
X8126595Y-9308929D01*
X8126595Y-9327976D01*
X8259928Y-9127976D02*
X8278976Y-9127976D01*
X8298024Y-9137500D01*
X8307548Y-9147024D01*
X8317071Y-9166071D01*
X8326595Y-9204167D01*
X8326595Y-9251786D01*
X8317071Y-9289881D01*
X8307548Y-9308929D01*
X8298024Y-9318452D01*
X8278976Y-9327976D01*
X8259928Y-9327976D01*
X8240881Y-9318452D01*
X8231357Y-9308929D01*
X8221833Y-9289881D01*
X8212309Y-9251786D01*
X8212309Y-9204167D01*
X8221833Y-9166071D01*
X8231357Y-9147024D01*
X8240881Y-9137500D01*
X8259928Y-9127976D01*
X8450405Y-9127976D02*
X8469452Y-9127976D01*
X8488500Y-9137500D01*
X8498024Y-9147024D01*
X8507548Y-9166071D01*
X8517071Y-9204167D01*
X8517071Y-9251786D01*
X8507548Y-9289881D01*
X8498024Y-9308929D01*
X8488500Y-9318452D01*
X8469452Y-9327976D01*
X8450405Y-9327976D01*
X8431357Y-9318452D01*
X8421833Y-9308929D01*
X8412310Y-9289881D01*
X8402786Y-9251786D01*
X8402786Y-9204167D01*
X8412310Y-9166071D01*
X8421833Y-9147024D01*
X8431357Y-9137500D01*
X8450405Y-9127976D01*
X8640881Y-9127976D02*
X8659929Y-9127976D01*
X8678976Y-9137500D01*
X8688500Y-9147024D01*
X8698024Y-9166071D01*
X8707548Y-9204167D01*
X8707548Y-9251786D01*
X8698024Y-9289881D01*
X8688500Y-9308929D01*
X8678976Y-9318452D01*
X8659929Y-9327976D01*
X8640881Y-9327976D01*
X8621833Y-9318452D01*
X8612310Y-9308929D01*
X8602786Y-9289881D01*
X8593262Y-9251786D01*
X8593262Y-9204167D01*
X8602786Y-9166071D01*
X8612310Y-9147024D01*
X8621833Y-9137500D01*
X8640881Y-9127976D01*
X8793262Y-9327976D02*
X8793262Y-9194643D01*
X8793262Y-9213690D02*
X8802786Y-9204167D01*
X8821833Y-9194643D01*
X8850405Y-9194643D01*
X8869452Y-9204167D01*
X8878976Y-9223214D01*
X8878976Y-9327976D01*
X8878976Y-9223214D02*
X8888500Y-9204167D01*
X8907548Y-9194643D01*
X8936119Y-9194643D01*
X8955167Y-9204167D01*
X8964690Y-9223214D01*
X8964690Y-9327976D01*
X9059929Y-9327976D02*
X9059929Y-9194643D01*
X9059929Y-9213690D02*
X9069452Y-9204167D01*
X9088500Y-9194643D01*
X9117071Y-9194643D01*
X9136119Y-9204167D01*
X9145643Y-9223214D01*
X9145643Y-9327976D01*
X9145643Y-9223214D02*
X9155167Y-9204167D01*
X9174214Y-9194643D01*
X9202786Y-9194643D01*
X9221833Y-9204167D01*
X9231357Y-9223214D01*
X9231357Y-9327976D01*
X9621833Y-9118452D02*
X9450405Y-9375595D01*
X9878976Y-9127976D02*
X9898024Y-9127976D01*
X9917071Y-9137500D01*
X9926595Y-9147024D01*
X9936119Y-9166071D01*
X9945643Y-9204167D01*
X9945643Y-9251786D01*
X9936119Y-9289881D01*
X9926595Y-9308929D01*
X9917071Y-9318452D01*
X9898024Y-9327976D01*
X9878976Y-9327976D01*
X9859929Y-9318452D01*
X9850405Y-9308929D01*
X9840881Y-9289881D01*
X9831357Y-9251786D01*
X9831357Y-9204167D01*
X9840881Y-9166071D01*
X9850405Y-9147024D01*
X9859929Y-9137500D01*
X9878976Y-9127976D01*
X10031357Y-9308929D02*
X10040881Y-9318452D01*
X10031357Y-9327976D01*
X10021833Y-9318452D01*
X10031357Y-9308929D01*
X10031357Y-9327976D01*
X10164690Y-9127976D02*
X10183738Y-9127976D01*
X10202786Y-9137500D01*
X10212310Y-9147024D01*
X10221833Y-9166071D01*
X10231357Y-9204167D01*
X10231357Y-9251786D01*
X10221833Y-9289881D01*
X10212310Y-9308929D01*
X10202786Y-9318452D01*
X10183738Y-9327976D01*
X10164690Y-9327976D01*
X10145643Y-9318452D01*
X10136119Y-9308929D01*
X10126595Y-9289881D01*
X10117071Y-9251786D01*
X10117071Y-9204167D01*
X10126595Y-9166071D01*
X10136119Y-9147024D01*
X10145643Y-9137500D01*
X10164690Y-9127976D01*
X10298024Y-9127976D02*
X10421833Y-9127976D01*
X10355167Y-9204167D01*
X10383738Y-9204167D01*
X10402786Y-9213690D01*
X10412310Y-9223214D01*
X10421833Y-9242262D01*
X10421833Y-9289881D01*
X10412310Y-9308929D01*
X10402786Y-9318452D01*
X10383738Y-9327976D01*
X10326595Y-9327976D01*
X10307548Y-9318452D01*
X10298024Y-9308929D01*
X10517071Y-9327976D02*
X10555167Y-9327976D01*
X10574214Y-9318452D01*
X10583738Y-9308929D01*
X10602786Y-9280357D01*
X10612310Y-9242262D01*
X10612310Y-9166071D01*
X10602786Y-9147024D01*
X10593262Y-9137500D01*
X10574214Y-9127976D01*
X10536119Y-9127976D01*
X10517071Y-9137500D01*
X10507548Y-9147024D01*
X10498024Y-9166071D01*
X10498024Y-9213690D01*
X10507548Y-9232738D01*
X10517071Y-9242262D01*
X10536119Y-9251786D01*
X10574214Y-9251786D01*
X10593262Y-9242262D01*
X10602786Y-9232738D01*
X10612310Y-9213690D01*
X10783738Y-9194643D02*
X10783738Y-9327976D01*
X10736119Y-9118452D02*
X10688500Y-9261310D01*
X10812310Y-9261310D01*
X10878976Y-9127976D02*
X10878976Y-9166071D01*
X10955167Y-9127976D02*
X10955167Y-9166071D01*
X11250405Y-9404167D02*
X11240881Y-9394643D01*
X11221833Y-9366071D01*
X11212309Y-9347024D01*
X11202786Y-9318452D01*
X11193262Y-9270833D01*
X11193262Y-9232738D01*
X11202786Y-9185119D01*
X11212309Y-9156548D01*
X11221833Y-9137500D01*
X11240881Y-9108929D01*
X11250405Y-9099405D01*
X11421833Y-9127976D02*
X11326595Y-9127976D01*
X11317071Y-9223214D01*
X11326595Y-9213690D01*
X11345643Y-9204167D01*
X11393262Y-9204167D01*
X11412309Y-9213690D01*
X11421833Y-9223214D01*
X11431357Y-9242262D01*
X11431357Y-9289881D01*
X11421833Y-9308929D01*
X11412309Y-9318452D01*
X11393262Y-9327976D01*
X11345643Y-9327976D01*
X11326595Y-9318452D01*
X11317071Y-9308929D01*
X11669452Y-9327976D02*
X11669452Y-9127976D01*
X11755167Y-9327976D02*
X11755167Y-9223214D01*
X11745643Y-9204167D01*
X11726595Y-9194643D01*
X11698024Y-9194643D01*
X11678976Y-9204167D01*
X11669452Y-9213690D01*
X11878976Y-9327976D02*
X11859928Y-9318452D01*
X11850405Y-9308929D01*
X11840881Y-9289881D01*
X11840881Y-9232738D01*
X11850405Y-9213690D01*
X11859928Y-9204167D01*
X11878976Y-9194643D01*
X11907548Y-9194643D01*
X11926595Y-9204167D01*
X11936119Y-9213690D01*
X11945643Y-9232738D01*
X11945643Y-9289881D01*
X11936119Y-9308929D01*
X11926595Y-9318452D01*
X11907548Y-9327976D01*
X11878976Y-9327976D01*
X12059928Y-9327976D02*
X12040881Y-9318452D01*
X12031357Y-9299405D01*
X12031357Y-9127976D01*
X12212309Y-9318452D02*
X12193262Y-9327976D01*
X12155167Y-9327976D01*
X12136119Y-9318452D01*
X12126595Y-9299405D01*
X12126595Y-9223214D01*
X12136119Y-9204167D01*
X12155167Y-9194643D01*
X12193262Y-9194643D01*
X12212309Y-9204167D01*
X12221833Y-9223214D01*
X12221833Y-9242262D01*
X12126595Y-9261310D01*
X12298024Y-9318452D02*
X12317071Y-9327976D01*
X12355167Y-9327976D01*
X12374214Y-9318452D01*
X12383738Y-9299405D01*
X12383738Y-9289881D01*
X12374214Y-9270833D01*
X12355167Y-9261310D01*
X12326595Y-9261310D01*
X12307548Y-9251786D01*
X12298024Y-9232738D01*
X12298024Y-9223214D01*
X12307548Y-9204167D01*
X12326595Y-9194643D01*
X12355167Y-9194643D01*
X12374214Y-9204167D01*
X12450405Y-9404167D02*
X12459928Y-9394643D01*
X12478976Y-9366071D01*
X12488500Y-9347024D01*
X12498024Y-9318452D01*
X12507548Y-9270833D01*
X12507548Y-9232738D01*
X12498024Y-9185119D01*
X12488500Y-9156548D01*
X12478976Y-9137500D01*
X12459928Y-9108929D01*
X12450405Y-9099405D01*
X7649211Y-9572211D02*
X7649211Y-9430789D01*
X7507789Y-9430789D01*
X7507789Y-9572211D01*
X7649211Y-9572211D01*
X7926595Y-9411024D02*
X7936119Y-9401500D01*
X7955167Y-9391976D01*
X8002786Y-9391976D01*
X8021833Y-9401500D01*
X8031357Y-9411024D01*
X8040881Y-9430071D01*
X8040881Y-9449119D01*
X8031357Y-9477690D01*
X7917071Y-9591976D01*
X8040881Y-9591976D01*
X8126595Y-9572929D02*
X8136119Y-9582452D01*
X8126595Y-9591976D01*
X8117071Y-9582452D01*
X8126595Y-9572929D01*
X8126595Y-9591976D01*
X8259928Y-9391976D02*
X8278976Y-9391976D01*
X8298024Y-9401500D01*
X8307548Y-9411024D01*
X8317071Y-9430071D01*
X8326595Y-9468167D01*
X8326595Y-9515786D01*
X8317071Y-9553881D01*
X8307548Y-9572929D01*
X8298024Y-9582452D01*
X8278976Y-9591976D01*
X8259928Y-9591976D01*
X8240881Y-9582452D01*
X8231357Y-9572929D01*
X8221833Y-9553881D01*
X8212309Y-9515786D01*
X8212309Y-9468167D01*
X8221833Y-9430071D01*
X8231357Y-9411024D01*
X8240881Y-9401500D01*
X8259928Y-9391976D01*
X8450405Y-9391976D02*
X8469452Y-9391976D01*
X8488500Y-9401500D01*
X8498024Y-9411024D01*
X8507548Y-9430071D01*
X8517071Y-9468167D01*
X8517071Y-9515786D01*
X8507548Y-9553881D01*
X8498024Y-9572929D01*
X8488500Y-9582452D01*
X8469452Y-9591976D01*
X8450405Y-9591976D01*
X8431357Y-9582452D01*
X8421833Y-9572929D01*
X8412310Y-9553881D01*
X8402786Y-9515786D01*
X8402786Y-9468167D01*
X8412310Y-9430071D01*
X8421833Y-9411024D01*
X8431357Y-9401500D01*
X8450405Y-9391976D01*
X8640881Y-9391976D02*
X8659929Y-9391976D01*
X8678976Y-9401500D01*
X8688500Y-9411024D01*
X8698024Y-9430071D01*
X8707548Y-9468167D01*
X8707548Y-9515786D01*
X8698024Y-9553881D01*
X8688500Y-9572929D01*
X8678976Y-9582452D01*
X8659929Y-9591976D01*
X8640881Y-9591976D01*
X8621833Y-9582452D01*
X8612310Y-9572929D01*
X8602786Y-9553881D01*
X8593262Y-9515786D01*
X8593262Y-9468167D01*
X8602786Y-9430071D01*
X8612310Y-9411024D01*
X8621833Y-9401500D01*
X8640881Y-9391976D01*
X8793262Y-9591976D02*
X8793262Y-9458643D01*
X8793262Y-9477690D02*
X8802786Y-9468167D01*
X8821833Y-9458643D01*
X8850405Y-9458643D01*
X8869452Y-9468167D01*
X8878976Y-9487214D01*
X8878976Y-9591976D01*
X8878976Y-9487214D02*
X8888500Y-9468167D01*
X8907548Y-9458643D01*
X8936119Y-9458643D01*
X8955167Y-9468167D01*
X8964690Y-9487214D01*
X8964690Y-9591976D01*
X9059929Y-9591976D02*
X9059929Y-9458643D01*
X9059929Y-9477690D02*
X9069452Y-9468167D01*
X9088500Y-9458643D01*
X9117071Y-9458643D01*
X9136119Y-9468167D01*
X9145643Y-9487214D01*
X9145643Y-9591976D01*
X9145643Y-9487214D02*
X9155167Y-9468167D01*
X9174214Y-9458643D01*
X9202786Y-9458643D01*
X9221833Y-9468167D01*
X9231357Y-9487214D01*
X9231357Y-9591976D01*
X9621833Y-9382452D02*
X9450405Y-9639595D01*
X9878976Y-9391976D02*
X9898024Y-9391976D01*
X9917071Y-9401500D01*
X9926595Y-9411024D01*
X9936119Y-9430071D01*
X9945643Y-9468167D01*
X9945643Y-9515786D01*
X9936119Y-9553881D01*
X9926595Y-9572929D01*
X9917071Y-9582452D01*
X9898024Y-9591976D01*
X9878976Y-9591976D01*
X9859929Y-9582452D01*
X9850405Y-9572929D01*
X9840881Y-9553881D01*
X9831357Y-9515786D01*
X9831357Y-9468167D01*
X9840881Y-9430071D01*
X9850405Y-9411024D01*
X9859929Y-9401500D01*
X9878976Y-9391976D01*
X10031357Y-9572929D02*
X10040881Y-9582452D01*
X10031357Y-9591976D01*
X10021833Y-9582452D01*
X10031357Y-9572929D01*
X10031357Y-9591976D01*
X10164690Y-9391976D02*
X10183738Y-9391976D01*
X10202786Y-9401500D01*
X10212310Y-9411024D01*
X10221833Y-9430071D01*
X10231357Y-9468167D01*
X10231357Y-9515786D01*
X10221833Y-9553881D01*
X10212310Y-9572929D01*
X10202786Y-9582452D01*
X10183738Y-9591976D01*
X10164690Y-9591976D01*
X10145643Y-9582452D01*
X10136119Y-9572929D01*
X10126595Y-9553881D01*
X10117071Y-9515786D01*
X10117071Y-9468167D01*
X10126595Y-9430071D01*
X10136119Y-9411024D01*
X10145643Y-9401500D01*
X10164690Y-9391976D01*
X10298024Y-9391976D02*
X10431357Y-9391976D01*
X10345643Y-9591976D01*
X10536119Y-9477690D02*
X10517071Y-9468167D01*
X10507548Y-9458643D01*
X10498024Y-9439595D01*
X10498024Y-9430071D01*
X10507548Y-9411024D01*
X10517071Y-9401500D01*
X10536119Y-9391976D01*
X10574214Y-9391976D01*
X10593262Y-9401500D01*
X10602786Y-9411024D01*
X10612310Y-9430071D01*
X10612310Y-9439595D01*
X10602786Y-9458643D01*
X10593262Y-9468167D01*
X10574214Y-9477690D01*
X10536119Y-9477690D01*
X10517071Y-9487214D01*
X10507548Y-9496738D01*
X10498024Y-9515786D01*
X10498024Y-9553881D01*
X10507548Y-9572929D01*
X10517071Y-9582452D01*
X10536119Y-9591976D01*
X10574214Y-9591976D01*
X10593262Y-9582452D01*
X10602786Y-9572929D01*
X10612310Y-9553881D01*
X10612310Y-9515786D01*
X10602786Y-9496738D01*
X10593262Y-9487214D01*
X10574214Y-9477690D01*
X10678976Y-9391976D02*
X10812310Y-9391976D01*
X10726595Y-9591976D01*
X10878976Y-9391976D02*
X10878976Y-9430071D01*
X10955167Y-9391976D02*
X10955167Y-9430071D01*
X11250405Y-9668167D02*
X11240881Y-9658643D01*
X11221833Y-9630071D01*
X11212309Y-9611024D01*
X11202786Y-9582452D01*
X11193262Y-9534833D01*
X11193262Y-9496738D01*
X11202786Y-9449119D01*
X11212309Y-9420548D01*
X11221833Y-9401500D01*
X11240881Y-9372929D01*
X11250405Y-9363405D01*
X11421833Y-9391976D02*
X11326595Y-9391976D01*
X11317071Y-9487214D01*
X11326595Y-9477690D01*
X11345643Y-9468167D01*
X11393262Y-9468167D01*
X11412309Y-9477690D01*
X11421833Y-9487214D01*
X11431357Y-9506262D01*
X11431357Y-9553881D01*
X11421833Y-9572929D01*
X11412309Y-9582452D01*
X11393262Y-9591976D01*
X11345643Y-9591976D01*
X11326595Y-9582452D01*
X11317071Y-9572929D01*
X11669452Y-9591976D02*
X11669452Y-9391976D01*
X11755167Y-9591976D02*
X11755167Y-9487214D01*
X11745643Y-9468167D01*
X11726595Y-9458643D01*
X11698024Y-9458643D01*
X11678976Y-9468167D01*
X11669452Y-9477690D01*
X11878976Y-9591976D02*
X11859928Y-9582452D01*
X11850405Y-9572929D01*
X11840881Y-9553881D01*
X11840881Y-9496738D01*
X11850405Y-9477690D01*
X11859928Y-9468167D01*
X11878976Y-9458643D01*
X11907548Y-9458643D01*
X11926595Y-9468167D01*
X11936119Y-9477690D01*
X11945643Y-9496738D01*
X11945643Y-9553881D01*
X11936119Y-9572929D01*
X11926595Y-9582452D01*
X11907548Y-9591976D01*
X11878976Y-9591976D01*
X12059928Y-9591976D02*
X12040881Y-9582452D01*
X12031357Y-9563405D01*
X12031357Y-9391976D01*
X12212309Y-9582452D02*
X12193262Y-9591976D01*
X12155167Y-9591976D01*
X12136119Y-9582452D01*
X12126595Y-9563405D01*
X12126595Y-9487214D01*
X12136119Y-9468167D01*
X12155167Y-9458643D01*
X12193262Y-9458643D01*
X12212309Y-9468167D01*
X12221833Y-9487214D01*
X12221833Y-9506262D01*
X12126595Y-9525310D01*
X12298024Y-9582452D02*
X12317071Y-9591976D01*
X12355167Y-9591976D01*
X12374214Y-9582452D01*
X12383738Y-9563405D01*
X12383738Y-9553881D01*
X12374214Y-9534833D01*
X12355167Y-9525310D01*
X12326595Y-9525310D01*
X12307548Y-9515786D01*
X12298024Y-9496738D01*
X12298024Y-9487214D01*
X12307548Y-9468167D01*
X12326595Y-9458643D01*
X12355167Y-9458643D01*
X12374214Y-9468167D01*
X12450405Y-9668167D02*
X12459928Y-9658643D01*
X12478976Y-9630071D01*
X12488500Y-9611024D01*
X12498024Y-9582452D01*
X12507548Y-9534833D01*
X12507548Y-9496738D01*
X12498024Y-9449119D01*
X12488500Y-9420548D01*
X12478976Y-9401500D01*
X12459928Y-9372929D01*
X12450405Y-9363405D01*
M02*
