G04 #@! TF.GenerationSoftware,KiCad,Pcbnew,5.1.10-1.fc32*
G04 #@! TF.CreationDate,2021-08-09T17:43:32+02:00*
G04 #@! TF.ProjectId,esc_brushless,6573635f-6272-4757-9368-6c6573732e6b,rev?*
G04 #@! TF.SameCoordinates,Original*
G04 #@! TF.FileFunction,Copper,L3,Inr*
G04 #@! TF.FilePolarity,Positive*
%FSLAX46Y46*%
G04 Gerber Fmt 4.6, Leading zero omitted, Abs format (unit mm)*
G04 Created by KiCad (PCBNEW 5.1.10-1.fc32) date 2021-08-09 17:43:32*
%MOMM*%
%LPD*%
G01*
G04 APERTURE LIST*
G04 #@! TA.AperFunction,ComponentPad*
%ADD10R,3.400000X3.400000*%
G04 #@! TD*
G04 #@! TA.AperFunction,ComponentPad*
%ADD11R,1.700000X1.700000*%
G04 #@! TD*
G04 #@! TA.AperFunction,ComponentPad*
%ADD12O,1.700000X1.700000*%
G04 #@! TD*
G04 #@! TA.AperFunction,ViaPad*
%ADD13C,0.600000*%
G04 #@! TD*
G04 #@! TA.AperFunction,ViaPad*
%ADD14C,0.800000*%
G04 #@! TD*
G04 #@! TA.AperFunction,Conductor*
%ADD15C,0.381000*%
G04 #@! TD*
G04 #@! TA.AperFunction,Conductor*
%ADD16C,0.762000*%
G04 #@! TD*
G04 #@! TA.AperFunction,Conductor*
%ADD17C,0.254000*%
G04 #@! TD*
G04 #@! TA.AperFunction,Conductor*
%ADD18C,0.100000*%
G04 #@! TD*
G04 APERTURE END LIST*
D10*
X192278000Y-95885000D03*
X192278000Y-116205000D03*
D11*
X191643000Y-105537000D03*
D12*
X191643000Y-108077000D03*
X191643000Y-110617000D03*
D11*
X197866000Y-116459000D03*
D12*
X200406000Y-116459000D03*
D10*
X250825000Y-112649000D03*
X250825000Y-104267000D03*
X250825000Y-95631000D03*
D13*
X247332500Y-93535500D03*
X247459500Y-102489000D03*
X246126000Y-102489000D03*
X245872000Y-93535500D03*
X234061000Y-109728000D03*
X229235000Y-104775000D03*
X212979000Y-105029000D03*
X213487000Y-114427000D03*
X215646000Y-115189000D03*
X215646000Y-115951000D03*
X230251000Y-117602000D03*
X228727000Y-117602000D03*
X230251000Y-107950000D03*
X228600000Y-107950000D03*
X193066500Y-102362000D03*
X204496500Y-112522000D03*
X211709000Y-92075000D03*
X190881000Y-92075000D03*
X203962000Y-92075000D03*
X206629000Y-100838000D03*
X227719250Y-96765750D03*
X239268000Y-109728000D03*
X235458000Y-105156000D03*
X207772000Y-119888000D03*
X222123000Y-119888000D03*
X251333000Y-119888000D03*
X252857000Y-108331000D03*
X252857000Y-99695000D03*
X250825000Y-92075000D03*
X229489000Y-92075000D03*
D14*
X201168000Y-94678500D03*
D13*
X198220500Y-106680000D03*
X206565500Y-106997500D03*
X217805000Y-106680000D03*
X228727000Y-111760000D03*
X230251000Y-111760000D03*
X228600000Y-101854000D03*
X230251000Y-101854000D03*
X225180010Y-108975010D03*
X218821000Y-116078000D03*
X218821000Y-115189000D03*
X246761000Y-105448500D03*
X245833500Y-105448500D03*
X246976500Y-113703500D03*
X246087500Y-113703500D03*
X246634000Y-96685500D03*
X245833500Y-96685500D03*
D14*
X220980000Y-101954500D03*
D13*
X215265000Y-111252000D03*
X215265000Y-113157000D03*
X217805000Y-105791000D03*
X221551500Y-108394500D03*
X221501250Y-110857750D03*
X217170000Y-102870000D03*
X217170000Y-103759000D03*
X217678000Y-101600000D03*
X212979000Y-106680000D03*
X211836000Y-96266000D03*
X191389000Y-101092000D03*
X192786000Y-103378000D03*
D14*
X200218000Y-93533000D03*
D13*
X195453000Y-100711000D03*
X195453000Y-99885500D03*
X194945000Y-113892500D03*
X206502000Y-98361500D03*
X208216500Y-117475000D03*
X223710500Y-106426000D03*
D14*
X209232500Y-111379000D03*
X194437000Y-99060000D03*
X194437000Y-99949000D03*
D13*
X196469000Y-106553000D03*
X196469000Y-104902000D03*
X196469000Y-105791000D03*
X212979000Y-107823000D03*
D14*
X211899500Y-94488000D03*
D13*
X203200000Y-100584000D03*
X201930000Y-100457000D03*
X222885000Y-115570000D03*
X217805000Y-104648000D03*
X217805000Y-107696000D03*
X217805000Y-110236000D03*
X200406000Y-105537000D03*
X201549000Y-104013000D03*
X201676000Y-107696000D03*
X212979000Y-108966000D03*
X201676000Y-108585000D03*
X212979000Y-110236000D03*
X199136000Y-108966000D03*
X200406000Y-108966000D03*
X196596000Y-108966000D03*
X197866000Y-108966000D03*
X226441000Y-111760000D03*
X226441000Y-117602000D03*
X221742000Y-114046000D03*
X221742000Y-115062000D03*
D15*
X192786000Y-103378000D02*
X193738500Y-103378000D01*
X194945000Y-104584500D02*
X194945000Y-113892500D01*
X193738500Y-103378000D02*
X194945000Y-104584500D01*
X209740500Y-98361500D02*
X211836000Y-96266000D01*
X206502000Y-98361500D02*
X209740500Y-98361500D01*
D16*
X196532500Y-104838500D02*
X196469000Y-104902000D01*
X196469000Y-104902000D02*
X196469000Y-105791000D01*
X196469000Y-105791000D02*
X196469000Y-106553000D01*
X194437000Y-99949000D02*
X194437000Y-99060000D01*
X194437000Y-101981000D02*
X196532500Y-104076500D01*
X194437000Y-99949000D02*
X194437000Y-101981000D01*
X196532500Y-104076500D02*
X196532500Y-104838500D01*
D15*
X208216500Y-117475000D02*
X222885000Y-117475000D01*
X223575501Y-106560999D02*
X223710500Y-106426000D01*
X223575501Y-116784499D02*
X223575501Y-106560999D01*
X222885000Y-117475000D02*
X223575501Y-116784499D01*
X198551941Y-105989499D02*
X199242442Y-106680000D01*
X197032501Y-105989499D02*
X198551941Y-105989499D01*
X196469000Y-106553000D02*
X197032501Y-105989499D01*
X199242442Y-106680000D02*
X203390500Y-106680000D01*
X203390500Y-106680000D02*
X204406500Y-107696000D01*
X204406500Y-107696000D02*
X204406500Y-109791500D01*
X204406500Y-109791500D02*
X205994000Y-111379000D01*
X208343500Y-111379000D02*
X209232500Y-111379000D01*
X205994000Y-111379000D02*
X208343500Y-111379000D01*
X209232500Y-113347500D02*
X208216500Y-114363500D01*
X209232500Y-111379000D02*
X209232500Y-113347500D01*
X208216500Y-117475000D02*
X208216500Y-114363500D01*
X212979000Y-107823000D02*
X210693000Y-107823000D01*
X209232500Y-109283500D02*
X209232500Y-111379000D01*
X210693000Y-107823000D02*
X209232500Y-109283500D01*
D17*
X189981932Y-91802271D02*
X189946000Y-91982911D01*
X189946000Y-92167089D01*
X189981932Y-92347729D01*
X190052414Y-92517889D01*
X190154738Y-92671028D01*
X190284972Y-92801262D01*
X190438111Y-92903586D01*
X190608271Y-92974068D01*
X190788911Y-93010000D01*
X190973089Y-93010000D01*
X191153729Y-92974068D01*
X191323889Y-92903586D01*
X191477028Y-92801262D01*
X191607262Y-92671028D01*
X191709586Y-92517889D01*
X191780068Y-92347729D01*
X191816000Y-92167089D01*
X191816000Y-91982911D01*
X191780068Y-91802271D01*
X191755932Y-91744000D01*
X203087068Y-91744000D01*
X203062932Y-91802271D01*
X203027000Y-91982911D01*
X203027000Y-92167089D01*
X203062932Y-92347729D01*
X203133414Y-92517889D01*
X203235738Y-92671028D01*
X203365972Y-92801262D01*
X203519111Y-92903586D01*
X203689271Y-92974068D01*
X203869911Y-93010000D01*
X204054089Y-93010000D01*
X204234729Y-92974068D01*
X204404889Y-92903586D01*
X204558028Y-92801262D01*
X204688262Y-92671028D01*
X204790586Y-92517889D01*
X204861068Y-92347729D01*
X204897000Y-92167089D01*
X204897000Y-91982911D01*
X204861068Y-91802271D01*
X204836932Y-91744000D01*
X210834068Y-91744000D01*
X210809932Y-91802271D01*
X210774000Y-91982911D01*
X210774000Y-92167089D01*
X210809932Y-92347729D01*
X210880414Y-92517889D01*
X210982738Y-92671028D01*
X211112972Y-92801262D01*
X211266111Y-92903586D01*
X211436271Y-92974068D01*
X211616911Y-93010000D01*
X211801089Y-93010000D01*
X211981729Y-92974068D01*
X212151889Y-92903586D01*
X212305028Y-92801262D01*
X212435262Y-92671028D01*
X212537586Y-92517889D01*
X212608068Y-92347729D01*
X212644000Y-92167089D01*
X212644000Y-91982911D01*
X212608068Y-91802271D01*
X212583932Y-91744000D01*
X228614068Y-91744000D01*
X228589932Y-91802271D01*
X228554000Y-91982911D01*
X228554000Y-92167089D01*
X228589932Y-92347729D01*
X228660414Y-92517889D01*
X228762738Y-92671028D01*
X228892972Y-92801262D01*
X229046111Y-92903586D01*
X229216271Y-92974068D01*
X229396911Y-93010000D01*
X229581089Y-93010000D01*
X229761729Y-92974068D01*
X229931889Y-92903586D01*
X230085028Y-92801262D01*
X230215262Y-92671028D01*
X230317586Y-92517889D01*
X230388068Y-92347729D01*
X230424000Y-92167089D01*
X230424000Y-91982911D01*
X230388068Y-91802271D01*
X230363932Y-91744000D01*
X249950068Y-91744000D01*
X249925932Y-91802271D01*
X249890000Y-91982911D01*
X249890000Y-92167089D01*
X249925932Y-92347729D01*
X249996414Y-92517889D01*
X250098738Y-92671028D01*
X250228972Y-92801262D01*
X250382111Y-92903586D01*
X250552271Y-92974068D01*
X250732911Y-93010000D01*
X250917089Y-93010000D01*
X251097729Y-92974068D01*
X251267889Y-92903586D01*
X251421028Y-92801262D01*
X251551262Y-92671028D01*
X251653586Y-92517889D01*
X251724068Y-92347729D01*
X251760000Y-92167089D01*
X251760000Y-91982911D01*
X251724068Y-91802271D01*
X251699932Y-91744000D01*
X253188001Y-91744000D01*
X253188001Y-98820069D01*
X253129729Y-98795932D01*
X252949089Y-98760000D01*
X252764911Y-98760000D01*
X252584271Y-98795932D01*
X252414111Y-98866414D01*
X252260972Y-98968738D01*
X252130738Y-99098972D01*
X252028414Y-99252111D01*
X251957932Y-99422271D01*
X251922000Y-99602911D01*
X251922000Y-99787089D01*
X251957932Y-99967729D01*
X252028414Y-100137889D01*
X252130738Y-100291028D01*
X252260972Y-100421262D01*
X252414111Y-100523586D01*
X252584271Y-100594068D01*
X252764911Y-100630000D01*
X252949089Y-100630000D01*
X253129729Y-100594068D01*
X253188001Y-100569931D01*
X253188000Y-107456069D01*
X253129729Y-107431932D01*
X252949089Y-107396000D01*
X252764911Y-107396000D01*
X252584271Y-107431932D01*
X252414111Y-107502414D01*
X252260972Y-107604738D01*
X252130738Y-107734972D01*
X252028414Y-107888111D01*
X251957932Y-108058271D01*
X251922000Y-108238911D01*
X251922000Y-108423089D01*
X251957932Y-108603729D01*
X252028414Y-108773889D01*
X252130738Y-108927028D01*
X252260972Y-109057262D01*
X252414111Y-109159586D01*
X252584271Y-109230068D01*
X252764911Y-109266000D01*
X252949089Y-109266000D01*
X253129729Y-109230068D01*
X253188000Y-109205931D01*
X253188000Y-120219000D01*
X252207932Y-120219000D01*
X252232068Y-120160729D01*
X252268000Y-119980089D01*
X252268000Y-119795911D01*
X252232068Y-119615271D01*
X252161586Y-119445111D01*
X252059262Y-119291972D01*
X251929028Y-119161738D01*
X251775889Y-119059414D01*
X251605729Y-118988932D01*
X251425089Y-118953000D01*
X251240911Y-118953000D01*
X251060271Y-118988932D01*
X250890111Y-119059414D01*
X250736972Y-119161738D01*
X250606738Y-119291972D01*
X250504414Y-119445111D01*
X250433932Y-119615271D01*
X250398000Y-119795911D01*
X250398000Y-119980089D01*
X250433932Y-120160729D01*
X250458068Y-120219000D01*
X222997932Y-120219000D01*
X223022068Y-120160729D01*
X223058000Y-119980089D01*
X223058000Y-119795911D01*
X223022068Y-119615271D01*
X222951586Y-119445111D01*
X222849262Y-119291972D01*
X222719028Y-119161738D01*
X222565889Y-119059414D01*
X222395729Y-118988932D01*
X222215089Y-118953000D01*
X222030911Y-118953000D01*
X221850271Y-118988932D01*
X221680111Y-119059414D01*
X221526972Y-119161738D01*
X221396738Y-119291972D01*
X221294414Y-119445111D01*
X221223932Y-119615271D01*
X221188000Y-119795911D01*
X221188000Y-119980089D01*
X221223932Y-120160729D01*
X221248068Y-120219000D01*
X208646932Y-120219000D01*
X208671068Y-120160729D01*
X208707000Y-119980089D01*
X208707000Y-119795911D01*
X208671068Y-119615271D01*
X208600586Y-119445111D01*
X208498262Y-119291972D01*
X208368028Y-119161738D01*
X208214889Y-119059414D01*
X208044729Y-118988932D01*
X207864089Y-118953000D01*
X207679911Y-118953000D01*
X207499271Y-118988932D01*
X207329111Y-119059414D01*
X207175972Y-119161738D01*
X207045738Y-119291972D01*
X206943414Y-119445111D01*
X206872932Y-119615271D01*
X206837000Y-119795911D01*
X206837000Y-119980089D01*
X206872932Y-120160729D01*
X206897068Y-120219000D01*
X189915000Y-120219000D01*
X189915000Y-114505000D01*
X189939928Y-114505000D01*
X189939928Y-117905000D01*
X189952188Y-118029482D01*
X189988498Y-118149180D01*
X190047463Y-118259494D01*
X190126815Y-118356185D01*
X190223506Y-118435537D01*
X190333820Y-118494502D01*
X190453518Y-118530812D01*
X190578000Y-118543072D01*
X193978000Y-118543072D01*
X194102482Y-118530812D01*
X194222180Y-118494502D01*
X194332494Y-118435537D01*
X194429185Y-118356185D01*
X194508537Y-118259494D01*
X194567502Y-118149180D01*
X194603812Y-118029482D01*
X194616072Y-117905000D01*
X194616072Y-115609000D01*
X196377928Y-115609000D01*
X196377928Y-117309000D01*
X196390188Y-117433482D01*
X196426498Y-117553180D01*
X196485463Y-117663494D01*
X196564815Y-117760185D01*
X196661506Y-117839537D01*
X196771820Y-117898502D01*
X196891518Y-117934812D01*
X197016000Y-117947072D01*
X198716000Y-117947072D01*
X198840482Y-117934812D01*
X198960180Y-117898502D01*
X199070494Y-117839537D01*
X199167185Y-117760185D01*
X199246537Y-117663494D01*
X199305502Y-117553180D01*
X199327513Y-117480620D01*
X199459368Y-117612475D01*
X199702589Y-117774990D01*
X199972842Y-117886932D01*
X200259740Y-117944000D01*
X200552260Y-117944000D01*
X200839158Y-117886932D01*
X201109411Y-117774990D01*
X201352632Y-117612475D01*
X201559475Y-117405632D01*
X201721990Y-117162411D01*
X201833932Y-116892158D01*
X201891000Y-116605260D01*
X201891000Y-116312740D01*
X201833932Y-116025842D01*
X201721990Y-115755589D01*
X201559475Y-115512368D01*
X201352632Y-115305525D01*
X201109411Y-115143010D01*
X200839158Y-115031068D01*
X200552260Y-114974000D01*
X200259740Y-114974000D01*
X199972842Y-115031068D01*
X199702589Y-115143010D01*
X199459368Y-115305525D01*
X199327513Y-115437380D01*
X199305502Y-115364820D01*
X199246537Y-115254506D01*
X199167185Y-115157815D01*
X199070494Y-115078463D01*
X198960180Y-115019498D01*
X198840482Y-114983188D01*
X198716000Y-114970928D01*
X197016000Y-114970928D01*
X196891518Y-114983188D01*
X196771820Y-115019498D01*
X196661506Y-115078463D01*
X196564815Y-115157815D01*
X196485463Y-115254506D01*
X196426498Y-115364820D01*
X196390188Y-115484518D01*
X196377928Y-115609000D01*
X194616072Y-115609000D01*
X194616072Y-114768290D01*
X194672271Y-114791568D01*
X194852911Y-114827500D01*
X195037089Y-114827500D01*
X195217729Y-114791568D01*
X195387889Y-114721086D01*
X195541028Y-114618762D01*
X195671262Y-114488528D01*
X195773586Y-114335389D01*
X195844068Y-114165229D01*
X195880000Y-113984589D01*
X195880000Y-113800411D01*
X195844068Y-113619771D01*
X195773586Y-113449611D01*
X195770500Y-113444992D01*
X195770500Y-112429911D01*
X203561500Y-112429911D01*
X203561500Y-112614089D01*
X203597432Y-112794729D01*
X203667914Y-112964889D01*
X203770238Y-113118028D01*
X203900472Y-113248262D01*
X204053611Y-113350586D01*
X204223771Y-113421068D01*
X204404411Y-113457000D01*
X204588589Y-113457000D01*
X204769229Y-113421068D01*
X204939389Y-113350586D01*
X205092528Y-113248262D01*
X205222762Y-113118028D01*
X205325086Y-112964889D01*
X205395568Y-112794729D01*
X205431500Y-112614089D01*
X205431500Y-112429911D01*
X205395568Y-112249271D01*
X205325086Y-112079111D01*
X205222762Y-111925972D01*
X205092528Y-111795738D01*
X204939389Y-111693414D01*
X204769229Y-111622932D01*
X204588589Y-111587000D01*
X204404411Y-111587000D01*
X204223771Y-111622932D01*
X204053611Y-111693414D01*
X203900472Y-111795738D01*
X203770238Y-111925972D01*
X203667914Y-112079111D01*
X203597432Y-112249271D01*
X203561500Y-112429911D01*
X195770500Y-112429911D01*
X195770500Y-109413508D01*
X195869738Y-109562028D01*
X195999972Y-109692262D01*
X196153111Y-109794586D01*
X196323271Y-109865068D01*
X196503911Y-109901000D01*
X196688089Y-109901000D01*
X196868729Y-109865068D01*
X197038889Y-109794586D01*
X197192028Y-109692262D01*
X197231000Y-109653290D01*
X197269972Y-109692262D01*
X197423111Y-109794586D01*
X197593271Y-109865068D01*
X197773911Y-109901000D01*
X197958089Y-109901000D01*
X198138729Y-109865068D01*
X198308889Y-109794586D01*
X198462028Y-109692262D01*
X198501000Y-109653290D01*
X198539972Y-109692262D01*
X198693111Y-109794586D01*
X198863271Y-109865068D01*
X199043911Y-109901000D01*
X199228089Y-109901000D01*
X199408729Y-109865068D01*
X199578889Y-109794586D01*
X199732028Y-109692262D01*
X199771000Y-109653290D01*
X199809972Y-109692262D01*
X199963111Y-109794586D01*
X200133271Y-109865068D01*
X200313911Y-109901000D01*
X200498089Y-109901000D01*
X200678729Y-109865068D01*
X200848889Y-109794586D01*
X201002028Y-109692262D01*
X201132262Y-109562028D01*
X201231961Y-109412818D01*
X201233111Y-109413586D01*
X201403271Y-109484068D01*
X201583911Y-109520000D01*
X201768089Y-109520000D01*
X201948729Y-109484068D01*
X202118889Y-109413586D01*
X202272028Y-109311262D01*
X202402262Y-109181028D01*
X202504586Y-109027889D01*
X202575068Y-108857729D01*
X202611000Y-108677089D01*
X202611000Y-108492911D01*
X202575068Y-108312271D01*
X202504586Y-108142111D01*
X202503510Y-108140500D01*
X202504586Y-108138889D01*
X202575068Y-107968729D01*
X202611000Y-107788089D01*
X202611000Y-107603911D01*
X202591425Y-107505500D01*
X203048568Y-107505500D01*
X203581000Y-108037933D01*
X203581001Y-109750940D01*
X203577006Y-109791500D01*
X203592945Y-109953326D01*
X203640147Y-110108933D01*
X203716801Y-110252342D01*
X203775633Y-110324028D01*
X203819960Y-110378041D01*
X203851461Y-110403893D01*
X205381606Y-111934039D01*
X205407459Y-111965541D01*
X205471596Y-112018177D01*
X205533157Y-112068699D01*
X205595459Y-112102000D01*
X205676566Y-112145353D01*
X205832174Y-112192556D01*
X205953447Y-112204500D01*
X205953449Y-112204500D01*
X205993999Y-112208494D01*
X206034550Y-112204500D01*
X208407000Y-112204500D01*
X208407001Y-113005566D01*
X207661461Y-113751107D01*
X207629960Y-113776959D01*
X207604109Y-113808459D01*
X207526801Y-113902658D01*
X207450147Y-114046067D01*
X207402945Y-114201674D01*
X207387006Y-114363500D01*
X207391001Y-114404060D01*
X207391000Y-117027492D01*
X207387914Y-117032111D01*
X207317432Y-117202271D01*
X207281500Y-117382911D01*
X207281500Y-117567089D01*
X207317432Y-117747729D01*
X207387914Y-117917889D01*
X207490238Y-118071028D01*
X207620472Y-118201262D01*
X207773611Y-118303586D01*
X207943771Y-118374068D01*
X208124411Y-118410000D01*
X208308589Y-118410000D01*
X208489229Y-118374068D01*
X208659389Y-118303586D01*
X208664008Y-118300500D01*
X222844450Y-118300500D01*
X222885000Y-118304494D01*
X222925550Y-118300500D01*
X222925553Y-118300500D01*
X223046826Y-118288556D01*
X223202434Y-118241353D01*
X223345842Y-118164699D01*
X223471541Y-118061541D01*
X223497397Y-118030035D01*
X224017521Y-117509911D01*
X225506000Y-117509911D01*
X225506000Y-117694089D01*
X225541932Y-117874729D01*
X225612414Y-118044889D01*
X225714738Y-118198028D01*
X225844972Y-118328262D01*
X225998111Y-118430586D01*
X226168271Y-118501068D01*
X226348911Y-118537000D01*
X226533089Y-118537000D01*
X226713729Y-118501068D01*
X226883889Y-118430586D01*
X227037028Y-118328262D01*
X227167262Y-118198028D01*
X227269586Y-118044889D01*
X227340068Y-117874729D01*
X227376000Y-117694089D01*
X227376000Y-117509911D01*
X227792000Y-117509911D01*
X227792000Y-117694089D01*
X227827932Y-117874729D01*
X227898414Y-118044889D01*
X228000738Y-118198028D01*
X228130972Y-118328262D01*
X228284111Y-118430586D01*
X228454271Y-118501068D01*
X228634911Y-118537000D01*
X228819089Y-118537000D01*
X228999729Y-118501068D01*
X229169889Y-118430586D01*
X229323028Y-118328262D01*
X229453262Y-118198028D01*
X229489000Y-118144542D01*
X229524738Y-118198028D01*
X229654972Y-118328262D01*
X229808111Y-118430586D01*
X229978271Y-118501068D01*
X230158911Y-118537000D01*
X230343089Y-118537000D01*
X230523729Y-118501068D01*
X230693889Y-118430586D01*
X230847028Y-118328262D01*
X230977262Y-118198028D01*
X231079586Y-118044889D01*
X231150068Y-117874729D01*
X231186000Y-117694089D01*
X231186000Y-117509911D01*
X231150068Y-117329271D01*
X231079586Y-117159111D01*
X230977262Y-117005972D01*
X230847028Y-116875738D01*
X230693889Y-116773414D01*
X230523729Y-116702932D01*
X230343089Y-116667000D01*
X230158911Y-116667000D01*
X229978271Y-116702932D01*
X229808111Y-116773414D01*
X229654972Y-116875738D01*
X229524738Y-117005972D01*
X229489000Y-117059458D01*
X229453262Y-117005972D01*
X229323028Y-116875738D01*
X229169889Y-116773414D01*
X228999729Y-116702932D01*
X228819089Y-116667000D01*
X228634911Y-116667000D01*
X228454271Y-116702932D01*
X228284111Y-116773414D01*
X228130972Y-116875738D01*
X228000738Y-117005972D01*
X227898414Y-117159111D01*
X227827932Y-117329271D01*
X227792000Y-117509911D01*
X227376000Y-117509911D01*
X227340068Y-117329271D01*
X227269586Y-117159111D01*
X227167262Y-117005972D01*
X227037028Y-116875738D01*
X226883889Y-116773414D01*
X226713729Y-116702932D01*
X226533089Y-116667000D01*
X226348911Y-116667000D01*
X226168271Y-116702932D01*
X225998111Y-116773414D01*
X225844972Y-116875738D01*
X225714738Y-117005972D01*
X225612414Y-117159111D01*
X225541932Y-117329271D01*
X225506000Y-117509911D01*
X224017521Y-117509911D01*
X224130546Y-117396887D01*
X224162042Y-117371040D01*
X224187890Y-117339544D01*
X224187893Y-117339541D01*
X224265200Y-117245342D01*
X224341854Y-117101933D01*
X224370963Y-117005972D01*
X224389057Y-116946325D01*
X224401001Y-116825052D01*
X224401001Y-116825050D01*
X224404995Y-116784499D01*
X224401001Y-116743949D01*
X224401001Y-111667911D01*
X225506000Y-111667911D01*
X225506000Y-111852089D01*
X225541932Y-112032729D01*
X225612414Y-112202889D01*
X225714738Y-112356028D01*
X225844972Y-112486262D01*
X225998111Y-112588586D01*
X226168271Y-112659068D01*
X226348911Y-112695000D01*
X226533089Y-112695000D01*
X226713729Y-112659068D01*
X226883889Y-112588586D01*
X227037028Y-112486262D01*
X227167262Y-112356028D01*
X227269586Y-112202889D01*
X227340068Y-112032729D01*
X227376000Y-111852089D01*
X227376000Y-111667911D01*
X227792000Y-111667911D01*
X227792000Y-111852089D01*
X227827932Y-112032729D01*
X227898414Y-112202889D01*
X228000738Y-112356028D01*
X228130972Y-112486262D01*
X228284111Y-112588586D01*
X228454271Y-112659068D01*
X228634911Y-112695000D01*
X228819089Y-112695000D01*
X228999729Y-112659068D01*
X229169889Y-112588586D01*
X229323028Y-112486262D01*
X229453262Y-112356028D01*
X229489000Y-112302542D01*
X229524738Y-112356028D01*
X229654972Y-112486262D01*
X229808111Y-112588586D01*
X229978271Y-112659068D01*
X230158911Y-112695000D01*
X230343089Y-112695000D01*
X230523729Y-112659068D01*
X230693889Y-112588586D01*
X230847028Y-112486262D01*
X230977262Y-112356028D01*
X231079586Y-112202889D01*
X231150068Y-112032729D01*
X231186000Y-111852089D01*
X231186000Y-111667911D01*
X231150068Y-111487271D01*
X231079586Y-111317111D01*
X230977262Y-111163972D01*
X230847028Y-111033738D01*
X230720209Y-110949000D01*
X248486928Y-110949000D01*
X248486928Y-114349000D01*
X248499188Y-114473482D01*
X248535498Y-114593180D01*
X248594463Y-114703494D01*
X248673815Y-114800185D01*
X248770506Y-114879537D01*
X248880820Y-114938502D01*
X249000518Y-114974812D01*
X249125000Y-114987072D01*
X252525000Y-114987072D01*
X252649482Y-114974812D01*
X252769180Y-114938502D01*
X252879494Y-114879537D01*
X252976185Y-114800185D01*
X253055537Y-114703494D01*
X253114502Y-114593180D01*
X253150812Y-114473482D01*
X253163072Y-114349000D01*
X253163072Y-110949000D01*
X253150812Y-110824518D01*
X253114502Y-110704820D01*
X253055537Y-110594506D01*
X252976185Y-110497815D01*
X252879494Y-110418463D01*
X252769180Y-110359498D01*
X252649482Y-110323188D01*
X252525000Y-110310928D01*
X249125000Y-110310928D01*
X249000518Y-110323188D01*
X248880820Y-110359498D01*
X248770506Y-110418463D01*
X248673815Y-110497815D01*
X248594463Y-110594506D01*
X248535498Y-110704820D01*
X248499188Y-110824518D01*
X248486928Y-110949000D01*
X230720209Y-110949000D01*
X230693889Y-110931414D01*
X230523729Y-110860932D01*
X230343089Y-110825000D01*
X230158911Y-110825000D01*
X229978271Y-110860932D01*
X229808111Y-110931414D01*
X229654972Y-111033738D01*
X229524738Y-111163972D01*
X229489000Y-111217458D01*
X229453262Y-111163972D01*
X229323028Y-111033738D01*
X229169889Y-110931414D01*
X228999729Y-110860932D01*
X228819089Y-110825000D01*
X228634911Y-110825000D01*
X228454271Y-110860932D01*
X228284111Y-110931414D01*
X228130972Y-111033738D01*
X228000738Y-111163972D01*
X227898414Y-111317111D01*
X227827932Y-111487271D01*
X227792000Y-111667911D01*
X227376000Y-111667911D01*
X227340068Y-111487271D01*
X227269586Y-111317111D01*
X227167262Y-111163972D01*
X227037028Y-111033738D01*
X226883889Y-110931414D01*
X226713729Y-110860932D01*
X226533089Y-110825000D01*
X226348911Y-110825000D01*
X226168271Y-110860932D01*
X225998111Y-110931414D01*
X225844972Y-111033738D01*
X225714738Y-111163972D01*
X225612414Y-111317111D01*
X225541932Y-111487271D01*
X225506000Y-111667911D01*
X224401001Y-111667911D01*
X224401001Y-109492096D01*
X224453748Y-109571038D01*
X224583982Y-109701272D01*
X224737121Y-109803596D01*
X224907281Y-109874078D01*
X225087921Y-109910010D01*
X225272099Y-109910010D01*
X225452739Y-109874078D01*
X225622899Y-109803596D01*
X225776038Y-109701272D01*
X225841399Y-109635911D01*
X233126000Y-109635911D01*
X233126000Y-109820089D01*
X233161932Y-110000729D01*
X233232414Y-110170889D01*
X233334738Y-110324028D01*
X233464972Y-110454262D01*
X233618111Y-110556586D01*
X233788271Y-110627068D01*
X233968911Y-110663000D01*
X234153089Y-110663000D01*
X234333729Y-110627068D01*
X234503889Y-110556586D01*
X234657028Y-110454262D01*
X234787262Y-110324028D01*
X234889586Y-110170889D01*
X234960068Y-110000729D01*
X234996000Y-109820089D01*
X234996000Y-109635911D01*
X238333000Y-109635911D01*
X238333000Y-109820089D01*
X238368932Y-110000729D01*
X238439414Y-110170889D01*
X238541738Y-110324028D01*
X238671972Y-110454262D01*
X238825111Y-110556586D01*
X238995271Y-110627068D01*
X239175911Y-110663000D01*
X239360089Y-110663000D01*
X239540729Y-110627068D01*
X239710889Y-110556586D01*
X239864028Y-110454262D01*
X239994262Y-110324028D01*
X240096586Y-110170889D01*
X240167068Y-110000729D01*
X240203000Y-109820089D01*
X240203000Y-109635911D01*
X240167068Y-109455271D01*
X240096586Y-109285111D01*
X239994262Y-109131972D01*
X239864028Y-109001738D01*
X239710889Y-108899414D01*
X239540729Y-108828932D01*
X239360089Y-108793000D01*
X239175911Y-108793000D01*
X238995271Y-108828932D01*
X238825111Y-108899414D01*
X238671972Y-109001738D01*
X238541738Y-109131972D01*
X238439414Y-109285111D01*
X238368932Y-109455271D01*
X238333000Y-109635911D01*
X234996000Y-109635911D01*
X234960068Y-109455271D01*
X234889586Y-109285111D01*
X234787262Y-109131972D01*
X234657028Y-109001738D01*
X234503889Y-108899414D01*
X234333729Y-108828932D01*
X234153089Y-108793000D01*
X233968911Y-108793000D01*
X233788271Y-108828932D01*
X233618111Y-108899414D01*
X233464972Y-109001738D01*
X233334738Y-109131972D01*
X233232414Y-109285111D01*
X233161932Y-109455271D01*
X233126000Y-109635911D01*
X225841399Y-109635911D01*
X225906272Y-109571038D01*
X226008596Y-109417899D01*
X226079078Y-109247739D01*
X226115010Y-109067099D01*
X226115010Y-108882921D01*
X226079078Y-108702281D01*
X226008596Y-108532121D01*
X225906272Y-108378982D01*
X225776038Y-108248748D01*
X225622899Y-108146424D01*
X225452739Y-108075942D01*
X225272099Y-108040010D01*
X225087921Y-108040010D01*
X224907281Y-108075942D01*
X224737121Y-108146424D01*
X224583982Y-108248748D01*
X224453748Y-108378982D01*
X224401001Y-108457924D01*
X224401001Y-107857911D01*
X227665000Y-107857911D01*
X227665000Y-108042089D01*
X227700932Y-108222729D01*
X227771414Y-108392889D01*
X227873738Y-108546028D01*
X228003972Y-108676262D01*
X228157111Y-108778586D01*
X228327271Y-108849068D01*
X228507911Y-108885000D01*
X228692089Y-108885000D01*
X228872729Y-108849068D01*
X229042889Y-108778586D01*
X229196028Y-108676262D01*
X229326262Y-108546028D01*
X229425500Y-108397508D01*
X229524738Y-108546028D01*
X229654972Y-108676262D01*
X229808111Y-108778586D01*
X229978271Y-108849068D01*
X230158911Y-108885000D01*
X230343089Y-108885000D01*
X230523729Y-108849068D01*
X230693889Y-108778586D01*
X230847028Y-108676262D01*
X230977262Y-108546028D01*
X231079586Y-108392889D01*
X231150068Y-108222729D01*
X231186000Y-108042089D01*
X231186000Y-107857911D01*
X231150068Y-107677271D01*
X231079586Y-107507111D01*
X230977262Y-107353972D01*
X230847028Y-107223738D01*
X230693889Y-107121414D01*
X230523729Y-107050932D01*
X230343089Y-107015000D01*
X230158911Y-107015000D01*
X229978271Y-107050932D01*
X229808111Y-107121414D01*
X229654972Y-107223738D01*
X229524738Y-107353972D01*
X229425500Y-107502492D01*
X229326262Y-107353972D01*
X229196028Y-107223738D01*
X229042889Y-107121414D01*
X228872729Y-107050932D01*
X228692089Y-107015000D01*
X228507911Y-107015000D01*
X228327271Y-107050932D01*
X228157111Y-107121414D01*
X228003972Y-107223738D01*
X227873738Y-107353972D01*
X227771414Y-107507111D01*
X227700932Y-107677271D01*
X227665000Y-107857911D01*
X224401001Y-107857911D01*
X224401001Y-107057789D01*
X224436762Y-107022028D01*
X224539086Y-106868889D01*
X224609568Y-106698729D01*
X224645500Y-106518089D01*
X224645500Y-106333911D01*
X224609568Y-106153271D01*
X224539086Y-105983111D01*
X224436762Y-105829972D01*
X224306528Y-105699738D01*
X224153389Y-105597414D01*
X223983229Y-105526932D01*
X223802589Y-105491000D01*
X223618411Y-105491000D01*
X223437771Y-105526932D01*
X223267611Y-105597414D01*
X223114472Y-105699738D01*
X222984238Y-105829972D01*
X222881914Y-105983111D01*
X222811432Y-106153271D01*
X222775500Y-106333911D01*
X222775500Y-106354491D01*
X222761946Y-106399173D01*
X222746007Y-106560999D01*
X222750002Y-106601559D01*
X222750001Y-114643535D01*
X222612271Y-114670932D01*
X222595012Y-114678081D01*
X222570586Y-114619111D01*
X222527080Y-114554000D01*
X222570586Y-114488889D01*
X222641068Y-114318729D01*
X222677000Y-114138089D01*
X222677000Y-113953911D01*
X222641068Y-113773271D01*
X222570586Y-113603111D01*
X222468262Y-113449972D01*
X222338028Y-113319738D01*
X222184889Y-113217414D01*
X222014729Y-113146932D01*
X221834089Y-113111000D01*
X221649911Y-113111000D01*
X221469271Y-113146932D01*
X221299111Y-113217414D01*
X221145972Y-113319738D01*
X221015738Y-113449972D01*
X220913414Y-113603111D01*
X220842932Y-113773271D01*
X220807000Y-113953911D01*
X220807000Y-114138089D01*
X220842932Y-114318729D01*
X220913414Y-114488889D01*
X220956920Y-114554000D01*
X220913414Y-114619111D01*
X220842932Y-114789271D01*
X220807000Y-114969911D01*
X220807000Y-115154089D01*
X220842932Y-115334729D01*
X220913414Y-115504889D01*
X221015738Y-115658028D01*
X221145972Y-115788262D01*
X221299111Y-115890586D01*
X221469271Y-115961068D01*
X221649911Y-115997000D01*
X221834089Y-115997000D01*
X222014729Y-115961068D01*
X222031988Y-115953919D01*
X222056414Y-116012889D01*
X222158738Y-116166028D01*
X222288972Y-116296262D01*
X222442111Y-116398586D01*
X222612271Y-116469068D01*
X222705045Y-116487522D01*
X222543067Y-116649500D01*
X216269790Y-116649500D01*
X216372262Y-116547028D01*
X216474586Y-116393889D01*
X216545068Y-116223729D01*
X216581000Y-116043089D01*
X216581000Y-115858911D01*
X216545068Y-115678271D01*
X216500221Y-115570000D01*
X216545068Y-115461729D01*
X216581000Y-115281089D01*
X216581000Y-115096911D01*
X216545068Y-114916271D01*
X216474586Y-114746111D01*
X216372262Y-114592972D01*
X216242028Y-114462738D01*
X216088889Y-114360414D01*
X215918729Y-114289932D01*
X215738089Y-114254000D01*
X215553911Y-114254000D01*
X215373271Y-114289932D01*
X215203111Y-114360414D01*
X215049972Y-114462738D01*
X214919738Y-114592972D01*
X214817414Y-114746111D01*
X214746932Y-114916271D01*
X214711000Y-115096911D01*
X214711000Y-115281089D01*
X214746932Y-115461729D01*
X214791779Y-115570000D01*
X214746932Y-115678271D01*
X214711000Y-115858911D01*
X214711000Y-116043089D01*
X214746932Y-116223729D01*
X214817414Y-116393889D01*
X214919738Y-116547028D01*
X215022210Y-116649500D01*
X209042000Y-116649500D01*
X209042000Y-114705432D01*
X209412521Y-114334911D01*
X212552000Y-114334911D01*
X212552000Y-114519089D01*
X212587932Y-114699729D01*
X212658414Y-114869889D01*
X212760738Y-115023028D01*
X212890972Y-115153262D01*
X213044111Y-115255586D01*
X213214271Y-115326068D01*
X213394911Y-115362000D01*
X213579089Y-115362000D01*
X213759729Y-115326068D01*
X213929889Y-115255586D01*
X214083028Y-115153262D01*
X214213262Y-115023028D01*
X214315586Y-114869889D01*
X214386068Y-114699729D01*
X214422000Y-114519089D01*
X214422000Y-114334911D01*
X214386068Y-114154271D01*
X214315586Y-113984111D01*
X214213262Y-113830972D01*
X214083028Y-113700738D01*
X213929889Y-113598414D01*
X213759729Y-113527932D01*
X213579089Y-113492000D01*
X213394911Y-113492000D01*
X213214271Y-113527932D01*
X213044111Y-113598414D01*
X212890972Y-113700738D01*
X212760738Y-113830972D01*
X212658414Y-113984111D01*
X212587932Y-114154271D01*
X212552000Y-114334911D01*
X209412521Y-114334911D01*
X209787539Y-113959894D01*
X209819041Y-113934041D01*
X209874119Y-113866928D01*
X209922199Y-113808343D01*
X209998853Y-113664934D01*
X210012553Y-113619771D01*
X210046056Y-113509326D01*
X210058000Y-113388053D01*
X210058000Y-113388051D01*
X210061994Y-113347500D01*
X210058000Y-113306950D01*
X210058000Y-113064911D01*
X214330000Y-113064911D01*
X214330000Y-113249089D01*
X214365932Y-113429729D01*
X214436414Y-113599889D01*
X214538738Y-113753028D01*
X214668972Y-113883262D01*
X214822111Y-113985586D01*
X214992271Y-114056068D01*
X215172911Y-114092000D01*
X215357089Y-114092000D01*
X215537729Y-114056068D01*
X215707889Y-113985586D01*
X215861028Y-113883262D01*
X215991262Y-113753028D01*
X216093586Y-113599889D01*
X216164068Y-113429729D01*
X216200000Y-113249089D01*
X216200000Y-113064911D01*
X216164068Y-112884271D01*
X216093586Y-112714111D01*
X215991262Y-112560972D01*
X215861028Y-112430738D01*
X215707889Y-112328414D01*
X215537729Y-112257932D01*
X215357089Y-112222000D01*
X215172911Y-112222000D01*
X214992271Y-112257932D01*
X214822111Y-112328414D01*
X214668972Y-112430738D01*
X214538738Y-112560972D01*
X214436414Y-112714111D01*
X214365932Y-112884271D01*
X214330000Y-113064911D01*
X210058000Y-113064911D01*
X210058000Y-112006503D01*
X210149705Y-111869256D01*
X210227726Y-111680898D01*
X210267500Y-111480939D01*
X210267500Y-111277061D01*
X210227726Y-111077102D01*
X210149705Y-110888744D01*
X210058000Y-110751497D01*
X210058000Y-109625432D01*
X211034934Y-108648500D01*
X212098477Y-108648500D01*
X212079932Y-108693271D01*
X212044000Y-108873911D01*
X212044000Y-109058089D01*
X212079932Y-109238729D01*
X212150414Y-109408889D01*
X212252738Y-109562028D01*
X212291710Y-109601000D01*
X212252738Y-109639972D01*
X212150414Y-109793111D01*
X212079932Y-109963271D01*
X212044000Y-110143911D01*
X212044000Y-110328089D01*
X212079932Y-110508729D01*
X212150414Y-110678889D01*
X212252738Y-110832028D01*
X212382972Y-110962262D01*
X212536111Y-111064586D01*
X212706271Y-111135068D01*
X212886911Y-111171000D01*
X213071089Y-111171000D01*
X213126836Y-111159911D01*
X214330000Y-111159911D01*
X214330000Y-111344089D01*
X214365932Y-111524729D01*
X214436414Y-111694889D01*
X214538738Y-111848028D01*
X214668972Y-111978262D01*
X214822111Y-112080586D01*
X214992271Y-112151068D01*
X215172911Y-112187000D01*
X215357089Y-112187000D01*
X215537729Y-112151068D01*
X215707889Y-112080586D01*
X215861028Y-111978262D01*
X215991262Y-111848028D01*
X216093586Y-111694889D01*
X216164068Y-111524729D01*
X216200000Y-111344089D01*
X216200000Y-111159911D01*
X216164068Y-110979271D01*
X216093586Y-110809111D01*
X215991262Y-110655972D01*
X215861028Y-110525738D01*
X215707889Y-110423414D01*
X215537729Y-110352932D01*
X215357089Y-110317000D01*
X215172911Y-110317000D01*
X214992271Y-110352932D01*
X214822111Y-110423414D01*
X214668972Y-110525738D01*
X214538738Y-110655972D01*
X214436414Y-110809111D01*
X214365932Y-110979271D01*
X214330000Y-111159911D01*
X213126836Y-111159911D01*
X213251729Y-111135068D01*
X213421889Y-111064586D01*
X213575028Y-110962262D01*
X213705262Y-110832028D01*
X213807586Y-110678889D01*
X213878068Y-110508729D01*
X213914000Y-110328089D01*
X213914000Y-110143911D01*
X216870000Y-110143911D01*
X216870000Y-110328089D01*
X216905932Y-110508729D01*
X216976414Y-110678889D01*
X217078738Y-110832028D01*
X217208972Y-110962262D01*
X217362111Y-111064586D01*
X217532271Y-111135068D01*
X217712911Y-111171000D01*
X217897089Y-111171000D01*
X218077729Y-111135068D01*
X218247889Y-111064586D01*
X218401028Y-110962262D01*
X218531262Y-110832028D01*
X218575606Y-110765661D01*
X220566250Y-110765661D01*
X220566250Y-110949839D01*
X220602182Y-111130479D01*
X220672664Y-111300639D01*
X220774988Y-111453778D01*
X220905222Y-111584012D01*
X221058361Y-111686336D01*
X221228521Y-111756818D01*
X221409161Y-111792750D01*
X221593339Y-111792750D01*
X221773979Y-111756818D01*
X221944139Y-111686336D01*
X222097278Y-111584012D01*
X222227512Y-111453778D01*
X222329836Y-111300639D01*
X222400318Y-111130479D01*
X222436250Y-110949839D01*
X222436250Y-110765661D01*
X222400318Y-110585021D01*
X222329836Y-110414861D01*
X222227512Y-110261722D01*
X222097278Y-110131488D01*
X221944139Y-110029164D01*
X221773979Y-109958682D01*
X221593339Y-109922750D01*
X221409161Y-109922750D01*
X221228521Y-109958682D01*
X221058361Y-110029164D01*
X220905222Y-110131488D01*
X220774988Y-110261722D01*
X220672664Y-110414861D01*
X220602182Y-110585021D01*
X220566250Y-110765661D01*
X218575606Y-110765661D01*
X218633586Y-110678889D01*
X218704068Y-110508729D01*
X218740000Y-110328089D01*
X218740000Y-110143911D01*
X218704068Y-109963271D01*
X218633586Y-109793111D01*
X218531262Y-109639972D01*
X218401028Y-109509738D01*
X218247889Y-109407414D01*
X218077729Y-109336932D01*
X217897089Y-109301000D01*
X217712911Y-109301000D01*
X217532271Y-109336932D01*
X217362111Y-109407414D01*
X217208972Y-109509738D01*
X217078738Y-109639972D01*
X216976414Y-109793111D01*
X216905932Y-109963271D01*
X216870000Y-110143911D01*
X213914000Y-110143911D01*
X213878068Y-109963271D01*
X213807586Y-109793111D01*
X213705262Y-109639972D01*
X213666290Y-109601000D01*
X213705262Y-109562028D01*
X213807586Y-109408889D01*
X213878068Y-109238729D01*
X213914000Y-109058089D01*
X213914000Y-108873911D01*
X213878068Y-108693271D01*
X213807586Y-108523111D01*
X213721651Y-108394500D01*
X213807586Y-108265889D01*
X213878068Y-108095729D01*
X213914000Y-107915089D01*
X213914000Y-107730911D01*
X213878068Y-107550271D01*
X213807586Y-107380111D01*
X213721651Y-107251500D01*
X213807586Y-107122889D01*
X213878068Y-106952729D01*
X213914000Y-106772089D01*
X213914000Y-106587911D01*
X213878068Y-106407271D01*
X213807586Y-106237111D01*
X213705262Y-106083972D01*
X213575028Y-105953738D01*
X213426508Y-105854500D01*
X213575028Y-105755262D01*
X213705262Y-105625028D01*
X213807586Y-105471889D01*
X213878068Y-105301729D01*
X213914000Y-105121089D01*
X213914000Y-104936911D01*
X213878068Y-104756271D01*
X213807586Y-104586111D01*
X213705262Y-104432972D01*
X213575028Y-104302738D01*
X213421889Y-104200414D01*
X213251729Y-104129932D01*
X213071089Y-104094000D01*
X212886911Y-104094000D01*
X212706271Y-104129932D01*
X212536111Y-104200414D01*
X212382972Y-104302738D01*
X212252738Y-104432972D01*
X212150414Y-104586111D01*
X212079932Y-104756271D01*
X212044000Y-104936911D01*
X212044000Y-105121089D01*
X212079932Y-105301729D01*
X212150414Y-105471889D01*
X212252738Y-105625028D01*
X212382972Y-105755262D01*
X212531492Y-105854500D01*
X212382972Y-105953738D01*
X212252738Y-106083972D01*
X212150414Y-106237111D01*
X212079932Y-106407271D01*
X212044000Y-106587911D01*
X212044000Y-106772089D01*
X212079932Y-106952729D01*
X212098477Y-106997500D01*
X210733550Y-106997500D01*
X210693000Y-106993506D01*
X210652449Y-106997500D01*
X210652447Y-106997500D01*
X210531174Y-107009444D01*
X210394406Y-107050932D01*
X210375566Y-107056647D01*
X210232157Y-107133301D01*
X210137958Y-107210608D01*
X210137955Y-107210611D01*
X210106459Y-107236459D01*
X210080611Y-107267955D01*
X208677466Y-108671102D01*
X208645959Y-108696959D01*
X208595865Y-108758000D01*
X208542801Y-108822658D01*
X208501774Y-108899414D01*
X208466147Y-108966067D01*
X208418944Y-109121675D01*
X208407416Y-109238729D01*
X208403006Y-109283500D01*
X208407000Y-109324051D01*
X208407001Y-110553500D01*
X206335933Y-110553500D01*
X205232000Y-109449568D01*
X205232000Y-107736550D01*
X205235994Y-107696000D01*
X205232000Y-107655447D01*
X205220056Y-107534174D01*
X205172853Y-107378566D01*
X205145478Y-107327352D01*
X205096199Y-107235157D01*
X205018891Y-107140958D01*
X204993041Y-107109459D01*
X204961540Y-107083607D01*
X204783344Y-106905411D01*
X205630500Y-106905411D01*
X205630500Y-107089589D01*
X205666432Y-107270229D01*
X205736914Y-107440389D01*
X205839238Y-107593528D01*
X205969472Y-107723762D01*
X206122611Y-107826086D01*
X206292771Y-107896568D01*
X206473411Y-107932500D01*
X206657589Y-107932500D01*
X206838229Y-107896568D01*
X207008389Y-107826086D01*
X207161528Y-107723762D01*
X207291762Y-107593528D01*
X207394086Y-107440389D01*
X207464568Y-107270229D01*
X207500500Y-107089589D01*
X207500500Y-106905411D01*
X207464568Y-106724771D01*
X207394086Y-106554611D01*
X207291762Y-106401472D01*
X207161528Y-106271238D01*
X207008389Y-106168914D01*
X206838229Y-106098432D01*
X206657589Y-106062500D01*
X206473411Y-106062500D01*
X206292771Y-106098432D01*
X206122611Y-106168914D01*
X205969472Y-106271238D01*
X205839238Y-106401472D01*
X205736914Y-106554611D01*
X205666432Y-106724771D01*
X205630500Y-106905411D01*
X204783344Y-106905411D01*
X204002898Y-106124966D01*
X203977041Y-106093459D01*
X203851342Y-105990301D01*
X203707934Y-105913647D01*
X203552326Y-105866444D01*
X203431053Y-105854500D01*
X203431050Y-105854500D01*
X203390500Y-105850506D01*
X203349950Y-105854500D01*
X201286523Y-105854500D01*
X201305068Y-105809729D01*
X201341000Y-105629089D01*
X201341000Y-105444911D01*
X201305068Y-105264271D01*
X201234586Y-105094111D01*
X201132262Y-104940972D01*
X201002028Y-104810738D01*
X200848889Y-104708414D01*
X200678729Y-104637932D01*
X200498089Y-104602000D01*
X200313911Y-104602000D01*
X200133271Y-104637932D01*
X199963111Y-104708414D01*
X199809972Y-104810738D01*
X199679738Y-104940972D01*
X199577414Y-105094111D01*
X199506932Y-105264271D01*
X199471000Y-105444911D01*
X199471000Y-105629089D01*
X199498819Y-105768944D01*
X199164338Y-105434464D01*
X199138482Y-105402958D01*
X199012783Y-105299800D01*
X198869375Y-105223146D01*
X198713767Y-105175943D01*
X198592494Y-105163999D01*
X198592491Y-105163999D01*
X198551941Y-105160005D01*
X198511391Y-105163999D01*
X197495477Y-105163999D01*
X197533798Y-105037670D01*
X197548500Y-104888401D01*
X197553415Y-104838500D01*
X197548500Y-104788598D01*
X197548500Y-104126402D01*
X197553415Y-104076500D01*
X197538091Y-103920911D01*
X200614000Y-103920911D01*
X200614000Y-104105089D01*
X200649932Y-104285729D01*
X200720414Y-104455889D01*
X200822738Y-104609028D01*
X200952972Y-104739262D01*
X201106111Y-104841586D01*
X201276271Y-104912068D01*
X201456911Y-104948000D01*
X201641089Y-104948000D01*
X201821729Y-104912068D01*
X201991889Y-104841586D01*
X202145028Y-104739262D01*
X202275262Y-104609028D01*
X202377586Y-104455889D01*
X202448068Y-104285729D01*
X202484000Y-104105089D01*
X202484000Y-103920911D01*
X202448068Y-103740271D01*
X202377586Y-103570111D01*
X202275262Y-103416972D01*
X202145028Y-103286738D01*
X201991889Y-103184414D01*
X201821729Y-103113932D01*
X201641089Y-103078000D01*
X201456911Y-103078000D01*
X201276271Y-103113932D01*
X201106111Y-103184414D01*
X200952972Y-103286738D01*
X200822738Y-103416972D01*
X200720414Y-103570111D01*
X200649932Y-103740271D01*
X200614000Y-103920911D01*
X197538091Y-103920911D01*
X197533798Y-103877329D01*
X197475702Y-103685813D01*
X197381360Y-103509310D01*
X197286206Y-103393365D01*
X197254396Y-103354604D01*
X197215633Y-103322792D01*
X196670752Y-102777911D01*
X216235000Y-102777911D01*
X216235000Y-102962089D01*
X216270932Y-103142729D01*
X216341414Y-103312889D01*
X216342490Y-103314500D01*
X216341414Y-103316111D01*
X216270932Y-103486271D01*
X216235000Y-103666911D01*
X216235000Y-103851089D01*
X216270932Y-104031729D01*
X216341414Y-104201889D01*
X216443738Y-104355028D01*
X216573972Y-104485262D01*
X216727111Y-104587586D01*
X216870000Y-104646772D01*
X216870000Y-104740089D01*
X216905932Y-104920729D01*
X216976414Y-105090889D01*
X217062349Y-105219500D01*
X216976414Y-105348111D01*
X216905932Y-105518271D01*
X216870000Y-105698911D01*
X216870000Y-105883089D01*
X216905932Y-106063729D01*
X216976414Y-106233889D01*
X216977490Y-106235500D01*
X216976414Y-106237111D01*
X216905932Y-106407271D01*
X216870000Y-106587911D01*
X216870000Y-106772089D01*
X216905932Y-106952729D01*
X216976414Y-107122889D01*
X217019920Y-107188000D01*
X216976414Y-107253111D01*
X216905932Y-107423271D01*
X216870000Y-107603911D01*
X216870000Y-107788089D01*
X216905932Y-107968729D01*
X216976414Y-108138889D01*
X217078738Y-108292028D01*
X217208972Y-108422262D01*
X217362111Y-108524586D01*
X217532271Y-108595068D01*
X217712911Y-108631000D01*
X217897089Y-108631000D01*
X218077729Y-108595068D01*
X218247889Y-108524586D01*
X218401028Y-108422262D01*
X218520879Y-108302411D01*
X220616500Y-108302411D01*
X220616500Y-108486589D01*
X220652432Y-108667229D01*
X220722914Y-108837389D01*
X220825238Y-108990528D01*
X220955472Y-109120762D01*
X221108611Y-109223086D01*
X221278771Y-109293568D01*
X221459411Y-109329500D01*
X221643589Y-109329500D01*
X221824229Y-109293568D01*
X221994389Y-109223086D01*
X222147528Y-109120762D01*
X222277762Y-108990528D01*
X222380086Y-108837389D01*
X222450568Y-108667229D01*
X222486500Y-108486589D01*
X222486500Y-108302411D01*
X222450568Y-108121771D01*
X222380086Y-107951611D01*
X222277762Y-107798472D01*
X222147528Y-107668238D01*
X221994389Y-107565914D01*
X221824229Y-107495432D01*
X221643589Y-107459500D01*
X221459411Y-107459500D01*
X221278771Y-107495432D01*
X221108611Y-107565914D01*
X220955472Y-107668238D01*
X220825238Y-107798472D01*
X220722914Y-107951611D01*
X220652432Y-108121771D01*
X220616500Y-108302411D01*
X218520879Y-108302411D01*
X218531262Y-108292028D01*
X218633586Y-108138889D01*
X218704068Y-107968729D01*
X218740000Y-107788089D01*
X218740000Y-107603911D01*
X218704068Y-107423271D01*
X218633586Y-107253111D01*
X218590080Y-107188000D01*
X218633586Y-107122889D01*
X218704068Y-106952729D01*
X218740000Y-106772089D01*
X218740000Y-106587911D01*
X218704068Y-106407271D01*
X218633586Y-106237111D01*
X218632510Y-106235500D01*
X218633586Y-106233889D01*
X218704068Y-106063729D01*
X218740000Y-105883089D01*
X218740000Y-105698911D01*
X218704068Y-105518271D01*
X218633586Y-105348111D01*
X218547651Y-105219500D01*
X218633586Y-105090889D01*
X218704068Y-104920729D01*
X218740000Y-104740089D01*
X218740000Y-104682911D01*
X228300000Y-104682911D01*
X228300000Y-104867089D01*
X228335932Y-105047729D01*
X228406414Y-105217889D01*
X228508738Y-105371028D01*
X228638972Y-105501262D01*
X228792111Y-105603586D01*
X228962271Y-105674068D01*
X229142911Y-105710000D01*
X229327089Y-105710000D01*
X229507729Y-105674068D01*
X229677889Y-105603586D01*
X229831028Y-105501262D01*
X229961262Y-105371028D01*
X230063586Y-105217889D01*
X230127365Y-105063911D01*
X234523000Y-105063911D01*
X234523000Y-105248089D01*
X234558932Y-105428729D01*
X234629414Y-105598889D01*
X234731738Y-105752028D01*
X234861972Y-105882262D01*
X235015111Y-105984586D01*
X235185271Y-106055068D01*
X235365911Y-106091000D01*
X235550089Y-106091000D01*
X235730729Y-106055068D01*
X235900889Y-105984586D01*
X236054028Y-105882262D01*
X236184262Y-105752028D01*
X236286586Y-105598889D01*
X236357068Y-105428729D01*
X236393000Y-105248089D01*
X236393000Y-105063911D01*
X236357068Y-104883271D01*
X236286586Y-104713111D01*
X236184262Y-104559972D01*
X236054028Y-104429738D01*
X235900889Y-104327414D01*
X235730729Y-104256932D01*
X235550089Y-104221000D01*
X235365911Y-104221000D01*
X235185271Y-104256932D01*
X235015111Y-104327414D01*
X234861972Y-104429738D01*
X234731738Y-104559972D01*
X234629414Y-104713111D01*
X234558932Y-104883271D01*
X234523000Y-105063911D01*
X230127365Y-105063911D01*
X230134068Y-105047729D01*
X230170000Y-104867089D01*
X230170000Y-104682911D01*
X230134068Y-104502271D01*
X230063586Y-104332111D01*
X229961262Y-104178972D01*
X229831028Y-104048738D01*
X229677889Y-103946414D01*
X229507729Y-103875932D01*
X229327089Y-103840000D01*
X229142911Y-103840000D01*
X228962271Y-103875932D01*
X228792111Y-103946414D01*
X228638972Y-104048738D01*
X228508738Y-104178972D01*
X228406414Y-104332111D01*
X228335932Y-104502271D01*
X228300000Y-104682911D01*
X218740000Y-104682911D01*
X218740000Y-104555911D01*
X218704068Y-104375271D01*
X218633586Y-104205111D01*
X218531262Y-104051972D01*
X218401028Y-103921738D01*
X218247889Y-103819414D01*
X218105000Y-103760228D01*
X218105000Y-103666911D01*
X218069068Y-103486271D01*
X217998586Y-103316111D01*
X217997510Y-103314500D01*
X217998586Y-103312889D01*
X218069068Y-103142729D01*
X218105000Y-102962089D01*
X218105000Y-102777911D01*
X218069068Y-102597271D01*
X218017018Y-102471610D01*
X218120889Y-102428586D01*
X218274028Y-102326262D01*
X218404262Y-102196028D01*
X218506586Y-102042889D01*
X218577068Y-101872729D01*
X218599111Y-101761911D01*
X227665000Y-101761911D01*
X227665000Y-101946089D01*
X227700932Y-102126729D01*
X227771414Y-102296889D01*
X227873738Y-102450028D01*
X228003972Y-102580262D01*
X228157111Y-102682586D01*
X228327271Y-102753068D01*
X228507911Y-102789000D01*
X228692089Y-102789000D01*
X228872729Y-102753068D01*
X229042889Y-102682586D01*
X229196028Y-102580262D01*
X229326262Y-102450028D01*
X229425500Y-102301508D01*
X229524738Y-102450028D01*
X229654972Y-102580262D01*
X229808111Y-102682586D01*
X229978271Y-102753068D01*
X230158911Y-102789000D01*
X230343089Y-102789000D01*
X230523729Y-102753068D01*
X230693889Y-102682586D01*
X230847028Y-102580262D01*
X230977262Y-102450028D01*
X231012753Y-102396911D01*
X245191000Y-102396911D01*
X245191000Y-102581089D01*
X245226932Y-102761729D01*
X245297414Y-102931889D01*
X245399738Y-103085028D01*
X245529972Y-103215262D01*
X245683111Y-103317586D01*
X245853271Y-103388068D01*
X246033911Y-103424000D01*
X246218089Y-103424000D01*
X246398729Y-103388068D01*
X246568889Y-103317586D01*
X246722028Y-103215262D01*
X246792750Y-103144540D01*
X246863472Y-103215262D01*
X247016611Y-103317586D01*
X247186771Y-103388068D01*
X247367411Y-103424000D01*
X247551589Y-103424000D01*
X247732229Y-103388068D01*
X247902389Y-103317586D01*
X248055528Y-103215262D01*
X248185762Y-103085028D01*
X248288086Y-102931889D01*
X248358568Y-102761729D01*
X248394500Y-102581089D01*
X248394500Y-102567000D01*
X248486928Y-102567000D01*
X248486928Y-105967000D01*
X248499188Y-106091482D01*
X248535498Y-106211180D01*
X248594463Y-106321494D01*
X248673815Y-106418185D01*
X248770506Y-106497537D01*
X248880820Y-106556502D01*
X249000518Y-106592812D01*
X249125000Y-106605072D01*
X252525000Y-106605072D01*
X252649482Y-106592812D01*
X252769180Y-106556502D01*
X252879494Y-106497537D01*
X252976185Y-106418185D01*
X253055537Y-106321494D01*
X253114502Y-106211180D01*
X253150812Y-106091482D01*
X253163072Y-105967000D01*
X253163072Y-102567000D01*
X253150812Y-102442518D01*
X253114502Y-102322820D01*
X253055537Y-102212506D01*
X252976185Y-102115815D01*
X252879494Y-102036463D01*
X252769180Y-101977498D01*
X252649482Y-101941188D01*
X252525000Y-101928928D01*
X249125000Y-101928928D01*
X249000518Y-101941188D01*
X248880820Y-101977498D01*
X248770506Y-102036463D01*
X248673815Y-102115815D01*
X248594463Y-102212506D01*
X248535498Y-102322820D01*
X248499188Y-102442518D01*
X248486928Y-102567000D01*
X248394500Y-102567000D01*
X248394500Y-102396911D01*
X248358568Y-102216271D01*
X248288086Y-102046111D01*
X248185762Y-101892972D01*
X248055528Y-101762738D01*
X247902389Y-101660414D01*
X247732229Y-101589932D01*
X247551589Y-101554000D01*
X247367411Y-101554000D01*
X247186771Y-101589932D01*
X247016611Y-101660414D01*
X246863472Y-101762738D01*
X246792750Y-101833460D01*
X246722028Y-101762738D01*
X246568889Y-101660414D01*
X246398729Y-101589932D01*
X246218089Y-101554000D01*
X246033911Y-101554000D01*
X245853271Y-101589932D01*
X245683111Y-101660414D01*
X245529972Y-101762738D01*
X245399738Y-101892972D01*
X245297414Y-102046111D01*
X245226932Y-102216271D01*
X245191000Y-102396911D01*
X231012753Y-102396911D01*
X231079586Y-102296889D01*
X231150068Y-102126729D01*
X231186000Y-101946089D01*
X231186000Y-101761911D01*
X231150068Y-101581271D01*
X231079586Y-101411111D01*
X230977262Y-101257972D01*
X230847028Y-101127738D01*
X230693889Y-101025414D01*
X230523729Y-100954932D01*
X230343089Y-100919000D01*
X230158911Y-100919000D01*
X229978271Y-100954932D01*
X229808111Y-101025414D01*
X229654972Y-101127738D01*
X229524738Y-101257972D01*
X229425500Y-101406492D01*
X229326262Y-101257972D01*
X229196028Y-101127738D01*
X229042889Y-101025414D01*
X228872729Y-100954932D01*
X228692089Y-100919000D01*
X228507911Y-100919000D01*
X228327271Y-100954932D01*
X228157111Y-101025414D01*
X228003972Y-101127738D01*
X227873738Y-101257972D01*
X227771414Y-101411111D01*
X227700932Y-101581271D01*
X227665000Y-101761911D01*
X218599111Y-101761911D01*
X218613000Y-101692089D01*
X218613000Y-101507911D01*
X218577068Y-101327271D01*
X218506586Y-101157111D01*
X218404262Y-101003972D01*
X218274028Y-100873738D01*
X218120889Y-100771414D01*
X217950729Y-100700932D01*
X217770089Y-100665000D01*
X217585911Y-100665000D01*
X217405271Y-100700932D01*
X217235111Y-100771414D01*
X217081972Y-100873738D01*
X216951738Y-101003972D01*
X216849414Y-101157111D01*
X216778932Y-101327271D01*
X216743000Y-101507911D01*
X216743000Y-101692089D01*
X216778932Y-101872729D01*
X216830982Y-101998390D01*
X216727111Y-102041414D01*
X216573972Y-102143738D01*
X216443738Y-102273972D01*
X216341414Y-102427111D01*
X216270932Y-102597271D01*
X216235000Y-102777911D01*
X196670752Y-102777911D01*
X195538840Y-101646000D01*
X195545089Y-101646000D01*
X195725729Y-101610068D01*
X195895889Y-101539586D01*
X196049028Y-101437262D01*
X196179262Y-101307028D01*
X196281586Y-101153889D01*
X196352068Y-100983729D01*
X196388000Y-100803089D01*
X196388000Y-100618911D01*
X196352068Y-100438271D01*
X196321682Y-100364911D01*
X200995000Y-100364911D01*
X200995000Y-100549089D01*
X201030932Y-100729729D01*
X201101414Y-100899889D01*
X201203738Y-101053028D01*
X201333972Y-101183262D01*
X201487111Y-101285586D01*
X201657271Y-101356068D01*
X201837911Y-101392000D01*
X202022089Y-101392000D01*
X202202729Y-101356068D01*
X202372889Y-101285586D01*
X202496621Y-101202911D01*
X202603972Y-101310262D01*
X202757111Y-101412586D01*
X202927271Y-101483068D01*
X203107911Y-101519000D01*
X203292089Y-101519000D01*
X203472729Y-101483068D01*
X203642889Y-101412586D01*
X203796028Y-101310262D01*
X203926262Y-101180028D01*
X204028586Y-101026889D01*
X204099068Y-100856729D01*
X204121111Y-100745911D01*
X205694000Y-100745911D01*
X205694000Y-100930089D01*
X205729932Y-101110729D01*
X205800414Y-101280889D01*
X205902738Y-101434028D01*
X206032972Y-101564262D01*
X206186111Y-101666586D01*
X206356271Y-101737068D01*
X206536911Y-101773000D01*
X206721089Y-101773000D01*
X206901729Y-101737068D01*
X207071889Y-101666586D01*
X207225028Y-101564262D01*
X207355262Y-101434028D01*
X207457586Y-101280889D01*
X207528068Y-101110729D01*
X207564000Y-100930089D01*
X207564000Y-100745911D01*
X207528068Y-100565271D01*
X207457586Y-100395111D01*
X207355262Y-100241972D01*
X207225028Y-100111738D01*
X207071889Y-100009414D01*
X206901729Y-99938932D01*
X206721089Y-99903000D01*
X206536911Y-99903000D01*
X206356271Y-99938932D01*
X206186111Y-100009414D01*
X206032972Y-100111738D01*
X205902738Y-100241972D01*
X205800414Y-100395111D01*
X205729932Y-100565271D01*
X205694000Y-100745911D01*
X204121111Y-100745911D01*
X204135000Y-100676089D01*
X204135000Y-100491911D01*
X204099068Y-100311271D01*
X204028586Y-100141111D01*
X203926262Y-99987972D01*
X203796028Y-99857738D01*
X203642889Y-99755414D01*
X203472729Y-99684932D01*
X203292089Y-99649000D01*
X203107911Y-99649000D01*
X202927271Y-99684932D01*
X202757111Y-99755414D01*
X202633379Y-99838089D01*
X202526028Y-99730738D01*
X202372889Y-99628414D01*
X202202729Y-99557932D01*
X202022089Y-99522000D01*
X201837911Y-99522000D01*
X201657271Y-99557932D01*
X201487111Y-99628414D01*
X201333972Y-99730738D01*
X201203738Y-99860972D01*
X201101414Y-100014111D01*
X201030932Y-100184271D01*
X200995000Y-100364911D01*
X196321682Y-100364911D01*
X196294070Y-100298250D01*
X196352068Y-100158229D01*
X196388000Y-99977589D01*
X196388000Y-99793411D01*
X196352068Y-99612771D01*
X196281586Y-99442611D01*
X196179262Y-99289472D01*
X196049028Y-99159238D01*
X195895889Y-99056914D01*
X195725729Y-98986432D01*
X195545089Y-98950500D01*
X195470496Y-98950500D01*
X195432226Y-98758102D01*
X195354205Y-98569744D01*
X195240937Y-98400226D01*
X195110122Y-98269411D01*
X205567000Y-98269411D01*
X205567000Y-98453589D01*
X205602932Y-98634229D01*
X205673414Y-98804389D01*
X205775738Y-98957528D01*
X205905972Y-99087762D01*
X206059111Y-99190086D01*
X206229271Y-99260568D01*
X206409911Y-99296500D01*
X206594089Y-99296500D01*
X206774729Y-99260568D01*
X206944889Y-99190086D01*
X206949508Y-99187000D01*
X209699950Y-99187000D01*
X209740500Y-99190994D01*
X209781050Y-99187000D01*
X209781053Y-99187000D01*
X209902326Y-99175056D01*
X210057934Y-99127853D01*
X210201342Y-99051199D01*
X210327041Y-98948041D01*
X210352898Y-98916534D01*
X212103282Y-97166151D01*
X212108729Y-97165068D01*
X212278889Y-97094586D01*
X212432028Y-96992262D01*
X212562262Y-96862028D01*
X212664586Y-96708889D01*
X212679177Y-96673661D01*
X226784250Y-96673661D01*
X226784250Y-96857839D01*
X226820182Y-97038479D01*
X226890664Y-97208639D01*
X226992988Y-97361778D01*
X227123222Y-97492012D01*
X227276361Y-97594336D01*
X227446521Y-97664818D01*
X227627161Y-97700750D01*
X227811339Y-97700750D01*
X227991979Y-97664818D01*
X228162139Y-97594336D01*
X228315278Y-97492012D01*
X228445512Y-97361778D01*
X228547836Y-97208639D01*
X228618318Y-97038479D01*
X228654250Y-96857839D01*
X228654250Y-96673661D01*
X228618318Y-96493021D01*
X228547836Y-96322861D01*
X228445512Y-96169722D01*
X228315278Y-96039488D01*
X228162139Y-95937164D01*
X227991979Y-95866682D01*
X227811339Y-95830750D01*
X227627161Y-95830750D01*
X227446521Y-95866682D01*
X227276361Y-95937164D01*
X227123222Y-96039488D01*
X226992988Y-96169722D01*
X226890664Y-96322861D01*
X226820182Y-96493021D01*
X226784250Y-96673661D01*
X212679177Y-96673661D01*
X212735068Y-96538729D01*
X212771000Y-96358089D01*
X212771000Y-96173911D01*
X212735068Y-95993271D01*
X212664586Y-95823111D01*
X212562262Y-95669972D01*
X212432028Y-95539738D01*
X212291559Y-95445880D01*
X212389756Y-95405205D01*
X212559274Y-95291937D01*
X212703437Y-95147774D01*
X212816705Y-94978256D01*
X212894726Y-94789898D01*
X212934500Y-94589939D01*
X212934500Y-94386061D01*
X212894726Y-94186102D01*
X212816705Y-93997744D01*
X212703437Y-93828226D01*
X212559274Y-93684063D01*
X212389756Y-93570795D01*
X212201398Y-93492774D01*
X212001439Y-93453000D01*
X211797561Y-93453000D01*
X211597602Y-93492774D01*
X211409244Y-93570795D01*
X211239726Y-93684063D01*
X211095563Y-93828226D01*
X210982295Y-93997744D01*
X210904274Y-94186102D01*
X210864500Y-94386061D01*
X210864500Y-94589939D01*
X210904274Y-94789898D01*
X210982295Y-94978256D01*
X211095563Y-95147774D01*
X211239726Y-95291937D01*
X211409244Y-95405205D01*
X211440057Y-95417968D01*
X211393111Y-95437414D01*
X211239972Y-95539738D01*
X211109738Y-95669972D01*
X211007414Y-95823111D01*
X210936932Y-95993271D01*
X210935849Y-95998718D01*
X209398568Y-97536000D01*
X206949508Y-97536000D01*
X206944889Y-97532914D01*
X206774729Y-97462432D01*
X206594089Y-97426500D01*
X206409911Y-97426500D01*
X206229271Y-97462432D01*
X206059111Y-97532914D01*
X205905972Y-97635238D01*
X205775738Y-97765472D01*
X205673414Y-97918611D01*
X205602932Y-98088771D01*
X205567000Y-98269411D01*
X195110122Y-98269411D01*
X195096774Y-98256063D01*
X194927256Y-98142795D01*
X194738898Y-98064774D01*
X194538939Y-98025000D01*
X194438364Y-98025000D01*
X194508537Y-97939494D01*
X194567502Y-97829180D01*
X194603812Y-97709482D01*
X194616072Y-97585000D01*
X194613000Y-96170750D01*
X194454250Y-96012000D01*
X192405000Y-96012000D01*
X192405000Y-98061250D01*
X192563750Y-98220000D01*
X193827091Y-98222744D01*
X193777226Y-98256063D01*
X193633063Y-98400226D01*
X193519795Y-98569744D01*
X193441774Y-98758102D01*
X193402000Y-98958061D01*
X193402000Y-99161939D01*
X193421000Y-99257459D01*
X193421000Y-99751541D01*
X193402000Y-99847061D01*
X193402000Y-100050939D01*
X193421000Y-100146460D01*
X193421001Y-101496803D01*
X193339229Y-101462932D01*
X193158589Y-101427000D01*
X192974411Y-101427000D01*
X192793771Y-101462932D01*
X192623611Y-101533414D01*
X192470472Y-101635738D01*
X192340238Y-101765972D01*
X192237914Y-101919111D01*
X192167432Y-102089271D01*
X192131500Y-102269911D01*
X192131500Y-102454089D01*
X192167432Y-102634729D01*
X192179016Y-102662694D01*
X192059738Y-102781972D01*
X191957414Y-102935111D01*
X191886932Y-103105271D01*
X191851000Y-103285911D01*
X191851000Y-103470089D01*
X191886932Y-103650729D01*
X191957414Y-103820889D01*
X192059738Y-103974028D01*
X192134638Y-104048928D01*
X190793000Y-104048928D01*
X190668518Y-104061188D01*
X190548820Y-104097498D01*
X190438506Y-104156463D01*
X190341815Y-104235815D01*
X190262463Y-104332506D01*
X190203498Y-104442820D01*
X190167188Y-104562518D01*
X190154928Y-104687000D01*
X190154928Y-106387000D01*
X190167188Y-106511482D01*
X190203498Y-106631180D01*
X190262463Y-106741494D01*
X190341815Y-106838185D01*
X190438506Y-106917537D01*
X190548820Y-106976502D01*
X190621380Y-106998513D01*
X190489525Y-107130368D01*
X190327010Y-107373589D01*
X190215068Y-107643842D01*
X190158000Y-107930740D01*
X190158000Y-108223260D01*
X190215068Y-108510158D01*
X190327010Y-108780411D01*
X190489525Y-109023632D01*
X190696368Y-109230475D01*
X190870760Y-109347000D01*
X190696368Y-109463525D01*
X190489525Y-109670368D01*
X190327010Y-109913589D01*
X190215068Y-110183842D01*
X190158000Y-110470740D01*
X190158000Y-110763260D01*
X190215068Y-111050158D01*
X190327010Y-111320411D01*
X190489525Y-111563632D01*
X190696368Y-111770475D01*
X190939589Y-111932990D01*
X191209842Y-112044932D01*
X191496740Y-112102000D01*
X191789260Y-112102000D01*
X192076158Y-112044932D01*
X192346411Y-111932990D01*
X192589632Y-111770475D01*
X192796475Y-111563632D01*
X192958990Y-111320411D01*
X193070932Y-111050158D01*
X193128000Y-110763260D01*
X193128000Y-110470740D01*
X193070932Y-110183842D01*
X192958990Y-109913589D01*
X192796475Y-109670368D01*
X192589632Y-109463525D01*
X192415240Y-109347000D01*
X192589632Y-109230475D01*
X192796475Y-109023632D01*
X192958990Y-108780411D01*
X193070932Y-108510158D01*
X193128000Y-108223260D01*
X193128000Y-107930740D01*
X193070932Y-107643842D01*
X192958990Y-107373589D01*
X192796475Y-107130368D01*
X192664620Y-106998513D01*
X192737180Y-106976502D01*
X192847494Y-106917537D01*
X192944185Y-106838185D01*
X193023537Y-106741494D01*
X193082502Y-106631180D01*
X193118812Y-106511482D01*
X193131072Y-106387000D01*
X193131072Y-104687000D01*
X193118812Y-104562518D01*
X193082502Y-104442820D01*
X193023537Y-104332506D01*
X192989364Y-104290866D01*
X193058729Y-104277068D01*
X193228889Y-104206586D01*
X193233508Y-104203500D01*
X193396568Y-104203500D01*
X194119500Y-104926434D01*
X194119501Y-113444991D01*
X194116414Y-113449611D01*
X194045932Y-113619771D01*
X194010000Y-113800411D01*
X194010000Y-113870080D01*
X193978000Y-113866928D01*
X190578000Y-113866928D01*
X190453518Y-113879188D01*
X190333820Y-113915498D01*
X190223506Y-113974463D01*
X190126815Y-114053815D01*
X190047463Y-114150506D01*
X189988498Y-114260820D01*
X189952188Y-114380518D01*
X189939928Y-114505000D01*
X189915000Y-114505000D01*
X189915000Y-100999911D01*
X190454000Y-100999911D01*
X190454000Y-101184089D01*
X190489932Y-101364729D01*
X190560414Y-101534889D01*
X190662738Y-101688028D01*
X190792972Y-101818262D01*
X190946111Y-101920586D01*
X191116271Y-101991068D01*
X191296911Y-102027000D01*
X191481089Y-102027000D01*
X191661729Y-101991068D01*
X191831889Y-101920586D01*
X191985028Y-101818262D01*
X192115262Y-101688028D01*
X192217586Y-101534889D01*
X192288068Y-101364729D01*
X192324000Y-101184089D01*
X192324000Y-100999911D01*
X192288068Y-100819271D01*
X192217586Y-100649111D01*
X192115262Y-100495972D01*
X191985028Y-100365738D01*
X191831889Y-100263414D01*
X191661729Y-100192932D01*
X191481089Y-100157000D01*
X191296911Y-100157000D01*
X191116271Y-100192932D01*
X190946111Y-100263414D01*
X190792972Y-100365738D01*
X190662738Y-100495972D01*
X190560414Y-100649111D01*
X190489932Y-100819271D01*
X190454000Y-100999911D01*
X189915000Y-100999911D01*
X189915000Y-97585000D01*
X189939928Y-97585000D01*
X189952188Y-97709482D01*
X189988498Y-97829180D01*
X190047463Y-97939494D01*
X190126815Y-98036185D01*
X190223506Y-98115537D01*
X190333820Y-98174502D01*
X190453518Y-98210812D01*
X190578000Y-98223072D01*
X191992250Y-98220000D01*
X192151000Y-98061250D01*
X192151000Y-96012000D01*
X190101750Y-96012000D01*
X189943000Y-96170750D01*
X189939928Y-97585000D01*
X189915000Y-97585000D01*
X189915000Y-94185000D01*
X189939928Y-94185000D01*
X189943000Y-95599250D01*
X190101750Y-95758000D01*
X192151000Y-95758000D01*
X192151000Y-93708750D01*
X192405000Y-93708750D01*
X192405000Y-95758000D01*
X194454250Y-95758000D01*
X194613000Y-95599250D01*
X194616072Y-94185000D01*
X194603812Y-94060518D01*
X194567502Y-93940820D01*
X194508537Y-93830506D01*
X194429185Y-93733815D01*
X194332494Y-93654463D01*
X194222180Y-93595498D01*
X194102482Y-93559188D01*
X193978000Y-93546928D01*
X192563750Y-93550000D01*
X192405000Y-93708750D01*
X192151000Y-93708750D01*
X191992250Y-93550000D01*
X190578000Y-93546928D01*
X190453518Y-93559188D01*
X190333820Y-93595498D01*
X190223506Y-93654463D01*
X190126815Y-93733815D01*
X190047463Y-93830506D01*
X189988498Y-93940820D01*
X189952188Y-94060518D01*
X189939928Y-94185000D01*
X189915000Y-94185000D01*
X189915000Y-93431061D01*
X199183000Y-93431061D01*
X199183000Y-93634939D01*
X199222774Y-93834898D01*
X199300795Y-94023256D01*
X199414063Y-94192774D01*
X199558226Y-94336937D01*
X199727744Y-94450205D01*
X199916102Y-94528226D01*
X200116061Y-94568000D01*
X200134703Y-94568000D01*
X200133000Y-94576561D01*
X200133000Y-94780439D01*
X200172774Y-94980398D01*
X200250795Y-95168756D01*
X200364063Y-95338274D01*
X200508226Y-95482437D01*
X200677744Y-95595705D01*
X200866102Y-95673726D01*
X201066061Y-95713500D01*
X201269939Y-95713500D01*
X201469898Y-95673726D01*
X201658256Y-95595705D01*
X201827774Y-95482437D01*
X201971937Y-95338274D01*
X202085205Y-95168756D01*
X202163226Y-94980398D01*
X202203000Y-94780439D01*
X202203000Y-94576561D01*
X202163226Y-94376602D01*
X202085205Y-94188244D01*
X201971937Y-94018726D01*
X201827774Y-93874563D01*
X201658256Y-93761295D01*
X201469898Y-93683274D01*
X201269939Y-93643500D01*
X201251297Y-93643500D01*
X201253000Y-93634939D01*
X201253000Y-93443411D01*
X244937000Y-93443411D01*
X244937000Y-93627589D01*
X244972932Y-93808229D01*
X245043414Y-93978389D01*
X245145738Y-94131528D01*
X245275972Y-94261762D01*
X245429111Y-94364086D01*
X245599271Y-94434568D01*
X245779911Y-94470500D01*
X245964089Y-94470500D01*
X246144729Y-94434568D01*
X246314889Y-94364086D01*
X246468028Y-94261762D01*
X246598262Y-94131528D01*
X246602250Y-94125560D01*
X246606238Y-94131528D01*
X246736472Y-94261762D01*
X246889611Y-94364086D01*
X247059771Y-94434568D01*
X247240411Y-94470500D01*
X247424589Y-94470500D01*
X247605229Y-94434568D01*
X247775389Y-94364086D01*
X247928528Y-94261762D01*
X248058762Y-94131528D01*
X248161086Y-93978389D01*
X248180715Y-93931000D01*
X248486928Y-93931000D01*
X248486928Y-97331000D01*
X248499188Y-97455482D01*
X248535498Y-97575180D01*
X248594463Y-97685494D01*
X248673815Y-97782185D01*
X248770506Y-97861537D01*
X248880820Y-97920502D01*
X249000518Y-97956812D01*
X249125000Y-97969072D01*
X252525000Y-97969072D01*
X252649482Y-97956812D01*
X252769180Y-97920502D01*
X252879494Y-97861537D01*
X252976185Y-97782185D01*
X253055537Y-97685494D01*
X253114502Y-97575180D01*
X253150812Y-97455482D01*
X253163072Y-97331000D01*
X253163072Y-93931000D01*
X253150812Y-93806518D01*
X253114502Y-93686820D01*
X253055537Y-93576506D01*
X252976185Y-93479815D01*
X252879494Y-93400463D01*
X252769180Y-93341498D01*
X252649482Y-93305188D01*
X252525000Y-93292928D01*
X249125000Y-93292928D01*
X249000518Y-93305188D01*
X248880820Y-93341498D01*
X248770506Y-93400463D01*
X248673815Y-93479815D01*
X248594463Y-93576506D01*
X248535498Y-93686820D01*
X248499188Y-93806518D01*
X248486928Y-93931000D01*
X248180715Y-93931000D01*
X248231568Y-93808229D01*
X248267500Y-93627589D01*
X248267500Y-93443411D01*
X248231568Y-93262771D01*
X248161086Y-93092611D01*
X248058762Y-92939472D01*
X247928528Y-92809238D01*
X247775389Y-92706914D01*
X247605229Y-92636432D01*
X247424589Y-92600500D01*
X247240411Y-92600500D01*
X247059771Y-92636432D01*
X246889611Y-92706914D01*
X246736472Y-92809238D01*
X246606238Y-92939472D01*
X246602250Y-92945440D01*
X246598262Y-92939472D01*
X246468028Y-92809238D01*
X246314889Y-92706914D01*
X246144729Y-92636432D01*
X245964089Y-92600500D01*
X245779911Y-92600500D01*
X245599271Y-92636432D01*
X245429111Y-92706914D01*
X245275972Y-92809238D01*
X245145738Y-92939472D01*
X245043414Y-93092611D01*
X244972932Y-93262771D01*
X244937000Y-93443411D01*
X201253000Y-93443411D01*
X201253000Y-93431061D01*
X201213226Y-93231102D01*
X201135205Y-93042744D01*
X201021937Y-92873226D01*
X200877774Y-92729063D01*
X200708256Y-92615795D01*
X200519898Y-92537774D01*
X200319939Y-92498000D01*
X200116061Y-92498000D01*
X199916102Y-92537774D01*
X199727744Y-92615795D01*
X199558226Y-92729063D01*
X199414063Y-92873226D01*
X199300795Y-93042744D01*
X199222774Y-93231102D01*
X199183000Y-93431061D01*
X189915000Y-93431061D01*
X189915000Y-91744000D01*
X190006068Y-91744000D01*
X189981932Y-91802271D01*
G04 #@! TA.AperFunction,Conductor*
D18*
G36*
X189981932Y-91802271D02*
G01*
X189946000Y-91982911D01*
X189946000Y-92167089D01*
X189981932Y-92347729D01*
X190052414Y-92517889D01*
X190154738Y-92671028D01*
X190284972Y-92801262D01*
X190438111Y-92903586D01*
X190608271Y-92974068D01*
X190788911Y-93010000D01*
X190973089Y-93010000D01*
X191153729Y-92974068D01*
X191323889Y-92903586D01*
X191477028Y-92801262D01*
X191607262Y-92671028D01*
X191709586Y-92517889D01*
X191780068Y-92347729D01*
X191816000Y-92167089D01*
X191816000Y-91982911D01*
X191780068Y-91802271D01*
X191755932Y-91744000D01*
X203087068Y-91744000D01*
X203062932Y-91802271D01*
X203027000Y-91982911D01*
X203027000Y-92167089D01*
X203062932Y-92347729D01*
X203133414Y-92517889D01*
X203235738Y-92671028D01*
X203365972Y-92801262D01*
X203519111Y-92903586D01*
X203689271Y-92974068D01*
X203869911Y-93010000D01*
X204054089Y-93010000D01*
X204234729Y-92974068D01*
X204404889Y-92903586D01*
X204558028Y-92801262D01*
X204688262Y-92671028D01*
X204790586Y-92517889D01*
X204861068Y-92347729D01*
X204897000Y-92167089D01*
X204897000Y-91982911D01*
X204861068Y-91802271D01*
X204836932Y-91744000D01*
X210834068Y-91744000D01*
X210809932Y-91802271D01*
X210774000Y-91982911D01*
X210774000Y-92167089D01*
X210809932Y-92347729D01*
X210880414Y-92517889D01*
X210982738Y-92671028D01*
X211112972Y-92801262D01*
X211266111Y-92903586D01*
X211436271Y-92974068D01*
X211616911Y-93010000D01*
X211801089Y-93010000D01*
X211981729Y-92974068D01*
X212151889Y-92903586D01*
X212305028Y-92801262D01*
X212435262Y-92671028D01*
X212537586Y-92517889D01*
X212608068Y-92347729D01*
X212644000Y-92167089D01*
X212644000Y-91982911D01*
X212608068Y-91802271D01*
X212583932Y-91744000D01*
X228614068Y-91744000D01*
X228589932Y-91802271D01*
X228554000Y-91982911D01*
X228554000Y-92167089D01*
X228589932Y-92347729D01*
X228660414Y-92517889D01*
X228762738Y-92671028D01*
X228892972Y-92801262D01*
X229046111Y-92903586D01*
X229216271Y-92974068D01*
X229396911Y-93010000D01*
X229581089Y-93010000D01*
X229761729Y-92974068D01*
X229931889Y-92903586D01*
X230085028Y-92801262D01*
X230215262Y-92671028D01*
X230317586Y-92517889D01*
X230388068Y-92347729D01*
X230424000Y-92167089D01*
X230424000Y-91982911D01*
X230388068Y-91802271D01*
X230363932Y-91744000D01*
X249950068Y-91744000D01*
X249925932Y-91802271D01*
X249890000Y-91982911D01*
X249890000Y-92167089D01*
X249925932Y-92347729D01*
X249996414Y-92517889D01*
X250098738Y-92671028D01*
X250228972Y-92801262D01*
X250382111Y-92903586D01*
X250552271Y-92974068D01*
X250732911Y-93010000D01*
X250917089Y-93010000D01*
X251097729Y-92974068D01*
X251267889Y-92903586D01*
X251421028Y-92801262D01*
X251551262Y-92671028D01*
X251653586Y-92517889D01*
X251724068Y-92347729D01*
X251760000Y-92167089D01*
X251760000Y-91982911D01*
X251724068Y-91802271D01*
X251699932Y-91744000D01*
X253188001Y-91744000D01*
X253188001Y-98820069D01*
X253129729Y-98795932D01*
X252949089Y-98760000D01*
X252764911Y-98760000D01*
X252584271Y-98795932D01*
X252414111Y-98866414D01*
X252260972Y-98968738D01*
X252130738Y-99098972D01*
X252028414Y-99252111D01*
X251957932Y-99422271D01*
X251922000Y-99602911D01*
X251922000Y-99787089D01*
X251957932Y-99967729D01*
X252028414Y-100137889D01*
X252130738Y-100291028D01*
X252260972Y-100421262D01*
X252414111Y-100523586D01*
X252584271Y-100594068D01*
X252764911Y-100630000D01*
X252949089Y-100630000D01*
X253129729Y-100594068D01*
X253188001Y-100569931D01*
X253188000Y-107456069D01*
X253129729Y-107431932D01*
X252949089Y-107396000D01*
X252764911Y-107396000D01*
X252584271Y-107431932D01*
X252414111Y-107502414D01*
X252260972Y-107604738D01*
X252130738Y-107734972D01*
X252028414Y-107888111D01*
X251957932Y-108058271D01*
X251922000Y-108238911D01*
X251922000Y-108423089D01*
X251957932Y-108603729D01*
X252028414Y-108773889D01*
X252130738Y-108927028D01*
X252260972Y-109057262D01*
X252414111Y-109159586D01*
X252584271Y-109230068D01*
X252764911Y-109266000D01*
X252949089Y-109266000D01*
X253129729Y-109230068D01*
X253188000Y-109205931D01*
X253188000Y-120219000D01*
X252207932Y-120219000D01*
X252232068Y-120160729D01*
X252268000Y-119980089D01*
X252268000Y-119795911D01*
X252232068Y-119615271D01*
X252161586Y-119445111D01*
X252059262Y-119291972D01*
X251929028Y-119161738D01*
X251775889Y-119059414D01*
X251605729Y-118988932D01*
X251425089Y-118953000D01*
X251240911Y-118953000D01*
X251060271Y-118988932D01*
X250890111Y-119059414D01*
X250736972Y-119161738D01*
X250606738Y-119291972D01*
X250504414Y-119445111D01*
X250433932Y-119615271D01*
X250398000Y-119795911D01*
X250398000Y-119980089D01*
X250433932Y-120160729D01*
X250458068Y-120219000D01*
X222997932Y-120219000D01*
X223022068Y-120160729D01*
X223058000Y-119980089D01*
X223058000Y-119795911D01*
X223022068Y-119615271D01*
X222951586Y-119445111D01*
X222849262Y-119291972D01*
X222719028Y-119161738D01*
X222565889Y-119059414D01*
X222395729Y-118988932D01*
X222215089Y-118953000D01*
X222030911Y-118953000D01*
X221850271Y-118988932D01*
X221680111Y-119059414D01*
X221526972Y-119161738D01*
X221396738Y-119291972D01*
X221294414Y-119445111D01*
X221223932Y-119615271D01*
X221188000Y-119795911D01*
X221188000Y-119980089D01*
X221223932Y-120160729D01*
X221248068Y-120219000D01*
X208646932Y-120219000D01*
X208671068Y-120160729D01*
X208707000Y-119980089D01*
X208707000Y-119795911D01*
X208671068Y-119615271D01*
X208600586Y-119445111D01*
X208498262Y-119291972D01*
X208368028Y-119161738D01*
X208214889Y-119059414D01*
X208044729Y-118988932D01*
X207864089Y-118953000D01*
X207679911Y-118953000D01*
X207499271Y-118988932D01*
X207329111Y-119059414D01*
X207175972Y-119161738D01*
X207045738Y-119291972D01*
X206943414Y-119445111D01*
X206872932Y-119615271D01*
X206837000Y-119795911D01*
X206837000Y-119980089D01*
X206872932Y-120160729D01*
X206897068Y-120219000D01*
X189915000Y-120219000D01*
X189915000Y-114505000D01*
X189939928Y-114505000D01*
X189939928Y-117905000D01*
X189952188Y-118029482D01*
X189988498Y-118149180D01*
X190047463Y-118259494D01*
X190126815Y-118356185D01*
X190223506Y-118435537D01*
X190333820Y-118494502D01*
X190453518Y-118530812D01*
X190578000Y-118543072D01*
X193978000Y-118543072D01*
X194102482Y-118530812D01*
X194222180Y-118494502D01*
X194332494Y-118435537D01*
X194429185Y-118356185D01*
X194508537Y-118259494D01*
X194567502Y-118149180D01*
X194603812Y-118029482D01*
X194616072Y-117905000D01*
X194616072Y-115609000D01*
X196377928Y-115609000D01*
X196377928Y-117309000D01*
X196390188Y-117433482D01*
X196426498Y-117553180D01*
X196485463Y-117663494D01*
X196564815Y-117760185D01*
X196661506Y-117839537D01*
X196771820Y-117898502D01*
X196891518Y-117934812D01*
X197016000Y-117947072D01*
X198716000Y-117947072D01*
X198840482Y-117934812D01*
X198960180Y-117898502D01*
X199070494Y-117839537D01*
X199167185Y-117760185D01*
X199246537Y-117663494D01*
X199305502Y-117553180D01*
X199327513Y-117480620D01*
X199459368Y-117612475D01*
X199702589Y-117774990D01*
X199972842Y-117886932D01*
X200259740Y-117944000D01*
X200552260Y-117944000D01*
X200839158Y-117886932D01*
X201109411Y-117774990D01*
X201352632Y-117612475D01*
X201559475Y-117405632D01*
X201721990Y-117162411D01*
X201833932Y-116892158D01*
X201891000Y-116605260D01*
X201891000Y-116312740D01*
X201833932Y-116025842D01*
X201721990Y-115755589D01*
X201559475Y-115512368D01*
X201352632Y-115305525D01*
X201109411Y-115143010D01*
X200839158Y-115031068D01*
X200552260Y-114974000D01*
X200259740Y-114974000D01*
X199972842Y-115031068D01*
X199702589Y-115143010D01*
X199459368Y-115305525D01*
X199327513Y-115437380D01*
X199305502Y-115364820D01*
X199246537Y-115254506D01*
X199167185Y-115157815D01*
X199070494Y-115078463D01*
X198960180Y-115019498D01*
X198840482Y-114983188D01*
X198716000Y-114970928D01*
X197016000Y-114970928D01*
X196891518Y-114983188D01*
X196771820Y-115019498D01*
X196661506Y-115078463D01*
X196564815Y-115157815D01*
X196485463Y-115254506D01*
X196426498Y-115364820D01*
X196390188Y-115484518D01*
X196377928Y-115609000D01*
X194616072Y-115609000D01*
X194616072Y-114768290D01*
X194672271Y-114791568D01*
X194852911Y-114827500D01*
X195037089Y-114827500D01*
X195217729Y-114791568D01*
X195387889Y-114721086D01*
X195541028Y-114618762D01*
X195671262Y-114488528D01*
X195773586Y-114335389D01*
X195844068Y-114165229D01*
X195880000Y-113984589D01*
X195880000Y-113800411D01*
X195844068Y-113619771D01*
X195773586Y-113449611D01*
X195770500Y-113444992D01*
X195770500Y-112429911D01*
X203561500Y-112429911D01*
X203561500Y-112614089D01*
X203597432Y-112794729D01*
X203667914Y-112964889D01*
X203770238Y-113118028D01*
X203900472Y-113248262D01*
X204053611Y-113350586D01*
X204223771Y-113421068D01*
X204404411Y-113457000D01*
X204588589Y-113457000D01*
X204769229Y-113421068D01*
X204939389Y-113350586D01*
X205092528Y-113248262D01*
X205222762Y-113118028D01*
X205325086Y-112964889D01*
X205395568Y-112794729D01*
X205431500Y-112614089D01*
X205431500Y-112429911D01*
X205395568Y-112249271D01*
X205325086Y-112079111D01*
X205222762Y-111925972D01*
X205092528Y-111795738D01*
X204939389Y-111693414D01*
X204769229Y-111622932D01*
X204588589Y-111587000D01*
X204404411Y-111587000D01*
X204223771Y-111622932D01*
X204053611Y-111693414D01*
X203900472Y-111795738D01*
X203770238Y-111925972D01*
X203667914Y-112079111D01*
X203597432Y-112249271D01*
X203561500Y-112429911D01*
X195770500Y-112429911D01*
X195770500Y-109413508D01*
X195869738Y-109562028D01*
X195999972Y-109692262D01*
X196153111Y-109794586D01*
X196323271Y-109865068D01*
X196503911Y-109901000D01*
X196688089Y-109901000D01*
X196868729Y-109865068D01*
X197038889Y-109794586D01*
X197192028Y-109692262D01*
X197231000Y-109653290D01*
X197269972Y-109692262D01*
X197423111Y-109794586D01*
X197593271Y-109865068D01*
X197773911Y-109901000D01*
X197958089Y-109901000D01*
X198138729Y-109865068D01*
X198308889Y-109794586D01*
X198462028Y-109692262D01*
X198501000Y-109653290D01*
X198539972Y-109692262D01*
X198693111Y-109794586D01*
X198863271Y-109865068D01*
X199043911Y-109901000D01*
X199228089Y-109901000D01*
X199408729Y-109865068D01*
X199578889Y-109794586D01*
X199732028Y-109692262D01*
X199771000Y-109653290D01*
X199809972Y-109692262D01*
X199963111Y-109794586D01*
X200133271Y-109865068D01*
X200313911Y-109901000D01*
X200498089Y-109901000D01*
X200678729Y-109865068D01*
X200848889Y-109794586D01*
X201002028Y-109692262D01*
X201132262Y-109562028D01*
X201231961Y-109412818D01*
X201233111Y-109413586D01*
X201403271Y-109484068D01*
X201583911Y-109520000D01*
X201768089Y-109520000D01*
X201948729Y-109484068D01*
X202118889Y-109413586D01*
X202272028Y-109311262D01*
X202402262Y-109181028D01*
X202504586Y-109027889D01*
X202575068Y-108857729D01*
X202611000Y-108677089D01*
X202611000Y-108492911D01*
X202575068Y-108312271D01*
X202504586Y-108142111D01*
X202503510Y-108140500D01*
X202504586Y-108138889D01*
X202575068Y-107968729D01*
X202611000Y-107788089D01*
X202611000Y-107603911D01*
X202591425Y-107505500D01*
X203048568Y-107505500D01*
X203581000Y-108037933D01*
X203581001Y-109750940D01*
X203577006Y-109791500D01*
X203592945Y-109953326D01*
X203640147Y-110108933D01*
X203716801Y-110252342D01*
X203775633Y-110324028D01*
X203819960Y-110378041D01*
X203851461Y-110403893D01*
X205381606Y-111934039D01*
X205407459Y-111965541D01*
X205471596Y-112018177D01*
X205533157Y-112068699D01*
X205595459Y-112102000D01*
X205676566Y-112145353D01*
X205832174Y-112192556D01*
X205953447Y-112204500D01*
X205953449Y-112204500D01*
X205993999Y-112208494D01*
X206034550Y-112204500D01*
X208407000Y-112204500D01*
X208407001Y-113005566D01*
X207661461Y-113751107D01*
X207629960Y-113776959D01*
X207604109Y-113808459D01*
X207526801Y-113902658D01*
X207450147Y-114046067D01*
X207402945Y-114201674D01*
X207387006Y-114363500D01*
X207391001Y-114404060D01*
X207391000Y-117027492D01*
X207387914Y-117032111D01*
X207317432Y-117202271D01*
X207281500Y-117382911D01*
X207281500Y-117567089D01*
X207317432Y-117747729D01*
X207387914Y-117917889D01*
X207490238Y-118071028D01*
X207620472Y-118201262D01*
X207773611Y-118303586D01*
X207943771Y-118374068D01*
X208124411Y-118410000D01*
X208308589Y-118410000D01*
X208489229Y-118374068D01*
X208659389Y-118303586D01*
X208664008Y-118300500D01*
X222844450Y-118300500D01*
X222885000Y-118304494D01*
X222925550Y-118300500D01*
X222925553Y-118300500D01*
X223046826Y-118288556D01*
X223202434Y-118241353D01*
X223345842Y-118164699D01*
X223471541Y-118061541D01*
X223497397Y-118030035D01*
X224017521Y-117509911D01*
X225506000Y-117509911D01*
X225506000Y-117694089D01*
X225541932Y-117874729D01*
X225612414Y-118044889D01*
X225714738Y-118198028D01*
X225844972Y-118328262D01*
X225998111Y-118430586D01*
X226168271Y-118501068D01*
X226348911Y-118537000D01*
X226533089Y-118537000D01*
X226713729Y-118501068D01*
X226883889Y-118430586D01*
X227037028Y-118328262D01*
X227167262Y-118198028D01*
X227269586Y-118044889D01*
X227340068Y-117874729D01*
X227376000Y-117694089D01*
X227376000Y-117509911D01*
X227792000Y-117509911D01*
X227792000Y-117694089D01*
X227827932Y-117874729D01*
X227898414Y-118044889D01*
X228000738Y-118198028D01*
X228130972Y-118328262D01*
X228284111Y-118430586D01*
X228454271Y-118501068D01*
X228634911Y-118537000D01*
X228819089Y-118537000D01*
X228999729Y-118501068D01*
X229169889Y-118430586D01*
X229323028Y-118328262D01*
X229453262Y-118198028D01*
X229489000Y-118144542D01*
X229524738Y-118198028D01*
X229654972Y-118328262D01*
X229808111Y-118430586D01*
X229978271Y-118501068D01*
X230158911Y-118537000D01*
X230343089Y-118537000D01*
X230523729Y-118501068D01*
X230693889Y-118430586D01*
X230847028Y-118328262D01*
X230977262Y-118198028D01*
X231079586Y-118044889D01*
X231150068Y-117874729D01*
X231186000Y-117694089D01*
X231186000Y-117509911D01*
X231150068Y-117329271D01*
X231079586Y-117159111D01*
X230977262Y-117005972D01*
X230847028Y-116875738D01*
X230693889Y-116773414D01*
X230523729Y-116702932D01*
X230343089Y-116667000D01*
X230158911Y-116667000D01*
X229978271Y-116702932D01*
X229808111Y-116773414D01*
X229654972Y-116875738D01*
X229524738Y-117005972D01*
X229489000Y-117059458D01*
X229453262Y-117005972D01*
X229323028Y-116875738D01*
X229169889Y-116773414D01*
X228999729Y-116702932D01*
X228819089Y-116667000D01*
X228634911Y-116667000D01*
X228454271Y-116702932D01*
X228284111Y-116773414D01*
X228130972Y-116875738D01*
X228000738Y-117005972D01*
X227898414Y-117159111D01*
X227827932Y-117329271D01*
X227792000Y-117509911D01*
X227376000Y-117509911D01*
X227340068Y-117329271D01*
X227269586Y-117159111D01*
X227167262Y-117005972D01*
X227037028Y-116875738D01*
X226883889Y-116773414D01*
X226713729Y-116702932D01*
X226533089Y-116667000D01*
X226348911Y-116667000D01*
X226168271Y-116702932D01*
X225998111Y-116773414D01*
X225844972Y-116875738D01*
X225714738Y-117005972D01*
X225612414Y-117159111D01*
X225541932Y-117329271D01*
X225506000Y-117509911D01*
X224017521Y-117509911D01*
X224130546Y-117396887D01*
X224162042Y-117371040D01*
X224187890Y-117339544D01*
X224187893Y-117339541D01*
X224265200Y-117245342D01*
X224341854Y-117101933D01*
X224370963Y-117005972D01*
X224389057Y-116946325D01*
X224401001Y-116825052D01*
X224401001Y-116825050D01*
X224404995Y-116784499D01*
X224401001Y-116743949D01*
X224401001Y-111667911D01*
X225506000Y-111667911D01*
X225506000Y-111852089D01*
X225541932Y-112032729D01*
X225612414Y-112202889D01*
X225714738Y-112356028D01*
X225844972Y-112486262D01*
X225998111Y-112588586D01*
X226168271Y-112659068D01*
X226348911Y-112695000D01*
X226533089Y-112695000D01*
X226713729Y-112659068D01*
X226883889Y-112588586D01*
X227037028Y-112486262D01*
X227167262Y-112356028D01*
X227269586Y-112202889D01*
X227340068Y-112032729D01*
X227376000Y-111852089D01*
X227376000Y-111667911D01*
X227792000Y-111667911D01*
X227792000Y-111852089D01*
X227827932Y-112032729D01*
X227898414Y-112202889D01*
X228000738Y-112356028D01*
X228130972Y-112486262D01*
X228284111Y-112588586D01*
X228454271Y-112659068D01*
X228634911Y-112695000D01*
X228819089Y-112695000D01*
X228999729Y-112659068D01*
X229169889Y-112588586D01*
X229323028Y-112486262D01*
X229453262Y-112356028D01*
X229489000Y-112302542D01*
X229524738Y-112356028D01*
X229654972Y-112486262D01*
X229808111Y-112588586D01*
X229978271Y-112659068D01*
X230158911Y-112695000D01*
X230343089Y-112695000D01*
X230523729Y-112659068D01*
X230693889Y-112588586D01*
X230847028Y-112486262D01*
X230977262Y-112356028D01*
X231079586Y-112202889D01*
X231150068Y-112032729D01*
X231186000Y-111852089D01*
X231186000Y-111667911D01*
X231150068Y-111487271D01*
X231079586Y-111317111D01*
X230977262Y-111163972D01*
X230847028Y-111033738D01*
X230720209Y-110949000D01*
X248486928Y-110949000D01*
X248486928Y-114349000D01*
X248499188Y-114473482D01*
X248535498Y-114593180D01*
X248594463Y-114703494D01*
X248673815Y-114800185D01*
X248770506Y-114879537D01*
X248880820Y-114938502D01*
X249000518Y-114974812D01*
X249125000Y-114987072D01*
X252525000Y-114987072D01*
X252649482Y-114974812D01*
X252769180Y-114938502D01*
X252879494Y-114879537D01*
X252976185Y-114800185D01*
X253055537Y-114703494D01*
X253114502Y-114593180D01*
X253150812Y-114473482D01*
X253163072Y-114349000D01*
X253163072Y-110949000D01*
X253150812Y-110824518D01*
X253114502Y-110704820D01*
X253055537Y-110594506D01*
X252976185Y-110497815D01*
X252879494Y-110418463D01*
X252769180Y-110359498D01*
X252649482Y-110323188D01*
X252525000Y-110310928D01*
X249125000Y-110310928D01*
X249000518Y-110323188D01*
X248880820Y-110359498D01*
X248770506Y-110418463D01*
X248673815Y-110497815D01*
X248594463Y-110594506D01*
X248535498Y-110704820D01*
X248499188Y-110824518D01*
X248486928Y-110949000D01*
X230720209Y-110949000D01*
X230693889Y-110931414D01*
X230523729Y-110860932D01*
X230343089Y-110825000D01*
X230158911Y-110825000D01*
X229978271Y-110860932D01*
X229808111Y-110931414D01*
X229654972Y-111033738D01*
X229524738Y-111163972D01*
X229489000Y-111217458D01*
X229453262Y-111163972D01*
X229323028Y-111033738D01*
X229169889Y-110931414D01*
X228999729Y-110860932D01*
X228819089Y-110825000D01*
X228634911Y-110825000D01*
X228454271Y-110860932D01*
X228284111Y-110931414D01*
X228130972Y-111033738D01*
X228000738Y-111163972D01*
X227898414Y-111317111D01*
X227827932Y-111487271D01*
X227792000Y-111667911D01*
X227376000Y-111667911D01*
X227340068Y-111487271D01*
X227269586Y-111317111D01*
X227167262Y-111163972D01*
X227037028Y-111033738D01*
X226883889Y-110931414D01*
X226713729Y-110860932D01*
X226533089Y-110825000D01*
X226348911Y-110825000D01*
X226168271Y-110860932D01*
X225998111Y-110931414D01*
X225844972Y-111033738D01*
X225714738Y-111163972D01*
X225612414Y-111317111D01*
X225541932Y-111487271D01*
X225506000Y-111667911D01*
X224401001Y-111667911D01*
X224401001Y-109492096D01*
X224453748Y-109571038D01*
X224583982Y-109701272D01*
X224737121Y-109803596D01*
X224907281Y-109874078D01*
X225087921Y-109910010D01*
X225272099Y-109910010D01*
X225452739Y-109874078D01*
X225622899Y-109803596D01*
X225776038Y-109701272D01*
X225841399Y-109635911D01*
X233126000Y-109635911D01*
X233126000Y-109820089D01*
X233161932Y-110000729D01*
X233232414Y-110170889D01*
X233334738Y-110324028D01*
X233464972Y-110454262D01*
X233618111Y-110556586D01*
X233788271Y-110627068D01*
X233968911Y-110663000D01*
X234153089Y-110663000D01*
X234333729Y-110627068D01*
X234503889Y-110556586D01*
X234657028Y-110454262D01*
X234787262Y-110324028D01*
X234889586Y-110170889D01*
X234960068Y-110000729D01*
X234996000Y-109820089D01*
X234996000Y-109635911D01*
X238333000Y-109635911D01*
X238333000Y-109820089D01*
X238368932Y-110000729D01*
X238439414Y-110170889D01*
X238541738Y-110324028D01*
X238671972Y-110454262D01*
X238825111Y-110556586D01*
X238995271Y-110627068D01*
X239175911Y-110663000D01*
X239360089Y-110663000D01*
X239540729Y-110627068D01*
X239710889Y-110556586D01*
X239864028Y-110454262D01*
X239994262Y-110324028D01*
X240096586Y-110170889D01*
X240167068Y-110000729D01*
X240203000Y-109820089D01*
X240203000Y-109635911D01*
X240167068Y-109455271D01*
X240096586Y-109285111D01*
X239994262Y-109131972D01*
X239864028Y-109001738D01*
X239710889Y-108899414D01*
X239540729Y-108828932D01*
X239360089Y-108793000D01*
X239175911Y-108793000D01*
X238995271Y-108828932D01*
X238825111Y-108899414D01*
X238671972Y-109001738D01*
X238541738Y-109131972D01*
X238439414Y-109285111D01*
X238368932Y-109455271D01*
X238333000Y-109635911D01*
X234996000Y-109635911D01*
X234960068Y-109455271D01*
X234889586Y-109285111D01*
X234787262Y-109131972D01*
X234657028Y-109001738D01*
X234503889Y-108899414D01*
X234333729Y-108828932D01*
X234153089Y-108793000D01*
X233968911Y-108793000D01*
X233788271Y-108828932D01*
X233618111Y-108899414D01*
X233464972Y-109001738D01*
X233334738Y-109131972D01*
X233232414Y-109285111D01*
X233161932Y-109455271D01*
X233126000Y-109635911D01*
X225841399Y-109635911D01*
X225906272Y-109571038D01*
X226008596Y-109417899D01*
X226079078Y-109247739D01*
X226115010Y-109067099D01*
X226115010Y-108882921D01*
X226079078Y-108702281D01*
X226008596Y-108532121D01*
X225906272Y-108378982D01*
X225776038Y-108248748D01*
X225622899Y-108146424D01*
X225452739Y-108075942D01*
X225272099Y-108040010D01*
X225087921Y-108040010D01*
X224907281Y-108075942D01*
X224737121Y-108146424D01*
X224583982Y-108248748D01*
X224453748Y-108378982D01*
X224401001Y-108457924D01*
X224401001Y-107857911D01*
X227665000Y-107857911D01*
X227665000Y-108042089D01*
X227700932Y-108222729D01*
X227771414Y-108392889D01*
X227873738Y-108546028D01*
X228003972Y-108676262D01*
X228157111Y-108778586D01*
X228327271Y-108849068D01*
X228507911Y-108885000D01*
X228692089Y-108885000D01*
X228872729Y-108849068D01*
X229042889Y-108778586D01*
X229196028Y-108676262D01*
X229326262Y-108546028D01*
X229425500Y-108397508D01*
X229524738Y-108546028D01*
X229654972Y-108676262D01*
X229808111Y-108778586D01*
X229978271Y-108849068D01*
X230158911Y-108885000D01*
X230343089Y-108885000D01*
X230523729Y-108849068D01*
X230693889Y-108778586D01*
X230847028Y-108676262D01*
X230977262Y-108546028D01*
X231079586Y-108392889D01*
X231150068Y-108222729D01*
X231186000Y-108042089D01*
X231186000Y-107857911D01*
X231150068Y-107677271D01*
X231079586Y-107507111D01*
X230977262Y-107353972D01*
X230847028Y-107223738D01*
X230693889Y-107121414D01*
X230523729Y-107050932D01*
X230343089Y-107015000D01*
X230158911Y-107015000D01*
X229978271Y-107050932D01*
X229808111Y-107121414D01*
X229654972Y-107223738D01*
X229524738Y-107353972D01*
X229425500Y-107502492D01*
X229326262Y-107353972D01*
X229196028Y-107223738D01*
X229042889Y-107121414D01*
X228872729Y-107050932D01*
X228692089Y-107015000D01*
X228507911Y-107015000D01*
X228327271Y-107050932D01*
X228157111Y-107121414D01*
X228003972Y-107223738D01*
X227873738Y-107353972D01*
X227771414Y-107507111D01*
X227700932Y-107677271D01*
X227665000Y-107857911D01*
X224401001Y-107857911D01*
X224401001Y-107057789D01*
X224436762Y-107022028D01*
X224539086Y-106868889D01*
X224609568Y-106698729D01*
X224645500Y-106518089D01*
X224645500Y-106333911D01*
X224609568Y-106153271D01*
X224539086Y-105983111D01*
X224436762Y-105829972D01*
X224306528Y-105699738D01*
X224153389Y-105597414D01*
X223983229Y-105526932D01*
X223802589Y-105491000D01*
X223618411Y-105491000D01*
X223437771Y-105526932D01*
X223267611Y-105597414D01*
X223114472Y-105699738D01*
X222984238Y-105829972D01*
X222881914Y-105983111D01*
X222811432Y-106153271D01*
X222775500Y-106333911D01*
X222775500Y-106354491D01*
X222761946Y-106399173D01*
X222746007Y-106560999D01*
X222750002Y-106601559D01*
X222750001Y-114643535D01*
X222612271Y-114670932D01*
X222595012Y-114678081D01*
X222570586Y-114619111D01*
X222527080Y-114554000D01*
X222570586Y-114488889D01*
X222641068Y-114318729D01*
X222677000Y-114138089D01*
X222677000Y-113953911D01*
X222641068Y-113773271D01*
X222570586Y-113603111D01*
X222468262Y-113449972D01*
X222338028Y-113319738D01*
X222184889Y-113217414D01*
X222014729Y-113146932D01*
X221834089Y-113111000D01*
X221649911Y-113111000D01*
X221469271Y-113146932D01*
X221299111Y-113217414D01*
X221145972Y-113319738D01*
X221015738Y-113449972D01*
X220913414Y-113603111D01*
X220842932Y-113773271D01*
X220807000Y-113953911D01*
X220807000Y-114138089D01*
X220842932Y-114318729D01*
X220913414Y-114488889D01*
X220956920Y-114554000D01*
X220913414Y-114619111D01*
X220842932Y-114789271D01*
X220807000Y-114969911D01*
X220807000Y-115154089D01*
X220842932Y-115334729D01*
X220913414Y-115504889D01*
X221015738Y-115658028D01*
X221145972Y-115788262D01*
X221299111Y-115890586D01*
X221469271Y-115961068D01*
X221649911Y-115997000D01*
X221834089Y-115997000D01*
X222014729Y-115961068D01*
X222031988Y-115953919D01*
X222056414Y-116012889D01*
X222158738Y-116166028D01*
X222288972Y-116296262D01*
X222442111Y-116398586D01*
X222612271Y-116469068D01*
X222705045Y-116487522D01*
X222543067Y-116649500D01*
X216269790Y-116649500D01*
X216372262Y-116547028D01*
X216474586Y-116393889D01*
X216545068Y-116223729D01*
X216581000Y-116043089D01*
X216581000Y-115858911D01*
X216545068Y-115678271D01*
X216500221Y-115570000D01*
X216545068Y-115461729D01*
X216581000Y-115281089D01*
X216581000Y-115096911D01*
X216545068Y-114916271D01*
X216474586Y-114746111D01*
X216372262Y-114592972D01*
X216242028Y-114462738D01*
X216088889Y-114360414D01*
X215918729Y-114289932D01*
X215738089Y-114254000D01*
X215553911Y-114254000D01*
X215373271Y-114289932D01*
X215203111Y-114360414D01*
X215049972Y-114462738D01*
X214919738Y-114592972D01*
X214817414Y-114746111D01*
X214746932Y-114916271D01*
X214711000Y-115096911D01*
X214711000Y-115281089D01*
X214746932Y-115461729D01*
X214791779Y-115570000D01*
X214746932Y-115678271D01*
X214711000Y-115858911D01*
X214711000Y-116043089D01*
X214746932Y-116223729D01*
X214817414Y-116393889D01*
X214919738Y-116547028D01*
X215022210Y-116649500D01*
X209042000Y-116649500D01*
X209042000Y-114705432D01*
X209412521Y-114334911D01*
X212552000Y-114334911D01*
X212552000Y-114519089D01*
X212587932Y-114699729D01*
X212658414Y-114869889D01*
X212760738Y-115023028D01*
X212890972Y-115153262D01*
X213044111Y-115255586D01*
X213214271Y-115326068D01*
X213394911Y-115362000D01*
X213579089Y-115362000D01*
X213759729Y-115326068D01*
X213929889Y-115255586D01*
X214083028Y-115153262D01*
X214213262Y-115023028D01*
X214315586Y-114869889D01*
X214386068Y-114699729D01*
X214422000Y-114519089D01*
X214422000Y-114334911D01*
X214386068Y-114154271D01*
X214315586Y-113984111D01*
X214213262Y-113830972D01*
X214083028Y-113700738D01*
X213929889Y-113598414D01*
X213759729Y-113527932D01*
X213579089Y-113492000D01*
X213394911Y-113492000D01*
X213214271Y-113527932D01*
X213044111Y-113598414D01*
X212890972Y-113700738D01*
X212760738Y-113830972D01*
X212658414Y-113984111D01*
X212587932Y-114154271D01*
X212552000Y-114334911D01*
X209412521Y-114334911D01*
X209787539Y-113959894D01*
X209819041Y-113934041D01*
X209874119Y-113866928D01*
X209922199Y-113808343D01*
X209998853Y-113664934D01*
X210012553Y-113619771D01*
X210046056Y-113509326D01*
X210058000Y-113388053D01*
X210058000Y-113388051D01*
X210061994Y-113347500D01*
X210058000Y-113306950D01*
X210058000Y-113064911D01*
X214330000Y-113064911D01*
X214330000Y-113249089D01*
X214365932Y-113429729D01*
X214436414Y-113599889D01*
X214538738Y-113753028D01*
X214668972Y-113883262D01*
X214822111Y-113985586D01*
X214992271Y-114056068D01*
X215172911Y-114092000D01*
X215357089Y-114092000D01*
X215537729Y-114056068D01*
X215707889Y-113985586D01*
X215861028Y-113883262D01*
X215991262Y-113753028D01*
X216093586Y-113599889D01*
X216164068Y-113429729D01*
X216200000Y-113249089D01*
X216200000Y-113064911D01*
X216164068Y-112884271D01*
X216093586Y-112714111D01*
X215991262Y-112560972D01*
X215861028Y-112430738D01*
X215707889Y-112328414D01*
X215537729Y-112257932D01*
X215357089Y-112222000D01*
X215172911Y-112222000D01*
X214992271Y-112257932D01*
X214822111Y-112328414D01*
X214668972Y-112430738D01*
X214538738Y-112560972D01*
X214436414Y-112714111D01*
X214365932Y-112884271D01*
X214330000Y-113064911D01*
X210058000Y-113064911D01*
X210058000Y-112006503D01*
X210149705Y-111869256D01*
X210227726Y-111680898D01*
X210267500Y-111480939D01*
X210267500Y-111277061D01*
X210227726Y-111077102D01*
X210149705Y-110888744D01*
X210058000Y-110751497D01*
X210058000Y-109625432D01*
X211034934Y-108648500D01*
X212098477Y-108648500D01*
X212079932Y-108693271D01*
X212044000Y-108873911D01*
X212044000Y-109058089D01*
X212079932Y-109238729D01*
X212150414Y-109408889D01*
X212252738Y-109562028D01*
X212291710Y-109601000D01*
X212252738Y-109639972D01*
X212150414Y-109793111D01*
X212079932Y-109963271D01*
X212044000Y-110143911D01*
X212044000Y-110328089D01*
X212079932Y-110508729D01*
X212150414Y-110678889D01*
X212252738Y-110832028D01*
X212382972Y-110962262D01*
X212536111Y-111064586D01*
X212706271Y-111135068D01*
X212886911Y-111171000D01*
X213071089Y-111171000D01*
X213126836Y-111159911D01*
X214330000Y-111159911D01*
X214330000Y-111344089D01*
X214365932Y-111524729D01*
X214436414Y-111694889D01*
X214538738Y-111848028D01*
X214668972Y-111978262D01*
X214822111Y-112080586D01*
X214992271Y-112151068D01*
X215172911Y-112187000D01*
X215357089Y-112187000D01*
X215537729Y-112151068D01*
X215707889Y-112080586D01*
X215861028Y-111978262D01*
X215991262Y-111848028D01*
X216093586Y-111694889D01*
X216164068Y-111524729D01*
X216200000Y-111344089D01*
X216200000Y-111159911D01*
X216164068Y-110979271D01*
X216093586Y-110809111D01*
X215991262Y-110655972D01*
X215861028Y-110525738D01*
X215707889Y-110423414D01*
X215537729Y-110352932D01*
X215357089Y-110317000D01*
X215172911Y-110317000D01*
X214992271Y-110352932D01*
X214822111Y-110423414D01*
X214668972Y-110525738D01*
X214538738Y-110655972D01*
X214436414Y-110809111D01*
X214365932Y-110979271D01*
X214330000Y-111159911D01*
X213126836Y-111159911D01*
X213251729Y-111135068D01*
X213421889Y-111064586D01*
X213575028Y-110962262D01*
X213705262Y-110832028D01*
X213807586Y-110678889D01*
X213878068Y-110508729D01*
X213914000Y-110328089D01*
X213914000Y-110143911D01*
X216870000Y-110143911D01*
X216870000Y-110328089D01*
X216905932Y-110508729D01*
X216976414Y-110678889D01*
X217078738Y-110832028D01*
X217208972Y-110962262D01*
X217362111Y-111064586D01*
X217532271Y-111135068D01*
X217712911Y-111171000D01*
X217897089Y-111171000D01*
X218077729Y-111135068D01*
X218247889Y-111064586D01*
X218401028Y-110962262D01*
X218531262Y-110832028D01*
X218575606Y-110765661D01*
X220566250Y-110765661D01*
X220566250Y-110949839D01*
X220602182Y-111130479D01*
X220672664Y-111300639D01*
X220774988Y-111453778D01*
X220905222Y-111584012D01*
X221058361Y-111686336D01*
X221228521Y-111756818D01*
X221409161Y-111792750D01*
X221593339Y-111792750D01*
X221773979Y-111756818D01*
X221944139Y-111686336D01*
X222097278Y-111584012D01*
X222227512Y-111453778D01*
X222329836Y-111300639D01*
X222400318Y-111130479D01*
X222436250Y-110949839D01*
X222436250Y-110765661D01*
X222400318Y-110585021D01*
X222329836Y-110414861D01*
X222227512Y-110261722D01*
X222097278Y-110131488D01*
X221944139Y-110029164D01*
X221773979Y-109958682D01*
X221593339Y-109922750D01*
X221409161Y-109922750D01*
X221228521Y-109958682D01*
X221058361Y-110029164D01*
X220905222Y-110131488D01*
X220774988Y-110261722D01*
X220672664Y-110414861D01*
X220602182Y-110585021D01*
X220566250Y-110765661D01*
X218575606Y-110765661D01*
X218633586Y-110678889D01*
X218704068Y-110508729D01*
X218740000Y-110328089D01*
X218740000Y-110143911D01*
X218704068Y-109963271D01*
X218633586Y-109793111D01*
X218531262Y-109639972D01*
X218401028Y-109509738D01*
X218247889Y-109407414D01*
X218077729Y-109336932D01*
X217897089Y-109301000D01*
X217712911Y-109301000D01*
X217532271Y-109336932D01*
X217362111Y-109407414D01*
X217208972Y-109509738D01*
X217078738Y-109639972D01*
X216976414Y-109793111D01*
X216905932Y-109963271D01*
X216870000Y-110143911D01*
X213914000Y-110143911D01*
X213878068Y-109963271D01*
X213807586Y-109793111D01*
X213705262Y-109639972D01*
X213666290Y-109601000D01*
X213705262Y-109562028D01*
X213807586Y-109408889D01*
X213878068Y-109238729D01*
X213914000Y-109058089D01*
X213914000Y-108873911D01*
X213878068Y-108693271D01*
X213807586Y-108523111D01*
X213721651Y-108394500D01*
X213807586Y-108265889D01*
X213878068Y-108095729D01*
X213914000Y-107915089D01*
X213914000Y-107730911D01*
X213878068Y-107550271D01*
X213807586Y-107380111D01*
X213721651Y-107251500D01*
X213807586Y-107122889D01*
X213878068Y-106952729D01*
X213914000Y-106772089D01*
X213914000Y-106587911D01*
X213878068Y-106407271D01*
X213807586Y-106237111D01*
X213705262Y-106083972D01*
X213575028Y-105953738D01*
X213426508Y-105854500D01*
X213575028Y-105755262D01*
X213705262Y-105625028D01*
X213807586Y-105471889D01*
X213878068Y-105301729D01*
X213914000Y-105121089D01*
X213914000Y-104936911D01*
X213878068Y-104756271D01*
X213807586Y-104586111D01*
X213705262Y-104432972D01*
X213575028Y-104302738D01*
X213421889Y-104200414D01*
X213251729Y-104129932D01*
X213071089Y-104094000D01*
X212886911Y-104094000D01*
X212706271Y-104129932D01*
X212536111Y-104200414D01*
X212382972Y-104302738D01*
X212252738Y-104432972D01*
X212150414Y-104586111D01*
X212079932Y-104756271D01*
X212044000Y-104936911D01*
X212044000Y-105121089D01*
X212079932Y-105301729D01*
X212150414Y-105471889D01*
X212252738Y-105625028D01*
X212382972Y-105755262D01*
X212531492Y-105854500D01*
X212382972Y-105953738D01*
X212252738Y-106083972D01*
X212150414Y-106237111D01*
X212079932Y-106407271D01*
X212044000Y-106587911D01*
X212044000Y-106772089D01*
X212079932Y-106952729D01*
X212098477Y-106997500D01*
X210733550Y-106997500D01*
X210693000Y-106993506D01*
X210652449Y-106997500D01*
X210652447Y-106997500D01*
X210531174Y-107009444D01*
X210394406Y-107050932D01*
X210375566Y-107056647D01*
X210232157Y-107133301D01*
X210137958Y-107210608D01*
X210137955Y-107210611D01*
X210106459Y-107236459D01*
X210080611Y-107267955D01*
X208677466Y-108671102D01*
X208645959Y-108696959D01*
X208595865Y-108758000D01*
X208542801Y-108822658D01*
X208501774Y-108899414D01*
X208466147Y-108966067D01*
X208418944Y-109121675D01*
X208407416Y-109238729D01*
X208403006Y-109283500D01*
X208407000Y-109324051D01*
X208407001Y-110553500D01*
X206335933Y-110553500D01*
X205232000Y-109449568D01*
X205232000Y-107736550D01*
X205235994Y-107696000D01*
X205232000Y-107655447D01*
X205220056Y-107534174D01*
X205172853Y-107378566D01*
X205145478Y-107327352D01*
X205096199Y-107235157D01*
X205018891Y-107140958D01*
X204993041Y-107109459D01*
X204961540Y-107083607D01*
X204783344Y-106905411D01*
X205630500Y-106905411D01*
X205630500Y-107089589D01*
X205666432Y-107270229D01*
X205736914Y-107440389D01*
X205839238Y-107593528D01*
X205969472Y-107723762D01*
X206122611Y-107826086D01*
X206292771Y-107896568D01*
X206473411Y-107932500D01*
X206657589Y-107932500D01*
X206838229Y-107896568D01*
X207008389Y-107826086D01*
X207161528Y-107723762D01*
X207291762Y-107593528D01*
X207394086Y-107440389D01*
X207464568Y-107270229D01*
X207500500Y-107089589D01*
X207500500Y-106905411D01*
X207464568Y-106724771D01*
X207394086Y-106554611D01*
X207291762Y-106401472D01*
X207161528Y-106271238D01*
X207008389Y-106168914D01*
X206838229Y-106098432D01*
X206657589Y-106062500D01*
X206473411Y-106062500D01*
X206292771Y-106098432D01*
X206122611Y-106168914D01*
X205969472Y-106271238D01*
X205839238Y-106401472D01*
X205736914Y-106554611D01*
X205666432Y-106724771D01*
X205630500Y-106905411D01*
X204783344Y-106905411D01*
X204002898Y-106124966D01*
X203977041Y-106093459D01*
X203851342Y-105990301D01*
X203707934Y-105913647D01*
X203552326Y-105866444D01*
X203431053Y-105854500D01*
X203431050Y-105854500D01*
X203390500Y-105850506D01*
X203349950Y-105854500D01*
X201286523Y-105854500D01*
X201305068Y-105809729D01*
X201341000Y-105629089D01*
X201341000Y-105444911D01*
X201305068Y-105264271D01*
X201234586Y-105094111D01*
X201132262Y-104940972D01*
X201002028Y-104810738D01*
X200848889Y-104708414D01*
X200678729Y-104637932D01*
X200498089Y-104602000D01*
X200313911Y-104602000D01*
X200133271Y-104637932D01*
X199963111Y-104708414D01*
X199809972Y-104810738D01*
X199679738Y-104940972D01*
X199577414Y-105094111D01*
X199506932Y-105264271D01*
X199471000Y-105444911D01*
X199471000Y-105629089D01*
X199498819Y-105768944D01*
X199164338Y-105434464D01*
X199138482Y-105402958D01*
X199012783Y-105299800D01*
X198869375Y-105223146D01*
X198713767Y-105175943D01*
X198592494Y-105163999D01*
X198592491Y-105163999D01*
X198551941Y-105160005D01*
X198511391Y-105163999D01*
X197495477Y-105163999D01*
X197533798Y-105037670D01*
X197548500Y-104888401D01*
X197553415Y-104838500D01*
X197548500Y-104788598D01*
X197548500Y-104126402D01*
X197553415Y-104076500D01*
X197538091Y-103920911D01*
X200614000Y-103920911D01*
X200614000Y-104105089D01*
X200649932Y-104285729D01*
X200720414Y-104455889D01*
X200822738Y-104609028D01*
X200952972Y-104739262D01*
X201106111Y-104841586D01*
X201276271Y-104912068D01*
X201456911Y-104948000D01*
X201641089Y-104948000D01*
X201821729Y-104912068D01*
X201991889Y-104841586D01*
X202145028Y-104739262D01*
X202275262Y-104609028D01*
X202377586Y-104455889D01*
X202448068Y-104285729D01*
X202484000Y-104105089D01*
X202484000Y-103920911D01*
X202448068Y-103740271D01*
X202377586Y-103570111D01*
X202275262Y-103416972D01*
X202145028Y-103286738D01*
X201991889Y-103184414D01*
X201821729Y-103113932D01*
X201641089Y-103078000D01*
X201456911Y-103078000D01*
X201276271Y-103113932D01*
X201106111Y-103184414D01*
X200952972Y-103286738D01*
X200822738Y-103416972D01*
X200720414Y-103570111D01*
X200649932Y-103740271D01*
X200614000Y-103920911D01*
X197538091Y-103920911D01*
X197533798Y-103877329D01*
X197475702Y-103685813D01*
X197381360Y-103509310D01*
X197286206Y-103393365D01*
X197254396Y-103354604D01*
X197215633Y-103322792D01*
X196670752Y-102777911D01*
X216235000Y-102777911D01*
X216235000Y-102962089D01*
X216270932Y-103142729D01*
X216341414Y-103312889D01*
X216342490Y-103314500D01*
X216341414Y-103316111D01*
X216270932Y-103486271D01*
X216235000Y-103666911D01*
X216235000Y-103851089D01*
X216270932Y-104031729D01*
X216341414Y-104201889D01*
X216443738Y-104355028D01*
X216573972Y-104485262D01*
X216727111Y-104587586D01*
X216870000Y-104646772D01*
X216870000Y-104740089D01*
X216905932Y-104920729D01*
X216976414Y-105090889D01*
X217062349Y-105219500D01*
X216976414Y-105348111D01*
X216905932Y-105518271D01*
X216870000Y-105698911D01*
X216870000Y-105883089D01*
X216905932Y-106063729D01*
X216976414Y-106233889D01*
X216977490Y-106235500D01*
X216976414Y-106237111D01*
X216905932Y-106407271D01*
X216870000Y-106587911D01*
X216870000Y-106772089D01*
X216905932Y-106952729D01*
X216976414Y-107122889D01*
X217019920Y-107188000D01*
X216976414Y-107253111D01*
X216905932Y-107423271D01*
X216870000Y-107603911D01*
X216870000Y-107788089D01*
X216905932Y-107968729D01*
X216976414Y-108138889D01*
X217078738Y-108292028D01*
X217208972Y-108422262D01*
X217362111Y-108524586D01*
X217532271Y-108595068D01*
X217712911Y-108631000D01*
X217897089Y-108631000D01*
X218077729Y-108595068D01*
X218247889Y-108524586D01*
X218401028Y-108422262D01*
X218520879Y-108302411D01*
X220616500Y-108302411D01*
X220616500Y-108486589D01*
X220652432Y-108667229D01*
X220722914Y-108837389D01*
X220825238Y-108990528D01*
X220955472Y-109120762D01*
X221108611Y-109223086D01*
X221278771Y-109293568D01*
X221459411Y-109329500D01*
X221643589Y-109329500D01*
X221824229Y-109293568D01*
X221994389Y-109223086D01*
X222147528Y-109120762D01*
X222277762Y-108990528D01*
X222380086Y-108837389D01*
X222450568Y-108667229D01*
X222486500Y-108486589D01*
X222486500Y-108302411D01*
X222450568Y-108121771D01*
X222380086Y-107951611D01*
X222277762Y-107798472D01*
X222147528Y-107668238D01*
X221994389Y-107565914D01*
X221824229Y-107495432D01*
X221643589Y-107459500D01*
X221459411Y-107459500D01*
X221278771Y-107495432D01*
X221108611Y-107565914D01*
X220955472Y-107668238D01*
X220825238Y-107798472D01*
X220722914Y-107951611D01*
X220652432Y-108121771D01*
X220616500Y-108302411D01*
X218520879Y-108302411D01*
X218531262Y-108292028D01*
X218633586Y-108138889D01*
X218704068Y-107968729D01*
X218740000Y-107788089D01*
X218740000Y-107603911D01*
X218704068Y-107423271D01*
X218633586Y-107253111D01*
X218590080Y-107188000D01*
X218633586Y-107122889D01*
X218704068Y-106952729D01*
X218740000Y-106772089D01*
X218740000Y-106587911D01*
X218704068Y-106407271D01*
X218633586Y-106237111D01*
X218632510Y-106235500D01*
X218633586Y-106233889D01*
X218704068Y-106063729D01*
X218740000Y-105883089D01*
X218740000Y-105698911D01*
X218704068Y-105518271D01*
X218633586Y-105348111D01*
X218547651Y-105219500D01*
X218633586Y-105090889D01*
X218704068Y-104920729D01*
X218740000Y-104740089D01*
X218740000Y-104682911D01*
X228300000Y-104682911D01*
X228300000Y-104867089D01*
X228335932Y-105047729D01*
X228406414Y-105217889D01*
X228508738Y-105371028D01*
X228638972Y-105501262D01*
X228792111Y-105603586D01*
X228962271Y-105674068D01*
X229142911Y-105710000D01*
X229327089Y-105710000D01*
X229507729Y-105674068D01*
X229677889Y-105603586D01*
X229831028Y-105501262D01*
X229961262Y-105371028D01*
X230063586Y-105217889D01*
X230127365Y-105063911D01*
X234523000Y-105063911D01*
X234523000Y-105248089D01*
X234558932Y-105428729D01*
X234629414Y-105598889D01*
X234731738Y-105752028D01*
X234861972Y-105882262D01*
X235015111Y-105984586D01*
X235185271Y-106055068D01*
X235365911Y-106091000D01*
X235550089Y-106091000D01*
X235730729Y-106055068D01*
X235900889Y-105984586D01*
X236054028Y-105882262D01*
X236184262Y-105752028D01*
X236286586Y-105598889D01*
X236357068Y-105428729D01*
X236393000Y-105248089D01*
X236393000Y-105063911D01*
X236357068Y-104883271D01*
X236286586Y-104713111D01*
X236184262Y-104559972D01*
X236054028Y-104429738D01*
X235900889Y-104327414D01*
X235730729Y-104256932D01*
X235550089Y-104221000D01*
X235365911Y-104221000D01*
X235185271Y-104256932D01*
X235015111Y-104327414D01*
X234861972Y-104429738D01*
X234731738Y-104559972D01*
X234629414Y-104713111D01*
X234558932Y-104883271D01*
X234523000Y-105063911D01*
X230127365Y-105063911D01*
X230134068Y-105047729D01*
X230170000Y-104867089D01*
X230170000Y-104682911D01*
X230134068Y-104502271D01*
X230063586Y-104332111D01*
X229961262Y-104178972D01*
X229831028Y-104048738D01*
X229677889Y-103946414D01*
X229507729Y-103875932D01*
X229327089Y-103840000D01*
X229142911Y-103840000D01*
X228962271Y-103875932D01*
X228792111Y-103946414D01*
X228638972Y-104048738D01*
X228508738Y-104178972D01*
X228406414Y-104332111D01*
X228335932Y-104502271D01*
X228300000Y-104682911D01*
X218740000Y-104682911D01*
X218740000Y-104555911D01*
X218704068Y-104375271D01*
X218633586Y-104205111D01*
X218531262Y-104051972D01*
X218401028Y-103921738D01*
X218247889Y-103819414D01*
X218105000Y-103760228D01*
X218105000Y-103666911D01*
X218069068Y-103486271D01*
X217998586Y-103316111D01*
X217997510Y-103314500D01*
X217998586Y-103312889D01*
X218069068Y-103142729D01*
X218105000Y-102962089D01*
X218105000Y-102777911D01*
X218069068Y-102597271D01*
X218017018Y-102471610D01*
X218120889Y-102428586D01*
X218274028Y-102326262D01*
X218404262Y-102196028D01*
X218506586Y-102042889D01*
X218577068Y-101872729D01*
X218599111Y-101761911D01*
X227665000Y-101761911D01*
X227665000Y-101946089D01*
X227700932Y-102126729D01*
X227771414Y-102296889D01*
X227873738Y-102450028D01*
X228003972Y-102580262D01*
X228157111Y-102682586D01*
X228327271Y-102753068D01*
X228507911Y-102789000D01*
X228692089Y-102789000D01*
X228872729Y-102753068D01*
X229042889Y-102682586D01*
X229196028Y-102580262D01*
X229326262Y-102450028D01*
X229425500Y-102301508D01*
X229524738Y-102450028D01*
X229654972Y-102580262D01*
X229808111Y-102682586D01*
X229978271Y-102753068D01*
X230158911Y-102789000D01*
X230343089Y-102789000D01*
X230523729Y-102753068D01*
X230693889Y-102682586D01*
X230847028Y-102580262D01*
X230977262Y-102450028D01*
X231012753Y-102396911D01*
X245191000Y-102396911D01*
X245191000Y-102581089D01*
X245226932Y-102761729D01*
X245297414Y-102931889D01*
X245399738Y-103085028D01*
X245529972Y-103215262D01*
X245683111Y-103317586D01*
X245853271Y-103388068D01*
X246033911Y-103424000D01*
X246218089Y-103424000D01*
X246398729Y-103388068D01*
X246568889Y-103317586D01*
X246722028Y-103215262D01*
X246792750Y-103144540D01*
X246863472Y-103215262D01*
X247016611Y-103317586D01*
X247186771Y-103388068D01*
X247367411Y-103424000D01*
X247551589Y-103424000D01*
X247732229Y-103388068D01*
X247902389Y-103317586D01*
X248055528Y-103215262D01*
X248185762Y-103085028D01*
X248288086Y-102931889D01*
X248358568Y-102761729D01*
X248394500Y-102581089D01*
X248394500Y-102567000D01*
X248486928Y-102567000D01*
X248486928Y-105967000D01*
X248499188Y-106091482D01*
X248535498Y-106211180D01*
X248594463Y-106321494D01*
X248673815Y-106418185D01*
X248770506Y-106497537D01*
X248880820Y-106556502D01*
X249000518Y-106592812D01*
X249125000Y-106605072D01*
X252525000Y-106605072D01*
X252649482Y-106592812D01*
X252769180Y-106556502D01*
X252879494Y-106497537D01*
X252976185Y-106418185D01*
X253055537Y-106321494D01*
X253114502Y-106211180D01*
X253150812Y-106091482D01*
X253163072Y-105967000D01*
X253163072Y-102567000D01*
X253150812Y-102442518D01*
X253114502Y-102322820D01*
X253055537Y-102212506D01*
X252976185Y-102115815D01*
X252879494Y-102036463D01*
X252769180Y-101977498D01*
X252649482Y-101941188D01*
X252525000Y-101928928D01*
X249125000Y-101928928D01*
X249000518Y-101941188D01*
X248880820Y-101977498D01*
X248770506Y-102036463D01*
X248673815Y-102115815D01*
X248594463Y-102212506D01*
X248535498Y-102322820D01*
X248499188Y-102442518D01*
X248486928Y-102567000D01*
X248394500Y-102567000D01*
X248394500Y-102396911D01*
X248358568Y-102216271D01*
X248288086Y-102046111D01*
X248185762Y-101892972D01*
X248055528Y-101762738D01*
X247902389Y-101660414D01*
X247732229Y-101589932D01*
X247551589Y-101554000D01*
X247367411Y-101554000D01*
X247186771Y-101589932D01*
X247016611Y-101660414D01*
X246863472Y-101762738D01*
X246792750Y-101833460D01*
X246722028Y-101762738D01*
X246568889Y-101660414D01*
X246398729Y-101589932D01*
X246218089Y-101554000D01*
X246033911Y-101554000D01*
X245853271Y-101589932D01*
X245683111Y-101660414D01*
X245529972Y-101762738D01*
X245399738Y-101892972D01*
X245297414Y-102046111D01*
X245226932Y-102216271D01*
X245191000Y-102396911D01*
X231012753Y-102396911D01*
X231079586Y-102296889D01*
X231150068Y-102126729D01*
X231186000Y-101946089D01*
X231186000Y-101761911D01*
X231150068Y-101581271D01*
X231079586Y-101411111D01*
X230977262Y-101257972D01*
X230847028Y-101127738D01*
X230693889Y-101025414D01*
X230523729Y-100954932D01*
X230343089Y-100919000D01*
X230158911Y-100919000D01*
X229978271Y-100954932D01*
X229808111Y-101025414D01*
X229654972Y-101127738D01*
X229524738Y-101257972D01*
X229425500Y-101406492D01*
X229326262Y-101257972D01*
X229196028Y-101127738D01*
X229042889Y-101025414D01*
X228872729Y-100954932D01*
X228692089Y-100919000D01*
X228507911Y-100919000D01*
X228327271Y-100954932D01*
X228157111Y-101025414D01*
X228003972Y-101127738D01*
X227873738Y-101257972D01*
X227771414Y-101411111D01*
X227700932Y-101581271D01*
X227665000Y-101761911D01*
X218599111Y-101761911D01*
X218613000Y-101692089D01*
X218613000Y-101507911D01*
X218577068Y-101327271D01*
X218506586Y-101157111D01*
X218404262Y-101003972D01*
X218274028Y-100873738D01*
X218120889Y-100771414D01*
X217950729Y-100700932D01*
X217770089Y-100665000D01*
X217585911Y-100665000D01*
X217405271Y-100700932D01*
X217235111Y-100771414D01*
X217081972Y-100873738D01*
X216951738Y-101003972D01*
X216849414Y-101157111D01*
X216778932Y-101327271D01*
X216743000Y-101507911D01*
X216743000Y-101692089D01*
X216778932Y-101872729D01*
X216830982Y-101998390D01*
X216727111Y-102041414D01*
X216573972Y-102143738D01*
X216443738Y-102273972D01*
X216341414Y-102427111D01*
X216270932Y-102597271D01*
X216235000Y-102777911D01*
X196670752Y-102777911D01*
X195538840Y-101646000D01*
X195545089Y-101646000D01*
X195725729Y-101610068D01*
X195895889Y-101539586D01*
X196049028Y-101437262D01*
X196179262Y-101307028D01*
X196281586Y-101153889D01*
X196352068Y-100983729D01*
X196388000Y-100803089D01*
X196388000Y-100618911D01*
X196352068Y-100438271D01*
X196321682Y-100364911D01*
X200995000Y-100364911D01*
X200995000Y-100549089D01*
X201030932Y-100729729D01*
X201101414Y-100899889D01*
X201203738Y-101053028D01*
X201333972Y-101183262D01*
X201487111Y-101285586D01*
X201657271Y-101356068D01*
X201837911Y-101392000D01*
X202022089Y-101392000D01*
X202202729Y-101356068D01*
X202372889Y-101285586D01*
X202496621Y-101202911D01*
X202603972Y-101310262D01*
X202757111Y-101412586D01*
X202927271Y-101483068D01*
X203107911Y-101519000D01*
X203292089Y-101519000D01*
X203472729Y-101483068D01*
X203642889Y-101412586D01*
X203796028Y-101310262D01*
X203926262Y-101180028D01*
X204028586Y-101026889D01*
X204099068Y-100856729D01*
X204121111Y-100745911D01*
X205694000Y-100745911D01*
X205694000Y-100930089D01*
X205729932Y-101110729D01*
X205800414Y-101280889D01*
X205902738Y-101434028D01*
X206032972Y-101564262D01*
X206186111Y-101666586D01*
X206356271Y-101737068D01*
X206536911Y-101773000D01*
X206721089Y-101773000D01*
X206901729Y-101737068D01*
X207071889Y-101666586D01*
X207225028Y-101564262D01*
X207355262Y-101434028D01*
X207457586Y-101280889D01*
X207528068Y-101110729D01*
X207564000Y-100930089D01*
X207564000Y-100745911D01*
X207528068Y-100565271D01*
X207457586Y-100395111D01*
X207355262Y-100241972D01*
X207225028Y-100111738D01*
X207071889Y-100009414D01*
X206901729Y-99938932D01*
X206721089Y-99903000D01*
X206536911Y-99903000D01*
X206356271Y-99938932D01*
X206186111Y-100009414D01*
X206032972Y-100111738D01*
X205902738Y-100241972D01*
X205800414Y-100395111D01*
X205729932Y-100565271D01*
X205694000Y-100745911D01*
X204121111Y-100745911D01*
X204135000Y-100676089D01*
X204135000Y-100491911D01*
X204099068Y-100311271D01*
X204028586Y-100141111D01*
X203926262Y-99987972D01*
X203796028Y-99857738D01*
X203642889Y-99755414D01*
X203472729Y-99684932D01*
X203292089Y-99649000D01*
X203107911Y-99649000D01*
X202927271Y-99684932D01*
X202757111Y-99755414D01*
X202633379Y-99838089D01*
X202526028Y-99730738D01*
X202372889Y-99628414D01*
X202202729Y-99557932D01*
X202022089Y-99522000D01*
X201837911Y-99522000D01*
X201657271Y-99557932D01*
X201487111Y-99628414D01*
X201333972Y-99730738D01*
X201203738Y-99860972D01*
X201101414Y-100014111D01*
X201030932Y-100184271D01*
X200995000Y-100364911D01*
X196321682Y-100364911D01*
X196294070Y-100298250D01*
X196352068Y-100158229D01*
X196388000Y-99977589D01*
X196388000Y-99793411D01*
X196352068Y-99612771D01*
X196281586Y-99442611D01*
X196179262Y-99289472D01*
X196049028Y-99159238D01*
X195895889Y-99056914D01*
X195725729Y-98986432D01*
X195545089Y-98950500D01*
X195470496Y-98950500D01*
X195432226Y-98758102D01*
X195354205Y-98569744D01*
X195240937Y-98400226D01*
X195110122Y-98269411D01*
X205567000Y-98269411D01*
X205567000Y-98453589D01*
X205602932Y-98634229D01*
X205673414Y-98804389D01*
X205775738Y-98957528D01*
X205905972Y-99087762D01*
X206059111Y-99190086D01*
X206229271Y-99260568D01*
X206409911Y-99296500D01*
X206594089Y-99296500D01*
X206774729Y-99260568D01*
X206944889Y-99190086D01*
X206949508Y-99187000D01*
X209699950Y-99187000D01*
X209740500Y-99190994D01*
X209781050Y-99187000D01*
X209781053Y-99187000D01*
X209902326Y-99175056D01*
X210057934Y-99127853D01*
X210201342Y-99051199D01*
X210327041Y-98948041D01*
X210352898Y-98916534D01*
X212103282Y-97166151D01*
X212108729Y-97165068D01*
X212278889Y-97094586D01*
X212432028Y-96992262D01*
X212562262Y-96862028D01*
X212664586Y-96708889D01*
X212679177Y-96673661D01*
X226784250Y-96673661D01*
X226784250Y-96857839D01*
X226820182Y-97038479D01*
X226890664Y-97208639D01*
X226992988Y-97361778D01*
X227123222Y-97492012D01*
X227276361Y-97594336D01*
X227446521Y-97664818D01*
X227627161Y-97700750D01*
X227811339Y-97700750D01*
X227991979Y-97664818D01*
X228162139Y-97594336D01*
X228315278Y-97492012D01*
X228445512Y-97361778D01*
X228547836Y-97208639D01*
X228618318Y-97038479D01*
X228654250Y-96857839D01*
X228654250Y-96673661D01*
X228618318Y-96493021D01*
X228547836Y-96322861D01*
X228445512Y-96169722D01*
X228315278Y-96039488D01*
X228162139Y-95937164D01*
X227991979Y-95866682D01*
X227811339Y-95830750D01*
X227627161Y-95830750D01*
X227446521Y-95866682D01*
X227276361Y-95937164D01*
X227123222Y-96039488D01*
X226992988Y-96169722D01*
X226890664Y-96322861D01*
X226820182Y-96493021D01*
X226784250Y-96673661D01*
X212679177Y-96673661D01*
X212735068Y-96538729D01*
X212771000Y-96358089D01*
X212771000Y-96173911D01*
X212735068Y-95993271D01*
X212664586Y-95823111D01*
X212562262Y-95669972D01*
X212432028Y-95539738D01*
X212291559Y-95445880D01*
X212389756Y-95405205D01*
X212559274Y-95291937D01*
X212703437Y-95147774D01*
X212816705Y-94978256D01*
X212894726Y-94789898D01*
X212934500Y-94589939D01*
X212934500Y-94386061D01*
X212894726Y-94186102D01*
X212816705Y-93997744D01*
X212703437Y-93828226D01*
X212559274Y-93684063D01*
X212389756Y-93570795D01*
X212201398Y-93492774D01*
X212001439Y-93453000D01*
X211797561Y-93453000D01*
X211597602Y-93492774D01*
X211409244Y-93570795D01*
X211239726Y-93684063D01*
X211095563Y-93828226D01*
X210982295Y-93997744D01*
X210904274Y-94186102D01*
X210864500Y-94386061D01*
X210864500Y-94589939D01*
X210904274Y-94789898D01*
X210982295Y-94978256D01*
X211095563Y-95147774D01*
X211239726Y-95291937D01*
X211409244Y-95405205D01*
X211440057Y-95417968D01*
X211393111Y-95437414D01*
X211239972Y-95539738D01*
X211109738Y-95669972D01*
X211007414Y-95823111D01*
X210936932Y-95993271D01*
X210935849Y-95998718D01*
X209398568Y-97536000D01*
X206949508Y-97536000D01*
X206944889Y-97532914D01*
X206774729Y-97462432D01*
X206594089Y-97426500D01*
X206409911Y-97426500D01*
X206229271Y-97462432D01*
X206059111Y-97532914D01*
X205905972Y-97635238D01*
X205775738Y-97765472D01*
X205673414Y-97918611D01*
X205602932Y-98088771D01*
X205567000Y-98269411D01*
X195110122Y-98269411D01*
X195096774Y-98256063D01*
X194927256Y-98142795D01*
X194738898Y-98064774D01*
X194538939Y-98025000D01*
X194438364Y-98025000D01*
X194508537Y-97939494D01*
X194567502Y-97829180D01*
X194603812Y-97709482D01*
X194616072Y-97585000D01*
X194613000Y-96170750D01*
X194454250Y-96012000D01*
X192405000Y-96012000D01*
X192405000Y-98061250D01*
X192563750Y-98220000D01*
X193827091Y-98222744D01*
X193777226Y-98256063D01*
X193633063Y-98400226D01*
X193519795Y-98569744D01*
X193441774Y-98758102D01*
X193402000Y-98958061D01*
X193402000Y-99161939D01*
X193421000Y-99257459D01*
X193421000Y-99751541D01*
X193402000Y-99847061D01*
X193402000Y-100050939D01*
X193421000Y-100146460D01*
X193421001Y-101496803D01*
X193339229Y-101462932D01*
X193158589Y-101427000D01*
X192974411Y-101427000D01*
X192793771Y-101462932D01*
X192623611Y-101533414D01*
X192470472Y-101635738D01*
X192340238Y-101765972D01*
X192237914Y-101919111D01*
X192167432Y-102089271D01*
X192131500Y-102269911D01*
X192131500Y-102454089D01*
X192167432Y-102634729D01*
X192179016Y-102662694D01*
X192059738Y-102781972D01*
X191957414Y-102935111D01*
X191886932Y-103105271D01*
X191851000Y-103285911D01*
X191851000Y-103470089D01*
X191886932Y-103650729D01*
X191957414Y-103820889D01*
X192059738Y-103974028D01*
X192134638Y-104048928D01*
X190793000Y-104048928D01*
X190668518Y-104061188D01*
X190548820Y-104097498D01*
X190438506Y-104156463D01*
X190341815Y-104235815D01*
X190262463Y-104332506D01*
X190203498Y-104442820D01*
X190167188Y-104562518D01*
X190154928Y-104687000D01*
X190154928Y-106387000D01*
X190167188Y-106511482D01*
X190203498Y-106631180D01*
X190262463Y-106741494D01*
X190341815Y-106838185D01*
X190438506Y-106917537D01*
X190548820Y-106976502D01*
X190621380Y-106998513D01*
X190489525Y-107130368D01*
X190327010Y-107373589D01*
X190215068Y-107643842D01*
X190158000Y-107930740D01*
X190158000Y-108223260D01*
X190215068Y-108510158D01*
X190327010Y-108780411D01*
X190489525Y-109023632D01*
X190696368Y-109230475D01*
X190870760Y-109347000D01*
X190696368Y-109463525D01*
X190489525Y-109670368D01*
X190327010Y-109913589D01*
X190215068Y-110183842D01*
X190158000Y-110470740D01*
X190158000Y-110763260D01*
X190215068Y-111050158D01*
X190327010Y-111320411D01*
X190489525Y-111563632D01*
X190696368Y-111770475D01*
X190939589Y-111932990D01*
X191209842Y-112044932D01*
X191496740Y-112102000D01*
X191789260Y-112102000D01*
X192076158Y-112044932D01*
X192346411Y-111932990D01*
X192589632Y-111770475D01*
X192796475Y-111563632D01*
X192958990Y-111320411D01*
X193070932Y-111050158D01*
X193128000Y-110763260D01*
X193128000Y-110470740D01*
X193070932Y-110183842D01*
X192958990Y-109913589D01*
X192796475Y-109670368D01*
X192589632Y-109463525D01*
X192415240Y-109347000D01*
X192589632Y-109230475D01*
X192796475Y-109023632D01*
X192958990Y-108780411D01*
X193070932Y-108510158D01*
X193128000Y-108223260D01*
X193128000Y-107930740D01*
X193070932Y-107643842D01*
X192958990Y-107373589D01*
X192796475Y-107130368D01*
X192664620Y-106998513D01*
X192737180Y-106976502D01*
X192847494Y-106917537D01*
X192944185Y-106838185D01*
X193023537Y-106741494D01*
X193082502Y-106631180D01*
X193118812Y-106511482D01*
X193131072Y-106387000D01*
X193131072Y-104687000D01*
X193118812Y-104562518D01*
X193082502Y-104442820D01*
X193023537Y-104332506D01*
X192989364Y-104290866D01*
X193058729Y-104277068D01*
X193228889Y-104206586D01*
X193233508Y-104203500D01*
X193396568Y-104203500D01*
X194119500Y-104926434D01*
X194119501Y-113444991D01*
X194116414Y-113449611D01*
X194045932Y-113619771D01*
X194010000Y-113800411D01*
X194010000Y-113870080D01*
X193978000Y-113866928D01*
X190578000Y-113866928D01*
X190453518Y-113879188D01*
X190333820Y-113915498D01*
X190223506Y-113974463D01*
X190126815Y-114053815D01*
X190047463Y-114150506D01*
X189988498Y-114260820D01*
X189952188Y-114380518D01*
X189939928Y-114505000D01*
X189915000Y-114505000D01*
X189915000Y-100999911D01*
X190454000Y-100999911D01*
X190454000Y-101184089D01*
X190489932Y-101364729D01*
X190560414Y-101534889D01*
X190662738Y-101688028D01*
X190792972Y-101818262D01*
X190946111Y-101920586D01*
X191116271Y-101991068D01*
X191296911Y-102027000D01*
X191481089Y-102027000D01*
X191661729Y-101991068D01*
X191831889Y-101920586D01*
X191985028Y-101818262D01*
X192115262Y-101688028D01*
X192217586Y-101534889D01*
X192288068Y-101364729D01*
X192324000Y-101184089D01*
X192324000Y-100999911D01*
X192288068Y-100819271D01*
X192217586Y-100649111D01*
X192115262Y-100495972D01*
X191985028Y-100365738D01*
X191831889Y-100263414D01*
X191661729Y-100192932D01*
X191481089Y-100157000D01*
X191296911Y-100157000D01*
X191116271Y-100192932D01*
X190946111Y-100263414D01*
X190792972Y-100365738D01*
X190662738Y-100495972D01*
X190560414Y-100649111D01*
X190489932Y-100819271D01*
X190454000Y-100999911D01*
X189915000Y-100999911D01*
X189915000Y-97585000D01*
X189939928Y-97585000D01*
X189952188Y-97709482D01*
X189988498Y-97829180D01*
X190047463Y-97939494D01*
X190126815Y-98036185D01*
X190223506Y-98115537D01*
X190333820Y-98174502D01*
X190453518Y-98210812D01*
X190578000Y-98223072D01*
X191992250Y-98220000D01*
X192151000Y-98061250D01*
X192151000Y-96012000D01*
X190101750Y-96012000D01*
X189943000Y-96170750D01*
X189939928Y-97585000D01*
X189915000Y-97585000D01*
X189915000Y-94185000D01*
X189939928Y-94185000D01*
X189943000Y-95599250D01*
X190101750Y-95758000D01*
X192151000Y-95758000D01*
X192151000Y-93708750D01*
X192405000Y-93708750D01*
X192405000Y-95758000D01*
X194454250Y-95758000D01*
X194613000Y-95599250D01*
X194616072Y-94185000D01*
X194603812Y-94060518D01*
X194567502Y-93940820D01*
X194508537Y-93830506D01*
X194429185Y-93733815D01*
X194332494Y-93654463D01*
X194222180Y-93595498D01*
X194102482Y-93559188D01*
X193978000Y-93546928D01*
X192563750Y-93550000D01*
X192405000Y-93708750D01*
X192151000Y-93708750D01*
X191992250Y-93550000D01*
X190578000Y-93546928D01*
X190453518Y-93559188D01*
X190333820Y-93595498D01*
X190223506Y-93654463D01*
X190126815Y-93733815D01*
X190047463Y-93830506D01*
X189988498Y-93940820D01*
X189952188Y-94060518D01*
X189939928Y-94185000D01*
X189915000Y-94185000D01*
X189915000Y-93431061D01*
X199183000Y-93431061D01*
X199183000Y-93634939D01*
X199222774Y-93834898D01*
X199300795Y-94023256D01*
X199414063Y-94192774D01*
X199558226Y-94336937D01*
X199727744Y-94450205D01*
X199916102Y-94528226D01*
X200116061Y-94568000D01*
X200134703Y-94568000D01*
X200133000Y-94576561D01*
X200133000Y-94780439D01*
X200172774Y-94980398D01*
X200250795Y-95168756D01*
X200364063Y-95338274D01*
X200508226Y-95482437D01*
X200677744Y-95595705D01*
X200866102Y-95673726D01*
X201066061Y-95713500D01*
X201269939Y-95713500D01*
X201469898Y-95673726D01*
X201658256Y-95595705D01*
X201827774Y-95482437D01*
X201971937Y-95338274D01*
X202085205Y-95168756D01*
X202163226Y-94980398D01*
X202203000Y-94780439D01*
X202203000Y-94576561D01*
X202163226Y-94376602D01*
X202085205Y-94188244D01*
X201971937Y-94018726D01*
X201827774Y-93874563D01*
X201658256Y-93761295D01*
X201469898Y-93683274D01*
X201269939Y-93643500D01*
X201251297Y-93643500D01*
X201253000Y-93634939D01*
X201253000Y-93443411D01*
X244937000Y-93443411D01*
X244937000Y-93627589D01*
X244972932Y-93808229D01*
X245043414Y-93978389D01*
X245145738Y-94131528D01*
X245275972Y-94261762D01*
X245429111Y-94364086D01*
X245599271Y-94434568D01*
X245779911Y-94470500D01*
X245964089Y-94470500D01*
X246144729Y-94434568D01*
X246314889Y-94364086D01*
X246468028Y-94261762D01*
X246598262Y-94131528D01*
X246602250Y-94125560D01*
X246606238Y-94131528D01*
X246736472Y-94261762D01*
X246889611Y-94364086D01*
X247059771Y-94434568D01*
X247240411Y-94470500D01*
X247424589Y-94470500D01*
X247605229Y-94434568D01*
X247775389Y-94364086D01*
X247928528Y-94261762D01*
X248058762Y-94131528D01*
X248161086Y-93978389D01*
X248180715Y-93931000D01*
X248486928Y-93931000D01*
X248486928Y-97331000D01*
X248499188Y-97455482D01*
X248535498Y-97575180D01*
X248594463Y-97685494D01*
X248673815Y-97782185D01*
X248770506Y-97861537D01*
X248880820Y-97920502D01*
X249000518Y-97956812D01*
X249125000Y-97969072D01*
X252525000Y-97969072D01*
X252649482Y-97956812D01*
X252769180Y-97920502D01*
X252879494Y-97861537D01*
X252976185Y-97782185D01*
X253055537Y-97685494D01*
X253114502Y-97575180D01*
X253150812Y-97455482D01*
X253163072Y-97331000D01*
X253163072Y-93931000D01*
X253150812Y-93806518D01*
X253114502Y-93686820D01*
X253055537Y-93576506D01*
X252976185Y-93479815D01*
X252879494Y-93400463D01*
X252769180Y-93341498D01*
X252649482Y-93305188D01*
X252525000Y-93292928D01*
X249125000Y-93292928D01*
X249000518Y-93305188D01*
X248880820Y-93341498D01*
X248770506Y-93400463D01*
X248673815Y-93479815D01*
X248594463Y-93576506D01*
X248535498Y-93686820D01*
X248499188Y-93806518D01*
X248486928Y-93931000D01*
X248180715Y-93931000D01*
X248231568Y-93808229D01*
X248267500Y-93627589D01*
X248267500Y-93443411D01*
X248231568Y-93262771D01*
X248161086Y-93092611D01*
X248058762Y-92939472D01*
X247928528Y-92809238D01*
X247775389Y-92706914D01*
X247605229Y-92636432D01*
X247424589Y-92600500D01*
X247240411Y-92600500D01*
X247059771Y-92636432D01*
X246889611Y-92706914D01*
X246736472Y-92809238D01*
X246606238Y-92939472D01*
X246602250Y-92945440D01*
X246598262Y-92939472D01*
X246468028Y-92809238D01*
X246314889Y-92706914D01*
X246144729Y-92636432D01*
X245964089Y-92600500D01*
X245779911Y-92600500D01*
X245599271Y-92636432D01*
X245429111Y-92706914D01*
X245275972Y-92809238D01*
X245145738Y-92939472D01*
X245043414Y-93092611D01*
X244972932Y-93262771D01*
X244937000Y-93443411D01*
X201253000Y-93443411D01*
X201253000Y-93431061D01*
X201213226Y-93231102D01*
X201135205Y-93042744D01*
X201021937Y-92873226D01*
X200877774Y-92729063D01*
X200708256Y-92615795D01*
X200519898Y-92537774D01*
X200319939Y-92498000D01*
X200116061Y-92498000D01*
X199916102Y-92537774D01*
X199727744Y-92615795D01*
X199558226Y-92729063D01*
X199414063Y-92873226D01*
X199300795Y-93042744D01*
X199222774Y-93231102D01*
X199183000Y-93431061D01*
X189915000Y-93431061D01*
X189915000Y-91744000D01*
X190006068Y-91744000D01*
X189981932Y-91802271D01*
G37*
G04 #@! TD.AperFunction*
M02*
