G04 #@! TF.GenerationSoftware,KiCad,Pcbnew,6.0.6-1.fc36*
G04 #@! TF.CreationDate,2022-08-14T11:42:17+02:00*
G04 #@! TF.ProjectId,esc_brushless,6573635f-6272-4757-9368-6c6573732e6b,1.1.0*
G04 #@! TF.SameCoordinates,Original*
G04 #@! TF.FileFunction,Legend,Bot*
G04 #@! TF.FilePolarity,Positive*
%FSLAX46Y46*%
G04 Gerber Fmt 4.6, Leading zero omitted, Abs format (unit mm)*
G04 Created by KiCad (PCBNEW 6.0.6-1.fc36) date 2022-08-14 11:42:17*
%MOMM*%
%LPD*%
G01*
G04 APERTURE LIST*
G04 Aperture macros list*
%AMRoundRect*
0 Rectangle with rounded corners*
0 $1 Rounding radius*
0 $2 $3 $4 $5 $6 $7 $8 $9 X,Y pos of 4 corners*
0 Add a 4 corners polygon primitive as box body*
4,1,4,$2,$3,$4,$5,$6,$7,$8,$9,$2,$3,0*
0 Add four circle primitives for the rounded corners*
1,1,$1+$1,$2,$3*
1,1,$1+$1,$4,$5*
1,1,$1+$1,$6,$7*
1,1,$1+$1,$8,$9*
0 Add four rect primitives between the rounded corners*
20,1,$1+$1,$2,$3,$4,$5,0*
20,1,$1+$1,$4,$5,$6,$7,0*
20,1,$1+$1,$6,$7,$8,$9,0*
20,1,$1+$1,$8,$9,$2,$3,0*%
G04 Aperture macros list end*
%ADD10C,0.120000*%
%ADD11R,3.400000X3.400000*%
%ADD12O,1.700000X1.700000*%
%ADD13R,1.700000X1.700000*%
%ADD14RoundRect,0.237500X-0.237500X0.300000X-0.237500X-0.300000X0.237500X-0.300000X0.237500X0.300000X0*%
%ADD15RoundRect,0.249998X1.100002X-0.412502X1.100002X0.412502X-1.100002X0.412502X-1.100002X-0.412502X0*%
%ADD16RoundRect,0.249998X0.412502X1.100002X-0.412502X1.100002X-0.412502X-1.100002X0.412502X-1.100002X0*%
%ADD17RoundRect,0.237500X0.300000X0.237500X-0.300000X0.237500X-0.300000X-0.237500X0.300000X-0.237500X0*%
%ADD18RoundRect,0.237500X0.237500X-0.300000X0.237500X0.300000X-0.237500X0.300000X-0.237500X-0.300000X0*%
%ADD19RoundRect,0.249998X0.650002X-0.412502X0.650002X0.412502X-0.650002X0.412502X-0.650002X-0.412502X0*%
%ADD20RoundRect,0.237500X-0.300000X-0.237500X0.300000X-0.237500X0.300000X0.237500X-0.300000X0.237500X0*%
%ADD21R,3.500000X2.300000*%
%ADD22O,2.700000X8.000000*%
%ADD23R,3.500000X2.000000*%
%ADD24R,7.000000X7.000000*%
%ADD25R,0.800000X0.900000*%
%ADD26R,0.900000X0.800000*%
%ADD27RoundRect,0.237500X-0.250000X-0.237500X0.250000X-0.237500X0.250000X0.237500X-0.250000X0.237500X0*%
%ADD28RoundRect,0.237500X0.250000X0.237500X-0.250000X0.237500X-0.250000X-0.237500X0.250000X-0.237500X0*%
%ADD29RoundRect,0.237500X0.237500X-0.250000X0.237500X0.250000X-0.237500X0.250000X-0.237500X-0.250000X0*%
%ADD30RoundRect,0.237500X-0.237500X0.250000X-0.237500X-0.250000X0.237500X-0.250000X0.237500X0.250000X0*%
%ADD31O,1.250000X1.250000*%
%ADD32RoundRect,0.150000X-0.150000X0.512500X-0.150000X-0.512500X0.150000X-0.512500X0.150000X0.512500X0*%
%ADD33RoundRect,0.150000X-0.150000X0.825000X-0.150000X-0.825000X0.150000X-0.825000X0.150000X0.825000X0*%
%ADD34RoundRect,0.250600X-0.449400X0.449400X-0.449400X-0.449400X0.449400X-0.449400X0.449400X0.449400X0*%
%ADD35RoundRect,0.249999X-1.425001X0.450001X-1.425001X-0.450001X1.425001X-0.450001X1.425001X0.450001X0*%
G04 APERTURE END LIST*
D10*
X99387000Y-58454857D02*
X99958428Y-58454857D01*
X99958428Y-57254857D01*
X98358428Y-58454857D02*
X99044142Y-58454857D01*
X98701285Y-58454857D02*
X98701285Y-57254857D01*
X98815571Y-57426285D01*
X98929857Y-57540571D01*
X99044142Y-57597714D01*
X111758000Y-64496733D02*
X111758000Y-64789267D01*
X112778000Y-64496733D02*
X112778000Y-64789267D01*
X133006000Y-64338252D02*
X133006000Y-62915748D01*
X135726000Y-64338252D02*
X135726000Y-62915748D01*
X135599000Y-55575252D02*
X135599000Y-54152748D01*
X132879000Y-55575252D02*
X132879000Y-54152748D01*
X105486252Y-73951000D02*
X104063748Y-73951000D01*
X105486252Y-76671000D02*
X104063748Y-76671000D01*
X102127267Y-73408000D02*
X101834733Y-73408000D01*
X102127267Y-72388000D02*
X101834733Y-72388000D01*
X104773000Y-62376267D02*
X104773000Y-62083733D01*
X105793000Y-62376267D02*
X105793000Y-62083733D01*
X101094000Y-65512733D02*
X101094000Y-65805267D01*
X100074000Y-65512733D02*
X100074000Y-65805267D01*
X92816000Y-57099252D02*
X92816000Y-55676748D01*
X94636000Y-57099252D02*
X94636000Y-55676748D01*
X84816733Y-63883000D02*
X85109267Y-63883000D01*
X84816733Y-62863000D02*
X85109267Y-62863000D01*
X84816733Y-65911000D02*
X85109267Y-65911000D01*
X84816733Y-66931000D02*
X85109267Y-66931000D01*
X84816733Y-65407000D02*
X85109267Y-65407000D01*
X84816733Y-64387000D02*
X85109267Y-64387000D01*
X85346000Y-58781733D02*
X85346000Y-59074267D01*
X84326000Y-58781733D02*
X84326000Y-59074267D01*
X91184000Y-55645267D02*
X91184000Y-55352733D01*
X92204000Y-55645267D02*
X92204000Y-55352733D01*
X86743000Y-55645267D02*
X86743000Y-55352733D01*
X85723000Y-55645267D02*
X85723000Y-55352733D01*
X82040000Y-72917267D02*
X82040000Y-72624733D01*
X83060000Y-72917267D02*
X83060000Y-72624733D01*
X103858000Y-54238000D02*
X111158000Y-54238000D01*
X103858000Y-58538000D02*
X103858000Y-54238000D01*
X103858000Y-58538000D02*
X111158000Y-58538000D01*
X123836000Y-61497000D02*
X123836000Y-61897000D01*
X123836000Y-68297000D02*
X125336000Y-68297000D01*
X123836000Y-63297000D02*
X123836000Y-66497000D01*
X125336000Y-61497000D02*
X123836000Y-61497000D01*
X123836000Y-67947000D02*
X123836000Y-68297000D01*
X123709000Y-52861000D02*
X123709000Y-53261000D01*
X123709000Y-54661000D02*
X123709000Y-57861000D01*
X125209000Y-52861000D02*
X123709000Y-52861000D01*
X123709000Y-59661000D02*
X125209000Y-59661000D01*
X123709000Y-59311000D02*
X123709000Y-59661000D01*
X94290000Y-61597000D02*
X93360000Y-61597000D01*
X94290000Y-61597000D02*
X94290000Y-63757000D01*
X91130000Y-61597000D02*
X91130000Y-63057000D01*
X91130000Y-61597000D02*
X92060000Y-61597000D01*
X88136000Y-57475000D02*
X86676000Y-57475000D01*
X88136000Y-60635000D02*
X88136000Y-59705000D01*
X88136000Y-60635000D02*
X85976000Y-60635000D01*
X88136000Y-57475000D02*
X88136000Y-58405000D01*
X120522276Y-68946500D02*
X121031724Y-68946500D01*
X120522276Y-69991500D02*
X121031724Y-69991500D01*
X124460724Y-68946500D02*
X123951276Y-68946500D01*
X124460724Y-69991500D02*
X123951276Y-69991500D01*
X119013500Y-54356724D02*
X119013500Y-53847276D01*
X117968500Y-54356724D02*
X117968500Y-53847276D01*
X95884276Y-63895500D02*
X96393724Y-63895500D01*
X95884276Y-62850500D02*
X96393724Y-62850500D01*
X89520500Y-61975276D02*
X89520500Y-62484724D01*
X90565500Y-61975276D02*
X90565500Y-62484724D01*
X92964724Y-65546500D02*
X92455276Y-65546500D01*
X92964724Y-64501500D02*
X92455276Y-64501500D01*
X95884276Y-64501500D02*
X96393724Y-64501500D01*
X95884276Y-65546500D02*
X96393724Y-65546500D01*
X83834500Y-58673276D02*
X83834500Y-59182724D01*
X82789500Y-58673276D02*
X82789500Y-59182724D01*
X89131000Y-65278000D02*
G75*
G03*
X89131000Y-65278000I-1120000J0D01*
G01*
X90333000Y-55118000D02*
X90333000Y-55918000D01*
X87213000Y-55118000D02*
X87213000Y-53318000D01*
X87213000Y-55118000D02*
X87213000Y-55918000D01*
X90333000Y-55118000D02*
X90333000Y-54318000D01*
X83546000Y-71120000D02*
X83546000Y-73070000D01*
X83546000Y-71120000D02*
X83546000Y-67670000D01*
X88666000Y-71120000D02*
X88666000Y-69170000D01*
X88666000Y-71120000D02*
X88666000Y-73070000D01*
X113284000Y-62465936D02*
X113284000Y-66820064D01*
X118804000Y-62465936D02*
X118804000Y-66820064D01*
X121031724Y-79135500D02*
X120522276Y-79135500D01*
X121031724Y-78090500D02*
X120522276Y-78090500D01*
X123836000Y-70641000D02*
X123836000Y-71041000D01*
X123836000Y-77441000D02*
X125336000Y-77441000D01*
X123836000Y-72441000D02*
X123836000Y-75641000D01*
X125336000Y-70641000D02*
X123836000Y-70641000D01*
X123836000Y-77091000D02*
X123836000Y-77441000D01*
X135980000Y-72593252D02*
X135980000Y-71170748D01*
X133260000Y-72593252D02*
X133260000Y-71170748D01*
X117602724Y-69991500D02*
X117093276Y-69991500D01*
X117602724Y-68946500D02*
X117093276Y-68946500D01*
X102127267Y-71503000D02*
X101834733Y-71503000D01*
X102127267Y-70483000D02*
X101834733Y-70483000D01*
X89131000Y-62865000D02*
G75*
G03*
X89131000Y-62865000I-1120000J0D01*
G01*
X113284000Y-72244936D02*
X113284000Y-76599064D01*
X118804000Y-72244936D02*
X118804000Y-76599064D01*
%LPC*%
D11*
X79883000Y-55626000D03*
X79883000Y-75946000D03*
D12*
X79248000Y-70358000D03*
X79248000Y-67818000D03*
D13*
X79248000Y-65278000D03*
D12*
X88011000Y-76200000D03*
D13*
X85471000Y-76200000D03*
D11*
X138430000Y-64008000D03*
X138430000Y-55372000D03*
X138430000Y-72390000D03*
D14*
X112268000Y-65505500D03*
X112268000Y-63780500D03*
D15*
X134366000Y-62064500D03*
X134366000Y-65189500D03*
X134239000Y-53301500D03*
X134239000Y-56426500D03*
D16*
X103212500Y-75311000D03*
X106337500Y-75311000D03*
D17*
X101118500Y-72898000D03*
X102843500Y-72898000D03*
D18*
X105283000Y-61367500D03*
X105283000Y-63092500D03*
D14*
X100584000Y-66521500D03*
X100584000Y-64796500D03*
D19*
X93726000Y-54825500D03*
X93726000Y-57950500D03*
D20*
X85825500Y-63373000D03*
X84100500Y-63373000D03*
X85825500Y-66421000D03*
X84100500Y-66421000D03*
X85825500Y-64897000D03*
X84100500Y-64897000D03*
D14*
X84836000Y-59790500D03*
X84836000Y-58065500D03*
D18*
X91694000Y-54636500D03*
X91694000Y-56361500D03*
X86233000Y-54636500D03*
X86233000Y-56361500D03*
X82550000Y-71908500D03*
X82550000Y-73633500D03*
D21*
X111158000Y-56388000D03*
X105758000Y-56388000D03*
D22*
X96537000Y-57912000D03*
X101837000Y-57912000D03*
D23*
X121536000Y-62617000D03*
D24*
X128936000Y-64897000D03*
D23*
X121536000Y-67197000D03*
X121409000Y-53981000D03*
D24*
X128809000Y-56261000D03*
D23*
X121409000Y-58561000D03*
D25*
X92710000Y-61357000D03*
X91760000Y-63357000D03*
X93660000Y-63357000D03*
D26*
X88376000Y-59055000D03*
X86376000Y-58105000D03*
X86376000Y-60005000D03*
D27*
X121689500Y-69469000D03*
X119864500Y-69469000D03*
D28*
X123293500Y-69469000D03*
X125118500Y-69469000D03*
D29*
X118491000Y-53189500D03*
X118491000Y-55014500D03*
D27*
X97051500Y-63373000D03*
X95226500Y-63373000D03*
D30*
X90043000Y-63142500D03*
X90043000Y-61317500D03*
D28*
X91797500Y-65024000D03*
X93622500Y-65024000D03*
D27*
X97051500Y-65024000D03*
X95226500Y-65024000D03*
D30*
X83312000Y-59840500D03*
X83312000Y-58015500D03*
D31*
X88011000Y-65278000D03*
D32*
X87823000Y-56255500D03*
X89723000Y-56255500D03*
X89723000Y-53980500D03*
X88773000Y-53980500D03*
X87823000Y-53980500D03*
D33*
X84201000Y-73595000D03*
X85471000Y-73595000D03*
X86741000Y-73595000D03*
X88011000Y-73595000D03*
X88011000Y-68645000D03*
X86741000Y-68645000D03*
X85471000Y-68645000D03*
X84201000Y-68645000D03*
D34*
X114046000Y-67691000D03*
X114046000Y-61595000D03*
D35*
X117094000Y-67693000D03*
X117094000Y-61593000D03*
D28*
X119864500Y-78613000D03*
X121689500Y-78613000D03*
D23*
X121536000Y-71761000D03*
D24*
X128936000Y-74041000D03*
D23*
X121536000Y-76341000D03*
D15*
X134620000Y-70319500D03*
X134620000Y-73444500D03*
D28*
X116435500Y-69469000D03*
X118260500Y-69469000D03*
D17*
X101118500Y-70993000D03*
X102843500Y-70993000D03*
D31*
X88011000Y-62865000D03*
D34*
X114046000Y-77470000D03*
X114046000Y-71374000D03*
D35*
X117094000Y-77472000D03*
X117094000Y-71372000D03*
M02*
