G04 #@! TF.GenerationSoftware,KiCad,Pcbnew,6.0.6-1.fc36*
G04 #@! TF.CreationDate,2022-08-14T11:42:17+02:00*
G04 #@! TF.ProjectId,esc_brushless,6573635f-6272-4757-9368-6c6573732e6b,1.1.0*
G04 #@! TF.SameCoordinates,Original*
G04 #@! TF.FileFunction,Copper,L1,Top*
G04 #@! TF.FilePolarity,Positive*
%FSLAX46Y46*%
G04 Gerber Fmt 4.6, Leading zero omitted, Abs format (unit mm)*
G04 Created by KiCad (PCBNEW 6.0.6-1.fc36) date 2022-08-14 11:42:17*
%MOMM*%
%LPD*%
G01*
G04 APERTURE LIST*
G04 Aperture macros list*
%AMRoundRect*
0 Rectangle with rounded corners*
0 $1 Rounding radius*
0 $2 $3 $4 $5 $6 $7 $8 $9 X,Y pos of 4 corners*
0 Add a 4 corners polygon primitive as box body*
4,1,4,$2,$3,$4,$5,$6,$7,$8,$9,$2,$3,0*
0 Add four circle primitives for the rounded corners*
1,1,$1+$1,$2,$3*
1,1,$1+$1,$4,$5*
1,1,$1+$1,$6,$7*
1,1,$1+$1,$8,$9*
0 Add four rect primitives between the rounded corners*
20,1,$1+$1,$2,$3,$4,$5,0*
20,1,$1+$1,$4,$5,$6,$7,0*
20,1,$1+$1,$6,$7,$8,$9,0*
20,1,$1+$1,$8,$9,$2,$3,0*%
G04 Aperture macros list end*
G04 #@! TA.AperFunction,SMDPad,CuDef*
%ADD10RoundRect,0.250000X0.475000X-0.337500X0.475000X0.337500X-0.475000X0.337500X-0.475000X-0.337500X0*%
G04 #@! TD*
G04 #@! TA.AperFunction,SMDPad,CuDef*
%ADD11RoundRect,0.249998X1.100002X-0.412502X1.100002X0.412502X-1.100002X0.412502X-1.100002X-0.412502X0*%
G04 #@! TD*
G04 #@! TA.AperFunction,SMDPad,CuDef*
%ADD12RoundRect,0.237500X0.300000X0.237500X-0.300000X0.237500X-0.300000X-0.237500X0.300000X-0.237500X0*%
G04 #@! TD*
G04 #@! TA.AperFunction,SMDPad,CuDef*
%ADD13RoundRect,0.237500X0.237500X-0.300000X0.237500X0.300000X-0.237500X0.300000X-0.237500X-0.300000X0*%
G04 #@! TD*
G04 #@! TA.AperFunction,SMDPad,CuDef*
%ADD14RoundRect,0.237500X-0.300000X-0.237500X0.300000X-0.237500X0.300000X0.237500X-0.300000X0.237500X0*%
G04 #@! TD*
G04 #@! TA.AperFunction,SMDPad,CuDef*
%ADD15RoundRect,0.218750X-0.218750X-0.256250X0.218750X-0.256250X0.218750X0.256250X-0.218750X0.256250X0*%
G04 #@! TD*
G04 #@! TA.AperFunction,SMDPad,CuDef*
%ADD16R,0.450000X0.700000*%
G04 #@! TD*
G04 #@! TA.AperFunction,ComponentPad*
%ADD17R,3.400000X3.400000*%
G04 #@! TD*
G04 #@! TA.AperFunction,ComponentPad*
%ADD18O,1.700000X1.700000*%
G04 #@! TD*
G04 #@! TA.AperFunction,ComponentPad*
%ADD19R,1.700000X1.700000*%
G04 #@! TD*
G04 #@! TA.AperFunction,SMDPad,CuDef*
%ADD20R,3.500000X2.000000*%
G04 #@! TD*
G04 #@! TA.AperFunction,SMDPad,CuDef*
%ADD21R,7.000000X7.000000*%
G04 #@! TD*
G04 #@! TA.AperFunction,SMDPad,CuDef*
%ADD22RoundRect,0.237500X-0.237500X0.250000X-0.237500X-0.250000X0.237500X-0.250000X0.237500X0.250000X0*%
G04 #@! TD*
G04 #@! TA.AperFunction,SMDPad,CuDef*
%ADD23RoundRect,0.237500X-0.250000X-0.237500X0.250000X-0.237500X0.250000X0.237500X-0.250000X0.237500X0*%
G04 #@! TD*
G04 #@! TA.AperFunction,SMDPad,CuDef*
%ADD24RoundRect,0.237500X0.250000X0.237500X-0.250000X0.237500X-0.250000X-0.237500X0.250000X-0.237500X0*%
G04 #@! TD*
G04 #@! TA.AperFunction,SMDPad,CuDef*
%ADD25RoundRect,0.237500X0.237500X-0.250000X0.237500X0.250000X-0.237500X0.250000X-0.237500X-0.250000X0*%
G04 #@! TD*
G04 #@! TA.AperFunction,SMDPad,CuDef*
%ADD26O,1.250000X1.250000*%
G04 #@! TD*
G04 #@! TA.AperFunction,SMDPad,CuDef*
%ADD27R,3.610000X6.350000*%
G04 #@! TD*
G04 #@! TA.AperFunction,SMDPad,CuDef*
%ADD28R,1.550000X0.300000*%
G04 #@! TD*
G04 #@! TA.AperFunction,SMDPad,CuDef*
%ADD29RoundRect,0.075000X-0.075000X-0.662500X0.075000X-0.662500X0.075000X0.662500X-0.075000X0.662500X0*%
G04 #@! TD*
G04 #@! TA.AperFunction,SMDPad,CuDef*
%ADD30RoundRect,0.075000X-0.662500X-0.075000X0.662500X-0.075000X0.662500X0.075000X-0.662500X0.075000X0*%
G04 #@! TD*
G04 #@! TA.AperFunction,SMDPad,CuDef*
%ADD31RoundRect,0.237500X-0.237500X0.300000X-0.237500X-0.300000X0.237500X-0.300000X0.237500X0.300000X0*%
G04 #@! TD*
G04 #@! TA.AperFunction,ViaPad*
%ADD32C,0.600000*%
G04 #@! TD*
G04 #@! TA.AperFunction,ViaPad*
%ADD33C,0.800000*%
G04 #@! TD*
G04 #@! TA.AperFunction,Conductor*
%ADD34C,0.250000*%
G04 #@! TD*
G04 #@! TA.AperFunction,Conductor*
%ADD35C,0.381000*%
G04 #@! TD*
G04 #@! TA.AperFunction,Conductor*
%ADD36C,1.524000*%
G04 #@! TD*
G04 #@! TA.AperFunction,Conductor*
%ADD37C,0.762000*%
G04 #@! TD*
G04 APERTURE END LIST*
D10*
X135382000Y-75543500D03*
X135382000Y-77618500D03*
X135382000Y-67288500D03*
X135382000Y-69363500D03*
X135382000Y-58906500D03*
X135382000Y-60981500D03*
D11*
X110998000Y-58889500D03*
X110998000Y-62014500D03*
D12*
X105182500Y-75311000D03*
X106907500Y-75311000D03*
D13*
X108585000Y-59970500D03*
X108585000Y-61695500D03*
D12*
X92101500Y-72263000D03*
X93826500Y-72263000D03*
X92101500Y-73787000D03*
X93826500Y-73787000D03*
X105055500Y-59055000D03*
X106780500Y-59055000D03*
D14*
X110463500Y-65405000D03*
X108738500Y-65405000D03*
X110844500Y-68072000D03*
X109119500Y-68072000D03*
X110844500Y-70612000D03*
X109119500Y-70612000D03*
D12*
X95530500Y-66802000D03*
X97255500Y-66802000D03*
D14*
X97255500Y-58420000D03*
X95530500Y-58420000D03*
D12*
X95530500Y-61468000D03*
X97255500Y-61468000D03*
X80671500Y-62103000D03*
X82396500Y-62103000D03*
D15*
X92354500Y-77216000D03*
X90779500Y-77216000D03*
D16*
X81153000Y-58563000D03*
X81803000Y-60563000D03*
X80503000Y-60563000D03*
D17*
X79883000Y-55626000D03*
X79883000Y-75946000D03*
D18*
X79248000Y-70358000D03*
X79248000Y-67818000D03*
D19*
X79248000Y-65278000D03*
D18*
X88011000Y-76200000D03*
D19*
X85471000Y-76200000D03*
D17*
X138430000Y-64008000D03*
X138430000Y-55372000D03*
D20*
X121536000Y-67177000D03*
D21*
X128936000Y-64897000D03*
D20*
X121536000Y-62597000D03*
X121409000Y-58414000D03*
D21*
X128809000Y-56134000D03*
D20*
X121409000Y-53834000D03*
D22*
X78994000Y-62634500D03*
X78994000Y-60809500D03*
D23*
X95781500Y-77216000D03*
X93956500Y-77216000D03*
D24*
X113514500Y-60325000D03*
X115339500Y-60325000D03*
D25*
X118364000Y-53062500D03*
X118364000Y-54887500D03*
X116840000Y-64492500D03*
X116840000Y-66317500D03*
D24*
X113514500Y-58801000D03*
X115339500Y-58801000D03*
X115332500Y-56515000D03*
X117157500Y-56515000D03*
D22*
X137160000Y-77239500D03*
X137160000Y-75414500D03*
D25*
X133604000Y-67667500D03*
X133604000Y-69492500D03*
D22*
X137160000Y-69492500D03*
X137160000Y-67667500D03*
D25*
X133604000Y-59285500D03*
X133604000Y-61110500D03*
D22*
X137160000Y-61110500D03*
X137160000Y-59285500D03*
D23*
X101369500Y-54229000D03*
X99544500Y-54229000D03*
D24*
X95480500Y-62992000D03*
X97305500Y-62992000D03*
D23*
X97305500Y-55118000D03*
X95480500Y-55118000D03*
D24*
X95480500Y-72263000D03*
X97305500Y-72263000D03*
X95480500Y-73787000D03*
X97305500Y-73787000D03*
X95480500Y-56769000D03*
X97305500Y-56769000D03*
D23*
X101346000Y-59055000D03*
X99521000Y-59055000D03*
X101369500Y-56007000D03*
X99544500Y-56007000D03*
D24*
X99544500Y-57531000D03*
X101369500Y-57531000D03*
X95480500Y-59944000D03*
X97305500Y-59944000D03*
X82780500Y-53975000D03*
X84605500Y-53975000D03*
D23*
X84605500Y-55626000D03*
X82780500Y-55626000D03*
D26*
X88011000Y-60452000D03*
D27*
X102997000Y-67183000D03*
D28*
X106747000Y-60433000D03*
X106747000Y-60933000D03*
X106747000Y-61433000D03*
X106747000Y-61933000D03*
X106747000Y-62433000D03*
X106747000Y-62933000D03*
X106747000Y-63433000D03*
X106747000Y-63933000D03*
X106747000Y-64433000D03*
X106747000Y-64933000D03*
X106747000Y-65433000D03*
X106747000Y-65933000D03*
X106747000Y-66433000D03*
X106747000Y-66933000D03*
X106747000Y-67433000D03*
X106747000Y-67933000D03*
X106747000Y-68433000D03*
X106747000Y-68933000D03*
X106747000Y-69433000D03*
X106747000Y-69933000D03*
X106747000Y-70433000D03*
X106747000Y-70933000D03*
X106747000Y-71433000D03*
X106747000Y-71933000D03*
X106747000Y-72433000D03*
X106747000Y-72933000D03*
X106747000Y-73433000D03*
X106747000Y-73933000D03*
X99247000Y-73933000D03*
X99247000Y-73433000D03*
X99247000Y-72933000D03*
X99247000Y-72433000D03*
X99247000Y-71933000D03*
X99247000Y-71433000D03*
X99247000Y-70933000D03*
X99247000Y-70433000D03*
X99247000Y-69933000D03*
X99247000Y-69433000D03*
X99247000Y-68933000D03*
X99247000Y-68433000D03*
X99247000Y-67933000D03*
X99247000Y-67433000D03*
X99247000Y-66933000D03*
X99247000Y-66433000D03*
X99247000Y-65933000D03*
X99247000Y-65433000D03*
X99247000Y-64933000D03*
X99247000Y-64433000D03*
X99247000Y-63933000D03*
X99247000Y-63433000D03*
X99247000Y-62933000D03*
X99247000Y-62433000D03*
X99247000Y-61933000D03*
X99247000Y-61433000D03*
X99247000Y-60933000D03*
X99247000Y-60433000D03*
D29*
X83737000Y-62512500D03*
X84237000Y-62512500D03*
X84737000Y-62512500D03*
X85237000Y-62512500D03*
X85737000Y-62512500D03*
X86237000Y-62512500D03*
X86737000Y-62512500D03*
X87237000Y-62512500D03*
X87737000Y-62512500D03*
X88237000Y-62512500D03*
X88737000Y-62512500D03*
X89237000Y-62512500D03*
D30*
X90649500Y-63925000D03*
X90649500Y-64425000D03*
X90649500Y-64925000D03*
X90649500Y-65425000D03*
X90649500Y-65925000D03*
X90649500Y-66425000D03*
X90649500Y-66925000D03*
X90649500Y-67425000D03*
X90649500Y-67925000D03*
X90649500Y-68425000D03*
X90649500Y-68925000D03*
X90649500Y-69425000D03*
D29*
X89237000Y-70837500D03*
X88737000Y-70837500D03*
X88237000Y-70837500D03*
X87737000Y-70837500D03*
X87237000Y-70837500D03*
X86737000Y-70837500D03*
X86237000Y-70837500D03*
X85737000Y-70837500D03*
X85237000Y-70837500D03*
X84737000Y-70837500D03*
X84237000Y-70837500D03*
X83737000Y-70837500D03*
D30*
X82324500Y-69425000D03*
X82324500Y-68925000D03*
X82324500Y-68425000D03*
X82324500Y-67925000D03*
X82324500Y-67425000D03*
X82324500Y-66925000D03*
X82324500Y-66425000D03*
X82324500Y-65925000D03*
X82324500Y-65425000D03*
X82324500Y-64925000D03*
X82324500Y-64425000D03*
X82324500Y-63925000D03*
D25*
X133604000Y-75414500D03*
X133604000Y-77239500D03*
D20*
X121536000Y-76321000D03*
D21*
X128936000Y-74041000D03*
D20*
X121536000Y-71741000D03*
D17*
X138430000Y-72390000D03*
D25*
X115062000Y-64492500D03*
X115062000Y-66317500D03*
D31*
X114046000Y-75157500D03*
X114046000Y-73432500D03*
D32*
X117856000Y-77343000D03*
X85852000Y-66421000D03*
X94170500Y-66738500D03*
X99314000Y-51816000D03*
X78486000Y-51816000D03*
X103251000Y-75692000D03*
X100584000Y-64770000D03*
D33*
X88773000Y-54483000D03*
D32*
X133731000Y-62230000D03*
X133477000Y-53276500D03*
X116840000Y-64516000D03*
X91567000Y-51816000D03*
X138938000Y-79629000D03*
X116205000Y-67691000D03*
X92075000Y-72263000D03*
X116332000Y-77343000D03*
X123063000Y-64897000D03*
X121666000Y-69469000D03*
X80645000Y-62103000D03*
X138430000Y-51816000D03*
X117094000Y-51816000D03*
X134937500Y-53276500D03*
X126873000Y-69469000D03*
X103251000Y-74930000D03*
X101092000Y-74168000D03*
X140462000Y-59436000D03*
X135064500Y-62230000D03*
X109728000Y-79629000D03*
X140462000Y-68072000D03*
X115316000Y-56506750D03*
X95377000Y-79629000D03*
X94234000Y-60579000D03*
X117856000Y-67691000D03*
X105410000Y-66421000D03*
X116332000Y-71501000D03*
X117856000Y-71501000D03*
X116205000Y-61595000D03*
X117856000Y-61595000D03*
X112785010Y-68707000D03*
X134366000Y-65278000D03*
X106426000Y-75819000D03*
X133438500Y-56515000D03*
D33*
X108585000Y-61695500D03*
D32*
X134239000Y-56515000D03*
X106426000Y-74930000D03*
X134581500Y-73444500D03*
X133692500Y-73444500D03*
X133438500Y-65278000D03*
X102870000Y-70993000D03*
X102870000Y-72898000D03*
X109106250Y-70598750D03*
X109156500Y-68135500D03*
X105410000Y-65532000D03*
X104775000Y-62611000D03*
X104775000Y-63500000D03*
X105283000Y-61341000D03*
X100584000Y-66421000D03*
X83058000Y-60452000D03*
X83058000Y-59626500D03*
X94107000Y-58102500D03*
X82550000Y-73660000D03*
X80391000Y-63119000D03*
X99441000Y-56007000D03*
D33*
X87823000Y-53274000D03*
D32*
X78994000Y-60833000D03*
D33*
X99441000Y-54229000D03*
D32*
X84074000Y-65532000D03*
D33*
X96837500Y-71120000D03*
X82042000Y-59690000D03*
D32*
X84074000Y-66294000D03*
X111315500Y-66167000D03*
X84074000Y-64643000D03*
X100584000Y-67564000D03*
X95821500Y-77216000D03*
D33*
X82042000Y-58801000D03*
D32*
X90805000Y-60325000D03*
X89535000Y-60198000D03*
X110490000Y-75311000D03*
X105410000Y-64389000D03*
X105410000Y-67437000D03*
X105410000Y-69977000D03*
X88011000Y-65278000D03*
X89154000Y-63754000D03*
X84201000Y-68707000D03*
X100584000Y-68707000D03*
X89281000Y-67437000D03*
X89281000Y-68326000D03*
X100584000Y-69977000D03*
X85471000Y-68707000D03*
X86741000Y-68707000D03*
X88011000Y-68707000D03*
X114046000Y-71501000D03*
X114046000Y-77343000D03*
X109347000Y-73787000D03*
X109347000Y-74803000D03*
D34*
X78486000Y-51816000D02*
X82804000Y-51816000D01*
X82804000Y-51816000D02*
X83693000Y-52705000D01*
D35*
X83693000Y-53398020D02*
X83693000Y-52705000D01*
X83658510Y-53432510D02*
X83693000Y-53398020D01*
D36*
X118370000Y-58287000D02*
X116846000Y-58287000D01*
D34*
X92101500Y-72263000D02*
X92101500Y-73787000D01*
D37*
X136781000Y-67288500D02*
X137160000Y-67667500D01*
D35*
X99822000Y-57531000D02*
X101346000Y-59055000D01*
D37*
X114300000Y-56515000D02*
X113514500Y-57300500D01*
D35*
X97255500Y-58420000D02*
X98655500Y-58420000D01*
X99544500Y-57531000D02*
X99822000Y-57531000D01*
X98655500Y-58420000D02*
X99544500Y-57531000D01*
D37*
X135382000Y-67288500D02*
X136781000Y-67288500D01*
D35*
X96358510Y-59515348D02*
X96358510Y-60639990D01*
D37*
X135382000Y-58906500D02*
X136781000Y-58906500D01*
D35*
X96458510Y-59415348D02*
X96358510Y-59515348D01*
D34*
X80503000Y-61934500D02*
X80671500Y-62103000D01*
D35*
X83658510Y-54747990D02*
X83658510Y-53432510D01*
D37*
X137031000Y-75543500D02*
X137160000Y-75414500D01*
D34*
X83964552Y-67183000D02*
X85063500Y-67183000D01*
X106747000Y-71433000D02*
X104970000Y-71433000D01*
D37*
X135382000Y-75543500D02*
X137031000Y-75543500D01*
D34*
X83706552Y-66925000D02*
X83964552Y-67183000D01*
D37*
X115332500Y-56515000D02*
X114300000Y-56515000D01*
X136781000Y-58906500D02*
X137160000Y-59285500D01*
D34*
X103251000Y-75692000D02*
X104801500Y-75692000D01*
X82324500Y-66925000D02*
X83706552Y-66925000D01*
X100857000Y-73933000D02*
X101092000Y-74168000D01*
D35*
X82780500Y-55626000D02*
X83658510Y-54747990D01*
D34*
X80503000Y-60563000D02*
X80503000Y-61934500D01*
D37*
X113514500Y-57300500D02*
X113514500Y-58801000D01*
D35*
X96647000Y-58420000D02*
X96458510Y-58608490D01*
D34*
X83629500Y-54777000D02*
X82780500Y-55626000D01*
X103759000Y-75692000D02*
X104801500Y-75692000D01*
X99247000Y-73933000D02*
X100857000Y-73933000D01*
D36*
X121409000Y-58287000D02*
X118370000Y-58287000D01*
D35*
X96358510Y-60639990D02*
X95530500Y-61468000D01*
X97255500Y-58420000D02*
X96647000Y-58420000D01*
D34*
X104801500Y-75692000D02*
X105182500Y-75311000D01*
D35*
X96458510Y-58608490D02*
X96458510Y-59415348D01*
D37*
X115332500Y-56773500D02*
X116274500Y-57715500D01*
X117856000Y-71501000D02*
X118872000Y-72517000D01*
X118872000Y-75565000D02*
X119628000Y-76321000D01*
D34*
X106735000Y-66421000D02*
X106747000Y-66433000D01*
D37*
X118872000Y-72517000D02*
X118872000Y-75565000D01*
X119628000Y-76321000D02*
X121536000Y-76321000D01*
X116332000Y-71501000D02*
X117856000Y-71501000D01*
D34*
X105410000Y-66421000D02*
X106735000Y-66421000D01*
X111232020Y-69322020D02*
X111379000Y-69322020D01*
X112169910Y-68716010D02*
X111563900Y-69322020D01*
D37*
X121536000Y-67177000D02*
X121279000Y-67177000D01*
D34*
X110851020Y-69322020D02*
X111232020Y-69322020D01*
D37*
X118618000Y-62357000D02*
X118618000Y-64516000D01*
D34*
X111563900Y-69322020D02*
X111232020Y-69322020D01*
D37*
X116205000Y-61595000D02*
X117856000Y-61595000D01*
D34*
X106747000Y-68933000D02*
X108011080Y-68933000D01*
X108011080Y-68933000D02*
X108400100Y-69322020D01*
X109960610Y-69322020D02*
X110851020Y-69322020D01*
X108400100Y-69322020D02*
X109960610Y-69322020D01*
D37*
X121279000Y-67177000D02*
X118618000Y-64516000D01*
D34*
X112785010Y-68716010D02*
X112169910Y-68716010D01*
D37*
X117856000Y-61595000D02*
X118618000Y-62357000D01*
D34*
X110851020Y-69322020D02*
X111563901Y-69322019D01*
D37*
X108585000Y-61695500D02*
X110679000Y-61695500D01*
D35*
X108585000Y-61695500D02*
X106960500Y-61695500D01*
D34*
X106747000Y-61433000D02*
X108322500Y-61433000D01*
X106747000Y-61655000D02*
X106747000Y-61933000D01*
D35*
X81534000Y-53975000D02*
X79883000Y-55626000D01*
D34*
X106747000Y-61433000D02*
X106747000Y-61655000D01*
D35*
X82780500Y-53975000D02*
X81534000Y-53975000D01*
D34*
X106907500Y-74093500D02*
X106747000Y-73933000D01*
X106907500Y-75311000D02*
X106907500Y-74093500D01*
D37*
X110679000Y-61695500D02*
X110998000Y-62014500D01*
D34*
X106747000Y-61933000D02*
X108347500Y-61933000D01*
X134874000Y-78105000D02*
X132461000Y-78105000D01*
X122936000Y-79121000D02*
X112395000Y-79121000D01*
D37*
X135003000Y-77239500D02*
X135382000Y-77618500D01*
X135761000Y-77239500D02*
X135382000Y-77618500D01*
D34*
X135360500Y-77618500D02*
X134874000Y-78105000D01*
X125350410Y-78105000D02*
X124334410Y-79121000D01*
X102300798Y-77794028D02*
X100893817Y-76387047D01*
X90822896Y-76387046D02*
X88243925Y-73808075D01*
X111631590Y-79121000D02*
X110304619Y-77794029D01*
X132461000Y-78105000D02*
X127381000Y-78105000D01*
X127381000Y-78105000D02*
X125350410Y-78105000D01*
X112395000Y-79121000D02*
X111631590Y-79121000D01*
D37*
X133604000Y-77239500D02*
X137160000Y-77239500D01*
D34*
X88370925Y-73935075D02*
X86737000Y-72301150D01*
X110304619Y-77794029D02*
X103688971Y-77794029D01*
X124334410Y-79121000D02*
X123571000Y-79121000D01*
D37*
X137160000Y-77239500D02*
X135761000Y-77239500D01*
X133604000Y-77239500D02*
X135003000Y-77239500D01*
D34*
X86737000Y-72301150D02*
X86737000Y-70837500D01*
X135382000Y-77618500D02*
X135360500Y-77618500D01*
X122936000Y-79121000D02*
X123571000Y-79121000D01*
X103688971Y-77794029D02*
X102300798Y-77794028D01*
X100893817Y-76387047D02*
X90822896Y-76387046D01*
D37*
X135253000Y-69492500D02*
X135382000Y-69363500D01*
D34*
X124263990Y-78555010D02*
X111702010Y-78555010D01*
X131587001Y-70215999D02*
X133223000Y-68580000D01*
X87237000Y-71362000D02*
X87261990Y-71386990D01*
X102487199Y-77344019D02*
X101080218Y-75937038D01*
X135382000Y-69363500D02*
X135382000Y-68961000D01*
X124910010Y-70481988D02*
X124910010Y-76650010D01*
X124460000Y-78359000D02*
X124910010Y-77908990D01*
X87261990Y-71386990D02*
X87261990Y-72189730D01*
X124460000Y-78359000D02*
X124263990Y-78555010D01*
X111702010Y-78555010D02*
X110491020Y-77344020D01*
X87237000Y-70837500D02*
X87237000Y-71362000D01*
X91009297Y-75937037D02*
X88244630Y-73172370D01*
X125714999Y-70215999D02*
X125175999Y-70215999D01*
X110491020Y-77344020D02*
X105027981Y-77344019D01*
X125175999Y-70215999D02*
X124910010Y-70481988D01*
X135382000Y-68961000D02*
X135001000Y-68580000D01*
D37*
X133604000Y-69492500D02*
X135253000Y-69492500D01*
X137160000Y-69492500D02*
X135511000Y-69492500D01*
D34*
X131556999Y-70215999D02*
X126873000Y-70215999D01*
X105027981Y-77344019D02*
X102487199Y-77344019D01*
X133223000Y-68580000D02*
X135001000Y-68580000D01*
X126873000Y-70215999D02*
X125714999Y-70215999D01*
X131556999Y-70215999D02*
X131587001Y-70215999D01*
D37*
X135511000Y-69492500D02*
X135382000Y-69363500D01*
D34*
X101080218Y-75937038D02*
X91009297Y-75937037D01*
X87261990Y-72189730D02*
X88244630Y-73172370D01*
X124910010Y-77908990D02*
X124910010Y-76650010D01*
X91195698Y-75487028D02*
X88562835Y-72854165D01*
X123825000Y-78105000D02*
X124460000Y-77470000D01*
D37*
X137031000Y-60981500D02*
X137160000Y-61110500D01*
X135382000Y-60981500D02*
X137031000Y-60981500D01*
D34*
X111888410Y-78105000D02*
X110677421Y-76894011D01*
X123063000Y-78105000D02*
X111888410Y-78105000D01*
X135382000Y-60579000D02*
X134901010Y-60098010D01*
X102673600Y-76894010D02*
X101266619Y-75487029D01*
X124460000Y-61087000D02*
X124460000Y-66167000D01*
X101266619Y-75487029D02*
X91195698Y-75487028D01*
X134901010Y-60098010D02*
X129186010Y-60098010D01*
X103445990Y-76894010D02*
X102673600Y-76894010D01*
X129186010Y-60098010D02*
X125829990Y-60098010D01*
X125829990Y-60098010D02*
X125448990Y-60098010D01*
X124460000Y-66167000D02*
X124460000Y-76454000D01*
X125448990Y-60098010D02*
X124460000Y-61087000D01*
D37*
X135253000Y-61110500D02*
X135382000Y-60981500D01*
D34*
X124460000Y-77470000D02*
X124460000Y-76454000D01*
X110677421Y-76894011D02*
X103445990Y-76894010D01*
X87737000Y-72028330D02*
X88562835Y-72854165D01*
X135382000Y-60981500D02*
X135382000Y-60579000D01*
X123063000Y-78105000D02*
X123825000Y-78105000D01*
D37*
X133604000Y-61110500D02*
X135253000Y-61110500D01*
D34*
X87737000Y-70837500D02*
X87737000Y-72028330D01*
X93826500Y-72263000D02*
X95480500Y-72263000D01*
X89237000Y-70837500D02*
X93443500Y-70837500D01*
X93443500Y-70837500D02*
X93826500Y-71220500D01*
X93826500Y-71220500D02*
X93826500Y-72263000D01*
X88737000Y-71755510D02*
X88737000Y-70837500D01*
X91568500Y-74587010D02*
X88737000Y-71755510D01*
X93826500Y-73787000D02*
X93026490Y-74587010D01*
X93026490Y-74587010D02*
X91568500Y-74587010D01*
X95480500Y-73787000D02*
X93826500Y-73787000D01*
X102430000Y-71433000D02*
X102870000Y-70993000D01*
X99247000Y-71433000D02*
X102430000Y-71433000D01*
X102870000Y-72898000D02*
X102335000Y-73433000D01*
X102335000Y-73433000D02*
X99247000Y-73433000D01*
X106780500Y-60399500D02*
X106747000Y-60433000D01*
X106780500Y-59055000D02*
X106780500Y-60399500D01*
X109106250Y-70598750D02*
X109119500Y-70612000D01*
D37*
X132849500Y-59285500D02*
X128809000Y-55245000D01*
X133604000Y-59285500D02*
X132849500Y-59285500D01*
D36*
X129778501Y-55164499D02*
X138222499Y-55164499D01*
D34*
X108063750Y-70598750D02*
X107898000Y-70433000D01*
D36*
X138222499Y-55164499D02*
X138430000Y-55372000D01*
D34*
X106747000Y-70433000D02*
X107898000Y-70433000D01*
D36*
X128809000Y-56134000D02*
X129778501Y-55164499D01*
D34*
X109106250Y-70598750D02*
X108063750Y-70598750D01*
X109899000Y-64433000D02*
X106747000Y-64433000D01*
X110463500Y-64997500D02*
X109899000Y-64433000D01*
X110463500Y-65405000D02*
X110463500Y-64997500D01*
X107660670Y-66933000D02*
X107999660Y-67271990D01*
X107999660Y-67271990D02*
X109004010Y-67271990D01*
X106747000Y-66933000D02*
X107660670Y-66933000D01*
X110578990Y-67271990D02*
X110844500Y-67537500D01*
X110844500Y-67537500D02*
X110844500Y-68072000D01*
X109004010Y-67271990D02*
X110578990Y-67271990D01*
D36*
X129905501Y-63927499D02*
X128936000Y-64897000D01*
D37*
X132715000Y-67183000D02*
X133119500Y-67183000D01*
D34*
X108726500Y-67933000D02*
X108738500Y-67945000D01*
D37*
X131445000Y-67183000D02*
X132715000Y-67183000D01*
X131222000Y-67183000D02*
X128936000Y-64897000D01*
X133119500Y-67183000D02*
X133604000Y-67667500D01*
D36*
X138095499Y-63927499D02*
X129905501Y-63927499D01*
D37*
X132715000Y-67183000D02*
X131222000Y-67183000D01*
D36*
X138176000Y-64008000D02*
X138095499Y-63927499D01*
D34*
X106747000Y-67933000D02*
X108726500Y-67933000D01*
D36*
X130460000Y-72517000D02*
X128936000Y-74041000D01*
D34*
X108710500Y-65433000D02*
X108738500Y-65405000D01*
X105509000Y-65433000D02*
X106747000Y-65433000D01*
D36*
X138222499Y-72182499D02*
X138430000Y-72390000D01*
X128936000Y-74041000D02*
X130794501Y-72182499D01*
D37*
X130309500Y-75414500D02*
X128936000Y-74041000D01*
D34*
X105410000Y-65532000D02*
X105509000Y-65433000D01*
D36*
X130794501Y-72182499D02*
X138222499Y-72182499D01*
D34*
X106747000Y-65433000D02*
X108710500Y-65433000D01*
D37*
X133604000Y-75414500D02*
X130309500Y-75414500D01*
D34*
X107874670Y-69433000D02*
X108213700Y-69772030D01*
X110004530Y-69772030D02*
X110844500Y-70612000D01*
X106747000Y-69433000D02*
X107874670Y-69433000D01*
X109142030Y-69772030D02*
X110004530Y-69772030D01*
X108213700Y-69772030D02*
X109142030Y-69772030D01*
D35*
X104775000Y-62865000D02*
X104775000Y-62872000D01*
D34*
X105097000Y-62933000D02*
X104775000Y-62611000D01*
X104842000Y-63433000D02*
X104775000Y-63500000D01*
X106489500Y-63309500D02*
X106366000Y-63186000D01*
X106747000Y-62933000D02*
X105097000Y-62933000D01*
X106613000Y-63433000D02*
X106489500Y-63309500D01*
D35*
X104775000Y-62872000D02*
X105089000Y-63186000D01*
D34*
X106747000Y-62933000D02*
X106747000Y-63052000D01*
X104775000Y-62865000D02*
X104775000Y-62611000D01*
X106747000Y-63052000D02*
X106489500Y-63309500D01*
X106747000Y-63433000D02*
X104842000Y-63433000D01*
X104775000Y-63500000D02*
X104775000Y-62865000D01*
D35*
X105597000Y-63186000D02*
X106366000Y-63186000D01*
X105089000Y-63186000D02*
X105597000Y-63186000D01*
X106366000Y-63186000D02*
X106433000Y-63119000D01*
D34*
X106747000Y-63433000D02*
X106613000Y-63433000D01*
X106747000Y-62933000D02*
X106747000Y-63433000D01*
X105283000Y-61979002D02*
X105283000Y-61341000D01*
X105736998Y-62433000D02*
X105283000Y-61979002D01*
X106747000Y-62433000D02*
X105736998Y-62433000D01*
X96330510Y-67602010D02*
X95530500Y-66802000D01*
X97788500Y-67602010D02*
X96330510Y-67602010D01*
X99247000Y-67433000D02*
X97957510Y-67433000D01*
X97957510Y-67433000D02*
X97788500Y-67602010D01*
X97255500Y-66802000D02*
X97386500Y-66933000D01*
X97386500Y-66933000D02*
X99247000Y-66933000D01*
X100572000Y-66433000D02*
X100584000Y-66421000D01*
X99247000Y-66433000D02*
X100572000Y-66433000D01*
D37*
X87423001Y-54689999D02*
X83030990Y-59082010D01*
X83030990Y-59844010D02*
X83030990Y-60452000D01*
X83030990Y-59082010D02*
X83030990Y-59844010D01*
X87423001Y-54689999D02*
X87423001Y-53673999D01*
X87423001Y-53673999D02*
X87823000Y-53274000D01*
D34*
X95530500Y-58420000D02*
X95530500Y-59894000D01*
X95530500Y-59894000D02*
X95480500Y-59944000D01*
X97790500Y-60933000D02*
X97509000Y-60933000D01*
X97509000Y-60933000D02*
X97255500Y-60679500D01*
X97255500Y-61468000D02*
X97255500Y-60986500D01*
X99247000Y-60933000D02*
X97790500Y-60933000D01*
X97255500Y-59994000D02*
X97305500Y-59944000D01*
X97790500Y-60933000D02*
X97309000Y-60933000D01*
X97790500Y-60933000D02*
X97255500Y-61468000D01*
X97255500Y-60986500D02*
X97255500Y-60679500D01*
X97255500Y-60679500D02*
X97255500Y-59994000D01*
X97309000Y-60933000D02*
X97255500Y-60986500D01*
X83566000Y-65843000D02*
X83496000Y-65913000D01*
X82558500Y-65659000D02*
X82324500Y-65425000D01*
D35*
X83340500Y-65757500D02*
X83496000Y-65913000D01*
X83820000Y-65913000D02*
X83185000Y-65913000D01*
D34*
X111315500Y-66167000D02*
X111315500Y-65886010D01*
X83943000Y-66425000D02*
X84074000Y-66294000D01*
X82324500Y-65757500D02*
X82324500Y-66425000D01*
X96837500Y-71120000D02*
X97787588Y-71120000D01*
D35*
X83820000Y-66167000D02*
X83820000Y-65151000D01*
D34*
X84074000Y-64643000D02*
X84074000Y-64897000D01*
D35*
X82550000Y-66167000D02*
X83820000Y-66167000D01*
D34*
X111326010Y-65875500D02*
X111326010Y-64590010D01*
X82324500Y-66425000D02*
X83943000Y-66425000D01*
D35*
X83185000Y-65913000D02*
X82931000Y-66167000D01*
D34*
X82558500Y-65659000D02*
X82558500Y-65691000D01*
D35*
X83213500Y-65757500D02*
X83566000Y-65405000D01*
D34*
X83566000Y-65405000D02*
X83566000Y-65659000D01*
X83566000Y-65659000D02*
X82558500Y-65659000D01*
X84074000Y-64897000D02*
X83820000Y-65151000D01*
X97787588Y-71120000D02*
X97915794Y-71248206D01*
D35*
X82931000Y-66167000D02*
X82550000Y-66167000D01*
D37*
X97305500Y-56769000D02*
X97305500Y-55118000D01*
D34*
X99247000Y-71933000D02*
X98236998Y-71933000D01*
D35*
X83496000Y-65913000D02*
X83820000Y-65913000D01*
D34*
X111315500Y-65886010D02*
X111326010Y-65875500D01*
X106747000Y-63933000D02*
X107580500Y-63933000D01*
X82558500Y-65691000D02*
X82324500Y-65925000D01*
D37*
X84074000Y-65532000D02*
X84074000Y-66294000D01*
D34*
X82324500Y-65425000D02*
X83292000Y-65425000D01*
D35*
X82959500Y-65757500D02*
X83340500Y-65757500D01*
D34*
X82324500Y-65425000D02*
X82324500Y-65757500D01*
X83292000Y-65425000D02*
X84074000Y-64643000D01*
X98236998Y-71933000D02*
X98044000Y-71740002D01*
X107580500Y-63933000D02*
X110669000Y-63933000D01*
D37*
X97305500Y-55118000D02*
X97409000Y-55118000D01*
D34*
X110669000Y-63933000D02*
X111326010Y-64590010D01*
D37*
X84074000Y-64643000D02*
X84074000Y-65532000D01*
D34*
X98044000Y-71740002D02*
X98044000Y-71376412D01*
D35*
X81803000Y-59929000D02*
X82042000Y-59690000D01*
D37*
X98298000Y-54229000D02*
X99544500Y-54229000D01*
D34*
X83566000Y-65659000D02*
X83566000Y-65843000D01*
D35*
X81803000Y-60563000D02*
X81803000Y-59929000D01*
D34*
X98044000Y-71376412D02*
X97915794Y-71248206D01*
D37*
X97409000Y-55118000D02*
X98298000Y-54229000D01*
D35*
X82959500Y-65757500D02*
X83213500Y-65757500D01*
D34*
X82396500Y-62764500D02*
X82396500Y-62103000D01*
X81153000Y-61251490D02*
X82004510Y-62103000D01*
X82324500Y-68925000D02*
X81244000Y-68925000D01*
X81153000Y-58563000D02*
X81153000Y-61251490D01*
X81026000Y-63500000D02*
X81407000Y-63119000D01*
D35*
X84605500Y-53975000D02*
X84605500Y-55626000D01*
D34*
X82042000Y-63119000D02*
X82396500Y-62764500D01*
X81819750Y-57880250D02*
X83273990Y-56426010D01*
X81026000Y-68707000D02*
X81026000Y-63500000D01*
X81407000Y-63119000D02*
X82042000Y-63119000D01*
X84605500Y-55626000D02*
X83805490Y-56426010D01*
X81153000Y-58547000D02*
X81819750Y-57880250D01*
X82004510Y-62103000D02*
X82396500Y-62103000D01*
X81244000Y-68925000D02*
X81026000Y-68707000D01*
X83805490Y-56426010D02*
X83273990Y-56426010D01*
X81153000Y-58563000D02*
X81153000Y-58547000D01*
X90779500Y-77216000D02*
X90766002Y-77216000D01*
X90766002Y-77216000D02*
X86237000Y-72686998D01*
X86237000Y-72686998D02*
X86237000Y-70837500D01*
X92354500Y-77216000D02*
X93956500Y-77216000D01*
D37*
X78994000Y-62634500D02*
X78994000Y-65024000D01*
X78994000Y-65024000D02*
X79248000Y-65278000D01*
X118977728Y-67161728D02*
X118977728Y-69699500D01*
X118977728Y-69699500D02*
X121019228Y-71741000D01*
X121019228Y-71741000D02*
X121536000Y-71741000D01*
X116840000Y-66317500D02*
X115316000Y-66317500D01*
X118133500Y-66317500D02*
X118977728Y-67161728D01*
X115062000Y-66317500D02*
X116840000Y-66317500D01*
X116840000Y-66317500D02*
X118133500Y-66317500D01*
X115339500Y-60325000D02*
X119264000Y-60325000D01*
X119264000Y-60325000D02*
X121536000Y-62597000D01*
X115339500Y-58801000D02*
X115339500Y-60325000D01*
X118618000Y-54887500D02*
X120228500Y-54887500D01*
X117602000Y-56515000D02*
X118618000Y-55499000D01*
X117157500Y-56515000D02*
X117602000Y-56515000D01*
X120228500Y-54887500D02*
X121409000Y-53707000D01*
X118618000Y-55499000D02*
X118618000Y-54887500D01*
D34*
X89237000Y-62512500D02*
X90805000Y-60944500D01*
X90805000Y-60944500D02*
X90805000Y-60325000D01*
X89535000Y-60911298D02*
X89535000Y-60198000D01*
X88737000Y-61709298D02*
X89535000Y-60911298D01*
X88737000Y-62512500D02*
X88737000Y-61709298D01*
X104130001Y-76444001D02*
X102860001Y-76444001D01*
X88237000Y-70837500D02*
X88237000Y-71891920D01*
X109102999Y-76444001D02*
X104130001Y-76444001D01*
X91382099Y-75037019D02*
X100310019Y-75037019D01*
X102860001Y-76444001D02*
X101453019Y-75037019D01*
X101453019Y-75037019D02*
X100310019Y-75037019D01*
X88237000Y-71891920D02*
X88627040Y-72281960D01*
X109356999Y-76444001D02*
X109102999Y-76444001D01*
X110490000Y-75311000D02*
X109356999Y-76444001D01*
X88627040Y-72281960D02*
X91382099Y-75037019D01*
X105410000Y-64606002D02*
X105410000Y-64389000D01*
X105736998Y-64933000D02*
X105410000Y-64606002D01*
X106747000Y-64933000D02*
X105736998Y-64933000D01*
X115062000Y-64492500D02*
X114587000Y-64492500D01*
X107933490Y-65933000D02*
X106747000Y-65933000D01*
X113327520Y-66821980D02*
X108822470Y-66821980D01*
X113811980Y-65267520D02*
X113811980Y-66337520D01*
X108822470Y-66821980D02*
X107933490Y-65933000D01*
X114587000Y-64492500D02*
X113811980Y-65267520D01*
X113811980Y-66337520D02*
X113327520Y-66821980D01*
X106743000Y-67437000D02*
X106747000Y-67433000D01*
X105410000Y-67437000D02*
X106743000Y-67437000D01*
X114591500Y-65504990D02*
X114261990Y-65834500D01*
X113514500Y-62714500D02*
X114479990Y-63679990D01*
X115951000Y-64886510D02*
X115332520Y-65504990D01*
X111036010Y-68872010D02*
X111340990Y-68872010D01*
X108586500Y-68872010D02*
X110147010Y-68872010D01*
X108439745Y-68725255D02*
X108586500Y-68872010D01*
X115532500Y-63679990D02*
X115951000Y-64098490D01*
X112522000Y-67437000D02*
X111841755Y-68117245D01*
X114479990Y-63679990D02*
X115532500Y-63679990D01*
X111377500Y-68872010D02*
X111036010Y-68872010D01*
X108147490Y-68433000D02*
X108439745Y-68725255D01*
X115951000Y-64098490D02*
X115951000Y-64886510D01*
X108256990Y-68542500D02*
X108439745Y-68725255D01*
X111841755Y-68117245D02*
X111841755Y-68407755D01*
X115332520Y-65504990D02*
X114591500Y-65504990D01*
X114261990Y-65834500D02*
X114261990Y-66840010D01*
X114261990Y-66840010D02*
X113665000Y-67437000D01*
X110147010Y-68872010D02*
X111036010Y-68872010D01*
X113514500Y-60325000D02*
X113514500Y-62714500D01*
X106747000Y-68433000D02*
X108147490Y-68433000D01*
X111841755Y-68407755D02*
X111377500Y-68872010D01*
X113665000Y-67437000D02*
X112522000Y-67437000D01*
X105454000Y-69933000D02*
X106747000Y-69933000D01*
X105410000Y-69977000D02*
X105454000Y-69933000D01*
X106747000Y-70933000D02*
X107757002Y-70933000D01*
X118872000Y-77089000D02*
X119300991Y-77517991D01*
X124009990Y-77158010D02*
X124009990Y-53016990D01*
X123317000Y-52324000D02*
X119102500Y-52324000D01*
X117348000Y-75565000D02*
X118872000Y-77089000D01*
X117348000Y-73623998D02*
X117348000Y-75565000D01*
X119300991Y-77517991D02*
X119460999Y-77517991D01*
X113226010Y-70796990D02*
X114520992Y-70796990D01*
X119437990Y-77654990D02*
X122497010Y-77654990D01*
X122497010Y-77654990D02*
X123513010Y-77654990D01*
X123513010Y-77654990D02*
X124009990Y-77158010D01*
X119102500Y-52324000D02*
X118364000Y-53062500D01*
X108306992Y-71482990D02*
X112540010Y-71482990D01*
X107757002Y-70933000D02*
X108306992Y-71482990D01*
X114520992Y-70796990D02*
X117348000Y-73623998D01*
X112540010Y-71482990D02*
X113226010Y-70796990D01*
X124009990Y-53016990D02*
X123317000Y-52324000D01*
X118872000Y-77089000D02*
X119437990Y-77654990D01*
X97711500Y-53428990D02*
X98894990Y-53428990D01*
X101982410Y-54229000D02*
X101369500Y-54229000D01*
X103058529Y-55305119D02*
X101982410Y-54229000D01*
X92303952Y-57251952D02*
X92862048Y-57251952D01*
X103058530Y-59904292D02*
X103058529Y-55305119D01*
X84237000Y-59637950D02*
X84237000Y-62512500D01*
X101369500Y-54229000D02*
X100569490Y-53428990D01*
X92303951Y-57251953D02*
X92303952Y-57251952D01*
X99247000Y-62433000D02*
X100529822Y-62433000D01*
X100529822Y-62433000D02*
X103058530Y-59904292D01*
X100569490Y-53428990D02*
X99402990Y-53428990D01*
X96100990Y-55918010D02*
X96393000Y-55626000D01*
X86622997Y-57251953D02*
X84237000Y-59637950D01*
X96393000Y-55626000D02*
X96393000Y-54747490D01*
X98894990Y-53428990D02*
X99402990Y-53428990D01*
X99402990Y-53428990D02*
X99061500Y-53428990D01*
X94195990Y-55918010D02*
X96100990Y-55918010D01*
X92862048Y-57251952D02*
X94195990Y-55918010D01*
X96393000Y-54747490D02*
X97711500Y-53428990D01*
X86622997Y-57251953D02*
X92303951Y-57251953D01*
X97305500Y-62992000D02*
X97790000Y-62992000D01*
X98231000Y-63433000D02*
X99247000Y-63433000D01*
X97790000Y-62992000D02*
X98231000Y-63433000D01*
X100666230Y-62933000D02*
X103508539Y-60090691D01*
X95480500Y-55118000D02*
X94359590Y-55118000D01*
X86436596Y-56801944D02*
X92675646Y-56801944D01*
X86436596Y-56801944D02*
X83737000Y-59501540D01*
X99247000Y-62933000D02*
X100666230Y-62933000D01*
X103508539Y-60090691D02*
X103508539Y-54485129D01*
X101981705Y-52958295D02*
X97409705Y-52958295D01*
X83737000Y-59501540D02*
X83737000Y-62512500D01*
X103508539Y-54485129D02*
X101981705Y-52958295D01*
X92675646Y-56801944D02*
X92675648Y-56801942D01*
X97409705Y-52958295D02*
X95480500Y-54887500D01*
X95480500Y-54887500D02*
X95480500Y-55118000D01*
X94359590Y-55118000D02*
X92675648Y-56801942D01*
X99247000Y-72433000D02*
X97475500Y-72433000D01*
X97475500Y-72433000D02*
X97305500Y-72263000D01*
X98159500Y-72933000D02*
X97305500Y-73787000D01*
X99247000Y-72933000D02*
X98159500Y-72933000D01*
X102608520Y-59717892D02*
X102608520Y-55491520D01*
X98731990Y-55536500D02*
X98978245Y-55290245D01*
X102235000Y-55118000D02*
X101727000Y-55118000D01*
X100457000Y-55118000D02*
X99441000Y-55118000D01*
X86809398Y-57701962D02*
X91483962Y-57701962D01*
X98005990Y-57569010D02*
X98386990Y-57569010D01*
X102608520Y-55491520D02*
X102235000Y-55118000D01*
X99150490Y-55118000D02*
X99441000Y-55118000D01*
X98679000Y-55589490D02*
X99150490Y-55118000D01*
X98679000Y-57277000D02*
X98679000Y-55589490D01*
X95480500Y-56769000D02*
X94107000Y-56769000D01*
X98386990Y-57569010D02*
X98679000Y-57277000D01*
X93174036Y-57701962D02*
X91483962Y-57701962D01*
X84737000Y-59774360D02*
X86809398Y-57701962D01*
X98978245Y-55290245D02*
X99150490Y-55118000D01*
X95480500Y-56769000D02*
X96280510Y-57569010D01*
X99247000Y-61933000D02*
X100393412Y-61933000D01*
X100393412Y-61933000D02*
X102608520Y-59717892D01*
X84737000Y-62512500D02*
X84737000Y-59774360D01*
X101727000Y-55118000D02*
X100457000Y-55118000D01*
X96280510Y-57569010D02*
X98005990Y-57569010D01*
X94107000Y-56769000D02*
X93174036Y-57701962D01*
X99521000Y-59055000D02*
X99521000Y-60159000D01*
X99521000Y-60159000D02*
X99247000Y-60433000D01*
X101369500Y-56007000D02*
X101369500Y-57531000D01*
X100257002Y-61433000D02*
X100111000Y-61433000D01*
X100251010Y-61433000D02*
X102158510Y-59525500D01*
X100111000Y-61433000D02*
X99247000Y-61433000D01*
X102158510Y-58320010D02*
X101369500Y-57531000D01*
X100111000Y-61433000D02*
X100251010Y-61433000D01*
X102158510Y-59525500D02*
X102158510Y-58320010D01*
X88864000Y-64425000D02*
X88011000Y-65278000D01*
X90649500Y-64425000D02*
X88864000Y-64425000D01*
X90649500Y-63925000D02*
X89325000Y-63925000D01*
X89325000Y-63925000D02*
X89154000Y-63754000D01*
X94286000Y-63933000D02*
X94690000Y-63933000D01*
X93345000Y-62992000D02*
X94286000Y-63933000D01*
X99247000Y-63933000D02*
X96445000Y-63933000D01*
X93345000Y-62992000D02*
X93345000Y-62547500D01*
X91905140Y-58151972D02*
X86995799Y-58151971D01*
X85237000Y-59910770D02*
X85237000Y-62512500D01*
X93345000Y-62547500D02*
X93344999Y-59591829D01*
X93344999Y-59591829D02*
X91905140Y-58151972D01*
X94690000Y-63933000D02*
X94503490Y-63933000D01*
X96445000Y-63933000D02*
X94690000Y-63933000D01*
X86995799Y-58151971D02*
X85237000Y-59910770D01*
X92894990Y-63214910D02*
X94113080Y-64433000D01*
X94113080Y-64433000D02*
X94532000Y-64433000D01*
X85737000Y-62512500D02*
X85737000Y-61099000D01*
X87182200Y-58601980D02*
X91718741Y-58601981D01*
X91718741Y-58601981D02*
X92894990Y-59778230D01*
X92894990Y-59778230D02*
X92894990Y-63214910D01*
X85737000Y-60047180D02*
X87182200Y-58601980D01*
X96730000Y-64433000D02*
X94532000Y-64433000D01*
X85737000Y-61099000D02*
X85737000Y-60047180D01*
X99247000Y-64433000D02*
X96730000Y-64433000D01*
X92444980Y-59964630D02*
X92444980Y-63401310D01*
X97119000Y-64933000D02*
X94524000Y-64933000D01*
X99247000Y-64933000D02*
X97119000Y-64933000D01*
X86237000Y-60183588D02*
X87368599Y-59051989D01*
X86237000Y-61091000D02*
X86237000Y-60183588D01*
X92444980Y-63401310D02*
X93976670Y-64933000D01*
X91532340Y-59051990D02*
X92444980Y-59964630D01*
X86237000Y-62512500D02*
X86237000Y-61091000D01*
X93976670Y-64933000D02*
X94524000Y-64933000D01*
X87368599Y-59051989D02*
X91532340Y-59051990D01*
X84261990Y-68767990D02*
X84201000Y-68707000D01*
X84237000Y-70830000D02*
X84261990Y-70805010D01*
X84261990Y-69535010D02*
X84261990Y-68767990D01*
X84261990Y-70805010D02*
X84261990Y-69535010D01*
X84237000Y-70837500D02*
X84237000Y-70830000D01*
X90649500Y-64925000D02*
X90650000Y-64925000D01*
X99247000Y-65933000D02*
X93703850Y-65933000D01*
X93703850Y-65933000D02*
X93006425Y-65235575D01*
X90650000Y-64925000D02*
X90674990Y-64900010D01*
X90674990Y-64900010D02*
X92670860Y-64900010D01*
X92670860Y-64900010D02*
X93006425Y-65235575D01*
X92044306Y-65880194D02*
X92710000Y-66545888D01*
X99247000Y-67933000D02*
X98093920Y-67933000D01*
X92710000Y-66548000D02*
X93686980Y-67524980D01*
X94659420Y-67524980D02*
X95186460Y-68052020D01*
X90649500Y-65425000D02*
X91589112Y-65425000D01*
X93686980Y-67524980D02*
X94659420Y-67524980D01*
X92710000Y-66545888D02*
X92710000Y-66548000D01*
X91589112Y-65425000D02*
X92044306Y-65880194D01*
X97974900Y-68052020D02*
X95186460Y-68052020D01*
X98093920Y-67933000D02*
X97974900Y-68052020D01*
X98152970Y-68502030D02*
X98222000Y-68433000D01*
X92259991Y-66734401D02*
X93500580Y-67974990D01*
X92259990Y-66732288D02*
X92259991Y-66734401D01*
X93500580Y-67974990D02*
X94140510Y-67974990D01*
X92011851Y-66484149D02*
X92259990Y-66732288D01*
X98222000Y-68433000D02*
X99247000Y-68433000D01*
X92011851Y-66484149D02*
X92202000Y-66674298D01*
X94473020Y-67974990D02*
X95000060Y-68502030D01*
X95000060Y-68502030D02*
X98152970Y-68502030D01*
X94140510Y-67974990D02*
X94473020Y-67974990D01*
X90649500Y-65925000D02*
X91452702Y-65925000D01*
X91452702Y-65925000D02*
X92011851Y-66484149D01*
X94813660Y-68952040D02*
X99227960Y-68952040D01*
X94286620Y-68425000D02*
X94813660Y-68952040D01*
X90649500Y-68425000D02*
X94286620Y-68425000D01*
X99227960Y-68952040D02*
X99247000Y-68933000D01*
X90637500Y-67437000D02*
X90649500Y-67425000D01*
X99247000Y-69433000D02*
X100202998Y-69433000D01*
X100202998Y-69433000D02*
X100420998Y-69215000D01*
X89281000Y-67437000D02*
X90637500Y-67437000D01*
X100584000Y-68707000D02*
X100584000Y-69051998D01*
X100584000Y-69051998D02*
X100202998Y-69433000D01*
X94150210Y-68925000D02*
X95158210Y-69933000D01*
X95158210Y-69933000D02*
X95714000Y-69933000D01*
X90649500Y-68925000D02*
X94150210Y-68925000D01*
X95714000Y-69933000D02*
X99247000Y-69933000D01*
X100272000Y-70433000D02*
X100584000Y-70121000D01*
X99247000Y-70433000D02*
X100272000Y-70433000D01*
X100584000Y-70121000D02*
X100584000Y-69977000D01*
X90649500Y-67925000D02*
X89682000Y-67925000D01*
X89682000Y-67925000D02*
X89281000Y-68326000D01*
X94971810Y-70383010D02*
X94685650Y-70096850D01*
X94013800Y-69425000D02*
X94685650Y-70096850D01*
X98236998Y-70933000D02*
X97687008Y-70383010D01*
X97687008Y-70383010D02*
X94971810Y-70383010D01*
X90649500Y-69425000D02*
X94013800Y-69425000D01*
X99247000Y-70933000D02*
X98236998Y-70933000D01*
X84737000Y-69441000D02*
X85471000Y-68707000D01*
X84737000Y-70837500D02*
X84737000Y-69441000D01*
X85852000Y-69342000D02*
X86614000Y-69342000D01*
X85261990Y-70821010D02*
X85261990Y-69932010D01*
X85261990Y-69932010D02*
X85852000Y-69342000D01*
X85245500Y-70837500D02*
X85261990Y-70821010D01*
X86614000Y-69342000D02*
X86741000Y-69215000D01*
X86741000Y-69215000D02*
X86741000Y-68707000D01*
X85237000Y-70837500D02*
X85245500Y-70837500D01*
X83575999Y-70676499D02*
X83575999Y-68406999D01*
X88011000Y-68199000D02*
X88011000Y-68707000D01*
X83737000Y-70837500D02*
X83575999Y-70676499D01*
X83575999Y-68406999D02*
X84164998Y-67818000D01*
X84164998Y-67818000D02*
X87630000Y-67818000D01*
X87630000Y-67818000D02*
X88011000Y-68199000D01*
X91994970Y-63587710D02*
X93865259Y-65457999D01*
X91994970Y-60151030D02*
X91994970Y-63587710D01*
X99247000Y-65433000D02*
X99215000Y-65433000D01*
X86737000Y-60319998D02*
X87554999Y-59501999D01*
X86737000Y-60956000D02*
X86737000Y-60319998D01*
X97864001Y-65457999D02*
X94435001Y-65457999D01*
X91345939Y-59501999D02*
X91994970Y-60151030D01*
X93865259Y-65457999D02*
X94435001Y-65457999D01*
X99215000Y-65433000D02*
X99190001Y-65457999D01*
X87554999Y-59501999D02*
X91345939Y-59501999D01*
X86737000Y-62512500D02*
X86737000Y-60956000D01*
X99190001Y-65457999D02*
X97864001Y-65457999D01*
X110686010Y-73856010D02*
X110928990Y-74098990D01*
X114046000Y-71501000D02*
X114046000Y-73432500D01*
X110686010Y-72838600D02*
X110686010Y-73856010D01*
X110928990Y-74098990D02*
X113379510Y-74098990D01*
X109780410Y-71933000D02*
X110686010Y-72838600D01*
X106747000Y-71933000D02*
X109780410Y-71933000D01*
X113379510Y-74098990D02*
X114046000Y-73432500D01*
X113437500Y-74549000D02*
X114046000Y-75157500D01*
X109644000Y-72433000D02*
X110236000Y-73025000D01*
X110742590Y-74549000D02*
X113437500Y-74549000D01*
X106747000Y-72433000D02*
X109644000Y-72433000D01*
X110236000Y-73025000D02*
X110236001Y-74042411D01*
X110236001Y-74042411D02*
X110742590Y-74549000D01*
X114046000Y-75157500D02*
X114046000Y-77343000D01*
X108400009Y-73439597D02*
X108400009Y-73853189D01*
X108645810Y-74098990D02*
X109035010Y-74098990D01*
X108400009Y-73853189D02*
X108645810Y-74098990D01*
X107893412Y-72933000D02*
X108400009Y-73439597D01*
X106747000Y-72933000D02*
X107893412Y-72933000D01*
X109035010Y-74098990D02*
X109347000Y-73787000D01*
X107950000Y-74039590D02*
X108459410Y-74549000D01*
X109093000Y-74549000D02*
X109347000Y-74803000D01*
X106747000Y-73433000D02*
X107757002Y-73433000D01*
X108712000Y-74549000D02*
X109093000Y-74549000D01*
X107757002Y-73433000D02*
X107950000Y-73625998D01*
X107950000Y-73625998D02*
X107950000Y-74039590D01*
X108459410Y-74549000D02*
X108712000Y-74549000D01*
X87237000Y-61226000D02*
X87237000Y-62512500D01*
X88011000Y-60452000D02*
X87237000Y-61226000D01*
G04 #@! TA.AperFunction,Conductor*
G36*
X140911621Y-51328502D02*
G01*
X140958114Y-51382158D01*
X140969500Y-51434500D01*
X140969500Y-80010500D01*
X140949498Y-80078621D01*
X140895842Y-80125114D01*
X140843500Y-80136500D01*
X77469500Y-80136500D01*
X77401379Y-80116498D01*
X77354886Y-80062842D01*
X77343500Y-80010500D01*
X77343500Y-77690669D01*
X77675001Y-77690669D01*
X77675371Y-77697490D01*
X77680895Y-77748352D01*
X77684521Y-77763604D01*
X77729676Y-77884054D01*
X77738214Y-77899649D01*
X77814715Y-78001724D01*
X77827276Y-78014285D01*
X77929351Y-78090786D01*
X77944946Y-78099324D01*
X78065394Y-78144478D01*
X78080649Y-78148105D01*
X78131514Y-78153631D01*
X78138328Y-78154000D01*
X79610885Y-78154000D01*
X79626124Y-78149525D01*
X79627329Y-78148135D01*
X79629000Y-78140452D01*
X79629000Y-78135884D01*
X80137000Y-78135884D01*
X80141475Y-78151123D01*
X80142865Y-78152328D01*
X80150548Y-78153999D01*
X81627669Y-78153999D01*
X81634490Y-78153629D01*
X81685352Y-78148105D01*
X81700604Y-78144479D01*
X81821054Y-78099324D01*
X81836649Y-78090786D01*
X81938724Y-78014285D01*
X81951285Y-78001724D01*
X82027786Y-77899649D01*
X82036324Y-77884054D01*
X82081478Y-77763606D01*
X82085105Y-77748351D01*
X82090631Y-77697486D01*
X82091000Y-77690672D01*
X82091000Y-76218115D01*
X82086525Y-76202876D01*
X82085135Y-76201671D01*
X82077452Y-76200000D01*
X80155115Y-76200000D01*
X80139876Y-76204475D01*
X80138671Y-76205865D01*
X80137000Y-76213548D01*
X80137000Y-78135884D01*
X79629000Y-78135884D01*
X79629000Y-76218115D01*
X79624525Y-76202876D01*
X79623135Y-76201671D01*
X79615452Y-76200000D01*
X77693116Y-76200000D01*
X77677877Y-76204475D01*
X77676672Y-76205865D01*
X77675001Y-76213548D01*
X77675001Y-77690669D01*
X77343500Y-77690669D01*
X77343500Y-75673885D01*
X77675000Y-75673885D01*
X77679475Y-75689124D01*
X77680865Y-75690329D01*
X77688548Y-75692000D01*
X79610885Y-75692000D01*
X79626124Y-75687525D01*
X79627329Y-75686135D01*
X79629000Y-75678452D01*
X79629000Y-75673885D01*
X80137000Y-75673885D01*
X80141475Y-75689124D01*
X80142865Y-75690329D01*
X80150548Y-75692000D01*
X82072884Y-75692000D01*
X82088123Y-75687525D01*
X82089328Y-75686135D01*
X82090999Y-75678452D01*
X82090999Y-74533238D01*
X82111001Y-74465117D01*
X82164657Y-74418624D01*
X82234931Y-74408520D01*
X82260912Y-74415138D01*
X82353168Y-74449448D01*
X82436995Y-74460633D01*
X82525980Y-74472507D01*
X82525984Y-74472507D01*
X82532961Y-74473438D01*
X82539972Y-74472800D01*
X82539976Y-74472800D01*
X82702645Y-74457995D01*
X82713600Y-74456998D01*
X82720302Y-74454820D01*
X82720304Y-74454820D01*
X82879409Y-74403124D01*
X82879412Y-74403123D01*
X82886108Y-74400947D01*
X83005356Y-74329861D01*
X83035860Y-74311677D01*
X83035862Y-74311676D01*
X83041912Y-74308069D01*
X83173266Y-74182982D01*
X83273643Y-74031902D01*
X83327442Y-73890276D01*
X83335555Y-73868920D01*
X83335556Y-73868918D01*
X83338055Y-73862338D01*
X83345437Y-73809814D01*
X83362748Y-73686639D01*
X83362748Y-73686636D01*
X83363299Y-73682717D01*
X83363616Y-73660000D01*
X83343397Y-73479745D01*
X83341080Y-73473091D01*
X83286064Y-73315106D01*
X83286062Y-73315103D01*
X83283745Y-73308448D01*
X83213860Y-73196607D01*
X83191359Y-73160598D01*
X83187626Y-73154624D01*
X83167538Y-73134395D01*
X83064778Y-73030915D01*
X83064774Y-73030912D01*
X83059815Y-73025918D01*
X83048697Y-73018862D01*
X82996544Y-72985765D01*
X82906666Y-72928727D01*
X82873050Y-72916757D01*
X82742425Y-72870243D01*
X82742420Y-72870242D01*
X82735790Y-72867881D01*
X82728802Y-72867048D01*
X82728799Y-72867047D01*
X82605698Y-72852368D01*
X82555680Y-72846404D01*
X82548677Y-72847140D01*
X82548676Y-72847140D01*
X82382288Y-72864628D01*
X82382286Y-72864629D01*
X82375288Y-72865364D01*
X82203579Y-72923818D01*
X82197575Y-72927512D01*
X82055095Y-73015166D01*
X82055092Y-73015168D01*
X82049088Y-73018862D01*
X82044053Y-73023793D01*
X82044050Y-73023795D01*
X81930969Y-73134533D01*
X81919493Y-73145771D01*
X81821235Y-73298238D01*
X81818826Y-73304858D01*
X81818824Y-73304861D01*
X81774791Y-73425841D01*
X81759197Y-73468685D01*
X81739107Y-73627716D01*
X81739097Y-73627792D01*
X81710715Y-73692869D01*
X81651656Y-73732270D01*
X81614091Y-73738000D01*
X80155115Y-73738000D01*
X80139876Y-73742475D01*
X80138671Y-73743865D01*
X80137000Y-73751548D01*
X80137000Y-75673885D01*
X79629000Y-75673885D01*
X79629000Y-73756116D01*
X79624525Y-73740877D01*
X79623135Y-73739672D01*
X79615452Y-73738001D01*
X78138331Y-73738001D01*
X78131510Y-73738371D01*
X78080648Y-73743895D01*
X78065396Y-73747521D01*
X77944946Y-73792676D01*
X77929351Y-73801214D01*
X77827276Y-73877715D01*
X77814715Y-73890276D01*
X77738214Y-73992351D01*
X77729676Y-74007946D01*
X77684522Y-74128394D01*
X77680895Y-74143649D01*
X77675369Y-74194514D01*
X77675000Y-74201328D01*
X77675000Y-75673885D01*
X77343500Y-75673885D01*
X77343500Y-70625966D01*
X77916257Y-70625966D01*
X77946565Y-70760446D01*
X77949645Y-70770275D01*
X78029770Y-70967603D01*
X78034413Y-70976794D01*
X78145694Y-71158388D01*
X78151777Y-71166699D01*
X78291213Y-71327667D01*
X78298580Y-71334883D01*
X78462434Y-71470916D01*
X78470881Y-71476831D01*
X78654756Y-71584279D01*
X78664042Y-71588729D01*
X78863001Y-71664703D01*
X78872899Y-71667579D01*
X78976250Y-71688606D01*
X78990299Y-71687410D01*
X78994000Y-71677065D01*
X78994000Y-71676517D01*
X79502000Y-71676517D01*
X79506064Y-71690359D01*
X79519478Y-71692393D01*
X79526184Y-71691534D01*
X79536262Y-71689392D01*
X79740255Y-71628191D01*
X79749842Y-71624433D01*
X79941095Y-71530739D01*
X79949945Y-71525464D01*
X80123328Y-71401792D01*
X80131200Y-71395139D01*
X80282052Y-71244812D01*
X80288730Y-71236965D01*
X80413003Y-71064020D01*
X80418313Y-71055183D01*
X80512670Y-70864267D01*
X80516469Y-70854672D01*
X80578377Y-70650910D01*
X80580555Y-70640837D01*
X80581986Y-70629962D01*
X80579775Y-70615778D01*
X80566617Y-70612000D01*
X79520115Y-70612000D01*
X79504876Y-70616475D01*
X79503671Y-70617865D01*
X79502000Y-70625548D01*
X79502000Y-71676517D01*
X78994000Y-71676517D01*
X78994000Y-70630115D01*
X78989525Y-70614876D01*
X78988135Y-70613671D01*
X78980452Y-70612000D01*
X77931225Y-70612000D01*
X77917694Y-70615973D01*
X77916257Y-70625966D01*
X77343500Y-70625966D01*
X77343500Y-57374134D01*
X77674500Y-57374134D01*
X77681255Y-57436316D01*
X77732385Y-57572705D01*
X77819739Y-57689261D01*
X77936295Y-57776615D01*
X78072684Y-57827745D01*
X78134866Y-57834500D01*
X80344994Y-57834500D01*
X80413115Y-57854502D01*
X80459608Y-57908158D01*
X80469712Y-57978432D01*
X80462976Y-58004729D01*
X80429029Y-58095282D01*
X80429027Y-58095288D01*
X80426255Y-58102684D01*
X80419500Y-58164866D01*
X80419500Y-58961134D01*
X80426255Y-59023316D01*
X80477385Y-59159705D01*
X80494327Y-59182311D01*
X80519174Y-59248815D01*
X80519500Y-59257874D01*
X80519500Y-59579000D01*
X80499498Y-59647121D01*
X80445842Y-59693614D01*
X80393501Y-59705000D01*
X80233332Y-59705001D01*
X80226510Y-59705371D01*
X80175648Y-59710895D01*
X80160396Y-59714521D01*
X80039946Y-59759676D01*
X80024351Y-59768214D01*
X79922276Y-59844715D01*
X79909715Y-59857276D01*
X79853677Y-59932047D01*
X79796818Y-59974562D01*
X79725999Y-59979588D01*
X79686736Y-59963743D01*
X79589628Y-59903884D01*
X79555150Y-59882631D01*
X79555148Y-59882630D01*
X79548920Y-59878791D01*
X79383809Y-59824026D01*
X79376973Y-59823326D01*
X79376970Y-59823325D01*
X79325474Y-59818049D01*
X79281072Y-59813500D01*
X78706928Y-59813500D01*
X78703682Y-59813837D01*
X78703678Y-59813837D01*
X78609765Y-59823581D01*
X78609761Y-59823582D01*
X78602907Y-59824293D01*
X78596371Y-59826474D01*
X78596369Y-59826474D01*
X78504045Y-59857276D01*
X78437893Y-59879346D01*
X78289969Y-59970884D01*
X78284796Y-59976066D01*
X78172242Y-60088816D01*
X78172238Y-60088821D01*
X78167071Y-60093997D01*
X78163231Y-60100227D01*
X78163230Y-60100228D01*
X78084590Y-60227806D01*
X78075791Y-60242080D01*
X78021026Y-60407191D01*
X78020326Y-60414027D01*
X78020325Y-60414030D01*
X78015711Y-60459063D01*
X78010500Y-60509928D01*
X78010500Y-61109072D01*
X78010837Y-61112318D01*
X78010837Y-61112322D01*
X78020410Y-61204578D01*
X78021293Y-61213093D01*
X78023474Y-61219629D01*
X78023474Y-61219631D01*
X78067429Y-61351379D01*
X78076346Y-61378107D01*
X78167884Y-61526031D01*
X78173066Y-61531204D01*
X78274786Y-61632747D01*
X78308865Y-61695030D01*
X78303862Y-61765850D01*
X78274941Y-61810937D01*
X78172246Y-61913812D01*
X78172242Y-61913817D01*
X78167071Y-61918997D01*
X78163231Y-61925227D01*
X78163230Y-61925228D01*
X78082408Y-62056346D01*
X78075791Y-62067080D01*
X78021026Y-62232191D01*
X78020326Y-62239027D01*
X78020325Y-62239030D01*
X78017840Y-62263283D01*
X78010500Y-62334928D01*
X78010500Y-62934072D01*
X78010837Y-62937318D01*
X78010837Y-62937322D01*
X78020469Y-63030147D01*
X78021293Y-63038093D01*
X78023474Y-63044629D01*
X78023474Y-63044631D01*
X78052081Y-63130376D01*
X78076346Y-63203107D01*
X78085645Y-63218133D01*
X78104500Y-63284435D01*
X78104500Y-63949429D01*
X78084498Y-64017550D01*
X78054065Y-64050255D01*
X78034739Y-64064739D01*
X77947385Y-64181295D01*
X77896255Y-64317684D01*
X77889500Y-64379866D01*
X77889500Y-66176134D01*
X77896255Y-66238316D01*
X77947385Y-66374705D01*
X78034739Y-66491261D01*
X78151295Y-66578615D01*
X78159704Y-66581767D01*
X78159705Y-66581768D01*
X78268451Y-66622535D01*
X78325216Y-66665176D01*
X78349916Y-66731738D01*
X78334709Y-66801087D01*
X78315316Y-66827568D01*
X78218679Y-66928693D01*
X78188629Y-66960138D01*
X78062743Y-67144680D01*
X78025116Y-67225740D01*
X77975788Y-67332010D01*
X77968688Y-67347305D01*
X77908989Y-67562570D01*
X77885251Y-67784695D01*
X77885548Y-67789848D01*
X77885548Y-67789851D01*
X77897198Y-67991890D01*
X77898110Y-68007715D01*
X77899247Y-68012761D01*
X77899248Y-68012767D01*
X77914678Y-68081231D01*
X77947222Y-68225639D01*
X78031266Y-68432616D01*
X78147987Y-68623088D01*
X78294250Y-68791938D01*
X78394924Y-68875519D01*
X78445686Y-68917662D01*
X78466126Y-68934632D01*
X78497530Y-68952983D01*
X78539955Y-68977774D01*
X78588679Y-69029412D01*
X78601750Y-69099195D01*
X78575019Y-69164967D01*
X78534562Y-69198327D01*
X78526457Y-69202546D01*
X78517738Y-69208036D01*
X78347433Y-69335905D01*
X78339726Y-69342748D01*
X78192590Y-69496717D01*
X78186104Y-69504727D01*
X78066098Y-69680649D01*
X78061000Y-69689623D01*
X77971338Y-69882783D01*
X77967775Y-69892470D01*
X77912389Y-70092183D01*
X77913912Y-70100607D01*
X77926292Y-70104000D01*
X80566344Y-70104000D01*
X80579875Y-70100027D01*
X80581180Y-70090947D01*
X80539214Y-69923875D01*
X80535894Y-69914124D01*
X80450972Y-69718814D01*
X80446105Y-69709739D01*
X80330426Y-69530926D01*
X80324136Y-69522757D01*
X80180806Y-69365240D01*
X80173273Y-69358215D01*
X80006139Y-69226222D01*
X79997556Y-69220520D01*
X79960602Y-69200120D01*
X79910631Y-69149687D01*
X79895859Y-69080245D01*
X79920975Y-69013839D01*
X79948327Y-68987232D01*
X79981670Y-68963449D01*
X80127860Y-68859173D01*
X80131517Y-68855529D01*
X80193856Y-68793408D01*
X80256228Y-68759493D01*
X80327034Y-68764682D01*
X80383795Y-68807328D01*
X80404837Y-68851328D01*
X80406532Y-68857932D01*
X80407526Y-68865797D01*
X80410442Y-68873163D01*
X80410444Y-68873169D01*
X80423804Y-68906912D01*
X80427649Y-68918142D01*
X80439982Y-68960593D01*
X80444015Y-68967412D01*
X80444017Y-68967417D01*
X80450293Y-68978028D01*
X80458988Y-68995776D01*
X80466448Y-69014617D01*
X80471110Y-69021033D01*
X80471110Y-69021034D01*
X80492436Y-69050387D01*
X80498952Y-69060307D01*
X80512166Y-69082650D01*
X80521458Y-69098362D01*
X80535779Y-69112683D01*
X80548619Y-69127716D01*
X80560528Y-69144107D01*
X80566634Y-69149158D01*
X80594605Y-69172298D01*
X80603384Y-69180288D01*
X80740343Y-69317247D01*
X80747887Y-69325537D01*
X80752000Y-69332018D01*
X80757777Y-69337443D01*
X80801667Y-69378658D01*
X80804509Y-69381413D01*
X80824231Y-69401135D01*
X80827355Y-69403558D01*
X80827359Y-69403562D01*
X80827424Y-69403612D01*
X80836445Y-69411317D01*
X80868679Y-69441586D01*
X80875627Y-69445405D01*
X80875629Y-69445407D01*
X80886432Y-69451346D01*
X80902959Y-69462202D01*
X80912698Y-69469757D01*
X80912700Y-69469758D01*
X80918960Y-69474614D01*
X80959540Y-69492174D01*
X80970188Y-69497391D01*
X80983532Y-69504727D01*
X81008940Y-69518695D01*
X81012191Y-69519530D01*
X81066563Y-69561951D01*
X81089130Y-69618986D01*
X81091803Y-69639286D01*
X81093519Y-69652324D01*
X81096678Y-69659951D01*
X81096679Y-69659954D01*
X81117301Y-69709739D01*
X81152314Y-69794268D01*
X81245843Y-69916157D01*
X81252393Y-69921183D01*
X81252394Y-69921184D01*
X81306788Y-69962922D01*
X81367733Y-70009686D01*
X81509676Y-70068481D01*
X81562428Y-70075426D01*
X81619669Y-70082962D01*
X81619670Y-70082962D01*
X81623756Y-70083500D01*
X82816499Y-70083500D01*
X82884620Y-70103502D01*
X82931113Y-70157158D01*
X82942499Y-70209500D01*
X82942499Y-70597732D01*
X82941972Y-70608915D01*
X82940297Y-70616408D01*
X82940546Y-70624334D01*
X82940546Y-70624335D01*
X82942437Y-70684485D01*
X82942499Y-70688444D01*
X82942499Y-70716355D01*
X82942996Y-70720289D01*
X82942996Y-70720290D01*
X82943004Y-70720355D01*
X82943937Y-70732192D01*
X82945326Y-70776388D01*
X82949289Y-70790028D01*
X82950977Y-70795838D01*
X82954986Y-70815199D01*
X82957525Y-70835296D01*
X82960444Y-70842667D01*
X82960444Y-70842669D01*
X82973803Y-70876411D01*
X82977648Y-70887641D01*
X82987494Y-70921531D01*
X82989981Y-70930092D01*
X82994014Y-70936911D01*
X82994016Y-70936916D01*
X83000292Y-70947527D01*
X83008987Y-70965275D01*
X83016447Y-70984116D01*
X83021109Y-70990532D01*
X83021109Y-70990533D01*
X83042435Y-71019886D01*
X83048951Y-71029806D01*
X83060953Y-71050100D01*
X83078500Y-71114240D01*
X83078500Y-71538244D01*
X83093519Y-71652324D01*
X83096678Y-71659951D01*
X83096679Y-71659954D01*
X83109760Y-71691534D01*
X83152314Y-71794268D01*
X83245843Y-71916157D01*
X83252393Y-71921183D01*
X83252394Y-71921184D01*
X83279986Y-71942356D01*
X83367733Y-72009686D01*
X83467389Y-72050965D01*
X83498069Y-72063673D01*
X83509676Y-72068481D01*
X83580847Y-72077851D01*
X83619669Y-72082962D01*
X83619670Y-72082962D01*
X83623756Y-72083500D01*
X83850244Y-72083500D01*
X83854330Y-72082962D01*
X83854331Y-72082962D01*
X83964324Y-72068481D01*
X83964527Y-72070026D01*
X84009473Y-72070026D01*
X84009676Y-72068481D01*
X84119669Y-72082962D01*
X84119670Y-72082962D01*
X84123756Y-72083500D01*
X84350244Y-72083500D01*
X84354330Y-72082962D01*
X84354331Y-72082962D01*
X84464324Y-72068481D01*
X84464527Y-72070026D01*
X84509473Y-72070026D01*
X84509676Y-72068481D01*
X84619669Y-72082962D01*
X84619670Y-72082962D01*
X84623756Y-72083500D01*
X84850244Y-72083500D01*
X84854330Y-72082962D01*
X84854331Y-72082962D01*
X84964324Y-72068481D01*
X84964527Y-72070026D01*
X85009473Y-72070026D01*
X85009676Y-72068481D01*
X85119669Y-72082962D01*
X85119670Y-72082962D01*
X85123756Y-72083500D01*
X85350244Y-72083500D01*
X85354330Y-72082962D01*
X85354331Y-72082962D01*
X85461054Y-72068912D01*
X85531203Y-72079852D01*
X85584301Y-72126980D01*
X85603500Y-72193834D01*
X85603500Y-72608231D01*
X85602973Y-72619414D01*
X85601298Y-72626907D01*
X85601547Y-72634833D01*
X85601547Y-72634834D01*
X85603438Y-72694984D01*
X85603500Y-72698943D01*
X85603500Y-72726854D01*
X85603997Y-72730788D01*
X85603997Y-72730789D01*
X85604005Y-72730854D01*
X85604938Y-72742691D01*
X85606327Y-72786887D01*
X85610924Y-72802710D01*
X85611978Y-72806337D01*
X85615987Y-72825698D01*
X85618526Y-72845795D01*
X85621445Y-72853166D01*
X85621445Y-72853168D01*
X85634804Y-72886910D01*
X85638649Y-72898140D01*
X85646848Y-72926362D01*
X85650982Y-72940591D01*
X85655015Y-72947410D01*
X85655017Y-72947415D01*
X85661293Y-72958026D01*
X85669988Y-72975774D01*
X85677448Y-72994615D01*
X85682110Y-73001031D01*
X85682110Y-73001032D01*
X85703436Y-73030385D01*
X85709952Y-73040305D01*
X85732458Y-73078360D01*
X85746779Y-73092681D01*
X85759619Y-73107714D01*
X85771528Y-73124105D01*
X85802379Y-73149627D01*
X85805605Y-73152296D01*
X85814384Y-73160286D01*
X87436677Y-74782580D01*
X87470703Y-74844892D01*
X87465638Y-74915708D01*
X87423091Y-74972543D01*
X87405766Y-74983436D01*
X87352994Y-75010907D01*
X87290476Y-75043452D01*
X87284607Y-75046507D01*
X87280474Y-75049610D01*
X87280471Y-75049612D01*
X87110100Y-75177530D01*
X87105965Y-75180635D01*
X87033794Y-75256158D01*
X87025283Y-75265064D01*
X86963759Y-75300494D01*
X86892846Y-75297037D01*
X86835060Y-75255791D01*
X86816207Y-75222243D01*
X86777182Y-75118146D01*
X86771615Y-75103295D01*
X86684261Y-74986739D01*
X86567705Y-74899385D01*
X86431316Y-74848255D01*
X86369134Y-74841500D01*
X84572866Y-74841500D01*
X84510684Y-74848255D01*
X84374295Y-74899385D01*
X84257739Y-74986739D01*
X84170385Y-75103295D01*
X84119255Y-75239684D01*
X84112500Y-75301866D01*
X84112500Y-77098134D01*
X84119255Y-77160316D01*
X84170385Y-77296705D01*
X84257739Y-77413261D01*
X84374295Y-77500615D01*
X84510684Y-77551745D01*
X84572866Y-77558500D01*
X86369134Y-77558500D01*
X86431316Y-77551745D01*
X86567705Y-77500615D01*
X86684261Y-77413261D01*
X86771615Y-77296705D01*
X86793799Y-77237529D01*
X86815598Y-77179382D01*
X86858240Y-77122618D01*
X86924802Y-77097918D01*
X86994150Y-77113126D01*
X87028817Y-77141114D01*
X87057250Y-77173938D01*
X87229126Y-77316632D01*
X87422000Y-77429338D01*
X87426825Y-77431180D01*
X87426826Y-77431181D01*
X87466597Y-77446368D01*
X87630692Y-77509030D01*
X87635760Y-77510061D01*
X87635763Y-77510062D01*
X87743017Y-77531883D01*
X87849597Y-77553567D01*
X87854772Y-77553757D01*
X87854774Y-77553757D01*
X88067673Y-77561564D01*
X88067677Y-77561564D01*
X88072837Y-77561753D01*
X88077957Y-77561097D01*
X88077959Y-77561097D01*
X88289288Y-77534025D01*
X88289289Y-77534025D01*
X88294416Y-77533368D01*
X88299366Y-77531883D01*
X88503429Y-77470661D01*
X88503434Y-77470659D01*
X88508384Y-77469174D01*
X88708994Y-77370896D01*
X88890860Y-77241173D01*
X89049096Y-77083489D01*
X89067806Y-77057452D01*
X89176435Y-76906277D01*
X89179453Y-76902077D01*
X89194262Y-76872113D01*
X89226223Y-76807446D01*
X89274337Y-76755239D01*
X89343038Y-76737332D01*
X89410515Y-76759411D01*
X89428275Y-76774178D01*
X89796595Y-77142498D01*
X89830621Y-77204810D01*
X89833500Y-77231593D01*
X89833500Y-77520572D01*
X89833837Y-77523818D01*
X89833837Y-77523822D01*
X89835751Y-77542271D01*
X89844022Y-77621982D01*
X89897692Y-77782849D01*
X89986929Y-77927055D01*
X90106947Y-78046864D01*
X90251308Y-78135849D01*
X90258256Y-78138154D01*
X90258257Y-78138154D01*
X90405738Y-78187072D01*
X90405740Y-78187072D01*
X90412269Y-78189238D01*
X90512428Y-78199500D01*
X91046572Y-78199500D01*
X91049818Y-78199163D01*
X91049822Y-78199163D01*
X91089422Y-78195054D01*
X91147982Y-78188978D01*
X91308849Y-78135308D01*
X91453055Y-78046071D01*
X91477887Y-78021195D01*
X91540168Y-77987116D01*
X91610988Y-77992118D01*
X91656078Y-78021040D01*
X91681947Y-78046864D01*
X91826308Y-78135849D01*
X91833256Y-78138154D01*
X91833257Y-78138154D01*
X91980738Y-78187072D01*
X91980740Y-78187072D01*
X91987269Y-78189238D01*
X92087428Y-78199500D01*
X92621572Y-78199500D01*
X92624818Y-78199163D01*
X92624822Y-78199163D01*
X92664422Y-78195054D01*
X92722982Y-78188978D01*
X92883849Y-78135308D01*
X93028055Y-78046071D01*
X93033224Y-78040893D01*
X93033229Y-78040889D01*
X93046894Y-78027200D01*
X93109176Y-77993120D01*
X93179996Y-77998123D01*
X93225082Y-78027041D01*
X93240997Y-78042929D01*
X93389080Y-78134209D01*
X93554191Y-78188974D01*
X93561027Y-78189674D01*
X93561030Y-78189675D01*
X93612526Y-78194951D01*
X93656928Y-78199500D01*
X94256072Y-78199500D01*
X94259318Y-78199163D01*
X94259322Y-78199163D01*
X94353235Y-78189419D01*
X94353239Y-78189418D01*
X94360093Y-78188707D01*
X94366629Y-78186526D01*
X94366631Y-78186526D01*
X94513207Y-78137624D01*
X94525107Y-78133654D01*
X94673031Y-78042116D01*
X94688078Y-78027043D01*
X94779747Y-77935214D01*
X94842030Y-77901135D01*
X94912850Y-77906138D01*
X94957937Y-77935059D01*
X95060812Y-78037754D01*
X95060817Y-78037758D01*
X95065997Y-78042929D01*
X95072227Y-78046769D01*
X95072228Y-78046770D01*
X95123081Y-78078116D01*
X95214080Y-78134209D01*
X95379191Y-78188974D01*
X95386027Y-78189674D01*
X95386030Y-78189675D01*
X95437526Y-78194951D01*
X95481928Y-78199500D01*
X96081072Y-78199500D01*
X96084318Y-78199163D01*
X96084322Y-78199163D01*
X96178235Y-78189419D01*
X96178239Y-78189418D01*
X96185093Y-78188707D01*
X96191629Y-78186526D01*
X96191631Y-78186526D01*
X96338207Y-78137624D01*
X96350107Y-78133654D01*
X96498031Y-78042116D01*
X96513078Y-78027043D01*
X96615758Y-77924184D01*
X96615762Y-77924179D01*
X96620929Y-77919003D01*
X96712209Y-77770920D01*
X96766974Y-77605809D01*
X96772327Y-77553567D01*
X96775707Y-77520572D01*
X96777500Y-77503072D01*
X96777500Y-77146547D01*
X96797502Y-77078426D01*
X96851158Y-77031933D01*
X96903500Y-77020547D01*
X100579223Y-77020547D01*
X100647344Y-77040549D01*
X100668318Y-77057452D01*
X101797141Y-78186275D01*
X101804685Y-78194565D01*
X101808798Y-78201046D01*
X101814575Y-78206471D01*
X101858465Y-78247686D01*
X101861307Y-78250441D01*
X101881029Y-78270163D01*
X101884153Y-78272586D01*
X101884157Y-78272590D01*
X101884222Y-78272640D01*
X101893243Y-78280345D01*
X101925477Y-78310614D01*
X101932425Y-78314433D01*
X101932427Y-78314435D01*
X101943230Y-78320374D01*
X101959757Y-78331230D01*
X101969496Y-78338785D01*
X101969498Y-78338786D01*
X101975758Y-78343642D01*
X102016338Y-78361202D01*
X102026986Y-78366419D01*
X102065738Y-78387723D01*
X102073414Y-78389694D01*
X102073417Y-78389695D01*
X102085360Y-78392761D01*
X102104065Y-78399165D01*
X102122653Y-78407209D01*
X102130476Y-78408448D01*
X102130486Y-78408451D01*
X102166322Y-78414127D01*
X102177942Y-78416533D01*
X102203412Y-78423072D01*
X102220768Y-78427528D01*
X102241022Y-78427528D01*
X102260733Y-78429079D01*
X102272912Y-78431008D01*
X102280741Y-78432248D01*
X102288633Y-78431502D01*
X102300061Y-78430422D01*
X102324760Y-78428087D01*
X102336617Y-78427528D01*
X103608941Y-78427529D01*
X109990025Y-78427529D01*
X110058146Y-78447531D01*
X110079120Y-78464434D01*
X111127933Y-79513247D01*
X111135477Y-79521537D01*
X111139590Y-79528018D01*
X111145367Y-79533443D01*
X111189257Y-79574658D01*
X111192099Y-79577413D01*
X111211820Y-79597134D01*
X111215015Y-79599612D01*
X111224037Y-79607318D01*
X111256269Y-79637586D01*
X111263218Y-79641406D01*
X111274022Y-79647346D01*
X111290546Y-79658199D01*
X111306549Y-79670613D01*
X111347133Y-79688176D01*
X111357763Y-79693383D01*
X111396530Y-79714695D01*
X111404207Y-79716666D01*
X111404212Y-79716668D01*
X111416148Y-79719732D01*
X111434856Y-79726137D01*
X111453445Y-79734181D01*
X111461270Y-79735420D01*
X111461272Y-79735421D01*
X111497109Y-79741097D01*
X111508730Y-79743504D01*
X111540549Y-79751673D01*
X111551560Y-79754500D01*
X111571821Y-79754500D01*
X111591530Y-79756051D01*
X111611533Y-79759219D01*
X111619425Y-79758473D01*
X111624652Y-79757979D01*
X111655544Y-79755059D01*
X111667401Y-79754500D01*
X124255643Y-79754500D01*
X124266826Y-79755027D01*
X124274319Y-79756702D01*
X124282245Y-79756453D01*
X124282246Y-79756453D01*
X124342396Y-79754562D01*
X124346355Y-79754500D01*
X124374266Y-79754500D01*
X124378201Y-79754003D01*
X124378266Y-79753995D01*
X124390103Y-79753062D01*
X124422361Y-79752048D01*
X124426380Y-79751922D01*
X124434299Y-79751673D01*
X124453753Y-79746021D01*
X124473110Y-79742013D01*
X124485340Y-79740468D01*
X124485341Y-79740468D01*
X124493207Y-79739474D01*
X124500578Y-79736555D01*
X124500580Y-79736555D01*
X124534322Y-79723196D01*
X124545552Y-79719351D01*
X124580393Y-79709229D01*
X124580394Y-79709229D01*
X124588003Y-79707018D01*
X124594822Y-79702985D01*
X124594827Y-79702983D01*
X124605438Y-79696707D01*
X124623186Y-79688012D01*
X124642027Y-79680552D01*
X124662397Y-79665753D01*
X124677797Y-79654564D01*
X124687717Y-79648048D01*
X124718945Y-79629580D01*
X124718948Y-79629578D01*
X124725772Y-79625542D01*
X124740093Y-79611221D01*
X124755127Y-79598380D01*
X124756842Y-79597134D01*
X124771517Y-79586472D01*
X124776567Y-79580368D01*
X124776572Y-79580363D01*
X124799703Y-79552402D01*
X124807693Y-79543621D01*
X125575911Y-78775404D01*
X125638223Y-78741379D01*
X125665006Y-78738500D01*
X134795233Y-78738500D01*
X134806416Y-78739027D01*
X134813909Y-78740702D01*
X134821835Y-78740453D01*
X134821836Y-78740453D01*
X134881986Y-78738562D01*
X134885945Y-78738500D01*
X134913856Y-78738500D01*
X134917791Y-78738003D01*
X134917856Y-78737995D01*
X134929693Y-78737062D01*
X134961951Y-78736048D01*
X134965970Y-78735922D01*
X134973889Y-78735673D01*
X134993343Y-78730021D01*
X135012700Y-78726013D01*
X135014348Y-78725805D01*
X135032797Y-78723474D01*
X135040171Y-78720555D01*
X135047846Y-78718584D01*
X135048325Y-78720451D01*
X135079498Y-78714500D01*
X135907400Y-78714500D01*
X135910646Y-78714163D01*
X135910650Y-78714163D01*
X136006308Y-78704238D01*
X136006312Y-78704237D01*
X136013166Y-78703526D01*
X136019702Y-78701345D01*
X136019704Y-78701345D01*
X136173998Y-78649868D01*
X136180946Y-78647550D01*
X136331348Y-78554478D01*
X136456305Y-78429303D01*
X136471865Y-78404061D01*
X136496830Y-78363559D01*
X136549115Y-78278738D01*
X136551420Y-78271789D01*
X136552228Y-78270056D01*
X136599145Y-78216771D01*
X136667423Y-78197310D01*
X136706090Y-78203713D01*
X136734317Y-78213075D01*
X136770191Y-78224974D01*
X136777027Y-78225674D01*
X136777030Y-78225675D01*
X136828526Y-78230951D01*
X136872928Y-78235500D01*
X137447072Y-78235500D01*
X137450318Y-78235163D01*
X137450322Y-78235163D01*
X137544235Y-78225419D01*
X137544239Y-78225418D01*
X137551093Y-78224707D01*
X137557629Y-78222526D01*
X137557631Y-78222526D01*
X137709159Y-78171972D01*
X137716107Y-78169654D01*
X137864031Y-78078116D01*
X137892178Y-78049920D01*
X137981758Y-77960184D01*
X137981762Y-77960179D01*
X137986929Y-77955003D01*
X138001095Y-77932022D01*
X138074369Y-77813150D01*
X138074370Y-77813148D01*
X138078209Y-77806920D01*
X138132974Y-77641809D01*
X138134336Y-77628522D01*
X138141176Y-77561753D01*
X138143500Y-77539072D01*
X138143500Y-76939928D01*
X138143163Y-76936678D01*
X138133419Y-76842765D01*
X138133418Y-76842761D01*
X138132707Y-76835907D01*
X138119504Y-76796331D01*
X138079972Y-76677841D01*
X138077654Y-76670893D01*
X137986116Y-76522969D01*
X137878859Y-76415899D01*
X137844780Y-76353618D01*
X137849783Y-76282798D01*
X137878704Y-76237709D01*
X137981363Y-76134871D01*
X137990375Y-76123460D01*
X138073912Y-75987937D01*
X138080056Y-75974759D01*
X138130315Y-75823234D01*
X138133181Y-75809868D01*
X138142672Y-75717230D01*
X138143000Y-75710815D01*
X138143000Y-75686615D01*
X138138525Y-75671376D01*
X138137135Y-75670171D01*
X138129452Y-75668500D01*
X136673115Y-75668500D01*
X136657876Y-75672975D01*
X136656671Y-75674365D01*
X136652121Y-75695283D01*
X136648263Y-75694444D01*
X136634998Y-75739621D01*
X136581342Y-75786114D01*
X136529000Y-75797500D01*
X135254000Y-75797500D01*
X135185879Y-75777498D01*
X135139386Y-75723842D01*
X135128000Y-75671500D01*
X135128000Y-74466116D01*
X135123525Y-74450877D01*
X135122135Y-74449672D01*
X135114452Y-74448001D01*
X134905082Y-74448001D01*
X134836961Y-74427999D01*
X134790468Y-74374343D01*
X134780364Y-74304069D01*
X134809858Y-74239489D01*
X134866146Y-74202168D01*
X134910909Y-74187624D01*
X134910912Y-74187623D01*
X134917608Y-74185447D01*
X135026744Y-74120389D01*
X135067360Y-74096177D01*
X135067362Y-74096176D01*
X135073412Y-74092569D01*
X135204766Y-73967482D01*
X135305143Y-73816402D01*
X135351261Y-73694998D01*
X135367055Y-73653420D01*
X135367056Y-73653418D01*
X135369555Y-73646838D01*
X135371171Y-73635340D01*
X135381554Y-73561463D01*
X135410843Y-73496789D01*
X135470447Y-73458216D01*
X135506328Y-73452999D01*
X136095500Y-73452999D01*
X136163621Y-73473001D01*
X136210114Y-73526657D01*
X136221500Y-73578999D01*
X136221500Y-74138134D01*
X136228255Y-74200316D01*
X136276820Y-74329861D01*
X136277093Y-74330590D01*
X136282276Y-74401397D01*
X136248355Y-74463766D01*
X136186100Y-74497896D01*
X136119444Y-74494413D01*
X136018293Y-74460863D01*
X136004914Y-74457995D01*
X135910562Y-74448328D01*
X135904145Y-74448000D01*
X135654115Y-74448000D01*
X135638876Y-74452475D01*
X135637671Y-74453865D01*
X135636000Y-74461548D01*
X135636000Y-75271385D01*
X135640475Y-75286624D01*
X135641865Y-75287829D01*
X135649548Y-75289500D01*
X136118885Y-75289500D01*
X136134124Y-75285025D01*
X136135329Y-75283635D01*
X136139879Y-75262717D01*
X136143737Y-75263556D01*
X136157002Y-75218379D01*
X136210658Y-75171886D01*
X136263000Y-75160500D01*
X138124885Y-75160500D01*
X138140124Y-75156025D01*
X138141329Y-75154635D01*
X138143000Y-75146952D01*
X138143000Y-75118234D01*
X138142663Y-75111718D01*
X138132925Y-75017868D01*
X138130032Y-75004472D01*
X138079512Y-74853047D01*
X138073347Y-74839885D01*
X138042974Y-74790802D01*
X138024137Y-74722350D01*
X138045299Y-74654580D01*
X138099740Y-74609010D01*
X138150119Y-74598500D01*
X140178134Y-74598500D01*
X140240316Y-74591745D01*
X140376705Y-74540615D01*
X140493261Y-74453261D01*
X140580615Y-74336705D01*
X140631745Y-74200316D01*
X140638500Y-74138134D01*
X140638500Y-70641866D01*
X140631745Y-70579684D01*
X140580615Y-70443295D01*
X140493261Y-70326739D01*
X140376705Y-70239385D01*
X140240316Y-70188255D01*
X140178134Y-70181500D01*
X138212425Y-70181500D01*
X138144304Y-70161498D01*
X138097811Y-70107842D01*
X138087707Y-70037568D01*
X138092832Y-70015833D01*
X138123945Y-69922030D01*
X138132974Y-69894809D01*
X138133933Y-69885456D01*
X138140541Y-69820956D01*
X138143500Y-69792072D01*
X138143500Y-69192928D01*
X138141640Y-69175000D01*
X138133419Y-69095765D01*
X138133418Y-69095761D01*
X138132707Y-69088907D01*
X138118839Y-69047338D01*
X138079972Y-68930841D01*
X138077654Y-68923893D01*
X137986116Y-68775969D01*
X137878859Y-68668899D01*
X137844780Y-68606618D01*
X137849783Y-68535798D01*
X137878704Y-68490709D01*
X137981363Y-68387871D01*
X137990375Y-68376460D01*
X138073912Y-68240937D01*
X138080056Y-68227759D01*
X138130315Y-68076234D01*
X138133181Y-68062868D01*
X138142672Y-67970230D01*
X138143000Y-67963815D01*
X138143000Y-67939615D01*
X138138525Y-67924376D01*
X138137135Y-67923171D01*
X138129452Y-67921500D01*
X137032000Y-67921500D01*
X136963879Y-67901498D01*
X136917386Y-67847842D01*
X136906000Y-67795500D01*
X136906000Y-67395385D01*
X137414000Y-67395385D01*
X137418475Y-67410624D01*
X137419865Y-67411829D01*
X137427548Y-67413500D01*
X138124885Y-67413500D01*
X138140124Y-67409025D01*
X138141329Y-67407635D01*
X138143000Y-67399952D01*
X138143000Y-67371234D01*
X138142663Y-67364718D01*
X138132925Y-67270868D01*
X138130032Y-67257472D01*
X138079512Y-67106047D01*
X138073347Y-67092885D01*
X137989574Y-66957508D01*
X137980540Y-66946110D01*
X137867871Y-66833637D01*
X137856460Y-66824625D01*
X137720937Y-66741088D01*
X137707759Y-66734944D01*
X137556234Y-66684685D01*
X137542868Y-66681819D01*
X137450230Y-66672328D01*
X137443815Y-66672000D01*
X137432115Y-66672000D01*
X137416876Y-66676475D01*
X137415671Y-66677865D01*
X137414000Y-66685548D01*
X137414000Y-67395385D01*
X136906000Y-67395385D01*
X136906000Y-66690115D01*
X136901525Y-66674876D01*
X136900135Y-66673671D01*
X136892452Y-66672000D01*
X136876234Y-66672000D01*
X136869718Y-66672337D01*
X136775868Y-66682075D01*
X136762466Y-66684970D01*
X136706034Y-66703797D01*
X136635084Y-66706382D01*
X136574000Y-66670199D01*
X136552056Y-66637724D01*
X136544242Y-66621043D01*
X136458937Y-66483193D01*
X136449901Y-66471792D01*
X136335979Y-66358068D01*
X136324302Y-66336727D01*
X136307665Y-66335528D01*
X136285648Y-66324757D01*
X136185757Y-66263184D01*
X136172576Y-66257037D01*
X136018290Y-66205862D01*
X136004914Y-66202995D01*
X135910562Y-66193328D01*
X135904145Y-66193000D01*
X135654115Y-66193000D01*
X135638876Y-66197475D01*
X135637671Y-66198865D01*
X135636000Y-66206548D01*
X135636000Y-67416500D01*
X135615998Y-67484621D01*
X135562342Y-67531114D01*
X135510000Y-67542500D01*
X135254000Y-67542500D01*
X135185879Y-67522498D01*
X135139386Y-67468842D01*
X135128000Y-67416500D01*
X135128000Y-66211116D01*
X135123525Y-66195877D01*
X135122135Y-66194672D01*
X135114452Y-66193001D01*
X134867569Y-66193001D01*
X134799448Y-66172999D01*
X134752955Y-66119343D01*
X134742851Y-66049069D01*
X134772345Y-65984489D01*
X134803052Y-65958772D01*
X134851860Y-65929677D01*
X134851862Y-65929676D01*
X134857912Y-65926069D01*
X134989266Y-65800982D01*
X135089643Y-65649902D01*
X135154055Y-65480338D01*
X135178491Y-65306463D01*
X135207779Y-65241789D01*
X135267383Y-65203216D01*
X135303265Y-65197999D01*
X136095500Y-65197999D01*
X136163621Y-65218001D01*
X136210114Y-65271657D01*
X136221500Y-65323999D01*
X136221500Y-65756134D01*
X136228255Y-65818316D01*
X136279385Y-65954705D01*
X136366739Y-66071261D01*
X136373919Y-66076642D01*
X136373920Y-66076643D01*
X136427329Y-66116671D01*
X136453264Y-66151357D01*
X136481939Y-66157599D01*
X136483295Y-66158615D01*
X136619684Y-66209745D01*
X136681866Y-66216500D01*
X140178134Y-66216500D01*
X140240316Y-66209745D01*
X140376705Y-66158615D01*
X140493261Y-66071261D01*
X140580615Y-65954705D01*
X140631745Y-65818316D01*
X140638500Y-65756134D01*
X140638500Y-62259866D01*
X140631745Y-62197684D01*
X140580615Y-62061295D01*
X140493261Y-61944739D01*
X140376705Y-61857385D01*
X140240316Y-61806255D01*
X140178134Y-61799500D01*
X138212425Y-61799500D01*
X138144304Y-61779498D01*
X138097811Y-61725842D01*
X138087707Y-61655568D01*
X138092832Y-61633833D01*
X138104159Y-61599682D01*
X138132974Y-61512809D01*
X138143500Y-61410072D01*
X138143500Y-60810928D01*
X138143067Y-60806751D01*
X138133419Y-60713765D01*
X138133418Y-60713761D01*
X138132707Y-60706907D01*
X138117156Y-60660293D01*
X138079972Y-60548841D01*
X138077654Y-60541893D01*
X137986116Y-60393969D01*
X137878859Y-60286899D01*
X137844780Y-60224618D01*
X137849783Y-60153798D01*
X137878704Y-60108709D01*
X137981363Y-60005871D01*
X137990375Y-59994460D01*
X138073912Y-59858937D01*
X138080056Y-59845759D01*
X138130315Y-59694234D01*
X138133181Y-59680868D01*
X138142672Y-59588230D01*
X138143000Y-59581815D01*
X138143000Y-59557615D01*
X138138525Y-59542376D01*
X138137135Y-59541171D01*
X138129452Y-59539500D01*
X137032000Y-59539500D01*
X136963879Y-59519498D01*
X136917386Y-59465842D01*
X136906000Y-59413500D01*
X136906000Y-59013385D01*
X137414000Y-59013385D01*
X137418475Y-59028624D01*
X137419865Y-59029829D01*
X137427548Y-59031500D01*
X138124885Y-59031500D01*
X138140124Y-59027025D01*
X138141329Y-59025635D01*
X138143000Y-59017952D01*
X138143000Y-58989234D01*
X138142663Y-58982718D01*
X138132925Y-58888868D01*
X138130032Y-58875472D01*
X138079512Y-58724047D01*
X138073347Y-58710885D01*
X137989574Y-58575508D01*
X137980540Y-58564110D01*
X137867871Y-58451637D01*
X137856460Y-58442625D01*
X137720937Y-58359088D01*
X137707759Y-58352944D01*
X137556234Y-58302685D01*
X137542868Y-58299819D01*
X137450230Y-58290328D01*
X137443815Y-58290000D01*
X137432115Y-58290000D01*
X137416876Y-58294475D01*
X137415671Y-58295865D01*
X137414000Y-58303548D01*
X137414000Y-59013385D01*
X136906000Y-59013385D01*
X136906000Y-58308115D01*
X136901525Y-58292876D01*
X136900135Y-58291671D01*
X136892452Y-58290000D01*
X136876234Y-58290000D01*
X136869718Y-58290337D01*
X136775868Y-58300075D01*
X136762466Y-58302970D01*
X136706034Y-58321797D01*
X136635084Y-58324382D01*
X136574000Y-58288199D01*
X136552056Y-58255724D01*
X136544242Y-58239043D01*
X136458937Y-58101193D01*
X136449901Y-58089792D01*
X136335171Y-57975261D01*
X136323760Y-57966249D01*
X136185757Y-57881184D01*
X136172576Y-57875037D01*
X136018290Y-57823862D01*
X136004914Y-57820995D01*
X135910562Y-57811328D01*
X135904145Y-57811000D01*
X135654115Y-57811000D01*
X135638876Y-57815475D01*
X135637671Y-57816865D01*
X135636000Y-57824548D01*
X135636000Y-59034500D01*
X135615998Y-59102621D01*
X135562342Y-59149114D01*
X135510000Y-59160500D01*
X135254000Y-59160500D01*
X135185879Y-59140498D01*
X135139386Y-59086842D01*
X135128000Y-59034500D01*
X135128000Y-57829116D01*
X135123525Y-57813877D01*
X135122135Y-57812672D01*
X135114452Y-57811001D01*
X134859905Y-57811001D01*
X134853386Y-57811338D01*
X134757794Y-57821257D01*
X134744400Y-57824149D01*
X134590216Y-57875588D01*
X134577038Y-57881761D01*
X134439193Y-57967063D01*
X134427792Y-57976099D01*
X134313261Y-58090829D01*
X134304249Y-58102240D01*
X134219182Y-58240245D01*
X134212254Y-58255103D01*
X134165338Y-58308388D01*
X134097061Y-58327850D01*
X134058392Y-58321447D01*
X134035378Y-58313814D01*
X133993809Y-58300026D01*
X133986973Y-58299326D01*
X133986970Y-58299325D01*
X133935474Y-58294049D01*
X133891072Y-58289500D01*
X133316928Y-58289500D01*
X133313682Y-58289837D01*
X133313678Y-58289837D01*
X133268980Y-58294475D01*
X133212907Y-58300293D01*
X133206358Y-58302478D01*
X133206108Y-58302532D01*
X133135299Y-58297363D01*
X133090410Y-58268467D01*
X132854405Y-58032462D01*
X132820379Y-57970150D01*
X132817500Y-57943367D01*
X132817500Y-57307937D01*
X132837502Y-57239816D01*
X132891158Y-57193323D01*
X132961432Y-57183219D01*
X133012493Y-57202505D01*
X133060409Y-57233860D01*
X133071659Y-57241222D01*
X133078263Y-57243678D01*
X133078265Y-57243679D01*
X133235058Y-57301990D01*
X133235060Y-57301990D01*
X133241668Y-57304448D01*
X133325495Y-57315633D01*
X133414480Y-57327507D01*
X133414484Y-57327507D01*
X133421461Y-57328438D01*
X133428472Y-57327800D01*
X133428476Y-57327800D01*
X133570959Y-57314832D01*
X133602100Y-57311998D01*
X133608802Y-57309820D01*
X133608804Y-57309820D01*
X133767909Y-57258124D01*
X133767912Y-57258123D01*
X133774608Y-57255947D01*
X133780659Y-57252340D01*
X133787074Y-57249430D01*
X133788305Y-57252143D01*
X133844171Y-57237748D01*
X133883880Y-57245581D01*
X134035558Y-57301990D01*
X134035560Y-57301990D01*
X134042168Y-57304448D01*
X134125995Y-57315633D01*
X134214980Y-57327507D01*
X134214984Y-57327507D01*
X134221961Y-57328438D01*
X134228972Y-57327800D01*
X134228976Y-57327800D01*
X134371459Y-57314832D01*
X134402600Y-57311998D01*
X134409302Y-57309820D01*
X134409304Y-57309820D01*
X134568409Y-57258124D01*
X134568412Y-57258123D01*
X134575108Y-57255947D01*
X134704164Y-57179014D01*
X134724860Y-57166677D01*
X134724862Y-57166676D01*
X134730912Y-57163069D01*
X134862266Y-57037982D01*
X134962643Y-56886902D01*
X135006338Y-56771876D01*
X135024555Y-56723920D01*
X135024556Y-56723918D01*
X135027055Y-56717338D01*
X135051491Y-56543463D01*
X135080779Y-56478789D01*
X135140383Y-56440216D01*
X135176265Y-56434999D01*
X136095500Y-56434999D01*
X136163621Y-56455001D01*
X136210114Y-56508657D01*
X136221500Y-56560999D01*
X136221500Y-57120134D01*
X136228255Y-57182316D01*
X136279385Y-57318705D01*
X136366739Y-57435261D01*
X136483295Y-57522615D01*
X136619684Y-57573745D01*
X136681866Y-57580500D01*
X140178134Y-57580500D01*
X140240316Y-57573745D01*
X140376705Y-57522615D01*
X140493261Y-57435261D01*
X140580615Y-57318705D01*
X140631745Y-57182316D01*
X140638500Y-57120134D01*
X140638500Y-53623866D01*
X140631745Y-53561684D01*
X140580615Y-53425295D01*
X140493261Y-53308739D01*
X140376705Y-53221385D01*
X140240316Y-53170255D01*
X140178134Y-53163500D01*
X136681866Y-53163500D01*
X136619684Y-53170255D01*
X136483295Y-53221385D01*
X136366739Y-53308739D01*
X136279385Y-53425295D01*
X136228255Y-53561684D01*
X136221500Y-53623866D01*
X136221500Y-53767999D01*
X136201498Y-53836120D01*
X136147842Y-53882613D01*
X136095500Y-53893999D01*
X132943500Y-53893999D01*
X132875379Y-53873997D01*
X132828886Y-53820341D01*
X132817500Y-53767999D01*
X132817500Y-52585866D01*
X132810745Y-52523684D01*
X132759615Y-52387295D01*
X132672261Y-52270739D01*
X132555705Y-52183385D01*
X132419316Y-52132255D01*
X132357134Y-52125500D01*
X125260866Y-52125500D01*
X125198684Y-52132255D01*
X125062295Y-52183385D01*
X124945739Y-52270739D01*
X124858385Y-52387295D01*
X124807255Y-52523684D01*
X124800500Y-52585866D01*
X124800500Y-52640809D01*
X124780498Y-52708930D01*
X124726842Y-52755423D01*
X124656568Y-52765527D01*
X124591988Y-52736033D01*
X124570109Y-52708961D01*
X124569542Y-52709373D01*
X124543554Y-52673603D01*
X124537038Y-52663683D01*
X124518570Y-52632455D01*
X124518568Y-52632452D01*
X124514532Y-52625628D01*
X124500211Y-52611307D01*
X124487370Y-52596273D01*
X124486543Y-52595134D01*
X124475462Y-52579883D01*
X124441397Y-52551702D01*
X124432616Y-52543712D01*
X123820647Y-51931742D01*
X123813113Y-51923463D01*
X123809000Y-51916982D01*
X123759348Y-51870356D01*
X123756507Y-51867602D01*
X123736770Y-51847865D01*
X123733573Y-51845385D01*
X123724551Y-51837680D01*
X123711122Y-51825069D01*
X123692321Y-51807414D01*
X123685375Y-51803595D01*
X123685372Y-51803593D01*
X123674566Y-51797652D01*
X123658047Y-51786801D01*
X123657583Y-51786441D01*
X123642041Y-51774386D01*
X123634772Y-51771241D01*
X123634768Y-51771238D01*
X123601463Y-51756826D01*
X123590813Y-51751609D01*
X123552060Y-51730305D01*
X123532437Y-51725267D01*
X123513734Y-51718863D01*
X123502420Y-51713967D01*
X123502419Y-51713967D01*
X123495145Y-51710819D01*
X123487322Y-51709580D01*
X123487312Y-51709577D01*
X123451476Y-51703901D01*
X123439856Y-51701495D01*
X123404711Y-51692472D01*
X123404710Y-51692472D01*
X123397030Y-51690500D01*
X123376776Y-51690500D01*
X123357065Y-51688949D01*
X123344886Y-51687020D01*
X123337057Y-51685780D01*
X123307786Y-51688547D01*
X123293039Y-51689941D01*
X123281181Y-51690500D01*
X119181268Y-51690500D01*
X119170085Y-51689973D01*
X119162592Y-51688298D01*
X119154666Y-51688547D01*
X119154665Y-51688547D01*
X119094502Y-51690438D01*
X119090544Y-51690500D01*
X119062644Y-51690500D01*
X119058654Y-51691004D01*
X119046820Y-51691936D01*
X119002611Y-51693326D01*
X118994997Y-51695538D01*
X118994992Y-51695539D01*
X118983159Y-51698977D01*
X118963796Y-51702988D01*
X118943703Y-51705526D01*
X118936336Y-51708443D01*
X118936331Y-51708444D01*
X118902592Y-51721802D01*
X118891365Y-51725646D01*
X118848907Y-51737982D01*
X118842081Y-51742019D01*
X118831472Y-51748293D01*
X118813724Y-51756988D01*
X118794883Y-51764448D01*
X118788467Y-51769110D01*
X118788466Y-51769110D01*
X118759113Y-51790436D01*
X118749193Y-51796952D01*
X118717965Y-51815420D01*
X118717962Y-51815422D01*
X118711138Y-51819458D01*
X118696817Y-51833779D01*
X118681784Y-51846619D01*
X118665393Y-51858528D01*
X118660340Y-51864636D01*
X118637208Y-51892598D01*
X118629218Y-51901378D01*
X118501001Y-52029595D01*
X118438689Y-52063621D01*
X118411906Y-52066500D01*
X118076928Y-52066500D01*
X118073682Y-52066837D01*
X118073678Y-52066837D01*
X117979765Y-52076581D01*
X117979761Y-52076582D01*
X117972907Y-52077293D01*
X117966371Y-52079474D01*
X117966369Y-52079474D01*
X117833605Y-52123768D01*
X117807893Y-52132346D01*
X117659969Y-52223884D01*
X117654796Y-52229066D01*
X117542242Y-52341816D01*
X117542238Y-52341821D01*
X117537071Y-52346997D01*
X117533231Y-52353227D01*
X117533230Y-52353228D01*
X117450918Y-52486763D01*
X117445791Y-52495080D01*
X117391026Y-52660191D01*
X117380500Y-52762928D01*
X117380500Y-53362072D01*
X117380837Y-53365318D01*
X117380837Y-53365322D01*
X117387240Y-53427029D01*
X117391293Y-53466093D01*
X117393474Y-53472629D01*
X117393474Y-53472631D01*
X117416178Y-53540683D01*
X117446346Y-53631107D01*
X117537884Y-53779031D01*
X117543066Y-53784204D01*
X117644786Y-53885747D01*
X117678865Y-53948030D01*
X117673862Y-54018850D01*
X117644941Y-54063937D01*
X117542246Y-54166812D01*
X117542242Y-54166817D01*
X117537071Y-54171997D01*
X117533231Y-54178227D01*
X117533230Y-54178228D01*
X117477052Y-54269366D01*
X117445791Y-54320080D01*
X117391026Y-54485191D01*
X117390326Y-54492027D01*
X117390325Y-54492030D01*
X117389817Y-54496988D01*
X117380500Y-54587928D01*
X117380500Y-55187072D01*
X117380837Y-55190318D01*
X117380837Y-55190322D01*
X117389151Y-55270445D01*
X117391293Y-55291093D01*
X117393474Y-55297629D01*
X117393474Y-55297631D01*
X117410838Y-55349677D01*
X117413422Y-55420627D01*
X117380409Y-55478648D01*
X117364462Y-55494595D01*
X117302150Y-55528621D01*
X117275367Y-55531500D01*
X116857928Y-55531500D01*
X116854682Y-55531837D01*
X116854678Y-55531837D01*
X116760765Y-55541581D01*
X116760761Y-55541582D01*
X116753907Y-55542293D01*
X116747371Y-55544474D01*
X116747369Y-55544474D01*
X116726268Y-55551514D01*
X116588893Y-55597346D01*
X116440969Y-55688884D01*
X116333899Y-55796141D01*
X116271618Y-55830220D01*
X116200798Y-55825217D01*
X116155709Y-55796296D01*
X116052871Y-55693637D01*
X116041460Y-55684625D01*
X115905937Y-55601088D01*
X115892759Y-55594944D01*
X115741234Y-55544685D01*
X115727868Y-55541819D01*
X115635230Y-55532328D01*
X115628815Y-55532000D01*
X115604615Y-55532000D01*
X115589376Y-55536475D01*
X115588171Y-55537865D01*
X115586500Y-55545548D01*
X115586500Y-57479885D01*
X115590975Y-57495124D01*
X115592365Y-57496329D01*
X115600048Y-57498000D01*
X115628766Y-57498000D01*
X115635282Y-57497663D01*
X115729132Y-57487925D01*
X115742528Y-57485032D01*
X115893953Y-57434512D01*
X115907115Y-57428347D01*
X116042492Y-57344574D01*
X116053890Y-57335540D01*
X116155393Y-57233860D01*
X116217676Y-57199781D01*
X116288496Y-57204784D01*
X116333583Y-57233704D01*
X116441997Y-57341929D01*
X116448227Y-57345769D01*
X116448228Y-57345770D01*
X116582376Y-57428460D01*
X116590080Y-57433209D01*
X116755191Y-57487974D01*
X116762027Y-57488674D01*
X116762030Y-57488675D01*
X116809370Y-57493525D01*
X116857928Y-57498500D01*
X117457072Y-57498500D01*
X117460318Y-57498163D01*
X117460322Y-57498163D01*
X117554235Y-57488419D01*
X117554239Y-57488418D01*
X117561093Y-57487707D01*
X117567629Y-57485526D01*
X117567631Y-57485526D01*
X117658693Y-57455145D01*
X117726107Y-57432654D01*
X117790442Y-57392843D01*
X117817799Y-57380159D01*
X117851595Y-57369178D01*
X117857906Y-57367309D01*
X117916143Y-57351704D01*
X117916144Y-57351703D01*
X117922524Y-57349994D01*
X117934616Y-57343833D01*
X117952875Y-57336270D01*
X117965785Y-57332075D01*
X118023724Y-57298624D01*
X118029520Y-57295477D01*
X118089125Y-57265107D01*
X118099670Y-57256568D01*
X118115955Y-57245375D01*
X118122002Y-57241884D01*
X118122005Y-57241881D01*
X118127715Y-57238585D01*
X118132615Y-57234173D01*
X118132619Y-57234170D01*
X118167785Y-57202505D01*
X118177432Y-57193819D01*
X118182446Y-57189537D01*
X118195441Y-57179014D01*
X118198006Y-57176937D01*
X118212153Y-57162790D01*
X118216937Y-57158249D01*
X118261766Y-57117885D01*
X118261767Y-57117883D01*
X118266669Y-57113470D01*
X118274652Y-57102482D01*
X118287489Y-57087454D01*
X119190454Y-56184489D01*
X119205482Y-56171652D01*
X119216470Y-56163669D01*
X119230181Y-56148442D01*
X119261249Y-56113937D01*
X119265790Y-56109153D01*
X119279937Y-56095006D01*
X119292537Y-56079446D01*
X119296825Y-56074425D01*
X119337170Y-56029619D01*
X119337173Y-56029615D01*
X119341585Y-56024715D01*
X119344881Y-56019005D01*
X119344884Y-56019002D01*
X119348375Y-56012955D01*
X119359568Y-55996670D01*
X119363950Y-55991258D01*
X119368107Y-55986125D01*
X119398477Y-55926520D01*
X119401624Y-55920724D01*
X119404943Y-55914975D01*
X119435075Y-55862785D01*
X119437116Y-55856503D01*
X119439233Y-55851749D01*
X119485214Y-55797654D01*
X119554339Y-55777000D01*
X120148575Y-55777000D01*
X120168286Y-55778551D01*
X120175173Y-55779642D01*
X120175175Y-55779642D01*
X120181690Y-55780674D01*
X120188278Y-55780329D01*
X120188282Y-55780329D01*
X120248499Y-55777173D01*
X120255093Y-55777000D01*
X120275120Y-55777000D01*
X120278391Y-55776656D01*
X120278395Y-55776656D01*
X120295039Y-55774907D01*
X120301613Y-55774390D01*
X120361816Y-55771235D01*
X120361818Y-55771235D01*
X120368415Y-55770889D01*
X120381528Y-55767375D01*
X120400970Y-55763772D01*
X120402212Y-55763642D01*
X120407885Y-55763046D01*
X120407889Y-55763045D01*
X120414456Y-55762355D01*
X120478081Y-55741682D01*
X120484406Y-55739809D01*
X120491859Y-55737812D01*
X120549024Y-55722494D01*
X120561116Y-55716333D01*
X120579375Y-55708770D01*
X120592285Y-55704575D01*
X120650224Y-55671124D01*
X120656020Y-55667977D01*
X120715625Y-55637607D01*
X120726170Y-55629068D01*
X120742455Y-55617875D01*
X120748502Y-55614384D01*
X120748505Y-55614381D01*
X120754215Y-55611085D01*
X120759115Y-55606673D01*
X120759119Y-55606670D01*
X120803925Y-55566325D01*
X120808946Y-55562037D01*
X120821941Y-55551514D01*
X120824506Y-55549437D01*
X120838653Y-55535290D01*
X120843437Y-55530749D01*
X120888266Y-55490385D01*
X120888267Y-55490383D01*
X120893169Y-55485970D01*
X120901152Y-55474982D01*
X120913989Y-55459954D01*
X120994538Y-55379405D01*
X121056850Y-55345379D01*
X121083633Y-55342500D01*
X123207134Y-55342500D01*
X123236883Y-55339268D01*
X123306763Y-55351795D01*
X123358780Y-55400115D01*
X123376490Y-55464531D01*
X123376490Y-56783973D01*
X123356488Y-56852094D01*
X123302832Y-56898587D01*
X123236884Y-56909236D01*
X123210491Y-56906369D01*
X123203672Y-56906000D01*
X121681115Y-56906000D01*
X121665876Y-56910475D01*
X121664671Y-56911865D01*
X121663000Y-56919548D01*
X121663000Y-59903884D01*
X121667475Y-59919123D01*
X121668865Y-59920328D01*
X121676548Y-59921999D01*
X123203669Y-59921999D01*
X123210493Y-59921629D01*
X123236886Y-59918763D01*
X123306768Y-59931293D01*
X123358782Y-59979615D01*
X123376490Y-60044026D01*
X123376490Y-60962500D01*
X123356488Y-61030621D01*
X123302832Y-61077114D01*
X123250490Y-61088500D01*
X121337633Y-61088500D01*
X121269512Y-61068498D01*
X121248538Y-61051595D01*
X120334038Y-60137095D01*
X120300012Y-60074783D01*
X120305077Y-60003968D01*
X120347624Y-59947132D01*
X120414144Y-59922321D01*
X120423133Y-59922000D01*
X121136885Y-59922000D01*
X121152124Y-59917525D01*
X121153329Y-59916135D01*
X121155000Y-59908452D01*
X121155000Y-58686115D01*
X121150525Y-58670876D01*
X121149135Y-58669671D01*
X121141452Y-58668000D01*
X119169116Y-58668000D01*
X119153877Y-58672475D01*
X119152672Y-58673865D01*
X119151001Y-58681548D01*
X119151001Y-59309500D01*
X119130999Y-59377621D01*
X119077343Y-59424114D01*
X119025001Y-59435500D01*
X116418356Y-59435500D01*
X116350235Y-59415498D01*
X116303742Y-59361842D01*
X116293638Y-59291568D01*
X116298763Y-59269833D01*
X116316652Y-59215899D01*
X116324974Y-59190809D01*
X116328015Y-59161134D01*
X116335172Y-59091271D01*
X116335500Y-59088072D01*
X116335500Y-58513928D01*
X116333417Y-58493850D01*
X116325419Y-58416765D01*
X116325418Y-58416761D01*
X116324707Y-58409907D01*
X116307753Y-58359088D01*
X116274824Y-58260389D01*
X116269654Y-58244893D01*
X116205911Y-58141885D01*
X119151000Y-58141885D01*
X119155475Y-58157124D01*
X119156865Y-58158329D01*
X119164548Y-58160000D01*
X121136885Y-58160000D01*
X121152124Y-58155525D01*
X121153329Y-58154135D01*
X121155000Y-58146452D01*
X121155000Y-56924116D01*
X121150525Y-56908877D01*
X121149135Y-56907672D01*
X121141452Y-56906001D01*
X119614331Y-56906001D01*
X119607510Y-56906371D01*
X119556648Y-56911895D01*
X119541396Y-56915521D01*
X119420946Y-56960676D01*
X119405351Y-56969214D01*
X119303276Y-57045715D01*
X119290715Y-57058276D01*
X119214214Y-57160351D01*
X119205676Y-57175946D01*
X119160522Y-57296394D01*
X119156895Y-57311649D01*
X119151369Y-57362514D01*
X119151000Y-57369328D01*
X119151000Y-58141885D01*
X116205911Y-58141885D01*
X116178116Y-58096969D01*
X116171250Y-58090115D01*
X116060184Y-57979242D01*
X116060179Y-57979238D01*
X116055003Y-57974071D01*
X116048642Y-57970150D01*
X115913150Y-57886631D01*
X115913148Y-57886630D01*
X115906920Y-57882791D01*
X115741809Y-57828026D01*
X115734973Y-57827326D01*
X115734970Y-57827325D01*
X115673184Y-57820995D01*
X115639072Y-57817500D01*
X115039928Y-57817500D01*
X115036682Y-57817837D01*
X115036678Y-57817837D01*
X114942765Y-57827581D01*
X114942761Y-57827582D01*
X114935907Y-57828293D01*
X114929371Y-57830474D01*
X114929369Y-57830474D01*
X114871625Y-57849739D01*
X114770893Y-57883346D01*
X114622969Y-57974884D01*
X114515899Y-58082141D01*
X114453618Y-58116220D01*
X114382798Y-58111217D01*
X114337709Y-58082296D01*
X114234871Y-57979637D01*
X114223460Y-57970625D01*
X114087937Y-57887088D01*
X114074759Y-57880944D01*
X113923234Y-57830685D01*
X113909868Y-57827819D01*
X113817230Y-57818328D01*
X113810815Y-57818000D01*
X113786615Y-57818000D01*
X113771376Y-57822475D01*
X113770171Y-57823865D01*
X113768500Y-57831548D01*
X113768500Y-58929000D01*
X113748498Y-58997121D01*
X113694842Y-59043614D01*
X113642500Y-59055000D01*
X112914115Y-59055000D01*
X112898876Y-59059475D01*
X112882940Y-59077866D01*
X112867251Y-59106597D01*
X112804938Y-59140621D01*
X112778157Y-59143500D01*
X111270115Y-59143500D01*
X111254876Y-59147975D01*
X111253671Y-59149365D01*
X111252000Y-59157048D01*
X111252000Y-60041884D01*
X111256475Y-60057123D01*
X111257865Y-60058328D01*
X111265548Y-60059999D01*
X112145097Y-60059999D01*
X112151616Y-60059662D01*
X112247208Y-60049743D01*
X112260602Y-60046851D01*
X112352624Y-60016150D01*
X112423573Y-60013566D01*
X112484657Y-60049749D01*
X112516482Y-60113214D01*
X112518500Y-60135674D01*
X112518500Y-60612072D01*
X112518837Y-60615318D01*
X112518837Y-60615322D01*
X112528505Y-60708495D01*
X112529293Y-60716093D01*
X112531473Y-60722627D01*
X112531474Y-60722632D01*
X112535868Y-60735801D01*
X112538452Y-60806751D01*
X112502268Y-60867835D01*
X112438804Y-60899659D01*
X112376677Y-60895270D01*
X112259391Y-60856368D01*
X112259389Y-60856368D01*
X112252863Y-60854203D01*
X112246027Y-60853503D01*
X112246024Y-60853502D01*
X112202971Y-60849091D01*
X112148402Y-60843500D01*
X110955253Y-60843500D01*
X110916317Y-60837333D01*
X110883810Y-60826771D01*
X110864956Y-60820645D01*
X110858389Y-60819955D01*
X110858385Y-60819954D01*
X110852712Y-60819358D01*
X110851470Y-60819228D01*
X110832028Y-60815625D01*
X110818915Y-60812111D01*
X110812318Y-60811765D01*
X110812316Y-60811765D01*
X110752113Y-60808610D01*
X110745539Y-60808093D01*
X110728895Y-60806344D01*
X110728891Y-60806344D01*
X110725620Y-60806000D01*
X110705593Y-60806000D01*
X110698999Y-60805827D01*
X110638782Y-60802671D01*
X110638778Y-60802671D01*
X110632190Y-60802326D01*
X110625675Y-60803358D01*
X110625673Y-60803358D01*
X110618786Y-60804449D01*
X110599075Y-60806000D01*
X109593876Y-60806000D01*
X109525755Y-60785998D01*
X109479262Y-60732342D01*
X109469158Y-60662068D01*
X109486617Y-60613883D01*
X109498911Y-60593939D01*
X109505056Y-60580759D01*
X109555315Y-60429234D01*
X109558181Y-60415868D01*
X109567672Y-60323230D01*
X109568000Y-60316815D01*
X109568000Y-60165722D01*
X109588002Y-60097601D01*
X109641658Y-60051108D01*
X109711932Y-60041004D01*
X109733672Y-60046131D01*
X109736704Y-60047137D01*
X109750084Y-60050005D01*
X109844436Y-60059672D01*
X109850852Y-60060000D01*
X110725885Y-60060000D01*
X110741124Y-60055525D01*
X110742329Y-60054135D01*
X110744000Y-60046452D01*
X110744000Y-59161615D01*
X110739525Y-59146376D01*
X110738135Y-59145171D01*
X110730452Y-59143500D01*
X109226000Y-59143500D01*
X109157879Y-59123498D01*
X109111386Y-59069842D01*
X109100000Y-59017500D01*
X109100000Y-58995193D01*
X109095525Y-58979954D01*
X109087373Y-58972890D01*
X108981234Y-58937685D01*
X108967868Y-58934819D01*
X108875230Y-58925328D01*
X108868815Y-58925000D01*
X108857115Y-58925000D01*
X108841876Y-58929475D01*
X108840671Y-58930865D01*
X108839000Y-58938548D01*
X108839000Y-60098500D01*
X108818998Y-60166621D01*
X108765342Y-60213114D01*
X108713000Y-60224500D01*
X108457000Y-60224500D01*
X108388879Y-60204498D01*
X108342386Y-60150842D01*
X108331000Y-60098500D01*
X108331000Y-58943115D01*
X108326525Y-58927876D01*
X108325135Y-58926671D01*
X108317452Y-58925000D01*
X108301234Y-58925000D01*
X108294718Y-58925337D01*
X108200868Y-58935075D01*
X108187472Y-58937968D01*
X108036047Y-58988488D01*
X108022883Y-58994654D01*
X108018803Y-58997179D01*
X107950352Y-59016017D01*
X107882582Y-58994856D01*
X107837011Y-58940415D01*
X107826500Y-58890035D01*
X107826500Y-58767928D01*
X107826163Y-58764678D01*
X107816419Y-58670765D01*
X107816418Y-58670761D01*
X107815707Y-58663907D01*
X107800186Y-58617385D01*
X109140000Y-58617385D01*
X109144475Y-58632624D01*
X109145865Y-58633829D01*
X109153548Y-58635500D01*
X110725885Y-58635500D01*
X110741124Y-58631025D01*
X110742329Y-58629635D01*
X110744000Y-58621952D01*
X110744000Y-58617385D01*
X111252000Y-58617385D01*
X111256475Y-58632624D01*
X111257865Y-58633829D01*
X111265548Y-58635500D01*
X112460885Y-58635500D01*
X112476124Y-58631025D01*
X112492060Y-58612634D01*
X112507749Y-58583903D01*
X112570062Y-58549879D01*
X112596843Y-58547000D01*
X113242385Y-58547000D01*
X113257624Y-58542525D01*
X113258829Y-58541135D01*
X113260500Y-58533452D01*
X113260500Y-57836115D01*
X113256025Y-57820876D01*
X113254635Y-57819671D01*
X113246952Y-57818000D01*
X113218234Y-57818000D01*
X113211718Y-57818337D01*
X113117868Y-57828075D01*
X113104472Y-57830968D01*
X112953047Y-57881488D01*
X112939885Y-57887653D01*
X112802840Y-57972458D01*
X112734388Y-57991295D01*
X112666619Y-57970133D01*
X112647521Y-57954486D01*
X112576172Y-57883262D01*
X112564761Y-57874250D01*
X112426759Y-57789184D01*
X112413578Y-57783037D01*
X112259292Y-57731862D01*
X112245916Y-57728995D01*
X112151564Y-57719328D01*
X112145147Y-57719000D01*
X111270115Y-57719000D01*
X111254876Y-57723475D01*
X111253671Y-57724865D01*
X111252000Y-57732548D01*
X111252000Y-58617385D01*
X110744000Y-58617385D01*
X110744000Y-57737116D01*
X110739525Y-57721877D01*
X110738135Y-57720672D01*
X110730452Y-57719001D01*
X109850903Y-57719001D01*
X109844384Y-57719338D01*
X109748792Y-57729257D01*
X109735398Y-57732149D01*
X109581215Y-57783588D01*
X109568036Y-57789762D01*
X109430190Y-57875063D01*
X109418791Y-57884099D01*
X109304262Y-57998828D01*
X109295250Y-58010239D01*
X109210184Y-58148241D01*
X109204037Y-58161422D01*
X109152862Y-58315708D01*
X109149995Y-58329084D01*
X109140328Y-58423436D01*
X109140000Y-58429853D01*
X109140000Y-58617385D01*
X107800186Y-58617385D01*
X107760654Y-58498893D01*
X107669116Y-58350969D01*
X107645957Y-58327850D01*
X107551184Y-58233242D01*
X107551179Y-58233238D01*
X107546003Y-58228071D01*
X107539772Y-58224230D01*
X107404150Y-58140631D01*
X107404148Y-58140630D01*
X107397920Y-58136791D01*
X107232809Y-58082026D01*
X107225973Y-58081326D01*
X107225970Y-58081325D01*
X107174474Y-58076049D01*
X107130072Y-58071500D01*
X106430928Y-58071500D01*
X106427682Y-58071837D01*
X106427678Y-58071837D01*
X106333765Y-58081581D01*
X106333761Y-58081582D01*
X106326907Y-58082293D01*
X106320371Y-58084474D01*
X106320369Y-58084474D01*
X106264250Y-58103197D01*
X106161893Y-58137346D01*
X106013969Y-58228884D01*
X106008797Y-58234065D01*
X106006727Y-58236139D01*
X106004962Y-58237105D01*
X106003059Y-58238613D01*
X106002801Y-58238287D01*
X105944446Y-58270219D01*
X105873625Y-58265218D01*
X105828530Y-58236292D01*
X105825869Y-58233636D01*
X105814460Y-58224625D01*
X105678937Y-58141088D01*
X105665759Y-58134944D01*
X105514234Y-58084685D01*
X105500868Y-58081819D01*
X105408230Y-58072328D01*
X105401815Y-58072000D01*
X105327615Y-58072000D01*
X105312376Y-58076475D01*
X105311171Y-58077865D01*
X105309500Y-58085548D01*
X105309500Y-60019885D01*
X105313975Y-60035124D01*
X105315365Y-60036329D01*
X105323048Y-60038000D01*
X105344457Y-60038000D01*
X105412578Y-60058002D01*
X105459071Y-60111658D01*
X105469720Y-60177607D01*
X105464554Y-60225167D01*
X105463500Y-60234866D01*
X105463500Y-60406332D01*
X105443498Y-60474453D01*
X105389842Y-60520946D01*
X105322583Y-60531446D01*
X105295676Y-60528238D01*
X105295674Y-60528238D01*
X105288680Y-60527404D01*
X105281677Y-60528140D01*
X105281676Y-60528140D01*
X105115288Y-60545628D01*
X105115286Y-60545629D01*
X105108288Y-60546364D01*
X104936579Y-60604818D01*
X104919505Y-60615322D01*
X104788095Y-60696166D01*
X104788092Y-60696168D01*
X104782088Y-60699862D01*
X104777053Y-60704793D01*
X104777050Y-60704795D01*
X104657525Y-60821843D01*
X104652493Y-60826771D01*
X104554235Y-60979238D01*
X104551826Y-60985858D01*
X104551824Y-60985861D01*
X104512792Y-61093101D01*
X104492197Y-61149685D01*
X104469463Y-61329640D01*
X104487163Y-61510160D01*
X104500948Y-61551598D01*
X104542193Y-61675586D01*
X104542195Y-61675590D01*
X104544418Y-61682273D01*
X104547646Y-61687604D01*
X104558016Y-61757513D01*
X104528811Y-61822224D01*
X104473825Y-61859415D01*
X104428579Y-61874818D01*
X104422575Y-61878512D01*
X104280095Y-61966166D01*
X104280092Y-61966168D01*
X104274088Y-61969862D01*
X104269053Y-61974793D01*
X104269050Y-61974795D01*
X104164172Y-62077500D01*
X104144493Y-62096771D01*
X104046235Y-62249238D01*
X104043826Y-62255858D01*
X104043824Y-62255861D01*
X103995829Y-62387727D01*
X103984197Y-62419685D01*
X103961463Y-62599640D01*
X103979163Y-62780160D01*
X104036418Y-62952273D01*
X104040065Y-62958295D01*
X104040066Y-62958297D01*
X104058449Y-62988651D01*
X104076628Y-63057281D01*
X104056586Y-63122174D01*
X104050055Y-63132309D01*
X104050052Y-63132315D01*
X104046235Y-63138238D01*
X104043826Y-63144858D01*
X104043825Y-63144859D01*
X103989258Y-63294780D01*
X103984197Y-63308685D01*
X103977277Y-63363467D01*
X103973951Y-63389792D01*
X103945570Y-63454868D01*
X103886510Y-63494270D01*
X103848945Y-63500000D01*
X103269115Y-63500000D01*
X103253876Y-63504475D01*
X103252671Y-63505865D01*
X103251000Y-63513548D01*
X103251000Y-67311000D01*
X103230998Y-67379121D01*
X103177342Y-67425614D01*
X103125000Y-67437000D01*
X102869000Y-67437000D01*
X102800879Y-67416998D01*
X102754386Y-67363342D01*
X102743000Y-67311000D01*
X102743000Y-63518116D01*
X102738525Y-63502877D01*
X102737135Y-63501672D01*
X102729452Y-63500001D01*
X101299323Y-63500001D01*
X101231202Y-63479999D01*
X101184709Y-63426343D01*
X101174605Y-63356069D01*
X101204099Y-63291489D01*
X101210228Y-63284906D01*
X102523050Y-61972085D01*
X103900792Y-60594343D01*
X103909078Y-60586803D01*
X103915557Y-60582691D01*
X103962183Y-60533039D01*
X103964937Y-60530198D01*
X103984674Y-60510461D01*
X103987154Y-60507264D01*
X103994859Y-60498242D01*
X104019698Y-60471791D01*
X104025125Y-60466012D01*
X104028944Y-60459066D01*
X104028946Y-60459063D01*
X104034887Y-60448257D01*
X104045738Y-60431738D01*
X104053297Y-60421992D01*
X104058153Y-60415732D01*
X104061298Y-60408463D01*
X104061301Y-60408459D01*
X104075713Y-60375154D01*
X104080930Y-60364504D01*
X104102234Y-60325751D01*
X104107272Y-60306128D01*
X104113676Y-60287425D01*
X104118572Y-60276111D01*
X104118572Y-60276110D01*
X104121720Y-60268836D01*
X104122959Y-60261013D01*
X104122962Y-60261003D01*
X104128638Y-60225167D01*
X104131044Y-60213547D01*
X104140067Y-60178402D01*
X104140067Y-60178401D01*
X104142039Y-60170721D01*
X104142039Y-60150467D01*
X104143590Y-60130756D01*
X104145519Y-60118577D01*
X104146759Y-60110748D01*
X104142598Y-60066729D01*
X104142039Y-60054872D01*
X104142039Y-60015821D01*
X104162041Y-59947700D01*
X104215697Y-59901207D01*
X104285971Y-59891103D01*
X104334155Y-59908561D01*
X104432063Y-59968912D01*
X104445241Y-59975056D01*
X104596766Y-60025315D01*
X104610132Y-60028181D01*
X104702770Y-60037672D01*
X104709185Y-60038000D01*
X104783385Y-60038000D01*
X104798624Y-60033525D01*
X104799829Y-60032135D01*
X104801500Y-60024452D01*
X104801500Y-58090115D01*
X104797025Y-58074876D01*
X104795635Y-58073671D01*
X104787952Y-58072000D01*
X104709234Y-58072000D01*
X104702718Y-58072337D01*
X104608868Y-58082075D01*
X104595472Y-58084968D01*
X104444047Y-58135488D01*
X104430889Y-58141651D01*
X104334342Y-58201396D01*
X104265889Y-58220233D01*
X104198120Y-58199071D01*
X104152549Y-58144630D01*
X104142039Y-58094251D01*
X104142039Y-56798766D01*
X114337000Y-56798766D01*
X114337337Y-56805282D01*
X114347075Y-56899132D01*
X114349968Y-56912528D01*
X114400488Y-57063953D01*
X114406653Y-57077115D01*
X114490426Y-57212492D01*
X114499460Y-57223890D01*
X114612129Y-57336363D01*
X114623540Y-57345375D01*
X114759063Y-57428912D01*
X114772241Y-57435056D01*
X114923766Y-57485315D01*
X114937132Y-57488181D01*
X115029770Y-57497672D01*
X115036185Y-57498000D01*
X115060385Y-57498000D01*
X115075624Y-57493525D01*
X115076829Y-57492135D01*
X115078500Y-57484452D01*
X115078500Y-56787115D01*
X115074025Y-56771876D01*
X115072635Y-56770671D01*
X115064952Y-56769000D01*
X114355115Y-56769000D01*
X114339876Y-56773475D01*
X114338671Y-56774865D01*
X114337000Y-56782548D01*
X114337000Y-56798766D01*
X104142039Y-56798766D01*
X104142039Y-56242885D01*
X114337000Y-56242885D01*
X114341475Y-56258124D01*
X114342865Y-56259329D01*
X114350548Y-56261000D01*
X115060385Y-56261000D01*
X115075624Y-56256525D01*
X115076829Y-56255135D01*
X115078500Y-56247452D01*
X115078500Y-55550115D01*
X115074025Y-55534876D01*
X115072635Y-55533671D01*
X115064952Y-55532000D01*
X115036234Y-55532000D01*
X115029718Y-55532337D01*
X114935868Y-55542075D01*
X114922472Y-55544968D01*
X114771047Y-55595488D01*
X114757885Y-55601653D01*
X114622508Y-55685426D01*
X114611110Y-55694460D01*
X114498637Y-55807129D01*
X114489625Y-55818540D01*
X114406088Y-55954063D01*
X114399944Y-55967241D01*
X114349685Y-56118766D01*
X114346819Y-56132132D01*
X114337328Y-56224770D01*
X114337000Y-56231185D01*
X114337000Y-56242885D01*
X104142039Y-56242885D01*
X104142039Y-54563892D01*
X104142566Y-54552708D01*
X104144240Y-54545220D01*
X104142101Y-54477161D01*
X104142039Y-54473204D01*
X104142039Y-54445273D01*
X104141533Y-54441267D01*
X104140600Y-54429421D01*
X104140507Y-54426441D01*
X104139212Y-54385239D01*
X104133561Y-54365787D01*
X104129553Y-54346435D01*
X104128006Y-54334192D01*
X104127013Y-54326332D01*
X104124095Y-54318961D01*
X104110739Y-54285226D01*
X104106894Y-54273999D01*
X104102494Y-54258855D01*
X104094557Y-54231536D01*
X104090523Y-54224714D01*
X104090520Y-54224708D01*
X104084245Y-54214097D01*
X104075549Y-54196347D01*
X104071011Y-54184885D01*
X104071008Y-54184880D01*
X104068091Y-54177512D01*
X104055440Y-54160099D01*
X104042112Y-54141754D01*
X104035596Y-54131836D01*
X104024544Y-54113148D01*
X104013081Y-54093766D01*
X103998757Y-54079442D01*
X103985915Y-54064407D01*
X103985574Y-54063937D01*
X103974011Y-54048022D01*
X103939945Y-54019840D01*
X103931166Y-54011851D01*
X102485357Y-52566042D01*
X102477817Y-52557756D01*
X102473705Y-52551277D01*
X102424053Y-52504651D01*
X102421212Y-52501897D01*
X102401475Y-52482160D01*
X102398278Y-52479680D01*
X102389256Y-52471975D01*
X102375827Y-52459364D01*
X102357026Y-52441709D01*
X102350080Y-52437890D01*
X102350077Y-52437888D01*
X102339271Y-52431947D01*
X102322752Y-52421096D01*
X102322288Y-52420736D01*
X102306746Y-52408681D01*
X102299477Y-52405536D01*
X102299473Y-52405533D01*
X102266168Y-52391121D01*
X102255518Y-52385904D01*
X102216765Y-52364600D01*
X102197142Y-52359562D01*
X102178439Y-52353158D01*
X102167125Y-52348262D01*
X102167124Y-52348262D01*
X102159850Y-52345114D01*
X102152027Y-52343875D01*
X102152017Y-52343872D01*
X102116181Y-52338196D01*
X102104561Y-52335790D01*
X102069416Y-52326767D01*
X102069415Y-52326767D01*
X102061735Y-52324795D01*
X102041481Y-52324795D01*
X102021770Y-52323244D01*
X102009591Y-52321315D01*
X102001762Y-52320075D01*
X101972491Y-52322842D01*
X101957744Y-52324236D01*
X101945886Y-52324795D01*
X97488472Y-52324795D01*
X97477289Y-52324268D01*
X97469796Y-52322593D01*
X97461870Y-52322842D01*
X97461869Y-52322842D01*
X97401706Y-52324733D01*
X97397748Y-52324795D01*
X97369849Y-52324795D01*
X97365859Y-52325299D01*
X97354025Y-52326231D01*
X97309816Y-52327621D01*
X97302202Y-52329833D01*
X97302197Y-52329834D01*
X97290364Y-52333272D01*
X97271001Y-52337283D01*
X97250908Y-52339821D01*
X97243541Y-52342738D01*
X97243536Y-52342739D01*
X97209797Y-52356097D01*
X97198570Y-52359941D01*
X97156112Y-52372277D01*
X97149286Y-52376314D01*
X97138677Y-52382588D01*
X97120929Y-52391283D01*
X97102088Y-52398743D01*
X97095672Y-52403405D01*
X97095671Y-52403405D01*
X97066318Y-52424731D01*
X97056398Y-52431247D01*
X97025170Y-52449715D01*
X97025167Y-52449717D01*
X97018343Y-52453753D01*
X97004022Y-52468074D01*
X96988989Y-52480914D01*
X96972598Y-52492823D01*
X96947068Y-52523684D01*
X96944407Y-52526900D01*
X96936417Y-52535679D01*
X95374500Y-54097595D01*
X95312188Y-54131621D01*
X95285405Y-54134500D01*
X95180928Y-54134500D01*
X95177682Y-54134837D01*
X95177678Y-54134837D01*
X95083765Y-54144581D01*
X95083761Y-54144582D01*
X95076907Y-54145293D01*
X95070371Y-54147474D01*
X95070369Y-54147474D01*
X94999563Y-54171097D01*
X94911893Y-54200346D01*
X94763969Y-54291884D01*
X94758796Y-54297066D01*
X94646242Y-54409816D01*
X94646238Y-54409821D01*
X94641071Y-54414997D01*
X94637231Y-54421227D01*
X94637230Y-54421228D01*
X94635143Y-54424614D01*
X94633114Y-54426441D01*
X94632693Y-54426973D01*
X94632602Y-54426901D01*
X94582372Y-54472108D01*
X94527882Y-54484500D01*
X94438358Y-54484500D01*
X94427175Y-54483973D01*
X94419682Y-54482298D01*
X94411756Y-54482547D01*
X94411755Y-54482547D01*
X94351592Y-54484438D01*
X94347634Y-54484500D01*
X94319734Y-54484500D01*
X94315744Y-54485004D01*
X94303910Y-54485936D01*
X94259701Y-54487326D01*
X94252085Y-54489539D01*
X94252083Y-54489539D01*
X94240242Y-54492979D01*
X94220883Y-54496988D01*
X94219573Y-54497154D01*
X94200793Y-54499526D01*
X94193427Y-54502442D01*
X94193421Y-54502444D01*
X94159688Y-54515800D01*
X94148458Y-54519645D01*
X94113607Y-54529770D01*
X94105997Y-54531981D01*
X94099174Y-54536016D01*
X94088556Y-54542295D01*
X94070803Y-54550992D01*
X94068169Y-54552035D01*
X94051973Y-54558448D01*
X94045558Y-54563109D01*
X94016202Y-54584437D01*
X94006285Y-54590951D01*
X93968228Y-54613458D01*
X93953907Y-54627779D01*
X93938874Y-54640619D01*
X93922483Y-54652528D01*
X93917432Y-54658634D01*
X93894292Y-54686605D01*
X93886302Y-54695384D01*
X92450146Y-56131539D01*
X92387834Y-56165565D01*
X92361051Y-56168444D01*
X87506689Y-56168444D01*
X87438568Y-56148442D01*
X87392075Y-56094786D01*
X87381971Y-56024512D01*
X87411465Y-55959932D01*
X87417594Y-55953349D01*
X87995455Y-55375488D01*
X88010483Y-55362651D01*
X88021471Y-55354668D01*
X88032760Y-55342131D01*
X88066250Y-55304936D01*
X88070791Y-55300152D01*
X88084938Y-55286005D01*
X88097538Y-55270445D01*
X88101826Y-55265424D01*
X88105286Y-55261582D01*
X88128148Y-55236191D01*
X88142171Y-55220618D01*
X88142174Y-55220614D01*
X88146586Y-55215714D01*
X88149882Y-55210004D01*
X88149885Y-55210001D01*
X88153376Y-55203954D01*
X88164569Y-55187669D01*
X88168951Y-55182257D01*
X88173108Y-55177124D01*
X88203478Y-55117519D01*
X88206625Y-55111723D01*
X88213477Y-55099855D01*
X88240076Y-55053784D01*
X88244271Y-55040874D01*
X88251834Y-55022615D01*
X88257995Y-55010523D01*
X88275310Y-54945905D01*
X88277183Y-54939581D01*
X88295814Y-54882239D01*
X88297856Y-54875955D01*
X88299273Y-54862469D01*
X88302877Y-54843022D01*
X88304681Y-54836292D01*
X88304681Y-54836291D01*
X88306390Y-54829914D01*
X88306736Y-54823315D01*
X88309891Y-54763112D01*
X88310408Y-54756538D01*
X88312157Y-54739894D01*
X88312157Y-54739890D01*
X88312501Y-54736619D01*
X88312501Y-54716592D01*
X88312674Y-54709998D01*
X88315830Y-54649781D01*
X88315830Y-54649777D01*
X88316175Y-54643189D01*
X88314052Y-54629784D01*
X88312501Y-54610074D01*
X88312501Y-54105524D01*
X88332503Y-54037403D01*
X88364440Y-54003588D01*
X88372132Y-53998000D01*
X88434253Y-53952866D01*
X88505267Y-53873997D01*
X88557621Y-53815852D01*
X88557622Y-53815851D01*
X88562040Y-53810944D01*
X88631178Y-53691194D01*
X88654223Y-53651279D01*
X88654224Y-53651278D01*
X88657527Y-53645556D01*
X88716542Y-53463928D01*
X88720603Y-53425295D01*
X88735814Y-53280565D01*
X88736504Y-53274000D01*
X88726807Y-53181741D01*
X88717232Y-53090635D01*
X88717232Y-53090633D01*
X88716542Y-53084072D01*
X88657527Y-52902444D01*
X88562040Y-52737056D01*
X88498989Y-52667030D01*
X88438675Y-52600045D01*
X88438674Y-52600044D01*
X88434253Y-52595134D01*
X88279752Y-52482882D01*
X88273724Y-52480198D01*
X88273722Y-52480197D01*
X88111319Y-52407891D01*
X88111318Y-52407891D01*
X88105288Y-52405206D01*
X88011887Y-52385353D01*
X87924944Y-52366872D01*
X87924939Y-52366872D01*
X87918487Y-52365500D01*
X87727513Y-52365500D01*
X87721061Y-52366872D01*
X87721056Y-52366872D01*
X87634113Y-52385353D01*
X87540712Y-52405206D01*
X87534682Y-52407891D01*
X87534681Y-52407891D01*
X87372278Y-52480197D01*
X87372276Y-52480198D01*
X87366248Y-52482882D01*
X87211747Y-52595134D01*
X87207326Y-52600044D01*
X87207325Y-52600045D01*
X87147012Y-52667030D01*
X87083960Y-52737056D01*
X87080659Y-52742774D01*
X87067608Y-52765379D01*
X87047584Y-52791473D01*
X86850547Y-52988510D01*
X86835519Y-53001347D01*
X86824531Y-53009330D01*
X86820118Y-53014232D01*
X86820116Y-53014233D01*
X86779752Y-53059062D01*
X86775211Y-53063846D01*
X86761064Y-53077993D01*
X86758987Y-53080558D01*
X86748464Y-53093553D01*
X86744176Y-53098574D01*
X86703831Y-53143380D01*
X86703828Y-53143384D01*
X86699416Y-53148284D01*
X86696120Y-53153994D01*
X86696117Y-53153997D01*
X86692626Y-53160044D01*
X86681433Y-53176329D01*
X86672894Y-53186874D01*
X86656916Y-53218233D01*
X86642524Y-53246479D01*
X86639377Y-53252275D01*
X86636058Y-53258024D01*
X86605926Y-53310214D01*
X86603885Y-53316496D01*
X86601732Y-53323122D01*
X86594168Y-53341383D01*
X86588007Y-53353475D01*
X86583868Y-53368922D01*
X86570692Y-53418093D01*
X86568819Y-53424417D01*
X86548146Y-53488043D01*
X86547456Y-53494610D01*
X86547455Y-53494614D01*
X86546729Y-53501528D01*
X86543126Y-53520971D01*
X86539612Y-53534084D01*
X86539266Y-53540681D01*
X86539266Y-53540683D01*
X86536111Y-53600886D01*
X86535594Y-53607460D01*
X86533501Y-53627379D01*
X86533501Y-53647406D01*
X86533328Y-53654000D01*
X86529827Y-53720809D01*
X86530859Y-53727324D01*
X86530859Y-53727326D01*
X86531950Y-53734213D01*
X86533501Y-53753924D01*
X86533501Y-54269366D01*
X86513499Y-54337487D01*
X86496596Y-54358461D01*
X85741616Y-55113441D01*
X85679304Y-55147467D01*
X85608489Y-55142402D01*
X85551653Y-55099855D01*
X85538420Y-55077796D01*
X85537971Y-55076836D01*
X85535654Y-55069893D01*
X85525686Y-55053784D01*
X85456953Y-54942714D01*
X85444116Y-54921969D01*
X85411714Y-54889623D01*
X85377634Y-54827342D01*
X85382637Y-54756521D01*
X85411558Y-54711432D01*
X85439758Y-54683183D01*
X85444929Y-54678003D01*
X85460632Y-54652528D01*
X85532369Y-54536150D01*
X85532370Y-54536148D01*
X85536209Y-54529920D01*
X85590974Y-54364809D01*
X85591850Y-54356266D01*
X85600278Y-54273999D01*
X85601500Y-54262072D01*
X85601500Y-53687928D01*
X85597980Y-53654000D01*
X85591419Y-53590765D01*
X85591418Y-53590761D01*
X85590707Y-53583907D01*
X85580825Y-53554285D01*
X85537972Y-53425841D01*
X85535654Y-53418893D01*
X85444116Y-53270969D01*
X85429062Y-53255941D01*
X85326184Y-53153242D01*
X85326179Y-53153238D01*
X85321003Y-53148071D01*
X85313393Y-53143380D01*
X85179150Y-53060631D01*
X85179148Y-53060630D01*
X85172920Y-53056791D01*
X85007809Y-53002026D01*
X85000973Y-53001326D01*
X85000970Y-53001325D01*
X84944357Y-52995525D01*
X84905072Y-52991500D01*
X84305928Y-52991500D01*
X84302682Y-52991837D01*
X84302678Y-52991837D01*
X84208765Y-53001581D01*
X84208761Y-53001582D01*
X84201907Y-53002293D01*
X84195371Y-53004474D01*
X84195369Y-53004474D01*
X84166118Y-53014233D01*
X84036893Y-53057346D01*
X83888969Y-53148884D01*
X83883796Y-53154066D01*
X83782253Y-53255786D01*
X83719970Y-53289865D01*
X83649150Y-53284862D01*
X83604063Y-53255941D01*
X83501188Y-53153246D01*
X83501183Y-53153242D01*
X83496003Y-53148071D01*
X83488393Y-53143380D01*
X83354150Y-53060631D01*
X83354148Y-53060630D01*
X83347920Y-53056791D01*
X83182809Y-53002026D01*
X83175973Y-53001326D01*
X83175970Y-53001325D01*
X83119357Y-52995525D01*
X83080072Y-52991500D01*
X82480928Y-52991500D01*
X82477682Y-52991837D01*
X82477678Y-52991837D01*
X82383765Y-53001581D01*
X82383761Y-53001582D01*
X82376907Y-53002293D01*
X82370371Y-53004474D01*
X82370369Y-53004474D01*
X82341118Y-53014233D01*
X82211893Y-53057346D01*
X82063969Y-53148884D01*
X82058796Y-53154066D01*
X81973992Y-53239018D01*
X81911710Y-53273097D01*
X81884819Y-53276000D01*
X81562600Y-53276000D01*
X81554029Y-53275708D01*
X81497149Y-53271830D01*
X81435065Y-53282666D01*
X81428586Y-53283622D01*
X81366040Y-53291191D01*
X81358938Y-53293875D01*
X81355456Y-53294730D01*
X81341421Y-53298570D01*
X81337973Y-53299611D01*
X81330483Y-53300918D01*
X81323522Y-53303974D01*
X81323521Y-53303974D01*
X81272805Y-53326237D01*
X81266697Y-53328730D01*
X81216778Y-53347593D01*
X81207778Y-53350994D01*
X81201512Y-53355300D01*
X81198357Y-53356950D01*
X81185565Y-53364069D01*
X81182521Y-53365869D01*
X81175567Y-53368922D01*
X81146191Y-53391463D01*
X81079974Y-53417063D01*
X81069489Y-53417500D01*
X78134866Y-53417500D01*
X78072684Y-53424255D01*
X77936295Y-53475385D01*
X77819739Y-53562739D01*
X77732385Y-53679295D01*
X77681255Y-53815684D01*
X77674500Y-53877866D01*
X77674500Y-57374134D01*
X77343500Y-57374134D01*
X77343500Y-51434500D01*
X77363502Y-51366379D01*
X77417158Y-51319886D01*
X77469500Y-51308500D01*
X140843500Y-51308500D01*
X140911621Y-51328502D01*
G37*
G04 #@! TD.AperFunction*
G04 #@! TA.AperFunction,Conductor*
G36*
X114888012Y-72060368D02*
G01*
X114894594Y-72066496D01*
X115786123Y-72958026D01*
X116677595Y-73849498D01*
X116711621Y-73911810D01*
X116714500Y-73938593D01*
X116714500Y-75486233D01*
X116713973Y-75497416D01*
X116712298Y-75504909D01*
X116712547Y-75512835D01*
X116712547Y-75512836D01*
X116714438Y-75572986D01*
X116714500Y-75576945D01*
X116714500Y-75604856D01*
X116714997Y-75608790D01*
X116714997Y-75608791D01*
X116715005Y-75608856D01*
X116715938Y-75620693D01*
X116717327Y-75664889D01*
X116722978Y-75684339D01*
X116726987Y-75703700D01*
X116729526Y-75723797D01*
X116732445Y-75731168D01*
X116732445Y-75731170D01*
X116745804Y-75764912D01*
X116749649Y-75776142D01*
X116761982Y-75818593D01*
X116766015Y-75825412D01*
X116766017Y-75825417D01*
X116772293Y-75836028D01*
X116780988Y-75853776D01*
X116788448Y-75872617D01*
X116793110Y-75879033D01*
X116793110Y-75879034D01*
X116814436Y-75908387D01*
X116820952Y-75918307D01*
X116827397Y-75929204D01*
X116843458Y-75956362D01*
X116857779Y-75970683D01*
X116870619Y-75985716D01*
X116882528Y-76002107D01*
X116888634Y-76007158D01*
X116916605Y-76030298D01*
X116925384Y-76038288D01*
X118143501Y-77256405D01*
X118177527Y-77318717D01*
X118172462Y-77389532D01*
X118129915Y-77446368D01*
X118063395Y-77471179D01*
X118054406Y-77471500D01*
X114985594Y-77471500D01*
X114917473Y-77451498D01*
X114870980Y-77397842D01*
X114861088Y-77350849D01*
X114859754Y-77350914D01*
X114859561Y-77346964D01*
X114859616Y-77343000D01*
X114839397Y-77162745D01*
X114837080Y-77156091D01*
X114782064Y-76998106D01*
X114782062Y-76998103D01*
X114779745Y-76991448D01*
X114698646Y-76861661D01*
X114679500Y-76794892D01*
X114679500Y-76159964D01*
X114699502Y-76091843D01*
X114739196Y-76052821D01*
X114750031Y-76046116D01*
X114762049Y-76034077D01*
X114867758Y-75928184D01*
X114867762Y-75928179D01*
X114872929Y-75923003D01*
X114878977Y-75913192D01*
X114960369Y-75781150D01*
X114960370Y-75781148D01*
X114964209Y-75774920D01*
X115018974Y-75609809D01*
X115023107Y-75569475D01*
X115026979Y-75531679D01*
X115029500Y-75507072D01*
X115029500Y-74807928D01*
X115026870Y-74782580D01*
X115019419Y-74710765D01*
X115019418Y-74710761D01*
X115018707Y-74703907D01*
X114983541Y-74598500D01*
X114965972Y-74545841D01*
X114963654Y-74538893D01*
X114923149Y-74473438D01*
X114875969Y-74397195D01*
X114875968Y-74397194D01*
X114872116Y-74390969D01*
X114865212Y-74384077D01*
X114864411Y-74382613D01*
X114862389Y-74380062D01*
X114862826Y-74379716D01*
X114831134Y-74321796D01*
X114836137Y-74250976D01*
X114865056Y-74205890D01*
X114867757Y-74203184D01*
X114872929Y-74198003D01*
X114882188Y-74182982D01*
X114960369Y-74056150D01*
X114960370Y-74056148D01*
X114964209Y-74049920D01*
X115018974Y-73884809D01*
X115029500Y-73782072D01*
X115029500Y-73082928D01*
X115028318Y-73071533D01*
X115019419Y-72985765D01*
X115019418Y-72985761D01*
X115018707Y-72978907D01*
X115011922Y-72958568D01*
X114965972Y-72820841D01*
X114963654Y-72813893D01*
X114872116Y-72665969D01*
X114866934Y-72660796D01*
X114754184Y-72548242D01*
X114754179Y-72548238D01*
X114749003Y-72543071D01*
X114739386Y-72537143D01*
X114737559Y-72535114D01*
X114737027Y-72534693D01*
X114737099Y-72534602D01*
X114691892Y-72484372D01*
X114679500Y-72429882D01*
X114679500Y-72155592D01*
X114699502Y-72087471D01*
X114753158Y-72040978D01*
X114823432Y-72030874D01*
X114888012Y-72060368D01*
G37*
G04 #@! TD.AperFunction*
G04 #@! TA.AperFunction,Conductor*
G36*
X105199658Y-70762589D02*
G01*
X105199733Y-70762288D01*
X105202666Y-70763019D01*
X105204750Y-70763317D01*
X105213168Y-70766448D01*
X105220153Y-70767380D01*
X105220157Y-70767381D01*
X105283496Y-70775832D01*
X105354165Y-70785261D01*
X105419041Y-70814097D01*
X105458029Y-70873430D01*
X105463500Y-70910154D01*
X105463500Y-71131134D01*
X105467909Y-71171720D01*
X105467909Y-71198933D01*
X105464369Y-71231517D01*
X105464000Y-71238328D01*
X105464000Y-71264885D01*
X105468475Y-71280124D01*
X105494170Y-71302389D01*
X105493712Y-71302918D01*
X105506100Y-71309682D01*
X105521208Y-71329840D01*
X105521386Y-71329706D01*
X105542168Y-71357436D01*
X105567015Y-71423943D01*
X105551961Y-71493325D01*
X105542168Y-71508564D01*
X105521386Y-71536294D01*
X105521097Y-71536078D01*
X105474935Y-71582139D01*
X105469582Y-71584353D01*
X105465672Y-71588865D01*
X105464001Y-71596548D01*
X105464001Y-71627670D01*
X105464370Y-71634488D01*
X105467909Y-71667067D01*
X105467909Y-71694280D01*
X105463500Y-71734866D01*
X105463500Y-72131134D01*
X105463869Y-72134529D01*
X105463869Y-72134533D01*
X105467656Y-72169393D01*
X105467656Y-72196606D01*
X105463500Y-72234866D01*
X105463500Y-72631134D01*
X105463869Y-72634529D01*
X105463869Y-72634533D01*
X105467656Y-72669393D01*
X105467656Y-72696607D01*
X105464600Y-72724744D01*
X105463500Y-72734866D01*
X105463500Y-73131134D01*
X105463869Y-73134529D01*
X105463869Y-73134533D01*
X105467656Y-73169393D01*
X105467656Y-73196606D01*
X105463500Y-73234866D01*
X105463500Y-73631134D01*
X105463869Y-73634529D01*
X105463869Y-73634533D01*
X105467656Y-73669393D01*
X105467656Y-73696606D01*
X105463500Y-73734866D01*
X105463500Y-74131134D01*
X105470255Y-74193316D01*
X105473029Y-74200716D01*
X105474856Y-74208400D01*
X105472051Y-74209067D01*
X105476231Y-74266260D01*
X105448294Y-74322181D01*
X105438172Y-74333863D01*
X105436500Y-74341548D01*
X105436500Y-75439000D01*
X105416498Y-75507121D01*
X105362842Y-75553614D01*
X105310500Y-75565000D01*
X104155115Y-75565000D01*
X104139876Y-75569475D01*
X104138671Y-75570865D01*
X104137000Y-75578548D01*
X104137000Y-75594766D01*
X104137337Y-75601282D01*
X104144623Y-75671497D01*
X104131759Y-75741318D01*
X104083188Y-75793100D01*
X104019296Y-75810501D01*
X103174595Y-75810501D01*
X103106474Y-75790499D01*
X103085500Y-75773596D01*
X102534148Y-75222243D01*
X102350790Y-75038885D01*
X104137000Y-75038885D01*
X104141475Y-75054124D01*
X104142865Y-75055329D01*
X104150548Y-75057000D01*
X104910385Y-75057000D01*
X104925624Y-75052525D01*
X104926829Y-75051135D01*
X104928500Y-75043452D01*
X104928500Y-74346115D01*
X104924025Y-74330876D01*
X104922635Y-74329671D01*
X104914952Y-74328000D01*
X104836234Y-74328000D01*
X104829718Y-74328337D01*
X104735868Y-74338075D01*
X104722472Y-74340968D01*
X104571047Y-74391488D01*
X104557885Y-74397653D01*
X104422508Y-74481426D01*
X104411110Y-74490460D01*
X104298637Y-74603129D01*
X104289625Y-74614540D01*
X104206088Y-74750063D01*
X104199944Y-74763241D01*
X104149685Y-74914766D01*
X104146819Y-74928132D01*
X104137328Y-75020770D01*
X104137000Y-75027185D01*
X104137000Y-75038885D01*
X102350790Y-75038885D01*
X101956671Y-74644766D01*
X101949131Y-74636480D01*
X101945019Y-74630001D01*
X101895367Y-74583375D01*
X101892526Y-74580621D01*
X101872789Y-74560884D01*
X101869592Y-74558404D01*
X101860570Y-74550699D01*
X101841976Y-74533238D01*
X101828340Y-74520433D01*
X101821394Y-74516614D01*
X101821391Y-74516612D01*
X101810585Y-74510671D01*
X101794066Y-74499820D01*
X101787095Y-74494413D01*
X101778060Y-74487405D01*
X101770791Y-74484260D01*
X101770787Y-74484257D01*
X101737482Y-74469845D01*
X101726832Y-74464628D01*
X101688079Y-74443324D01*
X101668456Y-74438286D01*
X101649753Y-74431882D01*
X101638439Y-74426986D01*
X101638438Y-74426986D01*
X101631164Y-74423838D01*
X101623341Y-74422599D01*
X101623331Y-74422596D01*
X101587495Y-74416920D01*
X101575875Y-74414514D01*
X101540730Y-74405491D01*
X101540729Y-74405491D01*
X101533049Y-74403519D01*
X101512795Y-74403519D01*
X101493084Y-74401968D01*
X101480905Y-74400039D01*
X101473076Y-74398799D01*
X101465184Y-74399545D01*
X101429058Y-74402960D01*
X101417200Y-74403519D01*
X100626208Y-74403519D01*
X100558087Y-74383517D01*
X100511594Y-74329861D01*
X100501490Y-74259587D01*
X100508226Y-74233290D01*
X100520478Y-74200609D01*
X100524106Y-74185351D01*
X100524807Y-74178893D01*
X100552048Y-74113331D01*
X100610411Y-74072904D01*
X100650070Y-74066500D01*
X102256233Y-74066500D01*
X102267416Y-74067027D01*
X102274909Y-74068702D01*
X102282835Y-74068453D01*
X102282836Y-74068453D01*
X102342986Y-74066562D01*
X102346945Y-74066500D01*
X102374856Y-74066500D01*
X102378791Y-74066003D01*
X102378856Y-74065995D01*
X102390693Y-74065062D01*
X102422951Y-74064048D01*
X102426970Y-74063922D01*
X102434889Y-74063673D01*
X102454343Y-74058021D01*
X102473700Y-74054013D01*
X102485930Y-74052468D01*
X102485931Y-74052468D01*
X102493797Y-74051474D01*
X102501168Y-74048555D01*
X102501170Y-74048555D01*
X102534912Y-74035196D01*
X102546142Y-74031351D01*
X102580983Y-74021229D01*
X102580984Y-74021229D01*
X102588593Y-74019018D01*
X102595412Y-74014985D01*
X102595417Y-74014983D01*
X102606028Y-74008707D01*
X102623776Y-74000012D01*
X102642617Y-73992552D01*
X102670436Y-73972341D01*
X102678387Y-73966564D01*
X102688307Y-73960048D01*
X102719535Y-73941580D01*
X102719538Y-73941578D01*
X102726362Y-73937542D01*
X102740683Y-73923221D01*
X102755717Y-73910380D01*
X102765694Y-73903131D01*
X102772107Y-73898472D01*
X102800298Y-73864395D01*
X102808288Y-73855616D01*
X102930177Y-73733727D01*
X102992489Y-73699701D01*
X103007837Y-73697343D01*
X103033600Y-73694998D01*
X103040302Y-73692820D01*
X103040304Y-73692820D01*
X103199409Y-73641124D01*
X103199412Y-73641123D01*
X103206108Y-73638947D01*
X103314658Y-73574238D01*
X103355860Y-73549677D01*
X103355862Y-73549676D01*
X103361912Y-73546069D01*
X103493266Y-73420982D01*
X103593643Y-73269902D01*
X103640140Y-73147499D01*
X103655555Y-73106920D01*
X103655556Y-73106918D01*
X103658055Y-73100338D01*
X103659310Y-73091408D01*
X103682748Y-72924639D01*
X103682748Y-72924636D01*
X103683299Y-72920717D01*
X103683616Y-72898000D01*
X103663397Y-72717745D01*
X103660607Y-72709734D01*
X103606064Y-72553106D01*
X103606062Y-72553103D01*
X103603745Y-72546448D01*
X103596343Y-72534602D01*
X103511359Y-72398598D01*
X103507626Y-72392624D01*
X103493946Y-72378848D01*
X103384778Y-72268915D01*
X103384774Y-72268912D01*
X103379815Y-72263918D01*
X103368697Y-72256862D01*
X103273749Y-72196607D01*
X103226666Y-72166727D01*
X103156163Y-72141622D01*
X103062425Y-72108243D01*
X103062420Y-72108242D01*
X103055790Y-72105881D01*
X103048802Y-72105048D01*
X103048799Y-72105047D01*
X102957346Y-72094142D01*
X102892073Y-72066214D01*
X102852260Y-72007431D01*
X102850548Y-71936455D01*
X102875181Y-71888712D01*
X102895293Y-71864401D01*
X102903282Y-71855622D01*
X102930177Y-71828727D01*
X102992489Y-71794701D01*
X103007837Y-71792343D01*
X103033600Y-71789998D01*
X103040302Y-71787820D01*
X103040304Y-71787820D01*
X103199409Y-71736124D01*
X103199412Y-71736123D01*
X103206108Y-71733947D01*
X103308877Y-71672684D01*
X103355860Y-71644677D01*
X103355862Y-71644676D01*
X103361912Y-71641069D01*
X103493266Y-71515982D01*
X103593643Y-71364902D01*
X103639261Y-71244812D01*
X103655555Y-71201920D01*
X103655556Y-71201918D01*
X103658055Y-71195338D01*
X103667331Y-71129338D01*
X103682748Y-71019639D01*
X103682748Y-71019636D01*
X103683299Y-71015717D01*
X103683616Y-70993000D01*
X103684860Y-70993017D01*
X103700269Y-70929140D01*
X103751588Y-70880080D01*
X103809469Y-70865999D01*
X104846669Y-70865999D01*
X104853490Y-70865629D01*
X104904352Y-70860105D01*
X104919604Y-70856479D01*
X105040059Y-70811322D01*
X105055646Y-70802789D01*
X105085267Y-70780589D01*
X105151773Y-70755741D01*
X105199658Y-70762589D01*
G37*
G04 #@! TD.AperFunction*
G04 #@! TA.AperFunction,Conductor*
G36*
X91109956Y-71491002D02*
G01*
X91156449Y-71544658D01*
X91166553Y-71614932D01*
X91149095Y-71663115D01*
X91125090Y-71702059D01*
X91118944Y-71715241D01*
X91068685Y-71866766D01*
X91065819Y-71880132D01*
X91056328Y-71972770D01*
X91056000Y-71979185D01*
X91056000Y-71990885D01*
X91060475Y-72006124D01*
X91061865Y-72007329D01*
X91069548Y-72009000D01*
X92229500Y-72009000D01*
X92297621Y-72029002D01*
X92344114Y-72082658D01*
X92355500Y-72135000D01*
X92355500Y-73827510D01*
X92335498Y-73895631D01*
X92281842Y-73942124D01*
X92229500Y-73953510D01*
X91973500Y-73953510D01*
X91905379Y-73933508D01*
X91858886Y-73879852D01*
X91847500Y-73827510D01*
X91847500Y-72535115D01*
X91843025Y-72519876D01*
X91841635Y-72518671D01*
X91833952Y-72517000D01*
X91074115Y-72517000D01*
X91058876Y-72521475D01*
X91057671Y-72522865D01*
X91056000Y-72530548D01*
X91056000Y-72546766D01*
X91056337Y-72553282D01*
X91066075Y-72647132D01*
X91068968Y-72660528D01*
X91119488Y-72811953D01*
X91125653Y-72825115D01*
X91208235Y-72958568D01*
X91227072Y-73027020D01*
X91208350Y-73090985D01*
X91200481Y-73103751D01*
X91147709Y-73151245D01*
X91077638Y-73162669D01*
X91012514Y-73134395D01*
X91004126Y-73126731D01*
X89834350Y-71956955D01*
X89800324Y-71894643D01*
X89805389Y-71823828D01*
X89814325Y-71804861D01*
X89816659Y-71800818D01*
X89821686Y-71794267D01*
X89824846Y-71786638D01*
X89824847Y-71786637D01*
X89877321Y-71659953D01*
X89880481Y-71652324D01*
X89888836Y-71588865D01*
X89889930Y-71580553D01*
X89918653Y-71515626D01*
X89977918Y-71476535D01*
X90014852Y-71471000D01*
X91041835Y-71471000D01*
X91109956Y-71491002D01*
G37*
G04 #@! TD.AperFunction*
G04 #@! TA.AperFunction,Conductor*
G36*
X116248628Y-67225739D02*
G01*
X116285080Y-67248209D01*
X116450191Y-67302974D01*
X116457027Y-67303674D01*
X116457030Y-67303675D01*
X116508526Y-67308951D01*
X116552928Y-67313500D01*
X117127072Y-67313500D01*
X117130318Y-67313163D01*
X117130322Y-67313163D01*
X117224235Y-67303419D01*
X117224239Y-67303418D01*
X117231093Y-67302707D01*
X117237629Y-67300526D01*
X117237631Y-67300526D01*
X117386599Y-67250826D01*
X117396107Y-67247654D01*
X117431332Y-67225856D01*
X117497635Y-67207000D01*
X117712867Y-67207000D01*
X117780988Y-67227002D01*
X117801962Y-67243905D01*
X118051323Y-67493266D01*
X118085349Y-67555578D01*
X118088228Y-67582361D01*
X118088228Y-69619575D01*
X118086677Y-69639285D01*
X118084554Y-69652690D01*
X118084899Y-69659278D01*
X118084899Y-69659282D01*
X118088055Y-69719499D01*
X118088228Y-69726093D01*
X118088228Y-69746120D01*
X118088572Y-69749391D01*
X118088572Y-69749395D01*
X118090321Y-69766039D01*
X118090838Y-69772613D01*
X118093665Y-69826562D01*
X118094339Y-69839415D01*
X118096048Y-69845792D01*
X118096048Y-69845793D01*
X118097852Y-69852523D01*
X118101456Y-69871970D01*
X118102873Y-69885456D01*
X118115356Y-69923875D01*
X118123546Y-69949082D01*
X118125419Y-69955406D01*
X118142734Y-70020024D01*
X118148895Y-70032116D01*
X118156458Y-70050375D01*
X118160653Y-70063285D01*
X118181866Y-70100027D01*
X118194104Y-70121224D01*
X118197251Y-70127020D01*
X118227621Y-70186625D01*
X118231776Y-70191756D01*
X118231778Y-70191759D01*
X118236158Y-70197167D01*
X118247357Y-70213462D01*
X118250840Y-70219495D01*
X118250843Y-70219499D01*
X118254143Y-70225215D01*
X118258558Y-70230118D01*
X118258560Y-70230121D01*
X118298903Y-70274925D01*
X118303191Y-70279946D01*
X118315791Y-70295506D01*
X118329938Y-70309653D01*
X118334479Y-70314437D01*
X118371223Y-70355245D01*
X118379258Y-70364169D01*
X118390246Y-70372152D01*
X118405274Y-70384989D01*
X119240595Y-71220310D01*
X119274621Y-71282622D01*
X119277500Y-71309405D01*
X119277500Y-71360367D01*
X119257498Y-71428488D01*
X119203842Y-71474981D01*
X119133568Y-71485085D01*
X119068988Y-71455591D01*
X119062405Y-71449462D01*
X118541489Y-70928546D01*
X118528652Y-70913518D01*
X118520669Y-70902530D01*
X118497791Y-70881930D01*
X118470937Y-70857751D01*
X118466153Y-70853210D01*
X118452006Y-70839063D01*
X118447354Y-70835296D01*
X118436446Y-70826463D01*
X118431425Y-70822175D01*
X118386619Y-70781830D01*
X118386615Y-70781827D01*
X118381715Y-70777415D01*
X118376005Y-70774119D01*
X118376002Y-70774116D01*
X118369955Y-70770625D01*
X118353670Y-70759432D01*
X118343125Y-70750893D01*
X118283520Y-70720523D01*
X118277724Y-70717376D01*
X118271975Y-70714057D01*
X118219785Y-70683925D01*
X118206875Y-70679730D01*
X118188616Y-70672167D01*
X118176524Y-70666006D01*
X118111906Y-70648691D01*
X118105582Y-70646818D01*
X118079886Y-70638469D01*
X118041956Y-70626145D01*
X118035389Y-70625455D01*
X118035385Y-70625454D01*
X118029712Y-70624858D01*
X118028470Y-70624728D01*
X118009028Y-70621125D01*
X117995915Y-70617611D01*
X117989318Y-70617265D01*
X117989316Y-70617265D01*
X117929113Y-70614110D01*
X117922539Y-70613593D01*
X117905895Y-70611844D01*
X117905891Y-70611844D01*
X117902620Y-70611500D01*
X117882593Y-70611500D01*
X117875999Y-70611327D01*
X117815782Y-70608171D01*
X117815778Y-70608171D01*
X117809190Y-70607826D01*
X117802675Y-70608858D01*
X117802673Y-70608858D01*
X117795786Y-70609949D01*
X117776075Y-70611500D01*
X116285380Y-70611500D01*
X116175197Y-70623081D01*
X116152608Y-70625455D01*
X116152607Y-70625455D01*
X116146044Y-70626145D01*
X116139766Y-70628185D01*
X116139765Y-70628185D01*
X116087143Y-70645283D01*
X115968215Y-70683925D01*
X115806285Y-70777415D01*
X115801378Y-70781833D01*
X115801377Y-70781834D01*
X115785824Y-70795838D01*
X115679943Y-70891174D01*
X115615937Y-70921890D01*
X115545484Y-70913127D01*
X115506538Y-70886632D01*
X115308351Y-70688444D01*
X115024639Y-70404732D01*
X115017105Y-70396453D01*
X115012992Y-70389972D01*
X114963340Y-70343346D01*
X114960499Y-70340592D01*
X114940762Y-70320855D01*
X114937565Y-70318375D01*
X114928543Y-70310670D01*
X114923974Y-70306379D01*
X114896313Y-70280404D01*
X114889367Y-70276585D01*
X114889364Y-70276583D01*
X114878558Y-70270642D01*
X114862039Y-70259791D01*
X114858206Y-70256818D01*
X114846033Y-70247376D01*
X114838764Y-70244231D01*
X114838760Y-70244228D01*
X114805455Y-70229816D01*
X114794805Y-70224599D01*
X114756052Y-70203295D01*
X114746651Y-70200881D01*
X114740415Y-70199280D01*
X114736429Y-70198257D01*
X114717726Y-70191853D01*
X114706412Y-70186957D01*
X114706411Y-70186957D01*
X114699137Y-70183809D01*
X114691314Y-70182570D01*
X114691304Y-70182567D01*
X114655468Y-70176891D01*
X114643848Y-70174485D01*
X114608703Y-70165462D01*
X114608702Y-70165462D01*
X114601022Y-70163490D01*
X114580768Y-70163490D01*
X114561057Y-70161939D01*
X114548878Y-70160010D01*
X114541049Y-70158770D01*
X114511778Y-70161537D01*
X114497031Y-70162931D01*
X114485173Y-70163490D01*
X113304778Y-70163490D01*
X113293595Y-70162963D01*
X113286102Y-70161288D01*
X113278176Y-70161537D01*
X113278175Y-70161537D01*
X113218012Y-70163428D01*
X113214054Y-70163490D01*
X113186154Y-70163490D01*
X113182164Y-70163994D01*
X113170330Y-70164926D01*
X113126121Y-70166316D01*
X113118505Y-70168529D01*
X113118503Y-70168529D01*
X113106662Y-70171969D01*
X113087303Y-70175978D01*
X113085993Y-70176144D01*
X113067213Y-70178516D01*
X113059847Y-70181432D01*
X113059841Y-70181434D01*
X113026108Y-70194790D01*
X113014878Y-70198635D01*
X112985703Y-70207111D01*
X112972417Y-70210971D01*
X112965594Y-70215006D01*
X112954976Y-70221285D01*
X112937223Y-70229982D01*
X112930864Y-70232500D01*
X112918393Y-70237438D01*
X112908300Y-70244771D01*
X112882622Y-70263427D01*
X112872705Y-70269941D01*
X112834648Y-70292448D01*
X112820327Y-70306769D01*
X112805294Y-70319609D01*
X112788903Y-70331518D01*
X112762526Y-70363403D01*
X112760722Y-70365583D01*
X112752732Y-70374364D01*
X112314509Y-70812586D01*
X112252197Y-70846611D01*
X112225414Y-70849490D01*
X112016500Y-70849490D01*
X111948379Y-70829488D01*
X111901886Y-70775832D01*
X111890500Y-70723490D01*
X111890500Y-70324928D01*
X111890084Y-70320914D01*
X111880419Y-70227765D01*
X111880418Y-70227761D01*
X111879707Y-70220907D01*
X111876392Y-70210971D01*
X111826970Y-70062834D01*
X111826969Y-70062832D01*
X111824654Y-70055893D01*
X111820802Y-70049669D01*
X111817814Y-70043290D01*
X111807028Y-69973118D01*
X111835893Y-69908254D01*
X111862038Y-69891273D01*
X111860578Y-69889461D01*
X111866187Y-69884941D01*
X111872166Y-69882464D01*
X111871518Y-69881572D01*
X111871519Y-69881571D01*
X111907283Y-69855587D01*
X111917205Y-69849069D01*
X111948438Y-69830598D01*
X111948440Y-69830597D01*
X111955262Y-69826562D01*
X111969583Y-69812241D01*
X111984617Y-69799400D01*
X111990300Y-69795271D01*
X112001007Y-69787492D01*
X112002338Y-69785884D01*
X112006050Y-69781397D01*
X112006053Y-69781394D01*
X112029195Y-69753420D01*
X112037185Y-69744639D01*
X112310262Y-69471562D01*
X112372574Y-69437536D01*
X112443275Y-69442559D01*
X112588178Y-69496448D01*
X112672005Y-69507633D01*
X112760990Y-69519507D01*
X112760994Y-69519507D01*
X112767971Y-69520438D01*
X112774982Y-69519800D01*
X112774986Y-69519800D01*
X112917469Y-69506832D01*
X112948610Y-69503998D01*
X112955312Y-69501820D01*
X112955314Y-69501820D01*
X113114419Y-69450124D01*
X113114422Y-69450123D01*
X113121118Y-69447947D01*
X113232730Y-69381413D01*
X113270870Y-69358677D01*
X113270872Y-69358676D01*
X113276922Y-69355069D01*
X113408276Y-69229982D01*
X113508653Y-69078902D01*
X113573065Y-68909338D01*
X113580115Y-68859173D01*
X113597758Y-68733639D01*
X113597758Y-68733636D01*
X113598309Y-68729717D01*
X113598626Y-68707000D01*
X113578407Y-68526745D01*
X113565858Y-68490709D01*
X113521074Y-68362106D01*
X113521072Y-68362103D01*
X113518755Y-68355448D01*
X113505281Y-68333885D01*
X113461156Y-68263269D01*
X113442020Y-68194900D01*
X113462886Y-68127039D01*
X113517127Y-68081231D01*
X113568010Y-68070500D01*
X113586233Y-68070500D01*
X113597416Y-68071027D01*
X113604909Y-68072702D01*
X113612835Y-68072453D01*
X113612836Y-68072453D01*
X113672986Y-68070562D01*
X113676945Y-68070500D01*
X113704856Y-68070500D01*
X113708791Y-68070003D01*
X113708856Y-68069995D01*
X113720693Y-68069062D01*
X113752951Y-68068048D01*
X113756970Y-68067922D01*
X113764889Y-68067673D01*
X113784343Y-68062021D01*
X113803700Y-68058013D01*
X113815930Y-68056468D01*
X113815931Y-68056468D01*
X113823797Y-68055474D01*
X113831168Y-68052555D01*
X113831170Y-68052555D01*
X113864912Y-68039196D01*
X113876142Y-68035351D01*
X113910983Y-68025229D01*
X113910984Y-68025229D01*
X113918593Y-68023018D01*
X113925412Y-68018985D01*
X113925417Y-68018983D01*
X113936028Y-68012707D01*
X113953776Y-68004012D01*
X113972617Y-67996552D01*
X114008387Y-67970563D01*
X114018305Y-67964049D01*
X114049538Y-67945578D01*
X114049540Y-67945577D01*
X114056362Y-67941542D01*
X114070683Y-67927221D01*
X114085717Y-67914380D01*
X114095694Y-67907131D01*
X114102107Y-67902472D01*
X114130298Y-67868395D01*
X114138288Y-67859616D01*
X114650463Y-67347441D01*
X114712775Y-67313415D01*
X114752400Y-67311192D01*
X114757906Y-67311756D01*
X114774928Y-67313500D01*
X115349072Y-67313500D01*
X115352318Y-67313163D01*
X115352322Y-67313163D01*
X115446235Y-67303419D01*
X115446239Y-67303418D01*
X115453093Y-67302707D01*
X115459629Y-67300526D01*
X115459631Y-67300526D01*
X115608599Y-67250826D01*
X115618107Y-67247654D01*
X115653332Y-67225856D01*
X115719635Y-67207000D01*
X116182513Y-67207000D01*
X116248628Y-67225739D01*
G37*
G04 #@! TD.AperFunction*
G04 #@! TA.AperFunction,Conductor*
G36*
X123318611Y-68705502D02*
G01*
X123365104Y-68759158D01*
X123376490Y-68811500D01*
X123376490Y-70106500D01*
X123356488Y-70174621D01*
X123302832Y-70221114D01*
X123250490Y-70232500D01*
X120820861Y-70232500D01*
X120752740Y-70212498D01*
X120731766Y-70195595D01*
X119904133Y-69367962D01*
X119870107Y-69305650D01*
X119867228Y-69278867D01*
X119867228Y-68811500D01*
X119887230Y-68743379D01*
X119940886Y-68696886D01*
X119993228Y-68685500D01*
X123250490Y-68685500D01*
X123318611Y-68705502D01*
G37*
G04 #@! TD.AperFunction*
G04 #@! TA.AperFunction,Conductor*
G36*
X125263726Y-68875518D02*
G01*
X125325684Y-68898745D01*
X125387866Y-68905500D01*
X131697405Y-68905500D01*
X131765526Y-68925502D01*
X131812019Y-68979158D01*
X131822123Y-69049432D01*
X131792629Y-69114012D01*
X131786504Y-69120591D01*
X131361500Y-69545595D01*
X131299188Y-69579620D01*
X131272405Y-69582499D01*
X125254766Y-69582499D01*
X125243583Y-69581972D01*
X125236090Y-69580297D01*
X125228164Y-69580546D01*
X125228163Y-69580546D01*
X125223458Y-69580694D01*
X125154743Y-69562842D01*
X125106587Y-69510673D01*
X125093500Y-69454756D01*
X125093500Y-68993501D01*
X125113502Y-68925380D01*
X125167158Y-68878887D01*
X125237432Y-68868783D01*
X125263726Y-68875518D01*
G37*
G04 #@! TD.AperFunction*
G04 #@! TA.AperFunction,Conductor*
G36*
X88119669Y-63757962D02*
G01*
X88119670Y-63757962D01*
X88123756Y-63758500D01*
X88227768Y-63758500D01*
X88295889Y-63778502D01*
X88342382Y-63832158D01*
X88353167Y-63872204D01*
X88358163Y-63923160D01*
X88361499Y-63933188D01*
X88361580Y-63935460D01*
X88361851Y-63936735D01*
X88361627Y-63936783D01*
X88364024Y-64004138D01*
X88331037Y-64062058D01*
X87949908Y-64443187D01*
X87887596Y-64477213D01*
X87873986Y-64479402D01*
X87865210Y-64480324D01*
X87843288Y-64482628D01*
X87843286Y-64482628D01*
X87836288Y-64483364D01*
X87664579Y-64541818D01*
X87638016Y-64558160D01*
X87516095Y-64633166D01*
X87516092Y-64633168D01*
X87510088Y-64636862D01*
X87505053Y-64641793D01*
X87505050Y-64641795D01*
X87385525Y-64758843D01*
X87380493Y-64763771D01*
X87318498Y-64859969D01*
X87288468Y-64906567D01*
X87282235Y-64916238D01*
X87279826Y-64922858D01*
X87279824Y-64922861D01*
X87229408Y-65061379D01*
X87220197Y-65086685D01*
X87197463Y-65266640D01*
X87215163Y-65447160D01*
X87272418Y-65619273D01*
X87276065Y-65625295D01*
X87276066Y-65625297D01*
X87357361Y-65759531D01*
X87366380Y-65774424D01*
X87371269Y-65779487D01*
X87371270Y-65779488D01*
X87400223Y-65809469D01*
X87492382Y-65904902D01*
X87498278Y-65908760D01*
X87610497Y-65982194D01*
X87644159Y-66004222D01*
X87650763Y-66006678D01*
X87650765Y-66006679D01*
X87807558Y-66064990D01*
X87807560Y-66064990D01*
X87814168Y-66067448D01*
X87897995Y-66078633D01*
X87986980Y-66090507D01*
X87986984Y-66090507D01*
X87993961Y-66091438D01*
X88000972Y-66090800D01*
X88000976Y-66090800D01*
X88156536Y-66076642D01*
X88174600Y-66074998D01*
X88181302Y-66072820D01*
X88181304Y-66072820D01*
X88340409Y-66021124D01*
X88340412Y-66021123D01*
X88347108Y-66018947D01*
X88454875Y-65954705D01*
X88496860Y-65929677D01*
X88496862Y-65929676D01*
X88502912Y-65926069D01*
X88634266Y-65800982D01*
X88734643Y-65649902D01*
X88799055Y-65480338D01*
X88802779Y-65453844D01*
X88808639Y-65412145D01*
X88837927Y-65347471D01*
X88844318Y-65340586D01*
X89089499Y-65095405D01*
X89151811Y-65061379D01*
X89178594Y-65058500D01*
X89293166Y-65058500D01*
X89361287Y-65078502D01*
X89407780Y-65132158D01*
X89418088Y-65200946D01*
X89408779Y-65271657D01*
X89403500Y-65311756D01*
X89403500Y-65538244D01*
X89404038Y-65542330D01*
X89404038Y-65542331D01*
X89418519Y-65652324D01*
X89416974Y-65652527D01*
X89416974Y-65697473D01*
X89418519Y-65697676D01*
X89403500Y-65811756D01*
X89403500Y-66038244D01*
X89404038Y-66042330D01*
X89404038Y-66042331D01*
X89418519Y-66152324D01*
X89416974Y-66152527D01*
X89416974Y-66197473D01*
X89418519Y-66197676D01*
X89412195Y-66245715D01*
X89403500Y-66311756D01*
X89403500Y-66498122D01*
X89383498Y-66566243D01*
X89329842Y-66612736D01*
X89286532Y-66621998D01*
X89286680Y-66623404D01*
X89113288Y-66641628D01*
X89113286Y-66641629D01*
X89106288Y-66642364D01*
X88934579Y-66700818D01*
X88928575Y-66704512D01*
X88786095Y-66792166D01*
X88786092Y-66792168D01*
X88780088Y-66795862D01*
X88775053Y-66800793D01*
X88775050Y-66800795D01*
X88694073Y-66880094D01*
X88650493Y-66922771D01*
X88552235Y-67075238D01*
X88549826Y-67081858D01*
X88549824Y-67081861D01*
X88492606Y-67239066D01*
X88490197Y-67245685D01*
X88467463Y-67425640D01*
X88468151Y-67432656D01*
X88469423Y-67445636D01*
X88456162Y-67515383D01*
X88407298Y-67566889D01*
X88338346Y-67583801D01*
X88271195Y-67560749D01*
X88254929Y-67547024D01*
X88133652Y-67425747D01*
X88126112Y-67417461D01*
X88122000Y-67410982D01*
X88072348Y-67364356D01*
X88069507Y-67361602D01*
X88049770Y-67341865D01*
X88046573Y-67339385D01*
X88037551Y-67331680D01*
X88018191Y-67313500D01*
X88005321Y-67301414D01*
X87998375Y-67297595D01*
X87998372Y-67297593D01*
X87987566Y-67291652D01*
X87971047Y-67280801D01*
X87970583Y-67280441D01*
X87955041Y-67268386D01*
X87947772Y-67265241D01*
X87947768Y-67265238D01*
X87914463Y-67250826D01*
X87903813Y-67245609D01*
X87865060Y-67224305D01*
X87845437Y-67219267D01*
X87826734Y-67212863D01*
X87815420Y-67207967D01*
X87815419Y-67207967D01*
X87808145Y-67204819D01*
X87800322Y-67203580D01*
X87800312Y-67203577D01*
X87764476Y-67197901D01*
X87752856Y-67195495D01*
X87717711Y-67186472D01*
X87717710Y-67186472D01*
X87710030Y-67184500D01*
X87689776Y-67184500D01*
X87670065Y-67182949D01*
X87657886Y-67181020D01*
X87650057Y-67179780D01*
X87642165Y-67180526D01*
X87606039Y-67183941D01*
X87594181Y-67184500D01*
X84748869Y-67184500D01*
X84680748Y-67164498D01*
X84634255Y-67110842D01*
X84624151Y-67040568D01*
X84653645Y-66975988D01*
X84664559Y-66964863D01*
X84667126Y-66962552D01*
X84672470Y-66958669D01*
X84797585Y-66819715D01*
X84819594Y-66781595D01*
X84887771Y-66663508D01*
X84887772Y-66663507D01*
X84891075Y-66657785D01*
X84928437Y-66542795D01*
X84946815Y-66486235D01*
X84946815Y-66486234D01*
X84948855Y-66479956D01*
X84963500Y-66340620D01*
X84963500Y-64596380D01*
X84948855Y-64457044D01*
X84891075Y-64279215D01*
X84866536Y-64236711D01*
X84800888Y-64123006D01*
X84797585Y-64117285D01*
X84780892Y-64098745D01*
X84703196Y-64012456D01*
X84672470Y-63978331D01*
X84670428Y-63976848D01*
X84633983Y-63917690D01*
X84635335Y-63846706D01*
X84674849Y-63787722D01*
X84739979Y-63759464D01*
X84755533Y-63758500D01*
X84850244Y-63758500D01*
X84854330Y-63757962D01*
X84854331Y-63757962D01*
X84964324Y-63743481D01*
X84964527Y-63745026D01*
X85009473Y-63745026D01*
X85009676Y-63743481D01*
X85119669Y-63757962D01*
X85119670Y-63757962D01*
X85123756Y-63758500D01*
X85350244Y-63758500D01*
X85354330Y-63757962D01*
X85354331Y-63757962D01*
X85464324Y-63743481D01*
X85464527Y-63745026D01*
X85509473Y-63745026D01*
X85509676Y-63743481D01*
X85619669Y-63757962D01*
X85619670Y-63757962D01*
X85623756Y-63758500D01*
X85850244Y-63758500D01*
X85854330Y-63757962D01*
X85854331Y-63757962D01*
X85964324Y-63743481D01*
X85964527Y-63745026D01*
X86009473Y-63745026D01*
X86009676Y-63743481D01*
X86119669Y-63757962D01*
X86119670Y-63757962D01*
X86123756Y-63758500D01*
X86350244Y-63758500D01*
X86354330Y-63757962D01*
X86354331Y-63757962D01*
X86464324Y-63743481D01*
X86464527Y-63745026D01*
X86509473Y-63745026D01*
X86509676Y-63743481D01*
X86619669Y-63757962D01*
X86619670Y-63757962D01*
X86623756Y-63758500D01*
X86850244Y-63758500D01*
X86854330Y-63757962D01*
X86854331Y-63757962D01*
X86964324Y-63743481D01*
X86964527Y-63745026D01*
X87009473Y-63745026D01*
X87009676Y-63743481D01*
X87119669Y-63757962D01*
X87119670Y-63757962D01*
X87123756Y-63758500D01*
X87350244Y-63758500D01*
X87354330Y-63757962D01*
X87354331Y-63757962D01*
X87464324Y-63743481D01*
X87464527Y-63745026D01*
X87509473Y-63745026D01*
X87509676Y-63743481D01*
X87619669Y-63757962D01*
X87619670Y-63757962D01*
X87623756Y-63758500D01*
X87850244Y-63758500D01*
X87854330Y-63757962D01*
X87854331Y-63757962D01*
X87964324Y-63743481D01*
X87964527Y-63745026D01*
X88009473Y-63745026D01*
X88009676Y-63743481D01*
X88119669Y-63757962D01*
G37*
G04 #@! TD.AperFunction*
G04 #@! TA.AperFunction,Conductor*
G36*
X94426621Y-66586502D02*
G01*
X94473114Y-66640158D01*
X94484500Y-66692500D01*
X94484500Y-66765480D01*
X94464498Y-66833601D01*
X94410842Y-66880094D01*
X94358500Y-66891480D01*
X94001575Y-66891480D01*
X93933454Y-66871478D01*
X93912480Y-66854575D01*
X93839500Y-66781595D01*
X93805474Y-66719283D01*
X93810539Y-66648468D01*
X93853086Y-66591632D01*
X93919606Y-66566821D01*
X93928595Y-66566500D01*
X94358500Y-66566500D01*
X94426621Y-66586502D01*
G37*
G04 #@! TD.AperFunction*
G04 #@! TA.AperFunction,Conductor*
G36*
X123318611Y-64125502D02*
G01*
X123365104Y-64179158D01*
X123376490Y-64231500D01*
X123376490Y-65542500D01*
X123356488Y-65610621D01*
X123302832Y-65657114D01*
X123250490Y-65668500D01*
X121080633Y-65668500D01*
X121012512Y-65648498D01*
X120991538Y-65631595D01*
X119680538Y-64320595D01*
X119646512Y-64258283D01*
X119651577Y-64187468D01*
X119694124Y-64130632D01*
X119760644Y-64105821D01*
X119769633Y-64105500D01*
X123250490Y-64105500D01*
X123318611Y-64125502D01*
G37*
G04 #@! TD.AperFunction*
G04 #@! TA.AperFunction,Conductor*
G36*
X114470850Y-61015138D02*
G01*
X114515937Y-61044059D01*
X114618812Y-61146754D01*
X114618817Y-61146758D01*
X114623997Y-61151929D01*
X114630227Y-61155769D01*
X114630228Y-61155770D01*
X114757144Y-61234002D01*
X114772080Y-61243209D01*
X114937191Y-61297974D01*
X114944027Y-61298674D01*
X114944030Y-61298675D01*
X114995526Y-61303951D01*
X115039928Y-61308500D01*
X115200928Y-61308500D01*
X115269049Y-61328502D01*
X115315542Y-61382158D01*
X115325646Y-61452432D01*
X115324175Y-61460696D01*
X115315500Y-61501510D01*
X115315500Y-61688490D01*
X115316872Y-61694943D01*
X115316872Y-61694947D01*
X115330393Y-61758557D01*
X115354375Y-61871385D01*
X115357060Y-61877414D01*
X115357060Y-61877416D01*
X115420034Y-62018856D01*
X115430427Y-62042200D01*
X115434307Y-62047541D01*
X115434308Y-62047542D01*
X115456074Y-62077500D01*
X115540331Y-62193470D01*
X115545233Y-62197883D01*
X115545234Y-62197885D01*
X115654185Y-62295985D01*
X115679285Y-62318585D01*
X115685006Y-62321888D01*
X115810073Y-62394095D01*
X115841215Y-62412075D01*
X115847501Y-62414117D01*
X115847500Y-62414117D01*
X116012765Y-62467815D01*
X116012766Y-62467815D01*
X116019044Y-62469855D01*
X116025607Y-62470545D01*
X116025608Y-62470545D01*
X116048197Y-62472919D01*
X116158380Y-62484500D01*
X117435367Y-62484500D01*
X117503488Y-62504502D01*
X117524462Y-62521405D01*
X117691595Y-62688538D01*
X117725621Y-62750850D01*
X117728500Y-62777633D01*
X117728500Y-63542318D01*
X117708498Y-63610439D01*
X117654842Y-63656932D01*
X117584568Y-63667036D01*
X117536385Y-63649578D01*
X117400941Y-63566090D01*
X117387759Y-63559944D01*
X117236234Y-63509685D01*
X117222868Y-63506819D01*
X117130230Y-63497328D01*
X117123815Y-63497000D01*
X117112115Y-63497000D01*
X117096876Y-63501475D01*
X117095671Y-63502865D01*
X117094000Y-63510548D01*
X117094000Y-64620500D01*
X117073998Y-64688621D01*
X117020342Y-64735114D01*
X116968000Y-64746500D01*
X116712000Y-64746500D01*
X116643879Y-64726498D01*
X116597386Y-64672842D01*
X116586000Y-64620500D01*
X116586000Y-64161717D01*
X116588529Y-64161717D01*
X116587993Y-64158540D01*
X116586701Y-64158581D01*
X116586062Y-64138250D01*
X116586000Y-64134292D01*
X116586000Y-63515115D01*
X116581525Y-63499876D01*
X116580135Y-63498671D01*
X116572452Y-63497000D01*
X116556234Y-63497000D01*
X116549718Y-63497337D01*
X116455868Y-63507075D01*
X116442472Y-63509968D01*
X116378326Y-63531369D01*
X116307377Y-63533953D01*
X116249355Y-63500940D01*
X116036152Y-63287737D01*
X116028612Y-63279451D01*
X116024500Y-63272972D01*
X115974848Y-63226346D01*
X115972007Y-63223592D01*
X115952270Y-63203855D01*
X115949073Y-63201375D01*
X115940051Y-63193670D01*
X115939169Y-63192842D01*
X115907821Y-63163404D01*
X115900875Y-63159585D01*
X115900872Y-63159583D01*
X115890066Y-63153642D01*
X115873547Y-63142791D01*
X115867677Y-63138238D01*
X115857541Y-63130376D01*
X115850272Y-63127231D01*
X115850268Y-63127228D01*
X115816963Y-63112816D01*
X115806313Y-63107599D01*
X115767560Y-63086295D01*
X115747937Y-63081257D01*
X115729234Y-63074853D01*
X115717920Y-63069957D01*
X115717919Y-63069957D01*
X115710645Y-63066809D01*
X115702822Y-63065570D01*
X115702812Y-63065567D01*
X115666976Y-63059891D01*
X115655356Y-63057485D01*
X115620211Y-63048462D01*
X115620210Y-63048462D01*
X115612530Y-63046490D01*
X115592276Y-63046490D01*
X115572565Y-63044939D01*
X115570621Y-63044631D01*
X115552557Y-63041770D01*
X115544665Y-63042516D01*
X115508539Y-63045931D01*
X115496681Y-63046490D01*
X114794585Y-63046490D01*
X114726464Y-63026488D01*
X114705489Y-63009585D01*
X114184904Y-62488999D01*
X114150879Y-62426687D01*
X114148000Y-62399904D01*
X114148000Y-61272699D01*
X114168002Y-61204578D01*
X114207699Y-61165554D01*
X114231031Y-61151116D01*
X114254455Y-61127651D01*
X114337747Y-61044214D01*
X114400030Y-61010135D01*
X114470850Y-61015138D01*
G37*
G04 #@! TD.AperFunction*
G04 #@! TA.AperFunction,Conductor*
G36*
X94512798Y-58898252D02*
G01*
X94539491Y-58943573D01*
X94546484Y-58964531D01*
X94550346Y-58976107D01*
X94636648Y-59115569D01*
X94655485Y-59184019D01*
X94636763Y-59247986D01*
X94636252Y-59248815D01*
X94554364Y-59381662D01*
X94549791Y-59389080D01*
X94495026Y-59554191D01*
X94494326Y-59561027D01*
X94494325Y-59561030D01*
X94491391Y-59589672D01*
X94484500Y-59656928D01*
X94484500Y-60231072D01*
X94484837Y-60234318D01*
X94484837Y-60234322D01*
X94494324Y-60325751D01*
X94495293Y-60335093D01*
X94497474Y-60341629D01*
X94497474Y-60341631D01*
X94518918Y-60405907D01*
X94550346Y-60500107D01*
X94608411Y-60593939D01*
X94636941Y-60640043D01*
X94655779Y-60708495D01*
X94637057Y-60772462D01*
X94554088Y-60907063D01*
X94547944Y-60920241D01*
X94497685Y-61071766D01*
X94494819Y-61085132D01*
X94485328Y-61177770D01*
X94485000Y-61184185D01*
X94485000Y-61195885D01*
X94489475Y-61211124D01*
X94490865Y-61212329D01*
X94498548Y-61214000D01*
X95658500Y-61214000D01*
X95726621Y-61234002D01*
X95773114Y-61287658D01*
X95784500Y-61340000D01*
X95784500Y-62394095D01*
X95764498Y-62462216D01*
X95753725Y-62476607D01*
X95736171Y-62496865D01*
X95734500Y-62504548D01*
X95734500Y-63120000D01*
X95714498Y-63188121D01*
X95660842Y-63234614D01*
X95608500Y-63246000D01*
X94547095Y-63246000D01*
X94478974Y-63225998D01*
X94457999Y-63209095D01*
X94258490Y-63009585D01*
X94015404Y-62766499D01*
X93989951Y-62719885D01*
X94485000Y-62719885D01*
X94489475Y-62735124D01*
X94490865Y-62736329D01*
X94498548Y-62738000D01*
X95208385Y-62738000D01*
X95223624Y-62733525D01*
X95224829Y-62732135D01*
X95226500Y-62724452D01*
X95226500Y-62065905D01*
X95246502Y-61997784D01*
X95257275Y-61983393D01*
X95274829Y-61963135D01*
X95276500Y-61955452D01*
X95276500Y-61740115D01*
X95272025Y-61724876D01*
X95270635Y-61723671D01*
X95262952Y-61722000D01*
X94503115Y-61722000D01*
X94487876Y-61726475D01*
X94486671Y-61727865D01*
X94485000Y-61735548D01*
X94485000Y-61751766D01*
X94485337Y-61758282D01*
X94495075Y-61852132D01*
X94497968Y-61865528D01*
X94548488Y-62016953D01*
X94554653Y-62030115D01*
X94637235Y-62163568D01*
X94656072Y-62232020D01*
X94637350Y-62295985D01*
X94554090Y-62431059D01*
X94547944Y-62444241D01*
X94497685Y-62595766D01*
X94494819Y-62609132D01*
X94485328Y-62701770D01*
X94485000Y-62708185D01*
X94485000Y-62719885D01*
X93989951Y-62719885D01*
X93981379Y-62704187D01*
X93978500Y-62677404D01*
X93978500Y-61093101D01*
X93978499Y-59670596D01*
X93979026Y-59659413D01*
X93980701Y-59651920D01*
X93980422Y-59643026D01*
X93978561Y-59583830D01*
X93978499Y-59579872D01*
X93978499Y-59551973D01*
X93977995Y-59547982D01*
X93977062Y-59536139D01*
X93976822Y-59528477D01*
X93975673Y-59491939D01*
X93970019Y-59472478D01*
X93966011Y-59453122D01*
X93965123Y-59446093D01*
X93963473Y-59433032D01*
X93947200Y-59391930D01*
X93943356Y-59380702D01*
X93933230Y-59345852D01*
X93933229Y-59345850D01*
X93931017Y-59338236D01*
X93926983Y-59331414D01*
X93926980Y-59331408D01*
X93920705Y-59320797D01*
X93912009Y-59303047D01*
X93907471Y-59291585D01*
X93907468Y-59291580D01*
X93904551Y-59284212D01*
X93878572Y-59248454D01*
X93872056Y-59238536D01*
X93853574Y-59207286D01*
X93849541Y-59200466D01*
X93835217Y-59186142D01*
X93822375Y-59171107D01*
X93819309Y-59166887D01*
X93810471Y-59154722D01*
X93776398Y-59126534D01*
X93767632Y-59118556D01*
X93731082Y-59082006D01*
X93697056Y-59019694D01*
X93702121Y-58948879D01*
X93744668Y-58892043D01*
X93811188Y-58867232D01*
X93864095Y-58874814D01*
X93910168Y-58891948D01*
X93993995Y-58903133D01*
X94082980Y-58915007D01*
X94082984Y-58915007D01*
X94089961Y-58915938D01*
X94096972Y-58915300D01*
X94096976Y-58915300D01*
X94239459Y-58902332D01*
X94270600Y-58899498D01*
X94277300Y-58897321D01*
X94277305Y-58897320D01*
X94381032Y-58863617D01*
X94452000Y-58861590D01*
X94512798Y-58898252D01*
G37*
G04 #@! TD.AperFunction*
G04 #@! TA.AperFunction,Conductor*
G36*
X134584051Y-62010985D02*
G01*
X134584262Y-62011115D01*
X134607601Y-62018856D01*
X134745611Y-62064632D01*
X134745613Y-62064632D01*
X134752139Y-62066797D01*
X134758975Y-62067497D01*
X134758978Y-62067498D01*
X134802031Y-62071909D01*
X134856600Y-62077500D01*
X135907400Y-62077500D01*
X135910646Y-62077163D01*
X135910650Y-62077163D01*
X136006308Y-62067238D01*
X136006312Y-62067237D01*
X136013166Y-62066526D01*
X136019703Y-62064345D01*
X136019708Y-62064344D01*
X136066911Y-62048596D01*
X136137860Y-62046012D01*
X136198944Y-62082196D01*
X136230768Y-62145661D01*
X136229443Y-62194516D01*
X136228255Y-62197684D01*
X136227402Y-62205532D01*
X136227402Y-62205534D01*
X136221935Y-62255861D01*
X136221500Y-62259866D01*
X136221500Y-62530999D01*
X136201498Y-62599120D01*
X136147842Y-62645613D01*
X136095500Y-62656999D01*
X133070500Y-62656999D01*
X133002379Y-62636997D01*
X132955886Y-62583341D01*
X132944500Y-62530999D01*
X132944500Y-62181064D01*
X132964502Y-62112943D01*
X133018158Y-62066450D01*
X133088432Y-62056346D01*
X133110167Y-62061471D01*
X133148026Y-62074028D01*
X133214191Y-62095974D01*
X133221027Y-62096674D01*
X133221030Y-62096675D01*
X133272526Y-62101951D01*
X133316928Y-62106500D01*
X133891072Y-62106500D01*
X133894318Y-62106163D01*
X133894322Y-62106163D01*
X133988235Y-62096419D01*
X133988239Y-62096418D01*
X133995093Y-62095707D01*
X134001629Y-62093526D01*
X134001631Y-62093526D01*
X134153159Y-62042972D01*
X134160107Y-62040654D01*
X134195332Y-62018856D01*
X134261635Y-62000000D01*
X134534498Y-62000000D01*
X134584051Y-62010985D01*
G37*
G04 #@! TD.AperFunction*
G04 #@! TA.AperFunction,Conductor*
G36*
X80626012Y-61616274D02*
G01*
X80643057Y-61634268D01*
X80644422Y-61636028D01*
X80648458Y-61642852D01*
X80662779Y-61657173D01*
X80675619Y-61672206D01*
X80687528Y-61688597D01*
X80693633Y-61693648D01*
X80693638Y-61693653D01*
X80721604Y-61716789D01*
X80730382Y-61724777D01*
X80888595Y-61882990D01*
X80922621Y-61945302D01*
X80925500Y-61972085D01*
X80925500Y-62231000D01*
X80905498Y-62299121D01*
X80851842Y-62345614D01*
X80799500Y-62357000D01*
X80683137Y-62357000D01*
X80640871Y-62349699D01*
X80590405Y-62331729D01*
X80583424Y-62329243D01*
X80583422Y-62329243D01*
X80576790Y-62326881D01*
X80542304Y-62322769D01*
X80528580Y-62321132D01*
X80463307Y-62293204D01*
X80423495Y-62234420D01*
X80417500Y-62196018D01*
X80417500Y-61711498D01*
X80437502Y-61643377D01*
X80491158Y-61596884D01*
X80561432Y-61586780D01*
X80626012Y-61616274D01*
G37*
G04 #@! TD.AperFunction*
G04 #@! TA.AperFunction,Conductor*
G36*
X98611898Y-58199293D02*
G01*
X98664749Y-58246699D01*
X98683580Y-58315152D01*
X98664859Y-58379109D01*
X98594864Y-58492662D01*
X98590291Y-58500080D01*
X98535526Y-58665191D01*
X98534224Y-58664759D01*
X98503967Y-58720578D01*
X98441760Y-58754795D01*
X98370929Y-58749949D01*
X98313962Y-58707578D01*
X98300084Y-58679960D01*
X98295135Y-58675671D01*
X98287452Y-58674000D01*
X97127500Y-58674000D01*
X97059379Y-58653998D01*
X97012886Y-58600342D01*
X97001500Y-58548000D01*
X97001500Y-58328510D01*
X97021502Y-58260389D01*
X97075158Y-58213896D01*
X97127500Y-58202510D01*
X98308223Y-58202510D01*
X98319406Y-58203037D01*
X98326899Y-58204712D01*
X98334825Y-58204463D01*
X98334826Y-58204463D01*
X98394976Y-58202572D01*
X98398935Y-58202510D01*
X98426846Y-58202510D01*
X98430781Y-58202013D01*
X98430846Y-58202005D01*
X98442683Y-58201072D01*
X98474941Y-58200058D01*
X98478960Y-58199932D01*
X98486879Y-58199683D01*
X98506333Y-58194031D01*
X98525678Y-58190025D01*
X98541810Y-58187986D01*
X98611898Y-58199293D01*
G37*
G04 #@! TD.AperFunction*
M02*
