G04 #@! TF.GenerationSoftware,KiCad,Pcbnew,6.0.6-1.fc36*
G04 #@! TF.CreationDate,2022-08-14T11:42:17+02:00*
G04 #@! TF.ProjectId,esc_brushless,6573635f-6272-4757-9368-6c6573732e6b,1.1.0*
G04 #@! TF.SameCoordinates,Original*
G04 #@! TF.FileFunction,Paste,Top*
G04 #@! TF.FilePolarity,Positive*
%FSLAX46Y46*%
G04 Gerber Fmt 4.6, Leading zero omitted, Abs format (unit mm)*
G04 Created by KiCad (PCBNEW 6.0.6-1.fc36) date 2022-08-14 11:42:17*
%MOMM*%
%LPD*%
G01*
G04 APERTURE LIST*
G04 Aperture macros list*
%AMRoundRect*
0 Rectangle with rounded corners*
0 $1 Rounding radius*
0 $2 $3 $4 $5 $6 $7 $8 $9 X,Y pos of 4 corners*
0 Add a 4 corners polygon primitive as box body*
4,1,4,$2,$3,$4,$5,$6,$7,$8,$9,$2,$3,0*
0 Add four circle primitives for the rounded corners*
1,1,$1+$1,$2,$3*
1,1,$1+$1,$4,$5*
1,1,$1+$1,$6,$7*
1,1,$1+$1,$8,$9*
0 Add four rect primitives between the rounded corners*
20,1,$1+$1,$2,$3,$4,$5,0*
20,1,$1+$1,$4,$5,$6,$7,0*
20,1,$1+$1,$6,$7,$8,$9,0*
20,1,$1+$1,$8,$9,$2,$3,0*%
G04 Aperture macros list end*
%ADD10RoundRect,0.250000X0.475000X-0.337500X0.475000X0.337500X-0.475000X0.337500X-0.475000X-0.337500X0*%
%ADD11RoundRect,0.249998X1.100002X-0.412502X1.100002X0.412502X-1.100002X0.412502X-1.100002X-0.412502X0*%
%ADD12RoundRect,0.237500X0.300000X0.237500X-0.300000X0.237500X-0.300000X-0.237500X0.300000X-0.237500X0*%
%ADD13RoundRect,0.237500X0.237500X-0.300000X0.237500X0.300000X-0.237500X0.300000X-0.237500X-0.300000X0*%
%ADD14RoundRect,0.237500X-0.300000X-0.237500X0.300000X-0.237500X0.300000X0.237500X-0.300000X0.237500X0*%
%ADD15RoundRect,0.218750X-0.218750X-0.256250X0.218750X-0.256250X0.218750X0.256250X-0.218750X0.256250X0*%
%ADD16R,0.450000X0.700000*%
%ADD17R,3.500000X2.000000*%
%ADD18R,3.300000X3.300000*%
%ADD19RoundRect,0.237500X-0.237500X0.250000X-0.237500X-0.250000X0.237500X-0.250000X0.237500X0.250000X0*%
%ADD20RoundRect,0.237500X-0.250000X-0.237500X0.250000X-0.237500X0.250000X0.237500X-0.250000X0.237500X0*%
%ADD21RoundRect,0.237500X0.250000X0.237500X-0.250000X0.237500X-0.250000X-0.237500X0.250000X-0.237500X0*%
%ADD22RoundRect,0.237500X0.237500X-0.250000X0.237500X0.250000X-0.237500X0.250000X-0.237500X-0.250000X0*%
%ADD23O,1.250000X1.250000*%
%ADD24R,1.550000X0.300000*%
%ADD25R,0.960000X1.030000*%
%ADD26RoundRect,0.075000X-0.075000X-0.662500X0.075000X-0.662500X0.075000X0.662500X-0.075000X0.662500X0*%
%ADD27RoundRect,0.075000X-0.662500X-0.075000X0.662500X-0.075000X0.662500X0.075000X-0.662500X0.075000X0*%
%ADD28RoundRect,0.237500X-0.237500X0.300000X-0.237500X-0.300000X0.237500X-0.300000X0.237500X0.300000X0*%
G04 APERTURE END LIST*
D10*
X135382000Y-75543500D03*
X135382000Y-77618500D03*
X135382000Y-67288500D03*
X135382000Y-69363500D03*
X135382000Y-58906500D03*
X135382000Y-60981500D03*
D11*
X110998000Y-58889500D03*
X110998000Y-62014500D03*
D12*
X105182500Y-75311000D03*
X106907500Y-75311000D03*
D13*
X108585000Y-59970500D03*
X108585000Y-61695500D03*
D12*
X92101500Y-72263000D03*
X93826500Y-72263000D03*
X92101500Y-73787000D03*
X93826500Y-73787000D03*
X105055500Y-59055000D03*
X106780500Y-59055000D03*
D14*
X110463500Y-65405000D03*
X108738500Y-65405000D03*
X110844500Y-68072000D03*
X109119500Y-68072000D03*
X110844500Y-70612000D03*
X109119500Y-70612000D03*
D12*
X95530500Y-66802000D03*
X97255500Y-66802000D03*
D14*
X97255500Y-58420000D03*
X95530500Y-58420000D03*
D12*
X95530500Y-61468000D03*
X97255500Y-61468000D03*
X80671500Y-62103000D03*
X82396500Y-62103000D03*
D15*
X92354500Y-77216000D03*
X90779500Y-77216000D03*
D16*
X81153000Y-58563000D03*
X81803000Y-60563000D03*
X80503000Y-60563000D03*
D17*
X121536000Y-67177000D03*
X121536000Y-62597000D03*
D18*
X127161000Y-63097000D03*
X130711000Y-63097000D03*
X130711000Y-66697000D03*
X127161000Y-66697000D03*
D17*
X121409000Y-58414000D03*
X121409000Y-53834000D03*
D18*
X127034000Y-54334000D03*
X127034000Y-57934000D03*
X130584000Y-57934000D03*
X130584000Y-54334000D03*
D19*
X78994000Y-62634500D03*
X78994000Y-60809500D03*
D20*
X95781500Y-77216000D03*
X93956500Y-77216000D03*
D21*
X113514500Y-60325000D03*
X115339500Y-60325000D03*
D22*
X118364000Y-53062500D03*
X118364000Y-54887500D03*
X116840000Y-64492500D03*
X116840000Y-66317500D03*
D21*
X113514500Y-58801000D03*
X115339500Y-58801000D03*
X115332500Y-56515000D03*
X117157500Y-56515000D03*
D19*
X137160000Y-77239500D03*
X137160000Y-75414500D03*
D22*
X133604000Y-67667500D03*
X133604000Y-69492500D03*
D19*
X137160000Y-69492500D03*
X137160000Y-67667500D03*
D22*
X133604000Y-59285500D03*
X133604000Y-61110500D03*
D19*
X137160000Y-61110500D03*
X137160000Y-59285500D03*
D20*
X101369500Y-54229000D03*
X99544500Y-54229000D03*
D21*
X95480500Y-62992000D03*
X97305500Y-62992000D03*
D20*
X97305500Y-55118000D03*
X95480500Y-55118000D03*
D21*
X95480500Y-72263000D03*
X97305500Y-72263000D03*
X95480500Y-73787000D03*
X97305500Y-73787000D03*
X95480500Y-56769000D03*
X97305500Y-56769000D03*
D20*
X101346000Y-59055000D03*
X99521000Y-59055000D03*
X101369500Y-56007000D03*
X99544500Y-56007000D03*
D21*
X99544500Y-57531000D03*
X101369500Y-57531000D03*
X95480500Y-59944000D03*
X97305500Y-59944000D03*
X82780500Y-53975000D03*
X84605500Y-53975000D03*
D20*
X84605500Y-55626000D03*
X82780500Y-55626000D03*
D23*
X88011000Y-60452000D03*
D24*
X106747000Y-60433000D03*
X106747000Y-60933000D03*
X106747000Y-61433000D03*
X106747000Y-61933000D03*
X106747000Y-62433000D03*
X106747000Y-62933000D03*
X106747000Y-63433000D03*
X106747000Y-63933000D03*
X106747000Y-64433000D03*
X106747000Y-64933000D03*
X106747000Y-65433000D03*
X106747000Y-65933000D03*
X106747000Y-66433000D03*
X106747000Y-66933000D03*
X106747000Y-67433000D03*
X106747000Y-67933000D03*
X106747000Y-68433000D03*
X106747000Y-68933000D03*
X106747000Y-69433000D03*
X106747000Y-69933000D03*
X106747000Y-70433000D03*
X106747000Y-70933000D03*
X106747000Y-71433000D03*
X106747000Y-71933000D03*
X106747000Y-72433000D03*
X106747000Y-72933000D03*
X106747000Y-73433000D03*
X106747000Y-73933000D03*
X99247000Y-73933000D03*
X99247000Y-73433000D03*
X99247000Y-72933000D03*
X99247000Y-72433000D03*
X99247000Y-71933000D03*
X99247000Y-71433000D03*
X99247000Y-70933000D03*
X99247000Y-70433000D03*
X99247000Y-69933000D03*
X99247000Y-69433000D03*
X99247000Y-68933000D03*
X99247000Y-68433000D03*
X99247000Y-67933000D03*
X99247000Y-67433000D03*
X99247000Y-66933000D03*
X99247000Y-66433000D03*
X99247000Y-65933000D03*
X99247000Y-65433000D03*
X99247000Y-64933000D03*
X99247000Y-64433000D03*
X99247000Y-63933000D03*
X99247000Y-63433000D03*
X99247000Y-62933000D03*
X99247000Y-62433000D03*
X99247000Y-61933000D03*
X99247000Y-61433000D03*
X99247000Y-60933000D03*
X99247000Y-60433000D03*
D25*
X104200400Y-68453000D03*
X102997000Y-68453000D03*
X102997000Y-69723000D03*
X102997000Y-65913000D03*
X104200400Y-67183000D03*
X104200400Y-64643000D03*
X104200400Y-65913000D03*
X101793600Y-68453000D03*
X102997000Y-64643000D03*
X101793600Y-64643000D03*
X101793600Y-67183000D03*
X101793600Y-69723000D03*
X101793600Y-65913000D03*
X102997000Y-67183000D03*
X104200400Y-69723000D03*
D26*
X83737000Y-62512500D03*
X84237000Y-62512500D03*
X84737000Y-62512500D03*
X85237000Y-62512500D03*
X85737000Y-62512500D03*
X86237000Y-62512500D03*
X86737000Y-62512500D03*
X87237000Y-62512500D03*
X87737000Y-62512500D03*
X88237000Y-62512500D03*
X88737000Y-62512500D03*
X89237000Y-62512500D03*
D27*
X90649500Y-63925000D03*
X90649500Y-64425000D03*
X90649500Y-64925000D03*
X90649500Y-65425000D03*
X90649500Y-65925000D03*
X90649500Y-66425000D03*
X90649500Y-66925000D03*
X90649500Y-67425000D03*
X90649500Y-67925000D03*
X90649500Y-68425000D03*
X90649500Y-68925000D03*
X90649500Y-69425000D03*
D26*
X89237000Y-70837500D03*
X88737000Y-70837500D03*
X88237000Y-70837500D03*
X87737000Y-70837500D03*
X87237000Y-70837500D03*
X86737000Y-70837500D03*
X86237000Y-70837500D03*
X85737000Y-70837500D03*
X85237000Y-70837500D03*
X84737000Y-70837500D03*
X84237000Y-70837500D03*
X83737000Y-70837500D03*
D27*
X82324500Y-69425000D03*
X82324500Y-68925000D03*
X82324500Y-68425000D03*
X82324500Y-67925000D03*
X82324500Y-67425000D03*
X82324500Y-66925000D03*
X82324500Y-66425000D03*
X82324500Y-65925000D03*
X82324500Y-65425000D03*
X82324500Y-64925000D03*
X82324500Y-64425000D03*
X82324500Y-63925000D03*
D22*
X133604000Y-75414500D03*
X133604000Y-77239500D03*
D17*
X121536000Y-76321000D03*
X121536000Y-71741000D03*
D18*
X127161000Y-75841000D03*
X130711000Y-75841000D03*
X127161000Y-72241000D03*
X130711000Y-72241000D03*
D22*
X115062000Y-64492500D03*
X115062000Y-66317500D03*
D28*
X114046000Y-75157500D03*
X114046000Y-73432500D03*
M02*
