G04 #@! TF.GenerationSoftware,KiCad,Pcbnew,6.0.6-1.fc36*
G04 #@! TF.CreationDate,2022-08-14T11:42:17+02:00*
G04 #@! TF.ProjectId,esc_brushless,6573635f-6272-4757-9368-6c6573732e6b,1.1.0*
G04 #@! TF.SameCoordinates,Original*
G04 #@! TF.FileFunction,Legend,Top*
G04 #@! TF.FilePolarity,Positive*
%FSLAX46Y46*%
G04 Gerber Fmt 4.6, Leading zero omitted, Abs format (unit mm)*
G04 Created by KiCad (PCBNEW 6.0.6-1.fc36) date 2022-08-14 11:42:17*
%MOMM*%
%LPD*%
G01*
G04 APERTURE LIST*
G04 Aperture macros list*
%AMRoundRect*
0 Rectangle with rounded corners*
0 $1 Rounding radius*
0 $2 $3 $4 $5 $6 $7 $8 $9 X,Y pos of 4 corners*
0 Add a 4 corners polygon primitive as box body*
4,1,4,$2,$3,$4,$5,$6,$7,$8,$9,$2,$3,0*
0 Add four circle primitives for the rounded corners*
1,1,$1+$1,$2,$3*
1,1,$1+$1,$4,$5*
1,1,$1+$1,$6,$7*
1,1,$1+$1,$8,$9*
0 Add four rect primitives between the rounded corners*
20,1,$1+$1,$2,$3,$4,$5,0*
20,1,$1+$1,$4,$5,$6,$7,0*
20,1,$1+$1,$6,$7,$8,$9,0*
20,1,$1+$1,$8,$9,$2,$3,0*%
G04 Aperture macros list end*
%ADD10C,0.300000*%
%ADD11C,0.125000*%
%ADD12C,0.120000*%
%ADD13C,0.150000*%
%ADD14RoundRect,0.250000X0.475000X-0.337500X0.475000X0.337500X-0.475000X0.337500X-0.475000X-0.337500X0*%
%ADD15RoundRect,0.249998X1.100002X-0.412502X1.100002X0.412502X-1.100002X0.412502X-1.100002X-0.412502X0*%
%ADD16RoundRect,0.237500X0.300000X0.237500X-0.300000X0.237500X-0.300000X-0.237500X0.300000X-0.237500X0*%
%ADD17RoundRect,0.237500X0.237500X-0.300000X0.237500X0.300000X-0.237500X0.300000X-0.237500X-0.300000X0*%
%ADD18RoundRect,0.237500X-0.300000X-0.237500X0.300000X-0.237500X0.300000X0.237500X-0.300000X0.237500X0*%
%ADD19RoundRect,0.218750X-0.218750X-0.256250X0.218750X-0.256250X0.218750X0.256250X-0.218750X0.256250X0*%
%ADD20R,0.450000X0.700000*%
%ADD21R,3.400000X3.400000*%
%ADD22O,1.700000X1.700000*%
%ADD23R,1.700000X1.700000*%
%ADD24R,3.500000X2.000000*%
%ADD25R,7.000000X7.000000*%
%ADD26RoundRect,0.237500X-0.237500X0.250000X-0.237500X-0.250000X0.237500X-0.250000X0.237500X0.250000X0*%
%ADD27RoundRect,0.237500X-0.250000X-0.237500X0.250000X-0.237500X0.250000X0.237500X-0.250000X0.237500X0*%
%ADD28RoundRect,0.237500X0.250000X0.237500X-0.250000X0.237500X-0.250000X-0.237500X0.250000X-0.237500X0*%
%ADD29RoundRect,0.237500X0.237500X-0.250000X0.237500X0.250000X-0.237500X0.250000X-0.237500X-0.250000X0*%
%ADD30O,1.250000X1.250000*%
%ADD31R,3.610000X6.350000*%
%ADD32R,1.550000X0.300000*%
%ADD33RoundRect,0.075000X-0.075000X-0.662500X0.075000X-0.662500X0.075000X0.662500X-0.075000X0.662500X0*%
%ADD34RoundRect,0.075000X-0.662500X-0.075000X0.662500X-0.075000X0.662500X0.075000X-0.662500X0.075000X0*%
%ADD35RoundRect,0.237500X-0.237500X0.300000X-0.237500X-0.300000X0.237500X-0.300000X0.237500X0.300000X0*%
G04 APERTURE END LIST*
D10*
X102655000Y-53764000D02*
X103121666Y-53764000D01*
X103321666Y-54497333D02*
X102655000Y-54497333D01*
X102655000Y-53097333D01*
X103321666Y-53097333D01*
X103855000Y-54430666D02*
X104055000Y-54497333D01*
X104388333Y-54497333D01*
X104521666Y-54430666D01*
X104588333Y-54364000D01*
X104655000Y-54230666D01*
X104655000Y-54097333D01*
X104588333Y-53964000D01*
X104521666Y-53897333D01*
X104388333Y-53830666D01*
X104121666Y-53764000D01*
X103988333Y-53697333D01*
X103921666Y-53630666D01*
X103855000Y-53497333D01*
X103855000Y-53364000D01*
X103921666Y-53230666D01*
X103988333Y-53164000D01*
X104121666Y-53097333D01*
X104455000Y-53097333D01*
X104655000Y-53164000D01*
X106055000Y-54364000D02*
X105988333Y-54430666D01*
X105788333Y-54497333D01*
X105655000Y-54497333D01*
X105455000Y-54430666D01*
X105321666Y-54297333D01*
X105255000Y-54164000D01*
X105188333Y-53897333D01*
X105188333Y-53697333D01*
X105255000Y-53430666D01*
X105321666Y-53297333D01*
X105455000Y-53164000D01*
X105655000Y-53097333D01*
X105788333Y-53097333D01*
X105988333Y-53164000D01*
X106055000Y-53230666D01*
X107721666Y-54497333D02*
X107721666Y-53097333D01*
X107721666Y-53630666D02*
X107855000Y-53564000D01*
X108121666Y-53564000D01*
X108255000Y-53630666D01*
X108321666Y-53697333D01*
X108388333Y-53830666D01*
X108388333Y-54230666D01*
X108321666Y-54364000D01*
X108255000Y-54430666D01*
X108121666Y-54497333D01*
X107855000Y-54497333D01*
X107721666Y-54430666D01*
X108988333Y-54497333D02*
X108988333Y-53564000D01*
X108988333Y-53830666D02*
X109055000Y-53697333D01*
X109121666Y-53630666D01*
X109255000Y-53564000D01*
X109388333Y-53564000D01*
X110455000Y-53564000D02*
X110455000Y-54497333D01*
X109855000Y-53564000D02*
X109855000Y-54297333D01*
X109921666Y-54430666D01*
X110055000Y-54497333D01*
X110255000Y-54497333D01*
X110388333Y-54430666D01*
X110455000Y-54364000D01*
X111055000Y-54430666D02*
X111188333Y-54497333D01*
X111455000Y-54497333D01*
X111588333Y-54430666D01*
X111655000Y-54297333D01*
X111655000Y-54230666D01*
X111588333Y-54097333D01*
X111455000Y-54030666D01*
X111255000Y-54030666D01*
X111121666Y-53964000D01*
X111055000Y-53830666D01*
X111055000Y-53764000D01*
X111121666Y-53630666D01*
X111255000Y-53564000D01*
X111455000Y-53564000D01*
X111588333Y-53630666D01*
X112255000Y-54497333D02*
X112255000Y-53097333D01*
X112855000Y-54497333D02*
X112855000Y-53764000D01*
X112788333Y-53630666D01*
X112655000Y-53564000D01*
X112455000Y-53564000D01*
X112321666Y-53630666D01*
X112255000Y-53697333D01*
X113721666Y-54497333D02*
X113588333Y-54430666D01*
X113521666Y-54297333D01*
X113521666Y-53097333D01*
X114788333Y-54430666D02*
X114655000Y-54497333D01*
X114388333Y-54497333D01*
X114255000Y-54430666D01*
X114188333Y-54297333D01*
X114188333Y-53764000D01*
X114255000Y-53630666D01*
X114388333Y-53564000D01*
X114655000Y-53564000D01*
X114788333Y-53630666D01*
X114855000Y-53764000D01*
X114855000Y-53897333D01*
X114188333Y-54030666D01*
X115388333Y-54430666D02*
X115521666Y-54497333D01*
X115788333Y-54497333D01*
X115921666Y-54430666D01*
X115988333Y-54297333D01*
X115988333Y-54230666D01*
X115921666Y-54097333D01*
X115788333Y-54030666D01*
X115588333Y-54030666D01*
X115455000Y-53964000D01*
X115388333Y-53830666D01*
X115388333Y-53764000D01*
X115455000Y-53630666D01*
X115588333Y-53564000D01*
X115788333Y-53564000D01*
X115921666Y-53630666D01*
X116521666Y-54430666D02*
X116655000Y-54497333D01*
X116921666Y-54497333D01*
X117055000Y-54430666D01*
X117121666Y-54297333D01*
X117121666Y-54230666D01*
X117055000Y-54097333D01*
X116921666Y-54030666D01*
X116721666Y-54030666D01*
X116588333Y-53964000D01*
X116521666Y-53830666D01*
X116521666Y-53764000D01*
X116588333Y-53630666D01*
X116721666Y-53564000D01*
X116921666Y-53564000D01*
X117055000Y-53630666D01*
X107855000Y-55818000D02*
X108188333Y-56751333D01*
X108521666Y-55818000D01*
X109788333Y-56751333D02*
X108988333Y-56751333D01*
X109388333Y-56751333D02*
X109388333Y-55351333D01*
X109255000Y-55551333D01*
X109121666Y-55684666D01*
X108988333Y-55751333D01*
X110388333Y-56618000D02*
X110455000Y-56684666D01*
X110388333Y-56751333D01*
X110321666Y-56684666D01*
X110388333Y-56618000D01*
X110388333Y-56751333D01*
X111321666Y-55351333D02*
X111455000Y-55351333D01*
X111588333Y-55418000D01*
X111655000Y-55484666D01*
X111721666Y-55618000D01*
X111788333Y-55884666D01*
X111788333Y-56218000D01*
X111721666Y-56484666D01*
X111655000Y-56618000D01*
X111588333Y-56684666D01*
X111455000Y-56751333D01*
X111321666Y-56751333D01*
X111188333Y-56684666D01*
X111121666Y-56618000D01*
X111055000Y-56484666D01*
X110988333Y-56218000D01*
X110988333Y-55884666D01*
X111055000Y-55618000D01*
X111121666Y-55484666D01*
X111188333Y-55418000D01*
X111321666Y-55351333D01*
D11*
X91313095Y-53923380D02*
X91384523Y-53947190D01*
X91503571Y-53947190D01*
X91551190Y-53923380D01*
X91575000Y-53899571D01*
X91598809Y-53851952D01*
X91598809Y-53804333D01*
X91575000Y-53756714D01*
X91551190Y-53732904D01*
X91503571Y-53709095D01*
X91408333Y-53685285D01*
X91360714Y-53661476D01*
X91336904Y-53637666D01*
X91313095Y-53590047D01*
X91313095Y-53542428D01*
X91336904Y-53494809D01*
X91360714Y-53471000D01*
X91408333Y-53447190D01*
X91527380Y-53447190D01*
X91598809Y-53471000D01*
X91741666Y-53447190D02*
X92027380Y-53447190D01*
X91884523Y-53947190D02*
X91884523Y-53447190D01*
X92360714Y-53685285D02*
X92194047Y-53685285D01*
X92194047Y-53947190D02*
X92194047Y-53447190D01*
X92432142Y-53447190D01*
X92598809Y-53804333D02*
X92836904Y-53804333D01*
X92551190Y-53947190D02*
X92717857Y-53447190D01*
X92884523Y-53947190D01*
D12*
X136117000Y-76842252D02*
X136117000Y-76319748D01*
X134647000Y-76842252D02*
X134647000Y-76319748D01*
X134647000Y-68587252D02*
X134647000Y-68064748D01*
X136117000Y-68587252D02*
X136117000Y-68064748D01*
X136117000Y-60205252D02*
X136117000Y-59682748D01*
X134647000Y-60205252D02*
X134647000Y-59682748D01*
X109638000Y-61163252D02*
X109638000Y-59740748D01*
X112358000Y-61163252D02*
X112358000Y-59740748D01*
X106191267Y-74801000D02*
X105898733Y-74801000D01*
X106191267Y-75821000D02*
X105898733Y-75821000D01*
X109095000Y-60979267D02*
X109095000Y-60686733D01*
X108075000Y-60979267D02*
X108075000Y-60686733D01*
X93110267Y-72773000D02*
X92817733Y-72773000D01*
X93110267Y-71753000D02*
X92817733Y-71753000D01*
X93110267Y-73277000D02*
X92817733Y-73277000D01*
X93110267Y-74297000D02*
X92817733Y-74297000D01*
X106064267Y-58545000D02*
X105771733Y-58545000D01*
X106064267Y-59565000D02*
X105771733Y-59565000D01*
X109454733Y-64895000D02*
X109747267Y-64895000D01*
X109454733Y-65915000D02*
X109747267Y-65915000D01*
X109835733Y-68582000D02*
X110128267Y-68582000D01*
X109835733Y-67562000D02*
X110128267Y-67562000D01*
X109835733Y-71122000D02*
X110128267Y-71122000D01*
X109835733Y-70102000D02*
X110128267Y-70102000D01*
X96539267Y-67312000D02*
X96246733Y-67312000D01*
X96539267Y-66292000D02*
X96246733Y-66292000D01*
X96246733Y-58930000D02*
X96539267Y-58930000D01*
X96246733Y-57910000D02*
X96539267Y-57910000D01*
X96539267Y-60958000D02*
X96246733Y-60958000D01*
X96539267Y-61978000D02*
X96246733Y-61978000D01*
X81680267Y-61593000D02*
X81387733Y-61593000D01*
X81680267Y-62613000D02*
X81387733Y-62613000D01*
X92367000Y-76481000D02*
X90082000Y-76481000D01*
X90082000Y-76481000D02*
X90082000Y-77951000D01*
X90082000Y-77951000D02*
X92367000Y-77951000D01*
X82313000Y-60243000D02*
X82313000Y-58833000D01*
X79993000Y-58833000D02*
X80653000Y-58833000D01*
X81653000Y-58833000D02*
X82313000Y-58833000D01*
X79993000Y-58833000D02*
X79993000Y-60863000D01*
X81915000Y-57658000D02*
X77851000Y-57658000D01*
X77851000Y-54924000D02*
X77851000Y-53594000D01*
X77851000Y-53594000D02*
X79181000Y-53594000D01*
X81915000Y-77978000D02*
X77851000Y-77978000D01*
X77851000Y-73914000D02*
X79181000Y-73914000D01*
X77851000Y-75244000D02*
X77851000Y-73914000D01*
X77918000Y-66548000D02*
X80578000Y-66548000D01*
X77918000Y-71688000D02*
X80578000Y-71688000D01*
X77918000Y-63948000D02*
X79248000Y-63948000D01*
X77918000Y-66548000D02*
X77918000Y-71688000D01*
X80578000Y-66548000D02*
X80578000Y-71688000D01*
X77918000Y-65278000D02*
X77918000Y-63948000D01*
X85471000Y-77530000D02*
X84141000Y-77530000D01*
X86741000Y-77530000D02*
X89341000Y-77530000D01*
X86741000Y-77530000D02*
X86741000Y-74870000D01*
X89341000Y-77530000D02*
X89341000Y-74870000D01*
X84141000Y-77530000D02*
X84141000Y-76200000D01*
X86741000Y-74870000D02*
X89341000Y-74870000D01*
X136398000Y-61976000D02*
X137728000Y-61976000D01*
X140462000Y-66040000D02*
X136398000Y-66040000D01*
X136398000Y-63306000D02*
X136398000Y-61976000D01*
X136398000Y-53340000D02*
X137728000Y-53340000D01*
X140462000Y-57404000D02*
X136398000Y-57404000D01*
X136398000Y-54670000D02*
X136398000Y-53340000D01*
X123836000Y-66497000D02*
X123836000Y-63297000D01*
X123836000Y-61497000D02*
X125336000Y-61497000D01*
X125336000Y-68297000D02*
X123836000Y-68297000D01*
X123836000Y-61847000D02*
X123836000Y-61497000D01*
X123836000Y-68297000D02*
X123836000Y-67897000D01*
X123709000Y-52734000D02*
X125209000Y-52734000D01*
X123709000Y-59534000D02*
X123709000Y-59134000D01*
X123709000Y-53084000D02*
X123709000Y-52734000D01*
X125209000Y-59534000D02*
X123709000Y-59534000D01*
X123709000Y-57734000D02*
X123709000Y-54534000D01*
X79516500Y-61467276D02*
X79516500Y-61976724D01*
X78471500Y-61467276D02*
X78471500Y-61976724D01*
X94614276Y-76693500D02*
X95123724Y-76693500D01*
X94614276Y-77738500D02*
X95123724Y-77738500D01*
X114681724Y-60847500D02*
X114172276Y-60847500D01*
X114681724Y-59802500D02*
X114172276Y-59802500D01*
X117841500Y-54229724D02*
X117841500Y-53720276D01*
X118886500Y-54229724D02*
X118886500Y-53720276D01*
X117362500Y-65659724D02*
X117362500Y-65150276D01*
X116317500Y-65659724D02*
X116317500Y-65150276D01*
X114681724Y-59323500D02*
X114172276Y-59323500D01*
X114681724Y-58278500D02*
X114172276Y-58278500D01*
X116499724Y-57037500D02*
X115990276Y-57037500D01*
X116499724Y-55992500D02*
X115990276Y-55992500D01*
X137682500Y-76072276D02*
X137682500Y-76581724D01*
X136637500Y-76072276D02*
X136637500Y-76581724D01*
X133081500Y-68834724D02*
X133081500Y-68325276D01*
X134126500Y-68834724D02*
X134126500Y-68325276D01*
X136637500Y-68325276D02*
X136637500Y-68834724D01*
X137682500Y-68325276D02*
X137682500Y-68834724D01*
X134126500Y-60452724D02*
X134126500Y-59943276D01*
X133081500Y-60452724D02*
X133081500Y-59943276D01*
X136637500Y-59943276D02*
X136637500Y-60452724D01*
X137682500Y-59943276D02*
X137682500Y-60452724D01*
X100202276Y-54751500D02*
X100711724Y-54751500D01*
X100202276Y-53706500D02*
X100711724Y-53706500D01*
X96647724Y-63514500D02*
X96138276Y-63514500D01*
X96647724Y-62469500D02*
X96138276Y-62469500D01*
X96138276Y-55640500D02*
X96647724Y-55640500D01*
X96138276Y-54595500D02*
X96647724Y-54595500D01*
X96647724Y-71740500D02*
X96138276Y-71740500D01*
X96647724Y-72785500D02*
X96138276Y-72785500D01*
X96647724Y-74309500D02*
X96138276Y-74309500D01*
X96647724Y-73264500D02*
X96138276Y-73264500D01*
X96647724Y-56246500D02*
X96138276Y-56246500D01*
X96647724Y-57291500D02*
X96138276Y-57291500D01*
X100178776Y-59577500D02*
X100688224Y-59577500D01*
X100178776Y-58532500D02*
X100688224Y-58532500D01*
X100202276Y-55484500D02*
X100711724Y-55484500D01*
X100202276Y-56529500D02*
X100711724Y-56529500D01*
X100711724Y-57008500D02*
X100202276Y-57008500D01*
X100711724Y-58053500D02*
X100202276Y-58053500D01*
X96647724Y-59421500D02*
X96138276Y-59421500D01*
X96647724Y-60466500D02*
X96138276Y-60466500D01*
X83947724Y-53452500D02*
X83438276Y-53452500D01*
X83947724Y-54497500D02*
X83438276Y-54497500D01*
X83438276Y-56148500D02*
X83947724Y-56148500D01*
X83438276Y-55103500D02*
X83947724Y-55103500D01*
X89131000Y-60452000D02*
G75*
G03*
X89131000Y-60452000I-1120000J0D01*
G01*
D13*
X99822000Y-74308000D02*
X106172000Y-74308000D01*
X99822000Y-74308000D02*
X99822000Y-74300500D01*
X106172000Y-74308000D02*
X106172000Y-74300500D01*
X98747000Y-59983000D02*
X106172000Y-59983000D01*
X106172000Y-60058000D02*
X106172000Y-60065500D01*
D12*
X82877000Y-63065000D02*
X82877000Y-63515000D01*
X89647000Y-70285000D02*
X90097000Y-70285000D01*
X82877000Y-63515000D02*
X81587000Y-63515000D01*
X82877000Y-70285000D02*
X82877000Y-69835000D01*
X83327000Y-70285000D02*
X82877000Y-70285000D01*
X89647000Y-63065000D02*
X90097000Y-63065000D01*
X83327000Y-63065000D02*
X82877000Y-63065000D01*
X90097000Y-70285000D02*
X90097000Y-69835000D01*
X90097000Y-63065000D02*
X90097000Y-63515000D01*
X133081500Y-76581724D02*
X133081500Y-76072276D01*
X134126500Y-76581724D02*
X134126500Y-76072276D01*
X125336000Y-77441000D02*
X123836000Y-77441000D01*
X123836000Y-77441000D02*
X123836000Y-77041000D01*
X123836000Y-70641000D02*
X125336000Y-70641000D01*
X123836000Y-75641000D02*
X123836000Y-72441000D01*
X123836000Y-70991000D02*
X123836000Y-70641000D01*
X136398000Y-70358000D02*
X137728000Y-70358000D01*
X136398000Y-71688000D02*
X136398000Y-70358000D01*
X140462000Y-74422000D02*
X136398000Y-74422000D01*
X115584500Y-65659724D02*
X115584500Y-65150276D01*
X114539500Y-65659724D02*
X114539500Y-65150276D01*
X113536000Y-74148733D02*
X113536000Y-74441267D01*
X114556000Y-74148733D02*
X114556000Y-74441267D01*
%LPC*%
D14*
X135382000Y-75543500D03*
X135382000Y-77618500D03*
X135382000Y-67288500D03*
X135382000Y-69363500D03*
X135382000Y-58906500D03*
X135382000Y-60981500D03*
D15*
X110998000Y-58889500D03*
X110998000Y-62014500D03*
D16*
X105182500Y-75311000D03*
X106907500Y-75311000D03*
D17*
X108585000Y-59970500D03*
X108585000Y-61695500D03*
D16*
X92101500Y-72263000D03*
X93826500Y-72263000D03*
X92101500Y-73787000D03*
X93826500Y-73787000D03*
X105055500Y-59055000D03*
X106780500Y-59055000D03*
D18*
X110463500Y-65405000D03*
X108738500Y-65405000D03*
X110844500Y-68072000D03*
X109119500Y-68072000D03*
X110844500Y-70612000D03*
X109119500Y-70612000D03*
D16*
X95530500Y-66802000D03*
X97255500Y-66802000D03*
D18*
X97255500Y-58420000D03*
X95530500Y-58420000D03*
D16*
X95530500Y-61468000D03*
X97255500Y-61468000D03*
X80671500Y-62103000D03*
X82396500Y-62103000D03*
D19*
X92354500Y-77216000D03*
X90779500Y-77216000D03*
D20*
X81153000Y-58563000D03*
X81803000Y-60563000D03*
X80503000Y-60563000D03*
D21*
X79883000Y-55626000D03*
X79883000Y-75946000D03*
D22*
X79248000Y-70358000D03*
X79248000Y-67818000D03*
D23*
X79248000Y-65278000D03*
D22*
X88011000Y-76200000D03*
D23*
X85471000Y-76200000D03*
D21*
X138430000Y-64008000D03*
X138430000Y-55372000D03*
D24*
X121536000Y-67177000D03*
D25*
X128936000Y-64897000D03*
D24*
X121536000Y-62597000D03*
X121409000Y-58414000D03*
D25*
X128809000Y-56134000D03*
D24*
X121409000Y-53834000D03*
D26*
X78994000Y-62634500D03*
X78994000Y-60809500D03*
D27*
X95781500Y-77216000D03*
X93956500Y-77216000D03*
D28*
X113514500Y-60325000D03*
X115339500Y-60325000D03*
D29*
X118364000Y-53062500D03*
X118364000Y-54887500D03*
X116840000Y-64492500D03*
X116840000Y-66317500D03*
D28*
X113514500Y-58801000D03*
X115339500Y-58801000D03*
X115332500Y-56515000D03*
X117157500Y-56515000D03*
D26*
X137160000Y-77239500D03*
X137160000Y-75414500D03*
D29*
X133604000Y-67667500D03*
X133604000Y-69492500D03*
D26*
X137160000Y-69492500D03*
X137160000Y-67667500D03*
D29*
X133604000Y-59285500D03*
X133604000Y-61110500D03*
D26*
X137160000Y-61110500D03*
X137160000Y-59285500D03*
D27*
X101369500Y-54229000D03*
X99544500Y-54229000D03*
D28*
X95480500Y-62992000D03*
X97305500Y-62992000D03*
D27*
X97305500Y-55118000D03*
X95480500Y-55118000D03*
D28*
X95480500Y-72263000D03*
X97305500Y-72263000D03*
X95480500Y-73787000D03*
X97305500Y-73787000D03*
X95480500Y-56769000D03*
X97305500Y-56769000D03*
D27*
X101346000Y-59055000D03*
X99521000Y-59055000D03*
X101369500Y-56007000D03*
X99544500Y-56007000D03*
D28*
X99544500Y-57531000D03*
X101369500Y-57531000D03*
X95480500Y-59944000D03*
X97305500Y-59944000D03*
X82780500Y-53975000D03*
X84605500Y-53975000D03*
D27*
X84605500Y-55626000D03*
X82780500Y-55626000D03*
D30*
X88011000Y-60452000D03*
D31*
X102997000Y-67183000D03*
D32*
X106747000Y-60433000D03*
X106747000Y-60933000D03*
X106747000Y-61433000D03*
X106747000Y-61933000D03*
X106747000Y-62433000D03*
X106747000Y-62933000D03*
X106747000Y-63433000D03*
X106747000Y-63933000D03*
X106747000Y-64433000D03*
X106747000Y-64933000D03*
X106747000Y-65433000D03*
X106747000Y-65933000D03*
X106747000Y-66433000D03*
X106747000Y-66933000D03*
X106747000Y-67433000D03*
X106747000Y-67933000D03*
X106747000Y-68433000D03*
X106747000Y-68933000D03*
X106747000Y-69433000D03*
X106747000Y-69933000D03*
X106747000Y-70433000D03*
X106747000Y-70933000D03*
X106747000Y-71433000D03*
X106747000Y-71933000D03*
X106747000Y-72433000D03*
X106747000Y-72933000D03*
X106747000Y-73433000D03*
X106747000Y-73933000D03*
X99247000Y-73933000D03*
X99247000Y-73433000D03*
X99247000Y-72933000D03*
X99247000Y-72433000D03*
X99247000Y-71933000D03*
X99247000Y-71433000D03*
X99247000Y-70933000D03*
X99247000Y-70433000D03*
X99247000Y-69933000D03*
X99247000Y-69433000D03*
X99247000Y-68933000D03*
X99247000Y-68433000D03*
X99247000Y-67933000D03*
X99247000Y-67433000D03*
X99247000Y-66933000D03*
X99247000Y-66433000D03*
X99247000Y-65933000D03*
X99247000Y-65433000D03*
X99247000Y-64933000D03*
X99247000Y-64433000D03*
X99247000Y-63933000D03*
X99247000Y-63433000D03*
X99247000Y-62933000D03*
X99247000Y-62433000D03*
X99247000Y-61933000D03*
X99247000Y-61433000D03*
X99247000Y-60933000D03*
X99247000Y-60433000D03*
D33*
X83737000Y-62512500D03*
X84237000Y-62512500D03*
X84737000Y-62512500D03*
X85237000Y-62512500D03*
X85737000Y-62512500D03*
X86237000Y-62512500D03*
X86737000Y-62512500D03*
X87237000Y-62512500D03*
X87737000Y-62512500D03*
X88237000Y-62512500D03*
X88737000Y-62512500D03*
X89237000Y-62512500D03*
D34*
X90649500Y-63925000D03*
X90649500Y-64425000D03*
X90649500Y-64925000D03*
X90649500Y-65425000D03*
X90649500Y-65925000D03*
X90649500Y-66425000D03*
X90649500Y-66925000D03*
X90649500Y-67425000D03*
X90649500Y-67925000D03*
X90649500Y-68425000D03*
X90649500Y-68925000D03*
X90649500Y-69425000D03*
D33*
X89237000Y-70837500D03*
X88737000Y-70837500D03*
X88237000Y-70837500D03*
X87737000Y-70837500D03*
X87237000Y-70837500D03*
X86737000Y-70837500D03*
X86237000Y-70837500D03*
X85737000Y-70837500D03*
X85237000Y-70837500D03*
X84737000Y-70837500D03*
X84237000Y-70837500D03*
X83737000Y-70837500D03*
D34*
X82324500Y-69425000D03*
X82324500Y-68925000D03*
X82324500Y-68425000D03*
X82324500Y-67925000D03*
X82324500Y-67425000D03*
X82324500Y-66925000D03*
X82324500Y-66425000D03*
X82324500Y-65925000D03*
X82324500Y-65425000D03*
X82324500Y-64925000D03*
X82324500Y-64425000D03*
X82324500Y-63925000D03*
D29*
X133604000Y-75414500D03*
X133604000Y-77239500D03*
D24*
X121536000Y-76321000D03*
D25*
X128936000Y-74041000D03*
D24*
X121536000Y-71741000D03*
D21*
X138430000Y-72390000D03*
D29*
X115062000Y-64492500D03*
X115062000Y-66317500D03*
D35*
X114046000Y-75157500D03*
X114046000Y-73432500D03*
M02*
