G04 #@! TF.GenerationSoftware,KiCad,Pcbnew,6.0.6-1.fc36*
G04 #@! TF.CreationDate,2022-08-14T11:42:17+02:00*
G04 #@! TF.ProjectId,esc_brushless,6573635f-6272-4757-9368-6c6573732e6b,1.1.0*
G04 #@! TF.SameCoordinates,Original*
G04 #@! TF.FileFunction,Copper,L2,Inr*
G04 #@! TF.FilePolarity,Positive*
%FSLAX46Y46*%
G04 Gerber Fmt 4.6, Leading zero omitted, Abs format (unit mm)*
G04 Created by KiCad (PCBNEW 6.0.6-1.fc36) date 2022-08-14 11:42:17*
%MOMM*%
%LPD*%
G01*
G04 APERTURE LIST*
G04 #@! TA.AperFunction,ComponentPad*
%ADD10R,3.400000X3.400000*%
G04 #@! TD*
G04 #@! TA.AperFunction,ComponentPad*
%ADD11O,1.700000X1.700000*%
G04 #@! TD*
G04 #@! TA.AperFunction,ComponentPad*
%ADD12R,1.700000X1.700000*%
G04 #@! TD*
G04 #@! TA.AperFunction,ViaPad*
%ADD13C,0.600000*%
G04 #@! TD*
G04 #@! TA.AperFunction,ViaPad*
%ADD14C,0.800000*%
G04 #@! TD*
G04 APERTURE END LIST*
D10*
X79883000Y-55626000D03*
X79883000Y-75946000D03*
D11*
X79248000Y-70358000D03*
X79248000Y-67818000D03*
D12*
X79248000Y-65278000D03*
D11*
X88011000Y-76200000D03*
D12*
X85471000Y-76200000D03*
D10*
X138430000Y-64008000D03*
X138430000Y-55372000D03*
X138430000Y-72390000D03*
D13*
X117856000Y-77343000D03*
X85852000Y-66421000D03*
X94170500Y-66738500D03*
X99314000Y-51816000D03*
X78486000Y-51816000D03*
X103251000Y-75692000D03*
X100584000Y-64770000D03*
D14*
X88773000Y-54483000D03*
D13*
X133731000Y-62230000D03*
X133477000Y-53276500D03*
X116840000Y-64516000D03*
X91567000Y-51816000D03*
X138938000Y-79629000D03*
X116205000Y-67691000D03*
X92075000Y-72263000D03*
X116332000Y-77343000D03*
X123063000Y-64897000D03*
X121666000Y-69469000D03*
X80645000Y-62103000D03*
X138430000Y-51816000D03*
X117094000Y-51816000D03*
X134937500Y-53276500D03*
X126873000Y-69469000D03*
X103251000Y-74930000D03*
X101092000Y-74168000D03*
X140462000Y-59436000D03*
X135064500Y-62230000D03*
X109728000Y-79629000D03*
X140462000Y-68072000D03*
X115316000Y-56506750D03*
X95377000Y-79629000D03*
X94234000Y-60579000D03*
X117856000Y-67691000D03*
X105410000Y-66421000D03*
X116332000Y-71501000D03*
X117856000Y-71501000D03*
X116205000Y-61595000D03*
X117856000Y-61595000D03*
X112785010Y-68707000D03*
X134366000Y-65278000D03*
X106426000Y-75819000D03*
X133438500Y-56515000D03*
D14*
X108585000Y-61695500D03*
D13*
X134239000Y-56515000D03*
X106426000Y-74930000D03*
X134581500Y-73444500D03*
X133692500Y-73444500D03*
X133438500Y-65278000D03*
X102870000Y-70993000D03*
X102870000Y-72898000D03*
X109106250Y-70598750D03*
X109156500Y-68135500D03*
X105410000Y-65532000D03*
X104775000Y-62611000D03*
X104775000Y-63500000D03*
X105283000Y-61341000D03*
X100584000Y-66421000D03*
X83058000Y-60452000D03*
X83058000Y-59626500D03*
X94107000Y-58102500D03*
X82550000Y-73660000D03*
X80391000Y-63119000D03*
X99441000Y-56007000D03*
D14*
X87823000Y-53274000D03*
D13*
X78994000Y-60833000D03*
D14*
X99441000Y-54229000D03*
D13*
X84074000Y-65532000D03*
D14*
X96837500Y-71120000D03*
X82042000Y-59690000D03*
D13*
X84074000Y-66294000D03*
X111315500Y-66167000D03*
X84074000Y-64643000D03*
X100584000Y-67564000D03*
X95821500Y-77216000D03*
D14*
X82042000Y-58801000D03*
D13*
X90805000Y-60325000D03*
X89535000Y-60198000D03*
X110490000Y-75311000D03*
X105410000Y-64389000D03*
X105410000Y-67437000D03*
X105410000Y-69977000D03*
X88011000Y-65278000D03*
X89154000Y-63754000D03*
X84201000Y-68707000D03*
X100584000Y-68707000D03*
X89281000Y-67437000D03*
X89281000Y-68326000D03*
X100584000Y-69977000D03*
X85471000Y-68707000D03*
X86741000Y-68707000D03*
X88011000Y-68707000D03*
X114046000Y-71501000D03*
X114046000Y-77343000D03*
X109347000Y-73787000D03*
X109347000Y-74803000D03*
G04 #@! TA.AperFunction,Conductor*
G36*
X140911621Y-51328502D02*
G01*
X140958114Y-51382158D01*
X140969500Y-51434500D01*
X140969500Y-80010500D01*
X140949498Y-80078621D01*
X140895842Y-80125114D01*
X140843500Y-80136500D01*
X77469500Y-80136500D01*
X77401379Y-80116498D01*
X77354886Y-80062842D01*
X77343500Y-80010500D01*
X77343500Y-77690669D01*
X77675001Y-77690669D01*
X77675371Y-77697490D01*
X77680895Y-77748352D01*
X77684521Y-77763604D01*
X77729676Y-77884054D01*
X77738214Y-77899649D01*
X77814715Y-78001724D01*
X77827276Y-78014285D01*
X77929351Y-78090786D01*
X77944946Y-78099324D01*
X78065394Y-78144478D01*
X78080649Y-78148105D01*
X78131514Y-78153631D01*
X78138328Y-78154000D01*
X79610885Y-78154000D01*
X79626124Y-78149525D01*
X79627329Y-78148135D01*
X79629000Y-78140452D01*
X79629000Y-78135884D01*
X80137000Y-78135884D01*
X80141475Y-78151123D01*
X80142865Y-78152328D01*
X80150548Y-78153999D01*
X81627669Y-78153999D01*
X81634490Y-78153629D01*
X81685352Y-78148105D01*
X81700604Y-78144479D01*
X81821054Y-78099324D01*
X81836649Y-78090786D01*
X81938724Y-78014285D01*
X81951285Y-78001724D01*
X82027786Y-77899649D01*
X82036324Y-77884054D01*
X82081478Y-77763606D01*
X82085105Y-77748351D01*
X82090631Y-77697486D01*
X82091000Y-77690672D01*
X82091000Y-77098134D01*
X84112500Y-77098134D01*
X84119255Y-77160316D01*
X84170385Y-77296705D01*
X84257739Y-77413261D01*
X84374295Y-77500615D01*
X84510684Y-77551745D01*
X84572866Y-77558500D01*
X86369134Y-77558500D01*
X86431316Y-77551745D01*
X86567705Y-77500615D01*
X86684261Y-77413261D01*
X86771615Y-77296705D01*
X86791309Y-77244171D01*
X86815598Y-77179382D01*
X86858240Y-77122618D01*
X86924802Y-77097918D01*
X86994150Y-77113126D01*
X87028817Y-77141114D01*
X87057250Y-77173938D01*
X87229126Y-77316632D01*
X87422000Y-77429338D01*
X87630692Y-77509030D01*
X87635760Y-77510061D01*
X87635763Y-77510062D01*
X87743017Y-77531883D01*
X87849597Y-77553567D01*
X87854772Y-77553757D01*
X87854774Y-77553757D01*
X88067673Y-77561564D01*
X88067677Y-77561564D01*
X88072837Y-77561753D01*
X88077957Y-77561097D01*
X88077959Y-77561097D01*
X88289288Y-77534025D01*
X88289289Y-77534025D01*
X88294416Y-77533368D01*
X88342827Y-77518844D01*
X88503429Y-77470661D01*
X88503434Y-77470659D01*
X88508384Y-77469174D01*
X88708994Y-77370896D01*
X88890860Y-77241173D01*
X88897299Y-77234757D01*
X88927521Y-77204640D01*
X95007963Y-77204640D01*
X95025663Y-77385160D01*
X95082918Y-77557273D01*
X95086565Y-77563295D01*
X95086566Y-77563297D01*
X95167836Y-77697490D01*
X95176880Y-77712424D01*
X95181769Y-77717487D01*
X95181770Y-77717488D01*
X95226304Y-77763604D01*
X95302882Y-77842902D01*
X95454659Y-77942222D01*
X95461263Y-77944678D01*
X95461265Y-77944679D01*
X95618058Y-78002990D01*
X95618060Y-78002990D01*
X95624668Y-78005448D01*
X95708495Y-78016633D01*
X95797480Y-78028507D01*
X95797484Y-78028507D01*
X95804461Y-78029438D01*
X95811472Y-78028800D01*
X95811476Y-78028800D01*
X95953959Y-78015832D01*
X95985100Y-78012998D01*
X95991802Y-78010820D01*
X95991804Y-78010820D01*
X96150909Y-77959124D01*
X96150912Y-77959123D01*
X96157608Y-77956947D01*
X96313412Y-77864069D01*
X96444766Y-77738982D01*
X96545143Y-77587902D01*
X96591110Y-77466895D01*
X96607055Y-77424920D01*
X96607056Y-77424918D01*
X96609555Y-77418338D01*
X96611278Y-77406081D01*
X96621740Y-77331640D01*
X113232463Y-77331640D01*
X113250163Y-77512160D01*
X113307418Y-77684273D01*
X113311065Y-77690295D01*
X113311066Y-77690297D01*
X113346225Y-77748351D01*
X113401380Y-77839424D01*
X113406269Y-77844487D01*
X113406270Y-77844488D01*
X113427027Y-77865982D01*
X113527382Y-77969902D01*
X113679159Y-78069222D01*
X113685763Y-78071678D01*
X113685765Y-78071679D01*
X113842558Y-78129990D01*
X113842560Y-78129990D01*
X113849168Y-78132448D01*
X113932995Y-78143633D01*
X114021980Y-78155507D01*
X114021984Y-78155507D01*
X114028961Y-78156438D01*
X114035972Y-78155800D01*
X114035976Y-78155800D01*
X114178459Y-78142832D01*
X114209600Y-78139998D01*
X114216302Y-78137820D01*
X114216304Y-78137820D01*
X114375409Y-78086124D01*
X114375412Y-78086123D01*
X114382108Y-78083947D01*
X114501126Y-78012998D01*
X114531860Y-77994677D01*
X114531862Y-77994676D01*
X114537912Y-77991069D01*
X114669266Y-77865982D01*
X114769643Y-77714902D01*
X114827233Y-77563297D01*
X114831555Y-77551920D01*
X114831556Y-77551918D01*
X114834055Y-77545338D01*
X114835946Y-77531883D01*
X114858748Y-77369639D01*
X114858748Y-77369636D01*
X114859299Y-77365717D01*
X114859616Y-77343000D01*
X114839397Y-77162745D01*
X114837080Y-77156091D01*
X114782064Y-76998106D01*
X114782062Y-76998103D01*
X114779745Y-76991448D01*
X114696651Y-76858469D01*
X114687359Y-76843598D01*
X114683626Y-76837624D01*
X114563442Y-76716598D01*
X114560778Y-76713915D01*
X114560774Y-76713912D01*
X114555815Y-76708918D01*
X114544697Y-76701862D01*
X114433834Y-76631507D01*
X114402666Y-76611727D01*
X114332986Y-76586915D01*
X114238425Y-76553243D01*
X114238420Y-76553242D01*
X114231790Y-76550881D01*
X114224802Y-76550048D01*
X114224799Y-76550047D01*
X114101698Y-76535368D01*
X114051680Y-76529404D01*
X114044677Y-76530140D01*
X114044676Y-76530140D01*
X113878288Y-76547628D01*
X113878286Y-76547629D01*
X113871288Y-76548364D01*
X113699579Y-76606818D01*
X113683619Y-76616637D01*
X113551095Y-76698166D01*
X113551092Y-76698168D01*
X113545088Y-76701862D01*
X113540053Y-76706793D01*
X113540050Y-76706795D01*
X113530040Y-76716598D01*
X113415493Y-76828771D01*
X113317235Y-76981238D01*
X113314826Y-76987858D01*
X113314824Y-76987861D01*
X113259044Y-77141115D01*
X113255197Y-77151685D01*
X113232463Y-77331640D01*
X96621740Y-77331640D01*
X96634248Y-77242639D01*
X96634248Y-77242636D01*
X96634799Y-77238717D01*
X96635116Y-77216000D01*
X96614897Y-77035745D01*
X96612580Y-77029091D01*
X96557564Y-76871106D01*
X96557562Y-76871103D01*
X96555245Y-76864448D01*
X96459126Y-76710624D01*
X96450425Y-76701862D01*
X96336278Y-76586915D01*
X96336274Y-76586912D01*
X96331315Y-76581918D01*
X96320197Y-76574862D01*
X96249880Y-76530238D01*
X96178166Y-76484727D01*
X96138709Y-76470677D01*
X96013925Y-76426243D01*
X96013920Y-76426242D01*
X96007290Y-76423881D01*
X96000302Y-76423048D01*
X96000299Y-76423047D01*
X95877198Y-76408368D01*
X95827180Y-76402404D01*
X95820177Y-76403140D01*
X95820176Y-76403140D01*
X95653788Y-76420628D01*
X95653786Y-76420629D01*
X95646788Y-76421364D01*
X95475079Y-76479818D01*
X95460957Y-76488506D01*
X95326595Y-76571166D01*
X95326592Y-76571168D01*
X95320588Y-76574862D01*
X95315553Y-76579793D01*
X95315550Y-76579795D01*
X95261793Y-76632438D01*
X95190993Y-76701771D01*
X95092735Y-76854238D01*
X95090326Y-76860858D01*
X95090324Y-76860861D01*
X95044100Y-76987861D01*
X95030697Y-77024685D01*
X95007963Y-77204640D01*
X88927521Y-77204640D01*
X89034616Y-77097918D01*
X89049096Y-77083489D01*
X89179453Y-76902077D01*
X89198051Y-76864448D01*
X89276136Y-76706453D01*
X89276137Y-76706451D01*
X89278430Y-76701811D01*
X89330588Y-76530140D01*
X89341865Y-76493023D01*
X89341865Y-76493021D01*
X89343370Y-76488069D01*
X89372529Y-76266590D01*
X89372611Y-76263240D01*
X89374074Y-76203365D01*
X89374074Y-76203361D01*
X89374156Y-76200000D01*
X89355852Y-75977361D01*
X89313221Y-75807640D01*
X105612463Y-75807640D01*
X105630163Y-75988160D01*
X105687418Y-76160273D01*
X105691065Y-76166295D01*
X105691066Y-76166297D01*
X105753815Y-76269908D01*
X105781380Y-76315424D01*
X105907382Y-76445902D01*
X105983270Y-76495562D01*
X106034987Y-76529404D01*
X106059159Y-76545222D01*
X106065763Y-76547678D01*
X106065765Y-76547679D01*
X106222558Y-76605990D01*
X106222560Y-76605990D01*
X106229168Y-76608448D01*
X106312995Y-76619633D01*
X106401980Y-76631507D01*
X106401984Y-76631507D01*
X106408961Y-76632438D01*
X106415972Y-76631800D01*
X106415976Y-76631800D01*
X106558459Y-76618832D01*
X106589600Y-76615998D01*
X106596302Y-76613820D01*
X106596304Y-76613820D01*
X106755409Y-76562124D01*
X106755412Y-76562123D01*
X106762108Y-76559947D01*
X106882684Y-76488069D01*
X106911860Y-76470677D01*
X106911862Y-76470676D01*
X106917912Y-76467069D01*
X107049266Y-76341982D01*
X107149643Y-76190902D01*
X107214055Y-76021338D01*
X107215035Y-76014366D01*
X107238748Y-75845639D01*
X107238748Y-75845636D01*
X107239299Y-75841717D01*
X107239616Y-75819000D01*
X107219397Y-75638745D01*
X107217080Y-75632091D01*
X107162064Y-75474106D01*
X107162062Y-75474103D01*
X107159745Y-75467448D01*
X107144569Y-75443162D01*
X107125435Y-75374794D01*
X107143972Y-75314780D01*
X107142524Y-75314036D01*
X107145745Y-75307770D01*
X107149643Y-75301902D01*
X107167159Y-75255791D01*
X107211555Y-75138920D01*
X107211556Y-75138918D01*
X107214055Y-75132338D01*
X107217779Y-75105844D01*
X107238748Y-74956638D01*
X107238748Y-74956637D01*
X107239299Y-74952717D01*
X107239616Y-74930000D01*
X107224096Y-74791640D01*
X108533463Y-74791640D01*
X108551163Y-74972160D01*
X108608418Y-75144273D01*
X108612065Y-75150295D01*
X108612066Y-75150297D01*
X108688980Y-75277297D01*
X108702380Y-75299424D01*
X108707269Y-75304487D01*
X108707270Y-75304488D01*
X108739284Y-75337639D01*
X108828382Y-75429902D01*
X108870156Y-75457238D01*
X108955886Y-75513338D01*
X108980159Y-75529222D01*
X108986763Y-75531678D01*
X108986765Y-75531679D01*
X109143558Y-75589990D01*
X109143560Y-75589990D01*
X109150168Y-75592448D01*
X109233995Y-75603633D01*
X109322980Y-75615507D01*
X109322984Y-75615507D01*
X109329961Y-75616438D01*
X109336972Y-75615800D01*
X109336976Y-75615800D01*
X109479459Y-75602832D01*
X109510600Y-75599998D01*
X109517302Y-75597820D01*
X109517304Y-75597820D01*
X109593341Y-75573114D01*
X109664309Y-75571087D01*
X109725107Y-75607749D01*
X109746658Y-75640098D01*
X109749193Y-75645583D01*
X109751418Y-75652273D01*
X109845380Y-75807424D01*
X109850269Y-75812487D01*
X109850270Y-75812488D01*
X109882284Y-75845639D01*
X109971382Y-75937902D01*
X110039569Y-75982522D01*
X110098886Y-76021338D01*
X110123159Y-76037222D01*
X110129763Y-76039678D01*
X110129765Y-76039679D01*
X110286558Y-76097990D01*
X110286560Y-76097990D01*
X110293168Y-76100448D01*
X110376995Y-76111633D01*
X110465980Y-76123507D01*
X110465984Y-76123507D01*
X110472961Y-76124438D01*
X110479972Y-76123800D01*
X110479976Y-76123800D01*
X110622459Y-76110832D01*
X110653600Y-76107998D01*
X110660302Y-76105820D01*
X110660304Y-76105820D01*
X110819409Y-76054124D01*
X110819412Y-76054123D01*
X110826108Y-76051947D01*
X110922513Y-75994478D01*
X110975860Y-75962677D01*
X110975862Y-75962676D01*
X110981912Y-75959069D01*
X111113266Y-75833982D01*
X111213643Y-75682902D01*
X111256118Y-75571087D01*
X111275555Y-75519920D01*
X111275556Y-75519918D01*
X111278055Y-75513338D01*
X111283569Y-75474106D01*
X111302748Y-75337639D01*
X111302748Y-75337636D01*
X111303299Y-75333717D01*
X111303616Y-75311000D01*
X111283397Y-75130745D01*
X111272398Y-75099160D01*
X111226064Y-74966106D01*
X111226062Y-74966103D01*
X111223745Y-74959448D01*
X111127626Y-74805624D01*
X111122664Y-74800627D01*
X111004778Y-74681915D01*
X111004774Y-74681912D01*
X110999815Y-74676918D01*
X110846666Y-74579727D01*
X110797759Y-74562312D01*
X110682425Y-74521243D01*
X110682420Y-74521242D01*
X110675790Y-74518881D01*
X110668802Y-74518048D01*
X110668799Y-74518047D01*
X110545698Y-74503368D01*
X110495680Y-74497404D01*
X110488677Y-74498140D01*
X110488676Y-74498140D01*
X110322288Y-74515628D01*
X110322286Y-74515629D01*
X110315288Y-74516364D01*
X110244259Y-74540544D01*
X110173328Y-74543562D01*
X110112024Y-74507752D01*
X110084664Y-74462703D01*
X110080745Y-74451448D01*
X110024674Y-74361715D01*
X110005539Y-74293349D01*
X110026581Y-74225221D01*
X110043128Y-74200316D01*
X110070643Y-74158902D01*
X110121389Y-74025314D01*
X110132555Y-73995920D01*
X110132556Y-73995918D01*
X110135055Y-73989338D01*
X110138127Y-73967482D01*
X110159748Y-73813639D01*
X110159748Y-73813636D01*
X110160299Y-73809717D01*
X110160616Y-73787000D01*
X110140397Y-73606745D01*
X110138080Y-73600091D01*
X110083064Y-73442106D01*
X110083062Y-73442103D01*
X110080745Y-73435448D01*
X110079303Y-73433140D01*
X132878963Y-73433140D01*
X132896663Y-73613660D01*
X132953918Y-73785773D01*
X132957565Y-73791795D01*
X132957566Y-73791797D01*
X133017207Y-73890276D01*
X133047880Y-73940924D01*
X133173882Y-74071402D01*
X133179778Y-74075260D01*
X133314623Y-74163500D01*
X133325659Y-74170722D01*
X133332263Y-74173178D01*
X133332265Y-74173179D01*
X133489058Y-74231490D01*
X133489060Y-74231490D01*
X133495668Y-74233948D01*
X133579495Y-74245133D01*
X133668480Y-74257007D01*
X133668484Y-74257007D01*
X133675461Y-74257938D01*
X133682472Y-74257300D01*
X133682476Y-74257300D01*
X133824959Y-74244332D01*
X133856100Y-74241498D01*
X133862802Y-74239320D01*
X133862804Y-74239320D01*
X134021909Y-74187624D01*
X134021912Y-74187623D01*
X134028608Y-74185447D01*
X134059781Y-74166864D01*
X134070113Y-74160705D01*
X134138868Y-74143005D01*
X134203621Y-74163500D01*
X134208760Y-74166862D01*
X134214659Y-74170722D01*
X134270656Y-74191547D01*
X134378058Y-74231490D01*
X134378060Y-74231490D01*
X134384668Y-74233948D01*
X134468495Y-74245133D01*
X134557480Y-74257007D01*
X134557484Y-74257007D01*
X134564461Y-74257938D01*
X134571472Y-74257300D01*
X134571476Y-74257300D01*
X134713959Y-74244332D01*
X134745100Y-74241498D01*
X134751802Y-74239320D01*
X134751804Y-74239320D01*
X134910909Y-74187624D01*
X134910912Y-74187623D01*
X134917608Y-74185447D01*
X134996976Y-74138134D01*
X136221500Y-74138134D01*
X136228255Y-74200316D01*
X136279385Y-74336705D01*
X136366739Y-74453261D01*
X136483295Y-74540615D01*
X136619684Y-74591745D01*
X136681866Y-74598500D01*
X140178134Y-74598500D01*
X140240316Y-74591745D01*
X140376705Y-74540615D01*
X140493261Y-74453261D01*
X140580615Y-74336705D01*
X140631745Y-74200316D01*
X140638500Y-74138134D01*
X140638500Y-70641866D01*
X140631745Y-70579684D01*
X140580615Y-70443295D01*
X140493261Y-70326739D01*
X140376705Y-70239385D01*
X140240316Y-70188255D01*
X140178134Y-70181500D01*
X136681866Y-70181500D01*
X136619684Y-70188255D01*
X136483295Y-70239385D01*
X136366739Y-70326739D01*
X136279385Y-70443295D01*
X136228255Y-70579684D01*
X136221500Y-70641866D01*
X136221500Y-74138134D01*
X134996976Y-74138134D01*
X135026744Y-74120389D01*
X135067360Y-74096177D01*
X135067362Y-74096176D01*
X135073412Y-74092569D01*
X135204766Y-73967482D01*
X135305143Y-73816402D01*
X135369555Y-73646838D01*
X135372388Y-73626679D01*
X135394248Y-73471139D01*
X135394248Y-73471136D01*
X135394799Y-73467217D01*
X135395116Y-73444500D01*
X135374897Y-73264245D01*
X135372580Y-73257591D01*
X135317564Y-73099606D01*
X135317562Y-73099603D01*
X135315245Y-73092948D01*
X135266642Y-73015166D01*
X135222859Y-72945098D01*
X135219126Y-72939124D01*
X135210335Y-72930271D01*
X135096278Y-72815415D01*
X135096274Y-72815412D01*
X135091315Y-72810418D01*
X135080197Y-72803362D01*
X134959273Y-72726622D01*
X134938166Y-72713227D01*
X134908963Y-72702828D01*
X134773925Y-72654743D01*
X134773920Y-72654742D01*
X134767290Y-72652381D01*
X134760302Y-72651548D01*
X134760299Y-72651547D01*
X134637198Y-72636868D01*
X134587180Y-72630904D01*
X134580177Y-72631640D01*
X134580176Y-72631640D01*
X134413788Y-72649128D01*
X134413786Y-72649129D01*
X134406788Y-72649864D01*
X134235079Y-72708318D01*
X134203809Y-72727556D01*
X134135310Y-72746214D01*
X134070274Y-72726623D01*
X134049166Y-72713227D01*
X134019963Y-72702828D01*
X133884925Y-72654743D01*
X133884920Y-72654742D01*
X133878290Y-72652381D01*
X133871302Y-72651548D01*
X133871299Y-72651547D01*
X133748198Y-72636868D01*
X133698180Y-72630904D01*
X133691177Y-72631640D01*
X133691176Y-72631640D01*
X133524788Y-72649128D01*
X133524786Y-72649129D01*
X133517788Y-72649864D01*
X133346079Y-72708318D01*
X133314810Y-72727555D01*
X133197595Y-72799666D01*
X133197592Y-72799668D01*
X133191588Y-72803362D01*
X133186553Y-72808293D01*
X133186550Y-72808295D01*
X133067744Y-72924639D01*
X133061993Y-72930271D01*
X132963735Y-73082738D01*
X132961326Y-73089358D01*
X132961324Y-73089361D01*
X132904568Y-73245297D01*
X132901697Y-73253185D01*
X132878963Y-73433140D01*
X110079303Y-73433140D01*
X109997651Y-73302469D01*
X109988359Y-73287598D01*
X109984626Y-73281624D01*
X109967368Y-73264245D01*
X109861778Y-73157915D01*
X109861774Y-73157912D01*
X109856815Y-73152918D01*
X109845697Y-73145862D01*
X109797538Y-73115300D01*
X109703666Y-73055727D01*
X109633986Y-73030915D01*
X109539425Y-72997243D01*
X109539420Y-72997242D01*
X109532790Y-72994881D01*
X109525802Y-72994048D01*
X109525799Y-72994047D01*
X109402698Y-72979368D01*
X109352680Y-72973404D01*
X109345677Y-72974140D01*
X109345676Y-72974140D01*
X109179288Y-72991628D01*
X109179286Y-72991629D01*
X109172288Y-72992364D01*
X109000579Y-73050818D01*
X108994575Y-73054512D01*
X108852095Y-73142166D01*
X108852092Y-73142168D01*
X108846088Y-73145862D01*
X108841053Y-73150793D01*
X108841050Y-73150795D01*
X108726150Y-73263314D01*
X108716493Y-73272771D01*
X108618235Y-73425238D01*
X108615826Y-73431858D01*
X108615824Y-73431861D01*
X108558606Y-73589066D01*
X108556197Y-73595685D01*
X108533463Y-73775640D01*
X108551163Y-73956160D01*
X108608418Y-74128273D01*
X108612065Y-74134295D01*
X108612066Y-74134297D01*
X108614237Y-74137881D01*
X108667132Y-74225221D01*
X108670101Y-74230124D01*
X108688280Y-74298753D01*
X108668236Y-74363650D01*
X108622054Y-74435310D01*
X108622050Y-74435319D01*
X108618235Y-74441238D01*
X108615826Y-74447858D01*
X108615825Y-74447859D01*
X108563144Y-74592598D01*
X108556197Y-74611685D01*
X108533463Y-74791640D01*
X107224096Y-74791640D01*
X107219397Y-74749745D01*
X107217080Y-74743091D01*
X107162064Y-74585106D01*
X107162062Y-74585103D01*
X107159745Y-74578448D01*
X107109625Y-74498238D01*
X107067359Y-74430598D01*
X107063626Y-74424624D01*
X107003076Y-74363650D01*
X106940778Y-74300915D01*
X106940774Y-74300912D01*
X106935815Y-74295918D01*
X106924697Y-74288862D01*
X106851069Y-74242137D01*
X106782666Y-74198727D01*
X106738449Y-74182982D01*
X106618425Y-74140243D01*
X106618420Y-74140242D01*
X106611790Y-74137881D01*
X106604802Y-74137048D01*
X106604799Y-74137047D01*
X106465099Y-74120389D01*
X106431680Y-74116404D01*
X106424677Y-74117140D01*
X106424676Y-74117140D01*
X106258288Y-74134628D01*
X106258286Y-74134629D01*
X106251288Y-74135364D01*
X106079579Y-74193818D01*
X106020565Y-74230124D01*
X105931095Y-74285166D01*
X105931092Y-74285168D01*
X105925088Y-74288862D01*
X105920053Y-74293793D01*
X105920050Y-74293795D01*
X105802897Y-74408520D01*
X105795493Y-74415771D01*
X105697235Y-74568238D01*
X105694826Y-74574858D01*
X105694824Y-74574861D01*
X105637606Y-74732066D01*
X105635197Y-74738685D01*
X105612463Y-74918640D01*
X105630163Y-75099160D01*
X105687418Y-75271273D01*
X105691065Y-75277295D01*
X105691066Y-75277297D01*
X105709449Y-75307651D01*
X105727628Y-75376281D01*
X105707586Y-75441174D01*
X105701055Y-75451309D01*
X105701052Y-75451315D01*
X105697235Y-75457238D01*
X105694826Y-75463858D01*
X105694825Y-75463859D01*
X105637606Y-75621066D01*
X105635197Y-75627685D01*
X105612463Y-75807640D01*
X89313221Y-75807640D01*
X89301431Y-75760702D01*
X89212354Y-75555840D01*
X89151307Y-75461476D01*
X89093822Y-75372617D01*
X89093820Y-75372614D01*
X89091014Y-75368277D01*
X88940670Y-75203051D01*
X88936619Y-75199852D01*
X88936615Y-75199848D01*
X88769414Y-75067800D01*
X88769410Y-75067798D01*
X88765359Y-75064598D01*
X88569789Y-74956638D01*
X88564920Y-74954914D01*
X88564916Y-74954912D01*
X88364087Y-74883795D01*
X88364083Y-74883794D01*
X88359212Y-74882069D01*
X88354119Y-74881162D01*
X88354116Y-74881161D01*
X88144373Y-74843800D01*
X88144367Y-74843799D01*
X88139284Y-74842894D01*
X88065452Y-74841992D01*
X87921081Y-74840228D01*
X87921079Y-74840228D01*
X87915911Y-74840165D01*
X87695091Y-74873955D01*
X87482756Y-74943357D01*
X87284607Y-75046507D01*
X87280474Y-75049610D01*
X87280471Y-75049612D01*
X87146371Y-75150297D01*
X87105965Y-75180635D01*
X87049537Y-75239684D01*
X87025283Y-75265064D01*
X86963759Y-75300494D01*
X86892846Y-75297037D01*
X86835060Y-75255791D01*
X86816207Y-75222243D01*
X86774767Y-75111703D01*
X86771615Y-75103295D01*
X86684261Y-74986739D01*
X86567705Y-74899385D01*
X86431316Y-74848255D01*
X86369134Y-74841500D01*
X84572866Y-74841500D01*
X84510684Y-74848255D01*
X84374295Y-74899385D01*
X84257739Y-74986739D01*
X84170385Y-75103295D01*
X84119255Y-75239684D01*
X84112500Y-75301866D01*
X84112500Y-77098134D01*
X82091000Y-77098134D01*
X82091000Y-76218115D01*
X82086525Y-76202876D01*
X82085135Y-76201671D01*
X82077452Y-76200000D01*
X80155115Y-76200000D01*
X80139876Y-76204475D01*
X80138671Y-76205865D01*
X80137000Y-76213548D01*
X80137000Y-78135884D01*
X79629000Y-78135884D01*
X79629000Y-76218115D01*
X79624525Y-76202876D01*
X79623135Y-76201671D01*
X79615452Y-76200000D01*
X77693116Y-76200000D01*
X77677877Y-76204475D01*
X77676672Y-76205865D01*
X77675001Y-76213548D01*
X77675001Y-77690669D01*
X77343500Y-77690669D01*
X77343500Y-75673885D01*
X77675000Y-75673885D01*
X77679475Y-75689124D01*
X77680865Y-75690329D01*
X77688548Y-75692000D01*
X79610885Y-75692000D01*
X79626124Y-75687525D01*
X79627329Y-75686135D01*
X79629000Y-75678452D01*
X79629000Y-75673885D01*
X80137000Y-75673885D01*
X80141475Y-75689124D01*
X80142865Y-75690329D01*
X80150548Y-75692000D01*
X82072884Y-75692000D01*
X82088123Y-75687525D01*
X82089328Y-75686135D01*
X82090999Y-75678452D01*
X82090999Y-74533238D01*
X82111001Y-74465117D01*
X82164657Y-74418624D01*
X82234931Y-74408520D01*
X82260912Y-74415138D01*
X82353168Y-74449448D01*
X82436995Y-74460633D01*
X82525980Y-74472507D01*
X82525984Y-74472507D01*
X82532961Y-74473438D01*
X82539972Y-74472800D01*
X82539976Y-74472800D01*
X82701491Y-74458100D01*
X82713600Y-74456998D01*
X82720302Y-74454820D01*
X82720304Y-74454820D01*
X82879409Y-74403124D01*
X82879412Y-74403123D01*
X82886108Y-74400947D01*
X82993875Y-74336705D01*
X83035860Y-74311677D01*
X83035862Y-74311676D01*
X83041912Y-74308069D01*
X83173266Y-74182982D01*
X83273643Y-74031902D01*
X83338055Y-73862338D01*
X83345437Y-73809814D01*
X83362748Y-73686639D01*
X83362748Y-73686636D01*
X83363299Y-73682717D01*
X83363616Y-73660000D01*
X83343397Y-73479745D01*
X83340400Y-73471139D01*
X83286064Y-73315106D01*
X83286062Y-73315103D01*
X83283745Y-73308448D01*
X83187626Y-73154624D01*
X83140254Y-73106920D01*
X83064778Y-73030915D01*
X83064774Y-73030912D01*
X83059815Y-73025918D01*
X83048697Y-73018862D01*
X82978380Y-72974238D01*
X82906666Y-72928727D01*
X82831501Y-72901962D01*
X82788472Y-72886640D01*
X102056463Y-72886640D01*
X102074163Y-73067160D01*
X102131418Y-73239273D01*
X102135065Y-73245295D01*
X102135066Y-73245297D01*
X102177344Y-73315106D01*
X102225380Y-73394424D01*
X102230269Y-73399487D01*
X102230270Y-73399488D01*
X102299463Y-73471139D01*
X102351382Y-73524902D01*
X102357278Y-73528760D01*
X102497233Y-73620344D01*
X102503159Y-73624222D01*
X102509763Y-73626678D01*
X102509765Y-73626679D01*
X102666558Y-73684990D01*
X102666560Y-73684990D01*
X102673168Y-73687448D01*
X102756995Y-73698633D01*
X102845980Y-73710507D01*
X102845984Y-73710507D01*
X102852961Y-73711438D01*
X102859972Y-73710800D01*
X102859976Y-73710800D01*
X103002459Y-73697832D01*
X103033600Y-73694998D01*
X103040302Y-73692820D01*
X103040304Y-73692820D01*
X103199409Y-73641124D01*
X103199412Y-73641123D01*
X103206108Y-73638947D01*
X103361912Y-73546069D01*
X103493266Y-73420982D01*
X103593643Y-73269902D01*
X103640762Y-73145862D01*
X103655555Y-73106920D01*
X103655556Y-73106918D01*
X103658055Y-73100338D01*
X103660529Y-73082738D01*
X103682748Y-72924639D01*
X103682748Y-72924636D01*
X103683299Y-72920717D01*
X103683616Y-72898000D01*
X103663397Y-72717745D01*
X103660114Y-72708318D01*
X103606064Y-72553106D01*
X103606062Y-72553103D01*
X103603745Y-72546448D01*
X103507626Y-72392624D01*
X103429984Y-72314438D01*
X103384778Y-72268915D01*
X103384774Y-72268912D01*
X103379815Y-72263918D01*
X103368697Y-72256862D01*
X103315912Y-72223364D01*
X103226666Y-72166727D01*
X103187209Y-72152677D01*
X103062425Y-72108243D01*
X103062420Y-72108242D01*
X103055790Y-72105881D01*
X103048802Y-72105048D01*
X103048799Y-72105047D01*
X102925698Y-72090368D01*
X102875680Y-72084404D01*
X102868677Y-72085140D01*
X102868676Y-72085140D01*
X102702288Y-72102628D01*
X102702286Y-72102629D01*
X102695288Y-72103364D01*
X102523579Y-72161818D01*
X102517575Y-72165512D01*
X102375095Y-72253166D01*
X102375092Y-72253168D01*
X102369088Y-72256862D01*
X102364053Y-72261793D01*
X102364050Y-72261795D01*
X102310293Y-72314438D01*
X102239493Y-72383771D01*
X102141235Y-72536238D01*
X102138826Y-72542858D01*
X102138824Y-72542861D01*
X102099052Y-72652133D01*
X102079197Y-72706685D01*
X102056463Y-72886640D01*
X82788472Y-72886640D01*
X82742425Y-72870243D01*
X82742420Y-72870242D01*
X82735790Y-72867881D01*
X82728802Y-72867048D01*
X82728799Y-72867047D01*
X82605698Y-72852368D01*
X82555680Y-72846404D01*
X82548677Y-72847140D01*
X82548676Y-72847140D01*
X82382288Y-72864628D01*
X82382286Y-72864629D01*
X82375288Y-72865364D01*
X82203579Y-72923818D01*
X82197575Y-72927512D01*
X82055095Y-73015166D01*
X82055092Y-73015168D01*
X82049088Y-73018862D01*
X82044053Y-73023793D01*
X82044050Y-73023795D01*
X81959166Y-73106920D01*
X81919493Y-73145771D01*
X81821235Y-73298238D01*
X81818826Y-73304858D01*
X81818824Y-73304861D01*
X81761606Y-73462066D01*
X81759197Y-73468685D01*
X81739238Y-73626679D01*
X81739097Y-73627792D01*
X81710715Y-73692869D01*
X81651656Y-73732270D01*
X81614091Y-73738000D01*
X80155115Y-73738000D01*
X80139876Y-73742475D01*
X80138671Y-73743865D01*
X80137000Y-73751548D01*
X80137000Y-75673885D01*
X79629000Y-75673885D01*
X79629000Y-73756116D01*
X79624525Y-73740877D01*
X79623135Y-73739672D01*
X79615452Y-73738001D01*
X78138331Y-73738001D01*
X78131510Y-73738371D01*
X78080648Y-73743895D01*
X78065396Y-73747521D01*
X77944946Y-73792676D01*
X77929351Y-73801214D01*
X77827276Y-73877715D01*
X77814715Y-73890276D01*
X77738214Y-73992351D01*
X77729676Y-74007946D01*
X77684522Y-74128394D01*
X77680895Y-74143649D01*
X77675369Y-74194514D01*
X77675000Y-74201328D01*
X77675000Y-75673885D01*
X77343500Y-75673885D01*
X77343500Y-70625966D01*
X77916257Y-70625966D01*
X77946565Y-70760446D01*
X77949645Y-70770275D01*
X78029770Y-70967603D01*
X78034413Y-70976794D01*
X78145694Y-71158388D01*
X78151777Y-71166699D01*
X78291213Y-71327667D01*
X78298580Y-71334883D01*
X78462434Y-71470916D01*
X78470881Y-71476831D01*
X78654756Y-71584279D01*
X78664042Y-71588729D01*
X78863001Y-71664703D01*
X78872899Y-71667579D01*
X78976250Y-71688606D01*
X78990299Y-71687410D01*
X78994000Y-71677065D01*
X78994000Y-71676517D01*
X79502000Y-71676517D01*
X79506064Y-71690359D01*
X79519478Y-71692393D01*
X79526184Y-71691534D01*
X79536262Y-71689392D01*
X79740255Y-71628191D01*
X79749842Y-71624433D01*
X79941095Y-71530739D01*
X79949945Y-71525464D01*
X80123328Y-71401792D01*
X80131200Y-71395139D01*
X80282052Y-71244812D01*
X80288730Y-71236965D01*
X80372777Y-71120000D01*
X95923996Y-71120000D01*
X95943958Y-71309928D01*
X96002973Y-71491556D01*
X96006276Y-71497278D01*
X96006277Y-71497279D01*
X96025595Y-71530739D01*
X96098460Y-71656944D01*
X96102878Y-71661851D01*
X96102879Y-71661852D01*
X96221825Y-71793955D01*
X96226247Y-71798866D01*
X96380748Y-71911118D01*
X96386776Y-71913802D01*
X96386778Y-71913803D01*
X96469871Y-71950798D01*
X96555212Y-71988794D01*
X96648612Y-72008647D01*
X96735556Y-72027128D01*
X96735561Y-72027128D01*
X96742013Y-72028500D01*
X96932987Y-72028500D01*
X96939439Y-72027128D01*
X96939444Y-72027128D01*
X97026388Y-72008647D01*
X97119788Y-71988794D01*
X97205129Y-71950798D01*
X97288222Y-71913803D01*
X97288224Y-71913802D01*
X97294252Y-71911118D01*
X97448753Y-71798866D01*
X97453175Y-71793955D01*
X97572121Y-71661852D01*
X97572122Y-71661851D01*
X97576540Y-71656944D01*
X97649405Y-71530739D01*
X97668723Y-71497279D01*
X97668724Y-71497278D01*
X97672027Y-71491556D01*
X97731042Y-71309928D01*
X97751004Y-71120000D01*
X97736462Y-70981640D01*
X102056463Y-70981640D01*
X102074163Y-71162160D01*
X102131418Y-71334273D01*
X102135065Y-71340295D01*
X102135066Y-71340297D01*
X102178605Y-71412188D01*
X102225380Y-71489424D01*
X102230269Y-71494487D01*
X102230270Y-71494488D01*
X102262284Y-71527639D01*
X102351382Y-71619902D01*
X102419845Y-71664703D01*
X102478886Y-71703338D01*
X102503159Y-71719222D01*
X102509763Y-71721678D01*
X102509765Y-71721679D01*
X102666558Y-71779990D01*
X102666560Y-71779990D01*
X102673168Y-71782448D01*
X102756995Y-71793633D01*
X102845980Y-71805507D01*
X102845984Y-71805507D01*
X102852961Y-71806438D01*
X102859972Y-71805800D01*
X102859976Y-71805800D01*
X103002459Y-71792832D01*
X103033600Y-71789998D01*
X103040302Y-71787820D01*
X103040304Y-71787820D01*
X103199409Y-71736124D01*
X103199412Y-71736123D01*
X103206108Y-71733947D01*
X103302513Y-71676478D01*
X103355860Y-71644677D01*
X103355862Y-71644676D01*
X103361912Y-71641069D01*
X103493266Y-71515982D01*
X103510768Y-71489640D01*
X113232463Y-71489640D01*
X113250163Y-71670160D01*
X113307418Y-71842273D01*
X113311065Y-71848295D01*
X113311066Y-71848297D01*
X113397731Y-71991398D01*
X113401380Y-71997424D01*
X113527382Y-72127902D01*
X113679159Y-72227222D01*
X113685763Y-72229678D01*
X113685765Y-72229679D01*
X113842558Y-72287990D01*
X113842560Y-72287990D01*
X113849168Y-72290448D01*
X113932995Y-72301633D01*
X114021980Y-72313507D01*
X114021984Y-72313507D01*
X114028961Y-72314438D01*
X114035972Y-72313800D01*
X114035976Y-72313800D01*
X114178459Y-72300832D01*
X114209600Y-72297998D01*
X114216302Y-72295820D01*
X114216304Y-72295820D01*
X114375409Y-72244124D01*
X114375412Y-72244123D01*
X114382108Y-72241947D01*
X114501951Y-72170506D01*
X114531860Y-72152677D01*
X114531862Y-72152676D01*
X114537912Y-72149069D01*
X114669266Y-72023982D01*
X114769643Y-71872902D01*
X114834055Y-71703338D01*
X114836015Y-71689392D01*
X114858748Y-71527639D01*
X114858748Y-71527636D01*
X114859299Y-71523717D01*
X114859616Y-71501000D01*
X114858342Y-71489640D01*
X115518463Y-71489640D01*
X115536163Y-71670160D01*
X115593418Y-71842273D01*
X115597065Y-71848295D01*
X115597066Y-71848297D01*
X115683731Y-71991398D01*
X115687380Y-71997424D01*
X115813382Y-72127902D01*
X115965159Y-72227222D01*
X115971763Y-72229678D01*
X115971765Y-72229679D01*
X116128558Y-72287990D01*
X116128560Y-72287990D01*
X116135168Y-72290448D01*
X116218995Y-72301633D01*
X116307980Y-72313507D01*
X116307984Y-72313507D01*
X116314961Y-72314438D01*
X116321972Y-72313800D01*
X116321976Y-72313800D01*
X116464459Y-72300832D01*
X116495600Y-72297998D01*
X116502302Y-72295820D01*
X116502304Y-72295820D01*
X116661409Y-72244124D01*
X116661412Y-72244123D01*
X116668108Y-72241947D01*
X116787951Y-72170506D01*
X116817860Y-72152677D01*
X116817862Y-72152676D01*
X116823912Y-72149069D01*
X116955266Y-72023982D01*
X116987791Y-71975028D01*
X117042149Y-71929357D01*
X117112568Y-71920325D01*
X117176692Y-71950798D01*
X117200514Y-71979483D01*
X117207730Y-71991398D01*
X117207733Y-71991401D01*
X117211380Y-71997424D01*
X117337382Y-72127902D01*
X117489159Y-72227222D01*
X117495763Y-72229678D01*
X117495765Y-72229679D01*
X117652558Y-72287990D01*
X117652560Y-72287990D01*
X117659168Y-72290448D01*
X117742995Y-72301633D01*
X117831980Y-72313507D01*
X117831984Y-72313507D01*
X117838961Y-72314438D01*
X117845972Y-72313800D01*
X117845976Y-72313800D01*
X117988459Y-72300832D01*
X118019600Y-72297998D01*
X118026302Y-72295820D01*
X118026304Y-72295820D01*
X118185409Y-72244124D01*
X118185412Y-72244123D01*
X118192108Y-72241947D01*
X118311951Y-72170506D01*
X118341860Y-72152677D01*
X118341862Y-72152676D01*
X118347912Y-72149069D01*
X118479266Y-72023982D01*
X118579643Y-71872902D01*
X118644055Y-71703338D01*
X118646015Y-71689392D01*
X118668748Y-71527639D01*
X118668748Y-71527636D01*
X118669299Y-71523717D01*
X118669616Y-71501000D01*
X118649397Y-71320745D01*
X118645630Y-71309928D01*
X118592064Y-71156106D01*
X118592062Y-71156103D01*
X118589745Y-71149448D01*
X118579662Y-71133312D01*
X118497359Y-71001598D01*
X118497357Y-71001595D01*
X118493626Y-70995624D01*
X118487110Y-70989062D01*
X118370778Y-70871915D01*
X118370774Y-70871912D01*
X118365815Y-70866918D01*
X118354697Y-70859862D01*
X118274038Y-70808675D01*
X118212666Y-70769727D01*
X118170547Y-70754729D01*
X118048425Y-70711243D01*
X118048420Y-70711242D01*
X118041790Y-70708881D01*
X118034802Y-70708048D01*
X118034799Y-70708047D01*
X117911698Y-70693368D01*
X117861680Y-70687404D01*
X117854677Y-70688140D01*
X117854676Y-70688140D01*
X117688288Y-70705628D01*
X117688286Y-70705629D01*
X117681288Y-70706364D01*
X117509579Y-70764818D01*
X117493619Y-70774637D01*
X117361095Y-70856166D01*
X117361092Y-70856168D01*
X117355088Y-70859862D01*
X117350053Y-70864793D01*
X117350050Y-70864795D01*
X117230525Y-70981843D01*
X117225493Y-70986771D01*
X117215940Y-71001595D01*
X117200329Y-71025818D01*
X117146615Y-71072243D01*
X117076328Y-71082258D01*
X117011785Y-71052683D01*
X116987567Y-71024335D01*
X116969626Y-70995624D01*
X116963110Y-70989062D01*
X116846778Y-70871915D01*
X116846774Y-70871912D01*
X116841815Y-70866918D01*
X116830697Y-70859862D01*
X116750038Y-70808675D01*
X116688666Y-70769727D01*
X116646547Y-70754729D01*
X116524425Y-70711243D01*
X116524420Y-70711242D01*
X116517790Y-70708881D01*
X116510802Y-70708048D01*
X116510799Y-70708047D01*
X116387698Y-70693368D01*
X116337680Y-70687404D01*
X116330677Y-70688140D01*
X116330676Y-70688140D01*
X116164288Y-70705628D01*
X116164286Y-70705629D01*
X116157288Y-70706364D01*
X115985579Y-70764818D01*
X115969619Y-70774637D01*
X115837095Y-70856166D01*
X115837092Y-70856168D01*
X115831088Y-70859862D01*
X115826053Y-70864793D01*
X115826050Y-70864795D01*
X115706525Y-70981843D01*
X115701493Y-70986771D01*
X115603235Y-71139238D01*
X115600826Y-71145858D01*
X115600824Y-71145861D01*
X115564809Y-71244812D01*
X115541197Y-71309685D01*
X115518463Y-71489640D01*
X114858342Y-71489640D01*
X114839397Y-71320745D01*
X114835630Y-71309928D01*
X114782064Y-71156106D01*
X114782062Y-71156103D01*
X114779745Y-71149448D01*
X114769662Y-71133312D01*
X114687359Y-71001598D01*
X114687357Y-71001595D01*
X114683626Y-70995624D01*
X114677110Y-70989062D01*
X114560778Y-70871915D01*
X114560774Y-70871912D01*
X114555815Y-70866918D01*
X114544697Y-70859862D01*
X114464038Y-70808675D01*
X114402666Y-70769727D01*
X114360547Y-70754729D01*
X114238425Y-70711243D01*
X114238420Y-70711242D01*
X114231790Y-70708881D01*
X114224802Y-70708048D01*
X114224799Y-70708047D01*
X114101698Y-70693368D01*
X114051680Y-70687404D01*
X114044677Y-70688140D01*
X114044676Y-70688140D01*
X113878288Y-70705628D01*
X113878286Y-70705629D01*
X113871288Y-70706364D01*
X113699579Y-70764818D01*
X113683619Y-70774637D01*
X113551095Y-70856166D01*
X113551092Y-70856168D01*
X113545088Y-70859862D01*
X113540053Y-70864793D01*
X113540050Y-70864795D01*
X113420525Y-70981843D01*
X113415493Y-70986771D01*
X113317235Y-71139238D01*
X113314826Y-71145858D01*
X113314824Y-71145861D01*
X113278809Y-71244812D01*
X113255197Y-71309685D01*
X113232463Y-71489640D01*
X103510768Y-71489640D01*
X103593643Y-71364902D01*
X103658055Y-71195338D01*
X103659035Y-71188366D01*
X103682748Y-71019639D01*
X103682748Y-71019636D01*
X103683299Y-71015717D01*
X103683616Y-70993000D01*
X103663397Y-70812745D01*
X103661080Y-70806091D01*
X103606064Y-70648106D01*
X103606062Y-70648103D01*
X103603745Y-70641448D01*
X103515348Y-70499982D01*
X103511359Y-70493598D01*
X103507626Y-70487624D01*
X103471955Y-70451703D01*
X103384778Y-70363915D01*
X103384774Y-70363912D01*
X103379815Y-70358918D01*
X103368697Y-70351862D01*
X103320538Y-70321300D01*
X103226666Y-70261727D01*
X103197463Y-70251328D01*
X103062425Y-70203243D01*
X103062420Y-70203242D01*
X103055790Y-70200881D01*
X103048802Y-70200048D01*
X103048799Y-70200047D01*
X102925698Y-70185368D01*
X102875680Y-70179404D01*
X102868677Y-70180140D01*
X102868676Y-70180140D01*
X102702288Y-70197628D01*
X102702286Y-70197629D01*
X102695288Y-70198364D01*
X102523579Y-70256818D01*
X102517575Y-70260512D01*
X102375095Y-70348166D01*
X102375092Y-70348168D01*
X102369088Y-70351862D01*
X102364053Y-70356793D01*
X102364050Y-70356795D01*
X102244953Y-70473424D01*
X102239493Y-70478771D01*
X102141235Y-70631238D01*
X102138826Y-70637858D01*
X102138824Y-70637861D01*
X102081952Y-70794116D01*
X102079197Y-70801685D01*
X102056463Y-70981640D01*
X97736462Y-70981640D01*
X97731042Y-70930072D01*
X97672027Y-70748444D01*
X97655677Y-70720124D01*
X97604358Y-70631238D01*
X97576540Y-70583056D01*
X97486114Y-70482627D01*
X97453175Y-70446045D01*
X97453174Y-70446044D01*
X97448753Y-70441134D01*
X97320794Y-70348166D01*
X97299594Y-70332763D01*
X97299593Y-70332762D01*
X97294252Y-70328882D01*
X97288224Y-70326198D01*
X97288222Y-70326197D01*
X97125819Y-70253891D01*
X97125818Y-70253891D01*
X97119788Y-70251206D01*
X97025018Y-70231062D01*
X96939444Y-70212872D01*
X96939439Y-70212872D01*
X96932987Y-70211500D01*
X96742013Y-70211500D01*
X96735561Y-70212872D01*
X96735556Y-70212872D01*
X96649982Y-70231062D01*
X96555212Y-70251206D01*
X96549182Y-70253891D01*
X96549181Y-70253891D01*
X96386778Y-70326197D01*
X96386776Y-70326198D01*
X96380748Y-70328882D01*
X96375407Y-70332762D01*
X96375406Y-70332763D01*
X96354206Y-70348166D01*
X96226247Y-70441134D01*
X96221826Y-70446044D01*
X96221825Y-70446045D01*
X96188887Y-70482627D01*
X96098460Y-70583056D01*
X96070642Y-70631238D01*
X96019324Y-70720124D01*
X96002973Y-70748444D01*
X95943958Y-70930072D01*
X95923996Y-71120000D01*
X80372777Y-71120000D01*
X80413003Y-71064020D01*
X80418313Y-71055183D01*
X80512670Y-70864267D01*
X80516469Y-70854672D01*
X80578377Y-70650910D01*
X80580555Y-70640837D01*
X80581986Y-70629962D01*
X80579775Y-70615778D01*
X80566617Y-70612000D01*
X79520115Y-70612000D01*
X79504876Y-70616475D01*
X79503671Y-70617865D01*
X79502000Y-70625548D01*
X79502000Y-71676517D01*
X78994000Y-71676517D01*
X78994000Y-70630115D01*
X78989525Y-70614876D01*
X78988135Y-70613671D01*
X78980452Y-70612000D01*
X77931225Y-70612000D01*
X77917694Y-70615973D01*
X77916257Y-70625966D01*
X77343500Y-70625966D01*
X77343500Y-67784695D01*
X77885251Y-67784695D01*
X77885548Y-67789848D01*
X77885548Y-67789851D01*
X77896576Y-67981106D01*
X77898110Y-68007715D01*
X77899247Y-68012761D01*
X77899248Y-68012767D01*
X77912326Y-68070795D01*
X77947222Y-68225639D01*
X78031266Y-68432616D01*
X78147987Y-68623088D01*
X78294250Y-68791938D01*
X78378846Y-68862171D01*
X78454462Y-68924948D01*
X78466126Y-68934632D01*
X78489015Y-68948007D01*
X78539955Y-68977774D01*
X78588679Y-69029412D01*
X78601750Y-69099195D01*
X78575019Y-69164967D01*
X78534562Y-69198327D01*
X78526457Y-69202546D01*
X78517738Y-69208036D01*
X78347433Y-69335905D01*
X78339726Y-69342748D01*
X78192590Y-69496717D01*
X78186104Y-69504727D01*
X78066098Y-69680649D01*
X78061000Y-69689623D01*
X77971338Y-69882783D01*
X77967775Y-69892470D01*
X77912389Y-70092183D01*
X77913912Y-70100607D01*
X77926292Y-70104000D01*
X80566344Y-70104000D01*
X80579875Y-70100027D01*
X80581180Y-70090947D01*
X80549705Y-69965640D01*
X99770463Y-69965640D01*
X99788163Y-70146160D01*
X99845418Y-70318273D01*
X99849065Y-70324295D01*
X99849066Y-70324297D01*
X99922799Y-70446045D01*
X99939380Y-70473424D01*
X99944269Y-70478487D01*
X99944270Y-70478488D01*
X99948267Y-70482627D01*
X100065382Y-70603902D01*
X100117277Y-70637861D01*
X100192987Y-70687404D01*
X100217159Y-70703222D01*
X100223763Y-70705678D01*
X100223765Y-70705679D01*
X100380558Y-70763990D01*
X100380560Y-70763990D01*
X100387168Y-70766448D01*
X100470995Y-70777633D01*
X100559980Y-70789507D01*
X100559984Y-70789507D01*
X100566961Y-70790438D01*
X100573972Y-70789800D01*
X100573976Y-70789800D01*
X100716459Y-70776832D01*
X100747600Y-70773998D01*
X100754302Y-70771820D01*
X100754304Y-70771820D01*
X100913409Y-70720124D01*
X100913412Y-70720123D01*
X100920108Y-70717947D01*
X101016513Y-70660478D01*
X101069860Y-70628677D01*
X101069862Y-70628676D01*
X101075912Y-70625069D01*
X101207266Y-70499982D01*
X101307643Y-70348902D01*
X101352407Y-70231062D01*
X101369555Y-70185920D01*
X101369556Y-70185918D01*
X101372055Y-70179338D01*
X101373035Y-70172366D01*
X101396748Y-70003639D01*
X101396748Y-70003636D01*
X101397299Y-69999717D01*
X101397616Y-69977000D01*
X101396342Y-69965640D01*
X104596463Y-69965640D01*
X104614163Y-70146160D01*
X104671418Y-70318273D01*
X104675065Y-70324295D01*
X104675066Y-70324297D01*
X104748799Y-70446045D01*
X104765380Y-70473424D01*
X104770269Y-70478487D01*
X104770270Y-70478488D01*
X104774267Y-70482627D01*
X104891382Y-70603902D01*
X104943277Y-70637861D01*
X105018987Y-70687404D01*
X105043159Y-70703222D01*
X105049763Y-70705678D01*
X105049765Y-70705679D01*
X105206558Y-70763990D01*
X105206560Y-70763990D01*
X105213168Y-70766448D01*
X105296995Y-70777633D01*
X105385980Y-70789507D01*
X105385984Y-70789507D01*
X105392961Y-70790438D01*
X105399972Y-70789800D01*
X105399976Y-70789800D01*
X105542459Y-70776832D01*
X105573600Y-70773998D01*
X105580302Y-70771820D01*
X105580304Y-70771820D01*
X105739409Y-70720124D01*
X105739412Y-70720123D01*
X105746108Y-70717947D01*
X105842513Y-70660478D01*
X105895860Y-70628677D01*
X105895862Y-70628676D01*
X105901912Y-70625069D01*
X105941479Y-70587390D01*
X108292713Y-70587390D01*
X108310413Y-70767910D01*
X108367668Y-70940023D01*
X108371315Y-70946045D01*
X108371316Y-70946047D01*
X108453808Y-71082258D01*
X108461630Y-71095174D01*
X108466519Y-71100237D01*
X108466520Y-71100238D01*
X108520472Y-71156106D01*
X108587632Y-71225652D01*
X108739409Y-71324972D01*
X108746013Y-71327428D01*
X108746015Y-71327429D01*
X108902808Y-71385740D01*
X108902810Y-71385740D01*
X108909418Y-71388198D01*
X108993245Y-71399383D01*
X109082230Y-71411257D01*
X109082234Y-71411257D01*
X109089211Y-71412188D01*
X109096222Y-71411550D01*
X109096226Y-71411550D01*
X109238709Y-71398582D01*
X109269850Y-71395748D01*
X109276552Y-71393570D01*
X109276554Y-71393570D01*
X109435659Y-71341874D01*
X109435662Y-71341873D01*
X109442358Y-71339697D01*
X109598162Y-71246819D01*
X109729516Y-71121732D01*
X109829893Y-70970652D01*
X109894305Y-70801088D01*
X109895802Y-70790438D01*
X109918998Y-70625389D01*
X109918998Y-70625386D01*
X109919549Y-70621467D01*
X109919866Y-70598750D01*
X109899647Y-70418495D01*
X109897330Y-70411841D01*
X109842314Y-70253856D01*
X109842312Y-70253853D01*
X109839995Y-70247198D01*
X109743876Y-70093374D01*
X109730191Y-70079593D01*
X109621028Y-69969665D01*
X109621024Y-69969662D01*
X109616065Y-69964668D01*
X109604947Y-69957612D01*
X109536420Y-69914124D01*
X109462916Y-69867477D01*
X109433713Y-69857078D01*
X109298675Y-69808993D01*
X109298670Y-69808992D01*
X109292040Y-69806631D01*
X109285052Y-69805798D01*
X109285049Y-69805797D01*
X109161948Y-69791118D01*
X109111930Y-69785154D01*
X109104927Y-69785890D01*
X109104926Y-69785890D01*
X108938538Y-69803378D01*
X108938536Y-69803379D01*
X108931538Y-69804114D01*
X108759829Y-69862568D01*
X108753825Y-69866262D01*
X108611345Y-69953916D01*
X108611342Y-69953918D01*
X108605338Y-69957612D01*
X108600303Y-69962543D01*
X108600300Y-69962545D01*
X108480775Y-70079593D01*
X108475743Y-70084521D01*
X108377485Y-70236988D01*
X108375076Y-70243608D01*
X108375074Y-70243611D01*
X108333106Y-70358918D01*
X108315447Y-70407435D01*
X108292713Y-70587390D01*
X105941479Y-70587390D01*
X106033266Y-70499982D01*
X106133643Y-70348902D01*
X106178407Y-70231062D01*
X106195555Y-70185920D01*
X106195556Y-70185918D01*
X106198055Y-70179338D01*
X106199035Y-70172366D01*
X106222748Y-70003639D01*
X106222748Y-70003636D01*
X106223299Y-69999717D01*
X106223616Y-69977000D01*
X106203397Y-69796745D01*
X106199617Y-69785890D01*
X106146064Y-69632106D01*
X106146062Y-69632103D01*
X106143745Y-69625448D01*
X106047626Y-69471624D01*
X106005660Y-69429364D01*
X105924778Y-69347915D01*
X105924774Y-69347912D01*
X105919815Y-69342918D01*
X105911688Y-69337760D01*
X105804922Y-69270005D01*
X105766666Y-69245727D01*
X105722449Y-69229982D01*
X105602425Y-69187243D01*
X105602420Y-69187242D01*
X105595790Y-69184881D01*
X105588802Y-69184048D01*
X105588799Y-69184047D01*
X105465698Y-69169368D01*
X105415680Y-69163404D01*
X105408677Y-69164140D01*
X105408676Y-69164140D01*
X105242288Y-69181628D01*
X105242286Y-69181629D01*
X105235288Y-69182364D01*
X105063579Y-69240818D01*
X105005095Y-69276798D01*
X104915095Y-69332166D01*
X104915092Y-69332168D01*
X104909088Y-69335862D01*
X104904053Y-69340793D01*
X104904050Y-69340795D01*
X104784525Y-69457843D01*
X104779493Y-69462771D01*
X104681235Y-69615238D01*
X104678826Y-69621858D01*
X104678824Y-69621861D01*
X104657427Y-69680649D01*
X104619197Y-69785685D01*
X104596463Y-69965640D01*
X101396342Y-69965640D01*
X101377397Y-69796745D01*
X101373617Y-69785890D01*
X101320064Y-69632106D01*
X101320062Y-69632103D01*
X101317745Y-69625448D01*
X101221626Y-69471624D01*
X101181979Y-69431699D01*
X101148172Y-69369268D01*
X101153484Y-69298470D01*
X101184492Y-69251670D01*
X101198272Y-69238547D01*
X101207266Y-69229982D01*
X101307643Y-69078902D01*
X101372055Y-68909338D01*
X101373035Y-68902366D01*
X101396748Y-68733639D01*
X101396748Y-68733636D01*
X101397299Y-68729717D01*
X101397616Y-68707000D01*
X101377397Y-68526745D01*
X101375075Y-68520077D01*
X101320064Y-68362106D01*
X101320062Y-68362103D01*
X101317745Y-68355448D01*
X101221626Y-68201624D01*
X101224010Y-68200134D01*
X101202145Y-68146090D01*
X101215327Y-68076328D01*
X101222582Y-68063929D01*
X101222600Y-68063902D01*
X101307643Y-67935902D01*
X101358389Y-67802314D01*
X101369555Y-67772920D01*
X101369556Y-67772918D01*
X101372055Y-67766338D01*
X101373035Y-67759366D01*
X101396748Y-67590639D01*
X101396748Y-67590636D01*
X101397299Y-67586717D01*
X101397616Y-67564000D01*
X101377397Y-67383745D01*
X101375080Y-67377091D01*
X101320064Y-67219106D01*
X101320062Y-67219103D01*
X101317745Y-67212448D01*
X101221626Y-67058624D01*
X101224010Y-67057134D01*
X101202145Y-67003090D01*
X101215327Y-66933328D01*
X101222582Y-66920929D01*
X101222600Y-66920902D01*
X101307643Y-66792902D01*
X101362974Y-66647243D01*
X101369555Y-66629920D01*
X101369556Y-66629918D01*
X101372055Y-66623338D01*
X101373035Y-66616366D01*
X101396748Y-66447639D01*
X101396748Y-66447636D01*
X101397299Y-66443717D01*
X101397616Y-66421000D01*
X101377397Y-66240745D01*
X101375080Y-66234091D01*
X101320064Y-66076106D01*
X101320062Y-66076103D01*
X101317745Y-66069448D01*
X101244215Y-65951774D01*
X101225359Y-65921598D01*
X101221626Y-65915624D01*
X101205946Y-65899834D01*
X101098778Y-65791915D01*
X101098774Y-65791912D01*
X101093815Y-65786918D01*
X101082697Y-65779862D01*
X101021340Y-65740924D01*
X100940666Y-65689727D01*
X100911463Y-65679328D01*
X100776425Y-65631243D01*
X100776420Y-65631242D01*
X100769790Y-65628881D01*
X100762802Y-65628048D01*
X100762799Y-65628047D01*
X100633171Y-65612590D01*
X100589680Y-65607404D01*
X100582677Y-65608140D01*
X100582676Y-65608140D01*
X100416288Y-65625628D01*
X100416286Y-65625629D01*
X100409288Y-65626364D01*
X100237579Y-65684818D01*
X100231575Y-65688512D01*
X100089095Y-65776166D01*
X100089092Y-65776168D01*
X100083088Y-65779862D01*
X100078053Y-65784793D01*
X100078050Y-65784795D01*
X99994524Y-65866590D01*
X99953493Y-65906771D01*
X99855235Y-66059238D01*
X99852826Y-66065858D01*
X99852824Y-66065861D01*
X99800144Y-66210598D01*
X99793197Y-66229685D01*
X99770463Y-66409640D01*
X99788163Y-66590160D01*
X99845418Y-66762273D01*
X99849065Y-66768295D01*
X99849066Y-66768297D01*
X99935730Y-66911398D01*
X99935733Y-66911401D01*
X99939380Y-66917424D01*
X99940496Y-66918579D01*
X99965433Y-66982749D01*
X99951291Y-67052322D01*
X99945809Y-67061694D01*
X99855235Y-67202238D01*
X99852826Y-67208858D01*
X99852824Y-67208861D01*
X99800618Y-67352297D01*
X99793197Y-67372685D01*
X99770463Y-67552640D01*
X99788163Y-67733160D01*
X99845418Y-67905273D01*
X99849065Y-67911295D01*
X99849066Y-67911297D01*
X99935730Y-68054398D01*
X99935733Y-68054401D01*
X99939380Y-68060424D01*
X99940496Y-68061579D01*
X99965433Y-68125749D01*
X99951291Y-68195322D01*
X99945809Y-68204694D01*
X99855235Y-68345238D01*
X99852826Y-68351858D01*
X99852824Y-68351861D01*
X99796212Y-68507402D01*
X99793197Y-68515685D01*
X99770463Y-68695640D01*
X99788163Y-68876160D01*
X99845418Y-69048273D01*
X99849065Y-69054295D01*
X99849066Y-69054297D01*
X99929581Y-69187243D01*
X99939380Y-69203424D01*
X99961396Y-69226222D01*
X99988042Y-69253815D01*
X100020974Y-69316712D01*
X100014674Y-69387428D01*
X99985565Y-69431364D01*
X99953493Y-69462771D01*
X99855235Y-69615238D01*
X99852826Y-69621858D01*
X99852824Y-69621861D01*
X99831427Y-69680649D01*
X99793197Y-69785685D01*
X99770463Y-69965640D01*
X80549705Y-69965640D01*
X80539214Y-69923875D01*
X80535894Y-69914124D01*
X80450972Y-69718814D01*
X80446105Y-69709739D01*
X80330426Y-69530926D01*
X80324136Y-69522757D01*
X80180806Y-69365240D01*
X80173273Y-69358215D01*
X80006139Y-69226222D01*
X79997556Y-69220520D01*
X79960602Y-69200120D01*
X79910631Y-69149687D01*
X79895859Y-69080245D01*
X79920975Y-69013839D01*
X79948327Y-68987232D01*
X80002908Y-68948300D01*
X80127860Y-68859173D01*
X80286096Y-68701489D01*
X80290299Y-68695640D01*
X83387463Y-68695640D01*
X83405163Y-68876160D01*
X83462418Y-69048273D01*
X83466065Y-69054295D01*
X83466066Y-69054297D01*
X83546581Y-69187243D01*
X83556380Y-69203424D01*
X83561269Y-69208487D01*
X83561270Y-69208488D01*
X83576357Y-69224111D01*
X83682382Y-69333902D01*
X83834159Y-69433222D01*
X83840763Y-69435678D01*
X83840765Y-69435679D01*
X83997558Y-69493990D01*
X83997560Y-69493990D01*
X84004168Y-69496448D01*
X84087995Y-69507633D01*
X84176980Y-69519507D01*
X84176984Y-69519507D01*
X84183961Y-69520438D01*
X84190972Y-69519800D01*
X84190976Y-69519800D01*
X84333459Y-69506832D01*
X84364600Y-69503998D01*
X84371302Y-69501820D01*
X84371304Y-69501820D01*
X84530409Y-69450124D01*
X84530412Y-69450123D01*
X84537108Y-69447947D01*
X84692912Y-69355069D01*
X84748118Y-69302497D01*
X84811243Y-69270005D01*
X84881914Y-69276798D01*
X84925643Y-69306214D01*
X84952382Y-69333902D01*
X85104159Y-69433222D01*
X85110763Y-69435678D01*
X85110765Y-69435679D01*
X85267558Y-69493990D01*
X85267560Y-69493990D01*
X85274168Y-69496448D01*
X85357995Y-69507633D01*
X85446980Y-69519507D01*
X85446984Y-69519507D01*
X85453961Y-69520438D01*
X85460972Y-69519800D01*
X85460976Y-69519800D01*
X85603459Y-69506832D01*
X85634600Y-69503998D01*
X85641302Y-69501820D01*
X85641304Y-69501820D01*
X85800409Y-69450124D01*
X85800412Y-69450123D01*
X85807108Y-69447947D01*
X85962912Y-69355069D01*
X86018118Y-69302497D01*
X86081243Y-69270005D01*
X86151914Y-69276798D01*
X86195643Y-69306214D01*
X86222382Y-69333902D01*
X86374159Y-69433222D01*
X86380763Y-69435678D01*
X86380765Y-69435679D01*
X86537558Y-69493990D01*
X86537560Y-69493990D01*
X86544168Y-69496448D01*
X86627995Y-69507633D01*
X86716980Y-69519507D01*
X86716984Y-69519507D01*
X86723961Y-69520438D01*
X86730972Y-69519800D01*
X86730976Y-69519800D01*
X86873459Y-69506832D01*
X86904600Y-69503998D01*
X86911302Y-69501820D01*
X86911304Y-69501820D01*
X87070409Y-69450124D01*
X87070412Y-69450123D01*
X87077108Y-69447947D01*
X87232912Y-69355069D01*
X87288118Y-69302497D01*
X87351243Y-69270005D01*
X87421914Y-69276798D01*
X87465643Y-69306214D01*
X87492382Y-69333902D01*
X87644159Y-69433222D01*
X87650763Y-69435678D01*
X87650765Y-69435679D01*
X87807558Y-69493990D01*
X87807560Y-69493990D01*
X87814168Y-69496448D01*
X87897995Y-69507633D01*
X87986980Y-69519507D01*
X87986984Y-69519507D01*
X87993961Y-69520438D01*
X88000972Y-69519800D01*
X88000976Y-69519800D01*
X88143459Y-69506832D01*
X88174600Y-69503998D01*
X88181302Y-69501820D01*
X88181304Y-69501820D01*
X88340409Y-69450124D01*
X88340412Y-69450123D01*
X88347108Y-69447947D01*
X88502912Y-69355069D01*
X88634266Y-69229982D01*
X88652495Y-69202546D01*
X88732153Y-69082650D01*
X88786510Y-69036979D01*
X88856930Y-69027947D01*
X88901907Y-69045325D01*
X88901976Y-69045188D01*
X88903356Y-69045885D01*
X88906089Y-69046941D01*
X88914159Y-69052222D01*
X88920763Y-69054678D01*
X88920765Y-69054679D01*
X89077558Y-69112990D01*
X89077560Y-69112990D01*
X89084168Y-69115448D01*
X89167995Y-69126633D01*
X89256980Y-69138507D01*
X89256984Y-69138507D01*
X89263961Y-69139438D01*
X89270972Y-69138800D01*
X89270976Y-69138800D01*
X89413459Y-69125832D01*
X89444600Y-69122998D01*
X89451302Y-69120820D01*
X89451304Y-69120820D01*
X89610409Y-69069124D01*
X89610412Y-69069123D01*
X89617108Y-69066947D01*
X89772912Y-68974069D01*
X89904266Y-68848982D01*
X90004643Y-68697902D01*
X90069055Y-68528338D01*
X90071172Y-68513273D01*
X90093748Y-68352639D01*
X90093748Y-68352636D01*
X90094299Y-68348717D01*
X90094616Y-68326000D01*
X90074397Y-68145745D01*
X90067434Y-68125749D01*
X90017064Y-67981106D01*
X90017062Y-67981103D01*
X90014745Y-67974448D01*
X89999569Y-67950162D01*
X89980435Y-67881794D01*
X89998972Y-67821780D01*
X89997524Y-67821036D01*
X90000745Y-67814770D01*
X90004643Y-67808902D01*
X90011880Y-67789851D01*
X90066555Y-67645920D01*
X90066556Y-67645918D01*
X90069055Y-67639338D01*
X90072287Y-67616343D01*
X90093748Y-67463639D01*
X90093748Y-67463636D01*
X90094299Y-67459717D01*
X90094616Y-67437000D01*
X90074397Y-67256745D01*
X90072080Y-67250091D01*
X90017064Y-67092106D01*
X90017062Y-67092103D01*
X90014745Y-67085448D01*
X89971577Y-67016364D01*
X89922359Y-66937598D01*
X89918626Y-66931624D01*
X89909835Y-66922771D01*
X89795778Y-66807915D01*
X89795774Y-66807912D01*
X89790815Y-66802918D01*
X89784067Y-66798635D01*
X89731538Y-66765300D01*
X89637666Y-66705727D01*
X89572712Y-66682598D01*
X89473425Y-66647243D01*
X89473420Y-66647242D01*
X89466790Y-66644881D01*
X89459802Y-66644048D01*
X89459799Y-66644047D01*
X89330171Y-66628590D01*
X89286680Y-66623404D01*
X89279677Y-66624140D01*
X89279676Y-66624140D01*
X89113288Y-66641628D01*
X89113286Y-66641629D01*
X89106288Y-66642364D01*
X88934579Y-66700818D01*
X88928575Y-66704512D01*
X88786095Y-66792166D01*
X88786092Y-66792168D01*
X88780088Y-66795862D01*
X88775053Y-66800793D01*
X88775050Y-66800795D01*
X88657577Y-66915834D01*
X88650493Y-66922771D01*
X88552235Y-67075238D01*
X88549826Y-67081858D01*
X88549824Y-67081861D01*
X88503600Y-67208861D01*
X88490197Y-67245685D01*
X88467463Y-67425640D01*
X88485163Y-67606160D01*
X88542418Y-67778273D01*
X88546065Y-67784295D01*
X88546066Y-67784297D01*
X88564449Y-67814651D01*
X88582628Y-67883281D01*
X88562601Y-67948151D01*
X88561202Y-67950323D01*
X88507499Y-67996761D01*
X88437215Y-68006793D01*
X88387760Y-67988479D01*
X88367666Y-67975727D01*
X88298716Y-67951175D01*
X88203425Y-67917243D01*
X88203420Y-67917242D01*
X88196790Y-67914881D01*
X88189802Y-67914048D01*
X88189799Y-67914047D01*
X88060171Y-67898590D01*
X88016680Y-67893404D01*
X88009677Y-67894140D01*
X88009676Y-67894140D01*
X87843288Y-67911628D01*
X87843286Y-67911629D01*
X87836288Y-67912364D01*
X87664579Y-67970818D01*
X87613005Y-68002547D01*
X87516095Y-68062166D01*
X87516092Y-68062168D01*
X87510088Y-68065862D01*
X87505053Y-68070793D01*
X87505050Y-68070795D01*
X87464487Y-68110518D01*
X87401822Y-68143889D01*
X87331063Y-68138083D01*
X87286923Y-68109279D01*
X87255777Y-68077915D01*
X87250815Y-68072918D01*
X87242688Y-68067760D01*
X87146618Y-68006793D01*
X87097666Y-67975727D01*
X87028716Y-67951175D01*
X86933425Y-67917243D01*
X86933420Y-67917242D01*
X86926790Y-67914881D01*
X86919802Y-67914048D01*
X86919799Y-67914047D01*
X86790171Y-67898590D01*
X86746680Y-67893404D01*
X86739677Y-67894140D01*
X86739676Y-67894140D01*
X86573288Y-67911628D01*
X86573286Y-67911629D01*
X86566288Y-67912364D01*
X86394579Y-67970818D01*
X86343005Y-68002547D01*
X86246095Y-68062166D01*
X86246092Y-68062168D01*
X86240088Y-68065862D01*
X86235053Y-68070793D01*
X86235050Y-68070795D01*
X86194487Y-68110518D01*
X86131822Y-68143889D01*
X86061063Y-68138083D01*
X86016923Y-68109279D01*
X85985777Y-68077915D01*
X85980815Y-68072918D01*
X85972688Y-68067760D01*
X85876618Y-68006793D01*
X85827666Y-67975727D01*
X85758716Y-67951175D01*
X85663425Y-67917243D01*
X85663420Y-67917242D01*
X85656790Y-67914881D01*
X85649802Y-67914048D01*
X85649799Y-67914047D01*
X85520171Y-67898590D01*
X85476680Y-67893404D01*
X85469677Y-67894140D01*
X85469676Y-67894140D01*
X85303288Y-67911628D01*
X85303286Y-67911629D01*
X85296288Y-67912364D01*
X85124579Y-67970818D01*
X85073005Y-68002547D01*
X84976095Y-68062166D01*
X84976092Y-68062168D01*
X84970088Y-68065862D01*
X84965053Y-68070793D01*
X84965050Y-68070795D01*
X84924487Y-68110518D01*
X84861822Y-68143889D01*
X84791063Y-68138083D01*
X84746923Y-68109279D01*
X84715777Y-68077915D01*
X84710815Y-68072918D01*
X84702688Y-68067760D01*
X84606618Y-68006793D01*
X84557666Y-67975727D01*
X84488716Y-67951175D01*
X84393425Y-67917243D01*
X84393420Y-67917242D01*
X84386790Y-67914881D01*
X84379802Y-67914048D01*
X84379799Y-67914047D01*
X84250171Y-67898590D01*
X84206680Y-67893404D01*
X84199677Y-67894140D01*
X84199676Y-67894140D01*
X84033288Y-67911628D01*
X84033286Y-67911629D01*
X84026288Y-67912364D01*
X83854579Y-67970818D01*
X83803005Y-68002547D01*
X83706095Y-68062166D01*
X83706092Y-68062168D01*
X83700088Y-68065862D01*
X83695053Y-68070793D01*
X83695050Y-68070795D01*
X83575525Y-68187843D01*
X83570493Y-68192771D01*
X83472235Y-68345238D01*
X83469826Y-68351858D01*
X83469824Y-68351861D01*
X83413212Y-68507402D01*
X83410197Y-68515685D01*
X83387463Y-68695640D01*
X80290299Y-68695640D01*
X80293408Y-68691314D01*
X80413435Y-68524277D01*
X80416453Y-68520077D01*
X80422718Y-68507402D01*
X80513136Y-68324453D01*
X80513137Y-68324451D01*
X80515430Y-68319811D01*
X80568211Y-68146090D01*
X80578865Y-68111023D01*
X80578865Y-68111021D01*
X80580370Y-68106069D01*
X80609529Y-67884590D01*
X80611156Y-67818000D01*
X80592852Y-67595361D01*
X80538431Y-67378702D01*
X80449354Y-67173840D01*
X80396478Y-67092106D01*
X80330822Y-66990617D01*
X80330820Y-66990614D01*
X80328014Y-66986277D01*
X80322701Y-66980438D01*
X80180798Y-66824488D01*
X80149746Y-66760642D01*
X80158141Y-66690143D01*
X80203317Y-66635375D01*
X80229761Y-66621706D01*
X80336297Y-66581767D01*
X80344705Y-66578615D01*
X80461261Y-66491261D01*
X80548615Y-66374705D01*
X80583129Y-66282640D01*
X83260463Y-66282640D01*
X83278163Y-66463160D01*
X83335418Y-66635273D01*
X83339065Y-66641295D01*
X83339066Y-66641297D01*
X83415980Y-66768297D01*
X83429380Y-66790424D01*
X83434269Y-66795487D01*
X83434270Y-66795488D01*
X83455027Y-66816982D01*
X83555382Y-66920902D01*
X83574371Y-66933328D01*
X83680979Y-67003090D01*
X83707159Y-67020222D01*
X83713763Y-67022678D01*
X83713765Y-67022679D01*
X83870558Y-67080990D01*
X83870560Y-67080990D01*
X83877168Y-67083448D01*
X83960995Y-67094633D01*
X84049980Y-67106507D01*
X84049984Y-67106507D01*
X84056961Y-67107438D01*
X84063972Y-67106800D01*
X84063976Y-67106800D01*
X84206459Y-67093832D01*
X84237600Y-67090998D01*
X84244302Y-67088820D01*
X84244304Y-67088820D01*
X84403409Y-67037124D01*
X84403412Y-67037123D01*
X84410108Y-67034947D01*
X84529126Y-66963998D01*
X84559860Y-66945677D01*
X84559862Y-66945676D01*
X84565912Y-66942069D01*
X84697266Y-66816982D01*
X84797643Y-66665902D01*
X84855233Y-66514297D01*
X84859555Y-66502920D01*
X84859556Y-66502918D01*
X84862055Y-66496338D01*
X84863778Y-66484081D01*
X84886748Y-66320639D01*
X84886748Y-66320636D01*
X84887299Y-66316717D01*
X84887616Y-66294000D01*
X84867397Y-66113745D01*
X84865080Y-66107091D01*
X84810993Y-65951774D01*
X84807479Y-65880864D01*
X84812196Y-65865594D01*
X84859554Y-65740924D01*
X84859556Y-65740917D01*
X84862055Y-65734338D01*
X84863035Y-65727366D01*
X84886748Y-65558639D01*
X84886748Y-65558636D01*
X84887299Y-65554717D01*
X84887452Y-65543738D01*
X84887561Y-65535962D01*
X84887561Y-65535957D01*
X84887616Y-65532000D01*
X84867397Y-65351745D01*
X84865080Y-65345091D01*
X84837761Y-65266640D01*
X87197463Y-65266640D01*
X87215163Y-65447160D01*
X87272418Y-65619273D01*
X87276065Y-65625295D01*
X87276066Y-65625297D01*
X87357361Y-65759531D01*
X87366380Y-65774424D01*
X87492382Y-65904902D01*
X87501131Y-65910627D01*
X87611232Y-65982675D01*
X87644159Y-66004222D01*
X87650763Y-66006678D01*
X87650765Y-66006679D01*
X87807558Y-66064990D01*
X87807560Y-66064990D01*
X87814168Y-66067448D01*
X87897995Y-66078633D01*
X87986980Y-66090507D01*
X87986984Y-66090507D01*
X87993961Y-66091438D01*
X88000972Y-66090800D01*
X88000976Y-66090800D01*
X88156536Y-66076642D01*
X88174600Y-66074998D01*
X88181302Y-66072820D01*
X88181304Y-66072820D01*
X88340409Y-66021124D01*
X88340412Y-66021123D01*
X88347108Y-66018947D01*
X88459792Y-65951774D01*
X88496860Y-65929677D01*
X88496862Y-65929676D01*
X88502912Y-65926069D01*
X88634266Y-65800982D01*
X88734643Y-65649902D01*
X88799055Y-65480338D01*
X88800035Y-65473366D01*
X88823748Y-65304639D01*
X88823748Y-65304636D01*
X88824299Y-65300717D01*
X88824616Y-65278000D01*
X88804397Y-65097745D01*
X88801450Y-65089281D01*
X88747064Y-64933106D01*
X88747062Y-64933103D01*
X88744745Y-64926448D01*
X88648626Y-64772624D01*
X88634941Y-64758843D01*
X88525778Y-64648915D01*
X88525774Y-64648912D01*
X88520815Y-64643918D01*
X88513164Y-64639062D01*
X88461538Y-64606300D01*
X88367666Y-64546727D01*
X88338463Y-64536328D01*
X88203425Y-64488243D01*
X88203420Y-64488242D01*
X88196790Y-64485881D01*
X88189802Y-64485048D01*
X88189799Y-64485047D01*
X88061462Y-64469744D01*
X88016680Y-64464404D01*
X88009677Y-64465140D01*
X88009676Y-64465140D01*
X87843288Y-64482628D01*
X87843286Y-64482629D01*
X87836288Y-64483364D01*
X87664579Y-64541818D01*
X87649409Y-64551151D01*
X87516095Y-64633166D01*
X87516092Y-64633168D01*
X87510088Y-64636862D01*
X87505053Y-64641793D01*
X87505050Y-64641795D01*
X87484666Y-64661757D01*
X87380493Y-64763771D01*
X87282235Y-64916238D01*
X87279826Y-64922858D01*
X87279824Y-64922861D01*
X87241637Y-65027780D01*
X87220197Y-65086685D01*
X87197463Y-65266640D01*
X84837761Y-65266640D01*
X84810064Y-65187106D01*
X84810062Y-65187103D01*
X84807745Y-65180448D01*
X84792569Y-65156162D01*
X84773435Y-65087794D01*
X84791972Y-65027780D01*
X84790524Y-65027036D01*
X84793745Y-65020770D01*
X84797643Y-65014902D01*
X84818243Y-64960674D01*
X84859555Y-64851920D01*
X84859556Y-64851918D01*
X84862055Y-64845338D01*
X84863035Y-64838366D01*
X84886748Y-64669639D01*
X84886748Y-64669636D01*
X84887299Y-64665717D01*
X84887452Y-64654738D01*
X84887561Y-64646962D01*
X84887561Y-64646957D01*
X84887616Y-64643000D01*
X84867397Y-64462745D01*
X84865080Y-64456091D01*
X84810064Y-64298106D01*
X84810062Y-64298103D01*
X84807745Y-64291448D01*
X84778347Y-64244401D01*
X84715359Y-64143598D01*
X84711626Y-64137624D01*
X84695946Y-64121834D01*
X84588778Y-64013915D01*
X84588774Y-64013912D01*
X84583815Y-64008918D01*
X84572697Y-64001862D01*
X84524538Y-63971300D01*
X84430666Y-63911727D01*
X84385573Y-63895670D01*
X84266425Y-63853243D01*
X84266420Y-63853242D01*
X84259790Y-63850881D01*
X84252802Y-63850048D01*
X84252799Y-63850047D01*
X84123171Y-63834590D01*
X84079680Y-63829404D01*
X84072677Y-63830140D01*
X84072676Y-63830140D01*
X83906288Y-63847628D01*
X83906286Y-63847629D01*
X83899288Y-63848364D01*
X83727579Y-63906818D01*
X83695985Y-63926255D01*
X83579095Y-63998166D01*
X83579092Y-63998168D01*
X83573088Y-64001862D01*
X83568053Y-64006793D01*
X83568050Y-64006795D01*
X83514375Y-64059358D01*
X83443493Y-64128771D01*
X83345235Y-64281238D01*
X83342826Y-64287858D01*
X83342824Y-64287861D01*
X83297744Y-64411717D01*
X83283197Y-64451685D01*
X83260463Y-64631640D01*
X83278163Y-64812160D01*
X83335418Y-64984273D01*
X83339065Y-64990295D01*
X83339066Y-64990297D01*
X83357449Y-65020651D01*
X83375628Y-65089281D01*
X83355586Y-65154174D01*
X83349055Y-65164309D01*
X83349052Y-65164315D01*
X83345235Y-65170238D01*
X83342826Y-65176858D01*
X83342825Y-65176859D01*
X83297744Y-65300717D01*
X83283197Y-65340685D01*
X83260463Y-65520640D01*
X83278163Y-65701160D01*
X83332864Y-65865594D01*
X83335418Y-65873273D01*
X83333156Y-65874026D01*
X83341928Y-65933178D01*
X83335533Y-65958893D01*
X83285606Y-66096066D01*
X83283197Y-66102685D01*
X83260463Y-66282640D01*
X80583129Y-66282640D01*
X80599745Y-66238316D01*
X80606500Y-66176134D01*
X80606500Y-64379866D01*
X80599745Y-64317684D01*
X80548615Y-64181295D01*
X80543230Y-64174110D01*
X80543229Y-64174108D01*
X80495540Y-64110477D01*
X80470692Y-64043970D01*
X80485745Y-63974588D01*
X80535919Y-63924358D01*
X80557430Y-63915079D01*
X80720409Y-63862124D01*
X80720412Y-63862123D01*
X80727108Y-63859947D01*
X80860148Y-63780639D01*
X80876860Y-63770677D01*
X80876862Y-63770676D01*
X80882912Y-63767069D01*
X80908565Y-63742640D01*
X88340463Y-63742640D01*
X88358163Y-63923160D01*
X88415418Y-64095273D01*
X88419065Y-64101295D01*
X88419066Y-64101297D01*
X88484139Y-64208745D01*
X88509380Y-64250424D01*
X88635382Y-64380902D01*
X88647757Y-64389000D01*
X88762987Y-64464404D01*
X88787159Y-64480222D01*
X88793763Y-64482678D01*
X88793765Y-64482679D01*
X88950558Y-64540990D01*
X88950560Y-64540990D01*
X88957168Y-64543448D01*
X89040995Y-64554633D01*
X89129980Y-64566507D01*
X89129984Y-64566507D01*
X89136961Y-64567438D01*
X89143972Y-64566800D01*
X89143976Y-64566800D01*
X89286459Y-64553832D01*
X89317600Y-64550998D01*
X89324302Y-64548820D01*
X89324304Y-64548820D01*
X89483409Y-64497124D01*
X89483412Y-64497123D01*
X89490108Y-64494947D01*
X89623148Y-64415639D01*
X89639860Y-64405677D01*
X89639862Y-64405676D01*
X89645912Y-64402069D01*
X89777266Y-64276982D01*
X89877643Y-64125902D01*
X89934060Y-63977385D01*
X89939555Y-63962920D01*
X89939556Y-63962918D01*
X89942055Y-63956338D01*
X89945414Y-63932438D01*
X89966748Y-63780639D01*
X89966748Y-63780636D01*
X89967299Y-63776717D01*
X89967452Y-63765738D01*
X89967561Y-63757962D01*
X89967561Y-63757957D01*
X89967616Y-63754000D01*
X89947397Y-63573745D01*
X89945080Y-63567091D01*
X89917761Y-63488640D01*
X103961463Y-63488640D01*
X103979163Y-63669160D01*
X104036418Y-63841273D01*
X104040065Y-63847295D01*
X104040066Y-63847297D01*
X104122112Y-63982771D01*
X104130380Y-63996424D01*
X104256382Y-64126902D01*
X104408159Y-64226222D01*
X104515070Y-64265982D01*
X104571942Y-64308472D01*
X104596804Y-64374937D01*
X104596463Y-64377640D01*
X104597077Y-64383900D01*
X104597077Y-64383906D01*
X104604970Y-64464404D01*
X104614163Y-64558160D01*
X104671418Y-64730273D01*
X104675065Y-64736295D01*
X104675066Y-64736297D01*
X104761730Y-64879398D01*
X104761733Y-64879401D01*
X104765380Y-64885424D01*
X104766496Y-64886579D01*
X104791433Y-64950749D01*
X104777291Y-65020322D01*
X104771809Y-65029694D01*
X104681235Y-65170238D01*
X104678826Y-65176858D01*
X104678824Y-65176861D01*
X104633744Y-65300717D01*
X104619197Y-65340685D01*
X104596463Y-65520640D01*
X104614163Y-65701160D01*
X104671418Y-65873273D01*
X104675065Y-65879295D01*
X104675066Y-65879297D01*
X104693449Y-65909651D01*
X104711628Y-65978281D01*
X104691586Y-66043174D01*
X104685055Y-66053309D01*
X104685054Y-66053312D01*
X104681235Y-66059238D01*
X104678826Y-66065858D01*
X104678825Y-66065859D01*
X104626144Y-66210598D01*
X104619197Y-66229685D01*
X104596463Y-66409640D01*
X104614163Y-66590160D01*
X104671418Y-66762273D01*
X104675065Y-66768295D01*
X104675066Y-66768297D01*
X104693439Y-66798635D01*
X104730132Y-66859221D01*
X104733101Y-66864124D01*
X104751280Y-66932753D01*
X104731236Y-66997650D01*
X104685054Y-67069310D01*
X104685050Y-67069319D01*
X104681235Y-67075238D01*
X104678826Y-67081858D01*
X104678825Y-67081859D01*
X104632600Y-67208861D01*
X104619197Y-67245685D01*
X104596463Y-67425640D01*
X104614163Y-67606160D01*
X104671418Y-67778273D01*
X104675065Y-67784295D01*
X104675066Y-67784297D01*
X104755581Y-67917243D01*
X104765380Y-67933424D01*
X104770269Y-67938487D01*
X104770270Y-67938488D01*
X104799298Y-67968547D01*
X104891382Y-68063902D01*
X104967271Y-68113562D01*
X105035511Y-68158217D01*
X105043159Y-68163222D01*
X105049763Y-68165678D01*
X105049765Y-68165679D01*
X105206558Y-68223990D01*
X105206560Y-68223990D01*
X105213168Y-68226448D01*
X105296995Y-68237633D01*
X105385980Y-68249507D01*
X105385984Y-68249507D01*
X105392961Y-68250438D01*
X105399972Y-68249800D01*
X105399976Y-68249800D01*
X105542459Y-68236832D01*
X105573600Y-68233998D01*
X105580302Y-68231820D01*
X105580304Y-68231820D01*
X105739409Y-68180124D01*
X105739412Y-68180123D01*
X105746108Y-68177947D01*
X105836370Y-68124140D01*
X108342963Y-68124140D01*
X108360663Y-68304660D01*
X108417918Y-68476773D01*
X108421565Y-68482795D01*
X108421566Y-68482797D01*
X108506529Y-68623088D01*
X108511880Y-68631924D01*
X108637882Y-68762402D01*
X108643778Y-68766260D01*
X108777616Y-68853841D01*
X108789659Y-68861722D01*
X108796263Y-68864178D01*
X108796265Y-68864179D01*
X108953058Y-68922490D01*
X108953060Y-68922490D01*
X108959668Y-68924948D01*
X109032245Y-68934632D01*
X109132480Y-68948007D01*
X109132484Y-68948007D01*
X109139461Y-68948938D01*
X109146472Y-68948300D01*
X109146476Y-68948300D01*
X109296652Y-68934632D01*
X109320100Y-68932498D01*
X109326802Y-68930320D01*
X109326804Y-68930320D01*
X109485909Y-68878624D01*
X109485912Y-68878623D01*
X109492608Y-68876447D01*
X109648412Y-68783569D01*
X109740746Y-68695640D01*
X111971473Y-68695640D01*
X111989173Y-68876160D01*
X112046428Y-69048273D01*
X112050075Y-69054295D01*
X112050076Y-69054297D01*
X112130591Y-69187243D01*
X112140390Y-69203424D01*
X112145279Y-69208487D01*
X112145280Y-69208488D01*
X112160367Y-69224111D01*
X112266392Y-69333902D01*
X112418169Y-69433222D01*
X112424773Y-69435678D01*
X112424775Y-69435679D01*
X112581568Y-69493990D01*
X112581570Y-69493990D01*
X112588178Y-69496448D01*
X112672005Y-69507633D01*
X112760990Y-69519507D01*
X112760994Y-69519507D01*
X112767971Y-69520438D01*
X112774982Y-69519800D01*
X112774986Y-69519800D01*
X112917469Y-69506832D01*
X112948610Y-69503998D01*
X112955312Y-69501820D01*
X112955314Y-69501820D01*
X113114419Y-69450124D01*
X113114422Y-69450123D01*
X113121118Y-69447947D01*
X113276922Y-69355069D01*
X113408276Y-69229982D01*
X113508653Y-69078902D01*
X113573065Y-68909338D01*
X113574045Y-68902366D01*
X113597758Y-68733639D01*
X113597758Y-68733636D01*
X113598309Y-68729717D01*
X113598626Y-68707000D01*
X113578407Y-68526745D01*
X113576085Y-68520077D01*
X113521074Y-68362106D01*
X113521072Y-68362103D01*
X113518755Y-68355448D01*
X113422636Y-68201624D01*
X113379531Y-68158217D01*
X113299788Y-68077915D01*
X113299784Y-68077912D01*
X113294825Y-68072918D01*
X113286698Y-68067760D01*
X113190628Y-68006793D01*
X113141676Y-67975727D01*
X113072726Y-67951175D01*
X112977435Y-67917243D01*
X112977430Y-67917242D01*
X112970800Y-67914881D01*
X112963812Y-67914048D01*
X112963809Y-67914047D01*
X112834181Y-67898590D01*
X112790690Y-67893404D01*
X112783687Y-67894140D01*
X112783686Y-67894140D01*
X112617298Y-67911628D01*
X112617296Y-67911629D01*
X112610298Y-67912364D01*
X112438589Y-67970818D01*
X112387015Y-68002547D01*
X112290105Y-68062166D01*
X112290102Y-68062168D01*
X112284098Y-68065862D01*
X112279063Y-68070793D01*
X112279060Y-68070795D01*
X112159535Y-68187843D01*
X112154503Y-68192771D01*
X112056245Y-68345238D01*
X112053836Y-68351858D01*
X112053834Y-68351861D01*
X111997222Y-68507402D01*
X111994207Y-68515685D01*
X111971473Y-68695640D01*
X109740746Y-68695640D01*
X109779766Y-68658482D01*
X109880143Y-68507402D01*
X109921923Y-68397417D01*
X109942055Y-68344420D01*
X109942056Y-68344418D01*
X109944555Y-68337838D01*
X109947785Y-68314857D01*
X109969248Y-68162139D01*
X109969248Y-68162136D01*
X109969799Y-68158217D01*
X109970116Y-68135500D01*
X109949897Y-67955245D01*
X109947427Y-67948151D01*
X109892564Y-67790606D01*
X109892562Y-67790603D01*
X109890245Y-67783948D01*
X109803996Y-67645920D01*
X109797859Y-67636098D01*
X109794126Y-67630124D01*
X109764730Y-67600522D01*
X109671278Y-67506415D01*
X109671274Y-67506412D01*
X109666315Y-67501418D01*
X109655197Y-67494362D01*
X109606785Y-67463639D01*
X109513166Y-67404227D01*
X109455646Y-67383745D01*
X109348925Y-67345743D01*
X109348920Y-67345742D01*
X109342290Y-67343381D01*
X109335302Y-67342548D01*
X109335299Y-67342547D01*
X109212198Y-67327868D01*
X109162180Y-67321904D01*
X109155177Y-67322640D01*
X109155176Y-67322640D01*
X108988788Y-67340128D01*
X108988786Y-67340129D01*
X108981788Y-67340864D01*
X108810079Y-67399318D01*
X108755894Y-67432653D01*
X108661595Y-67490666D01*
X108661592Y-67490668D01*
X108655588Y-67494362D01*
X108650553Y-67499293D01*
X108650550Y-67499295D01*
X108534598Y-67612844D01*
X108525993Y-67621271D01*
X108427735Y-67773738D01*
X108425326Y-67780358D01*
X108425324Y-67780361D01*
X108369614Y-67933424D01*
X108365697Y-67944185D01*
X108342963Y-68124140D01*
X105836370Y-68124140D01*
X105859221Y-68110518D01*
X105895860Y-68088677D01*
X105895862Y-68088676D01*
X105901912Y-68085069D01*
X106033266Y-67959982D01*
X106133643Y-67808902D01*
X106198055Y-67639338D01*
X106201287Y-67616343D01*
X106222748Y-67463639D01*
X106222748Y-67463636D01*
X106223299Y-67459717D01*
X106223616Y-67437000D01*
X106203397Y-67256745D01*
X106201080Y-67250091D01*
X106146064Y-67092106D01*
X106146062Y-67092103D01*
X106143745Y-67085448D01*
X106087674Y-66995715D01*
X106068539Y-66927349D01*
X106089581Y-66859221D01*
X106128399Y-66800795D01*
X106133643Y-66792902D01*
X106188974Y-66647243D01*
X106195555Y-66629920D01*
X106195556Y-66629918D01*
X106198055Y-66623338D01*
X106199035Y-66616366D01*
X106222748Y-66447639D01*
X106222748Y-66447636D01*
X106223299Y-66443717D01*
X106223616Y-66421000D01*
X106203397Y-66240745D01*
X106201080Y-66234091D01*
X106173761Y-66155640D01*
X110501963Y-66155640D01*
X110519663Y-66336160D01*
X110576918Y-66508273D01*
X110580565Y-66514295D01*
X110580566Y-66514297D01*
X110661081Y-66647243D01*
X110670880Y-66663424D01*
X110675769Y-66668487D01*
X110675770Y-66668488D01*
X110752621Y-66748068D01*
X110796882Y-66793902D01*
X110802778Y-66797760D01*
X110904193Y-66864124D01*
X110948659Y-66893222D01*
X110955263Y-66895678D01*
X110955265Y-66895679D01*
X111112058Y-66953990D01*
X111112060Y-66953990D01*
X111118668Y-66956448D01*
X111202495Y-66967633D01*
X111291480Y-66979507D01*
X111291484Y-66979507D01*
X111298461Y-66980438D01*
X111305472Y-66979800D01*
X111305476Y-66979800D01*
X111447959Y-66966832D01*
X111479100Y-66963998D01*
X111485802Y-66961820D01*
X111485804Y-66961820D01*
X111644909Y-66910124D01*
X111644912Y-66910123D01*
X111651608Y-66907947D01*
X111796052Y-66821841D01*
X111801360Y-66818677D01*
X111801362Y-66818676D01*
X111807412Y-66815069D01*
X111938766Y-66689982D01*
X112039143Y-66538902D01*
X112103555Y-66369338D01*
X112104535Y-66362366D01*
X112128248Y-66193639D01*
X112128248Y-66193636D01*
X112128799Y-66189717D01*
X112129116Y-66167000D01*
X112108897Y-65986745D01*
X112105950Y-65978281D01*
X112051564Y-65822106D01*
X112051562Y-65822103D01*
X112049245Y-65815448D01*
X111953126Y-65661624D01*
X111939441Y-65647843D01*
X111830278Y-65537915D01*
X111830274Y-65537912D01*
X111825315Y-65532918D01*
X111817664Y-65528062D01*
X111766038Y-65495300D01*
X111672166Y-65435727D01*
X111642963Y-65425328D01*
X111507925Y-65377243D01*
X111507920Y-65377242D01*
X111501290Y-65374881D01*
X111494302Y-65374048D01*
X111494299Y-65374047D01*
X111365962Y-65358744D01*
X111321180Y-65353404D01*
X111314177Y-65354140D01*
X111314176Y-65354140D01*
X111147788Y-65371628D01*
X111147786Y-65371629D01*
X111140788Y-65372364D01*
X110969079Y-65430818D01*
X110963075Y-65434512D01*
X110820595Y-65522166D01*
X110820592Y-65522168D01*
X110814588Y-65525862D01*
X110809553Y-65530793D01*
X110809550Y-65530795D01*
X110694650Y-65643314D01*
X110684993Y-65652771D01*
X110586735Y-65805238D01*
X110584326Y-65811858D01*
X110584324Y-65811861D01*
X110528770Y-65964494D01*
X110524697Y-65975685D01*
X110501963Y-66155640D01*
X106173761Y-66155640D01*
X106146064Y-66076106D01*
X106146062Y-66076103D01*
X106143745Y-66069448D01*
X106128569Y-66045162D01*
X106109435Y-65976794D01*
X106127972Y-65916780D01*
X106126524Y-65916036D01*
X106129745Y-65909770D01*
X106133643Y-65903902D01*
X106136145Y-65897316D01*
X106195555Y-65740920D01*
X106195556Y-65740918D01*
X106198055Y-65734338D01*
X106199035Y-65727366D01*
X106222748Y-65558639D01*
X106222748Y-65558636D01*
X106223299Y-65554717D01*
X106223452Y-65543738D01*
X106223561Y-65535962D01*
X106223561Y-65535957D01*
X106223616Y-65532000D01*
X106203397Y-65351745D01*
X106201080Y-65345091D01*
X106173761Y-65266640D01*
X132624963Y-65266640D01*
X132642663Y-65447160D01*
X132699918Y-65619273D01*
X132703565Y-65625295D01*
X132703566Y-65625297D01*
X132784861Y-65759531D01*
X132793880Y-65774424D01*
X132919882Y-65904902D01*
X132928631Y-65910627D01*
X133038732Y-65982675D01*
X133071659Y-66004222D01*
X133078263Y-66006678D01*
X133078265Y-66006679D01*
X133235058Y-66064990D01*
X133235060Y-66064990D01*
X133241668Y-66067448D01*
X133325495Y-66078633D01*
X133414480Y-66090507D01*
X133414484Y-66090507D01*
X133421461Y-66091438D01*
X133428472Y-66090800D01*
X133428476Y-66090800D01*
X133584036Y-66076642D01*
X133602100Y-66074998D01*
X133608802Y-66072820D01*
X133608804Y-66072820D01*
X133767909Y-66021124D01*
X133767912Y-66021123D01*
X133774608Y-66018947D01*
X133836264Y-65982193D01*
X133905015Y-65964494D01*
X133969771Y-65984991D01*
X133999159Y-66004222D01*
X134005763Y-66006678D01*
X134005765Y-66006679D01*
X134162558Y-66064990D01*
X134162560Y-66064990D01*
X134169168Y-66067448D01*
X134252995Y-66078633D01*
X134341980Y-66090507D01*
X134341984Y-66090507D01*
X134348961Y-66091438D01*
X134355972Y-66090800D01*
X134355976Y-66090800D01*
X134511536Y-66076642D01*
X134529600Y-66074998D01*
X134536302Y-66072820D01*
X134536304Y-66072820D01*
X134695409Y-66021124D01*
X134695412Y-66021123D01*
X134702108Y-66018947D01*
X134814792Y-65951774D01*
X134851860Y-65929677D01*
X134851862Y-65929676D01*
X134857912Y-65926069D01*
X134989266Y-65800982D01*
X135019063Y-65756134D01*
X136221500Y-65756134D01*
X136228255Y-65818316D01*
X136279385Y-65954705D01*
X136366739Y-66071261D01*
X136483295Y-66158615D01*
X136619684Y-66209745D01*
X136681866Y-66216500D01*
X140178134Y-66216500D01*
X140240316Y-66209745D01*
X140376705Y-66158615D01*
X140493261Y-66071261D01*
X140580615Y-65954705D01*
X140631745Y-65818316D01*
X140638500Y-65756134D01*
X140638500Y-62259866D01*
X140631745Y-62197684D01*
X140580615Y-62061295D01*
X140493261Y-61944739D01*
X140376705Y-61857385D01*
X140240316Y-61806255D01*
X140178134Y-61799500D01*
X136681866Y-61799500D01*
X136619684Y-61806255D01*
X136483295Y-61857385D01*
X136366739Y-61944739D01*
X136279385Y-62061295D01*
X136228255Y-62197684D01*
X136221500Y-62259866D01*
X136221500Y-65756134D01*
X135019063Y-65756134D01*
X135089643Y-65649902D01*
X135154055Y-65480338D01*
X135155035Y-65473366D01*
X135178748Y-65304639D01*
X135178748Y-65304636D01*
X135179299Y-65300717D01*
X135179616Y-65278000D01*
X135159397Y-65097745D01*
X135156450Y-65089281D01*
X135102064Y-64933106D01*
X135102062Y-64933103D01*
X135099745Y-64926448D01*
X135003626Y-64772624D01*
X134989941Y-64758843D01*
X134880778Y-64648915D01*
X134880774Y-64648912D01*
X134875815Y-64643918D01*
X134868164Y-64639062D01*
X134816538Y-64606300D01*
X134722666Y-64546727D01*
X134693463Y-64536328D01*
X134558425Y-64488243D01*
X134558420Y-64488242D01*
X134551790Y-64485881D01*
X134544802Y-64485048D01*
X134544799Y-64485047D01*
X134416462Y-64469744D01*
X134371680Y-64464404D01*
X134364677Y-64465140D01*
X134364676Y-64465140D01*
X134198288Y-64482628D01*
X134198286Y-64482629D01*
X134191288Y-64483364D01*
X134101094Y-64514068D01*
X134026249Y-64539547D01*
X134026246Y-64539548D01*
X134019579Y-64541818D01*
X134013576Y-64545511D01*
X134013572Y-64545513D01*
X133968761Y-64573081D01*
X133900260Y-64591740D01*
X133835227Y-64572151D01*
X133795166Y-64546727D01*
X133765963Y-64536328D01*
X133630925Y-64488243D01*
X133630920Y-64488242D01*
X133624290Y-64485881D01*
X133617302Y-64485048D01*
X133617299Y-64485047D01*
X133488962Y-64469744D01*
X133444180Y-64464404D01*
X133437177Y-64465140D01*
X133437176Y-64465140D01*
X133270788Y-64482628D01*
X133270786Y-64482629D01*
X133263788Y-64483364D01*
X133092079Y-64541818D01*
X133076909Y-64551151D01*
X132943595Y-64633166D01*
X132943592Y-64633168D01*
X132937588Y-64636862D01*
X132932553Y-64641793D01*
X132932550Y-64641795D01*
X132912166Y-64661757D01*
X132807993Y-64763771D01*
X132709735Y-64916238D01*
X132707326Y-64922858D01*
X132707324Y-64922861D01*
X132669137Y-65027780D01*
X132647697Y-65086685D01*
X132624963Y-65266640D01*
X106173761Y-65266640D01*
X106146064Y-65187106D01*
X106146062Y-65187103D01*
X106143745Y-65180448D01*
X106047626Y-65026624D01*
X106050010Y-65025134D01*
X106028145Y-64971090D01*
X106041327Y-64901328D01*
X106048582Y-64888929D01*
X106051476Y-64884573D01*
X106133643Y-64760902D01*
X106185402Y-64624646D01*
X106195555Y-64597920D01*
X106195556Y-64597918D01*
X106198055Y-64591338D01*
X106201545Y-64566507D01*
X106222748Y-64415639D01*
X106222748Y-64415636D01*
X106223299Y-64411717D01*
X106223452Y-64400738D01*
X106223561Y-64392962D01*
X106223561Y-64392957D01*
X106223616Y-64389000D01*
X106203397Y-64208745D01*
X106193838Y-64181295D01*
X106146064Y-64044106D01*
X106146062Y-64044103D01*
X106143745Y-64037448D01*
X106047626Y-63883624D01*
X106020532Y-63856340D01*
X105924778Y-63759915D01*
X105924774Y-63759912D01*
X105919815Y-63754918D01*
X105912164Y-63750062D01*
X105842690Y-63705973D01*
X105766666Y-63657727D01*
X105672286Y-63624120D01*
X105614822Y-63582426D01*
X105589022Y-63516283D01*
X105588618Y-63505144D01*
X105588561Y-63503970D01*
X105588616Y-63500000D01*
X105568397Y-63319745D01*
X105566080Y-63313091D01*
X105511064Y-63155106D01*
X105511062Y-63155103D01*
X105508745Y-63148448D01*
X105493569Y-63124162D01*
X105474435Y-63055794D01*
X105492972Y-62995780D01*
X105491524Y-62995036D01*
X105494745Y-62988770D01*
X105498643Y-62982902D01*
X105506628Y-62961881D01*
X105560555Y-62819920D01*
X105560556Y-62819918D01*
X105563055Y-62813338D01*
X105564035Y-62806366D01*
X105587748Y-62637639D01*
X105587748Y-62637636D01*
X105588299Y-62633717D01*
X105588616Y-62611000D01*
X105568397Y-62430745D01*
X105564546Y-62419685D01*
X105508745Y-62259448D01*
X105510160Y-62258955D01*
X105500065Y-62196842D01*
X105528371Y-62131732D01*
X105586152Y-62092655D01*
X105619108Y-62081947D01*
X105774912Y-61989069D01*
X105906266Y-61863982D01*
X106006643Y-61712902D01*
X106013253Y-61695500D01*
X107671496Y-61695500D01*
X107672186Y-61702065D01*
X107689715Y-61868841D01*
X107691458Y-61885428D01*
X107750473Y-62067056D01*
X107753776Y-62072778D01*
X107753777Y-62072779D01*
X107767629Y-62096771D01*
X107845960Y-62232444D01*
X107850378Y-62237351D01*
X107850379Y-62237352D01*
X107969325Y-62369455D01*
X107973747Y-62374366D01*
X108128248Y-62486618D01*
X108134276Y-62489302D01*
X108134278Y-62489303D01*
X108135653Y-62489915D01*
X108302712Y-62564294D01*
X108396113Y-62584147D01*
X108483056Y-62602628D01*
X108483061Y-62602628D01*
X108489513Y-62604000D01*
X108680487Y-62604000D01*
X108686939Y-62602628D01*
X108686944Y-62602628D01*
X108773887Y-62584147D01*
X108867288Y-62564294D01*
X109034347Y-62489915D01*
X109035722Y-62489303D01*
X109035724Y-62489302D01*
X109041752Y-62486618D01*
X109196253Y-62374366D01*
X109200675Y-62369455D01*
X109319621Y-62237352D01*
X109319622Y-62237351D01*
X109324040Y-62232444D01*
X109402371Y-62096771D01*
X109416223Y-62072779D01*
X109416224Y-62072778D01*
X109419527Y-62067056D01*
X109478542Y-61885428D01*
X109480286Y-61868841D01*
X109497814Y-61702065D01*
X109498504Y-61695500D01*
X109486747Y-61583640D01*
X115391463Y-61583640D01*
X115409163Y-61764160D01*
X115466418Y-61936273D01*
X115470065Y-61942295D01*
X115470066Y-61942297D01*
X115554641Y-62081947D01*
X115560380Y-62091424D01*
X115565269Y-62096487D01*
X115565270Y-62096488D01*
X115571262Y-62102693D01*
X115686382Y-62221902D01*
X115692278Y-62225760D01*
X115813987Y-62305404D01*
X115838159Y-62321222D01*
X115844763Y-62323678D01*
X115844765Y-62323679D01*
X116001558Y-62381990D01*
X116001560Y-62381990D01*
X116008168Y-62384448D01*
X116091995Y-62395633D01*
X116180980Y-62407507D01*
X116180984Y-62407507D01*
X116187961Y-62408438D01*
X116194972Y-62407800D01*
X116194976Y-62407800D01*
X116337459Y-62394832D01*
X116368600Y-62391998D01*
X116375302Y-62389820D01*
X116375304Y-62389820D01*
X116534409Y-62338124D01*
X116534412Y-62338123D01*
X116541108Y-62335947D01*
X116670263Y-62258955D01*
X116690860Y-62246677D01*
X116690862Y-62246676D01*
X116696912Y-62243069D01*
X116828266Y-62117982D01*
X116845095Y-62092653D01*
X116927230Y-61969029D01*
X116981587Y-61923358D01*
X117052007Y-61914326D01*
X117116131Y-61944799D01*
X117139954Y-61973485D01*
X117205641Y-62081947D01*
X117211380Y-62091424D01*
X117216269Y-62096487D01*
X117216270Y-62096488D01*
X117222262Y-62102693D01*
X117337382Y-62221902D01*
X117343278Y-62225760D01*
X117464987Y-62305404D01*
X117489159Y-62321222D01*
X117495763Y-62323678D01*
X117495765Y-62323679D01*
X117652558Y-62381990D01*
X117652560Y-62381990D01*
X117659168Y-62384448D01*
X117742995Y-62395633D01*
X117831980Y-62407507D01*
X117831984Y-62407507D01*
X117838961Y-62408438D01*
X117845972Y-62407800D01*
X117845976Y-62407800D01*
X117988459Y-62394832D01*
X118019600Y-62391998D01*
X118026302Y-62389820D01*
X118026304Y-62389820D01*
X118185409Y-62338124D01*
X118185412Y-62338123D01*
X118192108Y-62335947D01*
X118321263Y-62258955D01*
X118341860Y-62246677D01*
X118341862Y-62246676D01*
X118347912Y-62243069D01*
X118479266Y-62117982D01*
X118579643Y-61966902D01*
X118644055Y-61797338D01*
X118645035Y-61790366D01*
X118668748Y-61621639D01*
X118668748Y-61621636D01*
X118669299Y-61617717D01*
X118669616Y-61595000D01*
X118649397Y-61414745D01*
X118647080Y-61408091D01*
X118592064Y-61250106D01*
X118592062Y-61250103D01*
X118589745Y-61243448D01*
X118493626Y-61089624D01*
X118446254Y-61041920D01*
X118370778Y-60965915D01*
X118370774Y-60965912D01*
X118365815Y-60960918D01*
X118357688Y-60955760D01*
X118272497Y-60901697D01*
X118212666Y-60863727D01*
X118168449Y-60847982D01*
X118048425Y-60805243D01*
X118048420Y-60805242D01*
X118041790Y-60802881D01*
X118034802Y-60802048D01*
X118034799Y-60802047D01*
X117905171Y-60786590D01*
X117861680Y-60781404D01*
X117854677Y-60782140D01*
X117854676Y-60782140D01*
X117688288Y-60799628D01*
X117688286Y-60799629D01*
X117681288Y-60800364D01*
X117509579Y-60858818D01*
X117503575Y-60862512D01*
X117361095Y-60950166D01*
X117361092Y-60950168D01*
X117355088Y-60953862D01*
X117350053Y-60958793D01*
X117350050Y-60958795D01*
X117232577Y-61073834D01*
X117225493Y-61080771D01*
X117188329Y-61138438D01*
X117135849Y-61219871D01*
X117082135Y-61266296D01*
X117011848Y-61276311D01*
X116947305Y-61246736D01*
X116923084Y-61218385D01*
X116846359Y-61095598D01*
X116842626Y-61089624D01*
X116795254Y-61041920D01*
X116719778Y-60965915D01*
X116719774Y-60965912D01*
X116714815Y-60960918D01*
X116706688Y-60955760D01*
X116621497Y-60901697D01*
X116561666Y-60863727D01*
X116517449Y-60847982D01*
X116397425Y-60805243D01*
X116397420Y-60805242D01*
X116390790Y-60802881D01*
X116383802Y-60802048D01*
X116383799Y-60802047D01*
X116254171Y-60786590D01*
X116210680Y-60781404D01*
X116203677Y-60782140D01*
X116203676Y-60782140D01*
X116037288Y-60799628D01*
X116037286Y-60799629D01*
X116030288Y-60800364D01*
X115858579Y-60858818D01*
X115852575Y-60862512D01*
X115710095Y-60950166D01*
X115710092Y-60950168D01*
X115704088Y-60953862D01*
X115699053Y-60958793D01*
X115699050Y-60958795D01*
X115581577Y-61073834D01*
X115574493Y-61080771D01*
X115476235Y-61233238D01*
X115473826Y-61239858D01*
X115473824Y-61239861D01*
X115429791Y-61360841D01*
X115414197Y-61403685D01*
X115391463Y-61583640D01*
X109486747Y-61583640D01*
X109485957Y-61576124D01*
X109479232Y-61512135D01*
X109479232Y-61512133D01*
X109478542Y-61505572D01*
X109419527Y-61323944D01*
X109324040Y-61158556D01*
X109305088Y-61137507D01*
X109200675Y-61021545D01*
X109200674Y-61021544D01*
X109196253Y-61016634D01*
X109041752Y-60904382D01*
X109035724Y-60901698D01*
X109035722Y-60901697D01*
X108873319Y-60829391D01*
X108873318Y-60829391D01*
X108867288Y-60826706D01*
X108755201Y-60802881D01*
X108686944Y-60788372D01*
X108686939Y-60788372D01*
X108680487Y-60787000D01*
X108489513Y-60787000D01*
X108483061Y-60788372D01*
X108483056Y-60788372D01*
X108414799Y-60802881D01*
X108302712Y-60826706D01*
X108296682Y-60829391D01*
X108296681Y-60829391D01*
X108134278Y-60901697D01*
X108134276Y-60901698D01*
X108128248Y-60904382D01*
X107973747Y-61016634D01*
X107969326Y-61021544D01*
X107969325Y-61021545D01*
X107864913Y-61137507D01*
X107845960Y-61158556D01*
X107750473Y-61323944D01*
X107691458Y-61505572D01*
X107690768Y-61512133D01*
X107690768Y-61512135D01*
X107684043Y-61576124D01*
X107671496Y-61695500D01*
X106013253Y-61695500D01*
X106071055Y-61543338D01*
X106072035Y-61536366D01*
X106095748Y-61367639D01*
X106095748Y-61367636D01*
X106096299Y-61363717D01*
X106096616Y-61341000D01*
X106076397Y-61160745D01*
X106073926Y-61153648D01*
X106019064Y-60996106D01*
X106019062Y-60996103D01*
X106016745Y-60989448D01*
X105973577Y-60920364D01*
X105924359Y-60841598D01*
X105920626Y-60835624D01*
X105914816Y-60829773D01*
X105797778Y-60711915D01*
X105797774Y-60711912D01*
X105792815Y-60706918D01*
X105781697Y-60699862D01*
X105733538Y-60669300D01*
X105639666Y-60609727D01*
X105602585Y-60596523D01*
X105475425Y-60551243D01*
X105475420Y-60551242D01*
X105468790Y-60548881D01*
X105461802Y-60548048D01*
X105461799Y-60548047D01*
X105332171Y-60532590D01*
X105288680Y-60527404D01*
X105281677Y-60528140D01*
X105281676Y-60528140D01*
X105115288Y-60545628D01*
X105115286Y-60545629D01*
X105108288Y-60546364D01*
X104936579Y-60604818D01*
X104928600Y-60609727D01*
X104788095Y-60696166D01*
X104788092Y-60696168D01*
X104782088Y-60699862D01*
X104777053Y-60704793D01*
X104777050Y-60704795D01*
X104657525Y-60821843D01*
X104652493Y-60826771D01*
X104554235Y-60979238D01*
X104551826Y-60985858D01*
X104551824Y-60985861D01*
X104494606Y-61143066D01*
X104492197Y-61149685D01*
X104469463Y-61329640D01*
X104487163Y-61510160D01*
X104508382Y-61573947D01*
X104542193Y-61675586D01*
X104542195Y-61675590D01*
X104544418Y-61682273D01*
X104547646Y-61687604D01*
X104558016Y-61757513D01*
X104528811Y-61822224D01*
X104473825Y-61859415D01*
X104428579Y-61874818D01*
X104422575Y-61878512D01*
X104280095Y-61966166D01*
X104280092Y-61966168D01*
X104274088Y-61969862D01*
X104269053Y-61974793D01*
X104269050Y-61974795D01*
X104149953Y-62091424D01*
X104144493Y-62096771D01*
X104046235Y-62249238D01*
X104043826Y-62255858D01*
X104043824Y-62255861D01*
X103986606Y-62413066D01*
X103984197Y-62419685D01*
X103961463Y-62599640D01*
X103979163Y-62780160D01*
X104036418Y-62952273D01*
X104040065Y-62958295D01*
X104040066Y-62958297D01*
X104058449Y-62988651D01*
X104076628Y-63057281D01*
X104056586Y-63122174D01*
X104050055Y-63132309D01*
X104050052Y-63132315D01*
X104046235Y-63138238D01*
X104043826Y-63144858D01*
X104043825Y-63144859D01*
X103989235Y-63294844D01*
X103984197Y-63308685D01*
X103961463Y-63488640D01*
X89917761Y-63488640D01*
X89890064Y-63409106D01*
X89890062Y-63409103D01*
X89887745Y-63402448D01*
X89791626Y-63248624D01*
X89777941Y-63234843D01*
X89668778Y-63124915D01*
X89668774Y-63124912D01*
X89663815Y-63119918D01*
X89656164Y-63115062D01*
X89604538Y-63082300D01*
X89510666Y-63022727D01*
X89434990Y-62995780D01*
X89346425Y-62964243D01*
X89346420Y-62964242D01*
X89339790Y-62961881D01*
X89332802Y-62961048D01*
X89332799Y-62961047D01*
X89203171Y-62945590D01*
X89159680Y-62940404D01*
X89152677Y-62941140D01*
X89152676Y-62941140D01*
X88986288Y-62958628D01*
X88986286Y-62958629D01*
X88979288Y-62959364D01*
X88807579Y-63017818D01*
X88801575Y-63021512D01*
X88659095Y-63109166D01*
X88659092Y-63109168D01*
X88653088Y-63112862D01*
X88648053Y-63117793D01*
X88648050Y-63117795D01*
X88528525Y-63234843D01*
X88523493Y-63239771D01*
X88425235Y-63392238D01*
X88422826Y-63398858D01*
X88422824Y-63398861D01*
X88384140Y-63505144D01*
X88363197Y-63562685D01*
X88340463Y-63742640D01*
X80908565Y-63742640D01*
X81014266Y-63641982D01*
X81114643Y-63490902D01*
X81179055Y-63321338D01*
X81180833Y-63308685D01*
X81203748Y-63145639D01*
X81203748Y-63145636D01*
X81204299Y-63141717D01*
X81204452Y-63130738D01*
X81204561Y-63122962D01*
X81204561Y-63122957D01*
X81204616Y-63119000D01*
X81184397Y-62938745D01*
X81182080Y-62932091D01*
X81127064Y-62774106D01*
X81127062Y-62774103D01*
X81124745Y-62767448D01*
X81028626Y-62613624D01*
X81022110Y-62607062D01*
X80905778Y-62489915D01*
X80905774Y-62489912D01*
X80900815Y-62484918D01*
X80889697Y-62477862D01*
X80809038Y-62426675D01*
X80747666Y-62387727D01*
X80696352Y-62369455D01*
X80583425Y-62329243D01*
X80583420Y-62329242D01*
X80576790Y-62326881D01*
X80569802Y-62326048D01*
X80569799Y-62326047D01*
X80446698Y-62311368D01*
X80396680Y-62305404D01*
X80389677Y-62306140D01*
X80389676Y-62306140D01*
X80223288Y-62323628D01*
X80223286Y-62323629D01*
X80216288Y-62324364D01*
X80044579Y-62382818D01*
X80028619Y-62392637D01*
X79896095Y-62474166D01*
X79896092Y-62474168D01*
X79890088Y-62477862D01*
X79885053Y-62482793D01*
X79885050Y-62482795D01*
X79765525Y-62599843D01*
X79760493Y-62604771D01*
X79662235Y-62757238D01*
X79659826Y-62763858D01*
X79659824Y-62763861D01*
X79641816Y-62813338D01*
X79600197Y-62927685D01*
X79577463Y-63107640D01*
X79595163Y-63288160D01*
X79652418Y-63460273D01*
X79656065Y-63466295D01*
X79656066Y-63466297D01*
X79733878Y-63594780D01*
X79746380Y-63615424D01*
X79751270Y-63620487D01*
X79751274Y-63620493D01*
X79833822Y-63705973D01*
X79866755Y-63768869D01*
X79860455Y-63839586D01*
X79816924Y-63895670D01*
X79743186Y-63919500D01*
X78349866Y-63919500D01*
X78287684Y-63926255D01*
X78151295Y-63977385D01*
X78034739Y-64064739D01*
X77947385Y-64181295D01*
X77896255Y-64317684D01*
X77889500Y-64379866D01*
X77889500Y-66176134D01*
X77896255Y-66238316D01*
X77947385Y-66374705D01*
X78034739Y-66491261D01*
X78151295Y-66578615D01*
X78159704Y-66581767D01*
X78159705Y-66581768D01*
X78268451Y-66622535D01*
X78325216Y-66665176D01*
X78349916Y-66731738D01*
X78334709Y-66801087D01*
X78315316Y-66827568D01*
X78210539Y-66937211D01*
X78188629Y-66960138D01*
X78185715Y-66964410D01*
X78185714Y-66964411D01*
X78106189Y-67080990D01*
X78062743Y-67144680D01*
X78047003Y-67178590D01*
X77970897Y-67342547D01*
X77968688Y-67347305D01*
X77908989Y-67562570D01*
X77885251Y-67784695D01*
X77343500Y-67784695D01*
X77343500Y-60821640D01*
X78180463Y-60821640D01*
X78198163Y-61002160D01*
X78255418Y-61174273D01*
X78259065Y-61180295D01*
X78259066Y-61180297D01*
X78311149Y-61266296D01*
X78349380Y-61329424D01*
X78354269Y-61334487D01*
X78354270Y-61334488D01*
X78425348Y-61408091D01*
X78475382Y-61459902D01*
X78545173Y-61505572D01*
X78602886Y-61543338D01*
X78627159Y-61559222D01*
X78633763Y-61561678D01*
X78633765Y-61561679D01*
X78790558Y-61619990D01*
X78790560Y-61619990D01*
X78797168Y-61622448D01*
X78880995Y-61633633D01*
X78969980Y-61645507D01*
X78969984Y-61645507D01*
X78976961Y-61646438D01*
X78983972Y-61645800D01*
X78983976Y-61645800D01*
X79126459Y-61632832D01*
X79157600Y-61629998D01*
X79164302Y-61627820D01*
X79164304Y-61627820D01*
X79323409Y-61576124D01*
X79323412Y-61576123D01*
X79330108Y-61573947D01*
X79433798Y-61512135D01*
X79479860Y-61484677D01*
X79479862Y-61484676D01*
X79485912Y-61481069D01*
X79617266Y-61355982D01*
X79717643Y-61204902D01*
X79764041Y-61082760D01*
X79779555Y-61041920D01*
X79779556Y-61041918D01*
X79782055Y-61035338D01*
X79783035Y-61028366D01*
X79806748Y-60859639D01*
X79806748Y-60859636D01*
X79807299Y-60855717D01*
X79807616Y-60833000D01*
X79787397Y-60652745D01*
X79785080Y-60646091D01*
X79730064Y-60488106D01*
X79730062Y-60488103D01*
X79727745Y-60481448D01*
X79631626Y-60327624D01*
X79569528Y-60265091D01*
X79508778Y-60203915D01*
X79508774Y-60203912D01*
X79503815Y-60198918D01*
X79492697Y-60191862D01*
X79418452Y-60144745D01*
X79350666Y-60101727D01*
X79321463Y-60091328D01*
X79186425Y-60043243D01*
X79186420Y-60043242D01*
X79179790Y-60040881D01*
X79172802Y-60040048D01*
X79172799Y-60040047D01*
X79049698Y-60025368D01*
X78999680Y-60019404D01*
X78992677Y-60020140D01*
X78992676Y-60020140D01*
X78826288Y-60037628D01*
X78826286Y-60037629D01*
X78819288Y-60038364D01*
X78647579Y-60096818D01*
X78641575Y-60100512D01*
X78499095Y-60188166D01*
X78499092Y-60188168D01*
X78493088Y-60191862D01*
X78488053Y-60196793D01*
X78488050Y-60196795D01*
X78418309Y-60265091D01*
X78363493Y-60318771D01*
X78265235Y-60471238D01*
X78262826Y-60477858D01*
X78262824Y-60477861D01*
X78205606Y-60635066D01*
X78203197Y-60641685D01*
X78180463Y-60821640D01*
X77343500Y-60821640D01*
X77343500Y-57374134D01*
X77674500Y-57374134D01*
X77681255Y-57436316D01*
X77732385Y-57572705D01*
X77819739Y-57689261D01*
X77936295Y-57776615D01*
X78072684Y-57827745D01*
X78134866Y-57834500D01*
X81438853Y-57834500D01*
X81506974Y-57854502D01*
X81553467Y-57908158D01*
X81563571Y-57978432D01*
X81534077Y-58043012D01*
X81512914Y-58062436D01*
X81452318Y-58106462D01*
X81430747Y-58122134D01*
X81302960Y-58264056D01*
X81207473Y-58429444D01*
X81148458Y-58611072D01*
X81147768Y-58617633D01*
X81147768Y-58617635D01*
X81136554Y-58724334D01*
X81128496Y-58801000D01*
X81129186Y-58807565D01*
X81138916Y-58900137D01*
X81148458Y-58990928D01*
X81207473Y-59172556D01*
X81213215Y-59182501D01*
X81229952Y-59251497D01*
X81213215Y-59308498D01*
X81207473Y-59318444D01*
X81148458Y-59500072D01*
X81147768Y-59506633D01*
X81147768Y-59506635D01*
X81138217Y-59597506D01*
X81128496Y-59690000D01*
X81129186Y-59696565D01*
X81142356Y-59821866D01*
X81148458Y-59879928D01*
X81207473Y-60061556D01*
X81210776Y-60067278D01*
X81210777Y-60067279D01*
X81229300Y-60099362D01*
X81302960Y-60226944D01*
X81307378Y-60231851D01*
X81307379Y-60231852D01*
X81408139Y-60343757D01*
X81430747Y-60368866D01*
X81437599Y-60373844D01*
X81539751Y-60448062D01*
X81585248Y-60481118D01*
X81591276Y-60483802D01*
X81591278Y-60483803D01*
X81736890Y-60548633D01*
X81759712Y-60558794D01*
X81826560Y-60573003D01*
X81940056Y-60597128D01*
X81940061Y-60597128D01*
X81946513Y-60598500D01*
X82137487Y-60598500D01*
X82143945Y-60597127D01*
X82149695Y-60596523D01*
X82219533Y-60609296D01*
X82271379Y-60657798D01*
X82282422Y-60682061D01*
X82288344Y-60699862D01*
X82319418Y-60793273D01*
X82323065Y-60799295D01*
X82323066Y-60799297D01*
X82407641Y-60938947D01*
X82413380Y-60948424D01*
X82418269Y-60953487D01*
X82418270Y-60953488D01*
X82471727Y-61008844D01*
X82539382Y-61078902D01*
X82545278Y-61082760D01*
X82674912Y-61167590D01*
X82691159Y-61178222D01*
X82697763Y-61180678D01*
X82697765Y-61180679D01*
X82854558Y-61238990D01*
X82854560Y-61238990D01*
X82861168Y-61241448D01*
X82944995Y-61252633D01*
X83033980Y-61264507D01*
X83033984Y-61264507D01*
X83040961Y-61265438D01*
X83047972Y-61264800D01*
X83047976Y-61264800D01*
X83190459Y-61251832D01*
X83221600Y-61248998D01*
X83228302Y-61246820D01*
X83228304Y-61246820D01*
X83387409Y-61195124D01*
X83387412Y-61195123D01*
X83394108Y-61192947D01*
X83513126Y-61121998D01*
X83543860Y-61103677D01*
X83543862Y-61103676D01*
X83549912Y-61100069D01*
X83681266Y-60974982D01*
X83781643Y-60823902D01*
X83846055Y-60654338D01*
X83847833Y-60641685D01*
X83870748Y-60478639D01*
X83870748Y-60478636D01*
X83871299Y-60474717D01*
X83871616Y-60452000D01*
X83851397Y-60271745D01*
X83821760Y-60186640D01*
X88721463Y-60186640D01*
X88739163Y-60367160D01*
X88796418Y-60539273D01*
X88800065Y-60545295D01*
X88800066Y-60545297D01*
X88882893Y-60682061D01*
X88890380Y-60694424D01*
X88895269Y-60699487D01*
X88895270Y-60699488D01*
X88898800Y-60703143D01*
X89016382Y-60824902D01*
X89168159Y-60924222D01*
X89174763Y-60926678D01*
X89174765Y-60926679D01*
X89331558Y-60984990D01*
X89331560Y-60984990D01*
X89338168Y-60987448D01*
X89421995Y-60998633D01*
X89510980Y-61010507D01*
X89510984Y-61010507D01*
X89517961Y-61011438D01*
X89524972Y-61010800D01*
X89524976Y-61010800D01*
X89667459Y-60997832D01*
X89698600Y-60994998D01*
X89705302Y-60992820D01*
X89705304Y-60992820D01*
X89864409Y-60941124D01*
X89864412Y-60941123D01*
X89871108Y-60938947D01*
X90026912Y-60846069D01*
X90029359Y-60843738D01*
X90094355Y-60819000D01*
X90163829Y-60833627D01*
X90194820Y-60857088D01*
X90204881Y-60867506D01*
X90286382Y-60951902D01*
X90353216Y-60995637D01*
X90413886Y-61035338D01*
X90438159Y-61051222D01*
X90444763Y-61053678D01*
X90444765Y-61053679D01*
X90601558Y-61111990D01*
X90601560Y-61111990D01*
X90608168Y-61114448D01*
X90691995Y-61125633D01*
X90780980Y-61137507D01*
X90780984Y-61137507D01*
X90787961Y-61138438D01*
X90794972Y-61137800D01*
X90794976Y-61137800D01*
X90937459Y-61124832D01*
X90968600Y-61121998D01*
X90975302Y-61119820D01*
X90975304Y-61119820D01*
X91134409Y-61068124D01*
X91134412Y-61068123D01*
X91141108Y-61065947D01*
X91237513Y-61008478D01*
X91290860Y-60976677D01*
X91290862Y-60976676D01*
X91296912Y-60973069D01*
X91428266Y-60847982D01*
X91528643Y-60696902D01*
X91583974Y-60551243D01*
X91590555Y-60533920D01*
X91590556Y-60533918D01*
X91593055Y-60527338D01*
X91598569Y-60488106D01*
X91617748Y-60351639D01*
X91617748Y-60351636D01*
X91618299Y-60347717D01*
X91618616Y-60325000D01*
X91598397Y-60144745D01*
X91596080Y-60138091D01*
X91541064Y-59980106D01*
X91541062Y-59980103D01*
X91538745Y-59973448D01*
X91457146Y-59842861D01*
X91446359Y-59825598D01*
X91442626Y-59819624D01*
X91390422Y-59767054D01*
X91319778Y-59695915D01*
X91319774Y-59695912D01*
X91314815Y-59690918D01*
X91303697Y-59683862D01*
X91255285Y-59653139D01*
X91161666Y-59593727D01*
X91091986Y-59568915D01*
X90997425Y-59535243D01*
X90997420Y-59535242D01*
X90990790Y-59532881D01*
X90983802Y-59532048D01*
X90983799Y-59532047D01*
X90860698Y-59517368D01*
X90810680Y-59511404D01*
X90803677Y-59512140D01*
X90803676Y-59512140D01*
X90637288Y-59529628D01*
X90637286Y-59529629D01*
X90630288Y-59530364D01*
X90458579Y-59588818D01*
X90304088Y-59683862D01*
X90302721Y-59681641D01*
X90247863Y-59703394D01*
X90178194Y-59689729D01*
X90146892Y-59666710D01*
X90049778Y-59568915D01*
X90049774Y-59568912D01*
X90044815Y-59563918D01*
X90033697Y-59556862D01*
X89963380Y-59512238D01*
X89891666Y-59466727D01*
X89834146Y-59446245D01*
X89727425Y-59408243D01*
X89727420Y-59408242D01*
X89720790Y-59405881D01*
X89713802Y-59405048D01*
X89713799Y-59405047D01*
X89590698Y-59390368D01*
X89540680Y-59384404D01*
X89533677Y-59385140D01*
X89533676Y-59385140D01*
X89367288Y-59402628D01*
X89367286Y-59402629D01*
X89360288Y-59403364D01*
X89188579Y-59461818D01*
X89182575Y-59465512D01*
X89040095Y-59553166D01*
X89040092Y-59553168D01*
X89034088Y-59556862D01*
X89029053Y-59561793D01*
X89029050Y-59561795D01*
X88966997Y-59622562D01*
X88904493Y-59683771D01*
X88806235Y-59836238D01*
X88803826Y-59842858D01*
X88803824Y-59842861D01*
X88756294Y-59973448D01*
X88744197Y-60006685D01*
X88721463Y-60186640D01*
X83821760Y-60186640D01*
X83791745Y-60100448D01*
X83788012Y-60094473D01*
X83787438Y-60093276D01*
X83776043Y-60023200D01*
X83783281Y-59994090D01*
X83843555Y-59835420D01*
X83843556Y-59835418D01*
X83846055Y-59828838D01*
X83865199Y-59692624D01*
X83870748Y-59653139D01*
X83870748Y-59653136D01*
X83871299Y-59649217D01*
X83871616Y-59626500D01*
X83851397Y-59446245D01*
X83849080Y-59439591D01*
X83794064Y-59281606D01*
X83794062Y-59281603D01*
X83791745Y-59274948D01*
X83695626Y-59121124D01*
X83690664Y-59116127D01*
X83572778Y-58997415D01*
X83572774Y-58997412D01*
X83567815Y-58992418D01*
X83555126Y-58984365D01*
X83445834Y-58915007D01*
X83414666Y-58895227D01*
X83385463Y-58884828D01*
X83250425Y-58836743D01*
X83250420Y-58836742D01*
X83243790Y-58834381D01*
X83236802Y-58833548D01*
X83236799Y-58833547D01*
X83137604Y-58821719D01*
X83063680Y-58812904D01*
X83063784Y-58812033D01*
X83001434Y-58793252D01*
X82955317Y-58739273D01*
X82944983Y-58700902D01*
X82936232Y-58617635D01*
X82936232Y-58617633D01*
X82935542Y-58611072D01*
X82876527Y-58429444D01*
X82781040Y-58264056D01*
X82653253Y-58122134D01*
X82610594Y-58091140D01*
X93293463Y-58091140D01*
X93311163Y-58271660D01*
X93368418Y-58443773D01*
X93372065Y-58449795D01*
X93372066Y-58449797D01*
X93382978Y-58467814D01*
X93462380Y-58598924D01*
X93467269Y-58603987D01*
X93467270Y-58603988D01*
X93474111Y-58611072D01*
X93588382Y-58729402D01*
X93613305Y-58745711D01*
X93716890Y-58813495D01*
X93740159Y-58828722D01*
X93746763Y-58831178D01*
X93746765Y-58831179D01*
X93903558Y-58889490D01*
X93903560Y-58889490D01*
X93910168Y-58891948D01*
X93993995Y-58903133D01*
X94082980Y-58915007D01*
X94082984Y-58915007D01*
X94089961Y-58915938D01*
X94096972Y-58915300D01*
X94096976Y-58915300D01*
X94239459Y-58902332D01*
X94270600Y-58899498D01*
X94277302Y-58897320D01*
X94277304Y-58897320D01*
X94436409Y-58845624D01*
X94436412Y-58845623D01*
X94443108Y-58843447D01*
X94598912Y-58750569D01*
X94730266Y-58625482D01*
X94830643Y-58474402D01*
X94895055Y-58304838D01*
X94896035Y-58297866D01*
X94919748Y-58129139D01*
X94919748Y-58129136D01*
X94920299Y-58125217D01*
X94920616Y-58102500D01*
X94900397Y-57922245D01*
X94898080Y-57915591D01*
X94843064Y-57757606D01*
X94843062Y-57757603D01*
X94840745Y-57750948D01*
X94744626Y-57597124D01*
X94718655Y-57570971D01*
X94621778Y-57473415D01*
X94621774Y-57473412D01*
X94616815Y-57468418D01*
X94605697Y-57461362D01*
X94553254Y-57428081D01*
X94463666Y-57371227D01*
X94434463Y-57360828D01*
X94299425Y-57312743D01*
X94299420Y-57312742D01*
X94292790Y-57310381D01*
X94285802Y-57309548D01*
X94285799Y-57309547D01*
X94162698Y-57294868D01*
X94112680Y-57288904D01*
X94105677Y-57289640D01*
X94105676Y-57289640D01*
X93939288Y-57307128D01*
X93939286Y-57307129D01*
X93932288Y-57307864D01*
X93760579Y-57366318D01*
X93746457Y-57375006D01*
X93612095Y-57457666D01*
X93612092Y-57457668D01*
X93606088Y-57461362D01*
X93601053Y-57466293D01*
X93601050Y-57466295D01*
X93500974Y-57564297D01*
X93476493Y-57588271D01*
X93378235Y-57740738D01*
X93375826Y-57747358D01*
X93375824Y-57747361D01*
X93344108Y-57834500D01*
X93316197Y-57911185D01*
X93293463Y-58091140D01*
X82610594Y-58091140D01*
X82498752Y-58009882D01*
X82492724Y-58007198D01*
X82492722Y-58007197D01*
X82330319Y-57934891D01*
X82330318Y-57934891D01*
X82324288Y-57932206D01*
X82211152Y-57908158D01*
X82143944Y-57893872D01*
X82143939Y-57893872D01*
X82137487Y-57892500D01*
X82045413Y-57892500D01*
X81977292Y-57872498D01*
X81930799Y-57818842D01*
X81920695Y-57748568D01*
X81947393Y-57690110D01*
X81946261Y-57689261D01*
X81950152Y-57684070D01*
X81950153Y-57684068D01*
X82033615Y-57572705D01*
X82084745Y-57436316D01*
X82091500Y-57374134D01*
X82091500Y-54229000D01*
X98527496Y-54229000D01*
X98547458Y-54418928D01*
X98606473Y-54600556D01*
X98701960Y-54765944D01*
X98829747Y-54907866D01*
X98984248Y-55020118D01*
X98990276Y-55022802D01*
X98990278Y-55022803D01*
X99066350Y-55056672D01*
X99120446Y-55102652D01*
X99141095Y-55170579D01*
X99121743Y-55238887D01*
X99081125Y-55279095D01*
X98940088Y-55365862D01*
X98935053Y-55370793D01*
X98935050Y-55370795D01*
X98815525Y-55487843D01*
X98810493Y-55492771D01*
X98712235Y-55645238D01*
X98709826Y-55651858D01*
X98709824Y-55651861D01*
X98661829Y-55783727D01*
X98650197Y-55815685D01*
X98627463Y-55995640D01*
X98645163Y-56176160D01*
X98702418Y-56348273D01*
X98706065Y-56354295D01*
X98706066Y-56354297D01*
X98716978Y-56372314D01*
X98796380Y-56503424D01*
X98801269Y-56508487D01*
X98801270Y-56508488D01*
X98833284Y-56541639D01*
X98922382Y-56633902D01*
X98998271Y-56683562D01*
X99049886Y-56717338D01*
X99074159Y-56733222D01*
X99080763Y-56735678D01*
X99080765Y-56735679D01*
X99237558Y-56793990D01*
X99237560Y-56793990D01*
X99244168Y-56796448D01*
X99327995Y-56807633D01*
X99416980Y-56819507D01*
X99416984Y-56819507D01*
X99423961Y-56820438D01*
X99430972Y-56819800D01*
X99430976Y-56819800D01*
X99573459Y-56806832D01*
X99604600Y-56803998D01*
X99611302Y-56801820D01*
X99611304Y-56801820D01*
X99770409Y-56750124D01*
X99770412Y-56750123D01*
X99777108Y-56747947D01*
X99873513Y-56690478D01*
X99926860Y-56658677D01*
X99926862Y-56658676D01*
X99932912Y-56655069D01*
X100064266Y-56529982D01*
X100081768Y-56503640D01*
X132624963Y-56503640D01*
X132642663Y-56684160D01*
X132699918Y-56856273D01*
X132703565Y-56862295D01*
X132703566Y-56862297D01*
X132714478Y-56880314D01*
X132793880Y-57011424D01*
X132919882Y-57141902D01*
X132925778Y-57145760D01*
X133036932Y-57218497D01*
X133071659Y-57241222D01*
X133078263Y-57243678D01*
X133078265Y-57243679D01*
X133235058Y-57301990D01*
X133235060Y-57301990D01*
X133241668Y-57304448D01*
X133325495Y-57315633D01*
X133414480Y-57327507D01*
X133414484Y-57327507D01*
X133421461Y-57328438D01*
X133428472Y-57327800D01*
X133428476Y-57327800D01*
X133570959Y-57314832D01*
X133602100Y-57311998D01*
X133608802Y-57309820D01*
X133608804Y-57309820D01*
X133767909Y-57258124D01*
X133767912Y-57258123D01*
X133774608Y-57255947D01*
X133780659Y-57252340D01*
X133787074Y-57249430D01*
X133788305Y-57252143D01*
X133844171Y-57237748D01*
X133883880Y-57245581D01*
X134035558Y-57301990D01*
X134035560Y-57301990D01*
X134042168Y-57304448D01*
X134125995Y-57315633D01*
X134214980Y-57327507D01*
X134214984Y-57327507D01*
X134221961Y-57328438D01*
X134228972Y-57327800D01*
X134228976Y-57327800D01*
X134371459Y-57314832D01*
X134402600Y-57311998D01*
X134409302Y-57309820D01*
X134409304Y-57309820D01*
X134568409Y-57258124D01*
X134568412Y-57258123D01*
X134575108Y-57255947D01*
X134698625Y-57182316D01*
X134724860Y-57166677D01*
X134724862Y-57166676D01*
X134730912Y-57163069D01*
X134775998Y-57120134D01*
X136221500Y-57120134D01*
X136228255Y-57182316D01*
X136279385Y-57318705D01*
X136366739Y-57435261D01*
X136483295Y-57522615D01*
X136619684Y-57573745D01*
X136681866Y-57580500D01*
X140178134Y-57580500D01*
X140240316Y-57573745D01*
X140376705Y-57522615D01*
X140493261Y-57435261D01*
X140580615Y-57318705D01*
X140631745Y-57182316D01*
X140638500Y-57120134D01*
X140638500Y-53623866D01*
X140631745Y-53561684D01*
X140580615Y-53425295D01*
X140493261Y-53308739D01*
X140376705Y-53221385D01*
X140240316Y-53170255D01*
X140178134Y-53163500D01*
X136681866Y-53163500D01*
X136619684Y-53170255D01*
X136483295Y-53221385D01*
X136366739Y-53308739D01*
X136279385Y-53425295D01*
X136228255Y-53561684D01*
X136221500Y-53623866D01*
X136221500Y-57120134D01*
X134775998Y-57120134D01*
X134862266Y-57037982D01*
X134962643Y-56886902D01*
X135027055Y-56717338D01*
X135028035Y-56710366D01*
X135051748Y-56541639D01*
X135051748Y-56541636D01*
X135052299Y-56537717D01*
X135052616Y-56515000D01*
X135032397Y-56334745D01*
X135030080Y-56328091D01*
X134975064Y-56170106D01*
X134975062Y-56170103D01*
X134972745Y-56163448D01*
X134876626Y-56009624D01*
X134870110Y-56003062D01*
X134753778Y-55885915D01*
X134753774Y-55885912D01*
X134748815Y-55880918D01*
X134737697Y-55873862D01*
X134657038Y-55822675D01*
X134595666Y-55783727D01*
X134566463Y-55773328D01*
X134431425Y-55725243D01*
X134431420Y-55725242D01*
X134424790Y-55722881D01*
X134417802Y-55722048D01*
X134417799Y-55722047D01*
X134294698Y-55707368D01*
X134244680Y-55701404D01*
X134237677Y-55702140D01*
X134237676Y-55702140D01*
X134071288Y-55719628D01*
X134071286Y-55719629D01*
X134064288Y-55720364D01*
X133892579Y-55778818D01*
X133890632Y-55780016D01*
X133822336Y-55790631D01*
X133795578Y-55782571D01*
X133795166Y-55783727D01*
X133630925Y-55725243D01*
X133630920Y-55725242D01*
X133624290Y-55722881D01*
X133617302Y-55722048D01*
X133617299Y-55722047D01*
X133494198Y-55707368D01*
X133444180Y-55701404D01*
X133437177Y-55702140D01*
X133437176Y-55702140D01*
X133270788Y-55719628D01*
X133270786Y-55719629D01*
X133263788Y-55720364D01*
X133092079Y-55778818D01*
X133042912Y-55809066D01*
X132943595Y-55870166D01*
X132943592Y-55870168D01*
X132937588Y-55873862D01*
X132932553Y-55878793D01*
X132932550Y-55878795D01*
X132813025Y-55995843D01*
X132807993Y-56000771D01*
X132709735Y-56153238D01*
X132707326Y-56159858D01*
X132707324Y-56159861D01*
X132689316Y-56209338D01*
X132647697Y-56323685D01*
X132624963Y-56503640D01*
X100081768Y-56503640D01*
X100164643Y-56378902D01*
X100229055Y-56209338D01*
X100230035Y-56202366D01*
X100253748Y-56033639D01*
X100253748Y-56033636D01*
X100254299Y-56029717D01*
X100254616Y-56007000D01*
X100234397Y-55826745D01*
X100232080Y-55820091D01*
X100177064Y-55662106D01*
X100177062Y-55662103D01*
X100174745Y-55655448D01*
X100078626Y-55501624D01*
X100064941Y-55487843D01*
X99955778Y-55377915D01*
X99955774Y-55377912D01*
X99950815Y-55372918D01*
X99939697Y-55365862D01*
X99800632Y-55277609D01*
X99753833Y-55224220D01*
X99743328Y-55154005D01*
X99772452Y-55089257D01*
X99816897Y-55056117D01*
X99891722Y-55022803D01*
X99891724Y-55022802D01*
X99897752Y-55020118D01*
X100052253Y-54907866D01*
X100180040Y-54765944D01*
X100275527Y-54600556D01*
X100334542Y-54418928D01*
X100354504Y-54229000D01*
X100345588Y-54144166D01*
X100335232Y-54045635D01*
X100335232Y-54045633D01*
X100334542Y-54039072D01*
X100275527Y-53857444D01*
X100255953Y-53823540D01*
X100183341Y-53697774D01*
X100180040Y-53692056D01*
X100070068Y-53569919D01*
X100056675Y-53555045D01*
X100056674Y-53555044D01*
X100052253Y-53550134D01*
X99897752Y-53437882D01*
X99891724Y-53435198D01*
X99891722Y-53435197D01*
X99729319Y-53362891D01*
X99729318Y-53362891D01*
X99723288Y-53360206D01*
X99629887Y-53340353D01*
X99542944Y-53321872D01*
X99542939Y-53321872D01*
X99536487Y-53320500D01*
X99345513Y-53320500D01*
X99339061Y-53321872D01*
X99339056Y-53321872D01*
X99252112Y-53340353D01*
X99158712Y-53360206D01*
X99152682Y-53362891D01*
X99152681Y-53362891D01*
X98990278Y-53435197D01*
X98990276Y-53435198D01*
X98984248Y-53437882D01*
X98829747Y-53550134D01*
X98825326Y-53555044D01*
X98825325Y-53555045D01*
X98811933Y-53569919D01*
X98701960Y-53692056D01*
X98698659Y-53697774D01*
X98626048Y-53823540D01*
X98606473Y-53857444D01*
X98547458Y-54039072D01*
X98546768Y-54045633D01*
X98546768Y-54045635D01*
X98536412Y-54144166D01*
X98527496Y-54229000D01*
X82091500Y-54229000D01*
X82091500Y-53877866D01*
X82084745Y-53815684D01*
X82033615Y-53679295D01*
X81946261Y-53562739D01*
X81829705Y-53475385D01*
X81693316Y-53424255D01*
X81631134Y-53417500D01*
X78134866Y-53417500D01*
X78072684Y-53424255D01*
X77936295Y-53475385D01*
X77819739Y-53562739D01*
X77732385Y-53679295D01*
X77681255Y-53815684D01*
X77674500Y-53877866D01*
X77674500Y-57374134D01*
X77343500Y-57374134D01*
X77343500Y-53274000D01*
X86909496Y-53274000D01*
X86910186Y-53280565D01*
X86925398Y-53425295D01*
X86929458Y-53463928D01*
X86988473Y-53645556D01*
X87083960Y-53810944D01*
X87211747Y-53952866D01*
X87366248Y-54065118D01*
X87372276Y-54067802D01*
X87372278Y-54067803D01*
X87534681Y-54140109D01*
X87540712Y-54142794D01*
X87634112Y-54162647D01*
X87721056Y-54181128D01*
X87721061Y-54181128D01*
X87727513Y-54182500D01*
X87918487Y-54182500D01*
X87924939Y-54181128D01*
X87924944Y-54181128D01*
X88011888Y-54162647D01*
X88105288Y-54142794D01*
X88111319Y-54140109D01*
X88273722Y-54067803D01*
X88273724Y-54067802D01*
X88279752Y-54065118D01*
X88434253Y-53952866D01*
X88562040Y-53810944D01*
X88657527Y-53645556D01*
X88716542Y-53463928D01*
X88720603Y-53425295D01*
X88735814Y-53280565D01*
X88736504Y-53274000D01*
X88725600Y-53170255D01*
X88717232Y-53090635D01*
X88717232Y-53090633D01*
X88716542Y-53084072D01*
X88657527Y-52902444D01*
X88562040Y-52737056D01*
X88434253Y-52595134D01*
X88279752Y-52482882D01*
X88273724Y-52480198D01*
X88273722Y-52480197D01*
X88111319Y-52407891D01*
X88111318Y-52407891D01*
X88105288Y-52405206D01*
X88011887Y-52385353D01*
X87924944Y-52366872D01*
X87924939Y-52366872D01*
X87918487Y-52365500D01*
X87727513Y-52365500D01*
X87721061Y-52366872D01*
X87721056Y-52366872D01*
X87634113Y-52385353D01*
X87540712Y-52405206D01*
X87534682Y-52407891D01*
X87534681Y-52407891D01*
X87372278Y-52480197D01*
X87372276Y-52480198D01*
X87366248Y-52482882D01*
X87211747Y-52595134D01*
X87083960Y-52737056D01*
X86988473Y-52902444D01*
X86929458Y-53084072D01*
X86928768Y-53090633D01*
X86928768Y-53090635D01*
X86920400Y-53170255D01*
X86909496Y-53274000D01*
X77343500Y-53274000D01*
X77343500Y-51434500D01*
X77363502Y-51366379D01*
X77417158Y-51319886D01*
X77469500Y-51308500D01*
X140843500Y-51308500D01*
X140911621Y-51328502D01*
G37*
G04 #@! TD.AperFunction*
M02*
