G04 #@! TF.GenerationSoftware,KiCad,Pcbnew,5.1.10-1.fc32*
G04 #@! TF.CreationDate,2021-08-09T17:43:32+02:00*
G04 #@! TF.ProjectId,esc_brushless,6573635f-6272-4757-9368-6c6573732e6b,rev?*
G04 #@! TF.SameCoordinates,Original*
G04 #@! TF.FileFunction,Copper,L1,Top*
G04 #@! TF.FilePolarity,Positive*
%FSLAX46Y46*%
G04 Gerber Fmt 4.6, Leading zero omitted, Abs format (unit mm)*
G04 Created by KiCad (PCBNEW 5.1.10-1.fc32) date 2021-08-09 17:43:32*
%MOMM*%
%LPD*%
G01*
G04 APERTURE LIST*
G04 #@! TA.AperFunction,SMDPad,CuDef*
%ADD10R,0.450000X0.700000*%
G04 #@! TD*
G04 #@! TA.AperFunction,ComponentPad*
%ADD11R,3.400000X3.400000*%
G04 #@! TD*
G04 #@! TA.AperFunction,ComponentPad*
%ADD12R,1.700000X1.700000*%
G04 #@! TD*
G04 #@! TA.AperFunction,ComponentPad*
%ADD13O,1.700000X1.700000*%
G04 #@! TD*
G04 #@! TA.AperFunction,SMDPad,CuDef*
%ADD14R,3.500000X2.000000*%
G04 #@! TD*
G04 #@! TA.AperFunction,SMDPad,CuDef*
%ADD15R,7.000000X7.000000*%
G04 #@! TD*
G04 #@! TA.AperFunction,SMDPad,CuDef*
%ADD16O,1.250000X1.250000*%
G04 #@! TD*
G04 #@! TA.AperFunction,SMDPad,CuDef*
%ADD17R,1.550000X0.300000*%
G04 #@! TD*
G04 #@! TA.AperFunction,SMDPad,CuDef*
%ADD18R,3.610000X6.350000*%
G04 #@! TD*
G04 #@! TA.AperFunction,ViaPad*
%ADD19C,0.600000*%
G04 #@! TD*
G04 #@! TA.AperFunction,ViaPad*
%ADD20C,0.800000*%
G04 #@! TD*
G04 #@! TA.AperFunction,Conductor*
%ADD21C,1.524000*%
G04 #@! TD*
G04 #@! TA.AperFunction,Conductor*
%ADD22C,0.762000*%
G04 #@! TD*
G04 #@! TA.AperFunction,Conductor*
%ADD23C,0.250000*%
G04 #@! TD*
G04 #@! TA.AperFunction,Conductor*
%ADD24C,0.381000*%
G04 #@! TD*
G04 #@! TA.AperFunction,Conductor*
%ADD25C,0.254000*%
G04 #@! TD*
G04 #@! TA.AperFunction,Conductor*
%ADD26C,0.100000*%
G04 #@! TD*
G04 APERTURE END LIST*
G04 #@! TA.AperFunction,SMDPad,CuDef*
G36*
G01*
X248252000Y-118465000D02*
X247302000Y-118465000D01*
G75*
G02*
X247052000Y-118215000I0J250000D01*
G01*
X247052000Y-117540000D01*
G75*
G02*
X247302000Y-117290000I250000J0D01*
G01*
X248252000Y-117290000D01*
G75*
G02*
X248502000Y-117540000I0J-250000D01*
G01*
X248502000Y-118215000D01*
G75*
G02*
X248252000Y-118465000I-250000J0D01*
G01*
G37*
G04 #@! TD.AperFunction*
G04 #@! TA.AperFunction,SMDPad,CuDef*
G36*
G01*
X248252000Y-116390000D02*
X247302000Y-116390000D01*
G75*
G02*
X247052000Y-116140000I0J250000D01*
G01*
X247052000Y-115465000D01*
G75*
G02*
X247302000Y-115215000I250000J0D01*
G01*
X248252000Y-115215000D01*
G75*
G02*
X248502000Y-115465000I0J-250000D01*
G01*
X248502000Y-116140000D01*
G75*
G02*
X248252000Y-116390000I-250000J0D01*
G01*
G37*
G04 #@! TD.AperFunction*
G04 #@! TA.AperFunction,SMDPad,CuDef*
G36*
G01*
X248252000Y-108135000D02*
X247302000Y-108135000D01*
G75*
G02*
X247052000Y-107885000I0J250000D01*
G01*
X247052000Y-107210000D01*
G75*
G02*
X247302000Y-106960000I250000J0D01*
G01*
X248252000Y-106960000D01*
G75*
G02*
X248502000Y-107210000I0J-250000D01*
G01*
X248502000Y-107885000D01*
G75*
G02*
X248252000Y-108135000I-250000J0D01*
G01*
G37*
G04 #@! TD.AperFunction*
G04 #@! TA.AperFunction,SMDPad,CuDef*
G36*
G01*
X248252000Y-110210000D02*
X247302000Y-110210000D01*
G75*
G02*
X247052000Y-109960000I0J250000D01*
G01*
X247052000Y-109285000D01*
G75*
G02*
X247302000Y-109035000I250000J0D01*
G01*
X248252000Y-109035000D01*
G75*
G02*
X248502000Y-109285000I0J-250000D01*
G01*
X248502000Y-109960000D01*
G75*
G02*
X248252000Y-110210000I-250000J0D01*
G01*
G37*
G04 #@! TD.AperFunction*
G04 #@! TA.AperFunction,SMDPad,CuDef*
G36*
G01*
X248252000Y-101828000D02*
X247302000Y-101828000D01*
G75*
G02*
X247052000Y-101578000I0J250000D01*
G01*
X247052000Y-100903000D01*
G75*
G02*
X247302000Y-100653000I250000J0D01*
G01*
X248252000Y-100653000D01*
G75*
G02*
X248502000Y-100903000I0J-250000D01*
G01*
X248502000Y-101578000D01*
G75*
G02*
X248252000Y-101828000I-250000J0D01*
G01*
G37*
G04 #@! TD.AperFunction*
G04 #@! TA.AperFunction,SMDPad,CuDef*
G36*
G01*
X248252000Y-99753000D02*
X247302000Y-99753000D01*
G75*
G02*
X247052000Y-99503000I0J250000D01*
G01*
X247052000Y-98828000D01*
G75*
G02*
X247302000Y-98578000I250000J0D01*
G01*
X248252000Y-98578000D01*
G75*
G02*
X248502000Y-98828000I0J-250000D01*
G01*
X248502000Y-99503000D01*
G75*
G02*
X248252000Y-99753000I-250000J0D01*
G01*
G37*
G04 #@! TD.AperFunction*
G04 #@! TA.AperFunction,SMDPad,CuDef*
G36*
G01*
X224493002Y-102936000D02*
X222292998Y-102936000D01*
G75*
G02*
X222043000Y-102686002I0J249998D01*
G01*
X222043000Y-101860998D01*
G75*
G02*
X222292998Y-101611000I249998J0D01*
G01*
X224493002Y-101611000D01*
G75*
G02*
X224743000Y-101860998I0J-249998D01*
G01*
X224743000Y-102686002D01*
G75*
G02*
X224493002Y-102936000I-249998J0D01*
G01*
G37*
G04 #@! TD.AperFunction*
G04 #@! TA.AperFunction,SMDPad,CuDef*
G36*
G01*
X224493002Y-99811000D02*
X222292998Y-99811000D01*
G75*
G02*
X222043000Y-99561002I0J249998D01*
G01*
X222043000Y-98735998D01*
G75*
G02*
X222292998Y-98486000I249998J0D01*
G01*
X224493002Y-98486000D01*
G75*
G02*
X224743000Y-98735998I0J-249998D01*
G01*
X224743000Y-99561002D01*
G75*
G02*
X224493002Y-99811000I-249998J0D01*
G01*
G37*
G04 #@! TD.AperFunction*
G04 #@! TA.AperFunction,SMDPad,CuDef*
G36*
G01*
X219840000Y-115332500D02*
X219840000Y-115807500D01*
G75*
G02*
X219602500Y-116045000I-237500J0D01*
G01*
X219002500Y-116045000D01*
G75*
G02*
X218765000Y-115807500I0J237500D01*
G01*
X218765000Y-115332500D01*
G75*
G02*
X219002500Y-115095000I237500J0D01*
G01*
X219602500Y-115095000D01*
G75*
G02*
X219840000Y-115332500I0J-237500D01*
G01*
G37*
G04 #@! TD.AperFunction*
G04 #@! TA.AperFunction,SMDPad,CuDef*
G36*
G01*
X218115000Y-115332500D02*
X218115000Y-115807500D01*
G75*
G02*
X217877500Y-116045000I-237500J0D01*
G01*
X217277500Y-116045000D01*
G75*
G02*
X217040000Y-115807500I0J237500D01*
G01*
X217040000Y-115332500D01*
G75*
G02*
X217277500Y-115095000I237500J0D01*
G01*
X217877500Y-115095000D01*
G75*
G02*
X218115000Y-115332500I0J-237500D01*
G01*
G37*
G04 #@! TD.AperFunction*
G04 #@! TA.AperFunction,SMDPad,CuDef*
G36*
G01*
X221217500Y-100767000D02*
X220742500Y-100767000D01*
G75*
G02*
X220505000Y-100529500I0J237500D01*
G01*
X220505000Y-99929500D01*
G75*
G02*
X220742500Y-99692000I237500J0D01*
G01*
X221217500Y-99692000D01*
G75*
G02*
X221455000Y-99929500I0J-237500D01*
G01*
X221455000Y-100529500D01*
G75*
G02*
X221217500Y-100767000I-237500J0D01*
G01*
G37*
G04 #@! TD.AperFunction*
G04 #@! TA.AperFunction,SMDPad,CuDef*
G36*
G01*
X221217500Y-102492000D02*
X220742500Y-102492000D01*
G75*
G02*
X220505000Y-102254500I0J237500D01*
G01*
X220505000Y-101654500D01*
G75*
G02*
X220742500Y-101417000I237500J0D01*
G01*
X221217500Y-101417000D01*
G75*
G02*
X221455000Y-101654500I0J-237500D01*
G01*
X221455000Y-102254500D01*
G75*
G02*
X221217500Y-102492000I-237500J0D01*
G01*
G37*
G04 #@! TD.AperFunction*
G04 #@! TA.AperFunction,SMDPad,CuDef*
G36*
G01*
X205034000Y-112284500D02*
X205034000Y-112759500D01*
G75*
G02*
X204796500Y-112997000I-237500J0D01*
G01*
X204196500Y-112997000D01*
G75*
G02*
X203959000Y-112759500I0J237500D01*
G01*
X203959000Y-112284500D01*
G75*
G02*
X204196500Y-112047000I237500J0D01*
G01*
X204796500Y-112047000D01*
G75*
G02*
X205034000Y-112284500I0J-237500D01*
G01*
G37*
G04 #@! TD.AperFunction*
G04 #@! TA.AperFunction,SMDPad,CuDef*
G36*
G01*
X206759000Y-112284500D02*
X206759000Y-112759500D01*
G75*
G02*
X206521500Y-112997000I-237500J0D01*
G01*
X205921500Y-112997000D01*
G75*
G02*
X205684000Y-112759500I0J237500D01*
G01*
X205684000Y-112284500D01*
G75*
G02*
X205921500Y-112047000I237500J0D01*
G01*
X206521500Y-112047000D01*
G75*
G02*
X206759000Y-112284500I0J-237500D01*
G01*
G37*
G04 #@! TD.AperFunction*
G04 #@! TA.AperFunction,SMDPad,CuDef*
G36*
G01*
X206759000Y-113808500D02*
X206759000Y-114283500D01*
G75*
G02*
X206521500Y-114521000I-237500J0D01*
G01*
X205921500Y-114521000D01*
G75*
G02*
X205684000Y-114283500I0J237500D01*
G01*
X205684000Y-113808500D01*
G75*
G02*
X205921500Y-113571000I237500J0D01*
G01*
X206521500Y-113571000D01*
G75*
G02*
X206759000Y-113808500I0J-237500D01*
G01*
G37*
G04 #@! TD.AperFunction*
G04 #@! TA.AperFunction,SMDPad,CuDef*
G36*
G01*
X205034000Y-113808500D02*
X205034000Y-114283500D01*
G75*
G02*
X204796500Y-114521000I-237500J0D01*
G01*
X204196500Y-114521000D01*
G75*
G02*
X203959000Y-114283500I0J237500D01*
G01*
X203959000Y-113808500D01*
G75*
G02*
X204196500Y-113571000I237500J0D01*
G01*
X204796500Y-113571000D01*
G75*
G02*
X205034000Y-113808500I0J-237500D01*
G01*
G37*
G04 #@! TD.AperFunction*
G04 #@! TA.AperFunction,SMDPad,CuDef*
G36*
G01*
X219713000Y-99076500D02*
X219713000Y-99551500D01*
G75*
G02*
X219475500Y-99789000I-237500J0D01*
G01*
X218875500Y-99789000D01*
G75*
G02*
X218638000Y-99551500I0J237500D01*
G01*
X218638000Y-99076500D01*
G75*
G02*
X218875500Y-98839000I237500J0D01*
G01*
X219475500Y-98839000D01*
G75*
G02*
X219713000Y-99076500I0J-237500D01*
G01*
G37*
G04 #@! TD.AperFunction*
G04 #@! TA.AperFunction,SMDPad,CuDef*
G36*
G01*
X217988000Y-99076500D02*
X217988000Y-99551500D01*
G75*
G02*
X217750500Y-99789000I-237500J0D01*
G01*
X217150500Y-99789000D01*
G75*
G02*
X216913000Y-99551500I0J237500D01*
G01*
X216913000Y-99076500D01*
G75*
G02*
X217150500Y-98839000I237500J0D01*
G01*
X217750500Y-98839000D01*
G75*
G02*
X217988000Y-99076500I0J-237500D01*
G01*
G37*
G04 #@! TD.AperFunction*
G04 #@! TA.AperFunction,SMDPad,CuDef*
G36*
G01*
X220596000Y-105901500D02*
X220596000Y-105426500D01*
G75*
G02*
X220833500Y-105189000I237500J0D01*
G01*
X221433500Y-105189000D01*
G75*
G02*
X221671000Y-105426500I0J-237500D01*
G01*
X221671000Y-105901500D01*
G75*
G02*
X221433500Y-106139000I-237500J0D01*
G01*
X220833500Y-106139000D01*
G75*
G02*
X220596000Y-105901500I0J237500D01*
G01*
G37*
G04 #@! TD.AperFunction*
G04 #@! TA.AperFunction,SMDPad,CuDef*
G36*
G01*
X222321000Y-105901500D02*
X222321000Y-105426500D01*
G75*
G02*
X222558500Y-105189000I237500J0D01*
G01*
X223158500Y-105189000D01*
G75*
G02*
X223396000Y-105426500I0J-237500D01*
G01*
X223396000Y-105901500D01*
G75*
G02*
X223158500Y-106139000I-237500J0D01*
G01*
X222558500Y-106139000D01*
G75*
G02*
X222321000Y-105901500I0J237500D01*
G01*
G37*
G04 #@! TD.AperFunction*
G04 #@! TA.AperFunction,SMDPad,CuDef*
G36*
G01*
X222702000Y-108568500D02*
X222702000Y-108093500D01*
G75*
G02*
X222939500Y-107856000I237500J0D01*
G01*
X223539500Y-107856000D01*
G75*
G02*
X223777000Y-108093500I0J-237500D01*
G01*
X223777000Y-108568500D01*
G75*
G02*
X223539500Y-108806000I-237500J0D01*
G01*
X222939500Y-108806000D01*
G75*
G02*
X222702000Y-108568500I0J237500D01*
G01*
G37*
G04 #@! TD.AperFunction*
G04 #@! TA.AperFunction,SMDPad,CuDef*
G36*
G01*
X220977000Y-108568500D02*
X220977000Y-108093500D01*
G75*
G02*
X221214500Y-107856000I237500J0D01*
G01*
X221814500Y-107856000D01*
G75*
G02*
X222052000Y-108093500I0J-237500D01*
G01*
X222052000Y-108568500D01*
G75*
G02*
X221814500Y-108806000I-237500J0D01*
G01*
X221214500Y-108806000D01*
G75*
G02*
X220977000Y-108568500I0J237500D01*
G01*
G37*
G04 #@! TD.AperFunction*
G04 #@! TA.AperFunction,SMDPad,CuDef*
G36*
G01*
X220977000Y-111108500D02*
X220977000Y-110633500D01*
G75*
G02*
X221214500Y-110396000I237500J0D01*
G01*
X221814500Y-110396000D01*
G75*
G02*
X222052000Y-110633500I0J-237500D01*
G01*
X222052000Y-111108500D01*
G75*
G02*
X221814500Y-111346000I-237500J0D01*
G01*
X221214500Y-111346000D01*
G75*
G02*
X220977000Y-111108500I0J237500D01*
G01*
G37*
G04 #@! TD.AperFunction*
G04 #@! TA.AperFunction,SMDPad,CuDef*
G36*
G01*
X222702000Y-111108500D02*
X222702000Y-110633500D01*
G75*
G02*
X222939500Y-110396000I237500J0D01*
G01*
X223539500Y-110396000D01*
G75*
G02*
X223777000Y-110633500I0J-237500D01*
G01*
X223777000Y-111108500D01*
G75*
G02*
X223539500Y-111346000I-237500J0D01*
G01*
X222939500Y-111346000D01*
G75*
G02*
X222702000Y-111108500I0J237500D01*
G01*
G37*
G04 #@! TD.AperFunction*
G04 #@! TA.AperFunction,SMDPad,CuDef*
G36*
G01*
X208463000Y-106823500D02*
X208463000Y-107298500D01*
G75*
G02*
X208225500Y-107536000I-237500J0D01*
G01*
X207625500Y-107536000D01*
G75*
G02*
X207388000Y-107298500I0J237500D01*
G01*
X207388000Y-106823500D01*
G75*
G02*
X207625500Y-106586000I237500J0D01*
G01*
X208225500Y-106586000D01*
G75*
G02*
X208463000Y-106823500I0J-237500D01*
G01*
G37*
G04 #@! TD.AperFunction*
G04 #@! TA.AperFunction,SMDPad,CuDef*
G36*
G01*
X210188000Y-106823500D02*
X210188000Y-107298500D01*
G75*
G02*
X209950500Y-107536000I-237500J0D01*
G01*
X209350500Y-107536000D01*
G75*
G02*
X209113000Y-107298500I0J237500D01*
G01*
X209113000Y-106823500D01*
G75*
G02*
X209350500Y-106586000I237500J0D01*
G01*
X209950500Y-106586000D01*
G75*
G02*
X210188000Y-106823500I0J-237500D01*
G01*
G37*
G04 #@! TD.AperFunction*
G04 #@! TA.AperFunction,SMDPad,CuDef*
G36*
G01*
X207388000Y-98916500D02*
X207388000Y-98441500D01*
G75*
G02*
X207625500Y-98204000I237500J0D01*
G01*
X208225500Y-98204000D01*
G75*
G02*
X208463000Y-98441500I0J-237500D01*
G01*
X208463000Y-98916500D01*
G75*
G02*
X208225500Y-99154000I-237500J0D01*
G01*
X207625500Y-99154000D01*
G75*
G02*
X207388000Y-98916500I0J237500D01*
G01*
G37*
G04 #@! TD.AperFunction*
G04 #@! TA.AperFunction,SMDPad,CuDef*
G36*
G01*
X209113000Y-98916500D02*
X209113000Y-98441500D01*
G75*
G02*
X209350500Y-98204000I237500J0D01*
G01*
X209950500Y-98204000D01*
G75*
G02*
X210188000Y-98441500I0J-237500D01*
G01*
X210188000Y-98916500D01*
G75*
G02*
X209950500Y-99154000I-237500J0D01*
G01*
X209350500Y-99154000D01*
G75*
G02*
X209113000Y-98916500I0J237500D01*
G01*
G37*
G04 #@! TD.AperFunction*
G04 #@! TA.AperFunction,SMDPad,CuDef*
G36*
G01*
X208463000Y-101489500D02*
X208463000Y-101964500D01*
G75*
G02*
X208225500Y-102202000I-237500J0D01*
G01*
X207625500Y-102202000D01*
G75*
G02*
X207388000Y-101964500I0J237500D01*
G01*
X207388000Y-101489500D01*
G75*
G02*
X207625500Y-101252000I237500J0D01*
G01*
X208225500Y-101252000D01*
G75*
G02*
X208463000Y-101489500I0J-237500D01*
G01*
G37*
G04 #@! TD.AperFunction*
G04 #@! TA.AperFunction,SMDPad,CuDef*
G36*
G01*
X210188000Y-101489500D02*
X210188000Y-101964500D01*
G75*
G02*
X209950500Y-102202000I-237500J0D01*
G01*
X209350500Y-102202000D01*
G75*
G02*
X209113000Y-101964500I0J237500D01*
G01*
X209113000Y-101489500D01*
G75*
G02*
X209350500Y-101252000I237500J0D01*
G01*
X209950500Y-101252000D01*
G75*
G02*
X210188000Y-101489500I0J-237500D01*
G01*
G37*
G04 #@! TD.AperFunction*
G04 #@! TA.AperFunction,SMDPad,CuDef*
G36*
G01*
X195329000Y-102124500D02*
X195329000Y-102599500D01*
G75*
G02*
X195091500Y-102837000I-237500J0D01*
G01*
X194491500Y-102837000D01*
G75*
G02*
X194254000Y-102599500I0J237500D01*
G01*
X194254000Y-102124500D01*
G75*
G02*
X194491500Y-101887000I237500J0D01*
G01*
X195091500Y-101887000D01*
G75*
G02*
X195329000Y-102124500I0J-237500D01*
G01*
G37*
G04 #@! TD.AperFunction*
G04 #@! TA.AperFunction,SMDPad,CuDef*
G36*
G01*
X193604000Y-102124500D02*
X193604000Y-102599500D01*
G75*
G02*
X193366500Y-102837000I-237500J0D01*
G01*
X192766500Y-102837000D01*
G75*
G02*
X192529000Y-102599500I0J237500D01*
G01*
X192529000Y-102124500D01*
G75*
G02*
X192766500Y-101887000I237500J0D01*
G01*
X193366500Y-101887000D01*
G75*
G02*
X193604000Y-102124500I0J-237500D01*
G01*
G37*
G04 #@! TD.AperFunction*
G04 #@! TA.AperFunction,SMDPad,CuDef*
G36*
G01*
X202737000Y-117731250D02*
X202737000Y-117218750D01*
G75*
G02*
X202955750Y-117000000I218750J0D01*
G01*
X203393250Y-117000000D01*
G75*
G02*
X203612000Y-117218750I0J-218750D01*
G01*
X203612000Y-117731250D01*
G75*
G02*
X203393250Y-117950000I-218750J0D01*
G01*
X202955750Y-117950000D01*
G75*
G02*
X202737000Y-117731250I0J218750D01*
G01*
G37*
G04 #@! TD.AperFunction*
G04 #@! TA.AperFunction,SMDPad,CuDef*
G36*
G01*
X204312000Y-117731250D02*
X204312000Y-117218750D01*
G75*
G02*
X204530750Y-117000000I218750J0D01*
G01*
X204968250Y-117000000D01*
G75*
G02*
X205187000Y-117218750I0J-218750D01*
G01*
X205187000Y-117731250D01*
G75*
G02*
X204968250Y-117950000I-218750J0D01*
G01*
X204530750Y-117950000D01*
G75*
G02*
X204312000Y-117731250I0J218750D01*
G01*
G37*
G04 #@! TD.AperFunction*
D10*
X192898000Y-100822000D03*
X194198000Y-100822000D03*
X193548000Y-98822000D03*
D11*
X192278000Y-95885000D03*
X192278000Y-116205000D03*
D12*
X191643000Y-105537000D03*
D13*
X191643000Y-108077000D03*
X191643000Y-110617000D03*
D12*
X197866000Y-116459000D03*
D13*
X200406000Y-116459000D03*
D11*
X250825000Y-112649000D03*
X250825000Y-104267000D03*
X250825000Y-95631000D03*
D14*
X233931000Y-112000000D03*
X233931000Y-116580000D03*
D15*
X241331000Y-114300000D03*
X241331000Y-105156000D03*
D14*
X233931000Y-107436000D03*
X233931000Y-102856000D03*
D15*
X241204000Y-96393000D03*
D14*
X233804000Y-98673000D03*
X233804000Y-94093000D03*
G04 #@! TA.AperFunction,SMDPad,CuDef*
G36*
G01*
X191151500Y-100581000D02*
X191626500Y-100581000D01*
G75*
G02*
X191864000Y-100818500I0J-237500D01*
G01*
X191864000Y-101318500D01*
G75*
G02*
X191626500Y-101556000I-237500J0D01*
G01*
X191151500Y-101556000D01*
G75*
G02*
X190914000Y-101318500I0J237500D01*
G01*
X190914000Y-100818500D01*
G75*
G02*
X191151500Y-100581000I237500J0D01*
G01*
G37*
G04 #@! TD.AperFunction*
G04 #@! TA.AperFunction,SMDPad,CuDef*
G36*
G01*
X191151500Y-102406000D02*
X191626500Y-102406000D01*
G75*
G02*
X191864000Y-102643500I0J-237500D01*
G01*
X191864000Y-103143500D01*
G75*
G02*
X191626500Y-103381000I-237500J0D01*
G01*
X191151500Y-103381000D01*
G75*
G02*
X190914000Y-103143500I0J237500D01*
G01*
X190914000Y-102643500D01*
G75*
G02*
X191151500Y-102406000I237500J0D01*
G01*
G37*
G04 #@! TD.AperFunction*
G04 #@! TA.AperFunction,SMDPad,CuDef*
G36*
G01*
X205864000Y-117712500D02*
X205864000Y-117237500D01*
G75*
G02*
X206101500Y-117000000I237500J0D01*
G01*
X206601500Y-117000000D01*
G75*
G02*
X206839000Y-117237500I0J-237500D01*
G01*
X206839000Y-117712500D01*
G75*
G02*
X206601500Y-117950000I-237500J0D01*
G01*
X206101500Y-117950000D01*
G75*
G02*
X205864000Y-117712500I0J237500D01*
G01*
G37*
G04 #@! TD.AperFunction*
G04 #@! TA.AperFunction,SMDPad,CuDef*
G36*
G01*
X207689000Y-117712500D02*
X207689000Y-117237500D01*
G75*
G02*
X207926500Y-117000000I237500J0D01*
G01*
X208426500Y-117000000D01*
G75*
G02*
X208664000Y-117237500I0J-237500D01*
G01*
X208664000Y-117712500D01*
G75*
G02*
X208426500Y-117950000I-237500J0D01*
G01*
X207926500Y-117950000D01*
G75*
G02*
X207689000Y-117712500I0J237500D01*
G01*
G37*
G04 #@! TD.AperFunction*
G04 #@! TA.AperFunction,SMDPad,CuDef*
G36*
G01*
X227694500Y-105239000D02*
X227219500Y-105239000D01*
G75*
G02*
X226982000Y-105001500I0J237500D01*
G01*
X226982000Y-104501500D01*
G75*
G02*
X227219500Y-104264000I237500J0D01*
G01*
X227694500Y-104264000D01*
G75*
G02*
X227932000Y-104501500I0J-237500D01*
G01*
X227932000Y-105001500D01*
G75*
G02*
X227694500Y-105239000I-237500J0D01*
G01*
G37*
G04 #@! TD.AperFunction*
G04 #@! TA.AperFunction,SMDPad,CuDef*
G36*
G01*
X227694500Y-107064000D02*
X227219500Y-107064000D01*
G75*
G02*
X226982000Y-106826500I0J237500D01*
G01*
X226982000Y-106326500D01*
G75*
G02*
X227219500Y-106089000I237500J0D01*
G01*
X227694500Y-106089000D01*
G75*
G02*
X227932000Y-106326500I0J-237500D01*
G01*
X227932000Y-106826500D01*
G75*
G02*
X227694500Y-107064000I-237500J0D01*
G01*
G37*
G04 #@! TD.AperFunction*
G04 #@! TA.AperFunction,SMDPad,CuDef*
G36*
G01*
X228222000Y-100346500D02*
X228222000Y-100821500D01*
G75*
G02*
X227984500Y-101059000I-237500J0D01*
G01*
X227484500Y-101059000D01*
G75*
G02*
X227247000Y-100821500I0J237500D01*
G01*
X227247000Y-100346500D01*
G75*
G02*
X227484500Y-100109000I237500J0D01*
G01*
X227984500Y-100109000D01*
G75*
G02*
X228222000Y-100346500I0J-237500D01*
G01*
G37*
G04 #@! TD.AperFunction*
G04 #@! TA.AperFunction,SMDPad,CuDef*
G36*
G01*
X226397000Y-100346500D02*
X226397000Y-100821500D01*
G75*
G02*
X226159500Y-101059000I-237500J0D01*
G01*
X225659500Y-101059000D01*
G75*
G02*
X225422000Y-100821500I0J237500D01*
G01*
X225422000Y-100346500D01*
G75*
G02*
X225659500Y-100109000I237500J0D01*
G01*
X226159500Y-100109000D01*
G75*
G02*
X226397000Y-100346500I0J-237500D01*
G01*
G37*
G04 #@! TD.AperFunction*
G04 #@! TA.AperFunction,SMDPad,CuDef*
G36*
G01*
X230996500Y-93809000D02*
X230521500Y-93809000D01*
G75*
G02*
X230284000Y-93571500I0J237500D01*
G01*
X230284000Y-93071500D01*
G75*
G02*
X230521500Y-92834000I237500J0D01*
G01*
X230996500Y-92834000D01*
G75*
G02*
X231234000Y-93071500I0J-237500D01*
G01*
X231234000Y-93571500D01*
G75*
G02*
X230996500Y-93809000I-237500J0D01*
G01*
G37*
G04 #@! TD.AperFunction*
G04 #@! TA.AperFunction,SMDPad,CuDef*
G36*
G01*
X230996500Y-95634000D02*
X230521500Y-95634000D01*
G75*
G02*
X230284000Y-95396500I0J237500D01*
G01*
X230284000Y-94896500D01*
G75*
G02*
X230521500Y-94659000I237500J0D01*
G01*
X230996500Y-94659000D01*
G75*
G02*
X231234000Y-94896500I0J-237500D01*
G01*
X231234000Y-95396500D01*
G75*
G02*
X230996500Y-95634000I-237500J0D01*
G01*
G37*
G04 #@! TD.AperFunction*
G04 #@! TA.AperFunction,SMDPad,CuDef*
G36*
G01*
X229472500Y-107064000D02*
X228997500Y-107064000D01*
G75*
G02*
X228760000Y-106826500I0J237500D01*
G01*
X228760000Y-106326500D01*
G75*
G02*
X228997500Y-106089000I237500J0D01*
G01*
X229472500Y-106089000D01*
G75*
G02*
X229710000Y-106326500I0J-237500D01*
G01*
X229710000Y-106826500D01*
G75*
G02*
X229472500Y-107064000I-237500J0D01*
G01*
G37*
G04 #@! TD.AperFunction*
G04 #@! TA.AperFunction,SMDPad,CuDef*
G36*
G01*
X229472500Y-105239000D02*
X228997500Y-105239000D01*
G75*
G02*
X228760000Y-105001500I0J237500D01*
G01*
X228760000Y-104501500D01*
G75*
G02*
X228997500Y-104264000I237500J0D01*
G01*
X229472500Y-104264000D01*
G75*
G02*
X229710000Y-104501500I0J-237500D01*
G01*
X229710000Y-105001500D01*
G75*
G02*
X229472500Y-105239000I-237500J0D01*
G01*
G37*
G04 #@! TD.AperFunction*
G04 #@! TA.AperFunction,SMDPad,CuDef*
G36*
G01*
X226397000Y-98822500D02*
X226397000Y-99297500D01*
G75*
G02*
X226159500Y-99535000I-237500J0D01*
G01*
X225659500Y-99535000D01*
G75*
G02*
X225422000Y-99297500I0J237500D01*
G01*
X225422000Y-98822500D01*
G75*
G02*
X225659500Y-98585000I237500J0D01*
G01*
X226159500Y-98585000D01*
G75*
G02*
X226397000Y-98822500I0J-237500D01*
G01*
G37*
G04 #@! TD.AperFunction*
G04 #@! TA.AperFunction,SMDPad,CuDef*
G36*
G01*
X228222000Y-98822500D02*
X228222000Y-99297500D01*
G75*
G02*
X227984500Y-99535000I-237500J0D01*
G01*
X227484500Y-99535000D01*
G75*
G02*
X227247000Y-99297500I0J237500D01*
G01*
X227247000Y-98822500D01*
G75*
G02*
X227484500Y-98585000I237500J0D01*
G01*
X227984500Y-98585000D01*
G75*
G02*
X228222000Y-98822500I0J-237500D01*
G01*
G37*
G04 #@! TD.AperFunction*
G04 #@! TA.AperFunction,SMDPad,CuDef*
G36*
G01*
X230040000Y-96536500D02*
X230040000Y-97011500D01*
G75*
G02*
X229802500Y-97249000I-237500J0D01*
G01*
X229302500Y-97249000D01*
G75*
G02*
X229065000Y-97011500I0J237500D01*
G01*
X229065000Y-96536500D01*
G75*
G02*
X229302500Y-96299000I237500J0D01*
G01*
X229802500Y-96299000D01*
G75*
G02*
X230040000Y-96536500I0J-237500D01*
G01*
G37*
G04 #@! TD.AperFunction*
G04 #@! TA.AperFunction,SMDPad,CuDef*
G36*
G01*
X228215000Y-96536500D02*
X228215000Y-97011500D01*
G75*
G02*
X227977500Y-97249000I-237500J0D01*
G01*
X227477500Y-97249000D01*
G75*
G02*
X227240000Y-97011500I0J237500D01*
G01*
X227240000Y-96536500D01*
G75*
G02*
X227477500Y-96299000I237500J0D01*
G01*
X227977500Y-96299000D01*
G75*
G02*
X228215000Y-96536500I0J-237500D01*
G01*
G37*
G04 #@! TD.AperFunction*
G04 #@! TA.AperFunction,SMDPad,CuDef*
G36*
G01*
X246236500Y-117986000D02*
X245761500Y-117986000D01*
G75*
G02*
X245524000Y-117748500I0J237500D01*
G01*
X245524000Y-117248500D01*
G75*
G02*
X245761500Y-117011000I237500J0D01*
G01*
X246236500Y-117011000D01*
G75*
G02*
X246474000Y-117248500I0J-237500D01*
G01*
X246474000Y-117748500D01*
G75*
G02*
X246236500Y-117986000I-237500J0D01*
G01*
G37*
G04 #@! TD.AperFunction*
G04 #@! TA.AperFunction,SMDPad,CuDef*
G36*
G01*
X246236500Y-116161000D02*
X245761500Y-116161000D01*
G75*
G02*
X245524000Y-115923500I0J237500D01*
G01*
X245524000Y-115423500D01*
G75*
G02*
X245761500Y-115186000I237500J0D01*
G01*
X246236500Y-115186000D01*
G75*
G02*
X246474000Y-115423500I0J-237500D01*
G01*
X246474000Y-115923500D01*
G75*
G02*
X246236500Y-116161000I-237500J0D01*
G01*
G37*
G04 #@! TD.AperFunction*
G04 #@! TA.AperFunction,SMDPad,CuDef*
G36*
G01*
X249317500Y-117011000D02*
X249792500Y-117011000D01*
G75*
G02*
X250030000Y-117248500I0J-237500D01*
G01*
X250030000Y-117748500D01*
G75*
G02*
X249792500Y-117986000I-237500J0D01*
G01*
X249317500Y-117986000D01*
G75*
G02*
X249080000Y-117748500I0J237500D01*
G01*
X249080000Y-117248500D01*
G75*
G02*
X249317500Y-117011000I237500J0D01*
G01*
G37*
G04 #@! TD.AperFunction*
G04 #@! TA.AperFunction,SMDPad,CuDef*
G36*
G01*
X249317500Y-115186000D02*
X249792500Y-115186000D01*
G75*
G02*
X250030000Y-115423500I0J-237500D01*
G01*
X250030000Y-115923500D01*
G75*
G02*
X249792500Y-116161000I-237500J0D01*
G01*
X249317500Y-116161000D01*
G75*
G02*
X249080000Y-115923500I0J237500D01*
G01*
X249080000Y-115423500D01*
G75*
G02*
X249317500Y-115186000I237500J0D01*
G01*
G37*
G04 #@! TD.AperFunction*
G04 #@! TA.AperFunction,SMDPad,CuDef*
G36*
G01*
X246236500Y-108414000D02*
X245761500Y-108414000D01*
G75*
G02*
X245524000Y-108176500I0J237500D01*
G01*
X245524000Y-107676500D01*
G75*
G02*
X245761500Y-107439000I237500J0D01*
G01*
X246236500Y-107439000D01*
G75*
G02*
X246474000Y-107676500I0J-237500D01*
G01*
X246474000Y-108176500D01*
G75*
G02*
X246236500Y-108414000I-237500J0D01*
G01*
G37*
G04 #@! TD.AperFunction*
G04 #@! TA.AperFunction,SMDPad,CuDef*
G36*
G01*
X246236500Y-110239000D02*
X245761500Y-110239000D01*
G75*
G02*
X245524000Y-110001500I0J237500D01*
G01*
X245524000Y-109501500D01*
G75*
G02*
X245761500Y-109264000I237500J0D01*
G01*
X246236500Y-109264000D01*
G75*
G02*
X246474000Y-109501500I0J-237500D01*
G01*
X246474000Y-110001500D01*
G75*
G02*
X246236500Y-110239000I-237500J0D01*
G01*
G37*
G04 #@! TD.AperFunction*
G04 #@! TA.AperFunction,SMDPad,CuDef*
G36*
G01*
X249317500Y-107439000D02*
X249792500Y-107439000D01*
G75*
G02*
X250030000Y-107676500I0J-237500D01*
G01*
X250030000Y-108176500D01*
G75*
G02*
X249792500Y-108414000I-237500J0D01*
G01*
X249317500Y-108414000D01*
G75*
G02*
X249080000Y-108176500I0J237500D01*
G01*
X249080000Y-107676500D01*
G75*
G02*
X249317500Y-107439000I237500J0D01*
G01*
G37*
G04 #@! TD.AperFunction*
G04 #@! TA.AperFunction,SMDPad,CuDef*
G36*
G01*
X249317500Y-109264000D02*
X249792500Y-109264000D01*
G75*
G02*
X250030000Y-109501500I0J-237500D01*
G01*
X250030000Y-110001500D01*
G75*
G02*
X249792500Y-110239000I-237500J0D01*
G01*
X249317500Y-110239000D01*
G75*
G02*
X249080000Y-110001500I0J237500D01*
G01*
X249080000Y-109501500D01*
G75*
G02*
X249317500Y-109264000I237500J0D01*
G01*
G37*
G04 #@! TD.AperFunction*
G04 #@! TA.AperFunction,SMDPad,CuDef*
G36*
G01*
X246236500Y-101857000D02*
X245761500Y-101857000D01*
G75*
G02*
X245524000Y-101619500I0J237500D01*
G01*
X245524000Y-101119500D01*
G75*
G02*
X245761500Y-100882000I237500J0D01*
G01*
X246236500Y-100882000D01*
G75*
G02*
X246474000Y-101119500I0J-237500D01*
G01*
X246474000Y-101619500D01*
G75*
G02*
X246236500Y-101857000I-237500J0D01*
G01*
G37*
G04 #@! TD.AperFunction*
G04 #@! TA.AperFunction,SMDPad,CuDef*
G36*
G01*
X246236500Y-100032000D02*
X245761500Y-100032000D01*
G75*
G02*
X245524000Y-99794500I0J237500D01*
G01*
X245524000Y-99294500D01*
G75*
G02*
X245761500Y-99057000I237500J0D01*
G01*
X246236500Y-99057000D01*
G75*
G02*
X246474000Y-99294500I0J-237500D01*
G01*
X246474000Y-99794500D01*
G75*
G02*
X246236500Y-100032000I-237500J0D01*
G01*
G37*
G04 #@! TD.AperFunction*
G04 #@! TA.AperFunction,SMDPad,CuDef*
G36*
G01*
X249317500Y-100882000D02*
X249792500Y-100882000D01*
G75*
G02*
X250030000Y-101119500I0J-237500D01*
G01*
X250030000Y-101619500D01*
G75*
G02*
X249792500Y-101857000I-237500J0D01*
G01*
X249317500Y-101857000D01*
G75*
G02*
X249080000Y-101619500I0J237500D01*
G01*
X249080000Y-101119500D01*
G75*
G02*
X249317500Y-100882000I237500J0D01*
G01*
G37*
G04 #@! TD.AperFunction*
G04 #@! TA.AperFunction,SMDPad,CuDef*
G36*
G01*
X249317500Y-99057000D02*
X249792500Y-99057000D01*
G75*
G02*
X250030000Y-99294500I0J-237500D01*
G01*
X250030000Y-99794500D01*
G75*
G02*
X249792500Y-100032000I-237500J0D01*
G01*
X249317500Y-100032000D01*
G75*
G02*
X249080000Y-99794500I0J237500D01*
G01*
X249080000Y-99294500D01*
G75*
G02*
X249317500Y-99057000I237500J0D01*
G01*
G37*
G04 #@! TD.AperFunction*
G04 #@! TA.AperFunction,SMDPad,CuDef*
G36*
G01*
X211452000Y-94725500D02*
X211452000Y-94250500D01*
G75*
G02*
X211689500Y-94013000I237500J0D01*
G01*
X212189500Y-94013000D01*
G75*
G02*
X212427000Y-94250500I0J-237500D01*
G01*
X212427000Y-94725500D01*
G75*
G02*
X212189500Y-94963000I-237500J0D01*
G01*
X211689500Y-94963000D01*
G75*
G02*
X211452000Y-94725500I0J237500D01*
G01*
G37*
G04 #@! TD.AperFunction*
G04 #@! TA.AperFunction,SMDPad,CuDef*
G36*
G01*
X213277000Y-94725500D02*
X213277000Y-94250500D01*
G75*
G02*
X213514500Y-94013000I237500J0D01*
G01*
X214014500Y-94013000D01*
G75*
G02*
X214252000Y-94250500I0J-237500D01*
G01*
X214252000Y-94725500D01*
G75*
G02*
X214014500Y-94963000I-237500J0D01*
G01*
X213514500Y-94963000D01*
G75*
G02*
X213277000Y-94725500I0J237500D01*
G01*
G37*
G04 #@! TD.AperFunction*
G04 #@! TA.AperFunction,SMDPad,CuDef*
G36*
G01*
X210188000Y-103013500D02*
X210188000Y-103488500D01*
G75*
G02*
X209950500Y-103726000I-237500J0D01*
G01*
X209450500Y-103726000D01*
G75*
G02*
X209213000Y-103488500I0J237500D01*
G01*
X209213000Y-103013500D01*
G75*
G02*
X209450500Y-102776000I237500J0D01*
G01*
X209950500Y-102776000D01*
G75*
G02*
X210188000Y-103013500I0J-237500D01*
G01*
G37*
G04 #@! TD.AperFunction*
G04 #@! TA.AperFunction,SMDPad,CuDef*
G36*
G01*
X208363000Y-103013500D02*
X208363000Y-103488500D01*
G75*
G02*
X208125500Y-103726000I-237500J0D01*
G01*
X207625500Y-103726000D01*
G75*
G02*
X207388000Y-103488500I0J237500D01*
G01*
X207388000Y-103013500D01*
G75*
G02*
X207625500Y-102776000I237500J0D01*
G01*
X208125500Y-102776000D01*
G75*
G02*
X208363000Y-103013500I0J-237500D01*
G01*
G37*
G04 #@! TD.AperFunction*
G04 #@! TA.AperFunction,SMDPad,CuDef*
G36*
G01*
X209213000Y-95614500D02*
X209213000Y-95139500D01*
G75*
G02*
X209450500Y-94902000I237500J0D01*
G01*
X209950500Y-94902000D01*
G75*
G02*
X210188000Y-95139500I0J-237500D01*
G01*
X210188000Y-95614500D01*
G75*
G02*
X209950500Y-95852000I-237500J0D01*
G01*
X209450500Y-95852000D01*
G75*
G02*
X209213000Y-95614500I0J237500D01*
G01*
G37*
G04 #@! TD.AperFunction*
G04 #@! TA.AperFunction,SMDPad,CuDef*
G36*
G01*
X207388000Y-95614500D02*
X207388000Y-95139500D01*
G75*
G02*
X207625500Y-94902000I237500J0D01*
G01*
X208125500Y-94902000D01*
G75*
G02*
X208363000Y-95139500I0J-237500D01*
G01*
X208363000Y-95614500D01*
G75*
G02*
X208125500Y-95852000I-237500J0D01*
G01*
X207625500Y-95852000D01*
G75*
G02*
X207388000Y-95614500I0J237500D01*
G01*
G37*
G04 #@! TD.AperFunction*
G04 #@! TA.AperFunction,SMDPad,CuDef*
G36*
G01*
X210188000Y-112284500D02*
X210188000Y-112759500D01*
G75*
G02*
X209950500Y-112997000I-237500J0D01*
G01*
X209450500Y-112997000D01*
G75*
G02*
X209213000Y-112759500I0J237500D01*
G01*
X209213000Y-112284500D01*
G75*
G02*
X209450500Y-112047000I237500J0D01*
G01*
X209950500Y-112047000D01*
G75*
G02*
X210188000Y-112284500I0J-237500D01*
G01*
G37*
G04 #@! TD.AperFunction*
G04 #@! TA.AperFunction,SMDPad,CuDef*
G36*
G01*
X208363000Y-112284500D02*
X208363000Y-112759500D01*
G75*
G02*
X208125500Y-112997000I-237500J0D01*
G01*
X207625500Y-112997000D01*
G75*
G02*
X207388000Y-112759500I0J237500D01*
G01*
X207388000Y-112284500D01*
G75*
G02*
X207625500Y-112047000I237500J0D01*
G01*
X208125500Y-112047000D01*
G75*
G02*
X208363000Y-112284500I0J-237500D01*
G01*
G37*
G04 #@! TD.AperFunction*
G04 #@! TA.AperFunction,SMDPad,CuDef*
G36*
G01*
X208363000Y-113808500D02*
X208363000Y-114283500D01*
G75*
G02*
X208125500Y-114521000I-237500J0D01*
G01*
X207625500Y-114521000D01*
G75*
G02*
X207388000Y-114283500I0J237500D01*
G01*
X207388000Y-113808500D01*
G75*
G02*
X207625500Y-113571000I237500J0D01*
G01*
X208125500Y-113571000D01*
G75*
G02*
X208363000Y-113808500I0J-237500D01*
G01*
G37*
G04 #@! TD.AperFunction*
G04 #@! TA.AperFunction,SMDPad,CuDef*
G36*
G01*
X210188000Y-113808500D02*
X210188000Y-114283500D01*
G75*
G02*
X209950500Y-114521000I-237500J0D01*
G01*
X209450500Y-114521000D01*
G75*
G02*
X209213000Y-114283500I0J237500D01*
G01*
X209213000Y-113808500D01*
G75*
G02*
X209450500Y-113571000I237500J0D01*
G01*
X209950500Y-113571000D01*
G75*
G02*
X210188000Y-113808500I0J-237500D01*
G01*
G37*
G04 #@! TD.AperFunction*
G04 #@! TA.AperFunction,SMDPad,CuDef*
G36*
G01*
X208363000Y-96790500D02*
X208363000Y-97265500D01*
G75*
G02*
X208125500Y-97503000I-237500J0D01*
G01*
X207625500Y-97503000D01*
G75*
G02*
X207388000Y-97265500I0J237500D01*
G01*
X207388000Y-96790500D01*
G75*
G02*
X207625500Y-96553000I237500J0D01*
G01*
X208125500Y-96553000D01*
G75*
G02*
X208363000Y-96790500I0J-237500D01*
G01*
G37*
G04 #@! TD.AperFunction*
G04 #@! TA.AperFunction,SMDPad,CuDef*
G36*
G01*
X210188000Y-96790500D02*
X210188000Y-97265500D01*
G75*
G02*
X209950500Y-97503000I-237500J0D01*
G01*
X209450500Y-97503000D01*
G75*
G02*
X209213000Y-97265500I0J237500D01*
G01*
X209213000Y-96790500D01*
G75*
G02*
X209450500Y-96553000I237500J0D01*
G01*
X209950500Y-96553000D01*
G75*
G02*
X210188000Y-96790500I0J-237500D01*
G01*
G37*
G04 #@! TD.AperFunction*
G04 #@! TA.AperFunction,SMDPad,CuDef*
G36*
G01*
X211428500Y-99551500D02*
X211428500Y-99076500D01*
G75*
G02*
X211666000Y-98839000I237500J0D01*
G01*
X212166000Y-98839000D01*
G75*
G02*
X212403500Y-99076500I0J-237500D01*
G01*
X212403500Y-99551500D01*
G75*
G02*
X212166000Y-99789000I-237500J0D01*
G01*
X211666000Y-99789000D01*
G75*
G02*
X211428500Y-99551500I0J237500D01*
G01*
G37*
G04 #@! TD.AperFunction*
G04 #@! TA.AperFunction,SMDPad,CuDef*
G36*
G01*
X213253500Y-99551500D02*
X213253500Y-99076500D01*
G75*
G02*
X213491000Y-98839000I237500J0D01*
G01*
X213991000Y-98839000D01*
G75*
G02*
X214228500Y-99076500I0J-237500D01*
G01*
X214228500Y-99551500D01*
G75*
G02*
X213991000Y-99789000I-237500J0D01*
G01*
X213491000Y-99789000D01*
G75*
G02*
X213253500Y-99551500I0J237500D01*
G01*
G37*
G04 #@! TD.AperFunction*
G04 #@! TA.AperFunction,SMDPad,CuDef*
G36*
G01*
X211452000Y-96503500D02*
X211452000Y-96028500D01*
G75*
G02*
X211689500Y-95791000I237500J0D01*
G01*
X212189500Y-95791000D01*
G75*
G02*
X212427000Y-96028500I0J-237500D01*
G01*
X212427000Y-96503500D01*
G75*
G02*
X212189500Y-96741000I-237500J0D01*
G01*
X211689500Y-96741000D01*
G75*
G02*
X211452000Y-96503500I0J237500D01*
G01*
G37*
G04 #@! TD.AperFunction*
G04 #@! TA.AperFunction,SMDPad,CuDef*
G36*
G01*
X213277000Y-96503500D02*
X213277000Y-96028500D01*
G75*
G02*
X213514500Y-95791000I237500J0D01*
G01*
X214014500Y-95791000D01*
G75*
G02*
X214252000Y-96028500I0J-237500D01*
G01*
X214252000Y-96503500D01*
G75*
G02*
X214014500Y-96741000I-237500J0D01*
G01*
X213514500Y-96741000D01*
G75*
G02*
X213277000Y-96503500I0J237500D01*
G01*
G37*
G04 #@! TD.AperFunction*
G04 #@! TA.AperFunction,SMDPad,CuDef*
G36*
G01*
X212427000Y-97552500D02*
X212427000Y-98027500D01*
G75*
G02*
X212189500Y-98265000I-237500J0D01*
G01*
X211689500Y-98265000D01*
G75*
G02*
X211452000Y-98027500I0J237500D01*
G01*
X211452000Y-97552500D01*
G75*
G02*
X211689500Y-97315000I237500J0D01*
G01*
X212189500Y-97315000D01*
G75*
G02*
X212427000Y-97552500I0J-237500D01*
G01*
G37*
G04 #@! TD.AperFunction*
G04 #@! TA.AperFunction,SMDPad,CuDef*
G36*
G01*
X214252000Y-97552500D02*
X214252000Y-98027500D01*
G75*
G02*
X214014500Y-98265000I-237500J0D01*
G01*
X213514500Y-98265000D01*
G75*
G02*
X213277000Y-98027500I0J237500D01*
G01*
X213277000Y-97552500D01*
G75*
G02*
X213514500Y-97315000I237500J0D01*
G01*
X214014500Y-97315000D01*
G75*
G02*
X214252000Y-97552500I0J-237500D01*
G01*
G37*
G04 #@! TD.AperFunction*
G04 #@! TA.AperFunction,SMDPad,CuDef*
G36*
G01*
X210188000Y-99965500D02*
X210188000Y-100440500D01*
G75*
G02*
X209950500Y-100678000I-237500J0D01*
G01*
X209450500Y-100678000D01*
G75*
G02*
X209213000Y-100440500I0J237500D01*
G01*
X209213000Y-99965500D01*
G75*
G02*
X209450500Y-99728000I237500J0D01*
G01*
X209950500Y-99728000D01*
G75*
G02*
X210188000Y-99965500I0J-237500D01*
G01*
G37*
G04 #@! TD.AperFunction*
G04 #@! TA.AperFunction,SMDPad,CuDef*
G36*
G01*
X208363000Y-99965500D02*
X208363000Y-100440500D01*
G75*
G02*
X208125500Y-100678000I-237500J0D01*
G01*
X207625500Y-100678000D01*
G75*
G02*
X207388000Y-100440500I0J237500D01*
G01*
X207388000Y-99965500D01*
G75*
G02*
X207625500Y-99728000I237500J0D01*
G01*
X208125500Y-99728000D01*
G75*
G02*
X208363000Y-99965500I0J-237500D01*
G01*
G37*
G04 #@! TD.AperFunction*
G04 #@! TA.AperFunction,SMDPad,CuDef*
G36*
G01*
X195663000Y-93996500D02*
X195663000Y-94471500D01*
G75*
G02*
X195425500Y-94709000I-237500J0D01*
G01*
X194925500Y-94709000D01*
G75*
G02*
X194688000Y-94471500I0J237500D01*
G01*
X194688000Y-93996500D01*
G75*
G02*
X194925500Y-93759000I237500J0D01*
G01*
X195425500Y-93759000D01*
G75*
G02*
X195663000Y-93996500I0J-237500D01*
G01*
G37*
G04 #@! TD.AperFunction*
G04 #@! TA.AperFunction,SMDPad,CuDef*
G36*
G01*
X197488000Y-93996500D02*
X197488000Y-94471500D01*
G75*
G02*
X197250500Y-94709000I-237500J0D01*
G01*
X196750500Y-94709000D01*
G75*
G02*
X196513000Y-94471500I0J237500D01*
G01*
X196513000Y-93996500D01*
G75*
G02*
X196750500Y-93759000I237500J0D01*
G01*
X197250500Y-93759000D01*
G75*
G02*
X197488000Y-93996500I0J-237500D01*
G01*
G37*
G04 #@! TD.AperFunction*
G04 #@! TA.AperFunction,SMDPad,CuDef*
G36*
G01*
X196513000Y-96122500D02*
X196513000Y-95647500D01*
G75*
G02*
X196750500Y-95410000I237500J0D01*
G01*
X197250500Y-95410000D01*
G75*
G02*
X197488000Y-95647500I0J-237500D01*
G01*
X197488000Y-96122500D01*
G75*
G02*
X197250500Y-96360000I-237500J0D01*
G01*
X196750500Y-96360000D01*
G75*
G02*
X196513000Y-96122500I0J237500D01*
G01*
G37*
G04 #@! TD.AperFunction*
G04 #@! TA.AperFunction,SMDPad,CuDef*
G36*
G01*
X194688000Y-96122500D02*
X194688000Y-95647500D01*
G75*
G02*
X194925500Y-95410000I237500J0D01*
G01*
X195425500Y-95410000D01*
G75*
G02*
X195663000Y-95647500I0J-237500D01*
G01*
X195663000Y-96122500D01*
G75*
G02*
X195425500Y-96360000I-237500J0D01*
G01*
X194925500Y-96360000D01*
G75*
G02*
X194688000Y-96122500I0J237500D01*
G01*
G37*
G04 #@! TD.AperFunction*
D16*
X200406000Y-100711000D03*
D17*
X211642000Y-100692000D03*
X211642000Y-101192000D03*
X211642000Y-101692000D03*
X211642000Y-102192000D03*
X211642000Y-102692000D03*
X211642000Y-103192000D03*
X211642000Y-103692000D03*
X211642000Y-104192000D03*
X211642000Y-104692000D03*
X211642000Y-105192000D03*
X211642000Y-105692000D03*
X211642000Y-106192000D03*
X211642000Y-106692000D03*
X211642000Y-107192000D03*
X211642000Y-107692000D03*
X211642000Y-108192000D03*
X211642000Y-108692000D03*
X211642000Y-109192000D03*
X211642000Y-109692000D03*
X211642000Y-110192000D03*
X211642000Y-110692000D03*
X211642000Y-111192000D03*
X211642000Y-111692000D03*
X211642000Y-112192000D03*
X211642000Y-112692000D03*
X211642000Y-113192000D03*
X211642000Y-113692000D03*
X211642000Y-114192000D03*
X219142000Y-114192000D03*
X219142000Y-113692000D03*
X219142000Y-113192000D03*
X219142000Y-112692000D03*
X219142000Y-112192000D03*
X219142000Y-111692000D03*
X219142000Y-111192000D03*
X219142000Y-110692000D03*
X219142000Y-110192000D03*
X219142000Y-109692000D03*
X219142000Y-109192000D03*
X219142000Y-108692000D03*
X219142000Y-108192000D03*
X219142000Y-107692000D03*
X219142000Y-107192000D03*
X219142000Y-106692000D03*
X219142000Y-106192000D03*
X219142000Y-105692000D03*
X219142000Y-105192000D03*
X219142000Y-104692000D03*
X219142000Y-104192000D03*
X219142000Y-103692000D03*
X219142000Y-103192000D03*
X219142000Y-102692000D03*
X219142000Y-102192000D03*
X219142000Y-101692000D03*
X219142000Y-101192000D03*
X219142000Y-100692000D03*
D18*
X215392000Y-107442000D03*
G04 #@! TA.AperFunction,SMDPad,CuDef*
G36*
G01*
X193982000Y-104259000D02*
X193982000Y-104109000D01*
G75*
G02*
X194057000Y-104034000I75000J0D01*
G01*
X195382000Y-104034000D01*
G75*
G02*
X195457000Y-104109000I0J-75000D01*
G01*
X195457000Y-104259000D01*
G75*
G02*
X195382000Y-104334000I-75000J0D01*
G01*
X194057000Y-104334000D01*
G75*
G02*
X193982000Y-104259000I0J75000D01*
G01*
G37*
G04 #@! TD.AperFunction*
G04 #@! TA.AperFunction,SMDPad,CuDef*
G36*
G01*
X193982000Y-104759000D02*
X193982000Y-104609000D01*
G75*
G02*
X194057000Y-104534000I75000J0D01*
G01*
X195382000Y-104534000D01*
G75*
G02*
X195457000Y-104609000I0J-75000D01*
G01*
X195457000Y-104759000D01*
G75*
G02*
X195382000Y-104834000I-75000J0D01*
G01*
X194057000Y-104834000D01*
G75*
G02*
X193982000Y-104759000I0J75000D01*
G01*
G37*
G04 #@! TD.AperFunction*
G04 #@! TA.AperFunction,SMDPad,CuDef*
G36*
G01*
X193982000Y-105259000D02*
X193982000Y-105109000D01*
G75*
G02*
X194057000Y-105034000I75000J0D01*
G01*
X195382000Y-105034000D01*
G75*
G02*
X195457000Y-105109000I0J-75000D01*
G01*
X195457000Y-105259000D01*
G75*
G02*
X195382000Y-105334000I-75000J0D01*
G01*
X194057000Y-105334000D01*
G75*
G02*
X193982000Y-105259000I0J75000D01*
G01*
G37*
G04 #@! TD.AperFunction*
G04 #@! TA.AperFunction,SMDPad,CuDef*
G36*
G01*
X193982000Y-105759000D02*
X193982000Y-105609000D01*
G75*
G02*
X194057000Y-105534000I75000J0D01*
G01*
X195382000Y-105534000D01*
G75*
G02*
X195457000Y-105609000I0J-75000D01*
G01*
X195457000Y-105759000D01*
G75*
G02*
X195382000Y-105834000I-75000J0D01*
G01*
X194057000Y-105834000D01*
G75*
G02*
X193982000Y-105759000I0J75000D01*
G01*
G37*
G04 #@! TD.AperFunction*
G04 #@! TA.AperFunction,SMDPad,CuDef*
G36*
G01*
X193982000Y-106259000D02*
X193982000Y-106109000D01*
G75*
G02*
X194057000Y-106034000I75000J0D01*
G01*
X195382000Y-106034000D01*
G75*
G02*
X195457000Y-106109000I0J-75000D01*
G01*
X195457000Y-106259000D01*
G75*
G02*
X195382000Y-106334000I-75000J0D01*
G01*
X194057000Y-106334000D01*
G75*
G02*
X193982000Y-106259000I0J75000D01*
G01*
G37*
G04 #@! TD.AperFunction*
G04 #@! TA.AperFunction,SMDPad,CuDef*
G36*
G01*
X193982000Y-106759000D02*
X193982000Y-106609000D01*
G75*
G02*
X194057000Y-106534000I75000J0D01*
G01*
X195382000Y-106534000D01*
G75*
G02*
X195457000Y-106609000I0J-75000D01*
G01*
X195457000Y-106759000D01*
G75*
G02*
X195382000Y-106834000I-75000J0D01*
G01*
X194057000Y-106834000D01*
G75*
G02*
X193982000Y-106759000I0J75000D01*
G01*
G37*
G04 #@! TD.AperFunction*
G04 #@! TA.AperFunction,SMDPad,CuDef*
G36*
G01*
X193982000Y-107259000D02*
X193982000Y-107109000D01*
G75*
G02*
X194057000Y-107034000I75000J0D01*
G01*
X195382000Y-107034000D01*
G75*
G02*
X195457000Y-107109000I0J-75000D01*
G01*
X195457000Y-107259000D01*
G75*
G02*
X195382000Y-107334000I-75000J0D01*
G01*
X194057000Y-107334000D01*
G75*
G02*
X193982000Y-107259000I0J75000D01*
G01*
G37*
G04 #@! TD.AperFunction*
G04 #@! TA.AperFunction,SMDPad,CuDef*
G36*
G01*
X193982000Y-107759000D02*
X193982000Y-107609000D01*
G75*
G02*
X194057000Y-107534000I75000J0D01*
G01*
X195382000Y-107534000D01*
G75*
G02*
X195457000Y-107609000I0J-75000D01*
G01*
X195457000Y-107759000D01*
G75*
G02*
X195382000Y-107834000I-75000J0D01*
G01*
X194057000Y-107834000D01*
G75*
G02*
X193982000Y-107759000I0J75000D01*
G01*
G37*
G04 #@! TD.AperFunction*
G04 #@! TA.AperFunction,SMDPad,CuDef*
G36*
G01*
X193982000Y-108259000D02*
X193982000Y-108109000D01*
G75*
G02*
X194057000Y-108034000I75000J0D01*
G01*
X195382000Y-108034000D01*
G75*
G02*
X195457000Y-108109000I0J-75000D01*
G01*
X195457000Y-108259000D01*
G75*
G02*
X195382000Y-108334000I-75000J0D01*
G01*
X194057000Y-108334000D01*
G75*
G02*
X193982000Y-108259000I0J75000D01*
G01*
G37*
G04 #@! TD.AperFunction*
G04 #@! TA.AperFunction,SMDPad,CuDef*
G36*
G01*
X193982000Y-108759000D02*
X193982000Y-108609000D01*
G75*
G02*
X194057000Y-108534000I75000J0D01*
G01*
X195382000Y-108534000D01*
G75*
G02*
X195457000Y-108609000I0J-75000D01*
G01*
X195457000Y-108759000D01*
G75*
G02*
X195382000Y-108834000I-75000J0D01*
G01*
X194057000Y-108834000D01*
G75*
G02*
X193982000Y-108759000I0J75000D01*
G01*
G37*
G04 #@! TD.AperFunction*
G04 #@! TA.AperFunction,SMDPad,CuDef*
G36*
G01*
X193982000Y-109259000D02*
X193982000Y-109109000D01*
G75*
G02*
X194057000Y-109034000I75000J0D01*
G01*
X195382000Y-109034000D01*
G75*
G02*
X195457000Y-109109000I0J-75000D01*
G01*
X195457000Y-109259000D01*
G75*
G02*
X195382000Y-109334000I-75000J0D01*
G01*
X194057000Y-109334000D01*
G75*
G02*
X193982000Y-109259000I0J75000D01*
G01*
G37*
G04 #@! TD.AperFunction*
G04 #@! TA.AperFunction,SMDPad,CuDef*
G36*
G01*
X193982000Y-109759000D02*
X193982000Y-109609000D01*
G75*
G02*
X194057000Y-109534000I75000J0D01*
G01*
X195382000Y-109534000D01*
G75*
G02*
X195457000Y-109609000I0J-75000D01*
G01*
X195457000Y-109759000D01*
G75*
G02*
X195382000Y-109834000I-75000J0D01*
G01*
X194057000Y-109834000D01*
G75*
G02*
X193982000Y-109759000I0J75000D01*
G01*
G37*
G04 #@! TD.AperFunction*
G04 #@! TA.AperFunction,SMDPad,CuDef*
G36*
G01*
X195982000Y-111759000D02*
X195982000Y-110434000D01*
G75*
G02*
X196057000Y-110359000I75000J0D01*
G01*
X196207000Y-110359000D01*
G75*
G02*
X196282000Y-110434000I0J-75000D01*
G01*
X196282000Y-111759000D01*
G75*
G02*
X196207000Y-111834000I-75000J0D01*
G01*
X196057000Y-111834000D01*
G75*
G02*
X195982000Y-111759000I0J75000D01*
G01*
G37*
G04 #@! TD.AperFunction*
G04 #@! TA.AperFunction,SMDPad,CuDef*
G36*
G01*
X196482000Y-111759000D02*
X196482000Y-110434000D01*
G75*
G02*
X196557000Y-110359000I75000J0D01*
G01*
X196707000Y-110359000D01*
G75*
G02*
X196782000Y-110434000I0J-75000D01*
G01*
X196782000Y-111759000D01*
G75*
G02*
X196707000Y-111834000I-75000J0D01*
G01*
X196557000Y-111834000D01*
G75*
G02*
X196482000Y-111759000I0J75000D01*
G01*
G37*
G04 #@! TD.AperFunction*
G04 #@! TA.AperFunction,SMDPad,CuDef*
G36*
G01*
X196982000Y-111759000D02*
X196982000Y-110434000D01*
G75*
G02*
X197057000Y-110359000I75000J0D01*
G01*
X197207000Y-110359000D01*
G75*
G02*
X197282000Y-110434000I0J-75000D01*
G01*
X197282000Y-111759000D01*
G75*
G02*
X197207000Y-111834000I-75000J0D01*
G01*
X197057000Y-111834000D01*
G75*
G02*
X196982000Y-111759000I0J75000D01*
G01*
G37*
G04 #@! TD.AperFunction*
G04 #@! TA.AperFunction,SMDPad,CuDef*
G36*
G01*
X197482000Y-111759000D02*
X197482000Y-110434000D01*
G75*
G02*
X197557000Y-110359000I75000J0D01*
G01*
X197707000Y-110359000D01*
G75*
G02*
X197782000Y-110434000I0J-75000D01*
G01*
X197782000Y-111759000D01*
G75*
G02*
X197707000Y-111834000I-75000J0D01*
G01*
X197557000Y-111834000D01*
G75*
G02*
X197482000Y-111759000I0J75000D01*
G01*
G37*
G04 #@! TD.AperFunction*
G04 #@! TA.AperFunction,SMDPad,CuDef*
G36*
G01*
X197982000Y-111759000D02*
X197982000Y-110434000D01*
G75*
G02*
X198057000Y-110359000I75000J0D01*
G01*
X198207000Y-110359000D01*
G75*
G02*
X198282000Y-110434000I0J-75000D01*
G01*
X198282000Y-111759000D01*
G75*
G02*
X198207000Y-111834000I-75000J0D01*
G01*
X198057000Y-111834000D01*
G75*
G02*
X197982000Y-111759000I0J75000D01*
G01*
G37*
G04 #@! TD.AperFunction*
G04 #@! TA.AperFunction,SMDPad,CuDef*
G36*
G01*
X198482000Y-111759000D02*
X198482000Y-110434000D01*
G75*
G02*
X198557000Y-110359000I75000J0D01*
G01*
X198707000Y-110359000D01*
G75*
G02*
X198782000Y-110434000I0J-75000D01*
G01*
X198782000Y-111759000D01*
G75*
G02*
X198707000Y-111834000I-75000J0D01*
G01*
X198557000Y-111834000D01*
G75*
G02*
X198482000Y-111759000I0J75000D01*
G01*
G37*
G04 #@! TD.AperFunction*
G04 #@! TA.AperFunction,SMDPad,CuDef*
G36*
G01*
X198982000Y-111759000D02*
X198982000Y-110434000D01*
G75*
G02*
X199057000Y-110359000I75000J0D01*
G01*
X199207000Y-110359000D01*
G75*
G02*
X199282000Y-110434000I0J-75000D01*
G01*
X199282000Y-111759000D01*
G75*
G02*
X199207000Y-111834000I-75000J0D01*
G01*
X199057000Y-111834000D01*
G75*
G02*
X198982000Y-111759000I0J75000D01*
G01*
G37*
G04 #@! TD.AperFunction*
G04 #@! TA.AperFunction,SMDPad,CuDef*
G36*
G01*
X199482000Y-111759000D02*
X199482000Y-110434000D01*
G75*
G02*
X199557000Y-110359000I75000J0D01*
G01*
X199707000Y-110359000D01*
G75*
G02*
X199782000Y-110434000I0J-75000D01*
G01*
X199782000Y-111759000D01*
G75*
G02*
X199707000Y-111834000I-75000J0D01*
G01*
X199557000Y-111834000D01*
G75*
G02*
X199482000Y-111759000I0J75000D01*
G01*
G37*
G04 #@! TD.AperFunction*
G04 #@! TA.AperFunction,SMDPad,CuDef*
G36*
G01*
X199982000Y-111759000D02*
X199982000Y-110434000D01*
G75*
G02*
X200057000Y-110359000I75000J0D01*
G01*
X200207000Y-110359000D01*
G75*
G02*
X200282000Y-110434000I0J-75000D01*
G01*
X200282000Y-111759000D01*
G75*
G02*
X200207000Y-111834000I-75000J0D01*
G01*
X200057000Y-111834000D01*
G75*
G02*
X199982000Y-111759000I0J75000D01*
G01*
G37*
G04 #@! TD.AperFunction*
G04 #@! TA.AperFunction,SMDPad,CuDef*
G36*
G01*
X200482000Y-111759000D02*
X200482000Y-110434000D01*
G75*
G02*
X200557000Y-110359000I75000J0D01*
G01*
X200707000Y-110359000D01*
G75*
G02*
X200782000Y-110434000I0J-75000D01*
G01*
X200782000Y-111759000D01*
G75*
G02*
X200707000Y-111834000I-75000J0D01*
G01*
X200557000Y-111834000D01*
G75*
G02*
X200482000Y-111759000I0J75000D01*
G01*
G37*
G04 #@! TD.AperFunction*
G04 #@! TA.AperFunction,SMDPad,CuDef*
G36*
G01*
X200982000Y-111759000D02*
X200982000Y-110434000D01*
G75*
G02*
X201057000Y-110359000I75000J0D01*
G01*
X201207000Y-110359000D01*
G75*
G02*
X201282000Y-110434000I0J-75000D01*
G01*
X201282000Y-111759000D01*
G75*
G02*
X201207000Y-111834000I-75000J0D01*
G01*
X201057000Y-111834000D01*
G75*
G02*
X200982000Y-111759000I0J75000D01*
G01*
G37*
G04 #@! TD.AperFunction*
G04 #@! TA.AperFunction,SMDPad,CuDef*
G36*
G01*
X201482000Y-111759000D02*
X201482000Y-110434000D01*
G75*
G02*
X201557000Y-110359000I75000J0D01*
G01*
X201707000Y-110359000D01*
G75*
G02*
X201782000Y-110434000I0J-75000D01*
G01*
X201782000Y-111759000D01*
G75*
G02*
X201707000Y-111834000I-75000J0D01*
G01*
X201557000Y-111834000D01*
G75*
G02*
X201482000Y-111759000I0J75000D01*
G01*
G37*
G04 #@! TD.AperFunction*
G04 #@! TA.AperFunction,SMDPad,CuDef*
G36*
G01*
X202307000Y-109759000D02*
X202307000Y-109609000D01*
G75*
G02*
X202382000Y-109534000I75000J0D01*
G01*
X203707000Y-109534000D01*
G75*
G02*
X203782000Y-109609000I0J-75000D01*
G01*
X203782000Y-109759000D01*
G75*
G02*
X203707000Y-109834000I-75000J0D01*
G01*
X202382000Y-109834000D01*
G75*
G02*
X202307000Y-109759000I0J75000D01*
G01*
G37*
G04 #@! TD.AperFunction*
G04 #@! TA.AperFunction,SMDPad,CuDef*
G36*
G01*
X202307000Y-109259000D02*
X202307000Y-109109000D01*
G75*
G02*
X202382000Y-109034000I75000J0D01*
G01*
X203707000Y-109034000D01*
G75*
G02*
X203782000Y-109109000I0J-75000D01*
G01*
X203782000Y-109259000D01*
G75*
G02*
X203707000Y-109334000I-75000J0D01*
G01*
X202382000Y-109334000D01*
G75*
G02*
X202307000Y-109259000I0J75000D01*
G01*
G37*
G04 #@! TD.AperFunction*
G04 #@! TA.AperFunction,SMDPad,CuDef*
G36*
G01*
X202307000Y-108759000D02*
X202307000Y-108609000D01*
G75*
G02*
X202382000Y-108534000I75000J0D01*
G01*
X203707000Y-108534000D01*
G75*
G02*
X203782000Y-108609000I0J-75000D01*
G01*
X203782000Y-108759000D01*
G75*
G02*
X203707000Y-108834000I-75000J0D01*
G01*
X202382000Y-108834000D01*
G75*
G02*
X202307000Y-108759000I0J75000D01*
G01*
G37*
G04 #@! TD.AperFunction*
G04 #@! TA.AperFunction,SMDPad,CuDef*
G36*
G01*
X202307000Y-108259000D02*
X202307000Y-108109000D01*
G75*
G02*
X202382000Y-108034000I75000J0D01*
G01*
X203707000Y-108034000D01*
G75*
G02*
X203782000Y-108109000I0J-75000D01*
G01*
X203782000Y-108259000D01*
G75*
G02*
X203707000Y-108334000I-75000J0D01*
G01*
X202382000Y-108334000D01*
G75*
G02*
X202307000Y-108259000I0J75000D01*
G01*
G37*
G04 #@! TD.AperFunction*
G04 #@! TA.AperFunction,SMDPad,CuDef*
G36*
G01*
X202307000Y-107759000D02*
X202307000Y-107609000D01*
G75*
G02*
X202382000Y-107534000I75000J0D01*
G01*
X203707000Y-107534000D01*
G75*
G02*
X203782000Y-107609000I0J-75000D01*
G01*
X203782000Y-107759000D01*
G75*
G02*
X203707000Y-107834000I-75000J0D01*
G01*
X202382000Y-107834000D01*
G75*
G02*
X202307000Y-107759000I0J75000D01*
G01*
G37*
G04 #@! TD.AperFunction*
G04 #@! TA.AperFunction,SMDPad,CuDef*
G36*
G01*
X202307000Y-107259000D02*
X202307000Y-107109000D01*
G75*
G02*
X202382000Y-107034000I75000J0D01*
G01*
X203707000Y-107034000D01*
G75*
G02*
X203782000Y-107109000I0J-75000D01*
G01*
X203782000Y-107259000D01*
G75*
G02*
X203707000Y-107334000I-75000J0D01*
G01*
X202382000Y-107334000D01*
G75*
G02*
X202307000Y-107259000I0J75000D01*
G01*
G37*
G04 #@! TD.AperFunction*
G04 #@! TA.AperFunction,SMDPad,CuDef*
G36*
G01*
X202307000Y-106759000D02*
X202307000Y-106609000D01*
G75*
G02*
X202382000Y-106534000I75000J0D01*
G01*
X203707000Y-106534000D01*
G75*
G02*
X203782000Y-106609000I0J-75000D01*
G01*
X203782000Y-106759000D01*
G75*
G02*
X203707000Y-106834000I-75000J0D01*
G01*
X202382000Y-106834000D01*
G75*
G02*
X202307000Y-106759000I0J75000D01*
G01*
G37*
G04 #@! TD.AperFunction*
G04 #@! TA.AperFunction,SMDPad,CuDef*
G36*
G01*
X202307000Y-106259000D02*
X202307000Y-106109000D01*
G75*
G02*
X202382000Y-106034000I75000J0D01*
G01*
X203707000Y-106034000D01*
G75*
G02*
X203782000Y-106109000I0J-75000D01*
G01*
X203782000Y-106259000D01*
G75*
G02*
X203707000Y-106334000I-75000J0D01*
G01*
X202382000Y-106334000D01*
G75*
G02*
X202307000Y-106259000I0J75000D01*
G01*
G37*
G04 #@! TD.AperFunction*
G04 #@! TA.AperFunction,SMDPad,CuDef*
G36*
G01*
X202307000Y-105759000D02*
X202307000Y-105609000D01*
G75*
G02*
X202382000Y-105534000I75000J0D01*
G01*
X203707000Y-105534000D01*
G75*
G02*
X203782000Y-105609000I0J-75000D01*
G01*
X203782000Y-105759000D01*
G75*
G02*
X203707000Y-105834000I-75000J0D01*
G01*
X202382000Y-105834000D01*
G75*
G02*
X202307000Y-105759000I0J75000D01*
G01*
G37*
G04 #@! TD.AperFunction*
G04 #@! TA.AperFunction,SMDPad,CuDef*
G36*
G01*
X202307000Y-105259000D02*
X202307000Y-105109000D01*
G75*
G02*
X202382000Y-105034000I75000J0D01*
G01*
X203707000Y-105034000D01*
G75*
G02*
X203782000Y-105109000I0J-75000D01*
G01*
X203782000Y-105259000D01*
G75*
G02*
X203707000Y-105334000I-75000J0D01*
G01*
X202382000Y-105334000D01*
G75*
G02*
X202307000Y-105259000I0J75000D01*
G01*
G37*
G04 #@! TD.AperFunction*
G04 #@! TA.AperFunction,SMDPad,CuDef*
G36*
G01*
X202307000Y-104759000D02*
X202307000Y-104609000D01*
G75*
G02*
X202382000Y-104534000I75000J0D01*
G01*
X203707000Y-104534000D01*
G75*
G02*
X203782000Y-104609000I0J-75000D01*
G01*
X203782000Y-104759000D01*
G75*
G02*
X203707000Y-104834000I-75000J0D01*
G01*
X202382000Y-104834000D01*
G75*
G02*
X202307000Y-104759000I0J75000D01*
G01*
G37*
G04 #@! TD.AperFunction*
G04 #@! TA.AperFunction,SMDPad,CuDef*
G36*
G01*
X202307000Y-104259000D02*
X202307000Y-104109000D01*
G75*
G02*
X202382000Y-104034000I75000J0D01*
G01*
X203707000Y-104034000D01*
G75*
G02*
X203782000Y-104109000I0J-75000D01*
G01*
X203782000Y-104259000D01*
G75*
G02*
X203707000Y-104334000I-75000J0D01*
G01*
X202382000Y-104334000D01*
G75*
G02*
X202307000Y-104259000I0J75000D01*
G01*
G37*
G04 #@! TD.AperFunction*
G04 #@! TA.AperFunction,SMDPad,CuDef*
G36*
G01*
X201482000Y-103434000D02*
X201482000Y-102109000D01*
G75*
G02*
X201557000Y-102034000I75000J0D01*
G01*
X201707000Y-102034000D01*
G75*
G02*
X201782000Y-102109000I0J-75000D01*
G01*
X201782000Y-103434000D01*
G75*
G02*
X201707000Y-103509000I-75000J0D01*
G01*
X201557000Y-103509000D01*
G75*
G02*
X201482000Y-103434000I0J75000D01*
G01*
G37*
G04 #@! TD.AperFunction*
G04 #@! TA.AperFunction,SMDPad,CuDef*
G36*
G01*
X200982000Y-103434000D02*
X200982000Y-102109000D01*
G75*
G02*
X201057000Y-102034000I75000J0D01*
G01*
X201207000Y-102034000D01*
G75*
G02*
X201282000Y-102109000I0J-75000D01*
G01*
X201282000Y-103434000D01*
G75*
G02*
X201207000Y-103509000I-75000J0D01*
G01*
X201057000Y-103509000D01*
G75*
G02*
X200982000Y-103434000I0J75000D01*
G01*
G37*
G04 #@! TD.AperFunction*
G04 #@! TA.AperFunction,SMDPad,CuDef*
G36*
G01*
X200482000Y-103434000D02*
X200482000Y-102109000D01*
G75*
G02*
X200557000Y-102034000I75000J0D01*
G01*
X200707000Y-102034000D01*
G75*
G02*
X200782000Y-102109000I0J-75000D01*
G01*
X200782000Y-103434000D01*
G75*
G02*
X200707000Y-103509000I-75000J0D01*
G01*
X200557000Y-103509000D01*
G75*
G02*
X200482000Y-103434000I0J75000D01*
G01*
G37*
G04 #@! TD.AperFunction*
G04 #@! TA.AperFunction,SMDPad,CuDef*
G36*
G01*
X199982000Y-103434000D02*
X199982000Y-102109000D01*
G75*
G02*
X200057000Y-102034000I75000J0D01*
G01*
X200207000Y-102034000D01*
G75*
G02*
X200282000Y-102109000I0J-75000D01*
G01*
X200282000Y-103434000D01*
G75*
G02*
X200207000Y-103509000I-75000J0D01*
G01*
X200057000Y-103509000D01*
G75*
G02*
X199982000Y-103434000I0J75000D01*
G01*
G37*
G04 #@! TD.AperFunction*
G04 #@! TA.AperFunction,SMDPad,CuDef*
G36*
G01*
X199482000Y-103434000D02*
X199482000Y-102109000D01*
G75*
G02*
X199557000Y-102034000I75000J0D01*
G01*
X199707000Y-102034000D01*
G75*
G02*
X199782000Y-102109000I0J-75000D01*
G01*
X199782000Y-103434000D01*
G75*
G02*
X199707000Y-103509000I-75000J0D01*
G01*
X199557000Y-103509000D01*
G75*
G02*
X199482000Y-103434000I0J75000D01*
G01*
G37*
G04 #@! TD.AperFunction*
G04 #@! TA.AperFunction,SMDPad,CuDef*
G36*
G01*
X198982000Y-103434000D02*
X198982000Y-102109000D01*
G75*
G02*
X199057000Y-102034000I75000J0D01*
G01*
X199207000Y-102034000D01*
G75*
G02*
X199282000Y-102109000I0J-75000D01*
G01*
X199282000Y-103434000D01*
G75*
G02*
X199207000Y-103509000I-75000J0D01*
G01*
X199057000Y-103509000D01*
G75*
G02*
X198982000Y-103434000I0J75000D01*
G01*
G37*
G04 #@! TD.AperFunction*
G04 #@! TA.AperFunction,SMDPad,CuDef*
G36*
G01*
X198482000Y-103434000D02*
X198482000Y-102109000D01*
G75*
G02*
X198557000Y-102034000I75000J0D01*
G01*
X198707000Y-102034000D01*
G75*
G02*
X198782000Y-102109000I0J-75000D01*
G01*
X198782000Y-103434000D01*
G75*
G02*
X198707000Y-103509000I-75000J0D01*
G01*
X198557000Y-103509000D01*
G75*
G02*
X198482000Y-103434000I0J75000D01*
G01*
G37*
G04 #@! TD.AperFunction*
G04 #@! TA.AperFunction,SMDPad,CuDef*
G36*
G01*
X197982000Y-103434000D02*
X197982000Y-102109000D01*
G75*
G02*
X198057000Y-102034000I75000J0D01*
G01*
X198207000Y-102034000D01*
G75*
G02*
X198282000Y-102109000I0J-75000D01*
G01*
X198282000Y-103434000D01*
G75*
G02*
X198207000Y-103509000I-75000J0D01*
G01*
X198057000Y-103509000D01*
G75*
G02*
X197982000Y-103434000I0J75000D01*
G01*
G37*
G04 #@! TD.AperFunction*
G04 #@! TA.AperFunction,SMDPad,CuDef*
G36*
G01*
X197482000Y-103434000D02*
X197482000Y-102109000D01*
G75*
G02*
X197557000Y-102034000I75000J0D01*
G01*
X197707000Y-102034000D01*
G75*
G02*
X197782000Y-102109000I0J-75000D01*
G01*
X197782000Y-103434000D01*
G75*
G02*
X197707000Y-103509000I-75000J0D01*
G01*
X197557000Y-103509000D01*
G75*
G02*
X197482000Y-103434000I0J75000D01*
G01*
G37*
G04 #@! TD.AperFunction*
G04 #@! TA.AperFunction,SMDPad,CuDef*
G36*
G01*
X196982000Y-103434000D02*
X196982000Y-102109000D01*
G75*
G02*
X197057000Y-102034000I75000J0D01*
G01*
X197207000Y-102034000D01*
G75*
G02*
X197282000Y-102109000I0J-75000D01*
G01*
X197282000Y-103434000D01*
G75*
G02*
X197207000Y-103509000I-75000J0D01*
G01*
X197057000Y-103509000D01*
G75*
G02*
X196982000Y-103434000I0J75000D01*
G01*
G37*
G04 #@! TD.AperFunction*
G04 #@! TA.AperFunction,SMDPad,CuDef*
G36*
G01*
X196482000Y-103434000D02*
X196482000Y-102109000D01*
G75*
G02*
X196557000Y-102034000I75000J0D01*
G01*
X196707000Y-102034000D01*
G75*
G02*
X196782000Y-102109000I0J-75000D01*
G01*
X196782000Y-103434000D01*
G75*
G02*
X196707000Y-103509000I-75000J0D01*
G01*
X196557000Y-103509000D01*
G75*
G02*
X196482000Y-103434000I0J75000D01*
G01*
G37*
G04 #@! TD.AperFunction*
G04 #@! TA.AperFunction,SMDPad,CuDef*
G36*
G01*
X195982000Y-103434000D02*
X195982000Y-102109000D01*
G75*
G02*
X196057000Y-102034000I75000J0D01*
G01*
X196207000Y-102034000D01*
G75*
G02*
X196282000Y-102109000I0J-75000D01*
G01*
X196282000Y-103434000D01*
G75*
G02*
X196207000Y-103509000I-75000J0D01*
G01*
X196057000Y-103509000D01*
G75*
G02*
X195982000Y-103434000I0J75000D01*
G01*
G37*
G04 #@! TD.AperFunction*
G04 #@! TA.AperFunction,SMDPad,CuDef*
G36*
G01*
X226203500Y-113154000D02*
X226678500Y-113154000D01*
G75*
G02*
X226916000Y-113391500I0J-237500D01*
G01*
X226916000Y-113991500D01*
G75*
G02*
X226678500Y-114229000I-237500J0D01*
G01*
X226203500Y-114229000D01*
G75*
G02*
X225966000Y-113991500I0J237500D01*
G01*
X225966000Y-113391500D01*
G75*
G02*
X226203500Y-113154000I237500J0D01*
G01*
G37*
G04 #@! TD.AperFunction*
G04 #@! TA.AperFunction,SMDPad,CuDef*
G36*
G01*
X226203500Y-114879000D02*
X226678500Y-114879000D01*
G75*
G02*
X226916000Y-115116500I0J-237500D01*
G01*
X226916000Y-115716500D01*
G75*
G02*
X226678500Y-115954000I-237500J0D01*
G01*
X226203500Y-115954000D01*
G75*
G02*
X225966000Y-115716500I0J237500D01*
G01*
X225966000Y-115116500D01*
G75*
G02*
X226203500Y-114879000I237500J0D01*
G01*
G37*
G04 #@! TD.AperFunction*
D19*
X247332500Y-93535500D03*
X247459500Y-102489000D03*
X246126000Y-102489000D03*
X245872000Y-93535500D03*
X234061000Y-109728000D03*
X229235000Y-104775000D03*
X212979000Y-105029000D03*
X213487000Y-114427000D03*
X215646000Y-115189000D03*
X215646000Y-115951000D03*
X230251000Y-117602000D03*
X228727000Y-117602000D03*
X230251000Y-107950000D03*
X228600000Y-107950000D03*
X193066500Y-102362000D03*
X204496500Y-112522000D03*
X211709000Y-92075000D03*
X190881000Y-92075000D03*
X203962000Y-92075000D03*
X206629000Y-100838000D03*
X227719250Y-96765750D03*
X239268000Y-109728000D03*
X235458000Y-105156000D03*
X207772000Y-119888000D03*
X222123000Y-119888000D03*
X251333000Y-119888000D03*
X252857000Y-108331000D03*
X252857000Y-99695000D03*
X250825000Y-92075000D03*
X229489000Y-92075000D03*
D20*
X201168000Y-94678500D03*
D19*
X198220500Y-106680000D03*
X206565500Y-106997500D03*
X217805000Y-106680000D03*
X228727000Y-111760000D03*
X230251000Y-111760000D03*
X228600000Y-101854000D03*
X230251000Y-101854000D03*
X225180010Y-108975010D03*
X218821000Y-116078000D03*
X218821000Y-115189000D03*
X246761000Y-105448500D03*
X245833500Y-105448500D03*
X246976500Y-113703500D03*
X246087500Y-113703500D03*
X246634000Y-96685500D03*
X245833500Y-96685500D03*
D20*
X220980000Y-101954500D03*
D19*
X215265000Y-111252000D03*
X215265000Y-113157000D03*
X217805000Y-105791000D03*
X221551500Y-108394500D03*
X221501250Y-110857750D03*
X217170000Y-102870000D03*
X217170000Y-103759000D03*
X217678000Y-101600000D03*
X212979000Y-106680000D03*
X211836000Y-96266000D03*
X191389000Y-101092000D03*
X192786000Y-103378000D03*
D20*
X200218000Y-93533000D03*
D19*
X195453000Y-100711000D03*
X195453000Y-99885500D03*
X194945000Y-113892500D03*
X206502000Y-98361500D03*
X208216500Y-117475000D03*
X223710500Y-106426000D03*
D20*
X209232500Y-111379000D03*
X194437000Y-99060000D03*
X194437000Y-99949000D03*
D19*
X196469000Y-106553000D03*
X196469000Y-104902000D03*
X196469000Y-105791000D03*
X212979000Y-107823000D03*
D20*
X211899500Y-94488000D03*
D19*
X203200000Y-100584000D03*
X201930000Y-100457000D03*
X222885000Y-115570000D03*
X217805000Y-104648000D03*
X217805000Y-107696000D03*
X217805000Y-110236000D03*
X200406000Y-105537000D03*
X201549000Y-104013000D03*
X201676000Y-107696000D03*
X212979000Y-108966000D03*
X201676000Y-108585000D03*
X212979000Y-110236000D03*
X199136000Y-108966000D03*
X200406000Y-108966000D03*
X196596000Y-108966000D03*
X197866000Y-108966000D03*
X226441000Y-111760000D03*
X226441000Y-117602000D03*
X221742000Y-114046000D03*
X221742000Y-115062000D03*
D21*
X233804000Y-98546000D02*
X230765000Y-98546000D01*
X229241000Y-98546000D02*
X229241000Y-98546000D01*
D22*
X227711000Y-96757500D02*
X227719250Y-96765750D01*
X249426000Y-115802500D02*
X249555000Y-115673500D01*
X247777000Y-115802500D02*
X249426000Y-115802500D01*
X249176000Y-99165500D02*
X249555000Y-99544500D01*
X247777000Y-99165500D02*
X249176000Y-99165500D01*
X227727500Y-96774000D02*
X226695000Y-96774000D01*
X225909500Y-97559500D02*
X225909500Y-99060000D01*
X226695000Y-96774000D02*
X225909500Y-97559500D01*
X227727500Y-97032500D02*
X228669500Y-97974500D01*
X227727500Y-96774000D02*
X227727500Y-97032500D01*
X228669500Y-97974500D02*
X229241000Y-98546000D01*
X249176000Y-107547500D02*
X249555000Y-107926500D01*
X247777000Y-107547500D02*
X249176000Y-107547500D01*
D21*
X230765000Y-98546000D02*
X229241000Y-98546000D01*
D23*
X217577500Y-115215500D02*
X217577500Y-115570000D01*
X216154000Y-115951000D02*
X217196500Y-115951000D01*
X217196500Y-115951000D02*
X217577500Y-115570000D01*
X215646000Y-115951000D02*
X217196500Y-115951000D01*
X213252000Y-114192000D02*
X213487000Y-114427000D01*
X211642000Y-114192000D02*
X213252000Y-114192000D01*
X204496500Y-112522000D02*
X204496500Y-112522000D01*
X193066500Y-102362000D02*
X193066500Y-102362000D01*
X204496500Y-112522000D02*
X204496500Y-114046000D01*
D24*
X211050500Y-98679000D02*
X211939500Y-97790000D01*
X209650500Y-98679000D02*
X211050500Y-98679000D01*
X212217000Y-97790000D02*
X213741000Y-99314000D01*
X211939500Y-97790000D02*
X212217000Y-97790000D01*
X208753510Y-100898990D02*
X207925500Y-101727000D01*
X208753510Y-99774348D02*
X208753510Y-100898990D01*
X208853510Y-99674348D02*
X208753510Y-99774348D01*
X208853510Y-98867490D02*
X208853510Y-99674348D01*
X209042000Y-98679000D02*
X208853510Y-98867490D01*
X209650500Y-98679000D02*
X209042000Y-98679000D01*
D22*
X227719250Y-96765750D02*
X227727500Y-96774000D01*
D23*
X192898000Y-102193500D02*
X193066500Y-102362000D01*
X192898000Y-100822000D02*
X192898000Y-102193500D01*
X190881000Y-92075000D02*
X195072000Y-92075000D01*
X195072000Y-92075000D02*
X196024500Y-93027500D01*
X196024500Y-95036000D02*
X195175500Y-95885000D01*
X196024500Y-93027500D02*
X196024500Y-95036000D01*
D24*
X196053510Y-95006990D02*
X196053510Y-93691510D01*
X195175500Y-95885000D02*
X196053510Y-95006990D01*
X194437000Y-92075000D02*
X190881000Y-92075000D01*
X196053510Y-93691510D02*
X194437000Y-92075000D01*
D23*
X197458500Y-107442000D02*
X198220500Y-106680000D01*
X196359552Y-107442000D02*
X197458500Y-107442000D01*
X196101552Y-107184000D02*
X196359552Y-107442000D01*
X194719500Y-107184000D02*
X196101552Y-107184000D01*
X219142000Y-111692000D02*
X217365000Y-111692000D01*
X217365000Y-111692000D02*
X217233500Y-111823500D01*
D22*
X232023000Y-116580000D02*
X233931000Y-116580000D01*
X231267000Y-115824000D02*
X232023000Y-116580000D01*
D23*
X219130000Y-106680000D02*
X219142000Y-106692000D01*
X217805000Y-106680000D02*
X219130000Y-106680000D01*
D22*
X228727000Y-111760000D02*
X230251000Y-111760000D01*
X230251000Y-111760000D02*
X231267000Y-112776000D01*
X231267000Y-112776000D02*
X231267000Y-115824000D01*
D23*
X220795100Y-109581020D02*
X222355610Y-109581020D01*
X220406080Y-109192000D02*
X220795100Y-109581020D01*
X219142000Y-109192000D02*
X220406080Y-109192000D01*
D22*
X228600000Y-101854000D02*
X230251000Y-101854000D01*
X230251000Y-101854000D02*
X231013000Y-102616000D01*
X233674000Y-107436000D02*
X231013000Y-104775000D01*
X233931000Y-107436000D02*
X233674000Y-107436000D01*
X231013000Y-102616000D02*
X231013000Y-104775000D01*
D23*
X223246020Y-109581020D02*
X223958901Y-109581019D01*
X222355610Y-109581020D02*
X223246020Y-109581020D01*
X225180010Y-108975010D02*
X224564910Y-108975010D01*
X223958900Y-109581020D02*
X223627020Y-109581020D01*
X223627020Y-109581020D02*
X223774000Y-109581020D01*
X224564910Y-108975010D02*
X223958900Y-109581020D01*
X223246020Y-109581020D02*
X223627020Y-109581020D01*
X220717500Y-101692000D02*
X220980000Y-101954500D01*
X219142000Y-101692000D02*
X220717500Y-101692000D01*
X220742500Y-102192000D02*
X220980000Y-101954500D01*
X219142000Y-102192000D02*
X220742500Y-102192000D01*
X219142000Y-101914000D02*
X219142000Y-102192000D01*
X219142000Y-101692000D02*
X219142000Y-101914000D01*
X219142000Y-101692000D02*
X219167000Y-101692000D01*
D24*
X220980000Y-101954500D02*
X219355500Y-101954500D01*
D23*
X219602000Y-114192000D02*
X219142000Y-114192000D01*
D22*
X223074000Y-101954500D02*
X223393000Y-102273500D01*
X220980000Y-101954500D02*
X223074000Y-101954500D01*
D23*
X219329000Y-115596500D02*
X219302500Y-115570000D01*
X219329000Y-116078000D02*
X219329000Y-115596500D01*
X219302500Y-114352500D02*
X219142000Y-114192000D01*
X219302500Y-115570000D02*
X219302500Y-114352500D01*
X193040000Y-94869000D02*
X192024000Y-95885000D01*
D24*
X193929000Y-94234000D02*
X192278000Y-95885000D01*
X195175500Y-94234000D02*
X193929000Y-94234000D01*
D23*
X220980000Y-101954500D02*
X220980000Y-101954500D01*
D22*
X247398000Y-117498500D02*
X247777000Y-117877500D01*
X245999000Y-117498500D02*
X247398000Y-117498500D01*
X248156000Y-117498500D02*
X247777000Y-117877500D01*
X249555000Y-117498500D02*
X248156000Y-117498500D01*
X245999000Y-117498500D02*
X249555000Y-117498500D01*
D23*
X247777000Y-117877500D02*
X247755500Y-117877500D01*
X247755500Y-117877500D02*
X247269000Y-118364000D01*
X247269000Y-118364000D02*
X244856000Y-118364000D01*
X244856000Y-118364000D02*
X244602000Y-118364000D01*
X235331000Y-119380000D02*
X235458000Y-119380000D01*
X236729410Y-119380000D02*
X235966000Y-119380000D01*
X239776000Y-118364000D02*
X237745410Y-118364000D01*
X237745410Y-118364000D02*
X236729410Y-119380000D01*
X235331000Y-119380000D02*
X235966000Y-119380000D01*
X244856000Y-118364000D02*
X239776000Y-118364000D01*
X239776000Y-118364000D02*
X239395000Y-118364000D01*
X224026590Y-119380000D02*
X222699619Y-118053029D01*
X224790000Y-119380000D02*
X224026590Y-119380000D01*
X235331000Y-119380000D02*
X224790000Y-119380000D01*
X216083971Y-118053029D02*
X214695798Y-118053028D01*
X222699619Y-118053029D02*
X216083971Y-118053029D01*
X216083971Y-118053029D02*
X215330798Y-118053028D01*
X214695798Y-118053028D02*
X213288817Y-116646047D01*
X213288817Y-116646047D02*
X203217896Y-116646046D01*
X203217896Y-116646046D02*
X200638925Y-114067075D01*
X199132000Y-112560150D02*
X199132000Y-111096500D01*
X200765925Y-114194075D02*
X199132000Y-112560150D01*
D22*
X247648000Y-109751500D02*
X247777000Y-109622500D01*
X245999000Y-109751500D02*
X247648000Y-109751500D01*
X247906000Y-109751500D02*
X247777000Y-109622500D01*
X249555000Y-109751500D02*
X247906000Y-109751500D01*
D23*
X247777000Y-109622500D02*
X247777000Y-109220000D01*
X237570999Y-110474999D02*
X237505999Y-110539999D01*
X243951999Y-110474999D02*
X243982001Y-110474999D01*
X243951999Y-110474999D02*
X239268000Y-110474999D01*
X245618000Y-108839000D02*
X247396000Y-108839000D01*
X243982001Y-110474999D02*
X245618000Y-108839000D01*
X247777000Y-109220000D02*
X247396000Y-108839000D01*
X237570999Y-110474999D02*
X237305010Y-110740988D01*
X239268000Y-110474999D02*
X238109999Y-110474999D01*
X238109999Y-110474999D02*
X237570999Y-110474999D01*
X237305010Y-118167990D02*
X237305010Y-116909010D01*
X237305010Y-116909010D02*
X237305009Y-117177403D01*
X237305010Y-110740988D02*
X237305010Y-116909010D01*
X224097010Y-118814010D02*
X222886020Y-117603020D01*
X236855000Y-118618000D02*
X236658990Y-118814010D01*
X236658990Y-118814010D02*
X224097010Y-118814010D01*
X236855000Y-118618000D02*
X237305010Y-118167990D01*
X217422981Y-117603019D02*
X214882199Y-117603019D01*
X222886020Y-117603020D02*
X217422981Y-117603019D01*
X217422981Y-117603019D02*
X215517199Y-117603019D01*
X214882199Y-117603019D02*
X213475218Y-116196038D01*
X213475218Y-116196038D02*
X203404297Y-116196037D01*
X203404297Y-116196037D02*
X200639630Y-113431370D01*
X200639630Y-113431370D02*
X200380826Y-113172566D01*
X199656990Y-112448730D02*
X200639630Y-113431370D01*
X199656990Y-111645990D02*
X199656990Y-112448730D01*
X199632000Y-111621000D02*
X199656990Y-111645990D01*
X199632000Y-111096500D02*
X199632000Y-111621000D01*
D22*
X247648000Y-101369500D02*
X247777000Y-101240500D01*
X245999000Y-101369500D02*
X247648000Y-101369500D01*
X249426000Y-101240500D02*
X249555000Y-101369500D01*
X247777000Y-101240500D02*
X249426000Y-101240500D01*
D23*
X247777000Y-101240500D02*
X247777000Y-100838000D01*
X247296010Y-100357010D02*
X241581010Y-100357010D01*
X247777000Y-100838000D02*
X247296010Y-100357010D01*
X238224990Y-100357010D02*
X237843990Y-100357010D01*
X241581010Y-100357010D02*
X238224990Y-100357010D01*
X237843990Y-100357010D02*
X236855000Y-101346000D01*
X236855000Y-101346000D02*
X236855000Y-106426000D01*
X236855000Y-117729000D02*
X236855000Y-116713000D01*
X235458000Y-118364000D02*
X236220000Y-118364000D01*
X236855000Y-116713000D02*
X236855000Y-116991002D01*
X236220000Y-118364000D02*
X236855000Y-117729000D01*
X236855000Y-106426000D02*
X236855000Y-116713000D01*
X235619001Y-118364000D02*
X235458000Y-118364000D01*
X224283410Y-118364000D02*
X223072421Y-117153011D01*
X235458000Y-118364000D02*
X224283410Y-118364000D01*
X215840990Y-117153010D02*
X215068600Y-117153010D01*
X223072421Y-117153011D02*
X215840990Y-117153010D01*
X215840990Y-117153010D02*
X215703600Y-117153010D01*
X215068600Y-117153010D02*
X213661619Y-115746029D01*
X213661619Y-115746029D02*
X203590698Y-115746028D01*
X200132000Y-112287330D02*
X200957835Y-113113165D01*
X200132000Y-111096500D02*
X200132000Y-112287330D01*
X200957835Y-113113165D02*
X200830835Y-112986165D01*
X203590698Y-115746028D02*
X200957835Y-113113165D01*
X206221500Y-112522000D02*
X207875500Y-112522000D01*
X201632000Y-111096500D02*
X205838500Y-111096500D01*
X206221500Y-111479500D02*
X206221500Y-112522000D01*
X205838500Y-111096500D02*
X206221500Y-111479500D01*
X207875500Y-114046000D02*
X206221500Y-114046000D01*
X201132000Y-112014510D02*
X201132000Y-111096500D01*
X203963500Y-114846010D02*
X201132000Y-112014510D01*
X205421490Y-114846010D02*
X203963500Y-114846010D01*
X206221500Y-114046000D02*
X205421490Y-114846010D01*
X215197000Y-111184000D02*
X215265000Y-111252000D01*
X214825000Y-111692000D02*
X215265000Y-111252000D01*
X211642000Y-111692000D02*
X214825000Y-111692000D01*
X215238000Y-113184000D02*
X215265000Y-113157000D01*
X214730000Y-113692000D02*
X211642000Y-113692000D01*
X215265000Y-113157000D02*
X214730000Y-113692000D01*
X219175500Y-100658500D02*
X219142000Y-100692000D01*
X219175500Y-99314000D02*
X219175500Y-100658500D01*
X243228500Y-116197500D02*
X241331000Y-114300000D01*
D21*
X242855000Y-112776000D02*
X241331000Y-114300000D01*
D23*
X221105500Y-105692000D02*
X221133500Y-105664000D01*
X219142000Y-105692000D02*
X221105500Y-105692000D01*
D22*
X242704500Y-115673500D02*
X241331000Y-114300000D01*
X245999000Y-115673500D02*
X242704500Y-115673500D01*
D21*
X250617499Y-112441499D02*
X250825000Y-112649000D01*
X243189501Y-112441499D02*
X250617499Y-112441499D01*
X241331000Y-114300000D02*
X243189501Y-112441499D01*
D23*
X217904000Y-105692000D02*
X219142000Y-105692000D01*
X217805000Y-105791000D02*
X217904000Y-105692000D01*
X222858500Y-105664000D02*
X222858500Y-105256500D01*
X222294000Y-104692000D02*
X219142000Y-104692000D01*
X222858500Y-105256500D02*
X222294000Y-104692000D01*
X220055670Y-107192000D02*
X220394660Y-107530990D01*
X219142000Y-107192000D02*
X220055670Y-107192000D01*
X221399010Y-107530990D02*
X222973990Y-107530990D01*
X220394660Y-107530990D02*
X221399010Y-107530990D01*
X221399010Y-107530990D02*
X221957990Y-107530990D01*
X223239500Y-107796500D02*
X223239500Y-108331000D01*
X222973990Y-107530990D02*
X223239500Y-107796500D01*
D22*
X245514500Y-107442000D02*
X245999000Y-107926500D01*
D23*
X221121500Y-108192000D02*
X221133500Y-108204000D01*
X219142000Y-108192000D02*
X221121500Y-108192000D01*
D21*
X242300501Y-104186499D02*
X241331000Y-105156000D01*
X250490499Y-104186499D02*
X242300501Y-104186499D01*
X250571000Y-104267000D02*
X250490499Y-104186499D01*
D22*
X243617000Y-107442000D02*
X241331000Y-105156000D01*
X245110000Y-107442000D02*
X243617000Y-107442000D01*
X243840000Y-107442000D02*
X245110000Y-107442000D01*
X245110000Y-107442000D02*
X245514500Y-107442000D01*
D23*
X243205000Y-98267000D02*
X241204000Y-96266000D01*
D21*
X242982000Y-98044000D02*
X241204000Y-96266000D01*
D22*
X245244500Y-99544500D02*
X241204000Y-95504000D01*
X245999000Y-99544500D02*
X245244500Y-99544500D01*
D21*
X241966000Y-97155000D02*
X241204000Y-96393000D01*
D23*
X221501250Y-110857750D02*
X221514500Y-110871000D01*
X220458750Y-110857750D02*
X220293000Y-110692000D01*
X221501250Y-110857750D02*
X220458750Y-110857750D01*
X219142000Y-110692000D02*
X220293000Y-110692000D01*
D21*
X250617499Y-95423499D02*
X250825000Y-95631000D01*
X242173501Y-95423499D02*
X250617499Y-95423499D01*
X241204000Y-96393000D02*
X242173501Y-95423499D01*
D23*
X220269670Y-109692000D02*
X220608700Y-110031030D01*
X219142000Y-109692000D02*
X220269670Y-109692000D01*
X222399530Y-110031030D02*
X223239500Y-110871000D01*
X221537030Y-110031030D02*
X222399530Y-110031030D01*
X220608700Y-110031030D02*
X221537030Y-110031030D01*
X221537030Y-110031030D02*
X221742000Y-110031030D01*
X217492000Y-103192000D02*
X217170000Y-102870000D01*
X219142000Y-103192000D02*
X217492000Y-103192000D01*
X217237000Y-103692000D02*
X217170000Y-103759000D01*
X219142000Y-103692000D02*
X217237000Y-103692000D01*
X217170000Y-103124000D02*
X217170000Y-102870000D01*
X217170000Y-103759000D02*
X217170000Y-103124000D01*
X219142000Y-103192000D02*
X219142000Y-103692000D01*
D24*
X218761000Y-103445000D02*
X218828000Y-103378000D01*
X217170000Y-103131000D02*
X217484000Y-103445000D01*
X217170000Y-103124000D02*
X217170000Y-103131000D01*
X217992000Y-103445000D02*
X218761000Y-103445000D01*
X217484000Y-103445000D02*
X217992000Y-103445000D01*
D23*
X219142000Y-103692000D02*
X219008000Y-103692000D01*
X219142000Y-103311000D02*
X218884500Y-103568500D01*
X219142000Y-103192000D02*
X219142000Y-103311000D01*
X218884500Y-103568500D02*
X218761000Y-103445000D01*
X219008000Y-103692000D02*
X218884500Y-103568500D01*
X217678000Y-102238002D02*
X217678000Y-101600000D01*
X218131998Y-102692000D02*
X217678000Y-102238002D01*
X219142000Y-102692000D02*
X218131998Y-102692000D01*
X208725510Y-107861010D02*
X207925500Y-107061000D01*
X210183500Y-107861010D02*
X208725510Y-107861010D01*
X210352510Y-107692000D02*
X210183500Y-107861010D01*
X211642000Y-107692000D02*
X210352510Y-107692000D01*
X209781500Y-107192000D02*
X211642000Y-107192000D01*
X209650500Y-107061000D02*
X209781500Y-107192000D01*
X212967000Y-106692000D02*
X212979000Y-106680000D01*
X211642000Y-106692000D02*
X212967000Y-106692000D01*
D22*
X199818001Y-93932999D02*
X200218000Y-93533000D01*
X199818001Y-94948999D02*
X199818001Y-93932999D01*
X199818001Y-94948999D02*
X195425990Y-99341010D01*
X195425990Y-100103010D02*
X195425990Y-100711000D01*
X195425990Y-99341010D02*
X195425990Y-100103010D01*
D23*
X207925500Y-100153000D02*
X207875500Y-100203000D01*
X207925500Y-98679000D02*
X207925500Y-100153000D01*
X209650500Y-100253000D02*
X209700500Y-100203000D01*
X210185500Y-101192000D02*
X209650500Y-101727000D01*
X211642000Y-101192000D02*
X210185500Y-101192000D01*
X209704000Y-101192000D02*
X209650500Y-101245500D01*
X210185500Y-101192000D02*
X209704000Y-101192000D01*
X209650500Y-101727000D02*
X209650500Y-101245500D01*
X209904000Y-101192000D02*
X209650500Y-100938500D01*
X210185500Y-101192000D02*
X209904000Y-101192000D01*
X209650500Y-100938500D02*
X209650500Y-100253000D01*
X209650500Y-101245500D02*
X209650500Y-100938500D01*
X195687000Y-105684000D02*
X196469000Y-104902000D01*
X194719500Y-105684000D02*
X195687000Y-105684000D01*
X196338000Y-106684000D02*
X196469000Y-106553000D01*
X194719500Y-106684000D02*
X196338000Y-106684000D01*
X194719500Y-105684000D02*
X194719500Y-106016500D01*
X194719500Y-106016500D02*
X194719500Y-106684000D01*
D24*
X195354500Y-106016500D02*
X195608500Y-106016500D01*
X195608500Y-106016500D02*
X195961000Y-105664000D01*
X196215000Y-106426000D02*
X196215000Y-105410000D01*
X194945000Y-106426000D02*
X196215000Y-106426000D01*
X195326000Y-106426000D02*
X194945000Y-106426000D01*
X195580000Y-106172000D02*
X195326000Y-106426000D01*
X196215000Y-106172000D02*
X195580000Y-106172000D01*
X195891000Y-106172000D02*
X196215000Y-106172000D01*
X195735500Y-106016500D02*
X195891000Y-106172000D01*
X195354500Y-106016500D02*
X195735500Y-106016500D01*
D23*
X196469000Y-105156000D02*
X196215000Y-105410000D01*
X196469000Y-104902000D02*
X196469000Y-105156000D01*
X195961000Y-106102000D02*
X195891000Y-106172000D01*
X195961000Y-105918000D02*
X194953500Y-105918000D01*
X194953500Y-105918000D02*
X194719500Y-105684000D01*
X195961000Y-105664000D02*
X195961000Y-105918000D01*
X195961000Y-105918000D02*
X195961000Y-106102000D01*
X194953500Y-105950000D02*
X194719500Y-106184000D01*
X194953500Y-105918000D02*
X194953500Y-105950000D01*
D22*
X209700500Y-97028000D02*
X209700500Y-95377000D01*
X209700500Y-95377000D02*
X209804000Y-95377000D01*
X210693000Y-94488000D02*
X211939500Y-94488000D01*
X209804000Y-95377000D02*
X210693000Y-94488000D01*
D24*
X194198000Y-100188000D02*
X194437000Y-99949000D01*
X194198000Y-100822000D02*
X194198000Y-100188000D01*
D22*
X196469000Y-104902000D02*
X196469000Y-105791000D01*
X196469000Y-105791000D02*
X196469000Y-106553000D01*
D23*
X223710500Y-106145010D02*
X223721010Y-106134500D01*
X223710500Y-106426000D02*
X223710500Y-106145010D01*
X223064000Y-104192000D02*
X223721010Y-104849010D01*
X219975500Y-104192000D02*
X223064000Y-104192000D01*
X223721010Y-106134500D02*
X223721010Y-104849010D01*
X219142000Y-104192000D02*
X219975500Y-104192000D01*
X219975500Y-104192000D02*
X220166000Y-104192000D01*
X210439000Y-111999002D02*
X210439000Y-111635412D01*
X210631998Y-112192000D02*
X210439000Y-111999002D01*
X211642000Y-112192000D02*
X210631998Y-112192000D01*
X210182588Y-111379000D02*
X210310794Y-111507206D01*
X209232500Y-111379000D02*
X210182588Y-111379000D01*
X210439000Y-111635412D02*
X210310794Y-111507206D01*
D22*
X211939500Y-94488000D02*
X211939500Y-94488000D01*
D23*
X194719500Y-109184000D02*
X193639000Y-109184000D01*
X193639000Y-109184000D02*
X193421000Y-108966000D01*
X193421000Y-108966000D02*
X193421000Y-103759000D01*
X193421000Y-103759000D02*
X193802000Y-103378000D01*
X193802000Y-103378000D02*
X194437000Y-103378000D01*
X194791500Y-103023500D02*
X194791500Y-102362000D01*
X194437000Y-103378000D02*
X194791500Y-103023500D01*
D24*
X197000500Y-94234000D02*
X197000500Y-95885000D01*
D23*
X197000500Y-95885000D02*
X196200490Y-96685010D01*
X193548000Y-98822000D02*
X193548000Y-98806000D01*
X194399510Y-102362000D02*
X194791500Y-102362000D01*
X193548000Y-101510490D02*
X194399510Y-102362000D01*
X193548000Y-98822000D02*
X193548000Y-101510490D01*
X194214750Y-98139250D02*
X195668990Y-96685010D01*
X196200490Y-96685010D02*
X195668990Y-96685010D01*
X193548000Y-98806000D02*
X194214750Y-98139250D01*
X194214750Y-98139250D02*
X194310000Y-98044000D01*
X203174500Y-117475000D02*
X203161002Y-117475000D01*
X198632000Y-112945998D02*
X198632000Y-111096500D01*
X203161002Y-117475000D02*
X198632000Y-112945998D01*
X204749500Y-117475000D02*
X206351500Y-117475000D01*
D22*
X191389000Y-105283000D02*
X191643000Y-105537000D01*
X191389000Y-102893500D02*
X191389000Y-105283000D01*
X233414228Y-112000000D02*
X233931000Y-112000000D01*
X231372728Y-109958500D02*
X233414228Y-112000000D01*
X229235000Y-106576500D02*
X227711000Y-106576500D01*
X227457000Y-106576500D02*
X229235000Y-106576500D01*
X229235000Y-106576500D02*
X230528500Y-106576500D01*
X231372728Y-107420728D02*
X231372728Y-109958500D01*
X230528500Y-106576500D02*
X231372728Y-107420728D01*
X227734500Y-99060000D02*
X227734500Y-100584000D01*
X231659000Y-100584000D02*
X233931000Y-102856000D01*
X227734500Y-100584000D02*
X231659000Y-100584000D01*
X229552500Y-96774000D02*
X229997000Y-96774000D01*
X231013000Y-95758000D02*
X231013000Y-95146500D01*
X229997000Y-96774000D02*
X231013000Y-95758000D01*
X232623500Y-95146500D02*
X233804000Y-93966000D01*
X231013000Y-95146500D02*
X232623500Y-95146500D01*
D23*
X203200000Y-101203500D02*
X203200000Y-100584000D01*
X201632000Y-102771500D02*
X203200000Y-101203500D01*
X201930000Y-101170298D02*
X201930000Y-100457000D01*
X201132000Y-101968298D02*
X201930000Y-101170298D01*
X201132000Y-102771500D02*
X201132000Y-101968298D01*
X221751999Y-116703001D02*
X221497999Y-116703001D01*
X222885000Y-115570000D02*
X221751999Y-116703001D01*
X216036999Y-116703001D02*
X215890001Y-116703001D01*
X221497999Y-116703001D02*
X216525001Y-116703001D01*
X216525001Y-116703001D02*
X216036999Y-116703001D01*
X213848019Y-115296019D02*
X212705019Y-115296019D01*
X215255001Y-116703001D02*
X213848019Y-115296019D01*
X216525001Y-116703001D02*
X215255001Y-116703001D01*
X212705019Y-115296019D02*
X213086019Y-115296019D01*
X203777099Y-115296019D02*
X212705019Y-115296019D01*
X200632000Y-112150920D02*
X201022040Y-112540960D01*
X200632000Y-111096500D02*
X200632000Y-112150920D01*
X201022040Y-112540960D02*
X203777099Y-115296019D01*
X200895040Y-112413960D02*
X201022040Y-112540960D01*
X217805000Y-104865002D02*
X217805000Y-104648000D01*
X218131998Y-105192000D02*
X217805000Y-104865002D01*
X219142000Y-105192000D02*
X218131998Y-105192000D01*
X220328490Y-106192000D02*
X219142000Y-106192000D01*
X220689490Y-106553000D02*
X220328490Y-106192000D01*
X226982000Y-104751500D02*
X226206980Y-105526520D01*
X227457000Y-104751500D02*
X226982000Y-104751500D01*
X226206980Y-105526520D02*
X226206980Y-106596520D01*
X226206980Y-106596520D02*
X225722520Y-107080980D01*
X221217470Y-107080980D02*
X220328490Y-106192000D01*
X225722520Y-107080980D02*
X221217470Y-107080980D01*
X217805000Y-107696000D02*
X219138000Y-107696000D01*
X219138000Y-107696000D02*
X219142000Y-107692000D01*
X220981500Y-109131010D02*
X222542010Y-109131010D01*
X220542490Y-108692000D02*
X220834745Y-108984255D01*
X219142000Y-108692000D02*
X220542490Y-108692000D01*
X220834745Y-108984255D02*
X220981500Y-109131010D01*
X220651990Y-108801500D02*
X220834745Y-108984255D01*
X223431010Y-109131010D02*
X223735990Y-109131010D01*
X222542010Y-109131010D02*
X223431010Y-109131010D01*
X224553501Y-108350009D02*
X223772500Y-109131010D01*
X225909500Y-102973500D02*
X226874990Y-103938990D01*
X225909500Y-100584000D02*
X225909500Y-102973500D01*
X227727520Y-105763990D02*
X226986500Y-105763990D01*
X226874990Y-103938990D02*
X227927500Y-103938990D01*
X225913991Y-108350009D02*
X224553501Y-108350009D01*
X223772500Y-109131010D02*
X223431010Y-109131010D01*
X227927500Y-103938990D02*
X228346000Y-104357490D01*
X226986500Y-105763990D02*
X226656990Y-106093500D01*
X228346000Y-104357490D02*
X228346000Y-105145510D01*
X228346000Y-105145510D02*
X227727520Y-105763990D01*
X226187000Y-108331000D02*
X225933000Y-108331000D01*
X226656990Y-106093500D02*
X226656990Y-107861010D01*
X226656990Y-107861010D02*
X226187000Y-108331000D01*
X225933000Y-108331000D02*
X225913991Y-108350009D01*
X217849000Y-110192000D02*
X219142000Y-110192000D01*
X217805000Y-110236000D02*
X217849000Y-110192000D01*
X231695991Y-117776991D02*
X231855999Y-117776991D01*
X231267000Y-117348000D02*
X231832990Y-117913990D01*
X231267000Y-117348000D02*
X231695991Y-117776991D01*
X235908010Y-117913990D02*
X236404990Y-117417010D01*
X234892010Y-117913990D02*
X235908010Y-117913990D01*
X231832990Y-117913990D02*
X234892010Y-117913990D01*
X234892010Y-117913990D02*
X235077000Y-117913990D01*
X236404990Y-117417010D02*
X236404990Y-93275990D01*
X236404990Y-93275990D02*
X235712000Y-92583000D01*
X231497500Y-92583000D02*
X230759000Y-93321500D01*
X235712000Y-92583000D02*
X231497500Y-92583000D01*
X229743000Y-113882998D02*
X229743000Y-115824000D01*
X226915992Y-111055990D02*
X229743000Y-113882998D01*
X225621010Y-111055990D02*
X226915992Y-111055990D01*
X229743000Y-115824000D02*
X231267000Y-117348000D01*
X224935010Y-111741990D02*
X225621010Y-111055990D01*
X220152002Y-111192000D02*
X220701992Y-111741990D01*
X220701992Y-111741990D02*
X224935010Y-111741990D01*
X219142000Y-111192000D02*
X220152002Y-111192000D01*
X211642000Y-102676000D02*
X211633001Y-102667001D01*
X211642000Y-102692000D02*
X211642000Y-102676000D01*
X196632000Y-99896950D02*
X196632000Y-102771500D01*
X199017997Y-97510953D02*
X196632000Y-99896950D01*
X213764500Y-94488000D02*
X212964490Y-93687990D01*
X211797990Y-93687990D02*
X211456500Y-93687990D01*
X212964490Y-93687990D02*
X211797990Y-93687990D01*
X204698951Y-97510953D02*
X204698952Y-97510952D01*
X199017997Y-97510953D02*
X204698951Y-97510953D01*
X204698952Y-97510952D02*
X204216000Y-97510952D01*
X211289990Y-93687990D02*
X211797990Y-93687990D01*
X210106500Y-93687990D02*
X211289990Y-93687990D01*
X208788000Y-95006490D02*
X210106500Y-93687990D01*
X208788000Y-95885000D02*
X208788000Y-95006490D01*
X208495990Y-96177010D02*
X208788000Y-95885000D01*
X206590990Y-96177010D02*
X208495990Y-96177010D01*
X205257048Y-97510952D02*
X206590990Y-96177010D01*
X204698952Y-97510952D02*
X205257048Y-97510952D01*
X214377410Y-94488000D02*
X213764500Y-94488000D01*
X215453529Y-95564119D02*
X214377410Y-94488000D01*
X215453530Y-100163292D02*
X215453529Y-95564119D01*
X212924822Y-102692000D02*
X215453530Y-100163292D01*
X211642000Y-102692000D02*
X212924822Y-102692000D01*
X209700500Y-103251000D02*
X210185000Y-103251000D01*
X210626000Y-103692000D02*
X211642000Y-103692000D01*
X210185000Y-103251000D02*
X210626000Y-103692000D01*
X211642000Y-103184000D02*
X211625001Y-103167001D01*
X211642000Y-103192000D02*
X211642000Y-103184000D01*
X207875500Y-95377000D02*
X206754590Y-95377000D01*
X206754590Y-95377000D02*
X205070648Y-97060942D01*
X205070648Y-97060942D02*
X204597000Y-97060942D01*
X196132000Y-99760540D02*
X196132000Y-102771500D01*
X198831596Y-97060944D02*
X196132000Y-99760540D01*
X205070646Y-97060944D02*
X205070648Y-97060942D01*
X198831596Y-97060944D02*
X205070646Y-97060944D01*
X207875500Y-95146500D02*
X207875500Y-95377000D01*
X209804705Y-93217295D02*
X207875500Y-95146500D01*
X215903539Y-100349691D02*
X215903539Y-94744129D01*
X213061230Y-103192000D02*
X215903539Y-100349691D01*
X211642000Y-103192000D02*
X213061230Y-103192000D01*
X215903539Y-94744129D02*
X214376705Y-93217295D01*
X214376705Y-93217295D02*
X209804705Y-93217295D01*
X209870500Y-112692000D02*
X209700500Y-112522000D01*
X211642000Y-112692000D02*
X209870500Y-112692000D01*
X210554500Y-113192000D02*
X209700500Y-114046000D01*
X211642000Y-113192000D02*
X210554500Y-113192000D01*
X197132000Y-100033360D02*
X199204398Y-97960962D01*
X197132000Y-102771500D02*
X197132000Y-100033360D01*
X212852000Y-95377000D02*
X212471000Y-95377000D01*
X212852000Y-95377000D02*
X211836000Y-95377000D01*
X207875500Y-97028000D02*
X208675510Y-97828010D01*
X211373245Y-95549245D02*
X211545490Y-95377000D01*
X211126990Y-95795500D02*
X211373245Y-95549245D01*
X210781990Y-97828010D02*
X211074000Y-97536000D01*
X210400990Y-97828010D02*
X210781990Y-97828010D01*
X208675510Y-97828010D02*
X210400990Y-97828010D01*
X210400990Y-97828010D02*
X210527990Y-97828010D01*
X211074000Y-95848490D02*
X211545490Y-95377000D01*
X211545490Y-95377000D02*
X211836000Y-95377000D01*
X211074000Y-97536000D02*
X211074000Y-95848490D01*
X207875500Y-97028000D02*
X206502000Y-97028000D01*
X206502000Y-97028000D02*
X205569036Y-97960962D01*
X199204398Y-97960962D02*
X203878962Y-97960962D01*
X203878962Y-97960962D02*
X203664037Y-97960962D01*
X205569036Y-97960962D02*
X203878962Y-97960962D01*
X214122000Y-95377000D02*
X212852000Y-95377000D01*
X215003520Y-95750520D02*
X214630000Y-95377000D01*
X214630000Y-95377000D02*
X214122000Y-95377000D01*
X215003520Y-99976892D02*
X215003520Y-95750520D01*
X212788412Y-102192000D02*
X215003520Y-99976892D01*
X211642000Y-102192000D02*
X212788412Y-102192000D01*
X211662000Y-100672000D02*
X211642000Y-100692000D01*
X211916000Y-100418000D02*
X211642000Y-100692000D01*
X211916000Y-99314000D02*
X211916000Y-100418000D01*
X213764500Y-96266000D02*
X213764500Y-97790000D01*
X212742001Y-101602001D02*
X212652002Y-101692000D01*
X213764500Y-97790000D02*
X213764500Y-98007490D01*
X212928490Y-101415512D02*
X212734501Y-101609501D01*
X212734501Y-101609501D02*
X212652002Y-101692000D01*
X214553510Y-98579010D02*
X213764500Y-97790000D01*
X214553510Y-99784500D02*
X214553510Y-98579010D01*
X212646010Y-101692000D02*
X214553510Y-99784500D01*
X212506000Y-101692000D02*
X212646010Y-101692000D01*
X212652002Y-101692000D02*
X212506000Y-101692000D01*
X212506000Y-101692000D02*
X211642000Y-101692000D01*
X199632000Y-101485000D02*
X199632000Y-102771500D01*
X200406000Y-100711000D02*
X199632000Y-101485000D01*
X203044500Y-104684000D02*
X201259000Y-104684000D01*
X201259000Y-104684000D02*
X200406000Y-105537000D01*
X200406000Y-105537000D02*
X200406000Y-105537000D01*
X201720000Y-104184000D02*
X201549000Y-104013000D01*
X203044500Y-104184000D02*
X201720000Y-104184000D01*
X211642000Y-104192000D02*
X208840000Y-104192000D01*
X208840000Y-104192000D02*
X208713000Y-104192000D01*
X206681000Y-104192000D02*
X207085000Y-104192000D01*
X205740000Y-103251000D02*
X206681000Y-104192000D01*
X207085000Y-104192000D02*
X206898490Y-104192000D01*
X208840000Y-104192000D02*
X207085000Y-104192000D01*
X197632000Y-100169770D02*
X197632000Y-102771500D01*
X199390799Y-98410971D02*
X197632000Y-100169770D01*
X204300140Y-98410972D02*
X199390799Y-98410971D01*
X205739999Y-99850829D02*
X204300140Y-98410972D01*
X205740000Y-103251000D02*
X205740000Y-102806500D01*
X205740000Y-102806500D02*
X205739999Y-99850829D01*
X205740000Y-102997000D02*
X205740000Y-102806500D01*
X211642000Y-104692000D02*
X209125000Y-104692000D01*
X209125000Y-104692000D02*
X208705000Y-104692000D01*
X209125000Y-104692000D02*
X206927000Y-104692000D01*
X206927000Y-104692000D02*
X206762080Y-104692000D01*
X198132000Y-102771500D02*
X198132000Y-101358000D01*
X198132000Y-101358000D02*
X198132000Y-101755500D01*
X206508080Y-104692000D02*
X206927000Y-104692000D01*
X205289990Y-103473910D02*
X206508080Y-104692000D01*
X204113741Y-98860981D02*
X205289990Y-100037230D01*
X199577200Y-98860980D02*
X204113741Y-98860981D01*
X198132000Y-100306180D02*
X199577200Y-98860980D01*
X205289990Y-100037230D02*
X205289990Y-103473910D01*
X198132000Y-101358000D02*
X198132000Y-100306180D01*
X211642000Y-105192000D02*
X209514000Y-105192000D01*
X209514000Y-105192000D02*
X209141010Y-105192000D01*
X206919000Y-105192000D02*
X206625670Y-105192000D01*
X209514000Y-105192000D02*
X206919000Y-105192000D01*
X198632000Y-102771500D02*
X198632000Y-101350000D01*
X198632000Y-101755500D02*
X198632000Y-101350000D01*
X206371670Y-105192000D02*
X206919000Y-105192000D01*
X204839980Y-100223630D02*
X204839980Y-103660310D01*
X203927340Y-99310990D02*
X204839980Y-100223630D01*
X199763599Y-99310989D02*
X203927340Y-99310990D01*
X198632000Y-100442588D02*
X199763599Y-99310989D01*
X204839980Y-103660310D02*
X206371670Y-105192000D01*
X198632000Y-101350000D02*
X198632000Y-100442588D01*
X211610000Y-105692000D02*
X211585001Y-105716999D01*
X211642000Y-105692000D02*
X211610000Y-105692000D01*
X211585001Y-105716999D02*
X210259001Y-105716999D01*
X210259001Y-105716999D02*
X209856999Y-105716999D01*
X206830001Y-105716999D02*
X206514259Y-105716999D01*
X210259001Y-105716999D02*
X206830001Y-105716999D01*
X199132000Y-102771500D02*
X199132000Y-101215000D01*
X199132000Y-101755500D02*
X199132000Y-101215000D01*
X206260259Y-105716999D02*
X206830001Y-105716999D01*
X204389970Y-103846710D02*
X206260259Y-105716999D01*
X199949999Y-99760999D02*
X203740939Y-99760999D01*
X204389970Y-100410030D02*
X204389970Y-103846710D01*
X199132000Y-100578998D02*
X199949999Y-99760999D01*
X203740939Y-99760999D02*
X204389970Y-100410030D01*
X199132000Y-101215000D02*
X199132000Y-100578998D01*
X211642000Y-106192000D02*
X206098850Y-106192000D01*
X203069990Y-105159010D02*
X205065860Y-105159010D01*
X205065860Y-105159010D02*
X205401425Y-105494575D01*
X203044500Y-105184000D02*
X203045000Y-105184000D01*
X203045000Y-105184000D02*
X203069990Y-105159010D01*
X206098850Y-106192000D02*
X205401425Y-105494575D01*
X210369900Y-108311020D02*
X207581460Y-108311020D01*
X210488920Y-108192000D02*
X210369900Y-108311020D01*
X211642000Y-108192000D02*
X210488920Y-108192000D01*
X207054420Y-107783980D02*
X207581460Y-108311020D01*
X203984112Y-105684000D02*
X204439306Y-106139194D01*
X203044500Y-105684000D02*
X203984112Y-105684000D01*
X204439306Y-106139194D02*
X205105000Y-106804888D01*
X204172500Y-105872388D02*
X204439306Y-106139194D01*
X205105000Y-106807000D02*
X206081980Y-107783980D01*
X205105000Y-106804888D02*
X205105000Y-106807000D01*
X206081980Y-107783980D02*
X207054420Y-107783980D01*
X210617000Y-108692000D02*
X211642000Y-108692000D01*
X210547970Y-108761030D02*
X210617000Y-108692000D01*
X207395060Y-108761030D02*
X210547970Y-108761030D01*
X203044500Y-106184000D02*
X203847702Y-106184000D01*
X206868020Y-108233990D02*
X207395060Y-108761030D01*
X205895580Y-108233990D02*
X206535510Y-108233990D01*
X204654991Y-106993401D02*
X205895580Y-108233990D01*
X204406851Y-106743149D02*
X204654990Y-106991288D01*
X206535510Y-108233990D02*
X206868020Y-108233990D01*
X204654990Y-106991288D02*
X204654991Y-106993401D01*
X203847702Y-106184000D02*
X204406851Y-106743149D01*
X204406851Y-106743149D02*
X204597000Y-106933298D01*
X211622960Y-109211040D02*
X211642000Y-109192000D01*
X206681620Y-108684000D02*
X207208660Y-109211040D01*
X207208660Y-109211040D02*
X211622960Y-109211040D01*
X203044500Y-108684000D02*
X206681620Y-108684000D01*
X212597998Y-109692000D02*
X212815998Y-109474000D01*
X211642000Y-109692000D02*
X212597998Y-109692000D01*
X203032500Y-107696000D02*
X203044500Y-107684000D01*
X201676000Y-107696000D02*
X203032500Y-107696000D01*
X212979000Y-109310998D02*
X212597998Y-109692000D01*
X212979000Y-108966000D02*
X212979000Y-109310998D01*
X207553210Y-110192000D02*
X208109000Y-110192000D01*
X203044500Y-109184000D02*
X206545210Y-109184000D01*
X208109000Y-110192000D02*
X211642000Y-110192000D01*
X206545210Y-109184000D02*
X207553210Y-110192000D01*
X212667000Y-110692000D02*
X212979000Y-110380000D01*
X212979000Y-110380000D02*
X212979000Y-110236000D01*
X211642000Y-110692000D02*
X212667000Y-110692000D01*
X202077000Y-108184000D02*
X201676000Y-108585000D01*
X203044500Y-108184000D02*
X202077000Y-108184000D01*
X203044500Y-109684000D02*
X206408800Y-109684000D01*
X210631998Y-111192000D02*
X210082008Y-110642010D01*
X211642000Y-111192000D02*
X210631998Y-111192000D01*
X207366810Y-110642010D02*
X207080650Y-110355850D01*
X210082008Y-110642010D02*
X207366810Y-110642010D01*
X206408800Y-109684000D02*
X207080650Y-110355850D01*
X197656990Y-111080010D02*
X197656990Y-110191010D01*
X197640500Y-111096500D02*
X197656990Y-111080010D01*
X197632000Y-111096500D02*
X197640500Y-111096500D01*
X197656990Y-110191010D02*
X198247000Y-109601000D01*
X198247000Y-109601000D02*
X199009000Y-109601000D01*
X199136000Y-109474000D02*
X199136000Y-108966000D01*
X199009000Y-109601000D02*
X199136000Y-109474000D01*
X195970999Y-108665999D02*
X196559998Y-108077000D01*
X195970999Y-110935499D02*
X195970999Y-108665999D01*
X196132000Y-111096500D02*
X195970999Y-110935499D01*
X196559998Y-108077000D02*
X200025000Y-108077000D01*
X200406000Y-108458000D02*
X200406000Y-108966000D01*
X200025000Y-108077000D02*
X200406000Y-108458000D01*
X196632000Y-111089000D02*
X196656990Y-111064010D01*
X196632000Y-111096500D02*
X196632000Y-111089000D01*
X196656990Y-109026990D02*
X196596000Y-108966000D01*
X196656990Y-109794010D02*
X196656990Y-109026990D01*
X196656990Y-111064010D02*
X196656990Y-109794010D01*
X196656990Y-109794010D02*
X196656990Y-109407990D01*
X197132000Y-109700000D02*
X197866000Y-108966000D01*
X197132000Y-111096500D02*
X197132000Y-109700000D01*
X222175410Y-112192000D02*
X223081010Y-113097600D01*
X219142000Y-112192000D02*
X222175410Y-112192000D01*
X223081010Y-113097600D02*
X223081010Y-114115010D01*
X223081010Y-114115010D02*
X223323990Y-114357990D01*
X225774510Y-114357990D02*
X226441000Y-113691500D01*
X223323990Y-114357990D02*
X225774510Y-114357990D01*
X226441000Y-111760000D02*
X226441000Y-113691500D01*
X226441000Y-115416500D02*
X226441000Y-117602000D01*
X225832500Y-114808000D02*
X226441000Y-115416500D01*
X223137590Y-114808000D02*
X225832500Y-114808000D01*
X222631001Y-114301411D02*
X223137590Y-114808000D01*
X222631000Y-113284000D02*
X222631001Y-114301411D01*
X222039000Y-112692000D02*
X222631000Y-113284000D01*
X219142000Y-112692000D02*
X222039000Y-112692000D01*
X220795009Y-114112189D02*
X221040810Y-114357990D01*
X220795009Y-113698597D02*
X220795009Y-114112189D01*
X220288412Y-113192000D02*
X220795009Y-113698597D01*
X219142000Y-113192000D02*
X220288412Y-113192000D01*
X221430010Y-114357990D02*
X221742000Y-114046000D01*
X221040810Y-114357990D02*
X221430010Y-114357990D01*
X220345000Y-113884998D02*
X220345000Y-114298590D01*
X220152002Y-113692000D02*
X220345000Y-113884998D01*
X219142000Y-113692000D02*
X220152002Y-113692000D01*
X220345000Y-114298590D02*
X220854410Y-114808000D01*
X220854410Y-114808000D02*
X221107000Y-114808000D01*
X221107000Y-114808000D02*
X221488000Y-114808000D01*
X221488000Y-114808000D02*
X221742000Y-115062000D01*
D25*
X253188000Y-120219000D02*
X189915000Y-120219000D01*
X189915000Y-117905000D01*
X189939928Y-117905000D01*
X189952188Y-118029482D01*
X189988498Y-118149180D01*
X190047463Y-118259494D01*
X190126815Y-118356185D01*
X190223506Y-118435537D01*
X190333820Y-118494502D01*
X190453518Y-118530812D01*
X190578000Y-118543072D01*
X191992250Y-118540000D01*
X192151000Y-118381250D01*
X192151000Y-116332000D01*
X192405000Y-116332000D01*
X192405000Y-118381250D01*
X192563750Y-118540000D01*
X193978000Y-118543072D01*
X194102482Y-118530812D01*
X194222180Y-118494502D01*
X194332494Y-118435537D01*
X194429185Y-118356185D01*
X194508537Y-118259494D01*
X194567502Y-118149180D01*
X194603812Y-118029482D01*
X194616072Y-117905000D01*
X194613000Y-116490750D01*
X194454250Y-116332000D01*
X192405000Y-116332000D01*
X192151000Y-116332000D01*
X190101750Y-116332000D01*
X189943000Y-116490750D01*
X189939928Y-117905000D01*
X189915000Y-117905000D01*
X189915000Y-114505000D01*
X189939928Y-114505000D01*
X189943000Y-115919250D01*
X190101750Y-116078000D01*
X192151000Y-116078000D01*
X192151000Y-114028750D01*
X192405000Y-114028750D01*
X192405000Y-116078000D01*
X194454250Y-116078000D01*
X194613000Y-115919250D01*
X194615501Y-114768053D01*
X194672271Y-114791568D01*
X194852911Y-114827500D01*
X195037089Y-114827500D01*
X195217729Y-114791568D01*
X195387889Y-114721086D01*
X195541028Y-114618762D01*
X195671262Y-114488528D01*
X195773586Y-114335389D01*
X195844068Y-114165229D01*
X195880000Y-113984589D01*
X195880000Y-113800411D01*
X195844068Y-113619771D01*
X195773586Y-113449611D01*
X195671262Y-113296472D01*
X195541028Y-113166238D01*
X195387889Y-113063914D01*
X195217729Y-112993432D01*
X195037089Y-112957500D01*
X194852911Y-112957500D01*
X194672271Y-112993432D01*
X194502111Y-113063914D01*
X194348972Y-113166238D01*
X194218738Y-113296472D01*
X194116414Y-113449611D01*
X194045932Y-113619771D01*
X194010000Y-113800411D01*
X194010000Y-113870080D01*
X193978000Y-113866928D01*
X192563750Y-113870000D01*
X192405000Y-114028750D01*
X192151000Y-114028750D01*
X191992250Y-113870000D01*
X190578000Y-113866928D01*
X190453518Y-113879188D01*
X190333820Y-113915498D01*
X190223506Y-113974463D01*
X190126815Y-114053815D01*
X190047463Y-114150506D01*
X189988498Y-114260820D01*
X189952188Y-114380518D01*
X189939928Y-114505000D01*
X189915000Y-114505000D01*
X189915000Y-110973890D01*
X190201524Y-110973890D01*
X190246175Y-111121099D01*
X190371359Y-111383920D01*
X190545412Y-111617269D01*
X190761645Y-111812178D01*
X191011748Y-111961157D01*
X191286109Y-112058481D01*
X191516000Y-111937814D01*
X191516000Y-110744000D01*
X191770000Y-110744000D01*
X191770000Y-111937814D01*
X191999891Y-112058481D01*
X192274252Y-111961157D01*
X192524355Y-111812178D01*
X192740588Y-111617269D01*
X192914641Y-111383920D01*
X193039825Y-111121099D01*
X193084476Y-110973890D01*
X192963155Y-110744000D01*
X191770000Y-110744000D01*
X191516000Y-110744000D01*
X190322845Y-110744000D01*
X190201524Y-110973890D01*
X189915000Y-110973890D01*
X189915000Y-94185000D01*
X189939928Y-94185000D01*
X189939928Y-97585000D01*
X189952188Y-97709482D01*
X189988498Y-97829180D01*
X190047463Y-97939494D01*
X190126815Y-98036185D01*
X190223506Y-98115537D01*
X190333820Y-98174502D01*
X190453518Y-98210812D01*
X190578000Y-98223072D01*
X192736036Y-98223072D01*
X192733498Y-98227820D01*
X192697188Y-98347518D01*
X192684928Y-98472000D01*
X192684928Y-99172000D01*
X192697188Y-99296482D01*
X192733498Y-99416180D01*
X192788000Y-99518145D01*
X192788000Y-99837000D01*
X192770998Y-99837000D01*
X192770998Y-99966748D01*
X192641250Y-99837000D01*
X192533674Y-99849325D01*
X192414873Y-99888471D01*
X192305992Y-99950041D01*
X192211215Y-100031670D01*
X192144802Y-100116635D01*
X192112942Y-100090488D01*
X191961567Y-100009577D01*
X191797316Y-99959752D01*
X191626500Y-99942928D01*
X191151500Y-99942928D01*
X190980684Y-99959752D01*
X190816433Y-100009577D01*
X190665058Y-100090488D01*
X190532377Y-100199377D01*
X190423488Y-100332058D01*
X190342577Y-100483433D01*
X190292752Y-100647684D01*
X190275928Y-100818500D01*
X190275928Y-101318500D01*
X190292752Y-101489316D01*
X190342577Y-101653567D01*
X190423488Y-101804942D01*
X190532377Y-101937623D01*
X190585232Y-101981000D01*
X190532377Y-102024377D01*
X190423488Y-102157058D01*
X190342577Y-102308433D01*
X190292752Y-102472684D01*
X190275928Y-102643500D01*
X190275928Y-103143500D01*
X190292752Y-103314316D01*
X190342577Y-103478567D01*
X190373000Y-103535485D01*
X190373001Y-104210222D01*
X190341815Y-104235815D01*
X190262463Y-104332506D01*
X190203498Y-104442820D01*
X190167188Y-104562518D01*
X190154928Y-104687000D01*
X190154928Y-106387000D01*
X190167188Y-106511482D01*
X190203498Y-106631180D01*
X190262463Y-106741494D01*
X190341815Y-106838185D01*
X190438506Y-106917537D01*
X190548820Y-106976502D01*
X190621380Y-106998513D01*
X190489525Y-107130368D01*
X190327010Y-107373589D01*
X190215068Y-107643842D01*
X190158000Y-107930740D01*
X190158000Y-108223260D01*
X190215068Y-108510158D01*
X190327010Y-108780411D01*
X190489525Y-109023632D01*
X190696368Y-109230475D01*
X190878534Y-109352195D01*
X190761645Y-109421822D01*
X190545412Y-109616731D01*
X190371359Y-109850080D01*
X190246175Y-110112901D01*
X190201524Y-110260110D01*
X190322845Y-110490000D01*
X191516000Y-110490000D01*
X191516000Y-110470000D01*
X191770000Y-110470000D01*
X191770000Y-110490000D01*
X192963155Y-110490000D01*
X193084476Y-110260110D01*
X193039825Y-110112901D01*
X192914641Y-109850080D01*
X192740588Y-109616731D01*
X192524355Y-109421822D01*
X192407466Y-109352195D01*
X192589632Y-109230475D01*
X192679707Y-109140400D01*
X192709534Y-109238729D01*
X192715454Y-109258246D01*
X192786026Y-109390276D01*
X192820296Y-109432034D01*
X192880999Y-109506001D01*
X192910003Y-109529804D01*
X193075196Y-109694997D01*
X193098999Y-109724001D01*
X193214724Y-109818974D01*
X193346753Y-109889546D01*
X193357094Y-109892683D01*
X193357629Y-109898113D01*
X193398207Y-110031881D01*
X193464102Y-110155162D01*
X193552782Y-110263218D01*
X193660838Y-110351898D01*
X193784119Y-110417793D01*
X193917887Y-110458371D01*
X194057000Y-110472072D01*
X195210999Y-110472072D01*
X195210999Y-110898176D01*
X195207323Y-110935499D01*
X195210999Y-110972821D01*
X195210999Y-110972831D01*
X195221996Y-111084484D01*
X195258546Y-111204975D01*
X195265453Y-111227745D01*
X195336025Y-111359775D01*
X195343928Y-111369405D01*
X195343928Y-111759000D01*
X195357629Y-111898113D01*
X195398207Y-112031881D01*
X195464102Y-112155162D01*
X195552782Y-112263218D01*
X195660838Y-112351898D01*
X195784119Y-112417793D01*
X195917887Y-112458371D01*
X196057000Y-112472072D01*
X196207000Y-112472072D01*
X196346113Y-112458371D01*
X196382000Y-112447485D01*
X196417887Y-112458371D01*
X196557000Y-112472072D01*
X196707000Y-112472072D01*
X196846113Y-112458371D01*
X196882000Y-112447485D01*
X196917887Y-112458371D01*
X197057000Y-112472072D01*
X197207000Y-112472072D01*
X197346113Y-112458371D01*
X197382000Y-112447485D01*
X197417887Y-112458371D01*
X197557000Y-112472072D01*
X197707000Y-112472072D01*
X197846113Y-112458371D01*
X197872000Y-112450518D01*
X197872000Y-112908675D01*
X197868324Y-112945998D01*
X197872000Y-112983320D01*
X197872000Y-112983330D01*
X197882997Y-113094983D01*
X197921127Y-113220684D01*
X197926454Y-113238244D01*
X197997026Y-113370274D01*
X198034707Y-113416188D01*
X198091999Y-113485999D01*
X198121003Y-113509802D01*
X199739091Y-115127890D01*
X199702589Y-115143010D01*
X199459368Y-115305525D01*
X199327513Y-115437380D01*
X199305502Y-115364820D01*
X199246537Y-115254506D01*
X199167185Y-115157815D01*
X199070494Y-115078463D01*
X198960180Y-115019498D01*
X198840482Y-114983188D01*
X198716000Y-114970928D01*
X197016000Y-114970928D01*
X196891518Y-114983188D01*
X196771820Y-115019498D01*
X196661506Y-115078463D01*
X196564815Y-115157815D01*
X196485463Y-115254506D01*
X196426498Y-115364820D01*
X196390188Y-115484518D01*
X196377928Y-115609000D01*
X196377928Y-117309000D01*
X196390188Y-117433482D01*
X196426498Y-117553180D01*
X196485463Y-117663494D01*
X196564815Y-117760185D01*
X196661506Y-117839537D01*
X196771820Y-117898502D01*
X196891518Y-117934812D01*
X197016000Y-117947072D01*
X198716000Y-117947072D01*
X198840482Y-117934812D01*
X198960180Y-117898502D01*
X199070494Y-117839537D01*
X199167185Y-117760185D01*
X199246537Y-117663494D01*
X199305502Y-117553180D01*
X199327513Y-117480620D01*
X199459368Y-117612475D01*
X199702589Y-117774990D01*
X199972842Y-117886932D01*
X200259740Y-117944000D01*
X200552260Y-117944000D01*
X200839158Y-117886932D01*
X201109411Y-117774990D01*
X201352632Y-117612475D01*
X201559475Y-117405632D01*
X201721990Y-117162411D01*
X201737109Y-117125909D01*
X202098928Y-117487728D01*
X202098928Y-117731250D01*
X202115392Y-117898408D01*
X202164150Y-118059142D01*
X202243329Y-118207275D01*
X202349885Y-118337115D01*
X202479725Y-118443671D01*
X202627858Y-118522850D01*
X202788592Y-118571608D01*
X202955750Y-118588072D01*
X203393250Y-118588072D01*
X203560408Y-118571608D01*
X203721142Y-118522850D01*
X203869275Y-118443671D01*
X203962000Y-118367574D01*
X204054725Y-118443671D01*
X204202858Y-118522850D01*
X204363592Y-118571608D01*
X204530750Y-118588072D01*
X204968250Y-118588072D01*
X205135408Y-118571608D01*
X205296142Y-118522850D01*
X205444275Y-118443671D01*
X205531592Y-118372013D01*
X205615058Y-118440512D01*
X205766433Y-118521423D01*
X205930684Y-118571248D01*
X206101500Y-118588072D01*
X206601500Y-118588072D01*
X206772316Y-118571248D01*
X206936567Y-118521423D01*
X207087942Y-118440512D01*
X207220623Y-118331623D01*
X207264000Y-118278768D01*
X207307377Y-118331623D01*
X207440058Y-118440512D01*
X207591433Y-118521423D01*
X207755684Y-118571248D01*
X207926500Y-118588072D01*
X208426500Y-118588072D01*
X208597316Y-118571248D01*
X208761567Y-118521423D01*
X208912942Y-118440512D01*
X209045623Y-118331623D01*
X209154512Y-118198942D01*
X209235423Y-118047567D01*
X209285248Y-117883316D01*
X209302072Y-117712500D01*
X209302072Y-117406046D01*
X212974016Y-117406047D01*
X214132003Y-118564035D01*
X214155797Y-118593028D01*
X214184790Y-118616822D01*
X214184795Y-118616827D01*
X214271522Y-118688002D01*
X214403551Y-118758574D01*
X214546812Y-118802031D01*
X214695798Y-118816705D01*
X214733140Y-118813027D01*
X216121301Y-118813029D01*
X222384818Y-118813029D01*
X223462795Y-119891008D01*
X223486589Y-119920001D01*
X223515582Y-119943795D01*
X223515586Y-119943799D01*
X223586275Y-120001811D01*
X223602314Y-120014974D01*
X223734343Y-120085546D01*
X223877604Y-120129003D01*
X223989257Y-120140000D01*
X223989266Y-120140000D01*
X224026589Y-120143676D01*
X224063912Y-120140000D01*
X236692088Y-120140000D01*
X236729410Y-120143676D01*
X236766732Y-120140000D01*
X236766743Y-120140000D01*
X236878396Y-120129003D01*
X237021657Y-120085546D01*
X237153686Y-120014974D01*
X237269411Y-119920001D01*
X237293214Y-119890998D01*
X238060212Y-119124000D01*
X247231678Y-119124000D01*
X247269000Y-119127676D01*
X247306322Y-119124000D01*
X247306333Y-119124000D01*
X247417986Y-119113003D01*
X247450725Y-119103072D01*
X248252000Y-119103072D01*
X248425254Y-119086008D01*
X248591850Y-119035472D01*
X248745386Y-118953405D01*
X248879962Y-118842962D01*
X248990405Y-118708386D01*
X249058726Y-118580566D01*
X249146684Y-118607248D01*
X249317500Y-118624072D01*
X249792500Y-118624072D01*
X249963316Y-118607248D01*
X250127567Y-118557423D01*
X250278942Y-118476512D01*
X250411623Y-118367623D01*
X250520512Y-118234942D01*
X250601423Y-118083567D01*
X250651248Y-117919316D01*
X250668072Y-117748500D01*
X250668072Y-117248500D01*
X250651248Y-117077684D01*
X250601423Y-116913433D01*
X250520512Y-116762058D01*
X250431188Y-116653217D01*
X250481185Y-116612185D01*
X250560537Y-116515494D01*
X250619502Y-116405180D01*
X250655812Y-116285482D01*
X250668072Y-116161000D01*
X250665000Y-115959250D01*
X250506250Y-115800500D01*
X249682000Y-115800500D01*
X249682000Y-115820500D01*
X249428000Y-115820500D01*
X249428000Y-115800500D01*
X249408000Y-115800500D01*
X249408000Y-115546500D01*
X249428000Y-115546500D01*
X249428000Y-115526500D01*
X249682000Y-115526500D01*
X249682000Y-115546500D01*
X250506250Y-115546500D01*
X250665000Y-115387750D01*
X250668072Y-115186000D01*
X250655812Y-115061518D01*
X250633229Y-114987072D01*
X252525000Y-114987072D01*
X252649482Y-114974812D01*
X252769180Y-114938502D01*
X252879494Y-114879537D01*
X252976185Y-114800185D01*
X253055537Y-114703494D01*
X253114502Y-114593180D01*
X253150812Y-114473482D01*
X253163072Y-114349000D01*
X253163072Y-110949000D01*
X253150812Y-110824518D01*
X253114502Y-110704820D01*
X253055537Y-110594506D01*
X252976185Y-110497815D01*
X252879494Y-110418463D01*
X252769180Y-110359498D01*
X252649482Y-110323188D01*
X252525000Y-110310928D01*
X250609201Y-110310928D01*
X250651248Y-110172316D01*
X250668072Y-110001500D01*
X250668072Y-109501500D01*
X250651248Y-109330684D01*
X250601423Y-109166433D01*
X250520512Y-109015058D01*
X250431188Y-108906217D01*
X250481185Y-108865185D01*
X250560537Y-108768494D01*
X250619502Y-108658180D01*
X250655812Y-108538482D01*
X250668072Y-108414000D01*
X250665000Y-108212250D01*
X250506250Y-108053500D01*
X249682000Y-108053500D01*
X249682000Y-108073500D01*
X249428000Y-108073500D01*
X249428000Y-108053500D01*
X249408000Y-108053500D01*
X249408000Y-107799500D01*
X249428000Y-107799500D01*
X249428000Y-106962750D01*
X249682000Y-106962750D01*
X249682000Y-107799500D01*
X250506250Y-107799500D01*
X250665000Y-107640750D01*
X250668072Y-107439000D01*
X250655812Y-107314518D01*
X250619502Y-107194820D01*
X250560537Y-107084506D01*
X250481185Y-106987815D01*
X250384494Y-106908463D01*
X250274180Y-106849498D01*
X250154482Y-106813188D01*
X250030000Y-106800928D01*
X249840750Y-106804000D01*
X249682000Y-106962750D01*
X249428000Y-106962750D01*
X249269250Y-106804000D01*
X249117504Y-106801537D01*
X249091502Y-106715820D01*
X249032537Y-106605506D01*
X249024019Y-106595127D01*
X249125000Y-106605072D01*
X252525000Y-106605072D01*
X252649482Y-106592812D01*
X252769180Y-106556502D01*
X252879494Y-106497537D01*
X252976185Y-106418185D01*
X253055537Y-106321494D01*
X253114502Y-106211180D01*
X253150812Y-106091482D01*
X253163072Y-105967000D01*
X253163072Y-102567000D01*
X253150812Y-102442518D01*
X253114502Y-102322820D01*
X253055537Y-102212506D01*
X252976185Y-102115815D01*
X252879494Y-102036463D01*
X252769180Y-101977498D01*
X252649482Y-101941188D01*
X252525000Y-101928928D01*
X250609201Y-101928928D01*
X250651248Y-101790316D01*
X250668072Y-101619500D01*
X250668072Y-101119500D01*
X250651248Y-100948684D01*
X250601423Y-100784433D01*
X250520512Y-100633058D01*
X250431188Y-100524217D01*
X250481185Y-100483185D01*
X250560537Y-100386494D01*
X250619502Y-100276180D01*
X250655812Y-100156482D01*
X250668072Y-100032000D01*
X250665000Y-99830250D01*
X250506250Y-99671500D01*
X249682000Y-99671500D01*
X249682000Y-99691500D01*
X249428000Y-99691500D01*
X249428000Y-99671500D01*
X249408000Y-99671500D01*
X249408000Y-99417500D01*
X249428000Y-99417500D01*
X249428000Y-98580750D01*
X249682000Y-98580750D01*
X249682000Y-99417500D01*
X250506250Y-99417500D01*
X250665000Y-99258750D01*
X250668072Y-99057000D01*
X250655812Y-98932518D01*
X250619502Y-98812820D01*
X250560537Y-98702506D01*
X250481185Y-98605815D01*
X250384494Y-98526463D01*
X250274180Y-98467498D01*
X250154482Y-98431188D01*
X250030000Y-98418928D01*
X249840750Y-98422000D01*
X249682000Y-98580750D01*
X249428000Y-98580750D01*
X249269250Y-98422000D01*
X249117504Y-98419537D01*
X249091502Y-98333820D01*
X249032537Y-98223506D01*
X248953185Y-98126815D01*
X248856494Y-98047463D01*
X248746180Y-97988498D01*
X248626482Y-97952188D01*
X248502000Y-97939928D01*
X248062750Y-97943000D01*
X247904000Y-98101750D01*
X247904000Y-99038500D01*
X247924000Y-99038500D01*
X247924000Y-99292500D01*
X247904000Y-99292500D01*
X247904000Y-99312500D01*
X247650000Y-99312500D01*
X247650000Y-99292500D01*
X247630000Y-99292500D01*
X247630000Y-99038500D01*
X247650000Y-99038500D01*
X247650000Y-98101750D01*
X247491250Y-97943000D01*
X247052000Y-97939928D01*
X246927518Y-97952188D01*
X246807820Y-97988498D01*
X246697506Y-98047463D01*
X246600815Y-98126815D01*
X246521463Y-98223506D01*
X246462498Y-98333820D01*
X246429533Y-98442491D01*
X246407316Y-98435752D01*
X246236500Y-98418928D01*
X245761500Y-98418928D01*
X245590684Y-98435752D01*
X245576804Y-98439963D01*
X245342072Y-98205231D01*
X245342072Y-97481653D01*
X245390611Y-97514086D01*
X245560771Y-97584568D01*
X245741411Y-97620500D01*
X245925589Y-97620500D01*
X246106229Y-97584568D01*
X246233750Y-97531748D01*
X246361271Y-97584568D01*
X246541911Y-97620500D01*
X246726089Y-97620500D01*
X246906729Y-97584568D01*
X247076889Y-97514086D01*
X247230028Y-97411762D01*
X247360262Y-97281528D01*
X247462586Y-97128389D01*
X247533068Y-96958229D01*
X247560465Y-96820499D01*
X248486928Y-96820499D01*
X248486928Y-97331000D01*
X248499188Y-97455482D01*
X248535498Y-97575180D01*
X248594463Y-97685494D01*
X248673815Y-97782185D01*
X248770506Y-97861537D01*
X248880820Y-97920502D01*
X249000518Y-97956812D01*
X249125000Y-97969072D01*
X252525000Y-97969072D01*
X252649482Y-97956812D01*
X252769180Y-97920502D01*
X252879494Y-97861537D01*
X252976185Y-97782185D01*
X253055537Y-97685494D01*
X253114502Y-97575180D01*
X253150812Y-97455482D01*
X253163072Y-97331000D01*
X253163072Y-93931000D01*
X253150812Y-93806518D01*
X253114502Y-93686820D01*
X253055537Y-93576506D01*
X252976185Y-93479815D01*
X252879494Y-93400463D01*
X252769180Y-93341498D01*
X252649482Y-93305188D01*
X252525000Y-93292928D01*
X249125000Y-93292928D01*
X249000518Y-93305188D01*
X248880820Y-93341498D01*
X248770506Y-93400463D01*
X248673815Y-93479815D01*
X248594463Y-93576506D01*
X248535498Y-93686820D01*
X248499188Y-93806518D01*
X248486928Y-93931000D01*
X248486928Y-94026499D01*
X245342072Y-94026499D01*
X245342072Y-92893000D01*
X245329812Y-92768518D01*
X245293502Y-92648820D01*
X245234537Y-92538506D01*
X245155185Y-92441815D01*
X245058494Y-92362463D01*
X244948180Y-92303498D01*
X244828482Y-92267188D01*
X244704000Y-92254928D01*
X237704000Y-92254928D01*
X237579518Y-92267188D01*
X237459820Y-92303498D01*
X237349506Y-92362463D01*
X237252815Y-92441815D01*
X237173463Y-92538506D01*
X237114498Y-92648820D01*
X237078188Y-92768518D01*
X237065928Y-92893000D01*
X237065928Y-92900289D01*
X237039964Y-92851714D01*
X236944991Y-92735989D01*
X236915992Y-92712191D01*
X236275803Y-92072002D01*
X236252001Y-92042999D01*
X236136276Y-91948026D01*
X236004247Y-91877454D01*
X235860986Y-91833997D01*
X235749333Y-91823000D01*
X235749322Y-91823000D01*
X235712000Y-91819324D01*
X235674678Y-91823000D01*
X231534825Y-91823000D01*
X231497500Y-91819324D01*
X231460175Y-91823000D01*
X231460167Y-91823000D01*
X231348514Y-91833997D01*
X231205253Y-91877454D01*
X231073224Y-91948026D01*
X230957499Y-92042999D01*
X230933701Y-92071998D01*
X230809770Y-92195928D01*
X230521500Y-92195928D01*
X230350684Y-92212752D01*
X230186433Y-92262577D01*
X230035058Y-92343488D01*
X229902377Y-92452377D01*
X229793488Y-92585058D01*
X229712577Y-92736433D01*
X229662752Y-92900684D01*
X229645928Y-93071500D01*
X229645928Y-93571500D01*
X229662752Y-93742316D01*
X229712577Y-93906567D01*
X229793488Y-94057942D01*
X229902377Y-94190623D01*
X229955232Y-94234000D01*
X229902377Y-94277377D01*
X229793488Y-94410058D01*
X229712577Y-94561433D01*
X229662752Y-94725684D01*
X229645928Y-94896500D01*
X229645928Y-95396500D01*
X229662752Y-95567316D01*
X229686979Y-95647181D01*
X229673232Y-95660928D01*
X229302500Y-95660928D01*
X229131684Y-95677752D01*
X228967433Y-95727577D01*
X228816058Y-95808488D01*
X228707217Y-95897812D01*
X228666185Y-95847815D01*
X228569494Y-95768463D01*
X228459180Y-95709498D01*
X228339482Y-95673188D01*
X228215000Y-95660928D01*
X228013250Y-95664000D01*
X227854500Y-95822750D01*
X227854500Y-96647000D01*
X227874500Y-96647000D01*
X227874500Y-96901000D01*
X227854500Y-96901000D01*
X227854500Y-97725250D01*
X228013250Y-97884000D01*
X228215000Y-97887072D01*
X228339482Y-97874812D01*
X228459180Y-97838502D01*
X228569494Y-97779537D01*
X228666185Y-97700185D01*
X228707217Y-97650188D01*
X228816058Y-97739512D01*
X228967433Y-97820423D01*
X229131684Y-97870248D01*
X229302500Y-97887072D01*
X229802500Y-97887072D01*
X229973316Y-97870248D01*
X230137567Y-97820423D01*
X230255873Y-97757187D01*
X230387687Y-97717202D01*
X230470383Y-97673000D01*
X231415928Y-97673000D01*
X231419000Y-98387250D01*
X231577750Y-98546000D01*
X233677000Y-98546000D01*
X233677000Y-97196750D01*
X233518250Y-97038000D01*
X232054000Y-97034928D01*
X231929518Y-97047188D01*
X231809820Y-97083498D01*
X231699506Y-97142463D01*
X231602815Y-97221815D01*
X231523463Y-97318506D01*
X231464498Y-97428820D01*
X231428188Y-97548518D01*
X231415928Y-97673000D01*
X230470383Y-97673000D01*
X230564190Y-97622860D01*
X230718896Y-97495896D01*
X230750712Y-97457128D01*
X231696133Y-96511708D01*
X231734896Y-96479896D01*
X231861860Y-96325190D01*
X231948819Y-96162500D01*
X232573598Y-96162500D01*
X232623500Y-96167415D01*
X232673402Y-96162500D01*
X232822671Y-96147798D01*
X233014187Y-96089702D01*
X233190690Y-95995360D01*
X233345396Y-95868396D01*
X233377212Y-95829628D01*
X233475768Y-95731072D01*
X235554000Y-95731072D01*
X235644991Y-95722110D01*
X235644991Y-97043890D01*
X235554000Y-97034928D01*
X234089750Y-97038000D01*
X233931000Y-97196750D01*
X233931000Y-98546000D01*
X233951000Y-98546000D01*
X233951000Y-98800000D01*
X233931000Y-98800000D01*
X233931000Y-100149250D01*
X234089750Y-100308000D01*
X235554000Y-100311072D01*
X235644991Y-100302110D01*
X235644991Y-101217928D01*
X233729769Y-101217928D01*
X232821302Y-100309462D01*
X233518250Y-100308000D01*
X233677000Y-100149250D01*
X233677000Y-98800000D01*
X231577750Y-98800000D01*
X231419000Y-98958750D01*
X231416380Y-99568000D01*
X228813009Y-99568000D01*
X228843248Y-99468316D01*
X228860072Y-99297500D01*
X228860072Y-98822500D01*
X228843248Y-98651684D01*
X228793423Y-98487433D01*
X228712512Y-98336058D01*
X228603623Y-98203377D01*
X228470942Y-98094488D01*
X228319567Y-98013577D01*
X228155316Y-97963752D01*
X227984500Y-97946928D01*
X227484500Y-97946928D01*
X227313684Y-97963752D01*
X227149433Y-98013577D01*
X226998058Y-98094488D01*
X226889217Y-98183812D01*
X226848185Y-98133815D01*
X226751494Y-98054463D01*
X226641180Y-97995498D01*
X226521482Y-97959188D01*
X226397000Y-97946928D01*
X226195250Y-97950000D01*
X226036500Y-98108750D01*
X226036500Y-98933000D01*
X226056500Y-98933000D01*
X226056500Y-99187000D01*
X226036500Y-99187000D01*
X226036500Y-99207000D01*
X225782500Y-99207000D01*
X225782500Y-99187000D01*
X224945750Y-99187000D01*
X224857250Y-99275500D01*
X223520000Y-99275500D01*
X223520000Y-100287250D01*
X223678750Y-100446000D01*
X224743000Y-100449072D01*
X224783928Y-100445041D01*
X224783928Y-100821500D01*
X224800752Y-100992316D01*
X224813606Y-101034690D01*
X224666256Y-100989992D01*
X224493002Y-100972928D01*
X223338199Y-100972928D01*
X223273171Y-100953202D01*
X223123902Y-100938500D01*
X223074000Y-100933585D01*
X223024098Y-100938500D01*
X222066549Y-100938500D01*
X222080812Y-100891482D01*
X222093072Y-100767000D01*
X222090000Y-100515250D01*
X222021727Y-100446977D01*
X222043000Y-100449072D01*
X223107250Y-100446000D01*
X223266000Y-100287250D01*
X223266000Y-99275500D01*
X223246000Y-99275500D01*
X223246000Y-99021500D01*
X223266000Y-99021500D01*
X223266000Y-98009750D01*
X223520000Y-98009750D01*
X223520000Y-99021500D01*
X225219250Y-99021500D01*
X225307750Y-98933000D01*
X225782500Y-98933000D01*
X225782500Y-98108750D01*
X225623750Y-97950000D01*
X225422000Y-97946928D01*
X225297518Y-97959188D01*
X225177820Y-97995498D01*
X225158718Y-98005708D01*
X225097494Y-97955463D01*
X224987180Y-97896498D01*
X224867482Y-97860188D01*
X224743000Y-97847928D01*
X223678750Y-97851000D01*
X223520000Y-98009750D01*
X223266000Y-98009750D01*
X223107250Y-97851000D01*
X222043000Y-97847928D01*
X221918518Y-97860188D01*
X221798820Y-97896498D01*
X221688506Y-97955463D01*
X221591815Y-98034815D01*
X221512463Y-98131506D01*
X221453498Y-98241820D01*
X221417188Y-98361518D01*
X221404928Y-98486000D01*
X221408000Y-98862750D01*
X221566748Y-99021498D01*
X221408000Y-99021498D01*
X221408000Y-99054691D01*
X221265750Y-99057000D01*
X221107000Y-99215750D01*
X221107000Y-100102500D01*
X221127000Y-100102500D01*
X221127000Y-100356500D01*
X221107000Y-100356500D01*
X221107000Y-100376500D01*
X220853000Y-100376500D01*
X220853000Y-100356500D01*
X220833000Y-100356500D01*
X220833000Y-100102500D01*
X220853000Y-100102500D01*
X220853000Y-99215750D01*
X220694250Y-99057000D01*
X220505000Y-99053928D01*
X220380518Y-99066188D01*
X220350940Y-99075160D01*
X220334248Y-98905684D01*
X220284423Y-98741433D01*
X220203512Y-98590058D01*
X220094623Y-98457377D01*
X219961942Y-98348488D01*
X219810567Y-98267577D01*
X219646316Y-98217752D01*
X219475500Y-98200928D01*
X218875500Y-98200928D01*
X218704684Y-98217752D01*
X218540433Y-98267577D01*
X218390394Y-98347774D01*
X218342494Y-98308463D01*
X218232180Y-98249498D01*
X218112482Y-98213188D01*
X217988000Y-98200928D01*
X217736250Y-98204000D01*
X217577500Y-98362750D01*
X217577500Y-99187000D01*
X217597500Y-99187000D01*
X217597500Y-99441000D01*
X217577500Y-99441000D01*
X217577500Y-100265250D01*
X217736250Y-100424000D01*
X217740544Y-100424052D01*
X217728928Y-100542000D01*
X217728928Y-100665000D01*
X217585911Y-100665000D01*
X217405271Y-100700932D01*
X217235111Y-100771414D01*
X217081972Y-100873738D01*
X216951738Y-101003972D01*
X216849414Y-101157111D01*
X216778932Y-101327271D01*
X216743000Y-101507911D01*
X216743000Y-101692089D01*
X216778932Y-101872729D01*
X216830982Y-101998390D01*
X216727111Y-102041414D01*
X216573972Y-102143738D01*
X216443738Y-102273972D01*
X216341414Y-102427111D01*
X216270932Y-102597271D01*
X216235000Y-102777911D01*
X216235000Y-102962089D01*
X216270932Y-103142729D01*
X216341414Y-103312889D01*
X216342490Y-103314500D01*
X216341414Y-103316111D01*
X216270932Y-103486271D01*
X216242171Y-103630859D01*
X215677750Y-103632000D01*
X215519000Y-103790750D01*
X215519000Y-107315000D01*
X215539000Y-107315000D01*
X215539000Y-107569000D01*
X215519000Y-107569000D01*
X215519000Y-107589000D01*
X215265000Y-107589000D01*
X215265000Y-107569000D01*
X215245000Y-107569000D01*
X215245000Y-107315000D01*
X215265000Y-107315000D01*
X215265000Y-103790750D01*
X215106250Y-103632000D01*
X213698877Y-103629154D01*
X216414543Y-100913489D01*
X216443540Y-100889692D01*
X216487339Y-100836323D01*
X216538513Y-100773968D01*
X216609085Y-100641938D01*
X216613252Y-100628201D01*
X216652542Y-100498677D01*
X216663539Y-100387024D01*
X216663539Y-100387014D01*
X216664600Y-100376246D01*
X216668820Y-100378502D01*
X216788518Y-100414812D01*
X216913000Y-100427072D01*
X217164750Y-100424000D01*
X217323500Y-100265250D01*
X217323500Y-99441000D01*
X217303500Y-99441000D01*
X217303500Y-99187000D01*
X217323500Y-99187000D01*
X217323500Y-98362750D01*
X217164750Y-98204000D01*
X216913000Y-98200928D01*
X216788518Y-98213188D01*
X216668820Y-98249498D01*
X216663539Y-98252321D01*
X216663539Y-97249000D01*
X226601928Y-97249000D01*
X226614188Y-97373482D01*
X226650498Y-97493180D01*
X226709463Y-97603494D01*
X226788815Y-97700185D01*
X226885506Y-97779537D01*
X226995820Y-97838502D01*
X227115518Y-97874812D01*
X227240000Y-97887072D01*
X227441750Y-97884000D01*
X227600500Y-97725250D01*
X227600500Y-96901000D01*
X226763750Y-96901000D01*
X226605000Y-97059750D01*
X226601928Y-97249000D01*
X216663539Y-97249000D01*
X216663539Y-96299000D01*
X226601928Y-96299000D01*
X226605000Y-96488250D01*
X226763750Y-96647000D01*
X227600500Y-96647000D01*
X227600500Y-95822750D01*
X227441750Y-95664000D01*
X227240000Y-95660928D01*
X227115518Y-95673188D01*
X226995820Y-95709498D01*
X226885506Y-95768463D01*
X226788815Y-95847815D01*
X226709463Y-95944506D01*
X226650498Y-96054820D01*
X226614188Y-96174518D01*
X226601928Y-96299000D01*
X216663539Y-96299000D01*
X216663539Y-94781451D01*
X216667215Y-94744128D01*
X216663539Y-94706805D01*
X216663539Y-94706796D01*
X216652542Y-94595143D01*
X216609085Y-94451882D01*
X216538513Y-94319853D01*
X216443540Y-94204128D01*
X216414542Y-94180330D01*
X214940509Y-92706298D01*
X214916706Y-92677294D01*
X214800981Y-92582321D01*
X214668952Y-92511749D01*
X214525691Y-92468292D01*
X214414038Y-92457295D01*
X214414027Y-92457295D01*
X214376705Y-92453619D01*
X214339383Y-92457295D01*
X209842028Y-92457295D01*
X209804705Y-92453619D01*
X209767382Y-92457295D01*
X209767372Y-92457295D01*
X209655719Y-92468292D01*
X209512458Y-92511749D01*
X209380428Y-92582321D01*
X209308909Y-92641016D01*
X209264704Y-92677294D01*
X209240906Y-92706292D01*
X207683271Y-94263928D01*
X207625500Y-94263928D01*
X207454684Y-94280752D01*
X207290433Y-94330577D01*
X207139058Y-94411488D01*
X207006377Y-94520377D01*
X206927080Y-94617000D01*
X206791923Y-94617000D01*
X206754590Y-94613323D01*
X206717257Y-94617000D01*
X206605604Y-94627997D01*
X206462343Y-94671454D01*
X206330314Y-94742026D01*
X206214589Y-94836999D01*
X206190791Y-94865997D01*
X204755847Y-96300942D01*
X204559667Y-96300942D01*
X204559647Y-96300944D01*
X199902897Y-96300944D01*
X200501134Y-95702707D01*
X200539897Y-95670895D01*
X200666861Y-95516189D01*
X200761203Y-95339686D01*
X200819299Y-95148170D01*
X200834001Y-94998901D01*
X200834001Y-94998900D01*
X200838916Y-94948999D01*
X200834001Y-94899097D01*
X200834001Y-94366185D01*
X200877774Y-94336937D01*
X201021937Y-94192774D01*
X201135205Y-94023256D01*
X201213226Y-93834898D01*
X201253000Y-93634939D01*
X201253000Y-93431061D01*
X201213226Y-93231102D01*
X201135205Y-93042744D01*
X201021937Y-92873226D01*
X200877774Y-92729063D01*
X200708256Y-92615795D01*
X200519898Y-92537774D01*
X200319939Y-92498000D01*
X200116061Y-92498000D01*
X199916102Y-92537774D01*
X199727744Y-92615795D01*
X199558226Y-92729063D01*
X199414063Y-92873226D01*
X199359954Y-92954206D01*
X199134869Y-93179291D01*
X199096106Y-93211103D01*
X198969142Y-93365809D01*
X198892316Y-93509541D01*
X198874800Y-93542312D01*
X198816703Y-93733829D01*
X198797086Y-93932999D01*
X198802002Y-93982910D01*
X198802001Y-94528158D01*
X198044899Y-95285260D01*
X197978512Y-95161058D01*
X197895165Y-95059500D01*
X197978512Y-94957942D01*
X198059423Y-94806567D01*
X198109248Y-94642316D01*
X198126072Y-94471500D01*
X198126072Y-93996500D01*
X198109248Y-93825684D01*
X198059423Y-93661433D01*
X197978512Y-93510058D01*
X197869623Y-93377377D01*
X197736942Y-93268488D01*
X197585567Y-93187577D01*
X197421316Y-93137752D01*
X197250500Y-93120928D01*
X196750500Y-93120928D01*
X196579684Y-93137752D01*
X196415433Y-93187577D01*
X196264058Y-93268488D01*
X196131377Y-93377377D01*
X196088000Y-93430232D01*
X196044623Y-93377377D01*
X195911942Y-93268488D01*
X195760567Y-93187577D01*
X195596316Y-93137752D01*
X195425500Y-93120928D01*
X194925500Y-93120928D01*
X194754684Y-93137752D01*
X194590433Y-93187577D01*
X194439058Y-93268488D01*
X194306377Y-93377377D01*
X194280835Y-93408500D01*
X193969550Y-93408500D01*
X193929000Y-93404506D01*
X193888449Y-93408500D01*
X193888447Y-93408500D01*
X193767174Y-93420444D01*
X193613419Y-93467085D01*
X193611566Y-93467647D01*
X193468157Y-93544301D01*
X193464956Y-93546928D01*
X190578000Y-93546928D01*
X190453518Y-93559188D01*
X190333820Y-93595498D01*
X190223506Y-93654463D01*
X190126815Y-93733815D01*
X190047463Y-93830506D01*
X189988498Y-93940820D01*
X189952188Y-94060518D01*
X189939928Y-94185000D01*
X189915000Y-94185000D01*
X189915000Y-91744000D01*
X253188001Y-91744000D01*
X253188000Y-120219000D01*
G04 #@! TA.AperFunction,Conductor*
D26*
G36*
X253188000Y-120219000D02*
G01*
X189915000Y-120219000D01*
X189915000Y-117905000D01*
X189939928Y-117905000D01*
X189952188Y-118029482D01*
X189988498Y-118149180D01*
X190047463Y-118259494D01*
X190126815Y-118356185D01*
X190223506Y-118435537D01*
X190333820Y-118494502D01*
X190453518Y-118530812D01*
X190578000Y-118543072D01*
X191992250Y-118540000D01*
X192151000Y-118381250D01*
X192151000Y-116332000D01*
X192405000Y-116332000D01*
X192405000Y-118381250D01*
X192563750Y-118540000D01*
X193978000Y-118543072D01*
X194102482Y-118530812D01*
X194222180Y-118494502D01*
X194332494Y-118435537D01*
X194429185Y-118356185D01*
X194508537Y-118259494D01*
X194567502Y-118149180D01*
X194603812Y-118029482D01*
X194616072Y-117905000D01*
X194613000Y-116490750D01*
X194454250Y-116332000D01*
X192405000Y-116332000D01*
X192151000Y-116332000D01*
X190101750Y-116332000D01*
X189943000Y-116490750D01*
X189939928Y-117905000D01*
X189915000Y-117905000D01*
X189915000Y-114505000D01*
X189939928Y-114505000D01*
X189943000Y-115919250D01*
X190101750Y-116078000D01*
X192151000Y-116078000D01*
X192151000Y-114028750D01*
X192405000Y-114028750D01*
X192405000Y-116078000D01*
X194454250Y-116078000D01*
X194613000Y-115919250D01*
X194615501Y-114768053D01*
X194672271Y-114791568D01*
X194852911Y-114827500D01*
X195037089Y-114827500D01*
X195217729Y-114791568D01*
X195387889Y-114721086D01*
X195541028Y-114618762D01*
X195671262Y-114488528D01*
X195773586Y-114335389D01*
X195844068Y-114165229D01*
X195880000Y-113984589D01*
X195880000Y-113800411D01*
X195844068Y-113619771D01*
X195773586Y-113449611D01*
X195671262Y-113296472D01*
X195541028Y-113166238D01*
X195387889Y-113063914D01*
X195217729Y-112993432D01*
X195037089Y-112957500D01*
X194852911Y-112957500D01*
X194672271Y-112993432D01*
X194502111Y-113063914D01*
X194348972Y-113166238D01*
X194218738Y-113296472D01*
X194116414Y-113449611D01*
X194045932Y-113619771D01*
X194010000Y-113800411D01*
X194010000Y-113870080D01*
X193978000Y-113866928D01*
X192563750Y-113870000D01*
X192405000Y-114028750D01*
X192151000Y-114028750D01*
X191992250Y-113870000D01*
X190578000Y-113866928D01*
X190453518Y-113879188D01*
X190333820Y-113915498D01*
X190223506Y-113974463D01*
X190126815Y-114053815D01*
X190047463Y-114150506D01*
X189988498Y-114260820D01*
X189952188Y-114380518D01*
X189939928Y-114505000D01*
X189915000Y-114505000D01*
X189915000Y-110973890D01*
X190201524Y-110973890D01*
X190246175Y-111121099D01*
X190371359Y-111383920D01*
X190545412Y-111617269D01*
X190761645Y-111812178D01*
X191011748Y-111961157D01*
X191286109Y-112058481D01*
X191516000Y-111937814D01*
X191516000Y-110744000D01*
X191770000Y-110744000D01*
X191770000Y-111937814D01*
X191999891Y-112058481D01*
X192274252Y-111961157D01*
X192524355Y-111812178D01*
X192740588Y-111617269D01*
X192914641Y-111383920D01*
X193039825Y-111121099D01*
X193084476Y-110973890D01*
X192963155Y-110744000D01*
X191770000Y-110744000D01*
X191516000Y-110744000D01*
X190322845Y-110744000D01*
X190201524Y-110973890D01*
X189915000Y-110973890D01*
X189915000Y-94185000D01*
X189939928Y-94185000D01*
X189939928Y-97585000D01*
X189952188Y-97709482D01*
X189988498Y-97829180D01*
X190047463Y-97939494D01*
X190126815Y-98036185D01*
X190223506Y-98115537D01*
X190333820Y-98174502D01*
X190453518Y-98210812D01*
X190578000Y-98223072D01*
X192736036Y-98223072D01*
X192733498Y-98227820D01*
X192697188Y-98347518D01*
X192684928Y-98472000D01*
X192684928Y-99172000D01*
X192697188Y-99296482D01*
X192733498Y-99416180D01*
X192788000Y-99518145D01*
X192788000Y-99837000D01*
X192770998Y-99837000D01*
X192770998Y-99966748D01*
X192641250Y-99837000D01*
X192533674Y-99849325D01*
X192414873Y-99888471D01*
X192305992Y-99950041D01*
X192211215Y-100031670D01*
X192144802Y-100116635D01*
X192112942Y-100090488D01*
X191961567Y-100009577D01*
X191797316Y-99959752D01*
X191626500Y-99942928D01*
X191151500Y-99942928D01*
X190980684Y-99959752D01*
X190816433Y-100009577D01*
X190665058Y-100090488D01*
X190532377Y-100199377D01*
X190423488Y-100332058D01*
X190342577Y-100483433D01*
X190292752Y-100647684D01*
X190275928Y-100818500D01*
X190275928Y-101318500D01*
X190292752Y-101489316D01*
X190342577Y-101653567D01*
X190423488Y-101804942D01*
X190532377Y-101937623D01*
X190585232Y-101981000D01*
X190532377Y-102024377D01*
X190423488Y-102157058D01*
X190342577Y-102308433D01*
X190292752Y-102472684D01*
X190275928Y-102643500D01*
X190275928Y-103143500D01*
X190292752Y-103314316D01*
X190342577Y-103478567D01*
X190373000Y-103535485D01*
X190373001Y-104210222D01*
X190341815Y-104235815D01*
X190262463Y-104332506D01*
X190203498Y-104442820D01*
X190167188Y-104562518D01*
X190154928Y-104687000D01*
X190154928Y-106387000D01*
X190167188Y-106511482D01*
X190203498Y-106631180D01*
X190262463Y-106741494D01*
X190341815Y-106838185D01*
X190438506Y-106917537D01*
X190548820Y-106976502D01*
X190621380Y-106998513D01*
X190489525Y-107130368D01*
X190327010Y-107373589D01*
X190215068Y-107643842D01*
X190158000Y-107930740D01*
X190158000Y-108223260D01*
X190215068Y-108510158D01*
X190327010Y-108780411D01*
X190489525Y-109023632D01*
X190696368Y-109230475D01*
X190878534Y-109352195D01*
X190761645Y-109421822D01*
X190545412Y-109616731D01*
X190371359Y-109850080D01*
X190246175Y-110112901D01*
X190201524Y-110260110D01*
X190322845Y-110490000D01*
X191516000Y-110490000D01*
X191516000Y-110470000D01*
X191770000Y-110470000D01*
X191770000Y-110490000D01*
X192963155Y-110490000D01*
X193084476Y-110260110D01*
X193039825Y-110112901D01*
X192914641Y-109850080D01*
X192740588Y-109616731D01*
X192524355Y-109421822D01*
X192407466Y-109352195D01*
X192589632Y-109230475D01*
X192679707Y-109140400D01*
X192709534Y-109238729D01*
X192715454Y-109258246D01*
X192786026Y-109390276D01*
X192820296Y-109432034D01*
X192880999Y-109506001D01*
X192910003Y-109529804D01*
X193075196Y-109694997D01*
X193098999Y-109724001D01*
X193214724Y-109818974D01*
X193346753Y-109889546D01*
X193357094Y-109892683D01*
X193357629Y-109898113D01*
X193398207Y-110031881D01*
X193464102Y-110155162D01*
X193552782Y-110263218D01*
X193660838Y-110351898D01*
X193784119Y-110417793D01*
X193917887Y-110458371D01*
X194057000Y-110472072D01*
X195210999Y-110472072D01*
X195210999Y-110898176D01*
X195207323Y-110935499D01*
X195210999Y-110972821D01*
X195210999Y-110972831D01*
X195221996Y-111084484D01*
X195258546Y-111204975D01*
X195265453Y-111227745D01*
X195336025Y-111359775D01*
X195343928Y-111369405D01*
X195343928Y-111759000D01*
X195357629Y-111898113D01*
X195398207Y-112031881D01*
X195464102Y-112155162D01*
X195552782Y-112263218D01*
X195660838Y-112351898D01*
X195784119Y-112417793D01*
X195917887Y-112458371D01*
X196057000Y-112472072D01*
X196207000Y-112472072D01*
X196346113Y-112458371D01*
X196382000Y-112447485D01*
X196417887Y-112458371D01*
X196557000Y-112472072D01*
X196707000Y-112472072D01*
X196846113Y-112458371D01*
X196882000Y-112447485D01*
X196917887Y-112458371D01*
X197057000Y-112472072D01*
X197207000Y-112472072D01*
X197346113Y-112458371D01*
X197382000Y-112447485D01*
X197417887Y-112458371D01*
X197557000Y-112472072D01*
X197707000Y-112472072D01*
X197846113Y-112458371D01*
X197872000Y-112450518D01*
X197872000Y-112908675D01*
X197868324Y-112945998D01*
X197872000Y-112983320D01*
X197872000Y-112983330D01*
X197882997Y-113094983D01*
X197921127Y-113220684D01*
X197926454Y-113238244D01*
X197997026Y-113370274D01*
X198034707Y-113416188D01*
X198091999Y-113485999D01*
X198121003Y-113509802D01*
X199739091Y-115127890D01*
X199702589Y-115143010D01*
X199459368Y-115305525D01*
X199327513Y-115437380D01*
X199305502Y-115364820D01*
X199246537Y-115254506D01*
X199167185Y-115157815D01*
X199070494Y-115078463D01*
X198960180Y-115019498D01*
X198840482Y-114983188D01*
X198716000Y-114970928D01*
X197016000Y-114970928D01*
X196891518Y-114983188D01*
X196771820Y-115019498D01*
X196661506Y-115078463D01*
X196564815Y-115157815D01*
X196485463Y-115254506D01*
X196426498Y-115364820D01*
X196390188Y-115484518D01*
X196377928Y-115609000D01*
X196377928Y-117309000D01*
X196390188Y-117433482D01*
X196426498Y-117553180D01*
X196485463Y-117663494D01*
X196564815Y-117760185D01*
X196661506Y-117839537D01*
X196771820Y-117898502D01*
X196891518Y-117934812D01*
X197016000Y-117947072D01*
X198716000Y-117947072D01*
X198840482Y-117934812D01*
X198960180Y-117898502D01*
X199070494Y-117839537D01*
X199167185Y-117760185D01*
X199246537Y-117663494D01*
X199305502Y-117553180D01*
X199327513Y-117480620D01*
X199459368Y-117612475D01*
X199702589Y-117774990D01*
X199972842Y-117886932D01*
X200259740Y-117944000D01*
X200552260Y-117944000D01*
X200839158Y-117886932D01*
X201109411Y-117774990D01*
X201352632Y-117612475D01*
X201559475Y-117405632D01*
X201721990Y-117162411D01*
X201737109Y-117125909D01*
X202098928Y-117487728D01*
X202098928Y-117731250D01*
X202115392Y-117898408D01*
X202164150Y-118059142D01*
X202243329Y-118207275D01*
X202349885Y-118337115D01*
X202479725Y-118443671D01*
X202627858Y-118522850D01*
X202788592Y-118571608D01*
X202955750Y-118588072D01*
X203393250Y-118588072D01*
X203560408Y-118571608D01*
X203721142Y-118522850D01*
X203869275Y-118443671D01*
X203962000Y-118367574D01*
X204054725Y-118443671D01*
X204202858Y-118522850D01*
X204363592Y-118571608D01*
X204530750Y-118588072D01*
X204968250Y-118588072D01*
X205135408Y-118571608D01*
X205296142Y-118522850D01*
X205444275Y-118443671D01*
X205531592Y-118372013D01*
X205615058Y-118440512D01*
X205766433Y-118521423D01*
X205930684Y-118571248D01*
X206101500Y-118588072D01*
X206601500Y-118588072D01*
X206772316Y-118571248D01*
X206936567Y-118521423D01*
X207087942Y-118440512D01*
X207220623Y-118331623D01*
X207264000Y-118278768D01*
X207307377Y-118331623D01*
X207440058Y-118440512D01*
X207591433Y-118521423D01*
X207755684Y-118571248D01*
X207926500Y-118588072D01*
X208426500Y-118588072D01*
X208597316Y-118571248D01*
X208761567Y-118521423D01*
X208912942Y-118440512D01*
X209045623Y-118331623D01*
X209154512Y-118198942D01*
X209235423Y-118047567D01*
X209285248Y-117883316D01*
X209302072Y-117712500D01*
X209302072Y-117406046D01*
X212974016Y-117406047D01*
X214132003Y-118564035D01*
X214155797Y-118593028D01*
X214184790Y-118616822D01*
X214184795Y-118616827D01*
X214271522Y-118688002D01*
X214403551Y-118758574D01*
X214546812Y-118802031D01*
X214695798Y-118816705D01*
X214733140Y-118813027D01*
X216121301Y-118813029D01*
X222384818Y-118813029D01*
X223462795Y-119891008D01*
X223486589Y-119920001D01*
X223515582Y-119943795D01*
X223515586Y-119943799D01*
X223586275Y-120001811D01*
X223602314Y-120014974D01*
X223734343Y-120085546D01*
X223877604Y-120129003D01*
X223989257Y-120140000D01*
X223989266Y-120140000D01*
X224026589Y-120143676D01*
X224063912Y-120140000D01*
X236692088Y-120140000D01*
X236729410Y-120143676D01*
X236766732Y-120140000D01*
X236766743Y-120140000D01*
X236878396Y-120129003D01*
X237021657Y-120085546D01*
X237153686Y-120014974D01*
X237269411Y-119920001D01*
X237293214Y-119890998D01*
X238060212Y-119124000D01*
X247231678Y-119124000D01*
X247269000Y-119127676D01*
X247306322Y-119124000D01*
X247306333Y-119124000D01*
X247417986Y-119113003D01*
X247450725Y-119103072D01*
X248252000Y-119103072D01*
X248425254Y-119086008D01*
X248591850Y-119035472D01*
X248745386Y-118953405D01*
X248879962Y-118842962D01*
X248990405Y-118708386D01*
X249058726Y-118580566D01*
X249146684Y-118607248D01*
X249317500Y-118624072D01*
X249792500Y-118624072D01*
X249963316Y-118607248D01*
X250127567Y-118557423D01*
X250278942Y-118476512D01*
X250411623Y-118367623D01*
X250520512Y-118234942D01*
X250601423Y-118083567D01*
X250651248Y-117919316D01*
X250668072Y-117748500D01*
X250668072Y-117248500D01*
X250651248Y-117077684D01*
X250601423Y-116913433D01*
X250520512Y-116762058D01*
X250431188Y-116653217D01*
X250481185Y-116612185D01*
X250560537Y-116515494D01*
X250619502Y-116405180D01*
X250655812Y-116285482D01*
X250668072Y-116161000D01*
X250665000Y-115959250D01*
X250506250Y-115800500D01*
X249682000Y-115800500D01*
X249682000Y-115820500D01*
X249428000Y-115820500D01*
X249428000Y-115800500D01*
X249408000Y-115800500D01*
X249408000Y-115546500D01*
X249428000Y-115546500D01*
X249428000Y-115526500D01*
X249682000Y-115526500D01*
X249682000Y-115546500D01*
X250506250Y-115546500D01*
X250665000Y-115387750D01*
X250668072Y-115186000D01*
X250655812Y-115061518D01*
X250633229Y-114987072D01*
X252525000Y-114987072D01*
X252649482Y-114974812D01*
X252769180Y-114938502D01*
X252879494Y-114879537D01*
X252976185Y-114800185D01*
X253055537Y-114703494D01*
X253114502Y-114593180D01*
X253150812Y-114473482D01*
X253163072Y-114349000D01*
X253163072Y-110949000D01*
X253150812Y-110824518D01*
X253114502Y-110704820D01*
X253055537Y-110594506D01*
X252976185Y-110497815D01*
X252879494Y-110418463D01*
X252769180Y-110359498D01*
X252649482Y-110323188D01*
X252525000Y-110310928D01*
X250609201Y-110310928D01*
X250651248Y-110172316D01*
X250668072Y-110001500D01*
X250668072Y-109501500D01*
X250651248Y-109330684D01*
X250601423Y-109166433D01*
X250520512Y-109015058D01*
X250431188Y-108906217D01*
X250481185Y-108865185D01*
X250560537Y-108768494D01*
X250619502Y-108658180D01*
X250655812Y-108538482D01*
X250668072Y-108414000D01*
X250665000Y-108212250D01*
X250506250Y-108053500D01*
X249682000Y-108053500D01*
X249682000Y-108073500D01*
X249428000Y-108073500D01*
X249428000Y-108053500D01*
X249408000Y-108053500D01*
X249408000Y-107799500D01*
X249428000Y-107799500D01*
X249428000Y-106962750D01*
X249682000Y-106962750D01*
X249682000Y-107799500D01*
X250506250Y-107799500D01*
X250665000Y-107640750D01*
X250668072Y-107439000D01*
X250655812Y-107314518D01*
X250619502Y-107194820D01*
X250560537Y-107084506D01*
X250481185Y-106987815D01*
X250384494Y-106908463D01*
X250274180Y-106849498D01*
X250154482Y-106813188D01*
X250030000Y-106800928D01*
X249840750Y-106804000D01*
X249682000Y-106962750D01*
X249428000Y-106962750D01*
X249269250Y-106804000D01*
X249117504Y-106801537D01*
X249091502Y-106715820D01*
X249032537Y-106605506D01*
X249024019Y-106595127D01*
X249125000Y-106605072D01*
X252525000Y-106605072D01*
X252649482Y-106592812D01*
X252769180Y-106556502D01*
X252879494Y-106497537D01*
X252976185Y-106418185D01*
X253055537Y-106321494D01*
X253114502Y-106211180D01*
X253150812Y-106091482D01*
X253163072Y-105967000D01*
X253163072Y-102567000D01*
X253150812Y-102442518D01*
X253114502Y-102322820D01*
X253055537Y-102212506D01*
X252976185Y-102115815D01*
X252879494Y-102036463D01*
X252769180Y-101977498D01*
X252649482Y-101941188D01*
X252525000Y-101928928D01*
X250609201Y-101928928D01*
X250651248Y-101790316D01*
X250668072Y-101619500D01*
X250668072Y-101119500D01*
X250651248Y-100948684D01*
X250601423Y-100784433D01*
X250520512Y-100633058D01*
X250431188Y-100524217D01*
X250481185Y-100483185D01*
X250560537Y-100386494D01*
X250619502Y-100276180D01*
X250655812Y-100156482D01*
X250668072Y-100032000D01*
X250665000Y-99830250D01*
X250506250Y-99671500D01*
X249682000Y-99671500D01*
X249682000Y-99691500D01*
X249428000Y-99691500D01*
X249428000Y-99671500D01*
X249408000Y-99671500D01*
X249408000Y-99417500D01*
X249428000Y-99417500D01*
X249428000Y-98580750D01*
X249682000Y-98580750D01*
X249682000Y-99417500D01*
X250506250Y-99417500D01*
X250665000Y-99258750D01*
X250668072Y-99057000D01*
X250655812Y-98932518D01*
X250619502Y-98812820D01*
X250560537Y-98702506D01*
X250481185Y-98605815D01*
X250384494Y-98526463D01*
X250274180Y-98467498D01*
X250154482Y-98431188D01*
X250030000Y-98418928D01*
X249840750Y-98422000D01*
X249682000Y-98580750D01*
X249428000Y-98580750D01*
X249269250Y-98422000D01*
X249117504Y-98419537D01*
X249091502Y-98333820D01*
X249032537Y-98223506D01*
X248953185Y-98126815D01*
X248856494Y-98047463D01*
X248746180Y-97988498D01*
X248626482Y-97952188D01*
X248502000Y-97939928D01*
X248062750Y-97943000D01*
X247904000Y-98101750D01*
X247904000Y-99038500D01*
X247924000Y-99038500D01*
X247924000Y-99292500D01*
X247904000Y-99292500D01*
X247904000Y-99312500D01*
X247650000Y-99312500D01*
X247650000Y-99292500D01*
X247630000Y-99292500D01*
X247630000Y-99038500D01*
X247650000Y-99038500D01*
X247650000Y-98101750D01*
X247491250Y-97943000D01*
X247052000Y-97939928D01*
X246927518Y-97952188D01*
X246807820Y-97988498D01*
X246697506Y-98047463D01*
X246600815Y-98126815D01*
X246521463Y-98223506D01*
X246462498Y-98333820D01*
X246429533Y-98442491D01*
X246407316Y-98435752D01*
X246236500Y-98418928D01*
X245761500Y-98418928D01*
X245590684Y-98435752D01*
X245576804Y-98439963D01*
X245342072Y-98205231D01*
X245342072Y-97481653D01*
X245390611Y-97514086D01*
X245560771Y-97584568D01*
X245741411Y-97620500D01*
X245925589Y-97620500D01*
X246106229Y-97584568D01*
X246233750Y-97531748D01*
X246361271Y-97584568D01*
X246541911Y-97620500D01*
X246726089Y-97620500D01*
X246906729Y-97584568D01*
X247076889Y-97514086D01*
X247230028Y-97411762D01*
X247360262Y-97281528D01*
X247462586Y-97128389D01*
X247533068Y-96958229D01*
X247560465Y-96820499D01*
X248486928Y-96820499D01*
X248486928Y-97331000D01*
X248499188Y-97455482D01*
X248535498Y-97575180D01*
X248594463Y-97685494D01*
X248673815Y-97782185D01*
X248770506Y-97861537D01*
X248880820Y-97920502D01*
X249000518Y-97956812D01*
X249125000Y-97969072D01*
X252525000Y-97969072D01*
X252649482Y-97956812D01*
X252769180Y-97920502D01*
X252879494Y-97861537D01*
X252976185Y-97782185D01*
X253055537Y-97685494D01*
X253114502Y-97575180D01*
X253150812Y-97455482D01*
X253163072Y-97331000D01*
X253163072Y-93931000D01*
X253150812Y-93806518D01*
X253114502Y-93686820D01*
X253055537Y-93576506D01*
X252976185Y-93479815D01*
X252879494Y-93400463D01*
X252769180Y-93341498D01*
X252649482Y-93305188D01*
X252525000Y-93292928D01*
X249125000Y-93292928D01*
X249000518Y-93305188D01*
X248880820Y-93341498D01*
X248770506Y-93400463D01*
X248673815Y-93479815D01*
X248594463Y-93576506D01*
X248535498Y-93686820D01*
X248499188Y-93806518D01*
X248486928Y-93931000D01*
X248486928Y-94026499D01*
X245342072Y-94026499D01*
X245342072Y-92893000D01*
X245329812Y-92768518D01*
X245293502Y-92648820D01*
X245234537Y-92538506D01*
X245155185Y-92441815D01*
X245058494Y-92362463D01*
X244948180Y-92303498D01*
X244828482Y-92267188D01*
X244704000Y-92254928D01*
X237704000Y-92254928D01*
X237579518Y-92267188D01*
X237459820Y-92303498D01*
X237349506Y-92362463D01*
X237252815Y-92441815D01*
X237173463Y-92538506D01*
X237114498Y-92648820D01*
X237078188Y-92768518D01*
X237065928Y-92893000D01*
X237065928Y-92900289D01*
X237039964Y-92851714D01*
X236944991Y-92735989D01*
X236915992Y-92712191D01*
X236275803Y-92072002D01*
X236252001Y-92042999D01*
X236136276Y-91948026D01*
X236004247Y-91877454D01*
X235860986Y-91833997D01*
X235749333Y-91823000D01*
X235749322Y-91823000D01*
X235712000Y-91819324D01*
X235674678Y-91823000D01*
X231534825Y-91823000D01*
X231497500Y-91819324D01*
X231460175Y-91823000D01*
X231460167Y-91823000D01*
X231348514Y-91833997D01*
X231205253Y-91877454D01*
X231073224Y-91948026D01*
X230957499Y-92042999D01*
X230933701Y-92071998D01*
X230809770Y-92195928D01*
X230521500Y-92195928D01*
X230350684Y-92212752D01*
X230186433Y-92262577D01*
X230035058Y-92343488D01*
X229902377Y-92452377D01*
X229793488Y-92585058D01*
X229712577Y-92736433D01*
X229662752Y-92900684D01*
X229645928Y-93071500D01*
X229645928Y-93571500D01*
X229662752Y-93742316D01*
X229712577Y-93906567D01*
X229793488Y-94057942D01*
X229902377Y-94190623D01*
X229955232Y-94234000D01*
X229902377Y-94277377D01*
X229793488Y-94410058D01*
X229712577Y-94561433D01*
X229662752Y-94725684D01*
X229645928Y-94896500D01*
X229645928Y-95396500D01*
X229662752Y-95567316D01*
X229686979Y-95647181D01*
X229673232Y-95660928D01*
X229302500Y-95660928D01*
X229131684Y-95677752D01*
X228967433Y-95727577D01*
X228816058Y-95808488D01*
X228707217Y-95897812D01*
X228666185Y-95847815D01*
X228569494Y-95768463D01*
X228459180Y-95709498D01*
X228339482Y-95673188D01*
X228215000Y-95660928D01*
X228013250Y-95664000D01*
X227854500Y-95822750D01*
X227854500Y-96647000D01*
X227874500Y-96647000D01*
X227874500Y-96901000D01*
X227854500Y-96901000D01*
X227854500Y-97725250D01*
X228013250Y-97884000D01*
X228215000Y-97887072D01*
X228339482Y-97874812D01*
X228459180Y-97838502D01*
X228569494Y-97779537D01*
X228666185Y-97700185D01*
X228707217Y-97650188D01*
X228816058Y-97739512D01*
X228967433Y-97820423D01*
X229131684Y-97870248D01*
X229302500Y-97887072D01*
X229802500Y-97887072D01*
X229973316Y-97870248D01*
X230137567Y-97820423D01*
X230255873Y-97757187D01*
X230387687Y-97717202D01*
X230470383Y-97673000D01*
X231415928Y-97673000D01*
X231419000Y-98387250D01*
X231577750Y-98546000D01*
X233677000Y-98546000D01*
X233677000Y-97196750D01*
X233518250Y-97038000D01*
X232054000Y-97034928D01*
X231929518Y-97047188D01*
X231809820Y-97083498D01*
X231699506Y-97142463D01*
X231602815Y-97221815D01*
X231523463Y-97318506D01*
X231464498Y-97428820D01*
X231428188Y-97548518D01*
X231415928Y-97673000D01*
X230470383Y-97673000D01*
X230564190Y-97622860D01*
X230718896Y-97495896D01*
X230750712Y-97457128D01*
X231696133Y-96511708D01*
X231734896Y-96479896D01*
X231861860Y-96325190D01*
X231948819Y-96162500D01*
X232573598Y-96162500D01*
X232623500Y-96167415D01*
X232673402Y-96162500D01*
X232822671Y-96147798D01*
X233014187Y-96089702D01*
X233190690Y-95995360D01*
X233345396Y-95868396D01*
X233377212Y-95829628D01*
X233475768Y-95731072D01*
X235554000Y-95731072D01*
X235644991Y-95722110D01*
X235644991Y-97043890D01*
X235554000Y-97034928D01*
X234089750Y-97038000D01*
X233931000Y-97196750D01*
X233931000Y-98546000D01*
X233951000Y-98546000D01*
X233951000Y-98800000D01*
X233931000Y-98800000D01*
X233931000Y-100149250D01*
X234089750Y-100308000D01*
X235554000Y-100311072D01*
X235644991Y-100302110D01*
X235644991Y-101217928D01*
X233729769Y-101217928D01*
X232821302Y-100309462D01*
X233518250Y-100308000D01*
X233677000Y-100149250D01*
X233677000Y-98800000D01*
X231577750Y-98800000D01*
X231419000Y-98958750D01*
X231416380Y-99568000D01*
X228813009Y-99568000D01*
X228843248Y-99468316D01*
X228860072Y-99297500D01*
X228860072Y-98822500D01*
X228843248Y-98651684D01*
X228793423Y-98487433D01*
X228712512Y-98336058D01*
X228603623Y-98203377D01*
X228470942Y-98094488D01*
X228319567Y-98013577D01*
X228155316Y-97963752D01*
X227984500Y-97946928D01*
X227484500Y-97946928D01*
X227313684Y-97963752D01*
X227149433Y-98013577D01*
X226998058Y-98094488D01*
X226889217Y-98183812D01*
X226848185Y-98133815D01*
X226751494Y-98054463D01*
X226641180Y-97995498D01*
X226521482Y-97959188D01*
X226397000Y-97946928D01*
X226195250Y-97950000D01*
X226036500Y-98108750D01*
X226036500Y-98933000D01*
X226056500Y-98933000D01*
X226056500Y-99187000D01*
X226036500Y-99187000D01*
X226036500Y-99207000D01*
X225782500Y-99207000D01*
X225782500Y-99187000D01*
X224945750Y-99187000D01*
X224857250Y-99275500D01*
X223520000Y-99275500D01*
X223520000Y-100287250D01*
X223678750Y-100446000D01*
X224743000Y-100449072D01*
X224783928Y-100445041D01*
X224783928Y-100821500D01*
X224800752Y-100992316D01*
X224813606Y-101034690D01*
X224666256Y-100989992D01*
X224493002Y-100972928D01*
X223338199Y-100972928D01*
X223273171Y-100953202D01*
X223123902Y-100938500D01*
X223074000Y-100933585D01*
X223024098Y-100938500D01*
X222066549Y-100938500D01*
X222080812Y-100891482D01*
X222093072Y-100767000D01*
X222090000Y-100515250D01*
X222021727Y-100446977D01*
X222043000Y-100449072D01*
X223107250Y-100446000D01*
X223266000Y-100287250D01*
X223266000Y-99275500D01*
X223246000Y-99275500D01*
X223246000Y-99021500D01*
X223266000Y-99021500D01*
X223266000Y-98009750D01*
X223520000Y-98009750D01*
X223520000Y-99021500D01*
X225219250Y-99021500D01*
X225307750Y-98933000D01*
X225782500Y-98933000D01*
X225782500Y-98108750D01*
X225623750Y-97950000D01*
X225422000Y-97946928D01*
X225297518Y-97959188D01*
X225177820Y-97995498D01*
X225158718Y-98005708D01*
X225097494Y-97955463D01*
X224987180Y-97896498D01*
X224867482Y-97860188D01*
X224743000Y-97847928D01*
X223678750Y-97851000D01*
X223520000Y-98009750D01*
X223266000Y-98009750D01*
X223107250Y-97851000D01*
X222043000Y-97847928D01*
X221918518Y-97860188D01*
X221798820Y-97896498D01*
X221688506Y-97955463D01*
X221591815Y-98034815D01*
X221512463Y-98131506D01*
X221453498Y-98241820D01*
X221417188Y-98361518D01*
X221404928Y-98486000D01*
X221408000Y-98862750D01*
X221566748Y-99021498D01*
X221408000Y-99021498D01*
X221408000Y-99054691D01*
X221265750Y-99057000D01*
X221107000Y-99215750D01*
X221107000Y-100102500D01*
X221127000Y-100102500D01*
X221127000Y-100356500D01*
X221107000Y-100356500D01*
X221107000Y-100376500D01*
X220853000Y-100376500D01*
X220853000Y-100356500D01*
X220833000Y-100356500D01*
X220833000Y-100102500D01*
X220853000Y-100102500D01*
X220853000Y-99215750D01*
X220694250Y-99057000D01*
X220505000Y-99053928D01*
X220380518Y-99066188D01*
X220350940Y-99075160D01*
X220334248Y-98905684D01*
X220284423Y-98741433D01*
X220203512Y-98590058D01*
X220094623Y-98457377D01*
X219961942Y-98348488D01*
X219810567Y-98267577D01*
X219646316Y-98217752D01*
X219475500Y-98200928D01*
X218875500Y-98200928D01*
X218704684Y-98217752D01*
X218540433Y-98267577D01*
X218390394Y-98347774D01*
X218342494Y-98308463D01*
X218232180Y-98249498D01*
X218112482Y-98213188D01*
X217988000Y-98200928D01*
X217736250Y-98204000D01*
X217577500Y-98362750D01*
X217577500Y-99187000D01*
X217597500Y-99187000D01*
X217597500Y-99441000D01*
X217577500Y-99441000D01*
X217577500Y-100265250D01*
X217736250Y-100424000D01*
X217740544Y-100424052D01*
X217728928Y-100542000D01*
X217728928Y-100665000D01*
X217585911Y-100665000D01*
X217405271Y-100700932D01*
X217235111Y-100771414D01*
X217081972Y-100873738D01*
X216951738Y-101003972D01*
X216849414Y-101157111D01*
X216778932Y-101327271D01*
X216743000Y-101507911D01*
X216743000Y-101692089D01*
X216778932Y-101872729D01*
X216830982Y-101998390D01*
X216727111Y-102041414D01*
X216573972Y-102143738D01*
X216443738Y-102273972D01*
X216341414Y-102427111D01*
X216270932Y-102597271D01*
X216235000Y-102777911D01*
X216235000Y-102962089D01*
X216270932Y-103142729D01*
X216341414Y-103312889D01*
X216342490Y-103314500D01*
X216341414Y-103316111D01*
X216270932Y-103486271D01*
X216242171Y-103630859D01*
X215677750Y-103632000D01*
X215519000Y-103790750D01*
X215519000Y-107315000D01*
X215539000Y-107315000D01*
X215539000Y-107569000D01*
X215519000Y-107569000D01*
X215519000Y-107589000D01*
X215265000Y-107589000D01*
X215265000Y-107569000D01*
X215245000Y-107569000D01*
X215245000Y-107315000D01*
X215265000Y-107315000D01*
X215265000Y-103790750D01*
X215106250Y-103632000D01*
X213698877Y-103629154D01*
X216414543Y-100913489D01*
X216443540Y-100889692D01*
X216487339Y-100836323D01*
X216538513Y-100773968D01*
X216609085Y-100641938D01*
X216613252Y-100628201D01*
X216652542Y-100498677D01*
X216663539Y-100387024D01*
X216663539Y-100387014D01*
X216664600Y-100376246D01*
X216668820Y-100378502D01*
X216788518Y-100414812D01*
X216913000Y-100427072D01*
X217164750Y-100424000D01*
X217323500Y-100265250D01*
X217323500Y-99441000D01*
X217303500Y-99441000D01*
X217303500Y-99187000D01*
X217323500Y-99187000D01*
X217323500Y-98362750D01*
X217164750Y-98204000D01*
X216913000Y-98200928D01*
X216788518Y-98213188D01*
X216668820Y-98249498D01*
X216663539Y-98252321D01*
X216663539Y-97249000D01*
X226601928Y-97249000D01*
X226614188Y-97373482D01*
X226650498Y-97493180D01*
X226709463Y-97603494D01*
X226788815Y-97700185D01*
X226885506Y-97779537D01*
X226995820Y-97838502D01*
X227115518Y-97874812D01*
X227240000Y-97887072D01*
X227441750Y-97884000D01*
X227600500Y-97725250D01*
X227600500Y-96901000D01*
X226763750Y-96901000D01*
X226605000Y-97059750D01*
X226601928Y-97249000D01*
X216663539Y-97249000D01*
X216663539Y-96299000D01*
X226601928Y-96299000D01*
X226605000Y-96488250D01*
X226763750Y-96647000D01*
X227600500Y-96647000D01*
X227600500Y-95822750D01*
X227441750Y-95664000D01*
X227240000Y-95660928D01*
X227115518Y-95673188D01*
X226995820Y-95709498D01*
X226885506Y-95768463D01*
X226788815Y-95847815D01*
X226709463Y-95944506D01*
X226650498Y-96054820D01*
X226614188Y-96174518D01*
X226601928Y-96299000D01*
X216663539Y-96299000D01*
X216663539Y-94781451D01*
X216667215Y-94744128D01*
X216663539Y-94706805D01*
X216663539Y-94706796D01*
X216652542Y-94595143D01*
X216609085Y-94451882D01*
X216538513Y-94319853D01*
X216443540Y-94204128D01*
X216414542Y-94180330D01*
X214940509Y-92706298D01*
X214916706Y-92677294D01*
X214800981Y-92582321D01*
X214668952Y-92511749D01*
X214525691Y-92468292D01*
X214414038Y-92457295D01*
X214414027Y-92457295D01*
X214376705Y-92453619D01*
X214339383Y-92457295D01*
X209842028Y-92457295D01*
X209804705Y-92453619D01*
X209767382Y-92457295D01*
X209767372Y-92457295D01*
X209655719Y-92468292D01*
X209512458Y-92511749D01*
X209380428Y-92582321D01*
X209308909Y-92641016D01*
X209264704Y-92677294D01*
X209240906Y-92706292D01*
X207683271Y-94263928D01*
X207625500Y-94263928D01*
X207454684Y-94280752D01*
X207290433Y-94330577D01*
X207139058Y-94411488D01*
X207006377Y-94520377D01*
X206927080Y-94617000D01*
X206791923Y-94617000D01*
X206754590Y-94613323D01*
X206717257Y-94617000D01*
X206605604Y-94627997D01*
X206462343Y-94671454D01*
X206330314Y-94742026D01*
X206214589Y-94836999D01*
X206190791Y-94865997D01*
X204755847Y-96300942D01*
X204559667Y-96300942D01*
X204559647Y-96300944D01*
X199902897Y-96300944D01*
X200501134Y-95702707D01*
X200539897Y-95670895D01*
X200666861Y-95516189D01*
X200761203Y-95339686D01*
X200819299Y-95148170D01*
X200834001Y-94998901D01*
X200834001Y-94998900D01*
X200838916Y-94948999D01*
X200834001Y-94899097D01*
X200834001Y-94366185D01*
X200877774Y-94336937D01*
X201021937Y-94192774D01*
X201135205Y-94023256D01*
X201213226Y-93834898D01*
X201253000Y-93634939D01*
X201253000Y-93431061D01*
X201213226Y-93231102D01*
X201135205Y-93042744D01*
X201021937Y-92873226D01*
X200877774Y-92729063D01*
X200708256Y-92615795D01*
X200519898Y-92537774D01*
X200319939Y-92498000D01*
X200116061Y-92498000D01*
X199916102Y-92537774D01*
X199727744Y-92615795D01*
X199558226Y-92729063D01*
X199414063Y-92873226D01*
X199359954Y-92954206D01*
X199134869Y-93179291D01*
X199096106Y-93211103D01*
X198969142Y-93365809D01*
X198892316Y-93509541D01*
X198874800Y-93542312D01*
X198816703Y-93733829D01*
X198797086Y-93932999D01*
X198802002Y-93982910D01*
X198802001Y-94528158D01*
X198044899Y-95285260D01*
X197978512Y-95161058D01*
X197895165Y-95059500D01*
X197978512Y-94957942D01*
X198059423Y-94806567D01*
X198109248Y-94642316D01*
X198126072Y-94471500D01*
X198126072Y-93996500D01*
X198109248Y-93825684D01*
X198059423Y-93661433D01*
X197978512Y-93510058D01*
X197869623Y-93377377D01*
X197736942Y-93268488D01*
X197585567Y-93187577D01*
X197421316Y-93137752D01*
X197250500Y-93120928D01*
X196750500Y-93120928D01*
X196579684Y-93137752D01*
X196415433Y-93187577D01*
X196264058Y-93268488D01*
X196131377Y-93377377D01*
X196088000Y-93430232D01*
X196044623Y-93377377D01*
X195911942Y-93268488D01*
X195760567Y-93187577D01*
X195596316Y-93137752D01*
X195425500Y-93120928D01*
X194925500Y-93120928D01*
X194754684Y-93137752D01*
X194590433Y-93187577D01*
X194439058Y-93268488D01*
X194306377Y-93377377D01*
X194280835Y-93408500D01*
X193969550Y-93408500D01*
X193929000Y-93404506D01*
X193888449Y-93408500D01*
X193888447Y-93408500D01*
X193767174Y-93420444D01*
X193613419Y-93467085D01*
X193611566Y-93467647D01*
X193468157Y-93544301D01*
X193464956Y-93546928D01*
X190578000Y-93546928D01*
X190453518Y-93559188D01*
X190333820Y-93595498D01*
X190223506Y-93654463D01*
X190126815Y-93733815D01*
X190047463Y-93830506D01*
X189988498Y-93940820D01*
X189952188Y-94060518D01*
X189939928Y-94185000D01*
X189915000Y-94185000D01*
X189915000Y-91744000D01*
X253188001Y-91744000D01*
X253188000Y-120219000D01*
G37*
G04 #@! TD.AperFunction*
D25*
X228983000Y-114197800D02*
X228983001Y-115786668D01*
X228979324Y-115824000D01*
X228983001Y-115861333D01*
X228993998Y-115972986D01*
X229002667Y-116001565D01*
X229037454Y-116116246D01*
X229108026Y-116248276D01*
X229160931Y-116312740D01*
X229203000Y-116364001D01*
X229231998Y-116387799D01*
X230448197Y-117604000D01*
X227376000Y-117604000D01*
X227376000Y-117509911D01*
X227340068Y-117329271D01*
X227269586Y-117159111D01*
X227201000Y-117056465D01*
X227201000Y-116414920D01*
X227297623Y-116335623D01*
X227406512Y-116202942D01*
X227487423Y-116051567D01*
X227537248Y-115887316D01*
X227554072Y-115716500D01*
X227554072Y-115116500D01*
X227537248Y-114945684D01*
X227487423Y-114781433D01*
X227406512Y-114630058D01*
X227344093Y-114554000D01*
X227406512Y-114477942D01*
X227487423Y-114326567D01*
X227537248Y-114162316D01*
X227554072Y-113991500D01*
X227554072Y-113391500D01*
X227537248Y-113220684D01*
X227487423Y-113056433D01*
X227406512Y-112905058D01*
X227297623Y-112772377D01*
X227201000Y-112693080D01*
X227201000Y-112415799D01*
X228983000Y-114197800D01*
G04 #@! TA.AperFunction,Conductor*
D26*
G36*
X228983000Y-114197800D02*
G01*
X228983001Y-115786668D01*
X228979324Y-115824000D01*
X228983001Y-115861333D01*
X228993998Y-115972986D01*
X229002667Y-116001565D01*
X229037454Y-116116246D01*
X229108026Y-116248276D01*
X229160931Y-116312740D01*
X229203000Y-116364001D01*
X229231998Y-116387799D01*
X230448197Y-117604000D01*
X227376000Y-117604000D01*
X227376000Y-117509911D01*
X227340068Y-117329271D01*
X227269586Y-117159111D01*
X227201000Y-117056465D01*
X227201000Y-116414920D01*
X227297623Y-116335623D01*
X227406512Y-116202942D01*
X227487423Y-116051567D01*
X227537248Y-115887316D01*
X227554072Y-115716500D01*
X227554072Y-115116500D01*
X227537248Y-114945684D01*
X227487423Y-114781433D01*
X227406512Y-114630058D01*
X227344093Y-114554000D01*
X227406512Y-114477942D01*
X227487423Y-114326567D01*
X227537248Y-114162316D01*
X227554072Y-113991500D01*
X227554072Y-113391500D01*
X227537248Y-113220684D01*
X227487423Y-113056433D01*
X227406512Y-112905058D01*
X227297623Y-112772377D01*
X227201000Y-112693080D01*
X227201000Y-112415799D01*
X228983000Y-114197800D01*
G37*
G04 #@! TD.AperFunction*
D25*
X248486928Y-114349000D02*
X248499188Y-114473482D01*
X248531448Y-114579828D01*
X248502000Y-114576928D01*
X248062750Y-114580000D01*
X247904000Y-114738750D01*
X247904000Y-115675500D01*
X247924000Y-115675500D01*
X247924000Y-115929500D01*
X247904000Y-115929500D01*
X247904000Y-115949500D01*
X247650000Y-115949500D01*
X247650000Y-115929500D01*
X247630000Y-115929500D01*
X247630000Y-115675500D01*
X247650000Y-115675500D01*
X247650000Y-114738750D01*
X247491250Y-114580000D01*
X247306827Y-114578710D01*
X247419389Y-114532086D01*
X247572528Y-114429762D01*
X247702762Y-114299528D01*
X247805086Y-114146389D01*
X247875568Y-113976229D01*
X247902965Y-113838499D01*
X248486928Y-113838499D01*
X248486928Y-114349000D01*
G04 #@! TA.AperFunction,Conductor*
D26*
G36*
X248486928Y-114349000D02*
G01*
X248499188Y-114473482D01*
X248531448Y-114579828D01*
X248502000Y-114576928D01*
X248062750Y-114580000D01*
X247904000Y-114738750D01*
X247904000Y-115675500D01*
X247924000Y-115675500D01*
X247924000Y-115929500D01*
X247904000Y-115929500D01*
X247904000Y-115949500D01*
X247650000Y-115949500D01*
X247650000Y-115929500D01*
X247630000Y-115929500D01*
X247630000Y-115675500D01*
X247650000Y-115675500D01*
X247650000Y-114738750D01*
X247491250Y-114580000D01*
X247306827Y-114578710D01*
X247419389Y-114532086D01*
X247572528Y-114429762D01*
X247702762Y-114299528D01*
X247805086Y-114146389D01*
X247875568Y-113976229D01*
X247902965Y-113838499D01*
X248486928Y-113838499D01*
X248486928Y-114349000D01*
G37*
G04 #@! TD.AperFunction*
D25*
X217712911Y-111171000D02*
X217728928Y-111171000D01*
X217728928Y-111342000D01*
X217739081Y-111445087D01*
X217732000Y-111510250D01*
X217764247Y-111542497D01*
X217777498Y-111586180D01*
X217834061Y-111692000D01*
X217777498Y-111797820D01*
X217764247Y-111841503D01*
X217732000Y-111873750D01*
X217739081Y-111938913D01*
X217728928Y-112042000D01*
X217728928Y-112342000D01*
X217738777Y-112442000D01*
X217728928Y-112542000D01*
X217728928Y-112842000D01*
X217738777Y-112942000D01*
X217728928Y-113042000D01*
X217728928Y-113342000D01*
X217738777Y-113442000D01*
X217728928Y-113542000D01*
X217728928Y-113842000D01*
X217738777Y-113942000D01*
X217728928Y-114042000D01*
X217728928Y-114342000D01*
X217741188Y-114466482D01*
X217768089Y-114555161D01*
X217704500Y-114618750D01*
X217704500Y-115443000D01*
X217724500Y-115443000D01*
X217724500Y-115697000D01*
X217704500Y-115697000D01*
X217704500Y-115717000D01*
X217450500Y-115717000D01*
X217450500Y-115697000D01*
X216563750Y-115697000D01*
X216405000Y-115855750D01*
X216403584Y-115943001D01*
X215569803Y-115943001D01*
X214721802Y-115095000D01*
X216401928Y-115095000D01*
X216405000Y-115284250D01*
X216563750Y-115443000D01*
X217450500Y-115443000D01*
X217450500Y-114618750D01*
X217291750Y-114460000D01*
X217040000Y-114456928D01*
X216915518Y-114469188D01*
X216795820Y-114505498D01*
X216685506Y-114564463D01*
X216588815Y-114643815D01*
X216509463Y-114740506D01*
X216450498Y-114850820D01*
X216414188Y-114970518D01*
X216401928Y-115095000D01*
X214721802Y-115095000D01*
X214411823Y-114785022D01*
X214388020Y-114756018D01*
X214272295Y-114661045D01*
X214140266Y-114590473D01*
X213997005Y-114547016D01*
X213885352Y-114536019D01*
X213885341Y-114536019D01*
X213848019Y-114532343D01*
X213810697Y-114536019D01*
X213021634Y-114536019D01*
X213040937Y-114475561D01*
X213043497Y-114452000D01*
X214692678Y-114452000D01*
X214730000Y-114455676D01*
X214767322Y-114452000D01*
X214767333Y-114452000D01*
X214878986Y-114441003D01*
X215022247Y-114397546D01*
X215154276Y-114326974D01*
X215270001Y-114232001D01*
X215293803Y-114202998D01*
X215416649Y-114080153D01*
X215537729Y-114056068D01*
X215707889Y-113985586D01*
X215861028Y-113883262D01*
X215991262Y-113753028D01*
X216093586Y-113599889D01*
X216164068Y-113429729D01*
X216200000Y-113249089D01*
X216200000Y-113064911D01*
X216164068Y-112884271D01*
X216093586Y-112714111D01*
X215991262Y-112560972D01*
X215861028Y-112430738D01*
X215707889Y-112328414D01*
X215537729Y-112257932D01*
X215370946Y-112224756D01*
X215388804Y-112202997D01*
X215416648Y-112175153D01*
X215537729Y-112151068D01*
X215707889Y-112080586D01*
X215861028Y-111978262D01*
X215991262Y-111848028D01*
X216093586Y-111694889D01*
X216164068Y-111524729D01*
X216200000Y-111344089D01*
X216200000Y-111253056D01*
X217197000Y-111255072D01*
X217321482Y-111242812D01*
X217441180Y-111206502D01*
X217551494Y-111147537D01*
X217559973Y-111140578D01*
X217712911Y-111171000D01*
G04 #@! TA.AperFunction,Conductor*
D26*
G36*
X217712911Y-111171000D02*
G01*
X217728928Y-111171000D01*
X217728928Y-111342000D01*
X217739081Y-111445087D01*
X217732000Y-111510250D01*
X217764247Y-111542497D01*
X217777498Y-111586180D01*
X217834061Y-111692000D01*
X217777498Y-111797820D01*
X217764247Y-111841503D01*
X217732000Y-111873750D01*
X217739081Y-111938913D01*
X217728928Y-112042000D01*
X217728928Y-112342000D01*
X217738777Y-112442000D01*
X217728928Y-112542000D01*
X217728928Y-112842000D01*
X217738777Y-112942000D01*
X217728928Y-113042000D01*
X217728928Y-113342000D01*
X217738777Y-113442000D01*
X217728928Y-113542000D01*
X217728928Y-113842000D01*
X217738777Y-113942000D01*
X217728928Y-114042000D01*
X217728928Y-114342000D01*
X217741188Y-114466482D01*
X217768089Y-114555161D01*
X217704500Y-114618750D01*
X217704500Y-115443000D01*
X217724500Y-115443000D01*
X217724500Y-115697000D01*
X217704500Y-115697000D01*
X217704500Y-115717000D01*
X217450500Y-115717000D01*
X217450500Y-115697000D01*
X216563750Y-115697000D01*
X216405000Y-115855750D01*
X216403584Y-115943001D01*
X215569803Y-115943001D01*
X214721802Y-115095000D01*
X216401928Y-115095000D01*
X216405000Y-115284250D01*
X216563750Y-115443000D01*
X217450500Y-115443000D01*
X217450500Y-114618750D01*
X217291750Y-114460000D01*
X217040000Y-114456928D01*
X216915518Y-114469188D01*
X216795820Y-114505498D01*
X216685506Y-114564463D01*
X216588815Y-114643815D01*
X216509463Y-114740506D01*
X216450498Y-114850820D01*
X216414188Y-114970518D01*
X216401928Y-115095000D01*
X214721802Y-115095000D01*
X214411823Y-114785022D01*
X214388020Y-114756018D01*
X214272295Y-114661045D01*
X214140266Y-114590473D01*
X213997005Y-114547016D01*
X213885352Y-114536019D01*
X213885341Y-114536019D01*
X213848019Y-114532343D01*
X213810697Y-114536019D01*
X213021634Y-114536019D01*
X213040937Y-114475561D01*
X213043497Y-114452000D01*
X214692678Y-114452000D01*
X214730000Y-114455676D01*
X214767322Y-114452000D01*
X214767333Y-114452000D01*
X214878986Y-114441003D01*
X215022247Y-114397546D01*
X215154276Y-114326974D01*
X215270001Y-114232001D01*
X215293803Y-114202998D01*
X215416649Y-114080153D01*
X215537729Y-114056068D01*
X215707889Y-113985586D01*
X215861028Y-113883262D01*
X215991262Y-113753028D01*
X216093586Y-113599889D01*
X216164068Y-113429729D01*
X216200000Y-113249089D01*
X216200000Y-113064911D01*
X216164068Y-112884271D01*
X216093586Y-112714111D01*
X215991262Y-112560972D01*
X215861028Y-112430738D01*
X215707889Y-112328414D01*
X215537729Y-112257932D01*
X215370946Y-112224756D01*
X215388804Y-112202997D01*
X215416648Y-112175153D01*
X215537729Y-112151068D01*
X215707889Y-112080586D01*
X215861028Y-111978262D01*
X215991262Y-111848028D01*
X216093586Y-111694889D01*
X216164068Y-111524729D01*
X216200000Y-111344089D01*
X216200000Y-111253056D01*
X217197000Y-111255072D01*
X217321482Y-111242812D01*
X217441180Y-111206502D01*
X217551494Y-111147537D01*
X217559973Y-111140578D01*
X217712911Y-111171000D01*
G37*
G04 #@! TD.AperFunction*
D25*
X203333188Y-111922518D02*
X203320928Y-112047000D01*
X203324000Y-112236250D01*
X203482750Y-112395000D01*
X204369500Y-112395000D01*
X204369500Y-112375000D01*
X204623500Y-112375000D01*
X204623500Y-112395000D01*
X204643500Y-112395000D01*
X204643500Y-112649000D01*
X204623500Y-112649000D01*
X204623500Y-113919000D01*
X204643500Y-113919000D01*
X204643500Y-114086010D01*
X204349500Y-114086010D01*
X204349500Y-113919000D01*
X204369500Y-113919000D01*
X204369500Y-112649000D01*
X203482750Y-112649000D01*
X203324000Y-112807750D01*
X203320928Y-112997000D01*
X203333188Y-113121482D01*
X203341642Y-113149350D01*
X202316463Y-112124172D01*
X202365793Y-112031881D01*
X202406371Y-111898113D01*
X202410469Y-111856500D01*
X203353214Y-111856500D01*
X203333188Y-111922518D01*
G04 #@! TA.AperFunction,Conductor*
D26*
G36*
X203333188Y-111922518D02*
G01*
X203320928Y-112047000D01*
X203324000Y-112236250D01*
X203482750Y-112395000D01*
X204369500Y-112395000D01*
X204369500Y-112375000D01*
X204623500Y-112375000D01*
X204623500Y-112395000D01*
X204643500Y-112395000D01*
X204643500Y-112649000D01*
X204623500Y-112649000D01*
X204623500Y-113919000D01*
X204643500Y-113919000D01*
X204643500Y-114086010D01*
X204349500Y-114086010D01*
X204349500Y-113919000D01*
X204369500Y-113919000D01*
X204369500Y-112649000D01*
X203482750Y-112649000D01*
X203324000Y-112807750D01*
X203320928Y-112997000D01*
X203333188Y-113121482D01*
X203341642Y-113149350D01*
X202316463Y-112124172D01*
X202365793Y-112031881D01*
X202406371Y-111898113D01*
X202410469Y-111856500D01*
X203353214Y-111856500D01*
X203333188Y-111922518D01*
G37*
G04 #@! TD.AperFunction*
D25*
X228662433Y-107635423D02*
X228826684Y-107685248D01*
X228997500Y-107702072D01*
X229472500Y-107702072D01*
X229643316Y-107685248D01*
X229807567Y-107635423D01*
X229887871Y-107592500D01*
X230107660Y-107592500D01*
X230356728Y-107841569D01*
X230356729Y-109908589D01*
X230351813Y-109958500D01*
X230371430Y-110157670D01*
X230425678Y-110336500D01*
X230429527Y-110349187D01*
X230523869Y-110525690D01*
X230650833Y-110680396D01*
X230689596Y-110712208D01*
X231542928Y-111565540D01*
X231542928Y-111615087D01*
X231004712Y-111076872D01*
X230972896Y-111038104D01*
X230818190Y-110911140D01*
X230641687Y-110816798D01*
X230450171Y-110758702D01*
X230300902Y-110744000D01*
X230251000Y-110739085D01*
X230201098Y-110744000D01*
X228677098Y-110744000D01*
X228527829Y-110758702D01*
X228336313Y-110816798D01*
X228159810Y-110911140D01*
X228005104Y-111038104D01*
X227990591Y-111055788D01*
X227479796Y-110544993D01*
X227455993Y-110515989D01*
X227340268Y-110421016D01*
X227208239Y-110350444D01*
X227064978Y-110306987D01*
X226953325Y-110295990D01*
X226953314Y-110295990D01*
X226915992Y-110292314D01*
X226878670Y-110295990D01*
X225658343Y-110295990D01*
X225621010Y-110292313D01*
X225583677Y-110295990D01*
X225472024Y-110306987D01*
X225328763Y-110350444D01*
X225196734Y-110421016D01*
X225081009Y-110515989D01*
X225057211Y-110544988D01*
X224620209Y-110981990D01*
X224415072Y-110981990D01*
X224415072Y-110633500D01*
X224398248Y-110462684D01*
X224348423Y-110298433D01*
X224321873Y-110248761D01*
X224383176Y-110215994D01*
X224498901Y-110121021D01*
X224522703Y-110092018D01*
X224789450Y-109825271D01*
X224907281Y-109874078D01*
X225087921Y-109910010D01*
X225272099Y-109910010D01*
X225452739Y-109874078D01*
X225622899Y-109803596D01*
X225776038Y-109701272D01*
X225906272Y-109571038D01*
X226008596Y-109417899D01*
X226079078Y-109247739D01*
X226110256Y-109091000D01*
X226149678Y-109091000D01*
X226187000Y-109094676D01*
X226224322Y-109091000D01*
X226224333Y-109091000D01*
X226335986Y-109080003D01*
X226479247Y-109036546D01*
X226611276Y-108965974D01*
X226727001Y-108871001D01*
X226750804Y-108841997D01*
X227167987Y-108424814D01*
X227196991Y-108401011D01*
X227291964Y-108285286D01*
X227362536Y-108153257D01*
X227405993Y-108009996D01*
X227416990Y-107898343D01*
X227416990Y-107898334D01*
X227420666Y-107861011D01*
X227416990Y-107823688D01*
X227416990Y-107702072D01*
X227694500Y-107702072D01*
X227865316Y-107685248D01*
X228029567Y-107635423D01*
X228109871Y-107592500D01*
X228582129Y-107592500D01*
X228662433Y-107635423D01*
G04 #@! TA.AperFunction,Conductor*
D26*
G36*
X228662433Y-107635423D02*
G01*
X228826684Y-107685248D01*
X228997500Y-107702072D01*
X229472500Y-107702072D01*
X229643316Y-107685248D01*
X229807567Y-107635423D01*
X229887871Y-107592500D01*
X230107660Y-107592500D01*
X230356728Y-107841569D01*
X230356729Y-109908589D01*
X230351813Y-109958500D01*
X230371430Y-110157670D01*
X230425678Y-110336500D01*
X230429527Y-110349187D01*
X230523869Y-110525690D01*
X230650833Y-110680396D01*
X230689596Y-110712208D01*
X231542928Y-111565540D01*
X231542928Y-111615087D01*
X231004712Y-111076872D01*
X230972896Y-111038104D01*
X230818190Y-110911140D01*
X230641687Y-110816798D01*
X230450171Y-110758702D01*
X230300902Y-110744000D01*
X230251000Y-110739085D01*
X230201098Y-110744000D01*
X228677098Y-110744000D01*
X228527829Y-110758702D01*
X228336313Y-110816798D01*
X228159810Y-110911140D01*
X228005104Y-111038104D01*
X227990591Y-111055788D01*
X227479796Y-110544993D01*
X227455993Y-110515989D01*
X227340268Y-110421016D01*
X227208239Y-110350444D01*
X227064978Y-110306987D01*
X226953325Y-110295990D01*
X226953314Y-110295990D01*
X226915992Y-110292314D01*
X226878670Y-110295990D01*
X225658343Y-110295990D01*
X225621010Y-110292313D01*
X225583677Y-110295990D01*
X225472024Y-110306987D01*
X225328763Y-110350444D01*
X225196734Y-110421016D01*
X225081009Y-110515989D01*
X225057211Y-110544988D01*
X224620209Y-110981990D01*
X224415072Y-110981990D01*
X224415072Y-110633500D01*
X224398248Y-110462684D01*
X224348423Y-110298433D01*
X224321873Y-110248761D01*
X224383176Y-110215994D01*
X224498901Y-110121021D01*
X224522703Y-110092018D01*
X224789450Y-109825271D01*
X224907281Y-109874078D01*
X225087921Y-109910010D01*
X225272099Y-109910010D01*
X225452739Y-109874078D01*
X225622899Y-109803596D01*
X225776038Y-109701272D01*
X225906272Y-109571038D01*
X226008596Y-109417899D01*
X226079078Y-109247739D01*
X226110256Y-109091000D01*
X226149678Y-109091000D01*
X226187000Y-109094676D01*
X226224322Y-109091000D01*
X226224333Y-109091000D01*
X226335986Y-109080003D01*
X226479247Y-109036546D01*
X226611276Y-108965974D01*
X226727001Y-108871001D01*
X226750804Y-108841997D01*
X227167987Y-108424814D01*
X227196991Y-108401011D01*
X227291964Y-108285286D01*
X227362536Y-108153257D01*
X227405993Y-108009996D01*
X227416990Y-107898343D01*
X227416990Y-107898334D01*
X227420666Y-107861011D01*
X227416990Y-107823688D01*
X227416990Y-107702072D01*
X227694500Y-107702072D01*
X227865316Y-107685248D01*
X228029567Y-107635423D01*
X228109871Y-107592500D01*
X228582129Y-107592500D01*
X228662433Y-107635423D01*
G37*
G04 #@! TD.AperFunction*
D25*
X235644990Y-110361928D02*
X233212997Y-110361928D01*
X232388728Y-109537660D01*
X232388728Y-109074072D01*
X235644990Y-109074072D01*
X235644990Y-110361928D01*
G04 #@! TA.AperFunction,Conductor*
D26*
G36*
X235644990Y-110361928D02*
G01*
X233212997Y-110361928D01*
X232388728Y-109537660D01*
X232388728Y-109074072D01*
X235644990Y-109074072D01*
X235644990Y-110361928D01*
G37*
G04 #@! TD.AperFunction*
D25*
X200417887Y-104133371D02*
X200557000Y-104147072D01*
X200622351Y-104147072D01*
X200638739Y-104229459D01*
X200254351Y-104613847D01*
X200133271Y-104637932D01*
X199963111Y-104708414D01*
X199809972Y-104810738D01*
X199679738Y-104940972D01*
X199577414Y-105094111D01*
X199506932Y-105264271D01*
X199471000Y-105444911D01*
X199471000Y-105629089D01*
X199506932Y-105809729D01*
X199577414Y-105979889D01*
X199679738Y-106133028D01*
X199809972Y-106263262D01*
X199963111Y-106365586D01*
X200133271Y-106436068D01*
X200313911Y-106472000D01*
X200498089Y-106472000D01*
X200678729Y-106436068D01*
X200848889Y-106365586D01*
X201002028Y-106263262D01*
X201132262Y-106133028D01*
X201234586Y-105979889D01*
X201305068Y-105809729D01*
X201329153Y-105688649D01*
X201573802Y-105444000D01*
X201690482Y-105444000D01*
X201682629Y-105469887D01*
X201668928Y-105609000D01*
X201668928Y-105759000D01*
X201682629Y-105898113D01*
X201693515Y-105934000D01*
X201682629Y-105969887D01*
X201668928Y-106109000D01*
X201668928Y-106259000D01*
X201682629Y-106398113D01*
X201693515Y-106434000D01*
X201682629Y-106469887D01*
X201668928Y-106609000D01*
X201668928Y-106759000D01*
X201669125Y-106761000D01*
X201583911Y-106761000D01*
X201403271Y-106796932D01*
X201233111Y-106867414D01*
X201079972Y-106969738D01*
X200949738Y-107099972D01*
X200847414Y-107253111D01*
X200776932Y-107423271D01*
X200741000Y-107603911D01*
X200741000Y-107718199D01*
X200588804Y-107566003D01*
X200565001Y-107536999D01*
X200449276Y-107442026D01*
X200317247Y-107371454D01*
X200173986Y-107327997D01*
X200062333Y-107317000D01*
X200062322Y-107317000D01*
X200025000Y-107313324D01*
X199987678Y-107317000D01*
X197139592Y-107317000D01*
X197190896Y-107274896D01*
X197317860Y-107120190D01*
X197412202Y-106943687D01*
X197470298Y-106752170D01*
X197485000Y-106602901D01*
X197485000Y-104852098D01*
X197470298Y-104702829D01*
X197412202Y-104511313D01*
X197317860Y-104334810D01*
X197190896Y-104180104D01*
X197150646Y-104147072D01*
X197207000Y-104147072D01*
X197346113Y-104133371D01*
X197382000Y-104122485D01*
X197417887Y-104133371D01*
X197557000Y-104147072D01*
X197707000Y-104147072D01*
X197846113Y-104133371D01*
X197882000Y-104122485D01*
X197917887Y-104133371D01*
X198057000Y-104147072D01*
X198207000Y-104147072D01*
X198346113Y-104133371D01*
X198382000Y-104122485D01*
X198417887Y-104133371D01*
X198557000Y-104147072D01*
X198707000Y-104147072D01*
X198846113Y-104133371D01*
X198882000Y-104122485D01*
X198917887Y-104133371D01*
X199057000Y-104147072D01*
X199207000Y-104147072D01*
X199346113Y-104133371D01*
X199382000Y-104122485D01*
X199417887Y-104133371D01*
X199557000Y-104147072D01*
X199707000Y-104147072D01*
X199846113Y-104133371D01*
X199882000Y-104122485D01*
X199917887Y-104133371D01*
X200057000Y-104147072D01*
X200207000Y-104147072D01*
X200346113Y-104133371D01*
X200382000Y-104122485D01*
X200417887Y-104133371D01*
G04 #@! TA.AperFunction,Conductor*
D26*
G36*
X200417887Y-104133371D02*
G01*
X200557000Y-104147072D01*
X200622351Y-104147072D01*
X200638739Y-104229459D01*
X200254351Y-104613847D01*
X200133271Y-104637932D01*
X199963111Y-104708414D01*
X199809972Y-104810738D01*
X199679738Y-104940972D01*
X199577414Y-105094111D01*
X199506932Y-105264271D01*
X199471000Y-105444911D01*
X199471000Y-105629089D01*
X199506932Y-105809729D01*
X199577414Y-105979889D01*
X199679738Y-106133028D01*
X199809972Y-106263262D01*
X199963111Y-106365586D01*
X200133271Y-106436068D01*
X200313911Y-106472000D01*
X200498089Y-106472000D01*
X200678729Y-106436068D01*
X200848889Y-106365586D01*
X201002028Y-106263262D01*
X201132262Y-106133028D01*
X201234586Y-105979889D01*
X201305068Y-105809729D01*
X201329153Y-105688649D01*
X201573802Y-105444000D01*
X201690482Y-105444000D01*
X201682629Y-105469887D01*
X201668928Y-105609000D01*
X201668928Y-105759000D01*
X201682629Y-105898113D01*
X201693515Y-105934000D01*
X201682629Y-105969887D01*
X201668928Y-106109000D01*
X201668928Y-106259000D01*
X201682629Y-106398113D01*
X201693515Y-106434000D01*
X201682629Y-106469887D01*
X201668928Y-106609000D01*
X201668928Y-106759000D01*
X201669125Y-106761000D01*
X201583911Y-106761000D01*
X201403271Y-106796932D01*
X201233111Y-106867414D01*
X201079972Y-106969738D01*
X200949738Y-107099972D01*
X200847414Y-107253111D01*
X200776932Y-107423271D01*
X200741000Y-107603911D01*
X200741000Y-107718199D01*
X200588804Y-107566003D01*
X200565001Y-107536999D01*
X200449276Y-107442026D01*
X200317247Y-107371454D01*
X200173986Y-107327997D01*
X200062333Y-107317000D01*
X200062322Y-107317000D01*
X200025000Y-107313324D01*
X199987678Y-107317000D01*
X197139592Y-107317000D01*
X197190896Y-107274896D01*
X197317860Y-107120190D01*
X197412202Y-106943687D01*
X197470298Y-106752170D01*
X197485000Y-106602901D01*
X197485000Y-104852098D01*
X197470298Y-104702829D01*
X197412202Y-104511313D01*
X197317860Y-104334810D01*
X197190896Y-104180104D01*
X197150646Y-104147072D01*
X197207000Y-104147072D01*
X197346113Y-104133371D01*
X197382000Y-104122485D01*
X197417887Y-104133371D01*
X197557000Y-104147072D01*
X197707000Y-104147072D01*
X197846113Y-104133371D01*
X197882000Y-104122485D01*
X197917887Y-104133371D01*
X198057000Y-104147072D01*
X198207000Y-104147072D01*
X198346113Y-104133371D01*
X198382000Y-104122485D01*
X198417887Y-104133371D01*
X198557000Y-104147072D01*
X198707000Y-104147072D01*
X198846113Y-104133371D01*
X198882000Y-104122485D01*
X198917887Y-104133371D01*
X199057000Y-104147072D01*
X199207000Y-104147072D01*
X199346113Y-104133371D01*
X199382000Y-104122485D01*
X199417887Y-104133371D01*
X199557000Y-104147072D01*
X199707000Y-104147072D01*
X199846113Y-104133371D01*
X199882000Y-104122485D01*
X199917887Y-104133371D01*
X200057000Y-104147072D01*
X200207000Y-104147072D01*
X200346113Y-104133371D01*
X200382000Y-104122485D01*
X200417887Y-104133371D01*
G37*
G04 #@! TD.AperFunction*
D25*
X248486928Y-105967000D02*
X248499188Y-106091482D01*
X248535498Y-106211180D01*
X248594463Y-106321494D01*
X248602981Y-106331873D01*
X248502000Y-106321928D01*
X248062750Y-106325000D01*
X247904000Y-106483750D01*
X247904000Y-107420500D01*
X247924000Y-107420500D01*
X247924000Y-107674500D01*
X247904000Y-107674500D01*
X247904000Y-107694500D01*
X247650000Y-107694500D01*
X247650000Y-107674500D01*
X247630000Y-107674500D01*
X247630000Y-107420500D01*
X247650000Y-107420500D01*
X247650000Y-106483750D01*
X247491250Y-106325000D01*
X247094906Y-106322228D01*
X247203889Y-106277086D01*
X247357028Y-106174762D01*
X247487262Y-106044528D01*
X247589586Y-105891389D01*
X247660068Y-105721229D01*
X247687465Y-105583499D01*
X248486928Y-105583499D01*
X248486928Y-105967000D01*
G04 #@! TA.AperFunction,Conductor*
D26*
G36*
X248486928Y-105967000D02*
G01*
X248499188Y-106091482D01*
X248535498Y-106211180D01*
X248594463Y-106321494D01*
X248602981Y-106331873D01*
X248502000Y-106321928D01*
X248062750Y-106325000D01*
X247904000Y-106483750D01*
X247904000Y-107420500D01*
X247924000Y-107420500D01*
X247924000Y-107674500D01*
X247904000Y-107674500D01*
X247904000Y-107694500D01*
X247650000Y-107694500D01*
X247650000Y-107674500D01*
X247630000Y-107674500D01*
X247630000Y-107420500D01*
X247650000Y-107420500D01*
X247650000Y-106483750D01*
X247491250Y-106325000D01*
X247094906Y-106322228D01*
X247203889Y-106277086D01*
X247357028Y-106174762D01*
X247487262Y-106044528D01*
X247589586Y-105891389D01*
X247660068Y-105721229D01*
X247687465Y-105583499D01*
X248486928Y-105583499D01*
X248486928Y-105967000D01*
G37*
G04 #@! TD.AperFunction*
D25*
X206749928Y-107023980D02*
X206396782Y-107023980D01*
X206324802Y-106952000D01*
X206749928Y-106952000D01*
X206749928Y-107023980D01*
G04 #@! TA.AperFunction,Conductor*
D26*
G36*
X206749928Y-107023980D02*
G01*
X206396782Y-107023980D01*
X206324802Y-106952000D01*
X206749928Y-106952000D01*
X206749928Y-107023980D01*
G37*
G04 #@! TD.AperFunction*
D25*
X232181000Y-104494072D02*
X235644991Y-104494072D01*
X235644990Y-105797928D01*
X233472769Y-105797928D01*
X232167592Y-104492751D01*
X232181000Y-104494072D01*
G04 #@! TA.AperFunction,Conductor*
D26*
G36*
X232181000Y-104494072D02*
G01*
X235644991Y-104494072D01*
X235644990Y-105797928D01*
X233472769Y-105797928D01*
X232167592Y-104492751D01*
X232181000Y-104494072D01*
G37*
G04 #@! TD.AperFunction*
D25*
X226865377Y-101440623D02*
X226998058Y-101549512D01*
X227149433Y-101630423D01*
X227313684Y-101680248D01*
X227484500Y-101697072D01*
X227594541Y-101697072D01*
X227579085Y-101854000D01*
X227598702Y-102053171D01*
X227656798Y-102244687D01*
X227751140Y-102421190D01*
X227878104Y-102575896D01*
X228032810Y-102702860D01*
X228209313Y-102797202D01*
X228400829Y-102855298D01*
X228550098Y-102870000D01*
X229830160Y-102870000D01*
X229997000Y-103036841D01*
X229997001Y-103697386D01*
X229954180Y-103674498D01*
X229834482Y-103638188D01*
X229710000Y-103625928D01*
X229520750Y-103629000D01*
X229362000Y-103787750D01*
X229362000Y-104624500D01*
X229382000Y-104624500D01*
X229382000Y-104878500D01*
X229362000Y-104878500D01*
X229362000Y-104898500D01*
X229108000Y-104898500D01*
X229108000Y-104878500D01*
X229106000Y-104878500D01*
X229106000Y-104624500D01*
X229108000Y-104624500D01*
X229108000Y-104374506D01*
X229109676Y-104357489D01*
X229108000Y-104340472D01*
X229108000Y-103787750D01*
X228949250Y-103629000D01*
X228760000Y-103625928D01*
X228695584Y-103632272D01*
X228491303Y-103427992D01*
X228467501Y-103398989D01*
X228351776Y-103304016D01*
X228219747Y-103233444D01*
X228076486Y-103189987D01*
X227964833Y-103178990D01*
X227964822Y-103178990D01*
X227927500Y-103175314D01*
X227890178Y-103178990D01*
X227189792Y-103178990D01*
X226669500Y-102658699D01*
X226669500Y-101530178D01*
X226778623Y-101440623D01*
X226822000Y-101387768D01*
X226865377Y-101440623D01*
G04 #@! TA.AperFunction,Conductor*
D26*
G36*
X226865377Y-101440623D02*
G01*
X226998058Y-101549512D01*
X227149433Y-101630423D01*
X227313684Y-101680248D01*
X227484500Y-101697072D01*
X227594541Y-101697072D01*
X227579085Y-101854000D01*
X227598702Y-102053171D01*
X227656798Y-102244687D01*
X227751140Y-102421190D01*
X227878104Y-102575896D01*
X228032810Y-102702860D01*
X228209313Y-102797202D01*
X228400829Y-102855298D01*
X228550098Y-102870000D01*
X229830160Y-102870000D01*
X229997000Y-103036841D01*
X229997001Y-103697386D01*
X229954180Y-103674498D01*
X229834482Y-103638188D01*
X229710000Y-103625928D01*
X229520750Y-103629000D01*
X229362000Y-103787750D01*
X229362000Y-104624500D01*
X229382000Y-104624500D01*
X229382000Y-104878500D01*
X229362000Y-104878500D01*
X229362000Y-104898500D01*
X229108000Y-104898500D01*
X229108000Y-104878500D01*
X229106000Y-104878500D01*
X229106000Y-104624500D01*
X229108000Y-104624500D01*
X229108000Y-104374506D01*
X229109676Y-104357489D01*
X229108000Y-104340472D01*
X229108000Y-103787750D01*
X228949250Y-103629000D01*
X228760000Y-103625928D01*
X228695584Y-103632272D01*
X228491303Y-103427992D01*
X228467501Y-103398989D01*
X228351776Y-103304016D01*
X228219747Y-103233444D01*
X228076486Y-103189987D01*
X227964833Y-103178990D01*
X227964822Y-103178990D01*
X227927500Y-103175314D01*
X227890178Y-103178990D01*
X227189792Y-103178990D01*
X226669500Y-102658699D01*
X226669500Y-101530178D01*
X226778623Y-101440623D01*
X226822000Y-101387768D01*
X226865377Y-101440623D01*
G37*
G04 #@! TD.AperFunction*
D25*
X206816577Y-99251567D02*
X206897488Y-99402942D01*
X206928722Y-99441000D01*
X206897488Y-99479058D01*
X206816577Y-99630433D01*
X206766752Y-99794684D01*
X206749928Y-99965500D01*
X206749928Y-100440500D01*
X206766752Y-100611316D01*
X206816577Y-100775567D01*
X206872173Y-100879581D01*
X206857463Y-100897506D01*
X206798498Y-101007820D01*
X206762188Y-101127518D01*
X206749928Y-101252000D01*
X206753000Y-101441250D01*
X206911750Y-101600000D01*
X207798500Y-101600000D01*
X207798500Y-101580000D01*
X208052500Y-101580000D01*
X208052500Y-101600000D01*
X208072500Y-101600000D01*
X208072500Y-101854000D01*
X208052500Y-101854000D01*
X208052500Y-102249750D01*
X208002500Y-102299750D01*
X208002500Y-103124000D01*
X208022500Y-103124000D01*
X208022500Y-103378000D01*
X208002500Y-103378000D01*
X208002500Y-103398000D01*
X207748500Y-103398000D01*
X207748500Y-103378000D01*
X207728500Y-103378000D01*
X207728500Y-103124000D01*
X207748500Y-103124000D01*
X207748500Y-102728250D01*
X207798500Y-102678250D01*
X207798500Y-101854000D01*
X206911750Y-101854000D01*
X206753000Y-102012750D01*
X206749928Y-102202000D01*
X206762188Y-102326482D01*
X206798498Y-102446180D01*
X206821386Y-102489000D01*
X206798498Y-102531820D01*
X206762188Y-102651518D01*
X206749928Y-102776000D01*
X206753000Y-102965250D01*
X206911748Y-103123998D01*
X206753000Y-103123998D01*
X206753000Y-103189198D01*
X206500000Y-102936199D01*
X206500000Y-102769167D01*
X206499998Y-99888163D01*
X206503675Y-99850828D01*
X206489001Y-99701842D01*
X206445545Y-99558582D01*
X206374973Y-99426552D01*
X206303798Y-99339826D01*
X206303793Y-99339821D01*
X206279999Y-99310828D01*
X206251006Y-99287034D01*
X206221194Y-99257223D01*
X206229271Y-99260568D01*
X206409911Y-99296500D01*
X206594089Y-99296500D01*
X206774729Y-99260568D01*
X206814331Y-99244164D01*
X206816577Y-99251567D01*
G04 #@! TA.AperFunction,Conductor*
D26*
G36*
X206816577Y-99251567D02*
G01*
X206897488Y-99402942D01*
X206928722Y-99441000D01*
X206897488Y-99479058D01*
X206816577Y-99630433D01*
X206766752Y-99794684D01*
X206749928Y-99965500D01*
X206749928Y-100440500D01*
X206766752Y-100611316D01*
X206816577Y-100775567D01*
X206872173Y-100879581D01*
X206857463Y-100897506D01*
X206798498Y-101007820D01*
X206762188Y-101127518D01*
X206749928Y-101252000D01*
X206753000Y-101441250D01*
X206911750Y-101600000D01*
X207798500Y-101600000D01*
X207798500Y-101580000D01*
X208052500Y-101580000D01*
X208052500Y-101600000D01*
X208072500Y-101600000D01*
X208072500Y-101854000D01*
X208052500Y-101854000D01*
X208052500Y-102249750D01*
X208002500Y-102299750D01*
X208002500Y-103124000D01*
X208022500Y-103124000D01*
X208022500Y-103378000D01*
X208002500Y-103378000D01*
X208002500Y-103398000D01*
X207748500Y-103398000D01*
X207748500Y-103378000D01*
X207728500Y-103378000D01*
X207728500Y-103124000D01*
X207748500Y-103124000D01*
X207748500Y-102728250D01*
X207798500Y-102678250D01*
X207798500Y-101854000D01*
X206911750Y-101854000D01*
X206753000Y-102012750D01*
X206749928Y-102202000D01*
X206762188Y-102326482D01*
X206798498Y-102446180D01*
X206821386Y-102489000D01*
X206798498Y-102531820D01*
X206762188Y-102651518D01*
X206749928Y-102776000D01*
X206753000Y-102965250D01*
X206911748Y-103123998D01*
X206753000Y-103123998D01*
X206753000Y-103189198D01*
X206500000Y-102936199D01*
X206500000Y-102769167D01*
X206499998Y-99888163D01*
X206503675Y-99850828D01*
X206489001Y-99701842D01*
X206445545Y-99558582D01*
X206374973Y-99426552D01*
X206303798Y-99339826D01*
X206303793Y-99339821D01*
X206279999Y-99310828D01*
X206251006Y-99287034D01*
X206221194Y-99257223D01*
X206229271Y-99260568D01*
X206409911Y-99296500D01*
X206594089Y-99296500D01*
X206774729Y-99260568D01*
X206814331Y-99244164D01*
X206816577Y-99251567D01*
G37*
G04 #@! TD.AperFunction*
D25*
X246962150Y-102398472D02*
X247128746Y-102449008D01*
X247302000Y-102466072D01*
X248252000Y-102466072D01*
X248425254Y-102449008D01*
X248504513Y-102424965D01*
X248499188Y-102442518D01*
X248486928Y-102567000D01*
X248486928Y-102789499D01*
X245469072Y-102789499D01*
X245469072Y-102441357D01*
X245590684Y-102478248D01*
X245761500Y-102495072D01*
X246236500Y-102495072D01*
X246407316Y-102478248D01*
X246571567Y-102428423D01*
X246651871Y-102385500D01*
X246937881Y-102385500D01*
X246962150Y-102398472D01*
G04 #@! TA.AperFunction,Conductor*
D26*
G36*
X246962150Y-102398472D02*
G01*
X247128746Y-102449008D01*
X247302000Y-102466072D01*
X248252000Y-102466072D01*
X248425254Y-102449008D01*
X248504513Y-102424965D01*
X248499188Y-102442518D01*
X248486928Y-102567000D01*
X248486928Y-102789499D01*
X245469072Y-102789499D01*
X245469072Y-102441357D01*
X245590684Y-102478248D01*
X245761500Y-102495072D01*
X246236500Y-102495072D01*
X246407316Y-102478248D01*
X246571567Y-102428423D01*
X246651871Y-102385500D01*
X246937881Y-102385500D01*
X246962150Y-102398472D01*
G37*
G04 #@! TD.AperFunction*
D25*
X193193500Y-102230791D02*
X193193500Y-102235000D01*
X193197709Y-102235000D01*
X193213500Y-102250791D01*
X193213500Y-102489000D01*
X193193500Y-102489000D01*
X193193500Y-102509000D01*
X193131320Y-102509000D01*
X193058729Y-102478932D01*
X192919500Y-102451237D01*
X192919500Y-102235000D01*
X192939500Y-102235000D01*
X192939500Y-102215000D01*
X193177709Y-102215000D01*
X193193500Y-102230791D01*
G04 #@! TA.AperFunction,Conductor*
D26*
G36*
X193193500Y-102230791D02*
G01*
X193193500Y-102235000D01*
X193197709Y-102235000D01*
X193213500Y-102250791D01*
X193213500Y-102489000D01*
X193193500Y-102489000D01*
X193193500Y-102509000D01*
X193131320Y-102509000D01*
X193058729Y-102478932D01*
X192919500Y-102451237D01*
X192919500Y-102235000D01*
X192939500Y-102235000D01*
X192939500Y-102215000D01*
X193177709Y-102215000D01*
X193193500Y-102230791D01*
G37*
G04 #@! TD.AperFunction*
D25*
X192788001Y-100949000D02*
X192751000Y-100949000D01*
X192751000Y-100695000D01*
X192788001Y-100695000D01*
X192788001Y-100949000D01*
G04 #@! TA.AperFunction,Conductor*
D26*
G36*
X192788001Y-100949000D02*
G01*
X192751000Y-100949000D01*
X192751000Y-100695000D01*
X192788001Y-100695000D01*
X192788001Y-100949000D01*
G37*
G04 #@! TD.AperFunction*
D25*
X213793510Y-99461000D02*
X213614000Y-99461000D01*
X213614000Y-99441000D01*
X213594000Y-99441000D01*
X213594000Y-99187000D01*
X213614000Y-99187000D01*
X213614000Y-99167000D01*
X213793511Y-99167000D01*
X213793510Y-99461000D01*
G04 #@! TA.AperFunction,Conductor*
D26*
G36*
X213793510Y-99461000D02*
G01*
X213614000Y-99461000D01*
X213614000Y-99441000D01*
X213594000Y-99441000D01*
X213594000Y-99187000D01*
X213614000Y-99187000D01*
X213614000Y-99167000D01*
X213793511Y-99167000D01*
X213793510Y-99461000D01*
G37*
G04 #@! TD.AperFunction*
D25*
X210921463Y-98619494D02*
X210921942Y-98620078D01*
X210857077Y-98741433D01*
X210807252Y-98905684D01*
X210803368Y-98945118D01*
X210664250Y-98806000D01*
X209777500Y-98806000D01*
X209777500Y-98826000D01*
X209523500Y-98826000D01*
X209523500Y-98806000D01*
X209503500Y-98806000D01*
X209503500Y-98588010D01*
X210744668Y-98588010D01*
X210781990Y-98591686D01*
X210819312Y-98588010D01*
X210819323Y-98588010D01*
X210900367Y-98580028D01*
X210921463Y-98619494D01*
G04 #@! TA.AperFunction,Conductor*
D26*
G36*
X210921463Y-98619494D02*
G01*
X210921942Y-98620078D01*
X210857077Y-98741433D01*
X210807252Y-98905684D01*
X210803368Y-98945118D01*
X210664250Y-98806000D01*
X209777500Y-98806000D01*
X209777500Y-98826000D01*
X209523500Y-98826000D01*
X209523500Y-98806000D01*
X209503500Y-98806000D01*
X209503500Y-98588010D01*
X210744668Y-98588010D01*
X210781990Y-98591686D01*
X210819312Y-98588010D01*
X210819323Y-98588010D01*
X210900367Y-98580028D01*
X210921463Y-98619494D01*
G37*
G04 #@! TD.AperFunction*
D25*
X212066500Y-97663000D02*
X212086500Y-97663000D01*
X212086500Y-97917000D01*
X212066500Y-97917000D01*
X212066500Y-97937000D01*
X211812500Y-97937000D01*
X211812500Y-97917000D01*
X211792500Y-97917000D01*
X211792500Y-97785543D01*
X211823003Y-97684986D01*
X211827138Y-97643000D01*
X212066500Y-97643000D01*
X212066500Y-97663000D01*
G04 #@! TA.AperFunction,Conductor*
D26*
G36*
X212066500Y-97663000D02*
G01*
X212086500Y-97663000D01*
X212086500Y-97917000D01*
X212066500Y-97917000D01*
X212066500Y-97937000D01*
X211812500Y-97937000D01*
X211812500Y-97917000D01*
X211792500Y-97917000D01*
X211792500Y-97785543D01*
X211823003Y-97684986D01*
X211827138Y-97643000D01*
X212066500Y-97643000D01*
X212066500Y-97663000D01*
G37*
G04 #@! TD.AperFunction*
D25*
X195302500Y-95758000D02*
X195322500Y-95758000D01*
X195322500Y-96008458D01*
X195315873Y-96012000D01*
X195302500Y-96012000D01*
X195302500Y-96019148D01*
X195278456Y-96032000D01*
X195048500Y-96032000D01*
X195048500Y-96012000D01*
X195028500Y-96012000D01*
X195028500Y-95758000D01*
X195048500Y-95758000D01*
X195048500Y-95738000D01*
X195302500Y-95738000D01*
X195302500Y-95758000D01*
G04 #@! TA.AperFunction,Conductor*
D26*
G36*
X195302500Y-95758000D02*
G01*
X195322500Y-95758000D01*
X195322500Y-96008458D01*
X195315873Y-96012000D01*
X195302500Y-96012000D01*
X195302500Y-96019148D01*
X195278456Y-96032000D01*
X195048500Y-96032000D01*
X195048500Y-96012000D01*
X195028500Y-96012000D01*
X195028500Y-95758000D01*
X195048500Y-95758000D01*
X195048500Y-95738000D01*
X195302500Y-95738000D01*
X195302500Y-95758000D01*
G37*
G04 #@! TD.AperFunction*
M02*
