%FSLAX45Y45*%
G04 Gerber Fmt 4.5, Leading zero omitted, Abs format (unit mm)*
G04 Created by KiCad (PCBNEW 6.0.6-1.fc36) date 2022-08-14 11:43:38*
%MOMM*%
%LPD*%
G01*
G04 APERTURE LIST*
%TA.AperFunction,Profile*%
%ADD10C,0.100000*%
%TD*%
%ADD11C,0.200000*%
G04 APERTURE END LIST*
D10*
X14147800Y-8064500D02*
X14147800Y-5080000D01*
X14147800Y-5080000D02*
X7683500Y-5080000D01*
X7683500Y-8064500D02*
X14147800Y-8064500D01*
X7683500Y-5080000D02*
X7683500Y-8064500D01*
D11*
X7936119Y-8379976D02*
X7936119Y-8179976D01*
X7983738Y-8179976D01*
X8012309Y-8189500D01*
X8031357Y-8208548D01*
X8040881Y-8227595D01*
X8050405Y-8265690D01*
X8050405Y-8294262D01*
X8040881Y-8332357D01*
X8031357Y-8351405D01*
X8012309Y-8370452D01*
X7983738Y-8379976D01*
X7936119Y-8379976D01*
X8136119Y-8379976D02*
X8136119Y-8246643D01*
X8136119Y-8284738D02*
X8145643Y-8265690D01*
X8155167Y-8256167D01*
X8174214Y-8246643D01*
X8193262Y-8246643D01*
X8259928Y-8379976D02*
X8259928Y-8246643D01*
X8259928Y-8179976D02*
X8250405Y-8189500D01*
X8259928Y-8199024D01*
X8269452Y-8189500D01*
X8259928Y-8179976D01*
X8259928Y-8199024D01*
X8383738Y-8379976D02*
X8364690Y-8370452D01*
X8355167Y-8351405D01*
X8355167Y-8179976D01*
X8488500Y-8379976D02*
X8469452Y-8370452D01*
X8459929Y-8351405D01*
X8459929Y-8179976D01*
X8717071Y-8379976D02*
X8717071Y-8179976D01*
X8783738Y-8322833D01*
X8850405Y-8179976D01*
X8850405Y-8379976D01*
X9031357Y-8379976D02*
X9031357Y-8275214D01*
X9021833Y-8256167D01*
X9002786Y-8246643D01*
X8964690Y-8246643D01*
X8945643Y-8256167D01*
X9031357Y-8370452D02*
X9012310Y-8379976D01*
X8964690Y-8379976D01*
X8945643Y-8370452D01*
X8936119Y-8351405D01*
X8936119Y-8332357D01*
X8945643Y-8313309D01*
X8964690Y-8303786D01*
X9012310Y-8303786D01*
X9031357Y-8294262D01*
X9126595Y-8246643D02*
X9126595Y-8446643D01*
X9126595Y-8256167D02*
X9145643Y-8246643D01*
X9183738Y-8246643D01*
X9202786Y-8256167D01*
X9212310Y-8265690D01*
X9221833Y-8284738D01*
X9221833Y-8341881D01*
X9212310Y-8360928D01*
X9202786Y-8370452D01*
X9183738Y-8379976D01*
X9145643Y-8379976D01*
X9126595Y-8370452D01*
X9307548Y-8360928D02*
X9317071Y-8370452D01*
X9307548Y-8379976D01*
X9298024Y-8370452D01*
X9307548Y-8360928D01*
X9307548Y-8379976D01*
X9307548Y-8256167D02*
X9317071Y-8265690D01*
X9307548Y-8275214D01*
X9298024Y-8265690D01*
X9307548Y-8256167D01*
X9307548Y-8275214D01*
M02*
