G04 #@! TF.GenerationSoftware,KiCad,Pcbnew,5.1.10-1.fc32*
G04 #@! TF.CreationDate,2021-08-09T17:43:32+02:00*
G04 #@! TF.ProjectId,esc_brushless,6573635f-6272-4757-9368-6c6573732e6b,rev?*
G04 #@! TF.SameCoordinates,Original*
G04 #@! TF.FileFunction,Copper,L4,Bot*
G04 #@! TF.FilePolarity,Positive*
%FSLAX46Y46*%
G04 Gerber Fmt 4.6, Leading zero omitted, Abs format (unit mm)*
G04 Created by KiCad (PCBNEW 5.1.10-1.fc32) date 2021-08-09 17:43:32*
%MOMM*%
%LPD*%
G01*
G04 APERTURE LIST*
G04 #@! TA.AperFunction,SMDPad,CuDef*
%ADD10R,3.500000X2.300000*%
G04 #@! TD*
G04 #@! TA.AperFunction,ComponentPad*
%ADD11R,3.400000X3.400000*%
G04 #@! TD*
G04 #@! TA.AperFunction,ComponentPad*
%ADD12R,1.700000X1.700000*%
G04 #@! TD*
G04 #@! TA.AperFunction,ComponentPad*
%ADD13O,1.700000X1.700000*%
G04 #@! TD*
G04 #@! TA.AperFunction,SMDPad,CuDef*
%ADD14O,2.700000X8.000000*%
G04 #@! TD*
G04 #@! TA.AperFunction,SMDPad,CuDef*
%ADD15R,7.000000X7.000000*%
G04 #@! TD*
G04 #@! TA.AperFunction,SMDPad,CuDef*
%ADD16R,3.500000X2.000000*%
G04 #@! TD*
G04 #@! TA.AperFunction,SMDPad,CuDef*
%ADD17R,0.800000X0.900000*%
G04 #@! TD*
G04 #@! TA.AperFunction,SMDPad,CuDef*
%ADD18R,0.900000X0.800000*%
G04 #@! TD*
G04 #@! TA.AperFunction,SMDPad,CuDef*
%ADD19O,1.250000X1.250000*%
G04 #@! TD*
G04 #@! TA.AperFunction,ViaPad*
%ADD20C,0.600000*%
G04 #@! TD*
G04 #@! TA.AperFunction,ViaPad*
%ADD21C,0.800000*%
G04 #@! TD*
G04 #@! TA.AperFunction,Conductor*
%ADD22C,0.762000*%
G04 #@! TD*
G04 #@! TA.AperFunction,Conductor*
%ADD23C,0.381000*%
G04 #@! TD*
G04 #@! TA.AperFunction,Conductor*
%ADD24C,0.250000*%
G04 #@! TD*
G04 #@! TA.AperFunction,Conductor*
%ADD25C,1.524000*%
G04 #@! TD*
G04 #@! TA.AperFunction,Conductor*
%ADD26C,0.254000*%
G04 #@! TD*
G04 #@! TA.AperFunction,Conductor*
%ADD27C,0.100000*%
G04 #@! TD*
G04 APERTURE END LIST*
G04 #@! TA.AperFunction,SMDPad,CuDef*
G36*
G01*
X224425500Y-103502000D02*
X224900500Y-103502000D01*
G75*
G02*
X225138000Y-103739500I0J-237500D01*
G01*
X225138000Y-104339500D01*
G75*
G02*
X224900500Y-104577000I-237500J0D01*
G01*
X224425500Y-104577000D01*
G75*
G02*
X224188000Y-104339500I0J237500D01*
G01*
X224188000Y-103739500D01*
G75*
G02*
X224425500Y-103502000I237500J0D01*
G01*
G37*
G04 #@! TD.AperFunction*
G04 #@! TA.AperFunction,SMDPad,CuDef*
G36*
G01*
X224425500Y-105227000D02*
X224900500Y-105227000D01*
G75*
G02*
X225138000Y-105464500I0J-237500D01*
G01*
X225138000Y-106064500D01*
G75*
G02*
X224900500Y-106302000I-237500J0D01*
G01*
X224425500Y-106302000D01*
G75*
G02*
X224188000Y-106064500I0J237500D01*
G01*
X224188000Y-105464500D01*
G75*
G02*
X224425500Y-105227000I237500J0D01*
G01*
G37*
G04 #@! TD.AperFunction*
G04 #@! TA.AperFunction,SMDPad,CuDef*
G36*
G01*
X248115002Y-111241000D02*
X245914998Y-111241000D01*
G75*
G02*
X245665000Y-110991002I0J249998D01*
G01*
X245665000Y-110165998D01*
G75*
G02*
X245914998Y-109916000I249998J0D01*
G01*
X248115002Y-109916000D01*
G75*
G02*
X248365000Y-110165998I0J-249998D01*
G01*
X248365000Y-110991002D01*
G75*
G02*
X248115002Y-111241000I-249998J0D01*
G01*
G37*
G04 #@! TD.AperFunction*
G04 #@! TA.AperFunction,SMDPad,CuDef*
G36*
G01*
X248115002Y-114366000D02*
X245914998Y-114366000D01*
G75*
G02*
X245665000Y-114116002I0J249998D01*
G01*
X245665000Y-113290998D01*
G75*
G02*
X245914998Y-113041000I249998J0D01*
G01*
X248115002Y-113041000D01*
G75*
G02*
X248365000Y-113290998I0J-249998D01*
G01*
X248365000Y-114116002D01*
G75*
G02*
X248115002Y-114366000I-249998J0D01*
G01*
G37*
G04 #@! TD.AperFunction*
G04 #@! TA.AperFunction,SMDPad,CuDef*
G36*
G01*
X247861002Y-106111000D02*
X245660998Y-106111000D01*
G75*
G02*
X245411000Y-105861002I0J249998D01*
G01*
X245411000Y-105035998D01*
G75*
G02*
X245660998Y-104786000I249998J0D01*
G01*
X247861002Y-104786000D01*
G75*
G02*
X248111000Y-105035998I0J-249998D01*
G01*
X248111000Y-105861002D01*
G75*
G02*
X247861002Y-106111000I-249998J0D01*
G01*
G37*
G04 #@! TD.AperFunction*
G04 #@! TA.AperFunction,SMDPad,CuDef*
G36*
G01*
X247861002Y-102986000D02*
X245660998Y-102986000D01*
G75*
G02*
X245411000Y-102736002I0J249998D01*
G01*
X245411000Y-101910998D01*
G75*
G02*
X245660998Y-101661000I249998J0D01*
G01*
X247861002Y-101661000D01*
G75*
G02*
X248111000Y-101910998I0J-249998D01*
G01*
X248111000Y-102736002D01*
G75*
G02*
X247861002Y-102986000I-249998J0D01*
G01*
G37*
G04 #@! TD.AperFunction*
G04 #@! TA.AperFunction,SMDPad,CuDef*
G36*
G01*
X247734002Y-94223000D02*
X245533998Y-94223000D01*
G75*
G02*
X245284000Y-93973002I0J249998D01*
G01*
X245284000Y-93147998D01*
G75*
G02*
X245533998Y-92898000I249998J0D01*
G01*
X247734002Y-92898000D01*
G75*
G02*
X247984000Y-93147998I0J-249998D01*
G01*
X247984000Y-93973002D01*
G75*
G02*
X247734002Y-94223000I-249998J0D01*
G01*
G37*
G04 #@! TD.AperFunction*
G04 #@! TA.AperFunction,SMDPad,CuDef*
G36*
G01*
X247734002Y-97348000D02*
X245533998Y-97348000D01*
G75*
G02*
X245284000Y-97098002I0J249998D01*
G01*
X245284000Y-96272998D01*
G75*
G02*
X245533998Y-96023000I249998J0D01*
G01*
X247734002Y-96023000D01*
G75*
G02*
X247984000Y-96272998I0J-249998D01*
G01*
X247984000Y-97098002D01*
G75*
G02*
X247734002Y-97348000I-249998J0D01*
G01*
G37*
G04 #@! TD.AperFunction*
G04 #@! TA.AperFunction,SMDPad,CuDef*
G36*
G01*
X219395000Y-114469998D02*
X219395000Y-116670002D01*
G75*
G02*
X219145002Y-116920000I-249998J0D01*
G01*
X218319998Y-116920000D01*
G75*
G02*
X218070000Y-116670002I0J249998D01*
G01*
X218070000Y-114469998D01*
G75*
G02*
X218319998Y-114220000I249998J0D01*
G01*
X219145002Y-114220000D01*
G75*
G02*
X219395000Y-114469998I0J-249998D01*
G01*
G37*
G04 #@! TD.AperFunction*
G04 #@! TA.AperFunction,SMDPad,CuDef*
G36*
G01*
X216270000Y-114469998D02*
X216270000Y-116670002D01*
G75*
G02*
X216020002Y-116920000I-249998J0D01*
G01*
X215194998Y-116920000D01*
G75*
G02*
X214945000Y-116670002I0J249998D01*
G01*
X214945000Y-114469998D01*
G75*
G02*
X215194998Y-114220000I249998J0D01*
G01*
X216020002Y-114220000D01*
G75*
G02*
X216270000Y-114469998I0J-249998D01*
G01*
G37*
G04 #@! TD.AperFunction*
G04 #@! TA.AperFunction,SMDPad,CuDef*
G36*
G01*
X215776000Y-111014500D02*
X215776000Y-111489500D01*
G75*
G02*
X215538500Y-111727000I-237500J0D01*
G01*
X214938500Y-111727000D01*
G75*
G02*
X214701000Y-111489500I0J237500D01*
G01*
X214701000Y-111014500D01*
G75*
G02*
X214938500Y-110777000I237500J0D01*
G01*
X215538500Y-110777000D01*
G75*
G02*
X215776000Y-111014500I0J-237500D01*
G01*
G37*
G04 #@! TD.AperFunction*
G04 #@! TA.AperFunction,SMDPad,CuDef*
G36*
G01*
X214051000Y-111014500D02*
X214051000Y-111489500D01*
G75*
G02*
X213813500Y-111727000I-237500J0D01*
G01*
X213213500Y-111727000D01*
G75*
G02*
X212976000Y-111489500I0J237500D01*
G01*
X212976000Y-111014500D01*
G75*
G02*
X213213500Y-110777000I237500J0D01*
G01*
X213813500Y-110777000D01*
G75*
G02*
X214051000Y-111014500I0J-237500D01*
G01*
G37*
G04 #@! TD.AperFunction*
G04 #@! TA.AperFunction,SMDPad,CuDef*
G36*
G01*
X215776000Y-112919500D02*
X215776000Y-113394500D01*
G75*
G02*
X215538500Y-113632000I-237500J0D01*
G01*
X214938500Y-113632000D01*
G75*
G02*
X214701000Y-113394500I0J237500D01*
G01*
X214701000Y-112919500D01*
G75*
G02*
X214938500Y-112682000I237500J0D01*
G01*
X215538500Y-112682000D01*
G75*
G02*
X215776000Y-112919500I0J-237500D01*
G01*
G37*
G04 #@! TD.AperFunction*
G04 #@! TA.AperFunction,SMDPad,CuDef*
G36*
G01*
X214051000Y-112919500D02*
X214051000Y-113394500D01*
G75*
G02*
X213813500Y-113632000I-237500J0D01*
G01*
X213213500Y-113632000D01*
G75*
G02*
X212976000Y-113394500I0J237500D01*
G01*
X212976000Y-112919500D01*
G75*
G02*
X213213500Y-112682000I237500J0D01*
G01*
X213813500Y-112682000D01*
G75*
G02*
X214051000Y-112919500I0J-237500D01*
G01*
G37*
G04 #@! TD.AperFunction*
G04 #@! TA.AperFunction,SMDPad,CuDef*
G36*
G01*
X217915500Y-103889000D02*
X217440500Y-103889000D01*
G75*
G02*
X217203000Y-103651500I0J237500D01*
G01*
X217203000Y-103051500D01*
G75*
G02*
X217440500Y-102814000I237500J0D01*
G01*
X217915500Y-102814000D01*
G75*
G02*
X218153000Y-103051500I0J-237500D01*
G01*
X218153000Y-103651500D01*
G75*
G02*
X217915500Y-103889000I-237500J0D01*
G01*
G37*
G04 #@! TD.AperFunction*
G04 #@! TA.AperFunction,SMDPad,CuDef*
G36*
G01*
X217915500Y-102164000D02*
X217440500Y-102164000D01*
G75*
G02*
X217203000Y-101926500I0J237500D01*
G01*
X217203000Y-101326500D01*
G75*
G02*
X217440500Y-101089000I237500J0D01*
G01*
X217915500Y-101089000D01*
G75*
G02*
X218153000Y-101326500I0J-237500D01*
G01*
X218153000Y-101926500D01*
G75*
G02*
X217915500Y-102164000I-237500J0D01*
G01*
G37*
G04 #@! TD.AperFunction*
G04 #@! TA.AperFunction,SMDPad,CuDef*
G36*
G01*
X212741500Y-106243000D02*
X213216500Y-106243000D01*
G75*
G02*
X213454000Y-106480500I0J-237500D01*
G01*
X213454000Y-107080500D01*
G75*
G02*
X213216500Y-107318000I-237500J0D01*
G01*
X212741500Y-107318000D01*
G75*
G02*
X212504000Y-107080500I0J237500D01*
G01*
X212504000Y-106480500D01*
G75*
G02*
X212741500Y-106243000I237500J0D01*
G01*
G37*
G04 #@! TD.AperFunction*
G04 #@! TA.AperFunction,SMDPad,CuDef*
G36*
G01*
X212741500Y-104518000D02*
X213216500Y-104518000D01*
G75*
G02*
X213454000Y-104755500I0J-237500D01*
G01*
X213454000Y-105355500D01*
G75*
G02*
X213216500Y-105593000I-237500J0D01*
G01*
X212741500Y-105593000D01*
G75*
G02*
X212504000Y-105355500I0J237500D01*
G01*
X212504000Y-104755500D01*
G75*
G02*
X212741500Y-104518000I237500J0D01*
G01*
G37*
G04 #@! TD.AperFunction*
G04 #@! TA.AperFunction,SMDPad,CuDef*
G36*
G01*
X206771002Y-98872000D02*
X205470998Y-98872000D01*
G75*
G02*
X205221000Y-98622002I0J249998D01*
G01*
X205221000Y-97796998D01*
G75*
G02*
X205470998Y-97547000I249998J0D01*
G01*
X206771002Y-97547000D01*
G75*
G02*
X207021000Y-97796998I0J-249998D01*
G01*
X207021000Y-98622002D01*
G75*
G02*
X206771002Y-98872000I-249998J0D01*
G01*
G37*
G04 #@! TD.AperFunction*
G04 #@! TA.AperFunction,SMDPad,CuDef*
G36*
G01*
X206771002Y-95747000D02*
X205470998Y-95747000D01*
G75*
G02*
X205221000Y-95497002I0J249998D01*
G01*
X205221000Y-94671998D01*
G75*
G02*
X205470998Y-94422000I249998J0D01*
G01*
X206771002Y-94422000D01*
G75*
G02*
X207021000Y-94671998I0J-249998D01*
G01*
X207021000Y-95497002D01*
G75*
G02*
X206771002Y-95747000I-249998J0D01*
G01*
G37*
G04 #@! TD.AperFunction*
G04 #@! TA.AperFunction,SMDPad,CuDef*
G36*
G01*
X197683000Y-103869500D02*
X197683000Y-103394500D01*
G75*
G02*
X197920500Y-103157000I237500J0D01*
G01*
X198520500Y-103157000D01*
G75*
G02*
X198758000Y-103394500I0J-237500D01*
G01*
X198758000Y-103869500D01*
G75*
G02*
X198520500Y-104107000I-237500J0D01*
G01*
X197920500Y-104107000D01*
G75*
G02*
X197683000Y-103869500I0J237500D01*
G01*
G37*
G04 #@! TD.AperFunction*
G04 #@! TA.AperFunction,SMDPad,CuDef*
G36*
G01*
X195958000Y-103869500D02*
X195958000Y-103394500D01*
G75*
G02*
X196195500Y-103157000I237500J0D01*
G01*
X196795500Y-103157000D01*
G75*
G02*
X197033000Y-103394500I0J-237500D01*
G01*
X197033000Y-103869500D01*
G75*
G02*
X196795500Y-104107000I-237500J0D01*
G01*
X196195500Y-104107000D01*
G75*
G02*
X195958000Y-103869500I0J237500D01*
G01*
G37*
G04 #@! TD.AperFunction*
G04 #@! TA.AperFunction,SMDPad,CuDef*
G36*
G01*
X195958000Y-106917500D02*
X195958000Y-106442500D01*
G75*
G02*
X196195500Y-106205000I237500J0D01*
G01*
X196795500Y-106205000D01*
G75*
G02*
X197033000Y-106442500I0J-237500D01*
G01*
X197033000Y-106917500D01*
G75*
G02*
X196795500Y-107155000I-237500J0D01*
G01*
X196195500Y-107155000D01*
G75*
G02*
X195958000Y-106917500I0J237500D01*
G01*
G37*
G04 #@! TD.AperFunction*
G04 #@! TA.AperFunction,SMDPad,CuDef*
G36*
G01*
X197683000Y-106917500D02*
X197683000Y-106442500D01*
G75*
G02*
X197920500Y-106205000I237500J0D01*
G01*
X198520500Y-106205000D01*
G75*
G02*
X198758000Y-106442500I0J-237500D01*
G01*
X198758000Y-106917500D01*
G75*
G02*
X198520500Y-107155000I-237500J0D01*
G01*
X197920500Y-107155000D01*
G75*
G02*
X197683000Y-106917500I0J237500D01*
G01*
G37*
G04 #@! TD.AperFunction*
G04 #@! TA.AperFunction,SMDPad,CuDef*
G36*
G01*
X197683000Y-105393500D02*
X197683000Y-104918500D01*
G75*
G02*
X197920500Y-104681000I237500J0D01*
G01*
X198520500Y-104681000D01*
G75*
G02*
X198758000Y-104918500I0J-237500D01*
G01*
X198758000Y-105393500D01*
G75*
G02*
X198520500Y-105631000I-237500J0D01*
G01*
X197920500Y-105631000D01*
G75*
G02*
X197683000Y-105393500I0J237500D01*
G01*
G37*
G04 #@! TD.AperFunction*
G04 #@! TA.AperFunction,SMDPad,CuDef*
G36*
G01*
X195958000Y-105393500D02*
X195958000Y-104918500D01*
G75*
G02*
X196195500Y-104681000I237500J0D01*
G01*
X196795500Y-104681000D01*
G75*
G02*
X197033000Y-104918500I0J-237500D01*
G01*
X197033000Y-105393500D01*
G75*
G02*
X196795500Y-105631000I-237500J0D01*
G01*
X196195500Y-105631000D01*
G75*
G02*
X195958000Y-105393500I0J237500D01*
G01*
G37*
G04 #@! TD.AperFunction*
G04 #@! TA.AperFunction,SMDPad,CuDef*
G36*
G01*
X196993500Y-99512000D02*
X197468500Y-99512000D01*
G75*
G02*
X197706000Y-99749500I0J-237500D01*
G01*
X197706000Y-100349500D01*
G75*
G02*
X197468500Y-100587000I-237500J0D01*
G01*
X196993500Y-100587000D01*
G75*
G02*
X196756000Y-100349500I0J237500D01*
G01*
X196756000Y-99749500D01*
G75*
G02*
X196993500Y-99512000I237500J0D01*
G01*
G37*
G04 #@! TD.AperFunction*
G04 #@! TA.AperFunction,SMDPad,CuDef*
G36*
G01*
X196993500Y-97787000D02*
X197468500Y-97787000D01*
G75*
G02*
X197706000Y-98024500I0J-237500D01*
G01*
X197706000Y-98624500D01*
G75*
G02*
X197468500Y-98862000I-237500J0D01*
G01*
X196993500Y-98862000D01*
G75*
G02*
X196756000Y-98624500I0J237500D01*
G01*
X196756000Y-98024500D01*
G75*
G02*
X196993500Y-97787000I237500J0D01*
G01*
G37*
G04 #@! TD.AperFunction*
G04 #@! TA.AperFunction,SMDPad,CuDef*
G36*
G01*
X204326500Y-95433000D02*
X203851500Y-95433000D01*
G75*
G02*
X203614000Y-95195500I0J237500D01*
G01*
X203614000Y-94595500D01*
G75*
G02*
X203851500Y-94358000I237500J0D01*
G01*
X204326500Y-94358000D01*
G75*
G02*
X204564000Y-94595500I0J-237500D01*
G01*
X204564000Y-95195500D01*
G75*
G02*
X204326500Y-95433000I-237500J0D01*
G01*
G37*
G04 #@! TD.AperFunction*
G04 #@! TA.AperFunction,SMDPad,CuDef*
G36*
G01*
X204326500Y-97158000D02*
X203851500Y-97158000D01*
G75*
G02*
X203614000Y-96920500I0J237500D01*
G01*
X203614000Y-96320500D01*
G75*
G02*
X203851500Y-96083000I237500J0D01*
G01*
X204326500Y-96083000D01*
G75*
G02*
X204564000Y-96320500I0J-237500D01*
G01*
X204564000Y-96920500D01*
G75*
G02*
X204326500Y-97158000I-237500J0D01*
G01*
G37*
G04 #@! TD.AperFunction*
G04 #@! TA.AperFunction,SMDPad,CuDef*
G36*
G01*
X198865500Y-97158000D02*
X198390500Y-97158000D01*
G75*
G02*
X198153000Y-96920500I0J237500D01*
G01*
X198153000Y-96320500D01*
G75*
G02*
X198390500Y-96083000I237500J0D01*
G01*
X198865500Y-96083000D01*
G75*
G02*
X199103000Y-96320500I0J-237500D01*
G01*
X199103000Y-96920500D01*
G75*
G02*
X198865500Y-97158000I-237500J0D01*
G01*
G37*
G04 #@! TD.AperFunction*
G04 #@! TA.AperFunction,SMDPad,CuDef*
G36*
G01*
X198865500Y-95433000D02*
X198390500Y-95433000D01*
G75*
G02*
X198153000Y-95195500I0J237500D01*
G01*
X198153000Y-94595500D01*
G75*
G02*
X198390500Y-94358000I237500J0D01*
G01*
X198865500Y-94358000D01*
G75*
G02*
X199103000Y-94595500I0J-237500D01*
G01*
X199103000Y-95195500D01*
G75*
G02*
X198865500Y-95433000I-237500J0D01*
G01*
G37*
G04 #@! TD.AperFunction*
G04 #@! TA.AperFunction,SMDPad,CuDef*
G36*
G01*
X195182500Y-112705000D02*
X194707500Y-112705000D01*
G75*
G02*
X194470000Y-112467500I0J237500D01*
G01*
X194470000Y-111867500D01*
G75*
G02*
X194707500Y-111630000I237500J0D01*
G01*
X195182500Y-111630000D01*
G75*
G02*
X195420000Y-111867500I0J-237500D01*
G01*
X195420000Y-112467500D01*
G75*
G02*
X195182500Y-112705000I-237500J0D01*
G01*
G37*
G04 #@! TD.AperFunction*
G04 #@! TA.AperFunction,SMDPad,CuDef*
G36*
G01*
X195182500Y-114430000D02*
X194707500Y-114430000D01*
G75*
G02*
X194470000Y-114192500I0J237500D01*
G01*
X194470000Y-113592500D01*
G75*
G02*
X194707500Y-113355000I237500J0D01*
G01*
X195182500Y-113355000D01*
G75*
G02*
X195420000Y-113592500I0J-237500D01*
G01*
X195420000Y-114192500D01*
G75*
G02*
X195182500Y-114430000I-237500J0D01*
G01*
G37*
G04 #@! TD.AperFunction*
D10*
X218153000Y-96647000D03*
X223553000Y-96647000D03*
D11*
X192278000Y-95885000D03*
X192278000Y-116205000D03*
D12*
X191643000Y-105537000D03*
D13*
X191643000Y-108077000D03*
X191643000Y-110617000D03*
D12*
X197866000Y-116459000D03*
D13*
X200406000Y-116459000D03*
D11*
X250825000Y-112649000D03*
X250825000Y-104267000D03*
X250825000Y-95631000D03*
D14*
X214232000Y-98171000D03*
X208932000Y-98171000D03*
D15*
X241331000Y-114300000D03*
D16*
X233931000Y-112020000D03*
X233931000Y-116600000D03*
X233931000Y-107456000D03*
X233931000Y-102876000D03*
D15*
X241331000Y-105156000D03*
D16*
X233804000Y-98820000D03*
X233804000Y-94240000D03*
D15*
X241204000Y-96520000D03*
D17*
X206055000Y-103616000D03*
X204155000Y-103616000D03*
X205105000Y-101616000D03*
D18*
X200771000Y-99314000D03*
X198771000Y-98364000D03*
X198771000Y-100264000D03*
G04 #@! TA.AperFunction,SMDPad,CuDef*
G36*
G01*
X231143000Y-109490500D02*
X231143000Y-109965500D01*
G75*
G02*
X230905500Y-110203000I-237500J0D01*
G01*
X230405500Y-110203000D01*
G75*
G02*
X230168000Y-109965500I0J237500D01*
G01*
X230168000Y-109490500D01*
G75*
G02*
X230405500Y-109253000I237500J0D01*
G01*
X230905500Y-109253000D01*
G75*
G02*
X231143000Y-109490500I0J-237500D01*
G01*
G37*
G04 #@! TD.AperFunction*
G04 #@! TA.AperFunction,SMDPad,CuDef*
G36*
G01*
X229318000Y-109490500D02*
X229318000Y-109965500D01*
G75*
G02*
X229080500Y-110203000I-237500J0D01*
G01*
X228580500Y-110203000D01*
G75*
G02*
X228343000Y-109965500I0J237500D01*
G01*
X228343000Y-109490500D01*
G75*
G02*
X228580500Y-109253000I237500J0D01*
G01*
X229080500Y-109253000D01*
G75*
G02*
X229318000Y-109490500I0J-237500D01*
G01*
G37*
G04 #@! TD.AperFunction*
G04 #@! TA.AperFunction,SMDPad,CuDef*
G36*
G01*
X233597000Y-109965500D02*
X233597000Y-109490500D01*
G75*
G02*
X233834500Y-109253000I237500J0D01*
G01*
X234334500Y-109253000D01*
G75*
G02*
X234572000Y-109490500I0J-237500D01*
G01*
X234572000Y-109965500D01*
G75*
G02*
X234334500Y-110203000I-237500J0D01*
G01*
X233834500Y-110203000D01*
G75*
G02*
X233597000Y-109965500I0J237500D01*
G01*
G37*
G04 #@! TD.AperFunction*
G04 #@! TA.AperFunction,SMDPad,CuDef*
G36*
G01*
X231772000Y-109965500D02*
X231772000Y-109490500D01*
G75*
G02*
X232009500Y-109253000I237500J0D01*
G01*
X232509500Y-109253000D01*
G75*
G02*
X232747000Y-109490500I0J-237500D01*
G01*
X232747000Y-109965500D01*
G75*
G02*
X232509500Y-110203000I-237500J0D01*
G01*
X232009500Y-110203000D01*
G75*
G02*
X231772000Y-109965500I0J237500D01*
G01*
G37*
G04 #@! TD.AperFunction*
G04 #@! TA.AperFunction,SMDPad,CuDef*
G36*
G01*
X234572000Y-118634500D02*
X234572000Y-119109500D01*
G75*
G02*
X234334500Y-119347000I-237500J0D01*
G01*
X233834500Y-119347000D01*
G75*
G02*
X233597000Y-119109500I0J237500D01*
G01*
X233597000Y-118634500D01*
G75*
G02*
X233834500Y-118397000I237500J0D01*
G01*
X234334500Y-118397000D01*
G75*
G02*
X234572000Y-118634500I0J-237500D01*
G01*
G37*
G04 #@! TD.AperFunction*
G04 #@! TA.AperFunction,SMDPad,CuDef*
G36*
G01*
X232747000Y-118634500D02*
X232747000Y-119109500D01*
G75*
G02*
X232509500Y-119347000I-237500J0D01*
G01*
X232009500Y-119347000D01*
G75*
G02*
X231772000Y-119109500I0J237500D01*
G01*
X231772000Y-118634500D01*
G75*
G02*
X232009500Y-118397000I237500J0D01*
G01*
X232509500Y-118397000D01*
G75*
G02*
X232747000Y-118634500I0J-237500D01*
G01*
G37*
G04 #@! TD.AperFunction*
G04 #@! TA.AperFunction,SMDPad,CuDef*
G36*
G01*
X236176000Y-109490500D02*
X236176000Y-109965500D01*
G75*
G02*
X235938500Y-110203000I-237500J0D01*
G01*
X235438500Y-110203000D01*
G75*
G02*
X235201000Y-109965500I0J237500D01*
G01*
X235201000Y-109490500D01*
G75*
G02*
X235438500Y-109253000I237500J0D01*
G01*
X235938500Y-109253000D01*
G75*
G02*
X236176000Y-109490500I0J-237500D01*
G01*
G37*
G04 #@! TD.AperFunction*
G04 #@! TA.AperFunction,SMDPad,CuDef*
G36*
G01*
X238001000Y-109490500D02*
X238001000Y-109965500D01*
G75*
G02*
X237763500Y-110203000I-237500J0D01*
G01*
X237263500Y-110203000D01*
G75*
G02*
X237026000Y-109965500I0J237500D01*
G01*
X237026000Y-109490500D01*
G75*
G02*
X237263500Y-109253000I237500J0D01*
G01*
X237763500Y-109253000D01*
G75*
G02*
X238001000Y-109490500I0J-237500D01*
G01*
G37*
G04 #@! TD.AperFunction*
G04 #@! TA.AperFunction,SMDPad,CuDef*
G36*
G01*
X231123500Y-95761000D02*
X230648500Y-95761000D01*
G75*
G02*
X230411000Y-95523500I0J237500D01*
G01*
X230411000Y-95023500D01*
G75*
G02*
X230648500Y-94786000I237500J0D01*
G01*
X231123500Y-94786000D01*
G75*
G02*
X231361000Y-95023500I0J-237500D01*
G01*
X231361000Y-95523500D01*
G75*
G02*
X231123500Y-95761000I-237500J0D01*
G01*
G37*
G04 #@! TD.AperFunction*
G04 #@! TA.AperFunction,SMDPad,CuDef*
G36*
G01*
X231123500Y-93936000D02*
X230648500Y-93936000D01*
G75*
G02*
X230411000Y-93698500I0J237500D01*
G01*
X230411000Y-93198500D01*
G75*
G02*
X230648500Y-92961000I237500J0D01*
G01*
X231123500Y-92961000D01*
G75*
G02*
X231361000Y-93198500I0J-237500D01*
G01*
X231361000Y-93698500D01*
G75*
G02*
X231123500Y-93936000I-237500J0D01*
G01*
G37*
G04 #@! TD.AperFunction*
G04 #@! TA.AperFunction,SMDPad,CuDef*
G36*
G01*
X208959000Y-103869500D02*
X208959000Y-103394500D01*
G75*
G02*
X209196500Y-103157000I237500J0D01*
G01*
X209696500Y-103157000D01*
G75*
G02*
X209934000Y-103394500I0J-237500D01*
G01*
X209934000Y-103869500D01*
G75*
G02*
X209696500Y-104107000I-237500J0D01*
G01*
X209196500Y-104107000D01*
G75*
G02*
X208959000Y-103869500I0J237500D01*
G01*
G37*
G04 #@! TD.AperFunction*
G04 #@! TA.AperFunction,SMDPad,CuDef*
G36*
G01*
X207134000Y-103869500D02*
X207134000Y-103394500D01*
G75*
G02*
X207371500Y-103157000I237500J0D01*
G01*
X207871500Y-103157000D01*
G75*
G02*
X208109000Y-103394500I0J-237500D01*
G01*
X208109000Y-103869500D01*
G75*
G02*
X207871500Y-104107000I-237500J0D01*
G01*
X207371500Y-104107000D01*
G75*
G02*
X207134000Y-103869500I0J237500D01*
G01*
G37*
G04 #@! TD.AperFunction*
G04 #@! TA.AperFunction,SMDPad,CuDef*
G36*
G01*
X202200500Y-102914000D02*
X202675500Y-102914000D01*
G75*
G02*
X202913000Y-103151500I0J-237500D01*
G01*
X202913000Y-103651500D01*
G75*
G02*
X202675500Y-103889000I-237500J0D01*
G01*
X202200500Y-103889000D01*
G75*
G02*
X201963000Y-103651500I0J237500D01*
G01*
X201963000Y-103151500D01*
G75*
G02*
X202200500Y-102914000I237500J0D01*
G01*
G37*
G04 #@! TD.AperFunction*
G04 #@! TA.AperFunction,SMDPad,CuDef*
G36*
G01*
X202200500Y-101089000D02*
X202675500Y-101089000D01*
G75*
G02*
X202913000Y-101326500I0J-237500D01*
G01*
X202913000Y-101826500D01*
G75*
G02*
X202675500Y-102064000I-237500J0D01*
G01*
X202200500Y-102064000D01*
G75*
G02*
X201963000Y-101826500I0J237500D01*
G01*
X201963000Y-101326500D01*
G75*
G02*
X202200500Y-101089000I237500J0D01*
G01*
G37*
G04 #@! TD.AperFunction*
G04 #@! TA.AperFunction,SMDPad,CuDef*
G36*
G01*
X206505000Y-105045500D02*
X206505000Y-105520500D01*
G75*
G02*
X206267500Y-105758000I-237500J0D01*
G01*
X205767500Y-105758000D01*
G75*
G02*
X205530000Y-105520500I0J237500D01*
G01*
X205530000Y-105045500D01*
G75*
G02*
X205767500Y-104808000I237500J0D01*
G01*
X206267500Y-104808000D01*
G75*
G02*
X206505000Y-105045500I0J-237500D01*
G01*
G37*
G04 #@! TD.AperFunction*
G04 #@! TA.AperFunction,SMDPad,CuDef*
G36*
G01*
X204680000Y-105045500D02*
X204680000Y-105520500D01*
G75*
G02*
X204442500Y-105758000I-237500J0D01*
G01*
X203942500Y-105758000D01*
G75*
G02*
X203705000Y-105520500I0J237500D01*
G01*
X203705000Y-105045500D01*
G75*
G02*
X203942500Y-104808000I237500J0D01*
G01*
X204442500Y-104808000D01*
G75*
G02*
X204680000Y-105045500I0J-237500D01*
G01*
G37*
G04 #@! TD.AperFunction*
G04 #@! TA.AperFunction,SMDPad,CuDef*
G36*
G01*
X208959000Y-105520500D02*
X208959000Y-105045500D01*
G75*
G02*
X209196500Y-104808000I237500J0D01*
G01*
X209696500Y-104808000D01*
G75*
G02*
X209934000Y-105045500I0J-237500D01*
G01*
X209934000Y-105520500D01*
G75*
G02*
X209696500Y-105758000I-237500J0D01*
G01*
X209196500Y-105758000D01*
G75*
G02*
X208959000Y-105520500I0J237500D01*
G01*
G37*
G04 #@! TD.AperFunction*
G04 #@! TA.AperFunction,SMDPad,CuDef*
G36*
G01*
X207134000Y-105520500D02*
X207134000Y-105045500D01*
G75*
G02*
X207371500Y-104808000I237500J0D01*
G01*
X207871500Y-104808000D01*
G75*
G02*
X208109000Y-105045500I0J-237500D01*
G01*
X208109000Y-105520500D01*
G75*
G02*
X207871500Y-105758000I-237500J0D01*
G01*
X207371500Y-105758000D01*
G75*
G02*
X207134000Y-105520500I0J237500D01*
G01*
G37*
G04 #@! TD.AperFunction*
G04 #@! TA.AperFunction,SMDPad,CuDef*
G36*
G01*
X195469500Y-99612000D02*
X195944500Y-99612000D01*
G75*
G02*
X196182000Y-99849500I0J-237500D01*
G01*
X196182000Y-100349500D01*
G75*
G02*
X195944500Y-100587000I-237500J0D01*
G01*
X195469500Y-100587000D01*
G75*
G02*
X195232000Y-100349500I0J237500D01*
G01*
X195232000Y-99849500D01*
G75*
G02*
X195469500Y-99612000I237500J0D01*
G01*
G37*
G04 #@! TD.AperFunction*
G04 #@! TA.AperFunction,SMDPad,CuDef*
G36*
G01*
X195469500Y-97787000D02*
X195944500Y-97787000D01*
G75*
G02*
X196182000Y-98024500I0J-237500D01*
G01*
X196182000Y-98524500D01*
G75*
G02*
X195944500Y-98762000I-237500J0D01*
G01*
X195469500Y-98762000D01*
G75*
G02*
X195232000Y-98524500I0J237500D01*
G01*
X195232000Y-98024500D01*
G75*
G02*
X195469500Y-97787000I237500J0D01*
G01*
G37*
G04 #@! TD.AperFunction*
D19*
X200406000Y-105537000D03*
X200406000Y-103124000D03*
G04 #@! TA.AperFunction,SMDPad,CuDef*
G36*
G01*
X200068000Y-93577000D02*
X200368000Y-93577000D01*
G75*
G02*
X200518000Y-93727000I0J-150000D01*
G01*
X200518000Y-94752000D01*
G75*
G02*
X200368000Y-94902000I-150000J0D01*
G01*
X200068000Y-94902000D01*
G75*
G02*
X199918000Y-94752000I0J150000D01*
G01*
X199918000Y-93727000D01*
G75*
G02*
X200068000Y-93577000I150000J0D01*
G01*
G37*
G04 #@! TD.AperFunction*
G04 #@! TA.AperFunction,SMDPad,CuDef*
G36*
G01*
X201018000Y-93577000D02*
X201318000Y-93577000D01*
G75*
G02*
X201468000Y-93727000I0J-150000D01*
G01*
X201468000Y-94752000D01*
G75*
G02*
X201318000Y-94902000I-150000J0D01*
G01*
X201018000Y-94902000D01*
G75*
G02*
X200868000Y-94752000I0J150000D01*
G01*
X200868000Y-93727000D01*
G75*
G02*
X201018000Y-93577000I150000J0D01*
G01*
G37*
G04 #@! TD.AperFunction*
G04 #@! TA.AperFunction,SMDPad,CuDef*
G36*
G01*
X201968000Y-93577000D02*
X202268000Y-93577000D01*
G75*
G02*
X202418000Y-93727000I0J-150000D01*
G01*
X202418000Y-94752000D01*
G75*
G02*
X202268000Y-94902000I-150000J0D01*
G01*
X201968000Y-94902000D01*
G75*
G02*
X201818000Y-94752000I0J150000D01*
G01*
X201818000Y-93727000D01*
G75*
G02*
X201968000Y-93577000I150000J0D01*
G01*
G37*
G04 #@! TD.AperFunction*
G04 #@! TA.AperFunction,SMDPad,CuDef*
G36*
G01*
X201968000Y-95852000D02*
X202268000Y-95852000D01*
G75*
G02*
X202418000Y-96002000I0J-150000D01*
G01*
X202418000Y-97027000D01*
G75*
G02*
X202268000Y-97177000I-150000J0D01*
G01*
X201968000Y-97177000D01*
G75*
G02*
X201818000Y-97027000I0J150000D01*
G01*
X201818000Y-96002000D01*
G75*
G02*
X201968000Y-95852000I150000J0D01*
G01*
G37*
G04 #@! TD.AperFunction*
G04 #@! TA.AperFunction,SMDPad,CuDef*
G36*
G01*
X200068000Y-95852000D02*
X200368000Y-95852000D01*
G75*
G02*
X200518000Y-96002000I0J-150000D01*
G01*
X200518000Y-97027000D01*
G75*
G02*
X200368000Y-97177000I-150000J0D01*
G01*
X200068000Y-97177000D01*
G75*
G02*
X199918000Y-97027000I0J150000D01*
G01*
X199918000Y-96002000D01*
G75*
G02*
X200068000Y-95852000I150000J0D01*
G01*
G37*
G04 #@! TD.AperFunction*
G04 #@! TA.AperFunction,SMDPad,CuDef*
G36*
G01*
X196446000Y-107929000D02*
X196746000Y-107929000D01*
G75*
G02*
X196896000Y-108079000I0J-150000D01*
G01*
X196896000Y-109729000D01*
G75*
G02*
X196746000Y-109879000I-150000J0D01*
G01*
X196446000Y-109879000D01*
G75*
G02*
X196296000Y-109729000I0J150000D01*
G01*
X196296000Y-108079000D01*
G75*
G02*
X196446000Y-107929000I150000J0D01*
G01*
G37*
G04 #@! TD.AperFunction*
G04 #@! TA.AperFunction,SMDPad,CuDef*
G36*
G01*
X197716000Y-107929000D02*
X198016000Y-107929000D01*
G75*
G02*
X198166000Y-108079000I0J-150000D01*
G01*
X198166000Y-109729000D01*
G75*
G02*
X198016000Y-109879000I-150000J0D01*
G01*
X197716000Y-109879000D01*
G75*
G02*
X197566000Y-109729000I0J150000D01*
G01*
X197566000Y-108079000D01*
G75*
G02*
X197716000Y-107929000I150000J0D01*
G01*
G37*
G04 #@! TD.AperFunction*
G04 #@! TA.AperFunction,SMDPad,CuDef*
G36*
G01*
X198986000Y-107929000D02*
X199286000Y-107929000D01*
G75*
G02*
X199436000Y-108079000I0J-150000D01*
G01*
X199436000Y-109729000D01*
G75*
G02*
X199286000Y-109879000I-150000J0D01*
G01*
X198986000Y-109879000D01*
G75*
G02*
X198836000Y-109729000I0J150000D01*
G01*
X198836000Y-108079000D01*
G75*
G02*
X198986000Y-107929000I150000J0D01*
G01*
G37*
G04 #@! TD.AperFunction*
G04 #@! TA.AperFunction,SMDPad,CuDef*
G36*
G01*
X200256000Y-107929000D02*
X200556000Y-107929000D01*
G75*
G02*
X200706000Y-108079000I0J-150000D01*
G01*
X200706000Y-109729000D01*
G75*
G02*
X200556000Y-109879000I-150000J0D01*
G01*
X200256000Y-109879000D01*
G75*
G02*
X200106000Y-109729000I0J150000D01*
G01*
X200106000Y-108079000D01*
G75*
G02*
X200256000Y-107929000I150000J0D01*
G01*
G37*
G04 #@! TD.AperFunction*
G04 #@! TA.AperFunction,SMDPad,CuDef*
G36*
G01*
X200256000Y-112879000D02*
X200556000Y-112879000D01*
G75*
G02*
X200706000Y-113029000I0J-150000D01*
G01*
X200706000Y-114679000D01*
G75*
G02*
X200556000Y-114829000I-150000J0D01*
G01*
X200256000Y-114829000D01*
G75*
G02*
X200106000Y-114679000I0J150000D01*
G01*
X200106000Y-113029000D01*
G75*
G02*
X200256000Y-112879000I150000J0D01*
G01*
G37*
G04 #@! TD.AperFunction*
G04 #@! TA.AperFunction,SMDPad,CuDef*
G36*
G01*
X198986000Y-112879000D02*
X199286000Y-112879000D01*
G75*
G02*
X199436000Y-113029000I0J-150000D01*
G01*
X199436000Y-114679000D01*
G75*
G02*
X199286000Y-114829000I-150000J0D01*
G01*
X198986000Y-114829000D01*
G75*
G02*
X198836000Y-114679000I0J150000D01*
G01*
X198836000Y-113029000D01*
G75*
G02*
X198986000Y-112879000I150000J0D01*
G01*
G37*
G04 #@! TD.AperFunction*
G04 #@! TA.AperFunction,SMDPad,CuDef*
G36*
G01*
X197716000Y-112879000D02*
X198016000Y-112879000D01*
G75*
G02*
X198166000Y-113029000I0J-150000D01*
G01*
X198166000Y-114679000D01*
G75*
G02*
X198016000Y-114829000I-150000J0D01*
G01*
X197716000Y-114829000D01*
G75*
G02*
X197566000Y-114679000I0J150000D01*
G01*
X197566000Y-113029000D01*
G75*
G02*
X197716000Y-112879000I150000J0D01*
G01*
G37*
G04 #@! TD.AperFunction*
G04 #@! TA.AperFunction,SMDPad,CuDef*
G36*
G01*
X196446000Y-112879000D02*
X196746000Y-112879000D01*
G75*
G02*
X196896000Y-113029000I0J-150000D01*
G01*
X196896000Y-114679000D01*
G75*
G02*
X196746000Y-114829000I-150000J0D01*
G01*
X196446000Y-114829000D01*
G75*
G02*
X196296000Y-114679000I0J150000D01*
G01*
X196296000Y-113029000D01*
G75*
G02*
X196446000Y-112879000I150000J0D01*
G01*
G37*
G04 #@! TD.AperFunction*
G04 #@! TA.AperFunction,SMDPad,CuDef*
G36*
G01*
X228063999Y-101152000D02*
X230914001Y-101152000D01*
G75*
G02*
X231164000Y-101401999I0J-249999D01*
G01*
X231164000Y-102302001D01*
G75*
G02*
X230914001Y-102552000I-249999J0D01*
G01*
X228063999Y-102552000D01*
G75*
G02*
X227814000Y-102302001I0J249999D01*
G01*
X227814000Y-101401999D01*
G75*
G02*
X228063999Y-101152000I249999J0D01*
G01*
G37*
G04 #@! TD.AperFunction*
G04 #@! TA.AperFunction,SMDPad,CuDef*
G36*
G01*
X228063999Y-107252000D02*
X230914001Y-107252000D01*
G75*
G02*
X231164000Y-107501999I0J-249999D01*
G01*
X231164000Y-108402001D01*
G75*
G02*
X230914001Y-108652000I-249999J0D01*
G01*
X228063999Y-108652000D01*
G75*
G02*
X227814000Y-108402001I0J249999D01*
G01*
X227814000Y-107501999D01*
G75*
G02*
X228063999Y-107252000I249999J0D01*
G01*
G37*
G04 #@! TD.AperFunction*
G04 #@! TA.AperFunction,SMDPad,CuDef*
G36*
G01*
X225991600Y-107250000D02*
X226890400Y-107250000D01*
G75*
G02*
X227141000Y-107500600I0J-250600D01*
G01*
X227141000Y-108399400D01*
G75*
G02*
X226890400Y-108650000I-250600J0D01*
G01*
X225991600Y-108650000D01*
G75*
G02*
X225741000Y-108399400I0J250600D01*
G01*
X225741000Y-107500600D01*
G75*
G02*
X225991600Y-107250000I250600J0D01*
G01*
G37*
G04 #@! TD.AperFunction*
G04 #@! TA.AperFunction,SMDPad,CuDef*
G36*
G01*
X225991600Y-101154000D02*
X226890400Y-101154000D01*
G75*
G02*
X227141000Y-101404600I0J-250600D01*
G01*
X227141000Y-102303400D01*
G75*
G02*
X226890400Y-102554000I-250600J0D01*
G01*
X225991600Y-102554000D01*
G75*
G02*
X225741000Y-102303400I0J250600D01*
G01*
X225741000Y-101404600D01*
G75*
G02*
X225991600Y-101154000I250600J0D01*
G01*
G37*
G04 #@! TD.AperFunction*
G04 #@! TA.AperFunction,SMDPad,CuDef*
G36*
G01*
X228063999Y-110931000D02*
X230914001Y-110931000D01*
G75*
G02*
X231164000Y-111180999I0J-249999D01*
G01*
X231164000Y-112081001D01*
G75*
G02*
X230914001Y-112331000I-249999J0D01*
G01*
X228063999Y-112331000D01*
G75*
G02*
X227814000Y-112081001I0J249999D01*
G01*
X227814000Y-111180999D01*
G75*
G02*
X228063999Y-110931000I249999J0D01*
G01*
G37*
G04 #@! TD.AperFunction*
G04 #@! TA.AperFunction,SMDPad,CuDef*
G36*
G01*
X228063999Y-117031000D02*
X230914001Y-117031000D01*
G75*
G02*
X231164000Y-117280999I0J-249999D01*
G01*
X231164000Y-118181001D01*
G75*
G02*
X230914001Y-118431000I-249999J0D01*
G01*
X228063999Y-118431000D01*
G75*
G02*
X227814000Y-118181001I0J249999D01*
G01*
X227814000Y-117280999D01*
G75*
G02*
X228063999Y-117031000I249999J0D01*
G01*
G37*
G04 #@! TD.AperFunction*
G04 #@! TA.AperFunction,SMDPad,CuDef*
G36*
G01*
X225991600Y-117029000D02*
X226890400Y-117029000D01*
G75*
G02*
X227141000Y-117279600I0J-250600D01*
G01*
X227141000Y-118178400D01*
G75*
G02*
X226890400Y-118429000I-250600J0D01*
G01*
X225991600Y-118429000D01*
G75*
G02*
X225741000Y-118178400I0J250600D01*
G01*
X225741000Y-117279600D01*
G75*
G02*
X225991600Y-117029000I250600J0D01*
G01*
G37*
G04 #@! TD.AperFunction*
G04 #@! TA.AperFunction,SMDPad,CuDef*
G36*
G01*
X225991600Y-110933000D02*
X226890400Y-110933000D01*
G75*
G02*
X227141000Y-111183600I0J-250600D01*
G01*
X227141000Y-112082400D01*
G75*
G02*
X226890400Y-112333000I-250600J0D01*
G01*
X225991600Y-112333000D01*
G75*
G02*
X225741000Y-112082400I0J250600D01*
G01*
X225741000Y-111183600D01*
G75*
G02*
X225991600Y-110933000I250600J0D01*
G01*
G37*
G04 #@! TD.AperFunction*
D20*
X247332500Y-93535500D03*
X247459500Y-102489000D03*
X246126000Y-102489000D03*
X245872000Y-93535500D03*
X234061000Y-109728000D03*
X229235000Y-104775000D03*
X212979000Y-105029000D03*
X213487000Y-114427000D03*
X215646000Y-115189000D03*
X215646000Y-115951000D03*
X230251000Y-117602000D03*
X228727000Y-117602000D03*
X230251000Y-107950000D03*
X228600000Y-107950000D03*
X193066500Y-102362000D03*
X204496500Y-112522000D03*
X211709000Y-92075000D03*
X190881000Y-92075000D03*
X203962000Y-92075000D03*
X206629000Y-100838000D03*
X227719250Y-96765750D03*
X239268000Y-109728000D03*
X235458000Y-105156000D03*
X207772000Y-119888000D03*
X222123000Y-119888000D03*
X251333000Y-119888000D03*
X252857000Y-108331000D03*
X252857000Y-99695000D03*
X250825000Y-92075000D03*
X229489000Y-92075000D03*
D21*
X201168000Y-94678500D03*
D20*
X198220500Y-106680000D03*
X206565500Y-106997500D03*
X217805000Y-106680000D03*
X228727000Y-111760000D03*
X230251000Y-111760000D03*
X228600000Y-101854000D03*
X230251000Y-101854000D03*
X225180010Y-108975010D03*
X218821000Y-116078000D03*
X218821000Y-115189000D03*
X246761000Y-105448500D03*
X245833500Y-105448500D03*
X246976500Y-113703500D03*
X246087500Y-113703500D03*
X246634000Y-96685500D03*
X245833500Y-96685500D03*
D21*
X220980000Y-101954500D03*
D20*
X215265000Y-111252000D03*
X215265000Y-113157000D03*
X217805000Y-105791000D03*
X221551500Y-108394500D03*
X221501250Y-110857750D03*
X217170000Y-102870000D03*
X217170000Y-103759000D03*
X217678000Y-101600000D03*
X212979000Y-106680000D03*
X211836000Y-96266000D03*
X191389000Y-101092000D03*
X192786000Y-103378000D03*
D21*
X200218000Y-93533000D03*
D20*
X195453000Y-100711000D03*
X195453000Y-99885500D03*
X194945000Y-113892500D03*
X206502000Y-98361500D03*
X208216500Y-117475000D03*
X223710500Y-106426000D03*
D21*
X209232500Y-111379000D03*
X194437000Y-99060000D03*
X194437000Y-99949000D03*
D20*
X196469000Y-106553000D03*
X196469000Y-104902000D03*
X196469000Y-105791000D03*
X212979000Y-107823000D03*
D21*
X211899500Y-94488000D03*
D20*
X203200000Y-100584000D03*
X201930000Y-100457000D03*
X222885000Y-115570000D03*
X217805000Y-104648000D03*
X217805000Y-107696000D03*
X217805000Y-110236000D03*
X200406000Y-105537000D03*
X201549000Y-104013000D03*
X201676000Y-107696000D03*
X212979000Y-108966000D03*
X201676000Y-108585000D03*
X212979000Y-110236000D03*
X199136000Y-108966000D03*
X200406000Y-108966000D03*
X196596000Y-108966000D03*
X197866000Y-108966000D03*
X226441000Y-111760000D03*
X226441000Y-117602000D03*
X221742000Y-114046000D03*
X221742000Y-115062000D03*
D22*
X213513500Y-111252000D02*
X213513500Y-113157000D01*
X213487000Y-113183500D02*
X213513500Y-113157000D01*
X213487000Y-114427000D02*
X213487000Y-113183500D01*
D23*
X200517000Y-99187000D02*
X200644000Y-99314000D01*
X198220500Y-106680000D02*
X198220500Y-106680000D01*
X198220500Y-105156000D02*
X198220500Y-103632000D01*
X198220500Y-103632000D02*
X198220500Y-102970500D01*
X197104000Y-101854000D02*
X197104000Y-100049500D01*
X198220500Y-102970500D02*
X197104000Y-101854000D01*
X193193500Y-112167500D02*
X191643000Y-110617000D01*
X194945000Y-112167500D02*
X193193500Y-112167500D01*
X201168000Y-94716398D02*
X201168000Y-94678500D01*
X201168000Y-94239500D02*
X201168000Y-94239500D01*
X201168000Y-94678500D02*
X201168000Y-94239500D01*
X198220500Y-106680000D02*
X198220500Y-105156000D01*
D22*
X206055000Y-105245500D02*
X206017500Y-105283000D01*
X206055000Y-103616000D02*
X206055000Y-105245500D01*
D24*
X228600000Y-113792000D02*
X229489000Y-112903000D01*
X229489000Y-112903000D02*
X229489000Y-111504000D01*
X223404409Y-116195001D02*
X224224009Y-115375401D01*
X221949999Y-116195001D02*
X223404409Y-116195001D01*
X224224010Y-114865990D02*
X225298000Y-113792000D01*
X220476489Y-111129489D02*
X221107000Y-111760000D01*
X221107000Y-115352002D02*
X221949999Y-116195001D01*
X220476489Y-107061000D02*
X220476489Y-111129489D01*
X225298000Y-113792000D02*
X228600000Y-113792000D01*
X224224009Y-115375401D02*
X224224010Y-114865990D01*
X221107000Y-111760000D02*
X221107000Y-115352002D01*
X220095489Y-106680000D02*
X220476489Y-107061000D01*
X217805000Y-106680000D02*
X220095489Y-106680000D01*
X225180010Y-108975010D02*
X225180010Y-108975010D01*
X227466010Y-108637828D02*
X227466010Y-102987990D01*
X227466010Y-102987990D02*
X228600000Y-101854000D01*
X227128828Y-108975010D02*
X227466010Y-108637828D01*
X225180010Y-108975010D02*
X227128828Y-108975010D01*
D22*
X242954000Y-94220000D02*
X242954000Y-94237000D01*
X242968000Y-94234000D02*
X242954000Y-94220000D01*
D24*
X242954000Y-94220000D02*
X242954000Y-93271980D01*
D25*
X241369500Y-96685500D02*
X241204000Y-96520000D01*
X246634000Y-96685500D02*
X246634000Y-96685500D01*
X246761000Y-105448500D02*
X246761000Y-105448500D01*
X241927500Y-113703500D02*
X241331000Y-114300000D01*
X247015000Y-113703500D02*
X246976500Y-113703500D01*
X246761000Y-105448500D02*
X245833500Y-105448500D01*
X245833500Y-105448500D02*
X241623500Y-105448500D01*
X246976500Y-113703500D02*
X246087500Y-113703500D01*
X246087500Y-113703500D02*
X241927500Y-113703500D01*
X246634000Y-96685500D02*
X245833500Y-96685500D01*
X245833500Y-96685500D02*
X241369500Y-96685500D01*
D22*
X237366199Y-118381001D02*
X236728000Y-117742802D01*
X247554999Y-118381001D02*
X237366199Y-118381001D01*
X250825000Y-115111000D02*
X247554999Y-118381001D01*
X250825000Y-112649000D02*
X250825000Y-115111000D01*
X233931000Y-112020000D02*
X234702000Y-112020000D01*
X234702000Y-112020000D02*
X236728000Y-114046000D01*
X236728000Y-114046000D02*
X236728000Y-115316000D01*
X236728000Y-115316000D02*
X236728000Y-114681000D01*
X236728000Y-117742802D02*
X236728000Y-115316000D01*
D24*
X233931000Y-112020000D02*
X230663290Y-115287710D01*
X226724700Y-115287710D02*
X224917390Y-117095020D01*
X230663290Y-115287710D02*
X226724700Y-115287710D01*
X221577197Y-117095019D02*
X220206980Y-115724802D01*
X224917390Y-117095020D02*
X221577197Y-117095019D01*
X220206980Y-115724802D02*
X220206980Y-112132800D01*
X219576469Y-111502289D02*
X219576469Y-108705469D01*
X219645090Y-111570910D02*
X219576469Y-111502289D01*
X220206980Y-112132800D02*
X219645090Y-111570910D01*
X219576469Y-108705469D02*
X219202000Y-108331000D01*
X217514998Y-108331000D02*
X219202000Y-108331000D01*
X217179999Y-107996001D02*
X217514998Y-108331000D01*
X217179999Y-106416001D02*
X217179999Y-107996001D01*
X217805000Y-105791000D02*
X217179999Y-106416001D01*
D22*
X235732001Y-101074999D02*
X233931000Y-102876000D01*
X248200227Y-101074999D02*
X235732001Y-101074999D01*
X250571000Y-104267000D02*
X250571000Y-103445772D01*
X250825000Y-103699772D02*
X249076614Y-101951386D01*
X250825000Y-104267000D02*
X250825000Y-103699772D01*
X249076614Y-101951386D02*
X248200227Y-101074999D01*
X250571000Y-103445772D02*
X249076614Y-101951386D01*
D24*
X233931000Y-102876000D02*
X231770500Y-100715500D01*
X221551500Y-108394500D02*
X222111980Y-107834020D01*
X222111981Y-104160019D02*
X225556500Y-100715500D01*
X222111980Y-107834020D02*
X222111981Y-104160019D01*
X231770500Y-100715500D02*
X225556500Y-100715500D01*
X233782990Y-94261010D02*
X233804000Y-94240000D01*
X229842990Y-94261010D02*
X233782990Y-94261010D01*
X229177010Y-94926990D02*
X229842990Y-94261010D01*
D22*
X248272990Y-92316990D02*
X235727010Y-92316990D01*
X235727010Y-92316990D02*
X233804000Y-94240000D01*
X250444000Y-95631000D02*
X250444000Y-94488000D01*
X250825000Y-94869000D02*
X248793000Y-92837000D01*
X250825000Y-95631000D02*
X250825000Y-94869000D01*
X248793000Y-92837000D02*
X248272990Y-92316990D01*
X250444000Y-94488000D02*
X248793000Y-92837000D01*
D24*
X229177010Y-96577990D02*
X229177010Y-94926990D01*
X229177010Y-96833400D02*
X229177010Y-96577990D01*
X229177010Y-99244990D02*
X229177010Y-96577990D01*
X228346000Y-100076000D02*
X229177010Y-99244990D01*
X225559590Y-100076000D02*
X228346000Y-100076000D01*
X220926499Y-104709091D02*
X225559590Y-100076000D01*
X220926499Y-110282999D02*
X220926499Y-104709091D01*
X221501250Y-110857750D02*
X220926499Y-110282999D01*
D22*
X217170000Y-102870000D02*
X217170000Y-103759000D01*
X214232000Y-99932000D02*
X214232000Y-98171000D01*
X217170000Y-102870000D02*
X214232000Y-99932000D01*
X214232000Y-100821000D02*
X214232000Y-98171000D01*
X217170000Y-103759000D02*
X214232000Y-100821000D01*
D25*
X215756000Y-96647000D02*
X214232000Y-98171000D01*
X218153000Y-96647000D02*
X215756000Y-96647000D01*
D22*
X217196500Y-102870000D02*
X217678000Y-103351500D01*
X217170000Y-102870000D02*
X217196500Y-102870000D01*
X206121000Y-98209500D02*
X206717500Y-98209500D01*
D24*
X196557500Y-113892500D02*
X196596000Y-113854000D01*
X194945000Y-113892500D02*
X194945000Y-113892500D01*
D22*
X200218000Y-94239500D02*
X200218000Y-93533000D01*
X200218000Y-93215500D02*
X200660000Y-92773500D01*
X200660000Y-92773500D02*
X202501500Y-92773500D01*
X203032990Y-95564490D02*
X204089000Y-96620500D01*
X203032990Y-93304990D02*
X203032990Y-95564490D01*
X202501500Y-92773500D02*
X203032990Y-93304990D01*
X204089000Y-96620500D02*
X205523000Y-96620500D01*
X206121000Y-97218500D02*
X206121000Y-98209500D01*
X205523000Y-96620500D02*
X206121000Y-97218500D01*
X200218000Y-93533000D02*
X200218000Y-93215500D01*
X195707000Y-100457000D02*
X195453000Y-100711000D01*
X195707000Y-100099500D02*
X195707000Y-100457000D01*
X195453000Y-100711000D02*
X195072000Y-101092000D01*
X192913000Y-101092000D02*
X191389000Y-101092000D01*
X195453000Y-100711000D02*
X195453000Y-99885500D01*
X195072000Y-101092000D02*
X194056000Y-101092000D01*
X194056000Y-101092000D02*
X192913000Y-101092000D01*
X194714500Y-101092000D02*
X194056000Y-101092000D01*
X192786000Y-103378000D02*
X194310000Y-103378000D01*
X195453000Y-102235000D02*
X195453000Y-100711000D01*
X194310000Y-103378000D02*
X195453000Y-102235000D01*
D24*
X194945000Y-113892500D02*
X196557500Y-113892500D01*
D22*
X206717500Y-98209500D02*
X208893500Y-98209500D01*
X196495500Y-103759000D02*
X196495500Y-105283000D01*
X196469000Y-106553000D02*
X196469000Y-104902000D01*
X198734000Y-96514500D02*
X198628000Y-96620500D01*
X200218000Y-96514500D02*
X198734000Y-96514500D01*
X194437000Y-99949000D02*
X194437000Y-99060000D01*
X195715950Y-96620500D02*
X198628000Y-96620500D01*
X194650990Y-97685460D02*
X195715950Y-96620500D01*
X194650990Y-98846010D02*
X194650990Y-97685460D01*
X194437000Y-99060000D02*
X194650990Y-98846010D01*
D24*
X228830500Y-109728000D02*
X224663000Y-109728000D01*
X224218500Y-109283500D02*
X224663000Y-109728000D01*
X224218500Y-106934000D02*
X224218500Y-107251500D01*
X223710500Y-106426000D02*
X224218500Y-106934000D01*
X224218500Y-107251500D02*
X224218500Y-109283500D01*
X224218500Y-107061000D02*
X224218500Y-107251500D01*
D23*
X212979000Y-107823000D02*
X212979000Y-107759500D01*
X211899500Y-94488000D02*
X211899500Y-94488000D01*
X211899500Y-94488000D02*
X211391500Y-94996000D01*
X211899500Y-94488000D02*
X210672510Y-95714990D01*
X210672510Y-95714990D02*
X210672510Y-105199010D01*
X210672510Y-105199010D02*
X210672510Y-106850010D01*
X211645500Y-107823000D02*
X212979000Y-107823000D01*
X210672510Y-106850010D02*
X211645500Y-107823000D01*
X210588520Y-105283000D02*
X210672510Y-105199010D01*
X209446500Y-105283000D02*
X210588520Y-105283000D01*
X202118000Y-94239500D02*
X202118000Y-94300000D01*
X198710000Y-98298000D02*
X198644000Y-98364000D01*
X197054000Y-98274500D02*
X197104000Y-98324500D01*
X198604500Y-98324500D02*
X198644000Y-98364000D01*
X197104000Y-98324500D02*
X198604500Y-98324500D01*
X202118000Y-94239500D02*
X202118000Y-94935000D01*
X195580000Y-98274500D02*
X197054000Y-98274500D01*
D24*
X202118000Y-95180232D02*
X201485500Y-95812732D01*
X202118000Y-94239500D02*
X202118000Y-95180232D01*
D23*
X198771000Y-98364000D02*
X198771000Y-97903142D01*
X199106632Y-97567510D02*
X198978321Y-97695821D01*
X200591888Y-97567510D02*
X199106632Y-97567510D01*
X201427490Y-95778112D02*
X201427490Y-96731908D01*
X202118000Y-95087602D02*
X201427490Y-95778112D01*
X202118000Y-94239500D02*
X202118000Y-95087602D01*
X201427490Y-96731908D02*
X200591888Y-97567510D01*
X198771000Y-97903142D02*
X198978321Y-97695821D01*
D24*
X192116010Y-107603990D02*
X200498010Y-107603990D01*
X191643000Y-108077000D02*
X192116010Y-107603990D01*
X200498010Y-107603990D02*
X201168000Y-106934000D01*
X204343000Y-106934000D02*
X205204990Y-106072010D01*
X202438000Y-106680000D02*
X202184000Y-106934000D01*
X202184000Y-106934000D02*
X202438000Y-106934000D01*
X201168000Y-106934000D02*
X202184000Y-106934000D01*
X202438000Y-103401500D02*
X202438000Y-106680000D01*
X202438000Y-106680000D02*
X202438000Y-106934000D01*
X202438000Y-106680000D02*
X202692000Y-106934000D01*
X202692000Y-106934000D02*
X204343000Y-106934000D01*
X202438000Y-106934000D02*
X202692000Y-106934000D01*
X205204990Y-103031008D02*
X205204990Y-105255990D01*
X205394999Y-102840999D02*
X205204990Y-103031008D01*
X206830499Y-102840999D02*
X205394999Y-102840999D01*
X207621500Y-103632000D02*
X206830499Y-102840999D01*
X205204990Y-105255990D02*
X205204990Y-104812500D01*
X205204990Y-106072010D02*
X205204990Y-105255990D01*
X197866000Y-113854000D02*
X197866000Y-116459000D01*
X199136000Y-115189000D02*
X200406000Y-116459000D01*
X199136000Y-113854000D02*
X199136000Y-115189000D01*
D23*
X234084500Y-116753500D02*
X233931000Y-116600000D01*
X234084500Y-118872000D02*
X234084500Y-116753500D01*
D22*
X235241500Y-107456000D02*
X233931000Y-107456000D01*
X237513500Y-109728000D02*
X235241500Y-107456000D01*
X230886000Y-95273500D02*
X230886000Y-95377000D01*
X233804000Y-98295000D02*
X233804000Y-98820000D01*
X230886000Y-95377000D02*
X233804000Y-98295000D01*
D24*
X204216000Y-105306500D02*
X204192500Y-105283000D01*
X203329999Y-101729999D02*
X203176500Y-101576500D01*
X204192500Y-105283000D02*
X203329999Y-104420499D01*
X202565000Y-101576500D02*
X203176500Y-101576500D01*
X203343000Y-103616000D02*
X203329999Y-103629001D01*
X204155000Y-103616000D02*
X203343000Y-103616000D01*
X203329999Y-103629001D02*
X203329999Y-101729999D01*
X203329999Y-104420499D02*
X203329999Y-103629001D01*
X209446500Y-103632000D02*
X209272500Y-103632000D01*
X207621500Y-105283000D02*
X207795500Y-105283000D01*
X205105000Y-101616000D02*
X205755000Y-101616000D01*
X204073000Y-100584000D02*
X205105000Y-101616000D01*
X203200000Y-100584000D02*
X204073000Y-100584000D01*
X205105000Y-101616000D02*
X207358179Y-101616000D01*
X208434010Y-102691832D02*
X207842839Y-102100661D01*
X208470500Y-103632000D02*
X208434010Y-103595510D01*
X209446500Y-103632000D02*
X208470500Y-103632000D01*
X207358179Y-101616000D02*
X207842839Y-102100661D01*
X208434010Y-103278010D02*
X208434010Y-104644490D01*
X208434010Y-104644490D02*
X208291750Y-104786750D01*
X207795500Y-105283000D02*
X208291750Y-104786750D01*
X208434010Y-103595510D02*
X208434010Y-103278010D01*
X208434010Y-103278010D02*
X208434010Y-102691832D01*
X201737000Y-100264000D02*
X201930000Y-100457000D01*
X198644000Y-100264000D02*
X201737000Y-100264000D01*
X230655500Y-109728000D02*
X232259500Y-109728000D01*
X229777510Y-110605990D02*
X230655500Y-109728000D01*
X224293010Y-110605990D02*
X229777510Y-110605990D01*
X223774000Y-111125000D02*
X224293010Y-110605990D01*
X223774000Y-115189000D02*
X223774000Y-111125000D01*
X223393000Y-115570000D02*
X223774000Y-115189000D01*
X222885000Y-115570000D02*
X223393000Y-115570000D01*
X217744990Y-114112990D02*
X218430001Y-113427979D01*
X217744990Y-116908180D02*
X217744990Y-114112990D01*
X219719820Y-118883010D02*
X217744990Y-116908180D01*
X232248490Y-118883010D02*
X219719820Y-118883010D01*
X232259500Y-118872000D02*
X232248490Y-118883010D01*
X217170000Y-104648000D02*
X217805000Y-104648000D01*
X216852500Y-104965500D02*
X216979500Y-104838500D01*
X216729990Y-108182402D02*
X218430001Y-109882413D01*
X216729989Y-107374011D02*
X216729990Y-108182402D01*
X218430001Y-109882413D02*
X218430001Y-110118999D01*
X218430001Y-113427979D02*
X218430001Y-110118999D01*
X216729989Y-108182401D02*
X216729989Y-107374011D01*
X216729989Y-107374011D02*
X216729989Y-105088011D01*
X217043000Y-104775000D02*
X217170000Y-104648000D01*
X216729989Y-105088011D02*
X217043000Y-104775000D01*
X216979500Y-104838500D02*
X217043000Y-104775000D01*
X235688500Y-110203000D02*
X235688500Y-109728000D01*
X235274500Y-110617000D02*
X235688500Y-110203000D01*
X217805000Y-107696000D02*
X219518479Y-107696000D01*
X219518479Y-107696000D02*
X220026479Y-108204000D01*
X220656990Y-111946400D02*
X220656990Y-115538402D01*
X220026479Y-108204000D02*
X220026479Y-111315889D01*
X226568000Y-114808000D02*
X229870000Y-114808000D01*
X220026479Y-111315889D02*
X220656990Y-111946400D01*
X221763598Y-116645010D02*
X224730990Y-116645010D01*
X231855999Y-110759999D02*
X231998998Y-110617000D01*
X220656990Y-115538402D02*
X221763598Y-116645010D01*
X231998998Y-110617000D02*
X235274500Y-110617000D01*
X224730990Y-116645010D02*
X226568000Y-114808000D01*
X231855999Y-112822001D02*
X231855999Y-110759999D01*
X229870000Y-114808000D02*
X231855999Y-112822001D01*
X230886000Y-93448500D02*
X230886000Y-93091000D01*
X230886000Y-93448500D02*
X229846500Y-93448500D01*
X229846500Y-93448500D02*
X229385500Y-93448500D01*
X216279979Y-104268021D02*
X214818458Y-102806500D01*
X216279979Y-108710979D02*
X216279979Y-104268021D01*
X217805000Y-110236000D02*
X216279979Y-108710979D01*
X213935679Y-93448500D02*
X215749500Y-93448500D01*
X214566500Y-102806500D02*
X213848679Y-102806500D01*
X213848679Y-102806500D02*
X212556990Y-101514811D01*
X215749500Y-93448500D02*
X229846500Y-93448500D01*
X212556990Y-101514811D02*
X212556990Y-94827189D01*
X212556990Y-94827189D02*
X213935679Y-93448500D01*
X214818458Y-102806500D02*
X214566500Y-102806500D01*
X201295000Y-104013000D02*
X200406000Y-103124000D01*
X201549000Y-104013000D02*
X201295000Y-104013000D01*
X202946000Y-108966000D02*
X201676000Y-107696000D01*
X212979000Y-108966000D02*
X202946000Y-108966000D01*
X203327000Y-110236000D02*
X212979000Y-110236000D01*
X201676000Y-108585000D02*
X203327000Y-110236000D01*
X223079600Y-104705990D02*
X223996510Y-104705990D01*
X222561990Y-105223600D02*
X223079600Y-104705990D01*
X223996510Y-104705990D02*
X224663000Y-104039500D01*
X222561990Y-111182990D02*
X222561990Y-111573600D01*
X222561990Y-111633000D02*
X222561990Y-111182990D01*
X222561990Y-111182990D02*
X222561990Y-105223600D01*
X221742000Y-114046000D02*
X221742000Y-114046000D01*
X222307285Y-114358695D02*
X222561990Y-114103990D01*
X221742000Y-114046000D02*
X222054695Y-114358695D01*
X222054695Y-114358695D02*
X222307285Y-114358695D01*
X222561990Y-111573600D02*
X222561990Y-114103990D01*
X224663000Y-104039500D02*
X225906500Y-104039500D01*
X225906500Y-104039500D02*
X226441000Y-103505000D01*
X226441000Y-103505000D02*
X226441000Y-101854000D01*
X224689500Y-105791000D02*
X224663000Y-105764500D01*
X226441000Y-107950000D02*
X226441000Y-106299000D01*
X224663000Y-105764500D02*
X224509500Y-105764500D01*
X224509500Y-105764500D02*
X223901000Y-105156000D01*
X223901000Y-105156000D02*
X223266000Y-105156000D01*
X223266000Y-105156000D02*
X223012000Y-105410000D01*
X223012000Y-105410000D02*
X223012000Y-111760000D01*
X223012000Y-111760000D02*
X223012000Y-111887000D01*
X223012000Y-114428410D02*
X223012000Y-113665000D01*
X223012000Y-111760000D02*
X223012000Y-113665000D01*
X221742000Y-115062000D02*
X221742000Y-114935000D01*
X221868295Y-114808705D02*
X222631705Y-114808705D01*
X221742000Y-114935000D02*
X221868295Y-114808705D01*
X222631705Y-114808705D02*
X223012000Y-114428410D01*
X226441000Y-106299000D02*
X225933000Y-105791000D01*
X225933000Y-105791000D02*
X224689500Y-105791000D01*
D26*
X234005232Y-92601928D02*
X232054000Y-92601928D01*
X231929518Y-92614188D01*
X231809820Y-92650498D01*
X231803683Y-92653778D01*
X231742623Y-92579377D01*
X231609942Y-92470488D01*
X231458567Y-92389577D01*
X231294316Y-92339752D01*
X231123500Y-92322928D01*
X230648500Y-92322928D01*
X230477684Y-92339752D01*
X230313433Y-92389577D01*
X230162058Y-92470488D01*
X230029377Y-92579377D01*
X229939822Y-92688500D01*
X213973004Y-92688500D01*
X213935679Y-92684824D01*
X213898354Y-92688500D01*
X213898346Y-92688500D01*
X213786693Y-92699497D01*
X213643432Y-92742954D01*
X213511403Y-92813526D01*
X213395678Y-92908499D01*
X213371880Y-92937497D01*
X212592294Y-93717083D01*
X212559274Y-93684063D01*
X212389756Y-93570795D01*
X212201398Y-93492774D01*
X212001439Y-93453000D01*
X211797561Y-93453000D01*
X211597602Y-93492774D01*
X211409244Y-93570795D01*
X211239726Y-93684063D01*
X211095563Y-93828226D01*
X210982295Y-93997744D01*
X210904274Y-94186102D01*
X210872072Y-94347995D01*
X210665955Y-94554112D01*
X210590453Y-94412857D01*
X210342398Y-94110602D01*
X210040143Y-93862547D01*
X209695302Y-93678226D01*
X209321128Y-93564722D01*
X208932000Y-93526396D01*
X208542873Y-93564722D01*
X208168699Y-93678226D01*
X207823858Y-93862547D01*
X207558421Y-94080386D01*
X207551537Y-94067506D01*
X207472185Y-93970815D01*
X207375494Y-93891463D01*
X207265180Y-93832498D01*
X207145482Y-93796188D01*
X207021000Y-93783928D01*
X206406750Y-93787000D01*
X206248000Y-93945750D01*
X206248000Y-94957500D01*
X206268000Y-94957500D01*
X206268000Y-95211500D01*
X206248000Y-95211500D01*
X206248000Y-95231500D01*
X205994000Y-95231500D01*
X205994000Y-95211500D01*
X205974000Y-95211500D01*
X205974000Y-94957500D01*
X205994000Y-94957500D01*
X205994000Y-93945750D01*
X205835250Y-93787000D01*
X205221000Y-93783928D01*
X205096518Y-93796188D01*
X204976820Y-93832498D01*
X204945214Y-93849392D01*
X204918494Y-93827463D01*
X204808180Y-93768498D01*
X204688482Y-93732188D01*
X204564000Y-93719928D01*
X204374750Y-93723000D01*
X204216000Y-93881750D01*
X204216000Y-94768500D01*
X204236000Y-94768500D01*
X204236000Y-95022500D01*
X204216000Y-95022500D01*
X204216000Y-95042500D01*
X204048990Y-95042500D01*
X204048990Y-93354883D01*
X204053904Y-93304989D01*
X204048990Y-93255095D01*
X204048990Y-93255088D01*
X204034288Y-93105819D01*
X204032751Y-93100750D01*
X204002226Y-93000125D01*
X203976192Y-92914303D01*
X203881850Y-92737800D01*
X203754886Y-92583094D01*
X203716117Y-92551277D01*
X203255213Y-92090373D01*
X203223396Y-92051604D01*
X203068690Y-91924640D01*
X202892187Y-91830298D01*
X202700671Y-91772202D01*
X202551402Y-91757500D01*
X202501500Y-91752585D01*
X202451598Y-91757500D01*
X200709893Y-91757500D01*
X200659999Y-91752586D01*
X200610105Y-91757500D01*
X200610098Y-91757500D01*
X200480177Y-91770296D01*
X200460828Y-91772202D01*
X200402732Y-91789826D01*
X200269313Y-91830298D01*
X200092810Y-91924640D01*
X199938104Y-92051604D01*
X199906287Y-92090373D01*
X199534868Y-92461792D01*
X199496105Y-92493604D01*
X199369140Y-92648310D01*
X199274798Y-92824813D01*
X199216702Y-93016329D01*
X199213024Y-93053668D01*
X199197085Y-93215500D01*
X199202000Y-93265402D01*
X199202000Y-93335541D01*
X199183000Y-93431061D01*
X199183000Y-93634939D01*
X199201842Y-93729663D01*
X199103000Y-93719928D01*
X198913750Y-93723000D01*
X198755000Y-93881750D01*
X198755000Y-94768500D01*
X198775000Y-94768500D01*
X198775000Y-95022500D01*
X198755000Y-95022500D01*
X198755000Y-95042500D01*
X198501000Y-95042500D01*
X198501000Y-95022500D01*
X197676750Y-95022500D01*
X197518000Y-95181250D01*
X197514928Y-95433000D01*
X197527188Y-95557482D01*
X197541451Y-95604500D01*
X195765852Y-95604500D01*
X195715950Y-95599585D01*
X195516779Y-95619202D01*
X195325262Y-95677298D01*
X195299188Y-95691235D01*
X195148760Y-95771640D01*
X194994054Y-95898604D01*
X194962244Y-95937365D01*
X194616072Y-96283537D01*
X194616072Y-94358000D01*
X197514928Y-94358000D01*
X197518000Y-94609750D01*
X197676750Y-94768500D01*
X198501000Y-94768500D01*
X198501000Y-93881750D01*
X198342250Y-93723000D01*
X198153000Y-93719928D01*
X198028518Y-93732188D01*
X197908820Y-93768498D01*
X197798506Y-93827463D01*
X197701815Y-93906815D01*
X197622463Y-94003506D01*
X197563498Y-94113820D01*
X197527188Y-94233518D01*
X197514928Y-94358000D01*
X194616072Y-94358000D01*
X194616072Y-94185000D01*
X194603812Y-94060518D01*
X194567502Y-93940820D01*
X194508537Y-93830506D01*
X194429185Y-93733815D01*
X194332494Y-93654463D01*
X194222180Y-93595498D01*
X194102482Y-93559188D01*
X193978000Y-93546928D01*
X190578000Y-93546928D01*
X190453518Y-93559188D01*
X190333820Y-93595498D01*
X190223506Y-93654463D01*
X190126815Y-93733815D01*
X190047463Y-93830506D01*
X189988498Y-93940820D01*
X189952188Y-94060518D01*
X189939928Y-94185000D01*
X189939928Y-97585000D01*
X189952188Y-97709482D01*
X189988498Y-97829180D01*
X190047463Y-97939494D01*
X190126815Y-98036185D01*
X190223506Y-98115537D01*
X190333820Y-98174502D01*
X190453518Y-98210812D01*
X190578000Y-98223072D01*
X193634991Y-98223072D01*
X193634990Y-98398299D01*
X193633063Y-98400226D01*
X193519795Y-98569744D01*
X193441774Y-98758102D01*
X193402000Y-98958061D01*
X193402000Y-99161939D01*
X193421000Y-99257459D01*
X193421000Y-99751541D01*
X193402000Y-99847061D01*
X193402000Y-100050939D01*
X193406985Y-100076000D01*
X191339098Y-100076000D01*
X191189829Y-100090702D01*
X190998313Y-100148798D01*
X190821810Y-100243140D01*
X190667104Y-100370104D01*
X190540140Y-100524810D01*
X190445798Y-100701313D01*
X190387702Y-100892829D01*
X190368085Y-101092000D01*
X190387702Y-101291171D01*
X190445798Y-101482687D01*
X190540140Y-101659190D01*
X190667104Y-101813896D01*
X190821810Y-101940860D01*
X190998313Y-102035202D01*
X191189829Y-102093298D01*
X191339098Y-102108000D01*
X194143160Y-102108000D01*
X193889160Y-102362000D01*
X192736098Y-102362000D01*
X192586829Y-102376702D01*
X192395313Y-102434798D01*
X192218810Y-102529140D01*
X192064104Y-102656104D01*
X191937140Y-102810810D01*
X191842798Y-102987313D01*
X191784702Y-103178829D01*
X191765085Y-103378000D01*
X191784702Y-103577171D01*
X191842798Y-103768687D01*
X191937140Y-103945190D01*
X192022276Y-104048928D01*
X190793000Y-104048928D01*
X190668518Y-104061188D01*
X190548820Y-104097498D01*
X190438506Y-104156463D01*
X190341815Y-104235815D01*
X190262463Y-104332506D01*
X190203498Y-104442820D01*
X190167188Y-104562518D01*
X190154928Y-104687000D01*
X190154928Y-106387000D01*
X190167188Y-106511482D01*
X190203498Y-106631180D01*
X190262463Y-106741494D01*
X190341815Y-106838185D01*
X190438506Y-106917537D01*
X190548820Y-106976502D01*
X190621380Y-106998513D01*
X190489525Y-107130368D01*
X190327010Y-107373589D01*
X190215068Y-107643842D01*
X190158000Y-107930740D01*
X190158000Y-108223260D01*
X190215068Y-108510158D01*
X190327010Y-108780411D01*
X190489525Y-109023632D01*
X190696368Y-109230475D01*
X190878534Y-109352195D01*
X190761645Y-109421822D01*
X190545412Y-109616731D01*
X190371359Y-109850080D01*
X190246175Y-110112901D01*
X190201524Y-110260110D01*
X190322845Y-110490000D01*
X191516000Y-110490000D01*
X191516000Y-110470000D01*
X191770000Y-110470000D01*
X191770000Y-110490000D01*
X192963155Y-110490000D01*
X193084476Y-110260110D01*
X193039825Y-110112901D01*
X192914641Y-109850080D01*
X192740588Y-109616731D01*
X192524355Y-109421822D01*
X192407466Y-109352195D01*
X192589632Y-109230475D01*
X192796475Y-109023632D01*
X192958990Y-108780411D01*
X193070932Y-108510158D01*
X193100007Y-108363990D01*
X195657928Y-108363990D01*
X195657928Y-109729000D01*
X195673071Y-109882745D01*
X195717916Y-110030582D01*
X195790742Y-110166829D01*
X195888749Y-110286251D01*
X196008171Y-110384258D01*
X196144418Y-110457084D01*
X196292255Y-110501929D01*
X196446000Y-110517072D01*
X196746000Y-110517072D01*
X196899745Y-110501929D01*
X197047582Y-110457084D01*
X197183829Y-110384258D01*
X197231000Y-110345546D01*
X197278171Y-110384258D01*
X197414418Y-110457084D01*
X197562255Y-110501929D01*
X197716000Y-110517072D01*
X198016000Y-110517072D01*
X198169745Y-110501929D01*
X198317582Y-110457084D01*
X198453829Y-110384258D01*
X198501000Y-110345546D01*
X198548171Y-110384258D01*
X198684418Y-110457084D01*
X198832255Y-110501929D01*
X198986000Y-110517072D01*
X199286000Y-110517072D01*
X199439745Y-110501929D01*
X199587582Y-110457084D01*
X199723829Y-110384258D01*
X199771000Y-110345546D01*
X199818171Y-110384258D01*
X199954418Y-110457084D01*
X200102255Y-110501929D01*
X200256000Y-110517072D01*
X200556000Y-110517072D01*
X200709745Y-110501929D01*
X200857582Y-110457084D01*
X200993829Y-110384258D01*
X201113251Y-110286251D01*
X201211258Y-110166829D01*
X201284084Y-110030582D01*
X201328929Y-109882745D01*
X201344072Y-109729000D01*
X201344072Y-109459547D01*
X201403271Y-109484068D01*
X201524351Y-109508153D01*
X202763201Y-110747003D01*
X202786999Y-110776001D01*
X202851349Y-110828812D01*
X202902724Y-110870974D01*
X203034753Y-110941546D01*
X203178014Y-110985003D01*
X203327000Y-110999677D01*
X203364333Y-110996000D01*
X208270868Y-110996000D01*
X208237274Y-111077102D01*
X208197500Y-111277061D01*
X208197500Y-111480939D01*
X208237274Y-111680898D01*
X208315295Y-111869256D01*
X208428563Y-112038774D01*
X208572726Y-112182937D01*
X208742244Y-112296205D01*
X208930602Y-112374226D01*
X209130561Y-112414000D01*
X209334439Y-112414000D01*
X209534398Y-112374226D01*
X209722756Y-112296205D01*
X209892274Y-112182937D01*
X210036437Y-112038774D01*
X210149705Y-111869256D01*
X210208629Y-111727000D01*
X212337928Y-111727000D01*
X212350188Y-111851482D01*
X212386498Y-111971180D01*
X212445463Y-112081494D01*
X212524815Y-112178185D01*
X212556880Y-112204500D01*
X212524815Y-112230815D01*
X212445463Y-112327506D01*
X212386498Y-112437820D01*
X212350188Y-112557518D01*
X212337928Y-112682000D01*
X212341000Y-112871250D01*
X212499750Y-113030000D01*
X213386500Y-113030000D01*
X213386500Y-112205750D01*
X213385250Y-112204500D01*
X213386500Y-112203250D01*
X213386500Y-111379000D01*
X212499750Y-111379000D01*
X212341000Y-111537750D01*
X212337928Y-111727000D01*
X210208629Y-111727000D01*
X210227726Y-111680898D01*
X210267500Y-111480939D01*
X210267500Y-111277061D01*
X210227726Y-111077102D01*
X210194132Y-110996000D01*
X212370750Y-110996000D01*
X212499750Y-111125000D01*
X212681964Y-111125000D01*
X212706271Y-111135068D01*
X212886911Y-111171000D01*
X213071089Y-111171000D01*
X213251729Y-111135068D01*
X213276036Y-111125000D01*
X213386500Y-111125000D01*
X213386500Y-111105000D01*
X213640500Y-111105000D01*
X213640500Y-111125000D01*
X213660500Y-111125000D01*
X213660500Y-111379000D01*
X213640500Y-111379000D01*
X213640500Y-112203250D01*
X213641750Y-112204500D01*
X213640500Y-112205750D01*
X213640500Y-113030000D01*
X213660500Y-113030000D01*
X213660500Y-113284000D01*
X213640500Y-113284000D01*
X213640500Y-114108250D01*
X213799250Y-114267000D01*
X214051000Y-114270072D01*
X214175482Y-114257812D01*
X214295180Y-114221502D01*
X214307425Y-114214957D01*
X214306928Y-114220000D01*
X214310000Y-115284250D01*
X214468750Y-115443000D01*
X215480500Y-115443000D01*
X215480500Y-115423000D01*
X215734500Y-115423000D01*
X215734500Y-115443000D01*
X216746250Y-115443000D01*
X216905000Y-115284250D01*
X216908072Y-114220000D01*
X216895812Y-114095518D01*
X216859502Y-113975820D01*
X216800537Y-113865506D01*
X216721185Y-113768815D01*
X216624494Y-113689463D01*
X216514180Y-113630498D01*
X216394482Y-113594188D01*
X216388664Y-113593615D01*
X216397248Y-113565316D01*
X216414072Y-113394500D01*
X216414072Y-112919500D01*
X216397248Y-112748684D01*
X216347423Y-112584433D01*
X216266512Y-112433058D01*
X216157623Y-112300377D01*
X216040797Y-112204500D01*
X216157623Y-112108623D01*
X216266512Y-111975942D01*
X216347423Y-111824567D01*
X216397248Y-111660316D01*
X216414072Y-111489500D01*
X216414072Y-111014500D01*
X216397248Y-110843684D01*
X216347423Y-110679433D01*
X216266512Y-110528058D01*
X216157623Y-110395377D01*
X216024942Y-110286488D01*
X215873567Y-110205577D01*
X215709316Y-110155752D01*
X215538500Y-110138928D01*
X214938500Y-110138928D01*
X214767684Y-110155752D01*
X214603433Y-110205577D01*
X214453394Y-110285774D01*
X214405494Y-110246463D01*
X214295180Y-110187498D01*
X214175482Y-110151188D01*
X214051000Y-110138928D01*
X213913343Y-110140608D01*
X213878068Y-109963271D01*
X213807586Y-109793111D01*
X213705262Y-109639972D01*
X213666290Y-109601000D01*
X213705262Y-109562028D01*
X213807586Y-109408889D01*
X213878068Y-109238729D01*
X213914000Y-109058089D01*
X213914000Y-108873911D01*
X213878068Y-108693271D01*
X213807586Y-108523111D01*
X213721651Y-108394500D01*
X213807586Y-108265889D01*
X213878068Y-108095729D01*
X213914000Y-107915089D01*
X213914000Y-107730911D01*
X213893700Y-107628857D01*
X213944512Y-107566942D01*
X214025423Y-107415567D01*
X214075248Y-107251316D01*
X214092072Y-107080500D01*
X214092072Y-106480500D01*
X214075248Y-106309684D01*
X214025423Y-106145433D01*
X213945226Y-105995394D01*
X213984537Y-105947494D01*
X214043502Y-105837180D01*
X214079812Y-105717482D01*
X214092072Y-105593000D01*
X214089000Y-105341250D01*
X213930250Y-105182500D01*
X213106000Y-105182500D01*
X213106000Y-105202500D01*
X212852000Y-105202500D01*
X212852000Y-105182500D01*
X212027750Y-105182500D01*
X211869000Y-105341250D01*
X211865928Y-105593000D01*
X211878188Y-105717482D01*
X211914498Y-105837180D01*
X211973463Y-105947494D01*
X212012774Y-105995394D01*
X211932577Y-106145433D01*
X211882752Y-106309684D01*
X211865928Y-106480500D01*
X211865928Y-106875995D01*
X211498010Y-106508077D01*
X211498010Y-105239560D01*
X211502004Y-105199010D01*
X211498010Y-105158457D01*
X211498010Y-104518000D01*
X211865928Y-104518000D01*
X211869000Y-104769750D01*
X212027750Y-104928500D01*
X212852000Y-104928500D01*
X212852000Y-104041750D01*
X213106000Y-104041750D01*
X213106000Y-104928500D01*
X213930250Y-104928500D01*
X214089000Y-104769750D01*
X214092072Y-104518000D01*
X214079812Y-104393518D01*
X214043502Y-104273820D01*
X213984537Y-104163506D01*
X213905185Y-104066815D01*
X213808494Y-103987463D01*
X213698180Y-103928498D01*
X213578482Y-103892188D01*
X213454000Y-103879928D01*
X213264750Y-103883000D01*
X213106000Y-104041750D01*
X212852000Y-104041750D01*
X212693250Y-103883000D01*
X212504000Y-103879928D01*
X212379518Y-103892188D01*
X212259820Y-103928498D01*
X212149506Y-103987463D01*
X212052815Y-104066815D01*
X211973463Y-104163506D01*
X211914498Y-104273820D01*
X211878188Y-104393518D01*
X211865928Y-104518000D01*
X211498010Y-104518000D01*
X211498010Y-97138036D01*
X211563271Y-97165068D01*
X211743911Y-97201000D01*
X211796991Y-97201000D01*
X211796990Y-101477488D01*
X211793314Y-101514811D01*
X211796990Y-101552133D01*
X211796990Y-101552143D01*
X211807987Y-101663796D01*
X211851444Y-101807057D01*
X211922016Y-101939087D01*
X211960752Y-101986286D01*
X212016989Y-102054812D01*
X212045993Y-102078615D01*
X213284879Y-103317502D01*
X213308678Y-103346501D01*
X213337676Y-103370299D01*
X213424402Y-103441474D01*
X213535020Y-103500601D01*
X213556432Y-103512046D01*
X213699693Y-103555503D01*
X213811346Y-103566500D01*
X213811355Y-103566500D01*
X213848678Y-103570176D01*
X213886001Y-103566500D01*
X214503657Y-103566500D01*
X215519980Y-104582824D01*
X215519979Y-108673656D01*
X215516303Y-108710979D01*
X215519979Y-108748301D01*
X215519979Y-108748311D01*
X215530976Y-108859964D01*
X215570802Y-108991254D01*
X215574433Y-109003225D01*
X215645005Y-109135255D01*
X215679945Y-109177829D01*
X215739978Y-109250980D01*
X215768981Y-109274782D01*
X216881848Y-110387650D01*
X216905932Y-110508729D01*
X216976414Y-110678889D01*
X217078738Y-110832028D01*
X217208972Y-110962262D01*
X217362111Y-111064586D01*
X217532271Y-111135068D01*
X217670002Y-111162465D01*
X217670001Y-113113177D01*
X217233988Y-113549191D01*
X217204990Y-113572989D01*
X217181192Y-113601987D01*
X217181191Y-113601988D01*
X217110016Y-113688714D01*
X217039444Y-113820744D01*
X217010702Y-113915498D01*
X216995988Y-113964004D01*
X216986562Y-114059703D01*
X216981314Y-114112990D01*
X216984991Y-114150322D01*
X216984990Y-116870857D01*
X216981314Y-116908180D01*
X216984990Y-116945502D01*
X216984990Y-116945512D01*
X216995987Y-117057165D01*
X217028209Y-117163387D01*
X217039444Y-117200426D01*
X217110016Y-117332456D01*
X217148791Y-117379703D01*
X217204989Y-117448181D01*
X217233993Y-117471984D01*
X219156021Y-119394013D01*
X219179819Y-119423011D01*
X219295544Y-119517984D01*
X219427573Y-119588556D01*
X219570834Y-119632013D01*
X219682487Y-119643010D01*
X219682496Y-119643010D01*
X219719819Y-119646686D01*
X219757142Y-119643010D01*
X231320116Y-119643010D01*
X231390377Y-119728623D01*
X231523058Y-119837512D01*
X231674433Y-119918423D01*
X231838684Y-119968248D01*
X232009500Y-119985072D01*
X232509500Y-119985072D01*
X232680316Y-119968248D01*
X232844567Y-119918423D01*
X232995942Y-119837512D01*
X233128623Y-119728623D01*
X233172000Y-119675768D01*
X233215377Y-119728623D01*
X233348058Y-119837512D01*
X233499433Y-119918423D01*
X233663684Y-119968248D01*
X233834500Y-119985072D01*
X234334500Y-119985072D01*
X234505316Y-119968248D01*
X234669567Y-119918423D01*
X234820942Y-119837512D01*
X234953623Y-119728623D01*
X235062512Y-119595942D01*
X235143423Y-119444567D01*
X235193248Y-119280316D01*
X235210072Y-119109500D01*
X235210072Y-118634500D01*
X235193248Y-118463684D01*
X235143423Y-118299433D01*
X235110625Y-118238072D01*
X235681000Y-118238072D01*
X235805482Y-118225812D01*
X235830146Y-118218330D01*
X235879140Y-118309992D01*
X236006104Y-118464698D01*
X236044873Y-118496515D01*
X236612486Y-119064128D01*
X236644303Y-119102897D01*
X236799009Y-119229861D01*
X236975510Y-119324202D01*
X236975512Y-119324203D01*
X237167028Y-119382299D01*
X237366199Y-119401916D01*
X237416101Y-119397001D01*
X247505097Y-119397001D01*
X247554999Y-119401916D01*
X247604901Y-119397001D01*
X247754170Y-119382299D01*
X247945686Y-119324203D01*
X248122189Y-119229861D01*
X248276895Y-119102897D01*
X248308711Y-119064129D01*
X251508133Y-115864708D01*
X251546896Y-115832896D01*
X251673860Y-115678190D01*
X251768202Y-115501687D01*
X251826298Y-115310171D01*
X251841000Y-115160902D01*
X251845915Y-115111000D01*
X251841000Y-115061098D01*
X251841000Y-114987072D01*
X252525000Y-114987072D01*
X252649482Y-114974812D01*
X252769180Y-114938502D01*
X252879494Y-114879537D01*
X252976185Y-114800185D01*
X253055537Y-114703494D01*
X253114502Y-114593180D01*
X253150812Y-114473482D01*
X253163072Y-114349000D01*
X253163072Y-110949000D01*
X253150812Y-110824518D01*
X253114502Y-110704820D01*
X253055537Y-110594506D01*
X252976185Y-110497815D01*
X252879494Y-110418463D01*
X252769180Y-110359498D01*
X252649482Y-110323188D01*
X252525000Y-110310928D01*
X249125000Y-110310928D01*
X249000518Y-110323188D01*
X248956083Y-110336667D01*
X249000000Y-110292750D01*
X249003072Y-109916000D01*
X248990812Y-109791518D01*
X248954502Y-109671820D01*
X248895537Y-109561506D01*
X248816185Y-109464815D01*
X248719494Y-109385463D01*
X248609180Y-109326498D01*
X248489482Y-109290188D01*
X248365000Y-109277928D01*
X247300750Y-109281000D01*
X247142000Y-109439750D01*
X247142000Y-110451500D01*
X247162000Y-110451500D01*
X247162000Y-110705500D01*
X247142000Y-110705500D01*
X247142000Y-111717250D01*
X247300750Y-111876000D01*
X248365000Y-111879072D01*
X248486928Y-111867064D01*
X248486928Y-112487673D01*
X248454852Y-112470528D01*
X248288256Y-112419992D01*
X248115002Y-112402928D01*
X247540103Y-112402928D01*
X247288860Y-112326714D01*
X247083625Y-112306500D01*
X245469072Y-112306500D01*
X245469072Y-111845139D01*
X245540518Y-111866812D01*
X245665000Y-111879072D01*
X246729250Y-111876000D01*
X246888000Y-111717250D01*
X246888000Y-110705500D01*
X246868000Y-110705500D01*
X246868000Y-110451500D01*
X246888000Y-110451500D01*
X246888000Y-109439750D01*
X246729250Y-109281000D01*
X245665000Y-109277928D01*
X245540518Y-109290188D01*
X245420820Y-109326498D01*
X245310506Y-109385463D01*
X245213815Y-109464815D01*
X245134463Y-109561506D01*
X245075498Y-109671820D01*
X245039188Y-109791518D01*
X245026928Y-109916000D01*
X245029216Y-110196555D01*
X244955482Y-110174188D01*
X244831000Y-110161928D01*
X238614479Y-110161928D01*
X238622248Y-110136316D01*
X238639072Y-109965500D01*
X238639072Y-109490500D01*
X238622248Y-109319684D01*
X238614479Y-109294072D01*
X244831000Y-109294072D01*
X244955482Y-109281812D01*
X245075180Y-109245502D01*
X245185494Y-109186537D01*
X245282185Y-109107185D01*
X245361537Y-109010494D01*
X245420502Y-108900180D01*
X245456812Y-108780482D01*
X245469072Y-108656000D01*
X245469072Y-106845500D01*
X246829625Y-106845500D01*
X247034860Y-106825286D01*
X247286103Y-106749072D01*
X247861002Y-106749072D01*
X248034256Y-106732008D01*
X248200852Y-106681472D01*
X248354387Y-106599405D01*
X248488962Y-106488962D01*
X248599405Y-106354387D01*
X248608103Y-106338114D01*
X248673815Y-106418185D01*
X248770506Y-106497537D01*
X248880820Y-106556502D01*
X249000518Y-106592812D01*
X249125000Y-106605072D01*
X252525000Y-106605072D01*
X252649482Y-106592812D01*
X252769180Y-106556502D01*
X252879494Y-106497537D01*
X252976185Y-106418185D01*
X253055537Y-106321494D01*
X253114502Y-106211180D01*
X253150812Y-106091482D01*
X253163072Y-105967000D01*
X253163072Y-102567000D01*
X253150812Y-102442518D01*
X253114502Y-102322820D01*
X253055537Y-102212506D01*
X252976185Y-102115815D01*
X252879494Y-102036463D01*
X252769180Y-101977498D01*
X252649482Y-101941188D01*
X252525000Y-101928928D01*
X250490996Y-101928928D01*
X249830324Y-101268256D01*
X249830320Y-101268251D01*
X248953939Y-100391871D01*
X248922123Y-100353103D01*
X248767417Y-100226139D01*
X248590914Y-100131797D01*
X248399398Y-100073701D01*
X248250129Y-100058999D01*
X248200227Y-100054084D01*
X248150325Y-100058999D01*
X245338231Y-100058999D01*
X245342072Y-100020000D01*
X245342072Y-98082500D01*
X246702625Y-98082500D01*
X246907860Y-98062286D01*
X247159103Y-97986072D01*
X247734002Y-97986072D01*
X247907256Y-97969008D01*
X248073852Y-97918472D01*
X248227387Y-97836405D01*
X248361962Y-97725962D01*
X248472405Y-97591387D01*
X248515792Y-97510217D01*
X248535498Y-97575180D01*
X248594463Y-97685494D01*
X248673815Y-97782185D01*
X248770506Y-97861537D01*
X248880820Y-97920502D01*
X249000518Y-97956812D01*
X249125000Y-97969072D01*
X252525000Y-97969072D01*
X252649482Y-97956812D01*
X252769180Y-97920502D01*
X252879494Y-97861537D01*
X252976185Y-97782185D01*
X253055537Y-97685494D01*
X253114502Y-97575180D01*
X253150812Y-97455482D01*
X253163072Y-97331000D01*
X253163072Y-93931000D01*
X253150812Y-93806518D01*
X253114502Y-93686820D01*
X253055537Y-93576506D01*
X252976185Y-93479815D01*
X252879494Y-93400463D01*
X252769180Y-93341498D01*
X252649482Y-93305188D01*
X252525000Y-93292928D01*
X250685769Y-93292928D01*
X250518656Y-93125815D01*
X249476134Y-92083294D01*
X249136840Y-91744000D01*
X253188001Y-91744000D01*
X253188000Y-120219000D01*
X189915000Y-120219000D01*
X189915000Y-117905000D01*
X189939928Y-117905000D01*
X189952188Y-118029482D01*
X189988498Y-118149180D01*
X190047463Y-118259494D01*
X190126815Y-118356185D01*
X190223506Y-118435537D01*
X190333820Y-118494502D01*
X190453518Y-118530812D01*
X190578000Y-118543072D01*
X191992250Y-118540000D01*
X192151000Y-118381250D01*
X192151000Y-116332000D01*
X192405000Y-116332000D01*
X192405000Y-118381250D01*
X192563750Y-118540000D01*
X193978000Y-118543072D01*
X194102482Y-118530812D01*
X194222180Y-118494502D01*
X194332494Y-118435537D01*
X194429185Y-118356185D01*
X194508537Y-118259494D01*
X194567502Y-118149180D01*
X194603812Y-118029482D01*
X194616072Y-117905000D01*
X194613000Y-116490750D01*
X194454250Y-116332000D01*
X192405000Y-116332000D01*
X192151000Y-116332000D01*
X190101750Y-116332000D01*
X189943000Y-116490750D01*
X189939928Y-117905000D01*
X189915000Y-117905000D01*
X189915000Y-114505000D01*
X189939928Y-114505000D01*
X189943000Y-115919250D01*
X190101750Y-116078000D01*
X192151000Y-116078000D01*
X192151000Y-114028750D01*
X192405000Y-114028750D01*
X192405000Y-116078000D01*
X194454250Y-116078000D01*
X194613000Y-115919250D01*
X194614869Y-115058949D01*
X194707500Y-115068072D01*
X195182500Y-115068072D01*
X195353316Y-115051248D01*
X195517567Y-115001423D01*
X195668942Y-114920512D01*
X195693565Y-114900305D01*
X195717916Y-114980582D01*
X195790742Y-115116829D01*
X195888749Y-115236251D01*
X196008171Y-115334258D01*
X196144418Y-115407084D01*
X196292255Y-115451929D01*
X196396946Y-115462240D01*
X196390188Y-115484518D01*
X196377928Y-115609000D01*
X196377928Y-117309000D01*
X196390188Y-117433482D01*
X196426498Y-117553180D01*
X196485463Y-117663494D01*
X196564815Y-117760185D01*
X196661506Y-117839537D01*
X196771820Y-117898502D01*
X196891518Y-117934812D01*
X197016000Y-117947072D01*
X198716000Y-117947072D01*
X198840482Y-117934812D01*
X198960180Y-117898502D01*
X199070494Y-117839537D01*
X199167185Y-117760185D01*
X199246537Y-117663494D01*
X199305502Y-117553180D01*
X199327513Y-117480620D01*
X199459368Y-117612475D01*
X199702589Y-117774990D01*
X199972842Y-117886932D01*
X200259740Y-117944000D01*
X200552260Y-117944000D01*
X200839158Y-117886932D01*
X201109411Y-117774990D01*
X201352632Y-117612475D01*
X201559475Y-117405632D01*
X201574656Y-117382911D01*
X207281500Y-117382911D01*
X207281500Y-117567089D01*
X207317432Y-117747729D01*
X207387914Y-117917889D01*
X207490238Y-118071028D01*
X207620472Y-118201262D01*
X207773611Y-118303586D01*
X207943771Y-118374068D01*
X208124411Y-118410000D01*
X208308589Y-118410000D01*
X208489229Y-118374068D01*
X208659389Y-118303586D01*
X208812528Y-118201262D01*
X208942762Y-118071028D01*
X209045086Y-117917889D01*
X209115568Y-117747729D01*
X209151500Y-117567089D01*
X209151500Y-117382911D01*
X209115568Y-117202271D01*
X209045086Y-117032111D01*
X208970176Y-116920000D01*
X214306928Y-116920000D01*
X214319188Y-117044482D01*
X214355498Y-117164180D01*
X214414463Y-117274494D01*
X214493815Y-117371185D01*
X214590506Y-117450537D01*
X214700820Y-117509502D01*
X214820518Y-117545812D01*
X214945000Y-117558072D01*
X215321750Y-117555000D01*
X215480500Y-117396250D01*
X215480500Y-115697000D01*
X215734500Y-115697000D01*
X215734500Y-117396250D01*
X215893250Y-117555000D01*
X216270000Y-117558072D01*
X216394482Y-117545812D01*
X216514180Y-117509502D01*
X216624494Y-117450537D01*
X216721185Y-117371185D01*
X216800537Y-117274494D01*
X216859502Y-117164180D01*
X216895812Y-117044482D01*
X216908072Y-116920000D01*
X216905000Y-115855750D01*
X216746250Y-115697000D01*
X215734500Y-115697000D01*
X215480500Y-115697000D01*
X214468750Y-115697000D01*
X214310000Y-115855750D01*
X214306928Y-116920000D01*
X208970176Y-116920000D01*
X208942762Y-116878972D01*
X208812528Y-116748738D01*
X208659389Y-116646414D01*
X208489229Y-116575932D01*
X208308589Y-116540000D01*
X208124411Y-116540000D01*
X207943771Y-116575932D01*
X207773611Y-116646414D01*
X207620472Y-116748738D01*
X207490238Y-116878972D01*
X207387914Y-117032111D01*
X207317432Y-117202271D01*
X207281500Y-117382911D01*
X201574656Y-117382911D01*
X201721990Y-117162411D01*
X201833932Y-116892158D01*
X201891000Y-116605260D01*
X201891000Y-116312740D01*
X201833932Y-116025842D01*
X201721990Y-115755589D01*
X201559475Y-115512368D01*
X201352632Y-115305525D01*
X201212972Y-115212208D01*
X201236537Y-115183494D01*
X201295502Y-115073180D01*
X201331812Y-114953482D01*
X201344072Y-114829000D01*
X201341000Y-114139750D01*
X201182250Y-113981000D01*
X200533000Y-113981000D01*
X200533000Y-114001000D01*
X200279000Y-114001000D01*
X200279000Y-113981000D01*
X200259000Y-113981000D01*
X200259000Y-113727000D01*
X200279000Y-113727000D01*
X200279000Y-112402750D01*
X200533000Y-112402750D01*
X200533000Y-113727000D01*
X201182250Y-113727000D01*
X201277250Y-113632000D01*
X212337928Y-113632000D01*
X212350188Y-113756482D01*
X212386498Y-113876180D01*
X212445463Y-113986494D01*
X212524815Y-114083185D01*
X212621506Y-114162537D01*
X212731820Y-114221502D01*
X212851518Y-114257812D01*
X212976000Y-114270072D01*
X213227750Y-114267000D01*
X213386500Y-114108250D01*
X213386500Y-113284000D01*
X212499750Y-113284000D01*
X212341000Y-113442750D01*
X212337928Y-113632000D01*
X201277250Y-113632000D01*
X201341000Y-113568250D01*
X201344072Y-112879000D01*
X201331812Y-112754518D01*
X201295502Y-112634820D01*
X201236537Y-112524506D01*
X201157185Y-112427815D01*
X201060494Y-112348463D01*
X200950180Y-112289498D01*
X200830482Y-112253188D01*
X200706000Y-112240928D01*
X200691750Y-112244000D01*
X200533000Y-112402750D01*
X200279000Y-112402750D01*
X200120250Y-112244000D01*
X200106000Y-112240928D01*
X199981518Y-112253188D01*
X199861820Y-112289498D01*
X199751506Y-112348463D01*
X199721936Y-112372730D01*
X199587582Y-112300916D01*
X199439745Y-112256071D01*
X199286000Y-112240928D01*
X198986000Y-112240928D01*
X198832255Y-112256071D01*
X198684418Y-112300916D01*
X198548171Y-112373742D01*
X198501000Y-112412454D01*
X198453829Y-112373742D01*
X198317582Y-112300916D01*
X198169745Y-112256071D01*
X198016000Y-112240928D01*
X197716000Y-112240928D01*
X197562255Y-112256071D01*
X197414418Y-112300916D01*
X197278171Y-112373742D01*
X197231000Y-112412454D01*
X197183829Y-112373742D01*
X197047582Y-112300916D01*
X196899745Y-112256071D01*
X196746000Y-112240928D01*
X196446000Y-112240928D01*
X196292255Y-112256071D01*
X196144418Y-112300916D01*
X196008171Y-112373742D01*
X195990222Y-112388472D01*
X195896250Y-112294500D01*
X195072000Y-112294500D01*
X195072000Y-112314500D01*
X194818000Y-112314500D01*
X194818000Y-112294500D01*
X193993750Y-112294500D01*
X193835000Y-112453250D01*
X193831928Y-112705000D01*
X193844188Y-112829482D01*
X193880498Y-112949180D01*
X193939463Y-113059494D01*
X193978774Y-113107394D01*
X193898577Y-113257433D01*
X193848752Y-113421684D01*
X193831928Y-113592500D01*
X193831928Y-113867245D01*
X192563750Y-113870000D01*
X192405000Y-114028750D01*
X192151000Y-114028750D01*
X191992250Y-113870000D01*
X190578000Y-113866928D01*
X190453518Y-113879188D01*
X190333820Y-113915498D01*
X190223506Y-113974463D01*
X190126815Y-114053815D01*
X190047463Y-114150506D01*
X189988498Y-114260820D01*
X189952188Y-114380518D01*
X189939928Y-114505000D01*
X189915000Y-114505000D01*
X189915000Y-110973890D01*
X190201524Y-110973890D01*
X190246175Y-111121099D01*
X190371359Y-111383920D01*
X190545412Y-111617269D01*
X190761645Y-111812178D01*
X191011748Y-111961157D01*
X191286109Y-112058481D01*
X191516000Y-111937814D01*
X191516000Y-110744000D01*
X191770000Y-110744000D01*
X191770000Y-111937814D01*
X191999891Y-112058481D01*
X192274252Y-111961157D01*
X192524355Y-111812178D01*
X192726464Y-111630000D01*
X193831928Y-111630000D01*
X193835000Y-111881750D01*
X193993750Y-112040500D01*
X194818000Y-112040500D01*
X194818000Y-111153750D01*
X195072000Y-111153750D01*
X195072000Y-112040500D01*
X195896250Y-112040500D01*
X196055000Y-111881750D01*
X196058072Y-111630000D01*
X196045812Y-111505518D01*
X196009502Y-111385820D01*
X195950537Y-111275506D01*
X195871185Y-111178815D01*
X195774494Y-111099463D01*
X195664180Y-111040498D01*
X195544482Y-111004188D01*
X195420000Y-110991928D01*
X195230750Y-110995000D01*
X195072000Y-111153750D01*
X194818000Y-111153750D01*
X194659250Y-110995000D01*
X194470000Y-110991928D01*
X194345518Y-111004188D01*
X194225820Y-111040498D01*
X194115506Y-111099463D01*
X194018815Y-111178815D01*
X193939463Y-111275506D01*
X193880498Y-111385820D01*
X193844188Y-111505518D01*
X193831928Y-111630000D01*
X192726464Y-111630000D01*
X192740588Y-111617269D01*
X192914641Y-111383920D01*
X193039825Y-111121099D01*
X193084476Y-110973890D01*
X192963155Y-110744000D01*
X191770000Y-110744000D01*
X191516000Y-110744000D01*
X190322845Y-110744000D01*
X190201524Y-110973890D01*
X189915000Y-110973890D01*
X189915000Y-91744000D01*
X234863159Y-91744000D01*
X234005232Y-92601928D01*
G04 #@! TA.AperFunction,Conductor*
D27*
G36*
X234005232Y-92601928D02*
G01*
X232054000Y-92601928D01*
X231929518Y-92614188D01*
X231809820Y-92650498D01*
X231803683Y-92653778D01*
X231742623Y-92579377D01*
X231609942Y-92470488D01*
X231458567Y-92389577D01*
X231294316Y-92339752D01*
X231123500Y-92322928D01*
X230648500Y-92322928D01*
X230477684Y-92339752D01*
X230313433Y-92389577D01*
X230162058Y-92470488D01*
X230029377Y-92579377D01*
X229939822Y-92688500D01*
X213973004Y-92688500D01*
X213935679Y-92684824D01*
X213898354Y-92688500D01*
X213898346Y-92688500D01*
X213786693Y-92699497D01*
X213643432Y-92742954D01*
X213511403Y-92813526D01*
X213395678Y-92908499D01*
X213371880Y-92937497D01*
X212592294Y-93717083D01*
X212559274Y-93684063D01*
X212389756Y-93570795D01*
X212201398Y-93492774D01*
X212001439Y-93453000D01*
X211797561Y-93453000D01*
X211597602Y-93492774D01*
X211409244Y-93570795D01*
X211239726Y-93684063D01*
X211095563Y-93828226D01*
X210982295Y-93997744D01*
X210904274Y-94186102D01*
X210872072Y-94347995D01*
X210665955Y-94554112D01*
X210590453Y-94412857D01*
X210342398Y-94110602D01*
X210040143Y-93862547D01*
X209695302Y-93678226D01*
X209321128Y-93564722D01*
X208932000Y-93526396D01*
X208542873Y-93564722D01*
X208168699Y-93678226D01*
X207823858Y-93862547D01*
X207558421Y-94080386D01*
X207551537Y-94067506D01*
X207472185Y-93970815D01*
X207375494Y-93891463D01*
X207265180Y-93832498D01*
X207145482Y-93796188D01*
X207021000Y-93783928D01*
X206406750Y-93787000D01*
X206248000Y-93945750D01*
X206248000Y-94957500D01*
X206268000Y-94957500D01*
X206268000Y-95211500D01*
X206248000Y-95211500D01*
X206248000Y-95231500D01*
X205994000Y-95231500D01*
X205994000Y-95211500D01*
X205974000Y-95211500D01*
X205974000Y-94957500D01*
X205994000Y-94957500D01*
X205994000Y-93945750D01*
X205835250Y-93787000D01*
X205221000Y-93783928D01*
X205096518Y-93796188D01*
X204976820Y-93832498D01*
X204945214Y-93849392D01*
X204918494Y-93827463D01*
X204808180Y-93768498D01*
X204688482Y-93732188D01*
X204564000Y-93719928D01*
X204374750Y-93723000D01*
X204216000Y-93881750D01*
X204216000Y-94768500D01*
X204236000Y-94768500D01*
X204236000Y-95022500D01*
X204216000Y-95022500D01*
X204216000Y-95042500D01*
X204048990Y-95042500D01*
X204048990Y-93354883D01*
X204053904Y-93304989D01*
X204048990Y-93255095D01*
X204048990Y-93255088D01*
X204034288Y-93105819D01*
X204032751Y-93100750D01*
X204002226Y-93000125D01*
X203976192Y-92914303D01*
X203881850Y-92737800D01*
X203754886Y-92583094D01*
X203716117Y-92551277D01*
X203255213Y-92090373D01*
X203223396Y-92051604D01*
X203068690Y-91924640D01*
X202892187Y-91830298D01*
X202700671Y-91772202D01*
X202551402Y-91757500D01*
X202501500Y-91752585D01*
X202451598Y-91757500D01*
X200709893Y-91757500D01*
X200659999Y-91752586D01*
X200610105Y-91757500D01*
X200610098Y-91757500D01*
X200480177Y-91770296D01*
X200460828Y-91772202D01*
X200402732Y-91789826D01*
X200269313Y-91830298D01*
X200092810Y-91924640D01*
X199938104Y-92051604D01*
X199906287Y-92090373D01*
X199534868Y-92461792D01*
X199496105Y-92493604D01*
X199369140Y-92648310D01*
X199274798Y-92824813D01*
X199216702Y-93016329D01*
X199213024Y-93053668D01*
X199197085Y-93215500D01*
X199202000Y-93265402D01*
X199202000Y-93335541D01*
X199183000Y-93431061D01*
X199183000Y-93634939D01*
X199201842Y-93729663D01*
X199103000Y-93719928D01*
X198913750Y-93723000D01*
X198755000Y-93881750D01*
X198755000Y-94768500D01*
X198775000Y-94768500D01*
X198775000Y-95022500D01*
X198755000Y-95022500D01*
X198755000Y-95042500D01*
X198501000Y-95042500D01*
X198501000Y-95022500D01*
X197676750Y-95022500D01*
X197518000Y-95181250D01*
X197514928Y-95433000D01*
X197527188Y-95557482D01*
X197541451Y-95604500D01*
X195765852Y-95604500D01*
X195715950Y-95599585D01*
X195516779Y-95619202D01*
X195325262Y-95677298D01*
X195299188Y-95691235D01*
X195148760Y-95771640D01*
X194994054Y-95898604D01*
X194962244Y-95937365D01*
X194616072Y-96283537D01*
X194616072Y-94358000D01*
X197514928Y-94358000D01*
X197518000Y-94609750D01*
X197676750Y-94768500D01*
X198501000Y-94768500D01*
X198501000Y-93881750D01*
X198342250Y-93723000D01*
X198153000Y-93719928D01*
X198028518Y-93732188D01*
X197908820Y-93768498D01*
X197798506Y-93827463D01*
X197701815Y-93906815D01*
X197622463Y-94003506D01*
X197563498Y-94113820D01*
X197527188Y-94233518D01*
X197514928Y-94358000D01*
X194616072Y-94358000D01*
X194616072Y-94185000D01*
X194603812Y-94060518D01*
X194567502Y-93940820D01*
X194508537Y-93830506D01*
X194429185Y-93733815D01*
X194332494Y-93654463D01*
X194222180Y-93595498D01*
X194102482Y-93559188D01*
X193978000Y-93546928D01*
X190578000Y-93546928D01*
X190453518Y-93559188D01*
X190333820Y-93595498D01*
X190223506Y-93654463D01*
X190126815Y-93733815D01*
X190047463Y-93830506D01*
X189988498Y-93940820D01*
X189952188Y-94060518D01*
X189939928Y-94185000D01*
X189939928Y-97585000D01*
X189952188Y-97709482D01*
X189988498Y-97829180D01*
X190047463Y-97939494D01*
X190126815Y-98036185D01*
X190223506Y-98115537D01*
X190333820Y-98174502D01*
X190453518Y-98210812D01*
X190578000Y-98223072D01*
X193634991Y-98223072D01*
X193634990Y-98398299D01*
X193633063Y-98400226D01*
X193519795Y-98569744D01*
X193441774Y-98758102D01*
X193402000Y-98958061D01*
X193402000Y-99161939D01*
X193421000Y-99257459D01*
X193421000Y-99751541D01*
X193402000Y-99847061D01*
X193402000Y-100050939D01*
X193406985Y-100076000D01*
X191339098Y-100076000D01*
X191189829Y-100090702D01*
X190998313Y-100148798D01*
X190821810Y-100243140D01*
X190667104Y-100370104D01*
X190540140Y-100524810D01*
X190445798Y-100701313D01*
X190387702Y-100892829D01*
X190368085Y-101092000D01*
X190387702Y-101291171D01*
X190445798Y-101482687D01*
X190540140Y-101659190D01*
X190667104Y-101813896D01*
X190821810Y-101940860D01*
X190998313Y-102035202D01*
X191189829Y-102093298D01*
X191339098Y-102108000D01*
X194143160Y-102108000D01*
X193889160Y-102362000D01*
X192736098Y-102362000D01*
X192586829Y-102376702D01*
X192395313Y-102434798D01*
X192218810Y-102529140D01*
X192064104Y-102656104D01*
X191937140Y-102810810D01*
X191842798Y-102987313D01*
X191784702Y-103178829D01*
X191765085Y-103378000D01*
X191784702Y-103577171D01*
X191842798Y-103768687D01*
X191937140Y-103945190D01*
X192022276Y-104048928D01*
X190793000Y-104048928D01*
X190668518Y-104061188D01*
X190548820Y-104097498D01*
X190438506Y-104156463D01*
X190341815Y-104235815D01*
X190262463Y-104332506D01*
X190203498Y-104442820D01*
X190167188Y-104562518D01*
X190154928Y-104687000D01*
X190154928Y-106387000D01*
X190167188Y-106511482D01*
X190203498Y-106631180D01*
X190262463Y-106741494D01*
X190341815Y-106838185D01*
X190438506Y-106917537D01*
X190548820Y-106976502D01*
X190621380Y-106998513D01*
X190489525Y-107130368D01*
X190327010Y-107373589D01*
X190215068Y-107643842D01*
X190158000Y-107930740D01*
X190158000Y-108223260D01*
X190215068Y-108510158D01*
X190327010Y-108780411D01*
X190489525Y-109023632D01*
X190696368Y-109230475D01*
X190878534Y-109352195D01*
X190761645Y-109421822D01*
X190545412Y-109616731D01*
X190371359Y-109850080D01*
X190246175Y-110112901D01*
X190201524Y-110260110D01*
X190322845Y-110490000D01*
X191516000Y-110490000D01*
X191516000Y-110470000D01*
X191770000Y-110470000D01*
X191770000Y-110490000D01*
X192963155Y-110490000D01*
X193084476Y-110260110D01*
X193039825Y-110112901D01*
X192914641Y-109850080D01*
X192740588Y-109616731D01*
X192524355Y-109421822D01*
X192407466Y-109352195D01*
X192589632Y-109230475D01*
X192796475Y-109023632D01*
X192958990Y-108780411D01*
X193070932Y-108510158D01*
X193100007Y-108363990D01*
X195657928Y-108363990D01*
X195657928Y-109729000D01*
X195673071Y-109882745D01*
X195717916Y-110030582D01*
X195790742Y-110166829D01*
X195888749Y-110286251D01*
X196008171Y-110384258D01*
X196144418Y-110457084D01*
X196292255Y-110501929D01*
X196446000Y-110517072D01*
X196746000Y-110517072D01*
X196899745Y-110501929D01*
X197047582Y-110457084D01*
X197183829Y-110384258D01*
X197231000Y-110345546D01*
X197278171Y-110384258D01*
X197414418Y-110457084D01*
X197562255Y-110501929D01*
X197716000Y-110517072D01*
X198016000Y-110517072D01*
X198169745Y-110501929D01*
X198317582Y-110457084D01*
X198453829Y-110384258D01*
X198501000Y-110345546D01*
X198548171Y-110384258D01*
X198684418Y-110457084D01*
X198832255Y-110501929D01*
X198986000Y-110517072D01*
X199286000Y-110517072D01*
X199439745Y-110501929D01*
X199587582Y-110457084D01*
X199723829Y-110384258D01*
X199771000Y-110345546D01*
X199818171Y-110384258D01*
X199954418Y-110457084D01*
X200102255Y-110501929D01*
X200256000Y-110517072D01*
X200556000Y-110517072D01*
X200709745Y-110501929D01*
X200857582Y-110457084D01*
X200993829Y-110384258D01*
X201113251Y-110286251D01*
X201211258Y-110166829D01*
X201284084Y-110030582D01*
X201328929Y-109882745D01*
X201344072Y-109729000D01*
X201344072Y-109459547D01*
X201403271Y-109484068D01*
X201524351Y-109508153D01*
X202763201Y-110747003D01*
X202786999Y-110776001D01*
X202851349Y-110828812D01*
X202902724Y-110870974D01*
X203034753Y-110941546D01*
X203178014Y-110985003D01*
X203327000Y-110999677D01*
X203364333Y-110996000D01*
X208270868Y-110996000D01*
X208237274Y-111077102D01*
X208197500Y-111277061D01*
X208197500Y-111480939D01*
X208237274Y-111680898D01*
X208315295Y-111869256D01*
X208428563Y-112038774D01*
X208572726Y-112182937D01*
X208742244Y-112296205D01*
X208930602Y-112374226D01*
X209130561Y-112414000D01*
X209334439Y-112414000D01*
X209534398Y-112374226D01*
X209722756Y-112296205D01*
X209892274Y-112182937D01*
X210036437Y-112038774D01*
X210149705Y-111869256D01*
X210208629Y-111727000D01*
X212337928Y-111727000D01*
X212350188Y-111851482D01*
X212386498Y-111971180D01*
X212445463Y-112081494D01*
X212524815Y-112178185D01*
X212556880Y-112204500D01*
X212524815Y-112230815D01*
X212445463Y-112327506D01*
X212386498Y-112437820D01*
X212350188Y-112557518D01*
X212337928Y-112682000D01*
X212341000Y-112871250D01*
X212499750Y-113030000D01*
X213386500Y-113030000D01*
X213386500Y-112205750D01*
X213385250Y-112204500D01*
X213386500Y-112203250D01*
X213386500Y-111379000D01*
X212499750Y-111379000D01*
X212341000Y-111537750D01*
X212337928Y-111727000D01*
X210208629Y-111727000D01*
X210227726Y-111680898D01*
X210267500Y-111480939D01*
X210267500Y-111277061D01*
X210227726Y-111077102D01*
X210194132Y-110996000D01*
X212370750Y-110996000D01*
X212499750Y-111125000D01*
X212681964Y-111125000D01*
X212706271Y-111135068D01*
X212886911Y-111171000D01*
X213071089Y-111171000D01*
X213251729Y-111135068D01*
X213276036Y-111125000D01*
X213386500Y-111125000D01*
X213386500Y-111105000D01*
X213640500Y-111105000D01*
X213640500Y-111125000D01*
X213660500Y-111125000D01*
X213660500Y-111379000D01*
X213640500Y-111379000D01*
X213640500Y-112203250D01*
X213641750Y-112204500D01*
X213640500Y-112205750D01*
X213640500Y-113030000D01*
X213660500Y-113030000D01*
X213660500Y-113284000D01*
X213640500Y-113284000D01*
X213640500Y-114108250D01*
X213799250Y-114267000D01*
X214051000Y-114270072D01*
X214175482Y-114257812D01*
X214295180Y-114221502D01*
X214307425Y-114214957D01*
X214306928Y-114220000D01*
X214310000Y-115284250D01*
X214468750Y-115443000D01*
X215480500Y-115443000D01*
X215480500Y-115423000D01*
X215734500Y-115423000D01*
X215734500Y-115443000D01*
X216746250Y-115443000D01*
X216905000Y-115284250D01*
X216908072Y-114220000D01*
X216895812Y-114095518D01*
X216859502Y-113975820D01*
X216800537Y-113865506D01*
X216721185Y-113768815D01*
X216624494Y-113689463D01*
X216514180Y-113630498D01*
X216394482Y-113594188D01*
X216388664Y-113593615D01*
X216397248Y-113565316D01*
X216414072Y-113394500D01*
X216414072Y-112919500D01*
X216397248Y-112748684D01*
X216347423Y-112584433D01*
X216266512Y-112433058D01*
X216157623Y-112300377D01*
X216040797Y-112204500D01*
X216157623Y-112108623D01*
X216266512Y-111975942D01*
X216347423Y-111824567D01*
X216397248Y-111660316D01*
X216414072Y-111489500D01*
X216414072Y-111014500D01*
X216397248Y-110843684D01*
X216347423Y-110679433D01*
X216266512Y-110528058D01*
X216157623Y-110395377D01*
X216024942Y-110286488D01*
X215873567Y-110205577D01*
X215709316Y-110155752D01*
X215538500Y-110138928D01*
X214938500Y-110138928D01*
X214767684Y-110155752D01*
X214603433Y-110205577D01*
X214453394Y-110285774D01*
X214405494Y-110246463D01*
X214295180Y-110187498D01*
X214175482Y-110151188D01*
X214051000Y-110138928D01*
X213913343Y-110140608D01*
X213878068Y-109963271D01*
X213807586Y-109793111D01*
X213705262Y-109639972D01*
X213666290Y-109601000D01*
X213705262Y-109562028D01*
X213807586Y-109408889D01*
X213878068Y-109238729D01*
X213914000Y-109058089D01*
X213914000Y-108873911D01*
X213878068Y-108693271D01*
X213807586Y-108523111D01*
X213721651Y-108394500D01*
X213807586Y-108265889D01*
X213878068Y-108095729D01*
X213914000Y-107915089D01*
X213914000Y-107730911D01*
X213893700Y-107628857D01*
X213944512Y-107566942D01*
X214025423Y-107415567D01*
X214075248Y-107251316D01*
X214092072Y-107080500D01*
X214092072Y-106480500D01*
X214075248Y-106309684D01*
X214025423Y-106145433D01*
X213945226Y-105995394D01*
X213984537Y-105947494D01*
X214043502Y-105837180D01*
X214079812Y-105717482D01*
X214092072Y-105593000D01*
X214089000Y-105341250D01*
X213930250Y-105182500D01*
X213106000Y-105182500D01*
X213106000Y-105202500D01*
X212852000Y-105202500D01*
X212852000Y-105182500D01*
X212027750Y-105182500D01*
X211869000Y-105341250D01*
X211865928Y-105593000D01*
X211878188Y-105717482D01*
X211914498Y-105837180D01*
X211973463Y-105947494D01*
X212012774Y-105995394D01*
X211932577Y-106145433D01*
X211882752Y-106309684D01*
X211865928Y-106480500D01*
X211865928Y-106875995D01*
X211498010Y-106508077D01*
X211498010Y-105239560D01*
X211502004Y-105199010D01*
X211498010Y-105158457D01*
X211498010Y-104518000D01*
X211865928Y-104518000D01*
X211869000Y-104769750D01*
X212027750Y-104928500D01*
X212852000Y-104928500D01*
X212852000Y-104041750D01*
X213106000Y-104041750D01*
X213106000Y-104928500D01*
X213930250Y-104928500D01*
X214089000Y-104769750D01*
X214092072Y-104518000D01*
X214079812Y-104393518D01*
X214043502Y-104273820D01*
X213984537Y-104163506D01*
X213905185Y-104066815D01*
X213808494Y-103987463D01*
X213698180Y-103928498D01*
X213578482Y-103892188D01*
X213454000Y-103879928D01*
X213264750Y-103883000D01*
X213106000Y-104041750D01*
X212852000Y-104041750D01*
X212693250Y-103883000D01*
X212504000Y-103879928D01*
X212379518Y-103892188D01*
X212259820Y-103928498D01*
X212149506Y-103987463D01*
X212052815Y-104066815D01*
X211973463Y-104163506D01*
X211914498Y-104273820D01*
X211878188Y-104393518D01*
X211865928Y-104518000D01*
X211498010Y-104518000D01*
X211498010Y-97138036D01*
X211563271Y-97165068D01*
X211743911Y-97201000D01*
X211796991Y-97201000D01*
X211796990Y-101477488D01*
X211793314Y-101514811D01*
X211796990Y-101552133D01*
X211796990Y-101552143D01*
X211807987Y-101663796D01*
X211851444Y-101807057D01*
X211922016Y-101939087D01*
X211960752Y-101986286D01*
X212016989Y-102054812D01*
X212045993Y-102078615D01*
X213284879Y-103317502D01*
X213308678Y-103346501D01*
X213337676Y-103370299D01*
X213424402Y-103441474D01*
X213535020Y-103500601D01*
X213556432Y-103512046D01*
X213699693Y-103555503D01*
X213811346Y-103566500D01*
X213811355Y-103566500D01*
X213848678Y-103570176D01*
X213886001Y-103566500D01*
X214503657Y-103566500D01*
X215519980Y-104582824D01*
X215519979Y-108673656D01*
X215516303Y-108710979D01*
X215519979Y-108748301D01*
X215519979Y-108748311D01*
X215530976Y-108859964D01*
X215570802Y-108991254D01*
X215574433Y-109003225D01*
X215645005Y-109135255D01*
X215679945Y-109177829D01*
X215739978Y-109250980D01*
X215768981Y-109274782D01*
X216881848Y-110387650D01*
X216905932Y-110508729D01*
X216976414Y-110678889D01*
X217078738Y-110832028D01*
X217208972Y-110962262D01*
X217362111Y-111064586D01*
X217532271Y-111135068D01*
X217670002Y-111162465D01*
X217670001Y-113113177D01*
X217233988Y-113549191D01*
X217204990Y-113572989D01*
X217181192Y-113601987D01*
X217181191Y-113601988D01*
X217110016Y-113688714D01*
X217039444Y-113820744D01*
X217010702Y-113915498D01*
X216995988Y-113964004D01*
X216986562Y-114059703D01*
X216981314Y-114112990D01*
X216984991Y-114150322D01*
X216984990Y-116870857D01*
X216981314Y-116908180D01*
X216984990Y-116945502D01*
X216984990Y-116945512D01*
X216995987Y-117057165D01*
X217028209Y-117163387D01*
X217039444Y-117200426D01*
X217110016Y-117332456D01*
X217148791Y-117379703D01*
X217204989Y-117448181D01*
X217233993Y-117471984D01*
X219156021Y-119394013D01*
X219179819Y-119423011D01*
X219295544Y-119517984D01*
X219427573Y-119588556D01*
X219570834Y-119632013D01*
X219682487Y-119643010D01*
X219682496Y-119643010D01*
X219719819Y-119646686D01*
X219757142Y-119643010D01*
X231320116Y-119643010D01*
X231390377Y-119728623D01*
X231523058Y-119837512D01*
X231674433Y-119918423D01*
X231838684Y-119968248D01*
X232009500Y-119985072D01*
X232509500Y-119985072D01*
X232680316Y-119968248D01*
X232844567Y-119918423D01*
X232995942Y-119837512D01*
X233128623Y-119728623D01*
X233172000Y-119675768D01*
X233215377Y-119728623D01*
X233348058Y-119837512D01*
X233499433Y-119918423D01*
X233663684Y-119968248D01*
X233834500Y-119985072D01*
X234334500Y-119985072D01*
X234505316Y-119968248D01*
X234669567Y-119918423D01*
X234820942Y-119837512D01*
X234953623Y-119728623D01*
X235062512Y-119595942D01*
X235143423Y-119444567D01*
X235193248Y-119280316D01*
X235210072Y-119109500D01*
X235210072Y-118634500D01*
X235193248Y-118463684D01*
X235143423Y-118299433D01*
X235110625Y-118238072D01*
X235681000Y-118238072D01*
X235805482Y-118225812D01*
X235830146Y-118218330D01*
X235879140Y-118309992D01*
X236006104Y-118464698D01*
X236044873Y-118496515D01*
X236612486Y-119064128D01*
X236644303Y-119102897D01*
X236799009Y-119229861D01*
X236975510Y-119324202D01*
X236975512Y-119324203D01*
X237167028Y-119382299D01*
X237366199Y-119401916D01*
X237416101Y-119397001D01*
X247505097Y-119397001D01*
X247554999Y-119401916D01*
X247604901Y-119397001D01*
X247754170Y-119382299D01*
X247945686Y-119324203D01*
X248122189Y-119229861D01*
X248276895Y-119102897D01*
X248308711Y-119064129D01*
X251508133Y-115864708D01*
X251546896Y-115832896D01*
X251673860Y-115678190D01*
X251768202Y-115501687D01*
X251826298Y-115310171D01*
X251841000Y-115160902D01*
X251845915Y-115111000D01*
X251841000Y-115061098D01*
X251841000Y-114987072D01*
X252525000Y-114987072D01*
X252649482Y-114974812D01*
X252769180Y-114938502D01*
X252879494Y-114879537D01*
X252976185Y-114800185D01*
X253055537Y-114703494D01*
X253114502Y-114593180D01*
X253150812Y-114473482D01*
X253163072Y-114349000D01*
X253163072Y-110949000D01*
X253150812Y-110824518D01*
X253114502Y-110704820D01*
X253055537Y-110594506D01*
X252976185Y-110497815D01*
X252879494Y-110418463D01*
X252769180Y-110359498D01*
X252649482Y-110323188D01*
X252525000Y-110310928D01*
X249125000Y-110310928D01*
X249000518Y-110323188D01*
X248956083Y-110336667D01*
X249000000Y-110292750D01*
X249003072Y-109916000D01*
X248990812Y-109791518D01*
X248954502Y-109671820D01*
X248895537Y-109561506D01*
X248816185Y-109464815D01*
X248719494Y-109385463D01*
X248609180Y-109326498D01*
X248489482Y-109290188D01*
X248365000Y-109277928D01*
X247300750Y-109281000D01*
X247142000Y-109439750D01*
X247142000Y-110451500D01*
X247162000Y-110451500D01*
X247162000Y-110705500D01*
X247142000Y-110705500D01*
X247142000Y-111717250D01*
X247300750Y-111876000D01*
X248365000Y-111879072D01*
X248486928Y-111867064D01*
X248486928Y-112487673D01*
X248454852Y-112470528D01*
X248288256Y-112419992D01*
X248115002Y-112402928D01*
X247540103Y-112402928D01*
X247288860Y-112326714D01*
X247083625Y-112306500D01*
X245469072Y-112306500D01*
X245469072Y-111845139D01*
X245540518Y-111866812D01*
X245665000Y-111879072D01*
X246729250Y-111876000D01*
X246888000Y-111717250D01*
X246888000Y-110705500D01*
X246868000Y-110705500D01*
X246868000Y-110451500D01*
X246888000Y-110451500D01*
X246888000Y-109439750D01*
X246729250Y-109281000D01*
X245665000Y-109277928D01*
X245540518Y-109290188D01*
X245420820Y-109326498D01*
X245310506Y-109385463D01*
X245213815Y-109464815D01*
X245134463Y-109561506D01*
X245075498Y-109671820D01*
X245039188Y-109791518D01*
X245026928Y-109916000D01*
X245029216Y-110196555D01*
X244955482Y-110174188D01*
X244831000Y-110161928D01*
X238614479Y-110161928D01*
X238622248Y-110136316D01*
X238639072Y-109965500D01*
X238639072Y-109490500D01*
X238622248Y-109319684D01*
X238614479Y-109294072D01*
X244831000Y-109294072D01*
X244955482Y-109281812D01*
X245075180Y-109245502D01*
X245185494Y-109186537D01*
X245282185Y-109107185D01*
X245361537Y-109010494D01*
X245420502Y-108900180D01*
X245456812Y-108780482D01*
X245469072Y-108656000D01*
X245469072Y-106845500D01*
X246829625Y-106845500D01*
X247034860Y-106825286D01*
X247286103Y-106749072D01*
X247861002Y-106749072D01*
X248034256Y-106732008D01*
X248200852Y-106681472D01*
X248354387Y-106599405D01*
X248488962Y-106488962D01*
X248599405Y-106354387D01*
X248608103Y-106338114D01*
X248673815Y-106418185D01*
X248770506Y-106497537D01*
X248880820Y-106556502D01*
X249000518Y-106592812D01*
X249125000Y-106605072D01*
X252525000Y-106605072D01*
X252649482Y-106592812D01*
X252769180Y-106556502D01*
X252879494Y-106497537D01*
X252976185Y-106418185D01*
X253055537Y-106321494D01*
X253114502Y-106211180D01*
X253150812Y-106091482D01*
X253163072Y-105967000D01*
X253163072Y-102567000D01*
X253150812Y-102442518D01*
X253114502Y-102322820D01*
X253055537Y-102212506D01*
X252976185Y-102115815D01*
X252879494Y-102036463D01*
X252769180Y-101977498D01*
X252649482Y-101941188D01*
X252525000Y-101928928D01*
X250490996Y-101928928D01*
X249830324Y-101268256D01*
X249830320Y-101268251D01*
X248953939Y-100391871D01*
X248922123Y-100353103D01*
X248767417Y-100226139D01*
X248590914Y-100131797D01*
X248399398Y-100073701D01*
X248250129Y-100058999D01*
X248200227Y-100054084D01*
X248150325Y-100058999D01*
X245338231Y-100058999D01*
X245342072Y-100020000D01*
X245342072Y-98082500D01*
X246702625Y-98082500D01*
X246907860Y-98062286D01*
X247159103Y-97986072D01*
X247734002Y-97986072D01*
X247907256Y-97969008D01*
X248073852Y-97918472D01*
X248227387Y-97836405D01*
X248361962Y-97725962D01*
X248472405Y-97591387D01*
X248515792Y-97510217D01*
X248535498Y-97575180D01*
X248594463Y-97685494D01*
X248673815Y-97782185D01*
X248770506Y-97861537D01*
X248880820Y-97920502D01*
X249000518Y-97956812D01*
X249125000Y-97969072D01*
X252525000Y-97969072D01*
X252649482Y-97956812D01*
X252769180Y-97920502D01*
X252879494Y-97861537D01*
X252976185Y-97782185D01*
X253055537Y-97685494D01*
X253114502Y-97575180D01*
X253150812Y-97455482D01*
X253163072Y-97331000D01*
X253163072Y-93931000D01*
X253150812Y-93806518D01*
X253114502Y-93686820D01*
X253055537Y-93576506D01*
X252976185Y-93479815D01*
X252879494Y-93400463D01*
X252769180Y-93341498D01*
X252649482Y-93305188D01*
X252525000Y-93292928D01*
X250685769Y-93292928D01*
X250518656Y-93125815D01*
X249476134Y-92083294D01*
X249136840Y-91744000D01*
X253188001Y-91744000D01*
X253188000Y-120219000D01*
X189915000Y-120219000D01*
X189915000Y-117905000D01*
X189939928Y-117905000D01*
X189952188Y-118029482D01*
X189988498Y-118149180D01*
X190047463Y-118259494D01*
X190126815Y-118356185D01*
X190223506Y-118435537D01*
X190333820Y-118494502D01*
X190453518Y-118530812D01*
X190578000Y-118543072D01*
X191992250Y-118540000D01*
X192151000Y-118381250D01*
X192151000Y-116332000D01*
X192405000Y-116332000D01*
X192405000Y-118381250D01*
X192563750Y-118540000D01*
X193978000Y-118543072D01*
X194102482Y-118530812D01*
X194222180Y-118494502D01*
X194332494Y-118435537D01*
X194429185Y-118356185D01*
X194508537Y-118259494D01*
X194567502Y-118149180D01*
X194603812Y-118029482D01*
X194616072Y-117905000D01*
X194613000Y-116490750D01*
X194454250Y-116332000D01*
X192405000Y-116332000D01*
X192151000Y-116332000D01*
X190101750Y-116332000D01*
X189943000Y-116490750D01*
X189939928Y-117905000D01*
X189915000Y-117905000D01*
X189915000Y-114505000D01*
X189939928Y-114505000D01*
X189943000Y-115919250D01*
X190101750Y-116078000D01*
X192151000Y-116078000D01*
X192151000Y-114028750D01*
X192405000Y-114028750D01*
X192405000Y-116078000D01*
X194454250Y-116078000D01*
X194613000Y-115919250D01*
X194614869Y-115058949D01*
X194707500Y-115068072D01*
X195182500Y-115068072D01*
X195353316Y-115051248D01*
X195517567Y-115001423D01*
X195668942Y-114920512D01*
X195693565Y-114900305D01*
X195717916Y-114980582D01*
X195790742Y-115116829D01*
X195888749Y-115236251D01*
X196008171Y-115334258D01*
X196144418Y-115407084D01*
X196292255Y-115451929D01*
X196396946Y-115462240D01*
X196390188Y-115484518D01*
X196377928Y-115609000D01*
X196377928Y-117309000D01*
X196390188Y-117433482D01*
X196426498Y-117553180D01*
X196485463Y-117663494D01*
X196564815Y-117760185D01*
X196661506Y-117839537D01*
X196771820Y-117898502D01*
X196891518Y-117934812D01*
X197016000Y-117947072D01*
X198716000Y-117947072D01*
X198840482Y-117934812D01*
X198960180Y-117898502D01*
X199070494Y-117839537D01*
X199167185Y-117760185D01*
X199246537Y-117663494D01*
X199305502Y-117553180D01*
X199327513Y-117480620D01*
X199459368Y-117612475D01*
X199702589Y-117774990D01*
X199972842Y-117886932D01*
X200259740Y-117944000D01*
X200552260Y-117944000D01*
X200839158Y-117886932D01*
X201109411Y-117774990D01*
X201352632Y-117612475D01*
X201559475Y-117405632D01*
X201574656Y-117382911D01*
X207281500Y-117382911D01*
X207281500Y-117567089D01*
X207317432Y-117747729D01*
X207387914Y-117917889D01*
X207490238Y-118071028D01*
X207620472Y-118201262D01*
X207773611Y-118303586D01*
X207943771Y-118374068D01*
X208124411Y-118410000D01*
X208308589Y-118410000D01*
X208489229Y-118374068D01*
X208659389Y-118303586D01*
X208812528Y-118201262D01*
X208942762Y-118071028D01*
X209045086Y-117917889D01*
X209115568Y-117747729D01*
X209151500Y-117567089D01*
X209151500Y-117382911D01*
X209115568Y-117202271D01*
X209045086Y-117032111D01*
X208970176Y-116920000D01*
X214306928Y-116920000D01*
X214319188Y-117044482D01*
X214355498Y-117164180D01*
X214414463Y-117274494D01*
X214493815Y-117371185D01*
X214590506Y-117450537D01*
X214700820Y-117509502D01*
X214820518Y-117545812D01*
X214945000Y-117558072D01*
X215321750Y-117555000D01*
X215480500Y-117396250D01*
X215480500Y-115697000D01*
X215734500Y-115697000D01*
X215734500Y-117396250D01*
X215893250Y-117555000D01*
X216270000Y-117558072D01*
X216394482Y-117545812D01*
X216514180Y-117509502D01*
X216624494Y-117450537D01*
X216721185Y-117371185D01*
X216800537Y-117274494D01*
X216859502Y-117164180D01*
X216895812Y-117044482D01*
X216908072Y-116920000D01*
X216905000Y-115855750D01*
X216746250Y-115697000D01*
X215734500Y-115697000D01*
X215480500Y-115697000D01*
X214468750Y-115697000D01*
X214310000Y-115855750D01*
X214306928Y-116920000D01*
X208970176Y-116920000D01*
X208942762Y-116878972D01*
X208812528Y-116748738D01*
X208659389Y-116646414D01*
X208489229Y-116575932D01*
X208308589Y-116540000D01*
X208124411Y-116540000D01*
X207943771Y-116575932D01*
X207773611Y-116646414D01*
X207620472Y-116748738D01*
X207490238Y-116878972D01*
X207387914Y-117032111D01*
X207317432Y-117202271D01*
X207281500Y-117382911D01*
X201574656Y-117382911D01*
X201721990Y-117162411D01*
X201833932Y-116892158D01*
X201891000Y-116605260D01*
X201891000Y-116312740D01*
X201833932Y-116025842D01*
X201721990Y-115755589D01*
X201559475Y-115512368D01*
X201352632Y-115305525D01*
X201212972Y-115212208D01*
X201236537Y-115183494D01*
X201295502Y-115073180D01*
X201331812Y-114953482D01*
X201344072Y-114829000D01*
X201341000Y-114139750D01*
X201182250Y-113981000D01*
X200533000Y-113981000D01*
X200533000Y-114001000D01*
X200279000Y-114001000D01*
X200279000Y-113981000D01*
X200259000Y-113981000D01*
X200259000Y-113727000D01*
X200279000Y-113727000D01*
X200279000Y-112402750D01*
X200533000Y-112402750D01*
X200533000Y-113727000D01*
X201182250Y-113727000D01*
X201277250Y-113632000D01*
X212337928Y-113632000D01*
X212350188Y-113756482D01*
X212386498Y-113876180D01*
X212445463Y-113986494D01*
X212524815Y-114083185D01*
X212621506Y-114162537D01*
X212731820Y-114221502D01*
X212851518Y-114257812D01*
X212976000Y-114270072D01*
X213227750Y-114267000D01*
X213386500Y-114108250D01*
X213386500Y-113284000D01*
X212499750Y-113284000D01*
X212341000Y-113442750D01*
X212337928Y-113632000D01*
X201277250Y-113632000D01*
X201341000Y-113568250D01*
X201344072Y-112879000D01*
X201331812Y-112754518D01*
X201295502Y-112634820D01*
X201236537Y-112524506D01*
X201157185Y-112427815D01*
X201060494Y-112348463D01*
X200950180Y-112289498D01*
X200830482Y-112253188D01*
X200706000Y-112240928D01*
X200691750Y-112244000D01*
X200533000Y-112402750D01*
X200279000Y-112402750D01*
X200120250Y-112244000D01*
X200106000Y-112240928D01*
X199981518Y-112253188D01*
X199861820Y-112289498D01*
X199751506Y-112348463D01*
X199721936Y-112372730D01*
X199587582Y-112300916D01*
X199439745Y-112256071D01*
X199286000Y-112240928D01*
X198986000Y-112240928D01*
X198832255Y-112256071D01*
X198684418Y-112300916D01*
X198548171Y-112373742D01*
X198501000Y-112412454D01*
X198453829Y-112373742D01*
X198317582Y-112300916D01*
X198169745Y-112256071D01*
X198016000Y-112240928D01*
X197716000Y-112240928D01*
X197562255Y-112256071D01*
X197414418Y-112300916D01*
X197278171Y-112373742D01*
X197231000Y-112412454D01*
X197183829Y-112373742D01*
X197047582Y-112300916D01*
X196899745Y-112256071D01*
X196746000Y-112240928D01*
X196446000Y-112240928D01*
X196292255Y-112256071D01*
X196144418Y-112300916D01*
X196008171Y-112373742D01*
X195990222Y-112388472D01*
X195896250Y-112294500D01*
X195072000Y-112294500D01*
X195072000Y-112314500D01*
X194818000Y-112314500D01*
X194818000Y-112294500D01*
X193993750Y-112294500D01*
X193835000Y-112453250D01*
X193831928Y-112705000D01*
X193844188Y-112829482D01*
X193880498Y-112949180D01*
X193939463Y-113059494D01*
X193978774Y-113107394D01*
X193898577Y-113257433D01*
X193848752Y-113421684D01*
X193831928Y-113592500D01*
X193831928Y-113867245D01*
X192563750Y-113870000D01*
X192405000Y-114028750D01*
X192151000Y-114028750D01*
X191992250Y-113870000D01*
X190578000Y-113866928D01*
X190453518Y-113879188D01*
X190333820Y-113915498D01*
X190223506Y-113974463D01*
X190126815Y-114053815D01*
X190047463Y-114150506D01*
X189988498Y-114260820D01*
X189952188Y-114380518D01*
X189939928Y-114505000D01*
X189915000Y-114505000D01*
X189915000Y-110973890D01*
X190201524Y-110973890D01*
X190246175Y-111121099D01*
X190371359Y-111383920D01*
X190545412Y-111617269D01*
X190761645Y-111812178D01*
X191011748Y-111961157D01*
X191286109Y-112058481D01*
X191516000Y-111937814D01*
X191516000Y-110744000D01*
X191770000Y-110744000D01*
X191770000Y-111937814D01*
X191999891Y-112058481D01*
X192274252Y-111961157D01*
X192524355Y-111812178D01*
X192726464Y-111630000D01*
X193831928Y-111630000D01*
X193835000Y-111881750D01*
X193993750Y-112040500D01*
X194818000Y-112040500D01*
X194818000Y-111153750D01*
X195072000Y-111153750D01*
X195072000Y-112040500D01*
X195896250Y-112040500D01*
X196055000Y-111881750D01*
X196058072Y-111630000D01*
X196045812Y-111505518D01*
X196009502Y-111385820D01*
X195950537Y-111275506D01*
X195871185Y-111178815D01*
X195774494Y-111099463D01*
X195664180Y-111040498D01*
X195544482Y-111004188D01*
X195420000Y-110991928D01*
X195230750Y-110995000D01*
X195072000Y-111153750D01*
X194818000Y-111153750D01*
X194659250Y-110995000D01*
X194470000Y-110991928D01*
X194345518Y-111004188D01*
X194225820Y-111040498D01*
X194115506Y-111099463D01*
X194018815Y-111178815D01*
X193939463Y-111275506D01*
X193880498Y-111385820D01*
X193844188Y-111505518D01*
X193831928Y-111630000D01*
X192726464Y-111630000D01*
X192740588Y-111617269D01*
X192914641Y-111383920D01*
X193039825Y-111121099D01*
X193084476Y-110973890D01*
X192963155Y-110744000D01*
X191770000Y-110744000D01*
X191516000Y-110744000D01*
X190322845Y-110744000D01*
X190201524Y-110973890D01*
X189915000Y-110973890D01*
X189915000Y-91744000D01*
X234863159Y-91744000D01*
X234005232Y-92601928D01*
G37*
G04 #@! TD.AperFunction*
D26*
X231555188Y-115475518D02*
X231542928Y-115600000D01*
X231542928Y-116520515D01*
X231518494Y-116500463D01*
X231408180Y-116441498D01*
X231288482Y-116405188D01*
X231164000Y-116392928D01*
X229774750Y-116396000D01*
X229616000Y-116554750D01*
X229616000Y-117604000D01*
X229636000Y-117604000D01*
X229636000Y-117858000D01*
X229616000Y-117858000D01*
X229616000Y-117878000D01*
X229362000Y-117878000D01*
X229362000Y-117858000D01*
X229342000Y-117858000D01*
X229342000Y-117604000D01*
X229362000Y-117604000D01*
X229362000Y-116554750D01*
X229203250Y-116396000D01*
X227814000Y-116392928D01*
X227689518Y-116405188D01*
X227569820Y-116441498D01*
X227459506Y-116500463D01*
X227397301Y-116551513D01*
X227384120Y-116540696D01*
X227230480Y-116458574D01*
X227063771Y-116408004D01*
X226890400Y-116390928D01*
X226696284Y-116390928D01*
X227039502Y-116047710D01*
X230625968Y-116047710D01*
X230663290Y-116051386D01*
X230700612Y-116047710D01*
X230700623Y-116047710D01*
X230812276Y-116036713D01*
X230955537Y-115993256D01*
X231087566Y-115922684D01*
X231203291Y-115827711D01*
X231227094Y-115798707D01*
X231557324Y-115468477D01*
X231555188Y-115475518D01*
G04 #@! TA.AperFunction,Conductor*
D27*
G36*
X231555188Y-115475518D02*
G01*
X231542928Y-115600000D01*
X231542928Y-116520515D01*
X231518494Y-116500463D01*
X231408180Y-116441498D01*
X231288482Y-116405188D01*
X231164000Y-116392928D01*
X229774750Y-116396000D01*
X229616000Y-116554750D01*
X229616000Y-117604000D01*
X229636000Y-117604000D01*
X229636000Y-117858000D01*
X229616000Y-117858000D01*
X229616000Y-117878000D01*
X229362000Y-117878000D01*
X229362000Y-117858000D01*
X229342000Y-117858000D01*
X229342000Y-117604000D01*
X229362000Y-117604000D01*
X229362000Y-116554750D01*
X229203250Y-116396000D01*
X227814000Y-116392928D01*
X227689518Y-116405188D01*
X227569820Y-116441498D01*
X227459506Y-116500463D01*
X227397301Y-116551513D01*
X227384120Y-116540696D01*
X227230480Y-116458574D01*
X227063771Y-116408004D01*
X226890400Y-116390928D01*
X226696284Y-116390928D01*
X227039502Y-116047710D01*
X230625968Y-116047710D01*
X230663290Y-116051386D01*
X230700612Y-116047710D01*
X230700623Y-116047710D01*
X230812276Y-116036713D01*
X230955537Y-115993256D01*
X231087566Y-115922684D01*
X231203291Y-115827711D01*
X231227094Y-115798707D01*
X231557324Y-115468477D01*
X231555188Y-115475518D01*
G37*
G04 #@! TD.AperFunction*
D26*
X234211500Y-109601000D02*
X234231500Y-109601000D01*
X234231500Y-109855000D01*
X234211500Y-109855000D01*
X234211500Y-109857000D01*
X233957500Y-109857000D01*
X233957500Y-109855000D01*
X233937500Y-109855000D01*
X233937500Y-109601000D01*
X233957500Y-109601000D01*
X233957500Y-109581000D01*
X234211500Y-109581000D01*
X234211500Y-109601000D01*
G04 #@! TA.AperFunction,Conductor*
D27*
G36*
X234211500Y-109601000D02*
G01*
X234231500Y-109601000D01*
X234231500Y-109855000D01*
X234211500Y-109855000D01*
X234211500Y-109857000D01*
X233957500Y-109857000D01*
X233957500Y-109855000D01*
X233937500Y-109855000D01*
X233937500Y-109601000D01*
X233957500Y-109601000D01*
X233957500Y-109581000D01*
X234211500Y-109581000D01*
X234211500Y-109601000D01*
G37*
G04 #@! TD.AperFunction*
D26*
X206202000Y-103743000D02*
X206182000Y-103743000D01*
X206182000Y-104294250D01*
X206144500Y-104331750D01*
X206144500Y-105156000D01*
X206164500Y-105156000D01*
X206164500Y-105410000D01*
X206144500Y-105410000D01*
X206144500Y-106234250D01*
X206303250Y-106393000D01*
X206505000Y-106396072D01*
X206629482Y-106383812D01*
X206749180Y-106347502D01*
X206859494Y-106288537D01*
X206899112Y-106256024D01*
X207036433Y-106329423D01*
X207200684Y-106379248D01*
X207371500Y-106396072D01*
X207871500Y-106396072D01*
X208042316Y-106379248D01*
X208206567Y-106329423D01*
X208357942Y-106248512D01*
X208490623Y-106139623D01*
X208534000Y-106086768D01*
X208577377Y-106139623D01*
X208710058Y-106248512D01*
X208861433Y-106329423D01*
X209025684Y-106379248D01*
X209196500Y-106396072D01*
X209696500Y-106396072D01*
X209847011Y-106381248D01*
X209847011Y-106809450D01*
X209843016Y-106850010D01*
X209858955Y-107011836D01*
X209906157Y-107167443D01*
X209982811Y-107310852D01*
X210034299Y-107373589D01*
X210085970Y-107436551D01*
X210117471Y-107462403D01*
X210861066Y-108206000D01*
X203260802Y-108206000D01*
X202748801Y-107694000D01*
X204305678Y-107694000D01*
X204343000Y-107697676D01*
X204380322Y-107694000D01*
X204380333Y-107694000D01*
X204491986Y-107683003D01*
X204635247Y-107639546D01*
X204767276Y-107568974D01*
X204883001Y-107474001D01*
X204906803Y-107444998D01*
X205715994Y-106635808D01*
X205744991Y-106612011D01*
X205775377Y-106574985D01*
X205839964Y-106496287D01*
X205910536Y-106364257D01*
X205915618Y-106347502D01*
X205953993Y-106220996D01*
X205964990Y-106109343D01*
X205964990Y-106109333D01*
X205968666Y-106072010D01*
X205964990Y-106034687D01*
X205964990Y-103600999D01*
X206202000Y-103600999D01*
X206202000Y-103743000D01*
G04 #@! TA.AperFunction,Conductor*
D27*
G36*
X206202000Y-103743000D02*
G01*
X206182000Y-103743000D01*
X206182000Y-104294250D01*
X206144500Y-104331750D01*
X206144500Y-105156000D01*
X206164500Y-105156000D01*
X206164500Y-105410000D01*
X206144500Y-105410000D01*
X206144500Y-106234250D01*
X206303250Y-106393000D01*
X206505000Y-106396072D01*
X206629482Y-106383812D01*
X206749180Y-106347502D01*
X206859494Y-106288537D01*
X206899112Y-106256024D01*
X207036433Y-106329423D01*
X207200684Y-106379248D01*
X207371500Y-106396072D01*
X207871500Y-106396072D01*
X208042316Y-106379248D01*
X208206567Y-106329423D01*
X208357942Y-106248512D01*
X208490623Y-106139623D01*
X208534000Y-106086768D01*
X208577377Y-106139623D01*
X208710058Y-106248512D01*
X208861433Y-106329423D01*
X209025684Y-106379248D01*
X209196500Y-106396072D01*
X209696500Y-106396072D01*
X209847011Y-106381248D01*
X209847011Y-106809450D01*
X209843016Y-106850010D01*
X209858955Y-107011836D01*
X209906157Y-107167443D01*
X209982811Y-107310852D01*
X210034299Y-107373589D01*
X210085970Y-107436551D01*
X210117471Y-107462403D01*
X210861066Y-108206000D01*
X203260802Y-108206000D01*
X202748801Y-107694000D01*
X204305678Y-107694000D01*
X204343000Y-107697676D01*
X204380322Y-107694000D01*
X204380333Y-107694000D01*
X204491986Y-107683003D01*
X204635247Y-107639546D01*
X204767276Y-107568974D01*
X204883001Y-107474001D01*
X204906803Y-107444998D01*
X205715994Y-106635808D01*
X205744991Y-106612011D01*
X205775377Y-106574985D01*
X205839964Y-106496287D01*
X205910536Y-106364257D01*
X205915618Y-106347502D01*
X205953993Y-106220996D01*
X205964990Y-106109343D01*
X205964990Y-106109333D01*
X205968666Y-106072010D01*
X205964990Y-106034687D01*
X205964990Y-103600999D01*
X206202000Y-103600999D01*
X206202000Y-103743000D01*
G37*
G04 #@! TD.AperFunction*
D26*
X237192928Y-107970587D02*
X236319072Y-107096732D01*
X236319072Y-106456000D01*
X236306812Y-106331518D01*
X236270502Y-106211820D01*
X236211537Y-106101506D01*
X236132185Y-106004815D01*
X236035494Y-105925463D01*
X235925180Y-105866498D01*
X235805482Y-105830188D01*
X235681000Y-105817928D01*
X232181000Y-105817928D01*
X232056518Y-105830188D01*
X231936820Y-105866498D01*
X231826506Y-105925463D01*
X231729815Y-106004815D01*
X231650463Y-106101506D01*
X231591498Y-106211820D01*
X231555188Y-106331518D01*
X231542928Y-106456000D01*
X231542928Y-106741515D01*
X231518494Y-106721463D01*
X231408180Y-106662498D01*
X231288482Y-106626188D01*
X231164000Y-106613928D01*
X229774750Y-106617000D01*
X229616000Y-106775750D01*
X229616000Y-107825000D01*
X229636000Y-107825000D01*
X229636000Y-108079000D01*
X229616000Y-108079000D01*
X229616000Y-108099000D01*
X229362000Y-108099000D01*
X229362000Y-108079000D01*
X229342000Y-108079000D01*
X229342000Y-107825000D01*
X229362000Y-107825000D01*
X229362000Y-106775750D01*
X229203250Y-106617000D01*
X228226010Y-106614839D01*
X228226010Y-103302791D01*
X228338729Y-103190072D01*
X230914001Y-103190072D01*
X231087255Y-103173008D01*
X231253851Y-103122472D01*
X231407387Y-103040405D01*
X231541962Y-102929962D01*
X231542928Y-102928785D01*
X231542928Y-103876000D01*
X231555188Y-104000482D01*
X231591498Y-104120180D01*
X231650463Y-104230494D01*
X231729815Y-104327185D01*
X231826506Y-104406537D01*
X231936820Y-104465502D01*
X232056518Y-104501812D01*
X232181000Y-104514072D01*
X235681000Y-104514072D01*
X235805482Y-104501812D01*
X235925180Y-104465502D01*
X236035494Y-104406537D01*
X236132185Y-104327185D01*
X236211537Y-104230494D01*
X236270502Y-104120180D01*
X236306812Y-104000482D01*
X236319072Y-103876000D01*
X236319072Y-102090999D01*
X237192928Y-102090999D01*
X237192928Y-107970587D01*
G04 #@! TA.AperFunction,Conductor*
D27*
G36*
X237192928Y-107970587D02*
G01*
X236319072Y-107096732D01*
X236319072Y-106456000D01*
X236306812Y-106331518D01*
X236270502Y-106211820D01*
X236211537Y-106101506D01*
X236132185Y-106004815D01*
X236035494Y-105925463D01*
X235925180Y-105866498D01*
X235805482Y-105830188D01*
X235681000Y-105817928D01*
X232181000Y-105817928D01*
X232056518Y-105830188D01*
X231936820Y-105866498D01*
X231826506Y-105925463D01*
X231729815Y-106004815D01*
X231650463Y-106101506D01*
X231591498Y-106211820D01*
X231555188Y-106331518D01*
X231542928Y-106456000D01*
X231542928Y-106741515D01*
X231518494Y-106721463D01*
X231408180Y-106662498D01*
X231288482Y-106626188D01*
X231164000Y-106613928D01*
X229774750Y-106617000D01*
X229616000Y-106775750D01*
X229616000Y-107825000D01*
X229636000Y-107825000D01*
X229636000Y-108079000D01*
X229616000Y-108079000D01*
X229616000Y-108099000D01*
X229362000Y-108099000D01*
X229362000Y-108079000D01*
X229342000Y-108079000D01*
X229342000Y-107825000D01*
X229362000Y-107825000D01*
X229362000Y-106775750D01*
X229203250Y-106617000D01*
X228226010Y-106614839D01*
X228226010Y-103302791D01*
X228338729Y-103190072D01*
X230914001Y-103190072D01*
X231087255Y-103173008D01*
X231253851Y-103122472D01*
X231407387Y-103040405D01*
X231541962Y-102929962D01*
X231542928Y-102928785D01*
X231542928Y-103876000D01*
X231555188Y-104000482D01*
X231591498Y-104120180D01*
X231650463Y-104230494D01*
X231729815Y-104327185D01*
X231826506Y-104406537D01*
X231936820Y-104465502D01*
X232056518Y-104501812D01*
X232181000Y-104514072D01*
X235681000Y-104514072D01*
X235805482Y-104501812D01*
X235925180Y-104465502D01*
X236035494Y-104406537D01*
X236132185Y-104327185D01*
X236211537Y-104230494D01*
X236270502Y-104120180D01*
X236306812Y-104000482D01*
X236319072Y-103876000D01*
X236319072Y-102090999D01*
X237192928Y-102090999D01*
X237192928Y-107970587D01*
G37*
G04 #@! TD.AperFunction*
D26*
X197358000Y-99922500D02*
X197378000Y-99922500D01*
X197378000Y-100176500D01*
X197358000Y-100176500D01*
X197358000Y-101063250D01*
X197516750Y-101222000D01*
X197706000Y-101225072D01*
X197830482Y-101212812D01*
X197946055Y-101177753D01*
X197966506Y-101194537D01*
X198076820Y-101253502D01*
X198196518Y-101289812D01*
X198321000Y-101302072D01*
X199221000Y-101302072D01*
X199345482Y-101289812D01*
X199465180Y-101253502D01*
X199575494Y-101194537D01*
X199672185Y-101115185D01*
X199747018Y-101024000D01*
X201184342Y-101024000D01*
X201203738Y-101053028D01*
X201333972Y-101183262D01*
X201338723Y-101186437D01*
X201324928Y-101326500D01*
X201324928Y-101826500D01*
X201341752Y-101997316D01*
X201391577Y-102161567D01*
X201472488Y-102312942D01*
X201581377Y-102445623D01*
X201634232Y-102489000D01*
X201581377Y-102532377D01*
X201543748Y-102578227D01*
X201522598Y-102527166D01*
X201384706Y-102320797D01*
X201209203Y-102145294D01*
X201002834Y-102007402D01*
X200773529Y-101912421D01*
X200530099Y-101864000D01*
X200281901Y-101864000D01*
X200038471Y-101912421D01*
X199809166Y-102007402D01*
X199602797Y-102145294D01*
X199427294Y-102320797D01*
X199289402Y-102527166D01*
X199213318Y-102710851D01*
X199209185Y-102705815D01*
X199112494Y-102626463D01*
X199002180Y-102567498D01*
X198882482Y-102531188D01*
X198758000Y-102518928D01*
X198506250Y-102522000D01*
X198347500Y-102680750D01*
X198347500Y-103505000D01*
X198367500Y-103505000D01*
X198367500Y-103759000D01*
X198347500Y-103759000D01*
X198347500Y-105029000D01*
X198367500Y-105029000D01*
X198367500Y-105283000D01*
X198347500Y-105283000D01*
X198347500Y-106553000D01*
X199234250Y-106553000D01*
X199393000Y-106394250D01*
X199394670Y-106291378D01*
X199427294Y-106340203D01*
X199602797Y-106515706D01*
X199809166Y-106653598D01*
X200038471Y-106748579D01*
X200238777Y-106788422D01*
X200183209Y-106843990D01*
X199271240Y-106843990D01*
X199234250Y-106807000D01*
X198347500Y-106807000D01*
X198347500Y-106827000D01*
X198093500Y-106827000D01*
X198093500Y-106807000D01*
X198073500Y-106807000D01*
X198073500Y-106553000D01*
X198093500Y-106553000D01*
X198093500Y-105283000D01*
X198073500Y-105283000D01*
X198073500Y-105029000D01*
X198093500Y-105029000D01*
X198093500Y-103759000D01*
X198073500Y-103759000D01*
X198073500Y-103505000D01*
X198093500Y-103505000D01*
X198093500Y-102680750D01*
X197934750Y-102522000D01*
X197683000Y-102518928D01*
X197558518Y-102531188D01*
X197438820Y-102567498D01*
X197328506Y-102626463D01*
X197280606Y-102665774D01*
X197130567Y-102585577D01*
X196966316Y-102535752D01*
X196795500Y-102518928D01*
X196428587Y-102518928D01*
X196454298Y-102434171D01*
X196456389Y-102412942D01*
X196473915Y-102235001D01*
X196469000Y-102185099D01*
X196469000Y-101153614D01*
X196511820Y-101176502D01*
X196631518Y-101212812D01*
X196756000Y-101225072D01*
X196945250Y-101222000D01*
X197104000Y-101063250D01*
X197104000Y-100176500D01*
X197084000Y-100176500D01*
X197084000Y-99922500D01*
X197104000Y-99922500D01*
X197104000Y-99902500D01*
X197358000Y-99902500D01*
X197358000Y-99922500D01*
G04 #@! TA.AperFunction,Conductor*
D27*
G36*
X197358000Y-99922500D02*
G01*
X197378000Y-99922500D01*
X197378000Y-100176500D01*
X197358000Y-100176500D01*
X197358000Y-101063250D01*
X197516750Y-101222000D01*
X197706000Y-101225072D01*
X197830482Y-101212812D01*
X197946055Y-101177753D01*
X197966506Y-101194537D01*
X198076820Y-101253502D01*
X198196518Y-101289812D01*
X198321000Y-101302072D01*
X199221000Y-101302072D01*
X199345482Y-101289812D01*
X199465180Y-101253502D01*
X199575494Y-101194537D01*
X199672185Y-101115185D01*
X199747018Y-101024000D01*
X201184342Y-101024000D01*
X201203738Y-101053028D01*
X201333972Y-101183262D01*
X201338723Y-101186437D01*
X201324928Y-101326500D01*
X201324928Y-101826500D01*
X201341752Y-101997316D01*
X201391577Y-102161567D01*
X201472488Y-102312942D01*
X201581377Y-102445623D01*
X201634232Y-102489000D01*
X201581377Y-102532377D01*
X201543748Y-102578227D01*
X201522598Y-102527166D01*
X201384706Y-102320797D01*
X201209203Y-102145294D01*
X201002834Y-102007402D01*
X200773529Y-101912421D01*
X200530099Y-101864000D01*
X200281901Y-101864000D01*
X200038471Y-101912421D01*
X199809166Y-102007402D01*
X199602797Y-102145294D01*
X199427294Y-102320797D01*
X199289402Y-102527166D01*
X199213318Y-102710851D01*
X199209185Y-102705815D01*
X199112494Y-102626463D01*
X199002180Y-102567498D01*
X198882482Y-102531188D01*
X198758000Y-102518928D01*
X198506250Y-102522000D01*
X198347500Y-102680750D01*
X198347500Y-103505000D01*
X198367500Y-103505000D01*
X198367500Y-103759000D01*
X198347500Y-103759000D01*
X198347500Y-105029000D01*
X198367500Y-105029000D01*
X198367500Y-105283000D01*
X198347500Y-105283000D01*
X198347500Y-106553000D01*
X199234250Y-106553000D01*
X199393000Y-106394250D01*
X199394670Y-106291378D01*
X199427294Y-106340203D01*
X199602797Y-106515706D01*
X199809166Y-106653598D01*
X200038471Y-106748579D01*
X200238777Y-106788422D01*
X200183209Y-106843990D01*
X199271240Y-106843990D01*
X199234250Y-106807000D01*
X198347500Y-106807000D01*
X198347500Y-106827000D01*
X198093500Y-106827000D01*
X198093500Y-106807000D01*
X198073500Y-106807000D01*
X198073500Y-106553000D01*
X198093500Y-106553000D01*
X198093500Y-105283000D01*
X198073500Y-105283000D01*
X198073500Y-105029000D01*
X198093500Y-105029000D01*
X198093500Y-103759000D01*
X198073500Y-103759000D01*
X198073500Y-103505000D01*
X198093500Y-103505000D01*
X198093500Y-102680750D01*
X197934750Y-102522000D01*
X197683000Y-102518928D01*
X197558518Y-102531188D01*
X197438820Y-102567498D01*
X197328506Y-102626463D01*
X197280606Y-102665774D01*
X197130567Y-102585577D01*
X196966316Y-102535752D01*
X196795500Y-102518928D01*
X196428587Y-102518928D01*
X196454298Y-102434171D01*
X196456389Y-102412942D01*
X196473915Y-102235001D01*
X196469000Y-102185099D01*
X196469000Y-101153614D01*
X196511820Y-101176502D01*
X196631518Y-101212812D01*
X196756000Y-101225072D01*
X196945250Y-101222000D01*
X197104000Y-101063250D01*
X197104000Y-100176500D01*
X197084000Y-100176500D01*
X197084000Y-99922500D01*
X197104000Y-99922500D01*
X197104000Y-99902500D01*
X197358000Y-99902500D01*
X197358000Y-99922500D01*
G37*
G04 #@! TD.AperFunction*
D26*
X228666008Y-94363191D02*
X228637010Y-94386989D01*
X228613212Y-94415987D01*
X228613211Y-94415988D01*
X228542036Y-94502714D01*
X228471464Y-94634744D01*
X228451897Y-94699250D01*
X228428008Y-94778004D01*
X228417685Y-94882813D01*
X228413334Y-94926990D01*
X228417011Y-94964322D01*
X228417010Y-96540657D01*
X228417010Y-96870732D01*
X228417011Y-96870741D01*
X228417010Y-98930188D01*
X228031199Y-99316000D01*
X225596912Y-99316000D01*
X225559589Y-99312324D01*
X225522266Y-99316000D01*
X225522257Y-99316000D01*
X225410604Y-99326997D01*
X225300471Y-99360405D01*
X225267343Y-99370454D01*
X225135313Y-99441026D01*
X225069774Y-99494813D01*
X225019589Y-99535999D01*
X224995791Y-99564997D01*
X220415497Y-104145292D01*
X220386499Y-104169090D01*
X220362701Y-104198088D01*
X220362700Y-104198089D01*
X220291525Y-104284815D01*
X220220953Y-104416845D01*
X220197093Y-104495505D01*
X220177497Y-104560105D01*
X220171005Y-104626015D01*
X220162823Y-104709091D01*
X220166500Y-104746423D01*
X220166500Y-105923317D01*
X220132822Y-105920000D01*
X220132811Y-105920000D01*
X220095489Y-105916324D01*
X220058167Y-105920000D01*
X218732658Y-105920000D01*
X218740000Y-105883089D01*
X218740000Y-105698911D01*
X218704068Y-105518271D01*
X218633586Y-105348111D01*
X218547651Y-105219500D01*
X218633586Y-105090889D01*
X218704068Y-104920729D01*
X218740000Y-104740089D01*
X218740000Y-104555911D01*
X218704068Y-104375271D01*
X218633586Y-104205111D01*
X218613302Y-104174753D01*
X218643512Y-104137942D01*
X218724423Y-103986567D01*
X218774248Y-103822316D01*
X218791072Y-103651500D01*
X218791072Y-103051500D01*
X218774248Y-102880684D01*
X218724423Y-102716433D01*
X218643512Y-102565058D01*
X218581093Y-102489000D01*
X218643512Y-102412942D01*
X218724423Y-102261567D01*
X218774248Y-102097316D01*
X218791072Y-101926500D01*
X218791072Y-101852561D01*
X219945000Y-101852561D01*
X219945000Y-102056439D01*
X219984774Y-102256398D01*
X220062795Y-102444756D01*
X220176063Y-102614274D01*
X220320226Y-102758437D01*
X220489744Y-102871705D01*
X220678102Y-102949726D01*
X220878061Y-102989500D01*
X221081939Y-102989500D01*
X221281898Y-102949726D01*
X221470256Y-102871705D01*
X221639774Y-102758437D01*
X221783937Y-102614274D01*
X221897205Y-102444756D01*
X221975226Y-102256398D01*
X222015000Y-102056439D01*
X222015000Y-101852561D01*
X221975226Y-101652602D01*
X221897205Y-101464244D01*
X221783937Y-101294726D01*
X221639774Y-101150563D01*
X221470256Y-101037295D01*
X221281898Y-100959274D01*
X221081939Y-100919500D01*
X220878061Y-100919500D01*
X220678102Y-100959274D01*
X220489744Y-101037295D01*
X220320226Y-101150563D01*
X220176063Y-101294726D01*
X220062795Y-101464244D01*
X219984774Y-101652602D01*
X219945000Y-101852561D01*
X218791072Y-101852561D01*
X218791072Y-101326500D01*
X218774248Y-101155684D01*
X218724423Y-100991433D01*
X218643512Y-100840058D01*
X218534623Y-100707377D01*
X218401942Y-100598488D01*
X218250567Y-100517577D01*
X218086316Y-100467752D01*
X217915500Y-100450928D01*
X217440500Y-100450928D01*
X217269684Y-100467752D01*
X217105433Y-100517577D01*
X216954058Y-100598488D01*
X216821377Y-100707377D01*
X216712488Y-100840058D01*
X216665259Y-100928418D01*
X216217000Y-100480160D01*
X216217000Y-98404151D01*
X216278518Y-98422812D01*
X216403000Y-98435072D01*
X219903000Y-98435072D01*
X220027482Y-98422812D01*
X220147180Y-98386502D01*
X220257494Y-98327537D01*
X220354185Y-98248185D01*
X220433537Y-98151494D01*
X220492502Y-98041180D01*
X220528812Y-97921482D01*
X220541072Y-97797000D01*
X221164928Y-97797000D01*
X221177188Y-97921482D01*
X221213498Y-98041180D01*
X221272463Y-98151494D01*
X221351815Y-98248185D01*
X221448506Y-98327537D01*
X221558820Y-98386502D01*
X221678518Y-98422812D01*
X221803000Y-98435072D01*
X223267250Y-98432000D01*
X223426000Y-98273250D01*
X223426000Y-96774000D01*
X223680000Y-96774000D01*
X223680000Y-98273250D01*
X223838750Y-98432000D01*
X225303000Y-98435072D01*
X225427482Y-98422812D01*
X225547180Y-98386502D01*
X225657494Y-98327537D01*
X225754185Y-98248185D01*
X225833537Y-98151494D01*
X225892502Y-98041180D01*
X225928812Y-97921482D01*
X225941072Y-97797000D01*
X225938000Y-96932750D01*
X225779250Y-96774000D01*
X223680000Y-96774000D01*
X223426000Y-96774000D01*
X221326750Y-96774000D01*
X221168000Y-96932750D01*
X221164928Y-97797000D01*
X220541072Y-97797000D01*
X220541072Y-95497000D01*
X221164928Y-95497000D01*
X221168000Y-96361250D01*
X221326750Y-96520000D01*
X223426000Y-96520000D01*
X223426000Y-95020750D01*
X223680000Y-95020750D01*
X223680000Y-96520000D01*
X225779250Y-96520000D01*
X225938000Y-96361250D01*
X225941072Y-95497000D01*
X225928812Y-95372518D01*
X225892502Y-95252820D01*
X225833537Y-95142506D01*
X225754185Y-95045815D01*
X225657494Y-94966463D01*
X225547180Y-94907498D01*
X225427482Y-94871188D01*
X225303000Y-94858928D01*
X223838750Y-94862000D01*
X223680000Y-95020750D01*
X223426000Y-95020750D01*
X223267250Y-94862000D01*
X221803000Y-94858928D01*
X221678518Y-94871188D01*
X221558820Y-94907498D01*
X221448506Y-94966463D01*
X221351815Y-95045815D01*
X221272463Y-95142506D01*
X221213498Y-95252820D01*
X221177188Y-95372518D01*
X221164928Y-95497000D01*
X220541072Y-95497000D01*
X220528812Y-95372518D01*
X220492502Y-95252820D01*
X220433537Y-95142506D01*
X220354185Y-95045815D01*
X220257494Y-94966463D01*
X220147180Y-94907498D01*
X220027482Y-94871188D01*
X219903000Y-94858928D01*
X216403000Y-94858928D01*
X216278518Y-94871188D01*
X216158820Y-94907498D01*
X216125601Y-94925254D01*
X216074774Y-94757698D01*
X215890453Y-94412857D01*
X215722741Y-94208500D01*
X228820699Y-94208500D01*
X228666008Y-94363191D01*
G04 #@! TA.AperFunction,Conductor*
D27*
G36*
X228666008Y-94363191D02*
G01*
X228637010Y-94386989D01*
X228613212Y-94415987D01*
X228613211Y-94415988D01*
X228542036Y-94502714D01*
X228471464Y-94634744D01*
X228451897Y-94699250D01*
X228428008Y-94778004D01*
X228417685Y-94882813D01*
X228413334Y-94926990D01*
X228417011Y-94964322D01*
X228417010Y-96540657D01*
X228417010Y-96870732D01*
X228417011Y-96870741D01*
X228417010Y-98930188D01*
X228031199Y-99316000D01*
X225596912Y-99316000D01*
X225559589Y-99312324D01*
X225522266Y-99316000D01*
X225522257Y-99316000D01*
X225410604Y-99326997D01*
X225300471Y-99360405D01*
X225267343Y-99370454D01*
X225135313Y-99441026D01*
X225069774Y-99494813D01*
X225019589Y-99535999D01*
X224995791Y-99564997D01*
X220415497Y-104145292D01*
X220386499Y-104169090D01*
X220362701Y-104198088D01*
X220362700Y-104198089D01*
X220291525Y-104284815D01*
X220220953Y-104416845D01*
X220197093Y-104495505D01*
X220177497Y-104560105D01*
X220171005Y-104626015D01*
X220162823Y-104709091D01*
X220166500Y-104746423D01*
X220166500Y-105923317D01*
X220132822Y-105920000D01*
X220132811Y-105920000D01*
X220095489Y-105916324D01*
X220058167Y-105920000D01*
X218732658Y-105920000D01*
X218740000Y-105883089D01*
X218740000Y-105698911D01*
X218704068Y-105518271D01*
X218633586Y-105348111D01*
X218547651Y-105219500D01*
X218633586Y-105090889D01*
X218704068Y-104920729D01*
X218740000Y-104740089D01*
X218740000Y-104555911D01*
X218704068Y-104375271D01*
X218633586Y-104205111D01*
X218613302Y-104174753D01*
X218643512Y-104137942D01*
X218724423Y-103986567D01*
X218774248Y-103822316D01*
X218791072Y-103651500D01*
X218791072Y-103051500D01*
X218774248Y-102880684D01*
X218724423Y-102716433D01*
X218643512Y-102565058D01*
X218581093Y-102489000D01*
X218643512Y-102412942D01*
X218724423Y-102261567D01*
X218774248Y-102097316D01*
X218791072Y-101926500D01*
X218791072Y-101852561D01*
X219945000Y-101852561D01*
X219945000Y-102056439D01*
X219984774Y-102256398D01*
X220062795Y-102444756D01*
X220176063Y-102614274D01*
X220320226Y-102758437D01*
X220489744Y-102871705D01*
X220678102Y-102949726D01*
X220878061Y-102989500D01*
X221081939Y-102989500D01*
X221281898Y-102949726D01*
X221470256Y-102871705D01*
X221639774Y-102758437D01*
X221783937Y-102614274D01*
X221897205Y-102444756D01*
X221975226Y-102256398D01*
X222015000Y-102056439D01*
X222015000Y-101852561D01*
X221975226Y-101652602D01*
X221897205Y-101464244D01*
X221783937Y-101294726D01*
X221639774Y-101150563D01*
X221470256Y-101037295D01*
X221281898Y-100959274D01*
X221081939Y-100919500D01*
X220878061Y-100919500D01*
X220678102Y-100959274D01*
X220489744Y-101037295D01*
X220320226Y-101150563D01*
X220176063Y-101294726D01*
X220062795Y-101464244D01*
X219984774Y-101652602D01*
X219945000Y-101852561D01*
X218791072Y-101852561D01*
X218791072Y-101326500D01*
X218774248Y-101155684D01*
X218724423Y-100991433D01*
X218643512Y-100840058D01*
X218534623Y-100707377D01*
X218401942Y-100598488D01*
X218250567Y-100517577D01*
X218086316Y-100467752D01*
X217915500Y-100450928D01*
X217440500Y-100450928D01*
X217269684Y-100467752D01*
X217105433Y-100517577D01*
X216954058Y-100598488D01*
X216821377Y-100707377D01*
X216712488Y-100840058D01*
X216665259Y-100928418D01*
X216217000Y-100480160D01*
X216217000Y-98404151D01*
X216278518Y-98422812D01*
X216403000Y-98435072D01*
X219903000Y-98435072D01*
X220027482Y-98422812D01*
X220147180Y-98386502D01*
X220257494Y-98327537D01*
X220354185Y-98248185D01*
X220433537Y-98151494D01*
X220492502Y-98041180D01*
X220528812Y-97921482D01*
X220541072Y-97797000D01*
X221164928Y-97797000D01*
X221177188Y-97921482D01*
X221213498Y-98041180D01*
X221272463Y-98151494D01*
X221351815Y-98248185D01*
X221448506Y-98327537D01*
X221558820Y-98386502D01*
X221678518Y-98422812D01*
X221803000Y-98435072D01*
X223267250Y-98432000D01*
X223426000Y-98273250D01*
X223426000Y-96774000D01*
X223680000Y-96774000D01*
X223680000Y-98273250D01*
X223838750Y-98432000D01*
X225303000Y-98435072D01*
X225427482Y-98422812D01*
X225547180Y-98386502D01*
X225657494Y-98327537D01*
X225754185Y-98248185D01*
X225833537Y-98151494D01*
X225892502Y-98041180D01*
X225928812Y-97921482D01*
X225941072Y-97797000D01*
X225938000Y-96932750D01*
X225779250Y-96774000D01*
X223680000Y-96774000D01*
X223426000Y-96774000D01*
X221326750Y-96774000D01*
X221168000Y-96932750D01*
X221164928Y-97797000D01*
X220541072Y-97797000D01*
X220541072Y-95497000D01*
X221164928Y-95497000D01*
X221168000Y-96361250D01*
X221326750Y-96520000D01*
X223426000Y-96520000D01*
X223426000Y-95020750D01*
X223680000Y-95020750D01*
X223680000Y-96520000D01*
X225779250Y-96520000D01*
X225938000Y-96361250D01*
X225941072Y-95497000D01*
X225928812Y-95372518D01*
X225892502Y-95252820D01*
X225833537Y-95142506D01*
X225754185Y-95045815D01*
X225657494Y-94966463D01*
X225547180Y-94907498D01*
X225427482Y-94871188D01*
X225303000Y-94858928D01*
X223838750Y-94862000D01*
X223680000Y-95020750D01*
X223426000Y-95020750D01*
X223267250Y-94862000D01*
X221803000Y-94858928D01*
X221678518Y-94871188D01*
X221558820Y-94907498D01*
X221448506Y-94966463D01*
X221351815Y-95045815D01*
X221272463Y-95142506D01*
X221213498Y-95252820D01*
X221177188Y-95372518D01*
X221164928Y-95497000D01*
X220541072Y-95497000D01*
X220528812Y-95372518D01*
X220492502Y-95252820D01*
X220433537Y-95142506D01*
X220354185Y-95045815D01*
X220257494Y-94966463D01*
X220147180Y-94907498D01*
X220027482Y-94871188D01*
X219903000Y-94858928D01*
X216403000Y-94858928D01*
X216278518Y-94871188D01*
X216158820Y-94907498D01*
X216125601Y-94925254D01*
X216074774Y-94757698D01*
X215890453Y-94412857D01*
X215722741Y-94208500D01*
X228820699Y-94208500D01*
X228666008Y-94363191D01*
G37*
G04 #@! TD.AperFunction*
D26*
X246888000Y-102196500D02*
X246908000Y-102196500D01*
X246908000Y-102450500D01*
X246888000Y-102450500D01*
X246888000Y-103462250D01*
X247046750Y-103621000D01*
X248111000Y-103624072D01*
X248235482Y-103611812D01*
X248355180Y-103575502D01*
X248465494Y-103516537D01*
X248486928Y-103498947D01*
X248486928Y-104406369D01*
X248354387Y-104297595D01*
X248200852Y-104215528D01*
X248034256Y-104164992D01*
X247861002Y-104147928D01*
X247286103Y-104147928D01*
X247034860Y-104071714D01*
X246829625Y-104051500D01*
X245469072Y-104051500D01*
X245469072Y-103623904D01*
X246475250Y-103621000D01*
X246634000Y-103462250D01*
X246634000Y-102450500D01*
X246614000Y-102450500D01*
X246614000Y-102196500D01*
X246634000Y-102196500D01*
X246634000Y-102176500D01*
X246888000Y-102176500D01*
X246888000Y-102196500D01*
G04 #@! TA.AperFunction,Conductor*
D27*
G36*
X246888000Y-102196500D02*
G01*
X246908000Y-102196500D01*
X246908000Y-102450500D01*
X246888000Y-102450500D01*
X246888000Y-103462250D01*
X247046750Y-103621000D01*
X248111000Y-103624072D01*
X248235482Y-103611812D01*
X248355180Y-103575502D01*
X248465494Y-103516537D01*
X248486928Y-103498947D01*
X248486928Y-104406369D01*
X248354387Y-104297595D01*
X248200852Y-104215528D01*
X248034256Y-104164992D01*
X247861002Y-104147928D01*
X247286103Y-104147928D01*
X247034860Y-104071714D01*
X246829625Y-104051500D01*
X245469072Y-104051500D01*
X245469072Y-103623904D01*
X246475250Y-103621000D01*
X246634000Y-103462250D01*
X246634000Y-102450500D01*
X246614000Y-102450500D01*
X246614000Y-102196500D01*
X246634000Y-102196500D01*
X246634000Y-102176500D01*
X246888000Y-102176500D01*
X246888000Y-102196500D01*
G37*
G04 #@! TD.AperFunction*
D26*
X203042577Y-97255567D02*
X203123488Y-97406942D01*
X203232377Y-97539623D01*
X203365058Y-97648512D01*
X203516433Y-97729423D01*
X203680684Y-97779248D01*
X203851500Y-97796072D01*
X204326500Y-97796072D01*
X204497316Y-97779248D01*
X204587367Y-97751931D01*
X204582928Y-97796998D01*
X204582928Y-98622002D01*
X204599992Y-98795256D01*
X204650528Y-98961852D01*
X204732595Y-99115387D01*
X204843038Y-99249962D01*
X204977613Y-99360405D01*
X205131148Y-99442472D01*
X205297744Y-99493008D01*
X205470998Y-99510072D01*
X206771002Y-99510072D01*
X206944256Y-99493008D01*
X206947000Y-99492176D01*
X206947000Y-100856000D01*
X206059320Y-100856000D01*
X206035537Y-100811506D01*
X205956185Y-100714815D01*
X205859494Y-100635463D01*
X205749180Y-100576498D01*
X205629482Y-100540188D01*
X205505000Y-100527928D01*
X205091730Y-100527928D01*
X204636803Y-100073002D01*
X204613001Y-100043999D01*
X204497276Y-99949026D01*
X204365247Y-99878454D01*
X204221986Y-99834997D01*
X204110333Y-99824000D01*
X204110322Y-99824000D01*
X204073000Y-99820324D01*
X204035678Y-99824000D01*
X203745535Y-99824000D01*
X203642889Y-99755414D01*
X203472729Y-99684932D01*
X203292089Y-99649000D01*
X203107911Y-99649000D01*
X202927271Y-99684932D01*
X202757111Y-99755414D01*
X202633379Y-99838089D01*
X202526028Y-99730738D01*
X202372889Y-99628414D01*
X202202729Y-99557932D01*
X202022089Y-99522000D01*
X201909072Y-99522000D01*
X201885986Y-99514997D01*
X201774333Y-99504000D01*
X201774322Y-99504000D01*
X201758713Y-99502463D01*
X201697250Y-99441000D01*
X200898000Y-99441000D01*
X200898000Y-99461000D01*
X200644000Y-99461000D01*
X200644000Y-99441000D01*
X199844750Y-99441000D01*
X199781750Y-99504000D01*
X199747018Y-99504000D01*
X199672185Y-99412815D01*
X199575494Y-99333463D01*
X199539082Y-99314000D01*
X199575494Y-99294537D01*
X199672185Y-99215185D01*
X199751537Y-99118494D01*
X199760143Y-99102393D01*
X199844750Y-99187000D01*
X200644000Y-99187000D01*
X200644000Y-99167000D01*
X200898000Y-99167000D01*
X200898000Y-99187000D01*
X201697250Y-99187000D01*
X201856000Y-99028250D01*
X201859072Y-98914000D01*
X201846812Y-98789518D01*
X201810502Y-98669820D01*
X201751537Y-98559506D01*
X201672185Y-98462815D01*
X201575494Y-98383463D01*
X201465180Y-98324498D01*
X201345482Y-98288188D01*
X201221000Y-98275928D01*
X201056750Y-98279000D01*
X200898002Y-98437748D01*
X200898002Y-98337297D01*
X200909322Y-98333863D01*
X201052730Y-98257209D01*
X201178429Y-98154051D01*
X201204285Y-98122545D01*
X201604724Y-97722107D01*
X201666418Y-97755084D01*
X201814255Y-97799929D01*
X201968000Y-97815072D01*
X202268000Y-97815072D01*
X202421745Y-97799929D01*
X202569582Y-97755084D01*
X202705829Y-97682258D01*
X202825251Y-97584251D01*
X202923258Y-97464829D01*
X202996084Y-97328582D01*
X203030405Y-97215440D01*
X203042577Y-97255567D01*
G04 #@! TA.AperFunction,Conductor*
D27*
G36*
X203042577Y-97255567D02*
G01*
X203123488Y-97406942D01*
X203232377Y-97539623D01*
X203365058Y-97648512D01*
X203516433Y-97729423D01*
X203680684Y-97779248D01*
X203851500Y-97796072D01*
X204326500Y-97796072D01*
X204497316Y-97779248D01*
X204587367Y-97751931D01*
X204582928Y-97796998D01*
X204582928Y-98622002D01*
X204599992Y-98795256D01*
X204650528Y-98961852D01*
X204732595Y-99115387D01*
X204843038Y-99249962D01*
X204977613Y-99360405D01*
X205131148Y-99442472D01*
X205297744Y-99493008D01*
X205470998Y-99510072D01*
X206771002Y-99510072D01*
X206944256Y-99493008D01*
X206947000Y-99492176D01*
X206947000Y-100856000D01*
X206059320Y-100856000D01*
X206035537Y-100811506D01*
X205956185Y-100714815D01*
X205859494Y-100635463D01*
X205749180Y-100576498D01*
X205629482Y-100540188D01*
X205505000Y-100527928D01*
X205091730Y-100527928D01*
X204636803Y-100073002D01*
X204613001Y-100043999D01*
X204497276Y-99949026D01*
X204365247Y-99878454D01*
X204221986Y-99834997D01*
X204110333Y-99824000D01*
X204110322Y-99824000D01*
X204073000Y-99820324D01*
X204035678Y-99824000D01*
X203745535Y-99824000D01*
X203642889Y-99755414D01*
X203472729Y-99684932D01*
X203292089Y-99649000D01*
X203107911Y-99649000D01*
X202927271Y-99684932D01*
X202757111Y-99755414D01*
X202633379Y-99838089D01*
X202526028Y-99730738D01*
X202372889Y-99628414D01*
X202202729Y-99557932D01*
X202022089Y-99522000D01*
X201909072Y-99522000D01*
X201885986Y-99514997D01*
X201774333Y-99504000D01*
X201774322Y-99504000D01*
X201758713Y-99502463D01*
X201697250Y-99441000D01*
X200898000Y-99441000D01*
X200898000Y-99461000D01*
X200644000Y-99461000D01*
X200644000Y-99441000D01*
X199844750Y-99441000D01*
X199781750Y-99504000D01*
X199747018Y-99504000D01*
X199672185Y-99412815D01*
X199575494Y-99333463D01*
X199539082Y-99314000D01*
X199575494Y-99294537D01*
X199672185Y-99215185D01*
X199751537Y-99118494D01*
X199760143Y-99102393D01*
X199844750Y-99187000D01*
X200644000Y-99187000D01*
X200644000Y-99167000D01*
X200898000Y-99167000D01*
X200898000Y-99187000D01*
X201697250Y-99187000D01*
X201856000Y-99028250D01*
X201859072Y-98914000D01*
X201846812Y-98789518D01*
X201810502Y-98669820D01*
X201751537Y-98559506D01*
X201672185Y-98462815D01*
X201575494Y-98383463D01*
X201465180Y-98324498D01*
X201345482Y-98288188D01*
X201221000Y-98275928D01*
X201056750Y-98279000D01*
X200898002Y-98437748D01*
X200898002Y-98337297D01*
X200909322Y-98333863D01*
X201052730Y-98257209D01*
X201178429Y-98154051D01*
X201204285Y-98122545D01*
X201604724Y-97722107D01*
X201666418Y-97755084D01*
X201814255Y-97799929D01*
X201968000Y-97815072D01*
X202268000Y-97815072D01*
X202421745Y-97799929D01*
X202569582Y-97755084D01*
X202705829Y-97682258D01*
X202825251Y-97584251D01*
X202923258Y-97464829D01*
X202996084Y-97328582D01*
X203030405Y-97215440D01*
X203042577Y-97255567D01*
G37*
G04 #@! TD.AperFunction*
D26*
X246761000Y-93433500D02*
X246781000Y-93433500D01*
X246781000Y-93687500D01*
X246761000Y-93687500D01*
X246761000Y-94699250D01*
X246919750Y-94858000D01*
X247984000Y-94861072D01*
X248108482Y-94848812D01*
X248228180Y-94812502D01*
X248338494Y-94753537D01*
X248435185Y-94674185D01*
X248486928Y-94611136D01*
X248486928Y-95806783D01*
X248472405Y-95779613D01*
X248361962Y-95645038D01*
X248227387Y-95534595D01*
X248073852Y-95452528D01*
X247907256Y-95401992D01*
X247734002Y-95384928D01*
X247159103Y-95384928D01*
X246907860Y-95308714D01*
X246702625Y-95288500D01*
X245342072Y-95288500D01*
X245342072Y-94860904D01*
X246348250Y-94858000D01*
X246507000Y-94699250D01*
X246507000Y-93687500D01*
X246487000Y-93687500D01*
X246487000Y-93433500D01*
X246507000Y-93433500D01*
X246507000Y-93413500D01*
X246761000Y-93413500D01*
X246761000Y-93433500D01*
G04 #@! TA.AperFunction,Conductor*
D27*
G36*
X246761000Y-93433500D02*
G01*
X246781000Y-93433500D01*
X246781000Y-93687500D01*
X246761000Y-93687500D01*
X246761000Y-94699250D01*
X246919750Y-94858000D01*
X247984000Y-94861072D01*
X248108482Y-94848812D01*
X248228180Y-94812502D01*
X248338494Y-94753537D01*
X248435185Y-94674185D01*
X248486928Y-94611136D01*
X248486928Y-95806783D01*
X248472405Y-95779613D01*
X248361962Y-95645038D01*
X248227387Y-95534595D01*
X248073852Y-95452528D01*
X247907256Y-95401992D01*
X247734002Y-95384928D01*
X247159103Y-95384928D01*
X246907860Y-95308714D01*
X246702625Y-95288500D01*
X245342072Y-95288500D01*
X245342072Y-94860904D01*
X246348250Y-94858000D01*
X246507000Y-94699250D01*
X246507000Y-93687500D01*
X246487000Y-93687500D01*
X246487000Y-93433500D01*
X246507000Y-93433500D01*
X246507000Y-93413500D01*
X246761000Y-93413500D01*
X246761000Y-93433500D01*
G37*
G04 #@! TD.AperFunction*
M02*
