M48
; DRILL file {KiCad 6.0.6-1.fc36} date Sun 14 Aug 2022 11:43:49 CEST
; FORMAT={-:-/ absolute / metric / decimal}
; #@! TF.CreationDate,2022-08-14T11:43:49+02:00
; #@! TF.GenerationSoftware,Kicad,Pcbnew,6.0.6-1.fc36
; #@! TF.FileFunction,Plated,1,4,PTH
FMAT,2
METRIC
; #@! TA.AperFunction,Plated,PTH,ViaDrill
T1C0.300
; #@! TA.AperFunction,Plated,PTH,ViaDrill
T2C0.400
; #@! TA.AperFunction,Plated,PTH,ComponentDrill
T3C1.000
; #@! TA.AperFunction,Plated,PTH,ComponentDrill
T4C2.000
%
G90
G05
T1
X78.486Y-51.816
X78.994Y-60.833
X80.391Y-63.119
X80.645Y-62.103
X82.55Y-73.66
X83.058Y-59.627
X83.058Y-60.452
X84.074Y-64.643
X84.074Y-65.532
X84.074Y-66.294
X84.201Y-68.707
X85.471Y-68.707
X85.852Y-66.421
X86.741Y-68.707
X88.011Y-65.278
X88.011Y-68.707
X89.154Y-63.754
X89.281Y-67.437
X89.281Y-68.326
X89.535Y-60.198
X90.805Y-60.325
X91.567Y-51.816
X92.075Y-72.263
X94.107Y-58.102
X94.17Y-66.739
X94.234Y-60.579
X95.377Y-79.629
X95.822Y-77.216
X99.314Y-51.816
X99.441Y-56.007
X100.584Y-64.77
X100.584Y-66.421
X100.584Y-67.564
X100.584Y-68.707
X100.584Y-69.977
X101.092Y-74.168
X102.87Y-70.993
X102.87Y-72.898
X103.251Y-74.93
X103.251Y-75.692
X104.775Y-62.611
X104.775Y-63.5
X105.283Y-61.341
X105.41Y-64.389
X105.41Y-65.532
X105.41Y-66.421
X105.41Y-67.437
X105.41Y-69.977
X106.426Y-74.93
X106.426Y-75.819
X109.106Y-70.599
X109.156Y-68.135
X109.347Y-73.787
X109.347Y-74.803
X109.728Y-79.629
X110.49Y-75.311
X111.316Y-66.167
X112.785Y-68.707
X114.046Y-71.501
X114.046Y-77.343
X115.316Y-56.507
X116.205Y-61.595
X116.205Y-67.691
X116.332Y-71.501
X116.332Y-77.343
X116.84Y-64.516
X117.094Y-51.816
X117.856Y-61.595
X117.856Y-67.691
X117.856Y-71.501
X117.856Y-77.343
X121.666Y-69.469
X123.063Y-64.897
X126.873Y-69.469
X133.439Y-56.515
X133.439Y-65.278
X133.477Y-53.276
X133.692Y-73.444
X133.731Y-62.23
X134.239Y-56.515
X134.366Y-65.278
X134.582Y-73.444
X134.938Y-53.276
X135.064Y-62.23
X138.43Y-51.816
X138.938Y-79.629
X140.462Y-59.436
X140.462Y-68.072
T2
X82.042Y-58.801
X82.042Y-59.69
X87.823Y-53.274
X88.773Y-54.483
X96.837Y-71.12
X99.441Y-54.229
X108.585Y-61.695
T3
X79.248Y-65.278
X79.248Y-67.818
X79.248Y-70.358
X85.471Y-76.2
X88.011Y-76.2
T4
X79.883Y-55.626
X79.883Y-75.946
X138.43Y-55.372
X138.43Y-64.008
X138.43Y-72.39
T0
M30
