G04 #@! TF.GenerationSoftware,KiCad,Pcbnew,6.0.6-1.fc36*
G04 #@! TF.CreationDate,2022-08-14T11:42:17+02:00*
G04 #@! TF.ProjectId,esc_brushless,6573635f-6272-4757-9368-6c6573732e6b,1.1.0*
G04 #@! TF.SameCoordinates,Original*
G04 #@! TF.FileFunction,Copper,L3,Inr*
G04 #@! TF.FilePolarity,Positive*
%FSLAX46Y46*%
G04 Gerber Fmt 4.6, Leading zero omitted, Abs format (unit mm)*
G04 Created by KiCad (PCBNEW 6.0.6-1.fc36) date 2022-08-14 11:42:17*
%MOMM*%
%LPD*%
G01*
G04 APERTURE LIST*
G04 #@! TA.AperFunction,ComponentPad*
%ADD10R,3.400000X3.400000*%
G04 #@! TD*
G04 #@! TA.AperFunction,ComponentPad*
%ADD11O,1.700000X1.700000*%
G04 #@! TD*
G04 #@! TA.AperFunction,ComponentPad*
%ADD12R,1.700000X1.700000*%
G04 #@! TD*
G04 #@! TA.AperFunction,ViaPad*
%ADD13C,0.600000*%
G04 #@! TD*
G04 #@! TA.AperFunction,ViaPad*
%ADD14C,0.800000*%
G04 #@! TD*
G04 #@! TA.AperFunction,Conductor*
%ADD15C,0.381000*%
G04 #@! TD*
G04 #@! TA.AperFunction,Conductor*
%ADD16C,0.762000*%
G04 #@! TD*
G04 APERTURE END LIST*
D10*
X79883000Y-55626000D03*
X79883000Y-75946000D03*
D11*
X79248000Y-70358000D03*
X79248000Y-67818000D03*
D12*
X79248000Y-65278000D03*
D11*
X88011000Y-76200000D03*
D12*
X85471000Y-76200000D03*
D10*
X138430000Y-64008000D03*
X138430000Y-55372000D03*
X138430000Y-72390000D03*
D13*
X117856000Y-77343000D03*
X85852000Y-66421000D03*
X94170500Y-66738500D03*
X99314000Y-51816000D03*
X78486000Y-51816000D03*
X103251000Y-75692000D03*
X100584000Y-64770000D03*
D14*
X88773000Y-54483000D03*
D13*
X133731000Y-62230000D03*
X133477000Y-53276500D03*
X116840000Y-64516000D03*
X91567000Y-51816000D03*
X138938000Y-79629000D03*
X116205000Y-67691000D03*
X92075000Y-72263000D03*
X116332000Y-77343000D03*
X123063000Y-64897000D03*
X121666000Y-69469000D03*
X80645000Y-62103000D03*
X138430000Y-51816000D03*
X117094000Y-51816000D03*
X134937500Y-53276500D03*
X126873000Y-69469000D03*
X103251000Y-74930000D03*
X101092000Y-74168000D03*
X140462000Y-59436000D03*
X135064500Y-62230000D03*
X109728000Y-79629000D03*
X140462000Y-68072000D03*
X115316000Y-56506750D03*
X95377000Y-79629000D03*
X94234000Y-60579000D03*
X117856000Y-67691000D03*
X105410000Y-66421000D03*
X116332000Y-71501000D03*
X117856000Y-71501000D03*
X116205000Y-61595000D03*
X117856000Y-61595000D03*
X112785010Y-68707000D03*
X134366000Y-65278000D03*
X106426000Y-75819000D03*
X133438500Y-56515000D03*
D14*
X108585000Y-61695500D03*
D13*
X134239000Y-56515000D03*
X106426000Y-74930000D03*
X134581500Y-73444500D03*
X133692500Y-73444500D03*
X133438500Y-65278000D03*
X102870000Y-70993000D03*
X102870000Y-72898000D03*
X109106250Y-70598750D03*
X109156500Y-68135500D03*
X105410000Y-65532000D03*
X104775000Y-62611000D03*
X104775000Y-63500000D03*
X105283000Y-61341000D03*
X100584000Y-66421000D03*
X83058000Y-60452000D03*
X83058000Y-59626500D03*
X94107000Y-58102500D03*
X82550000Y-73660000D03*
X80391000Y-63119000D03*
X99441000Y-56007000D03*
D14*
X87823000Y-53274000D03*
D13*
X78994000Y-60833000D03*
D14*
X99441000Y-54229000D03*
D13*
X84074000Y-65532000D03*
D14*
X96837500Y-71120000D03*
X82042000Y-59690000D03*
D13*
X84074000Y-66294000D03*
X111315500Y-66167000D03*
X84074000Y-64643000D03*
X100584000Y-67564000D03*
X95821500Y-77216000D03*
D14*
X82042000Y-58801000D03*
D13*
X90805000Y-60325000D03*
X89535000Y-60198000D03*
X110490000Y-75311000D03*
X105410000Y-64389000D03*
X105410000Y-67437000D03*
X105410000Y-69977000D03*
X88011000Y-65278000D03*
X89154000Y-63754000D03*
X84201000Y-68707000D03*
X100584000Y-68707000D03*
X89281000Y-67437000D03*
X89281000Y-68326000D03*
X100584000Y-69977000D03*
X85471000Y-68707000D03*
X86741000Y-68707000D03*
X88011000Y-68707000D03*
X114046000Y-71501000D03*
X114046000Y-77343000D03*
X109347000Y-73787000D03*
X109347000Y-74803000D03*
D15*
X81343500Y-63119000D02*
X82550000Y-64325500D01*
X97345500Y-58102500D02*
X99441000Y-56007000D01*
X80391000Y-63119000D02*
X81343500Y-63119000D01*
X94107000Y-58102500D02*
X97345500Y-58102500D01*
X82550000Y-64325500D02*
X82550000Y-73633500D01*
D16*
X84074000Y-64643000D02*
X84074000Y-65532000D01*
D15*
X111180501Y-76525499D02*
X111180501Y-66301999D01*
D16*
X84137500Y-63817500D02*
X84137500Y-64579500D01*
X82042000Y-59690000D02*
X82042000Y-58801000D01*
X84137500Y-64579500D02*
X84074000Y-64643000D01*
D15*
X96837500Y-73088500D02*
X95821500Y-74104500D01*
D16*
X82042000Y-61722000D02*
X84137500Y-63817500D01*
D15*
X110490000Y-77216000D02*
X111180501Y-76525499D01*
X90995500Y-66421000D02*
X92011500Y-67437000D01*
X95821500Y-77216000D02*
X110490000Y-77216000D01*
X92011500Y-67437000D02*
X92011500Y-69532500D01*
X84637501Y-65730499D02*
X86156941Y-65730499D01*
X96837500Y-71120000D02*
X96837500Y-73088500D01*
X96837500Y-69024500D02*
X96837500Y-71120000D01*
X111180501Y-66301999D02*
X111315500Y-66167000D01*
X84074000Y-66294000D02*
X84637501Y-65730499D01*
X92011500Y-69532500D02*
X93599000Y-71120000D01*
X93599000Y-71120000D02*
X95948500Y-71120000D01*
X86847442Y-66421000D02*
X90995500Y-66421000D01*
X98298000Y-67564000D02*
X96837500Y-69024500D01*
X86156941Y-65730499D02*
X86847442Y-66421000D01*
D16*
X82042000Y-59690000D02*
X82042000Y-61722000D01*
D15*
X95821500Y-77216000D02*
X95821500Y-74104500D01*
D16*
X84074000Y-65532000D02*
X84074000Y-66294000D01*
D15*
X95948500Y-71120000D02*
X96837500Y-71120000D01*
X100584000Y-67564000D02*
X98298000Y-67564000D01*
G04 #@! TA.AperFunction,Conductor*
G36*
X77698454Y-51328502D02*
G01*
X77744947Y-51382158D01*
X77755051Y-51452432D01*
X77748735Y-51477592D01*
X77695197Y-51624685D01*
X77672463Y-51804640D01*
X77690163Y-51985160D01*
X77747418Y-52157273D01*
X77751065Y-52163295D01*
X77751066Y-52163297D01*
X77761978Y-52181314D01*
X77841380Y-52312424D01*
X77967382Y-52442902D01*
X78119159Y-52542222D01*
X78125763Y-52544678D01*
X78125765Y-52544679D01*
X78282558Y-52602990D01*
X78282560Y-52602990D01*
X78289168Y-52605448D01*
X78372995Y-52616633D01*
X78461980Y-52628507D01*
X78461984Y-52628507D01*
X78468961Y-52629438D01*
X78475972Y-52628800D01*
X78475976Y-52628800D01*
X78618459Y-52615832D01*
X78649600Y-52612998D01*
X78656302Y-52610820D01*
X78656304Y-52610820D01*
X78815409Y-52559124D01*
X78815412Y-52559123D01*
X78822108Y-52556947D01*
X78939876Y-52486743D01*
X78971860Y-52467677D01*
X78971862Y-52467676D01*
X78977912Y-52464069D01*
X79109266Y-52338982D01*
X79209643Y-52187902D01*
X79274055Y-52018338D01*
X79275035Y-52011366D01*
X79298748Y-51842639D01*
X79298748Y-51842636D01*
X79299299Y-51838717D01*
X79299616Y-51816000D01*
X79279397Y-51635745D01*
X79275546Y-51624685D01*
X79223746Y-51475937D01*
X79220232Y-51405028D01*
X79255614Y-51343475D01*
X79318656Y-51310823D01*
X79342737Y-51308500D01*
X90711333Y-51308500D01*
X90779454Y-51328502D01*
X90825947Y-51382158D01*
X90836051Y-51452432D01*
X90829735Y-51477592D01*
X90776197Y-51624685D01*
X90753463Y-51804640D01*
X90771163Y-51985160D01*
X90828418Y-52157273D01*
X90832065Y-52163295D01*
X90832066Y-52163297D01*
X90842978Y-52181314D01*
X90922380Y-52312424D01*
X91048382Y-52442902D01*
X91200159Y-52542222D01*
X91206763Y-52544678D01*
X91206765Y-52544679D01*
X91363558Y-52602990D01*
X91363560Y-52602990D01*
X91370168Y-52605448D01*
X91453995Y-52616633D01*
X91542980Y-52628507D01*
X91542984Y-52628507D01*
X91549961Y-52629438D01*
X91556972Y-52628800D01*
X91556976Y-52628800D01*
X91699459Y-52615832D01*
X91730600Y-52612998D01*
X91737302Y-52610820D01*
X91737304Y-52610820D01*
X91896409Y-52559124D01*
X91896412Y-52559123D01*
X91903108Y-52556947D01*
X92020876Y-52486743D01*
X92052860Y-52467677D01*
X92052862Y-52467676D01*
X92058912Y-52464069D01*
X92190266Y-52338982D01*
X92290643Y-52187902D01*
X92355055Y-52018338D01*
X92356035Y-52011366D01*
X92379748Y-51842639D01*
X92379748Y-51842636D01*
X92380299Y-51838717D01*
X92380616Y-51816000D01*
X92360397Y-51635745D01*
X92356546Y-51624685D01*
X92304746Y-51475937D01*
X92301232Y-51405028D01*
X92336614Y-51343475D01*
X92399656Y-51310823D01*
X92423737Y-51308500D01*
X98458333Y-51308500D01*
X98526454Y-51328502D01*
X98572947Y-51382158D01*
X98583051Y-51452432D01*
X98576735Y-51477592D01*
X98523197Y-51624685D01*
X98500463Y-51804640D01*
X98518163Y-51985160D01*
X98575418Y-52157273D01*
X98579065Y-52163295D01*
X98579066Y-52163297D01*
X98589978Y-52181314D01*
X98669380Y-52312424D01*
X98795382Y-52442902D01*
X98947159Y-52542222D01*
X98953763Y-52544678D01*
X98953765Y-52544679D01*
X99110558Y-52602990D01*
X99110560Y-52602990D01*
X99117168Y-52605448D01*
X99200995Y-52616633D01*
X99289980Y-52628507D01*
X99289984Y-52628507D01*
X99296961Y-52629438D01*
X99303972Y-52628800D01*
X99303976Y-52628800D01*
X99446459Y-52615832D01*
X99477600Y-52612998D01*
X99484302Y-52610820D01*
X99484304Y-52610820D01*
X99643409Y-52559124D01*
X99643412Y-52559123D01*
X99650108Y-52556947D01*
X99767876Y-52486743D01*
X99799860Y-52467677D01*
X99799862Y-52467676D01*
X99805912Y-52464069D01*
X99937266Y-52338982D01*
X100037643Y-52187902D01*
X100102055Y-52018338D01*
X100103035Y-52011366D01*
X100126748Y-51842639D01*
X100126748Y-51842636D01*
X100127299Y-51838717D01*
X100127616Y-51816000D01*
X100107397Y-51635745D01*
X100103546Y-51624685D01*
X100051746Y-51475937D01*
X100048232Y-51405028D01*
X100083614Y-51343475D01*
X100146656Y-51310823D01*
X100170737Y-51308500D01*
X116238333Y-51308500D01*
X116306454Y-51328502D01*
X116352947Y-51382158D01*
X116363051Y-51452432D01*
X116356735Y-51477592D01*
X116303197Y-51624685D01*
X116280463Y-51804640D01*
X116298163Y-51985160D01*
X116355418Y-52157273D01*
X116359065Y-52163295D01*
X116359066Y-52163297D01*
X116369978Y-52181314D01*
X116449380Y-52312424D01*
X116575382Y-52442902D01*
X116727159Y-52542222D01*
X116733763Y-52544678D01*
X116733765Y-52544679D01*
X116890558Y-52602990D01*
X116890560Y-52602990D01*
X116897168Y-52605448D01*
X116980995Y-52616633D01*
X117069980Y-52628507D01*
X117069984Y-52628507D01*
X117076961Y-52629438D01*
X117083972Y-52628800D01*
X117083976Y-52628800D01*
X117226459Y-52615832D01*
X117257600Y-52612998D01*
X117264302Y-52610820D01*
X117264304Y-52610820D01*
X117423409Y-52559124D01*
X117423412Y-52559123D01*
X117430108Y-52556947D01*
X117547876Y-52486743D01*
X117579860Y-52467677D01*
X117579862Y-52467676D01*
X117585912Y-52464069D01*
X117717266Y-52338982D01*
X117817643Y-52187902D01*
X117882055Y-52018338D01*
X117883035Y-52011366D01*
X117906748Y-51842639D01*
X117906748Y-51842636D01*
X117907299Y-51838717D01*
X117907616Y-51816000D01*
X117887397Y-51635745D01*
X117883546Y-51624685D01*
X117831746Y-51475937D01*
X117828232Y-51405028D01*
X117863614Y-51343475D01*
X117926656Y-51310823D01*
X117950737Y-51308500D01*
X137574333Y-51308500D01*
X137642454Y-51328502D01*
X137688947Y-51382158D01*
X137699051Y-51452432D01*
X137692735Y-51477592D01*
X137639197Y-51624685D01*
X137616463Y-51804640D01*
X137634163Y-51985160D01*
X137691418Y-52157273D01*
X137695065Y-52163295D01*
X137695066Y-52163297D01*
X137705978Y-52181314D01*
X137785380Y-52312424D01*
X137911382Y-52442902D01*
X138063159Y-52542222D01*
X138069763Y-52544678D01*
X138069765Y-52544679D01*
X138226558Y-52602990D01*
X138226560Y-52602990D01*
X138233168Y-52605448D01*
X138316995Y-52616633D01*
X138405980Y-52628507D01*
X138405984Y-52628507D01*
X138412961Y-52629438D01*
X138419972Y-52628800D01*
X138419976Y-52628800D01*
X138562459Y-52615832D01*
X138593600Y-52612998D01*
X138600302Y-52610820D01*
X138600304Y-52610820D01*
X138759409Y-52559124D01*
X138759412Y-52559123D01*
X138766108Y-52556947D01*
X138883876Y-52486743D01*
X138915860Y-52467677D01*
X138915862Y-52467676D01*
X138921912Y-52464069D01*
X139053266Y-52338982D01*
X139153643Y-52187902D01*
X139218055Y-52018338D01*
X139219035Y-52011366D01*
X139242748Y-51842639D01*
X139242748Y-51842636D01*
X139243299Y-51838717D01*
X139243616Y-51816000D01*
X139223397Y-51635745D01*
X139219546Y-51624685D01*
X139167746Y-51475937D01*
X139164232Y-51405028D01*
X139199614Y-51343475D01*
X139262656Y-51310823D01*
X139286737Y-51308500D01*
X140843500Y-51308500D01*
X140911621Y-51328502D01*
X140958114Y-51382158D01*
X140969500Y-51434500D01*
X140969500Y-58579820D01*
X140949498Y-58647941D01*
X140895842Y-58694434D01*
X140825568Y-58704538D01*
X140801234Y-58698519D01*
X140654428Y-58646244D01*
X140654422Y-58646243D01*
X140647790Y-58643881D01*
X140640802Y-58643048D01*
X140640799Y-58643047D01*
X140517698Y-58628368D01*
X140467680Y-58622404D01*
X140460677Y-58623140D01*
X140460676Y-58623140D01*
X140294288Y-58640628D01*
X140294286Y-58640629D01*
X140287288Y-58641364D01*
X140115579Y-58699818D01*
X140075729Y-58724334D01*
X139967095Y-58791166D01*
X139967092Y-58791168D01*
X139961088Y-58794862D01*
X139956053Y-58799793D01*
X139956050Y-58799795D01*
X139854237Y-58899498D01*
X139831493Y-58921771D01*
X139733235Y-59074238D01*
X139730826Y-59080858D01*
X139730824Y-59080861D01*
X139713995Y-59127098D01*
X139671197Y-59244685D01*
X139648463Y-59424640D01*
X139666163Y-59605160D01*
X139723418Y-59777273D01*
X139727065Y-59783295D01*
X139727066Y-59783297D01*
X139787248Y-59882669D01*
X139817380Y-59932424D01*
X139822269Y-59937487D01*
X139822270Y-59937488D01*
X139895844Y-60013675D01*
X139943382Y-60062902D01*
X140095159Y-60162222D01*
X140101763Y-60164678D01*
X140101765Y-60164679D01*
X140258558Y-60222990D01*
X140258560Y-60222990D01*
X140265168Y-60225448D01*
X140348995Y-60236633D01*
X140437980Y-60248507D01*
X140437984Y-60248507D01*
X140444961Y-60249438D01*
X140451972Y-60248800D01*
X140451976Y-60248800D01*
X140594459Y-60235832D01*
X140625600Y-60232998D01*
X140632302Y-60230820D01*
X140632304Y-60230820D01*
X140730488Y-60198918D01*
X140798108Y-60176947D01*
X140798487Y-60178113D01*
X140861741Y-60169178D01*
X140926249Y-60198832D01*
X140964484Y-60258653D01*
X140969500Y-60293851D01*
X140969500Y-67215820D01*
X140949498Y-67283941D01*
X140895842Y-67330434D01*
X140825568Y-67340538D01*
X140801234Y-67334519D01*
X140654428Y-67282244D01*
X140654422Y-67282243D01*
X140647790Y-67279881D01*
X140640802Y-67279048D01*
X140640799Y-67279047D01*
X140496092Y-67261792D01*
X140467680Y-67258404D01*
X140460677Y-67259140D01*
X140460676Y-67259140D01*
X140294288Y-67276628D01*
X140294286Y-67276629D01*
X140287288Y-67277364D01*
X140115579Y-67335818D01*
X140088793Y-67352297D01*
X139967095Y-67427166D01*
X139967092Y-67427168D01*
X139961088Y-67430862D01*
X139956053Y-67435793D01*
X139956050Y-67435795D01*
X139886309Y-67504091D01*
X139831493Y-67557771D01*
X139733235Y-67710238D01*
X139730826Y-67716858D01*
X139730824Y-67716861D01*
X139676235Y-67866844D01*
X139671197Y-67880685D01*
X139648463Y-68060640D01*
X139666163Y-68241160D01*
X139723418Y-68413273D01*
X139727065Y-68419295D01*
X139727066Y-68419297D01*
X139805222Y-68548348D01*
X139817380Y-68568424D01*
X139943382Y-68698902D01*
X139950826Y-68703773D01*
X140079586Y-68788031D01*
X140095159Y-68798222D01*
X140101763Y-68800678D01*
X140101765Y-68800679D01*
X140258558Y-68858990D01*
X140258560Y-68858990D01*
X140265168Y-68861448D01*
X140348995Y-68872633D01*
X140437980Y-68884507D01*
X140437984Y-68884507D01*
X140444961Y-68885438D01*
X140451972Y-68884800D01*
X140451976Y-68884800D01*
X140594459Y-68871832D01*
X140625600Y-68868998D01*
X140632302Y-68866820D01*
X140632304Y-68866820D01*
X140730488Y-68834918D01*
X140798108Y-68812947D01*
X140798487Y-68814113D01*
X140861741Y-68805178D01*
X140926249Y-68834832D01*
X140964484Y-68894653D01*
X140969500Y-68929851D01*
X140969500Y-80010500D01*
X140949498Y-80078621D01*
X140895842Y-80125114D01*
X140843500Y-80136500D01*
X139792782Y-80136500D01*
X139724661Y-80116498D01*
X139678168Y-80062842D01*
X139668064Y-79992568D01*
X139674994Y-79965756D01*
X139723555Y-79837920D01*
X139723556Y-79837918D01*
X139726055Y-79831338D01*
X139727035Y-79824366D01*
X139750748Y-79655639D01*
X139750748Y-79655636D01*
X139751299Y-79651717D01*
X139751616Y-79629000D01*
X139731397Y-79448745D01*
X139729080Y-79442091D01*
X139674064Y-79284106D01*
X139674062Y-79284103D01*
X139671745Y-79277448D01*
X139575626Y-79123624D01*
X139561941Y-79109843D01*
X139452778Y-78999915D01*
X139452774Y-78999912D01*
X139447815Y-78994918D01*
X139436697Y-78987862D01*
X139388538Y-78957300D01*
X139294666Y-78897727D01*
X139265463Y-78887328D01*
X139130425Y-78839243D01*
X139130420Y-78839242D01*
X139123790Y-78836881D01*
X139116802Y-78836048D01*
X139116799Y-78836047D01*
X138993698Y-78821368D01*
X138943680Y-78815404D01*
X138936677Y-78816140D01*
X138936676Y-78816140D01*
X138770288Y-78833628D01*
X138770286Y-78833629D01*
X138763288Y-78834364D01*
X138591579Y-78892818D01*
X138585575Y-78896512D01*
X138443095Y-78984166D01*
X138443092Y-78984168D01*
X138437088Y-78987862D01*
X138432053Y-78992793D01*
X138432050Y-78992795D01*
X138312525Y-79109843D01*
X138307493Y-79114771D01*
X138209235Y-79267238D01*
X138206826Y-79273858D01*
X138206824Y-79273861D01*
X138149606Y-79431066D01*
X138147197Y-79437685D01*
X138124463Y-79617640D01*
X138142163Y-79798160D01*
X138150881Y-79824366D01*
X138199418Y-79970273D01*
X138196477Y-79971251D01*
X138204858Y-80027932D01*
X138175624Y-80092630D01*
X138116053Y-80131253D01*
X138080070Y-80136500D01*
X110582782Y-80136500D01*
X110514661Y-80116498D01*
X110468168Y-80062842D01*
X110458064Y-79992568D01*
X110464994Y-79965756D01*
X110513555Y-79837920D01*
X110513556Y-79837918D01*
X110516055Y-79831338D01*
X110517035Y-79824366D01*
X110540748Y-79655639D01*
X110540748Y-79655636D01*
X110541299Y-79651717D01*
X110541616Y-79629000D01*
X110521397Y-79448745D01*
X110519080Y-79442091D01*
X110464064Y-79284106D01*
X110464062Y-79284103D01*
X110461745Y-79277448D01*
X110365626Y-79123624D01*
X110351941Y-79109843D01*
X110242778Y-78999915D01*
X110242774Y-78999912D01*
X110237815Y-78994918D01*
X110226697Y-78987862D01*
X110178538Y-78957300D01*
X110084666Y-78897727D01*
X110055463Y-78887328D01*
X109920425Y-78839243D01*
X109920420Y-78839242D01*
X109913790Y-78836881D01*
X109906802Y-78836048D01*
X109906799Y-78836047D01*
X109783698Y-78821368D01*
X109733680Y-78815404D01*
X109726677Y-78816140D01*
X109726676Y-78816140D01*
X109560288Y-78833628D01*
X109560286Y-78833629D01*
X109553288Y-78834364D01*
X109381579Y-78892818D01*
X109375575Y-78896512D01*
X109233095Y-78984166D01*
X109233092Y-78984168D01*
X109227088Y-78987862D01*
X109222053Y-78992793D01*
X109222050Y-78992795D01*
X109102525Y-79109843D01*
X109097493Y-79114771D01*
X108999235Y-79267238D01*
X108996826Y-79273858D01*
X108996824Y-79273861D01*
X108939606Y-79431066D01*
X108937197Y-79437685D01*
X108914463Y-79617640D01*
X108932163Y-79798160D01*
X108940881Y-79824366D01*
X108989418Y-79970273D01*
X108986477Y-79971251D01*
X108994858Y-80027932D01*
X108965624Y-80092630D01*
X108906053Y-80131253D01*
X108870070Y-80136500D01*
X96231782Y-80136500D01*
X96163661Y-80116498D01*
X96117168Y-80062842D01*
X96107064Y-79992568D01*
X96113994Y-79965756D01*
X96162555Y-79837920D01*
X96162556Y-79837918D01*
X96165055Y-79831338D01*
X96166035Y-79824366D01*
X96189748Y-79655639D01*
X96189748Y-79655636D01*
X96190299Y-79651717D01*
X96190616Y-79629000D01*
X96170397Y-79448745D01*
X96168080Y-79442091D01*
X96113064Y-79284106D01*
X96113062Y-79284103D01*
X96110745Y-79277448D01*
X96014626Y-79123624D01*
X96000941Y-79109843D01*
X95891778Y-78999915D01*
X95891774Y-78999912D01*
X95886815Y-78994918D01*
X95875697Y-78987862D01*
X95827538Y-78957300D01*
X95733666Y-78897727D01*
X95704463Y-78887328D01*
X95569425Y-78839243D01*
X95569420Y-78839242D01*
X95562790Y-78836881D01*
X95555802Y-78836048D01*
X95555799Y-78836047D01*
X95432698Y-78821368D01*
X95382680Y-78815404D01*
X95375677Y-78816140D01*
X95375676Y-78816140D01*
X95209288Y-78833628D01*
X95209286Y-78833629D01*
X95202288Y-78834364D01*
X95030579Y-78892818D01*
X95024575Y-78896512D01*
X94882095Y-78984166D01*
X94882092Y-78984168D01*
X94876088Y-78987862D01*
X94871053Y-78992793D01*
X94871050Y-78992795D01*
X94751525Y-79109843D01*
X94746493Y-79114771D01*
X94648235Y-79267238D01*
X94645826Y-79273858D01*
X94645824Y-79273861D01*
X94588606Y-79431066D01*
X94586197Y-79437685D01*
X94563463Y-79617640D01*
X94581163Y-79798160D01*
X94589881Y-79824366D01*
X94638418Y-79970273D01*
X94635477Y-79971251D01*
X94643858Y-80027932D01*
X94614624Y-80092630D01*
X94555053Y-80131253D01*
X94519070Y-80136500D01*
X77469500Y-80136500D01*
X77401379Y-80116498D01*
X77354886Y-80062842D01*
X77343500Y-80010500D01*
X77343500Y-77694134D01*
X77674500Y-77694134D01*
X77681255Y-77756316D01*
X77732385Y-77892705D01*
X77819739Y-78009261D01*
X77936295Y-78096615D01*
X78072684Y-78147745D01*
X78134866Y-78154500D01*
X81631134Y-78154500D01*
X81693316Y-78147745D01*
X81829705Y-78096615D01*
X81946261Y-78009261D01*
X82033615Y-77892705D01*
X82084745Y-77756316D01*
X82091500Y-77694134D01*
X82091500Y-77098134D01*
X84112500Y-77098134D01*
X84119255Y-77160316D01*
X84170385Y-77296705D01*
X84257739Y-77413261D01*
X84374295Y-77500615D01*
X84510684Y-77551745D01*
X84572866Y-77558500D01*
X86369134Y-77558500D01*
X86431316Y-77551745D01*
X86567705Y-77500615D01*
X86684261Y-77413261D01*
X86771615Y-77296705D01*
X86808751Y-77197646D01*
X86815598Y-77179382D01*
X86858240Y-77122618D01*
X86924802Y-77097918D01*
X86994150Y-77113126D01*
X87028817Y-77141114D01*
X87057250Y-77173938D01*
X87229126Y-77316632D01*
X87422000Y-77429338D01*
X87630692Y-77509030D01*
X87635760Y-77510061D01*
X87635763Y-77510062D01*
X87743017Y-77531883D01*
X87849597Y-77553567D01*
X87854772Y-77553757D01*
X87854774Y-77553757D01*
X88067673Y-77561564D01*
X88067677Y-77561564D01*
X88072837Y-77561753D01*
X88077957Y-77561097D01*
X88077959Y-77561097D01*
X88289288Y-77534025D01*
X88289289Y-77534025D01*
X88294416Y-77533368D01*
X88342827Y-77518844D01*
X88503429Y-77470661D01*
X88503434Y-77470659D01*
X88508384Y-77469174D01*
X88708994Y-77370896D01*
X88890860Y-77241173D01*
X88920484Y-77211653D01*
X89034616Y-77097918D01*
X89049096Y-77083489D01*
X89150465Y-76942419D01*
X89176435Y-76906277D01*
X89179453Y-76902077D01*
X89183108Y-76894683D01*
X89276136Y-76706453D01*
X89276137Y-76706451D01*
X89278430Y-76701811D01*
X89330588Y-76530140D01*
X89341865Y-76493023D01*
X89341865Y-76493021D01*
X89343370Y-76488069D01*
X89372529Y-76266590D01*
X89373790Y-76214982D01*
X89374074Y-76203365D01*
X89374074Y-76203361D01*
X89374156Y-76200000D01*
X89355852Y-75977361D01*
X89301431Y-75760702D01*
X89212354Y-75555840D01*
X89130881Y-75429902D01*
X89093822Y-75372617D01*
X89093820Y-75372614D01*
X89091014Y-75368277D01*
X88940670Y-75203051D01*
X88936619Y-75199852D01*
X88936615Y-75199848D01*
X88769414Y-75067800D01*
X88769410Y-75067798D01*
X88765359Y-75064598D01*
X88569789Y-74956638D01*
X88564920Y-74954914D01*
X88564916Y-74954912D01*
X88364087Y-74883795D01*
X88364083Y-74883794D01*
X88359212Y-74882069D01*
X88354119Y-74881162D01*
X88354116Y-74881161D01*
X88144373Y-74843800D01*
X88144367Y-74843799D01*
X88139284Y-74842894D01*
X88065452Y-74841992D01*
X87921081Y-74840228D01*
X87921079Y-74840228D01*
X87915911Y-74840165D01*
X87695091Y-74873955D01*
X87482756Y-74943357D01*
X87284607Y-75046507D01*
X87280474Y-75049610D01*
X87280471Y-75049612D01*
X87146371Y-75150297D01*
X87105965Y-75180635D01*
X87026688Y-75263594D01*
X87025283Y-75265064D01*
X86963759Y-75300494D01*
X86892846Y-75297037D01*
X86835060Y-75255791D01*
X86816207Y-75222243D01*
X86774767Y-75111703D01*
X86771615Y-75103295D01*
X86684261Y-74986739D01*
X86567705Y-74899385D01*
X86431316Y-74848255D01*
X86369134Y-74841500D01*
X84572866Y-74841500D01*
X84510684Y-74848255D01*
X84374295Y-74899385D01*
X84257739Y-74986739D01*
X84170385Y-75103295D01*
X84119255Y-75239684D01*
X84112500Y-75301866D01*
X84112500Y-77098134D01*
X82091500Y-77098134D01*
X82091500Y-74533424D01*
X82111502Y-74465303D01*
X82165158Y-74418810D01*
X82235432Y-74408706D01*
X82261420Y-74415327D01*
X82346558Y-74446990D01*
X82346560Y-74446990D01*
X82353168Y-74449448D01*
X82436995Y-74460633D01*
X82525980Y-74472507D01*
X82525984Y-74472507D01*
X82532961Y-74473438D01*
X82539972Y-74472800D01*
X82539976Y-74472800D01*
X82701491Y-74458100D01*
X82713600Y-74456998D01*
X82720302Y-74454820D01*
X82720304Y-74454820D01*
X82879409Y-74403124D01*
X82879412Y-74403123D01*
X82886108Y-74400947D01*
X82982513Y-74343478D01*
X83035860Y-74311677D01*
X83035862Y-74311676D01*
X83041912Y-74308069D01*
X83173266Y-74182982D01*
X83273643Y-74031902D01*
X83328682Y-73887013D01*
X83335555Y-73868920D01*
X83335556Y-73868918D01*
X83338055Y-73862338D01*
X83343569Y-73823106D01*
X83362748Y-73686639D01*
X83362748Y-73686636D01*
X83363299Y-73682717D01*
X83363616Y-73660000D01*
X83343397Y-73479745D01*
X83339546Y-73468685D01*
X83300005Y-73355140D01*
X83283745Y-73308448D01*
X83268145Y-73283482D01*
X83249000Y-73216714D01*
X83249000Y-72251640D01*
X91261463Y-72251640D01*
X91279163Y-72432160D01*
X91336418Y-72604273D01*
X91340065Y-72610295D01*
X91340066Y-72610297D01*
X91422720Y-72746775D01*
X91430380Y-72759424D01*
X91435269Y-72764487D01*
X91435270Y-72764488D01*
X91483949Y-72814896D01*
X91556382Y-72889902D01*
X91568757Y-72898000D01*
X91683987Y-72973404D01*
X91708159Y-72989222D01*
X91714763Y-72991678D01*
X91714765Y-72991679D01*
X91871558Y-73049990D01*
X91871560Y-73049990D01*
X91878168Y-73052448D01*
X91961995Y-73063633D01*
X92050980Y-73075507D01*
X92050984Y-73075507D01*
X92057961Y-73076438D01*
X92064972Y-73075800D01*
X92064976Y-73075800D01*
X92207459Y-73062832D01*
X92238600Y-73059998D01*
X92245302Y-73057820D01*
X92245304Y-73057820D01*
X92404409Y-73006124D01*
X92404412Y-73006123D01*
X92411108Y-73003947D01*
X92544148Y-72924639D01*
X92560860Y-72914677D01*
X92560862Y-72914676D01*
X92566912Y-72911069D01*
X92698266Y-72785982D01*
X92798643Y-72634902D01*
X92863055Y-72465338D01*
X92864035Y-72458366D01*
X92887748Y-72289639D01*
X92887748Y-72289636D01*
X92888299Y-72285717D01*
X92888452Y-72274738D01*
X92888561Y-72266962D01*
X92888561Y-72266957D01*
X92888616Y-72263000D01*
X92868397Y-72082745D01*
X92866080Y-72076091D01*
X92811064Y-71918106D01*
X92811062Y-71918103D01*
X92808745Y-71911448D01*
X92745768Y-71810663D01*
X92716359Y-71763598D01*
X92712626Y-71757624D01*
X92698941Y-71743843D01*
X92589778Y-71633915D01*
X92589774Y-71633912D01*
X92584815Y-71628918D01*
X92576688Y-71623760D01*
X92515187Y-71584731D01*
X92431666Y-71531727D01*
X92356501Y-71504962D01*
X92267425Y-71473243D01*
X92267420Y-71473242D01*
X92260790Y-71470881D01*
X92253802Y-71470048D01*
X92253799Y-71470047D01*
X92130698Y-71455368D01*
X92080680Y-71449404D01*
X92073677Y-71450140D01*
X92073676Y-71450140D01*
X91907288Y-71467628D01*
X91907286Y-71467629D01*
X91900288Y-71468364D01*
X91728579Y-71526818D01*
X91720600Y-71531727D01*
X91580095Y-71618166D01*
X91580092Y-71618168D01*
X91574088Y-71621862D01*
X91569053Y-71626793D01*
X91569050Y-71626795D01*
X91452882Y-71740556D01*
X91444493Y-71748771D01*
X91346235Y-71901238D01*
X91343826Y-71907858D01*
X91343824Y-71907861D01*
X91299791Y-72028841D01*
X91284197Y-72071685D01*
X91261463Y-72251640D01*
X83249000Y-72251640D01*
X83249000Y-69147159D01*
X83269002Y-69079038D01*
X83322658Y-69032545D01*
X83392932Y-69022441D01*
X83457512Y-69051935D01*
X83482776Y-69081888D01*
X83548720Y-69190775D01*
X83556380Y-69203424D01*
X83561269Y-69208487D01*
X83561270Y-69208488D01*
X83630204Y-69279870D01*
X83682382Y-69333902D01*
X83834159Y-69433222D01*
X83840763Y-69435678D01*
X83840765Y-69435679D01*
X83997558Y-69493990D01*
X83997560Y-69493990D01*
X84004168Y-69496448D01*
X84087995Y-69507633D01*
X84176980Y-69519507D01*
X84176984Y-69519507D01*
X84183961Y-69520438D01*
X84190972Y-69519800D01*
X84190976Y-69519800D01*
X84333459Y-69506832D01*
X84364600Y-69503998D01*
X84371302Y-69501820D01*
X84371304Y-69501820D01*
X84530409Y-69450124D01*
X84530412Y-69450123D01*
X84537108Y-69447947D01*
X84676471Y-69364870D01*
X84686860Y-69358677D01*
X84686862Y-69358676D01*
X84692912Y-69355069D01*
X84748118Y-69302497D01*
X84811243Y-69270005D01*
X84881914Y-69276798D01*
X84925643Y-69306214D01*
X84952382Y-69333902D01*
X85104159Y-69433222D01*
X85110763Y-69435678D01*
X85110765Y-69435679D01*
X85267558Y-69493990D01*
X85267560Y-69493990D01*
X85274168Y-69496448D01*
X85357995Y-69507633D01*
X85446980Y-69519507D01*
X85446984Y-69519507D01*
X85453961Y-69520438D01*
X85460972Y-69519800D01*
X85460976Y-69519800D01*
X85603459Y-69506832D01*
X85634600Y-69503998D01*
X85641302Y-69501820D01*
X85641304Y-69501820D01*
X85800409Y-69450124D01*
X85800412Y-69450123D01*
X85807108Y-69447947D01*
X85946471Y-69364870D01*
X85956860Y-69358677D01*
X85956862Y-69358676D01*
X85962912Y-69355069D01*
X86018118Y-69302497D01*
X86081243Y-69270005D01*
X86151914Y-69276798D01*
X86195643Y-69306214D01*
X86222382Y-69333902D01*
X86374159Y-69433222D01*
X86380763Y-69435678D01*
X86380765Y-69435679D01*
X86537558Y-69493990D01*
X86537560Y-69493990D01*
X86544168Y-69496448D01*
X86627995Y-69507633D01*
X86716980Y-69519507D01*
X86716984Y-69519507D01*
X86723961Y-69520438D01*
X86730972Y-69519800D01*
X86730976Y-69519800D01*
X86873459Y-69506832D01*
X86904600Y-69503998D01*
X86911302Y-69501820D01*
X86911304Y-69501820D01*
X87070409Y-69450124D01*
X87070412Y-69450123D01*
X87077108Y-69447947D01*
X87216471Y-69364870D01*
X87226860Y-69358677D01*
X87226862Y-69358676D01*
X87232912Y-69355069D01*
X87288118Y-69302497D01*
X87351243Y-69270005D01*
X87421914Y-69276798D01*
X87465643Y-69306214D01*
X87492382Y-69333902D01*
X87644159Y-69433222D01*
X87650763Y-69435678D01*
X87650765Y-69435679D01*
X87807558Y-69493990D01*
X87807560Y-69493990D01*
X87814168Y-69496448D01*
X87897995Y-69507633D01*
X87986980Y-69519507D01*
X87986984Y-69519507D01*
X87993961Y-69520438D01*
X88000972Y-69519800D01*
X88000976Y-69519800D01*
X88143459Y-69506832D01*
X88174600Y-69503998D01*
X88181302Y-69501820D01*
X88181304Y-69501820D01*
X88340409Y-69450124D01*
X88340412Y-69450123D01*
X88347108Y-69447947D01*
X88486471Y-69364870D01*
X88496860Y-69358677D01*
X88496862Y-69358676D01*
X88502912Y-69355069D01*
X88634266Y-69229982D01*
X88642521Y-69217558D01*
X88732153Y-69082650D01*
X88786510Y-69036979D01*
X88856930Y-69027947D01*
X88901907Y-69045325D01*
X88901976Y-69045188D01*
X88903356Y-69045885D01*
X88906089Y-69046941D01*
X88914159Y-69052222D01*
X88920763Y-69054678D01*
X88920765Y-69054679D01*
X89077558Y-69112990D01*
X89077560Y-69112990D01*
X89084168Y-69115448D01*
X89167995Y-69126633D01*
X89256980Y-69138507D01*
X89256984Y-69138507D01*
X89263961Y-69139438D01*
X89270972Y-69138800D01*
X89270976Y-69138800D01*
X89413459Y-69125832D01*
X89444600Y-69122998D01*
X89451302Y-69120820D01*
X89451304Y-69120820D01*
X89610409Y-69069124D01*
X89610412Y-69069123D01*
X89617108Y-69066947D01*
X89751373Y-68986909D01*
X89766860Y-68977677D01*
X89766862Y-68977676D01*
X89772912Y-68974069D01*
X89904266Y-68848982D01*
X90004643Y-68697902D01*
X90069055Y-68528338D01*
X90071764Y-68509063D01*
X90093748Y-68352639D01*
X90093748Y-68352636D01*
X90094299Y-68348717D01*
X90094467Y-68336658D01*
X90094561Y-68329962D01*
X90094561Y-68329957D01*
X90094616Y-68326000D01*
X90074397Y-68145745D01*
X90069316Y-68131153D01*
X90017064Y-67981106D01*
X90017062Y-67981103D01*
X90014745Y-67974448D01*
X89999569Y-67950162D01*
X89980435Y-67881794D01*
X89998972Y-67821780D01*
X89997524Y-67821036D01*
X90000745Y-67814770D01*
X90004643Y-67808902D01*
X90011880Y-67789851D01*
X90066555Y-67645920D01*
X90066556Y-67645918D01*
X90069055Y-67639338D01*
X90072287Y-67616343D01*
X90093748Y-67463639D01*
X90093748Y-67463636D01*
X90094299Y-67459717D01*
X90094616Y-67437000D01*
X90074767Y-67260044D01*
X90087051Y-67190119D01*
X90135190Y-67137935D01*
X90199982Y-67120000D01*
X90653775Y-67120000D01*
X90721896Y-67140002D01*
X90742870Y-67156905D01*
X91275595Y-67689630D01*
X91309621Y-67751942D01*
X91312500Y-67778725D01*
X91312500Y-69503901D01*
X91312208Y-69512471D01*
X91308330Y-69569352D01*
X91309635Y-69576828D01*
X91309635Y-69576832D01*
X91319163Y-69631424D01*
X91320126Y-69637949D01*
X91326350Y-69689375D01*
X91327691Y-69700460D01*
X91330375Y-69707562D01*
X91331219Y-69711000D01*
X91335083Y-69725123D01*
X91336113Y-69728534D01*
X91337419Y-69736017D01*
X91340472Y-69742972D01*
X91362739Y-69793698D01*
X91365230Y-69799804D01*
X91387494Y-69858722D01*
X91391793Y-69864977D01*
X91393435Y-69868118D01*
X91400533Y-69880872D01*
X91402370Y-69883978D01*
X91405423Y-69890933D01*
X91410048Y-69896960D01*
X91410050Y-69896964D01*
X91443765Y-69940902D01*
X91447629Y-69946220D01*
X91483321Y-69998152D01*
X91488991Y-70003204D01*
X91488992Y-70003205D01*
X91529188Y-70039018D01*
X91534464Y-70043999D01*
X93084503Y-71594038D01*
X93090356Y-71600303D01*
X93127842Y-71643274D01*
X93163112Y-71668062D01*
X93179378Y-71679494D01*
X93184674Y-71683427D01*
X93228263Y-71717606D01*
X93228266Y-71717608D01*
X93234240Y-71722292D01*
X93241164Y-71725418D01*
X93244199Y-71727256D01*
X93256898Y-71734500D01*
X93260046Y-71736188D01*
X93266261Y-71740556D01*
X93324950Y-71763438D01*
X93330995Y-71765978D01*
X93388435Y-71791913D01*
X93395908Y-71793298D01*
X93399326Y-71794369D01*
X93413315Y-71798354D01*
X93416807Y-71799251D01*
X93423889Y-71802012D01*
X93431422Y-71803004D01*
X93431423Y-71803004D01*
X93486330Y-71810233D01*
X93492843Y-71811265D01*
X93547318Y-71821361D01*
X93547320Y-71821361D01*
X93554787Y-71822745D01*
X93562367Y-71822308D01*
X93562368Y-71822308D01*
X93616112Y-71819209D01*
X93623365Y-71819000D01*
X96012500Y-71819000D01*
X96080621Y-71839002D01*
X96127114Y-71892658D01*
X96138500Y-71945000D01*
X96138500Y-72746775D01*
X96118498Y-72814896D01*
X96101595Y-72835870D01*
X95347462Y-73590003D01*
X95341197Y-73595856D01*
X95298226Y-73633342D01*
X95277646Y-73662624D01*
X95262006Y-73684878D01*
X95258073Y-73690174D01*
X95223894Y-73733763D01*
X95223892Y-73733766D01*
X95219208Y-73739740D01*
X95216082Y-73746664D01*
X95214244Y-73749699D01*
X95207000Y-73762398D01*
X95205312Y-73765546D01*
X95200944Y-73771761D01*
X95183522Y-73816448D01*
X95178067Y-73830439D01*
X95175522Y-73836495D01*
X95149587Y-73893935D01*
X95148202Y-73901408D01*
X95147131Y-73904826D01*
X95143146Y-73918815D01*
X95142249Y-73922307D01*
X95139488Y-73929389D01*
X95138496Y-73936922D01*
X95138496Y-73936923D01*
X95131267Y-73991830D01*
X95130235Y-73998343D01*
X95120139Y-74052818D01*
X95118755Y-74060287D01*
X95119192Y-74067867D01*
X95119192Y-74067868D01*
X95122291Y-74121612D01*
X95122500Y-74128865D01*
X95122500Y-76770969D01*
X95102412Y-76839223D01*
X95092735Y-76854238D01*
X95090326Y-76860858D01*
X95090324Y-76860861D01*
X95044100Y-76987861D01*
X95030697Y-77024685D01*
X95007963Y-77204640D01*
X95025663Y-77385160D01*
X95082918Y-77557273D01*
X95086565Y-77563295D01*
X95086566Y-77563297D01*
X95168334Y-77698312D01*
X95176880Y-77712424D01*
X95181769Y-77717487D01*
X95181770Y-77717488D01*
X95211680Y-77748460D01*
X95302882Y-77842902D01*
X95334269Y-77863441D01*
X95417438Y-77917865D01*
X95454659Y-77942222D01*
X95461263Y-77944678D01*
X95461265Y-77944679D01*
X95618058Y-78002990D01*
X95618060Y-78002990D01*
X95624668Y-78005448D01*
X95708495Y-78016633D01*
X95797480Y-78028507D01*
X95797484Y-78028507D01*
X95804461Y-78029438D01*
X95811472Y-78028800D01*
X95811476Y-78028800D01*
X95967036Y-78014642D01*
X95985100Y-78012998D01*
X95991802Y-78010820D01*
X95991804Y-78010820D01*
X96150909Y-77959124D01*
X96150912Y-77959123D01*
X96157608Y-77956947D01*
X96182310Y-77942222D01*
X96198164Y-77932771D01*
X96262681Y-77915000D01*
X110461401Y-77915000D01*
X110469971Y-77915292D01*
X110519277Y-77918654D01*
X110519281Y-77918654D01*
X110526852Y-77919170D01*
X110534328Y-77917865D01*
X110534332Y-77917865D01*
X110588924Y-77908337D01*
X110595449Y-77907374D01*
X110650418Y-77900722D01*
X110650420Y-77900721D01*
X110657960Y-77899809D01*
X110665062Y-77897125D01*
X110668500Y-77896281D01*
X110682623Y-77892417D01*
X110686034Y-77891387D01*
X110693517Y-77890081D01*
X110751197Y-77864761D01*
X110757304Y-77862270D01*
X110809117Y-77842691D01*
X110809118Y-77842690D01*
X110816222Y-77840006D01*
X110822477Y-77835707D01*
X110825618Y-77834065D01*
X110838372Y-77826967D01*
X110841478Y-77825130D01*
X110848433Y-77822077D01*
X110854460Y-77817452D01*
X110854464Y-77817450D01*
X110898402Y-77783735D01*
X110903720Y-77779871D01*
X110955652Y-77744179D01*
X110996519Y-77698311D01*
X111001499Y-77693036D01*
X111362895Y-77331640D01*
X113232463Y-77331640D01*
X113250163Y-77512160D01*
X113307418Y-77684273D01*
X113311065Y-77690295D01*
X113311066Y-77690297D01*
X113397731Y-77833398D01*
X113401380Y-77839424D01*
X113406269Y-77844487D01*
X113406270Y-77844488D01*
X113459773Y-77899891D01*
X113527382Y-77969902D01*
X113679159Y-78069222D01*
X113685763Y-78071678D01*
X113685765Y-78071679D01*
X113842558Y-78129990D01*
X113842560Y-78129990D01*
X113849168Y-78132448D01*
X113932995Y-78143633D01*
X114021980Y-78155507D01*
X114021984Y-78155507D01*
X114028961Y-78156438D01*
X114035972Y-78155800D01*
X114035976Y-78155800D01*
X114178459Y-78142832D01*
X114209600Y-78139998D01*
X114216302Y-78137820D01*
X114216304Y-78137820D01*
X114375409Y-78086124D01*
X114375412Y-78086123D01*
X114382108Y-78083947D01*
X114501126Y-78012998D01*
X114531860Y-77994677D01*
X114531862Y-77994676D01*
X114537912Y-77991069D01*
X114669266Y-77865982D01*
X114769643Y-77714902D01*
X114827233Y-77563297D01*
X114831555Y-77551920D01*
X114831556Y-77551918D01*
X114834055Y-77545338D01*
X114835946Y-77531883D01*
X114858748Y-77369639D01*
X114858748Y-77369636D01*
X114859299Y-77365717D01*
X114859616Y-77343000D01*
X114858342Y-77331640D01*
X115518463Y-77331640D01*
X115536163Y-77512160D01*
X115593418Y-77684273D01*
X115597065Y-77690295D01*
X115597066Y-77690297D01*
X115683731Y-77833398D01*
X115687380Y-77839424D01*
X115692269Y-77844487D01*
X115692270Y-77844488D01*
X115745773Y-77899891D01*
X115813382Y-77969902D01*
X115965159Y-78069222D01*
X115971763Y-78071678D01*
X115971765Y-78071679D01*
X116128558Y-78129990D01*
X116128560Y-78129990D01*
X116135168Y-78132448D01*
X116218995Y-78143633D01*
X116307980Y-78155507D01*
X116307984Y-78155507D01*
X116314961Y-78156438D01*
X116321972Y-78155800D01*
X116321976Y-78155800D01*
X116464459Y-78142832D01*
X116495600Y-78139998D01*
X116502302Y-78137820D01*
X116502304Y-78137820D01*
X116661409Y-78086124D01*
X116661412Y-78086123D01*
X116668108Y-78083947D01*
X116787126Y-78012998D01*
X116817860Y-77994677D01*
X116817862Y-77994676D01*
X116823912Y-77991069D01*
X116955266Y-77865982D01*
X116970601Y-77842902D01*
X116987791Y-77817028D01*
X117042149Y-77771357D01*
X117112568Y-77762325D01*
X117176692Y-77792798D01*
X117200514Y-77821483D01*
X117207730Y-77833398D01*
X117207733Y-77833401D01*
X117211380Y-77839424D01*
X117216269Y-77844487D01*
X117216270Y-77844488D01*
X117269773Y-77899891D01*
X117337382Y-77969902D01*
X117489159Y-78069222D01*
X117495763Y-78071678D01*
X117495765Y-78071679D01*
X117652558Y-78129990D01*
X117652560Y-78129990D01*
X117659168Y-78132448D01*
X117742995Y-78143633D01*
X117831980Y-78155507D01*
X117831984Y-78155507D01*
X117838961Y-78156438D01*
X117845972Y-78155800D01*
X117845976Y-78155800D01*
X117988459Y-78142832D01*
X118019600Y-78139998D01*
X118026302Y-78137820D01*
X118026304Y-78137820D01*
X118185409Y-78086124D01*
X118185412Y-78086123D01*
X118192108Y-78083947D01*
X118311126Y-78012998D01*
X118341860Y-77994677D01*
X118341862Y-77994676D01*
X118347912Y-77991069D01*
X118479266Y-77865982D01*
X118579643Y-77714902D01*
X118637233Y-77563297D01*
X118641555Y-77551920D01*
X118641556Y-77551918D01*
X118644055Y-77545338D01*
X118645946Y-77531883D01*
X118668748Y-77369639D01*
X118668748Y-77369636D01*
X118669299Y-77365717D01*
X118669616Y-77343000D01*
X118649397Y-77162745D01*
X118647080Y-77156091D01*
X118592064Y-76998106D01*
X118592062Y-76998103D01*
X118589745Y-76991448D01*
X118531002Y-76897438D01*
X118497359Y-76843598D01*
X118497357Y-76843595D01*
X118493626Y-76837624D01*
X118427435Y-76770969D01*
X118370778Y-76713915D01*
X118370774Y-76713912D01*
X118365815Y-76708918D01*
X118354697Y-76701862D01*
X118244069Y-76631656D01*
X118212666Y-76611727D01*
X118183463Y-76601328D01*
X118048425Y-76553243D01*
X118048420Y-76553242D01*
X118041790Y-76550881D01*
X118034802Y-76550048D01*
X118034799Y-76550047D01*
X117911698Y-76535368D01*
X117861680Y-76529404D01*
X117854677Y-76530140D01*
X117854676Y-76530140D01*
X117688288Y-76547628D01*
X117688286Y-76547629D01*
X117681288Y-76548364D01*
X117509579Y-76606818D01*
X117503575Y-76610512D01*
X117361095Y-76698166D01*
X117361092Y-76698168D01*
X117355088Y-76701862D01*
X117350053Y-76706793D01*
X117350050Y-76706795D01*
X117230525Y-76823843D01*
X117225493Y-76828771D01*
X117201287Y-76866331D01*
X117200329Y-76867818D01*
X117146615Y-76914243D01*
X117076328Y-76924258D01*
X117011785Y-76894683D01*
X116987567Y-76866335D01*
X116969626Y-76837624D01*
X116903435Y-76770969D01*
X116846778Y-76713915D01*
X116846774Y-76713912D01*
X116841815Y-76708918D01*
X116830697Y-76701862D01*
X116720069Y-76631656D01*
X116688666Y-76611727D01*
X116659463Y-76601328D01*
X116524425Y-76553243D01*
X116524420Y-76553242D01*
X116517790Y-76550881D01*
X116510802Y-76550048D01*
X116510799Y-76550047D01*
X116387698Y-76535368D01*
X116337680Y-76529404D01*
X116330677Y-76530140D01*
X116330676Y-76530140D01*
X116164288Y-76547628D01*
X116164286Y-76547629D01*
X116157288Y-76548364D01*
X115985579Y-76606818D01*
X115979575Y-76610512D01*
X115837095Y-76698166D01*
X115837092Y-76698168D01*
X115831088Y-76701862D01*
X115826053Y-76706793D01*
X115826050Y-76706795D01*
X115706525Y-76823843D01*
X115701493Y-76828771D01*
X115603235Y-76981238D01*
X115600826Y-76987858D01*
X115600824Y-76987861D01*
X115545044Y-77141115D01*
X115541197Y-77151685D01*
X115518463Y-77331640D01*
X114858342Y-77331640D01*
X114839397Y-77162745D01*
X114837080Y-77156091D01*
X114782064Y-76998106D01*
X114782062Y-76998103D01*
X114779745Y-76991448D01*
X114721002Y-76897438D01*
X114687359Y-76843598D01*
X114687357Y-76843595D01*
X114683626Y-76837624D01*
X114617435Y-76770969D01*
X114560778Y-76713915D01*
X114560774Y-76713912D01*
X114555815Y-76708918D01*
X114544697Y-76701862D01*
X114434069Y-76631656D01*
X114402666Y-76611727D01*
X114373463Y-76601328D01*
X114238425Y-76553243D01*
X114238420Y-76553242D01*
X114231790Y-76550881D01*
X114224802Y-76550048D01*
X114224799Y-76550047D01*
X114101698Y-76535368D01*
X114051680Y-76529404D01*
X114044677Y-76530140D01*
X114044676Y-76530140D01*
X113878288Y-76547628D01*
X113878286Y-76547629D01*
X113871288Y-76548364D01*
X113699579Y-76606818D01*
X113693575Y-76610512D01*
X113551095Y-76698166D01*
X113551092Y-76698168D01*
X113545088Y-76701862D01*
X113540053Y-76706793D01*
X113540050Y-76706795D01*
X113420525Y-76823843D01*
X113415493Y-76828771D01*
X113317235Y-76981238D01*
X113314826Y-76987858D01*
X113314824Y-76987861D01*
X113259044Y-77141115D01*
X113255197Y-77151685D01*
X113232463Y-77331640D01*
X111362895Y-77331640D01*
X111654539Y-77039996D01*
X111660805Y-77034142D01*
X111698050Y-77001651D01*
X111703775Y-76996657D01*
X111739995Y-76945121D01*
X111743928Y-76939825D01*
X111778107Y-76896236D01*
X111778109Y-76896233D01*
X111782793Y-76890259D01*
X111785919Y-76883335D01*
X111787757Y-76880300D01*
X111795001Y-76867601D01*
X111796689Y-76864453D01*
X111801057Y-76858238D01*
X111823939Y-76799549D01*
X111826479Y-76793504D01*
X111852414Y-76736064D01*
X111853799Y-76728591D01*
X111854870Y-76725173D01*
X111858855Y-76711184D01*
X111859752Y-76707692D01*
X111862513Y-76700610D01*
X111870734Y-76638169D01*
X111871766Y-76631656D01*
X111881862Y-76577181D01*
X111881862Y-76577179D01*
X111883246Y-76569712D01*
X111879710Y-76508386D01*
X111879501Y-76501134D01*
X111879501Y-74138134D01*
X136221500Y-74138134D01*
X136228255Y-74200316D01*
X136279385Y-74336705D01*
X136366739Y-74453261D01*
X136483295Y-74540615D01*
X136619684Y-74591745D01*
X136681866Y-74598500D01*
X140178134Y-74598500D01*
X140240316Y-74591745D01*
X140376705Y-74540615D01*
X140493261Y-74453261D01*
X140580615Y-74336705D01*
X140631745Y-74200316D01*
X140638500Y-74138134D01*
X140638500Y-70641866D01*
X140631745Y-70579684D01*
X140580615Y-70443295D01*
X140493261Y-70326739D01*
X140376705Y-70239385D01*
X140240316Y-70188255D01*
X140178134Y-70181500D01*
X136681866Y-70181500D01*
X136619684Y-70188255D01*
X136483295Y-70239385D01*
X136366739Y-70326739D01*
X136279385Y-70443295D01*
X136228255Y-70579684D01*
X136221500Y-70641866D01*
X136221500Y-74138134D01*
X111879501Y-74138134D01*
X111879501Y-71489640D01*
X113232463Y-71489640D01*
X113250163Y-71670160D01*
X113307418Y-71842273D01*
X113311065Y-71848295D01*
X113311066Y-71848297D01*
X113397731Y-71991398D01*
X113401380Y-71997424D01*
X113406269Y-72002487D01*
X113406270Y-72002488D01*
X113477348Y-72076091D01*
X113527382Y-72127902D01*
X113679159Y-72227222D01*
X113685763Y-72229678D01*
X113685765Y-72229679D01*
X113842558Y-72287990D01*
X113842560Y-72287990D01*
X113849168Y-72290448D01*
X113932995Y-72301633D01*
X114021980Y-72313507D01*
X114021984Y-72313507D01*
X114028961Y-72314438D01*
X114035972Y-72313800D01*
X114035976Y-72313800D01*
X114178459Y-72300832D01*
X114209600Y-72297998D01*
X114216302Y-72295820D01*
X114216304Y-72295820D01*
X114375409Y-72244124D01*
X114375412Y-72244123D01*
X114382108Y-72241947D01*
X114501951Y-72170506D01*
X114531860Y-72152677D01*
X114531862Y-72152676D01*
X114537912Y-72149069D01*
X114669266Y-72023982D01*
X114769643Y-71872902D01*
X114816414Y-71749779D01*
X114831555Y-71709920D01*
X114831556Y-71709918D01*
X114834055Y-71703338D01*
X114837406Y-71679494D01*
X114858748Y-71527639D01*
X114858748Y-71527636D01*
X114859299Y-71523717D01*
X114859616Y-71501000D01*
X114858342Y-71489640D01*
X115518463Y-71489640D01*
X115536163Y-71670160D01*
X115593418Y-71842273D01*
X115597065Y-71848295D01*
X115597066Y-71848297D01*
X115683731Y-71991398D01*
X115687380Y-71997424D01*
X115692269Y-72002487D01*
X115692270Y-72002488D01*
X115763348Y-72076091D01*
X115813382Y-72127902D01*
X115965159Y-72227222D01*
X115971763Y-72229678D01*
X115971765Y-72229679D01*
X116128558Y-72287990D01*
X116128560Y-72287990D01*
X116135168Y-72290448D01*
X116218995Y-72301633D01*
X116307980Y-72313507D01*
X116307984Y-72313507D01*
X116314961Y-72314438D01*
X116321972Y-72313800D01*
X116321976Y-72313800D01*
X116464459Y-72300832D01*
X116495600Y-72297998D01*
X116502302Y-72295820D01*
X116502304Y-72295820D01*
X116661409Y-72244124D01*
X116661412Y-72244123D01*
X116668108Y-72241947D01*
X116787951Y-72170506D01*
X116817860Y-72152677D01*
X116817862Y-72152676D01*
X116823912Y-72149069D01*
X116955266Y-72023982D01*
X116987791Y-71975028D01*
X117042149Y-71929357D01*
X117112568Y-71920325D01*
X117176692Y-71950798D01*
X117200514Y-71979483D01*
X117207730Y-71991398D01*
X117207733Y-71991401D01*
X117211380Y-71997424D01*
X117216269Y-72002487D01*
X117216270Y-72002488D01*
X117287348Y-72076091D01*
X117337382Y-72127902D01*
X117489159Y-72227222D01*
X117495763Y-72229678D01*
X117495765Y-72229679D01*
X117652558Y-72287990D01*
X117652560Y-72287990D01*
X117659168Y-72290448D01*
X117742995Y-72301633D01*
X117831980Y-72313507D01*
X117831984Y-72313507D01*
X117838961Y-72314438D01*
X117845972Y-72313800D01*
X117845976Y-72313800D01*
X117988459Y-72300832D01*
X118019600Y-72297998D01*
X118026302Y-72295820D01*
X118026304Y-72295820D01*
X118185409Y-72244124D01*
X118185412Y-72244123D01*
X118192108Y-72241947D01*
X118311951Y-72170506D01*
X118341860Y-72152677D01*
X118341862Y-72152676D01*
X118347912Y-72149069D01*
X118479266Y-72023982D01*
X118579643Y-71872902D01*
X118626414Y-71749779D01*
X118641555Y-71709920D01*
X118641556Y-71709918D01*
X118644055Y-71703338D01*
X118647406Y-71679494D01*
X118668748Y-71527639D01*
X118668748Y-71527636D01*
X118669299Y-71523717D01*
X118669616Y-71501000D01*
X118649397Y-71320745D01*
X118645630Y-71309928D01*
X118592064Y-71156106D01*
X118592062Y-71156103D01*
X118589745Y-71149448D01*
X118579662Y-71133312D01*
X118497359Y-71001598D01*
X118497357Y-71001595D01*
X118493626Y-70995624D01*
X118487110Y-70989062D01*
X118370778Y-70871915D01*
X118370774Y-70871912D01*
X118365815Y-70866918D01*
X118354697Y-70859862D01*
X118274038Y-70808675D01*
X118212666Y-70769727D01*
X118170547Y-70754729D01*
X118048425Y-70711243D01*
X118048420Y-70711242D01*
X118041790Y-70708881D01*
X118034802Y-70708048D01*
X118034799Y-70708047D01*
X117911698Y-70693368D01*
X117861680Y-70687404D01*
X117854677Y-70688140D01*
X117854676Y-70688140D01*
X117688288Y-70705628D01*
X117688286Y-70705629D01*
X117681288Y-70706364D01*
X117509579Y-70764818D01*
X117493619Y-70774637D01*
X117361095Y-70856166D01*
X117361092Y-70856168D01*
X117355088Y-70859862D01*
X117350053Y-70864793D01*
X117350050Y-70864795D01*
X117230525Y-70981843D01*
X117225493Y-70986771D01*
X117215940Y-71001595D01*
X117200329Y-71025818D01*
X117146615Y-71072243D01*
X117076328Y-71082258D01*
X117011785Y-71052683D01*
X116987567Y-71024335D01*
X116969626Y-70995624D01*
X116963110Y-70989062D01*
X116846778Y-70871915D01*
X116846774Y-70871912D01*
X116841815Y-70866918D01*
X116830697Y-70859862D01*
X116750038Y-70808675D01*
X116688666Y-70769727D01*
X116646547Y-70754729D01*
X116524425Y-70711243D01*
X116524420Y-70711242D01*
X116517790Y-70708881D01*
X116510802Y-70708048D01*
X116510799Y-70708047D01*
X116387698Y-70693368D01*
X116337680Y-70687404D01*
X116330677Y-70688140D01*
X116330676Y-70688140D01*
X116164288Y-70705628D01*
X116164286Y-70705629D01*
X116157288Y-70706364D01*
X115985579Y-70764818D01*
X115969619Y-70774637D01*
X115837095Y-70856166D01*
X115837092Y-70856168D01*
X115831088Y-70859862D01*
X115826053Y-70864793D01*
X115826050Y-70864795D01*
X115706525Y-70981843D01*
X115701493Y-70986771D01*
X115603235Y-71139238D01*
X115600826Y-71145858D01*
X115600824Y-71145861D01*
X115564078Y-71246819D01*
X115541197Y-71309685D01*
X115518463Y-71489640D01*
X114858342Y-71489640D01*
X114839397Y-71320745D01*
X114835630Y-71309928D01*
X114782064Y-71156106D01*
X114782062Y-71156103D01*
X114779745Y-71149448D01*
X114769662Y-71133312D01*
X114687359Y-71001598D01*
X114687357Y-71001595D01*
X114683626Y-70995624D01*
X114677110Y-70989062D01*
X114560778Y-70871915D01*
X114560774Y-70871912D01*
X114555815Y-70866918D01*
X114544697Y-70859862D01*
X114464038Y-70808675D01*
X114402666Y-70769727D01*
X114360547Y-70754729D01*
X114238425Y-70711243D01*
X114238420Y-70711242D01*
X114231790Y-70708881D01*
X114224802Y-70708048D01*
X114224799Y-70708047D01*
X114101698Y-70693368D01*
X114051680Y-70687404D01*
X114044677Y-70688140D01*
X114044676Y-70688140D01*
X113878288Y-70705628D01*
X113878286Y-70705629D01*
X113871288Y-70706364D01*
X113699579Y-70764818D01*
X113683619Y-70774637D01*
X113551095Y-70856166D01*
X113551092Y-70856168D01*
X113545088Y-70859862D01*
X113540053Y-70864793D01*
X113540050Y-70864795D01*
X113420525Y-70981843D01*
X113415493Y-70986771D01*
X113317235Y-71139238D01*
X113314826Y-71145858D01*
X113314824Y-71145861D01*
X113278078Y-71246819D01*
X113255197Y-71309685D01*
X113232463Y-71489640D01*
X111879501Y-71489640D01*
X111879501Y-69223926D01*
X111899503Y-69155805D01*
X111953159Y-69109312D01*
X112023433Y-69099208D01*
X112088013Y-69128702D01*
X112113277Y-69158655D01*
X112132730Y-69190775D01*
X112140390Y-69203424D01*
X112145279Y-69208487D01*
X112145280Y-69208488D01*
X112214214Y-69279870D01*
X112266392Y-69333902D01*
X112418169Y-69433222D01*
X112424773Y-69435678D01*
X112424775Y-69435679D01*
X112581568Y-69493990D01*
X112581570Y-69493990D01*
X112588178Y-69496448D01*
X112672005Y-69507633D01*
X112760990Y-69519507D01*
X112760994Y-69519507D01*
X112767971Y-69520438D01*
X112774982Y-69519800D01*
X112774986Y-69519800D01*
X112917469Y-69506832D01*
X112948610Y-69503998D01*
X112955312Y-69501820D01*
X112955314Y-69501820D01*
X113091287Y-69457640D01*
X120852463Y-69457640D01*
X120870163Y-69638160D01*
X120927418Y-69810273D01*
X120931065Y-69816295D01*
X120931066Y-69816297D01*
X121014411Y-69953916D01*
X121021380Y-69965424D01*
X121026269Y-69970487D01*
X121026270Y-69970488D01*
X121103121Y-70050068D01*
X121147382Y-70095902D01*
X121215569Y-70140522D01*
X121287209Y-70187402D01*
X121299159Y-70195222D01*
X121305763Y-70197678D01*
X121305765Y-70197679D01*
X121462558Y-70255990D01*
X121462560Y-70255990D01*
X121469168Y-70258448D01*
X121552995Y-70269633D01*
X121641980Y-70281507D01*
X121641984Y-70281507D01*
X121648961Y-70282438D01*
X121655972Y-70281800D01*
X121655976Y-70281800D01*
X121798459Y-70268832D01*
X121829600Y-70265998D01*
X121836302Y-70263820D01*
X121836304Y-70263820D01*
X121995409Y-70212124D01*
X121995412Y-70212123D01*
X122002108Y-70209947D01*
X122098513Y-70152478D01*
X122151860Y-70120677D01*
X122151862Y-70120676D01*
X122157912Y-70117069D01*
X122289266Y-69991982D01*
X122389643Y-69840902D01*
X122433624Y-69725123D01*
X122451555Y-69677920D01*
X122451556Y-69677918D01*
X122454055Y-69671338D01*
X122455035Y-69664366D01*
X122478748Y-69495639D01*
X122478748Y-69495636D01*
X122479299Y-69491717D01*
X122479616Y-69469000D01*
X122478342Y-69457640D01*
X126059463Y-69457640D01*
X126077163Y-69638160D01*
X126134418Y-69810273D01*
X126138065Y-69816295D01*
X126138066Y-69816297D01*
X126221411Y-69953916D01*
X126228380Y-69965424D01*
X126233269Y-69970487D01*
X126233270Y-69970488D01*
X126310121Y-70050068D01*
X126354382Y-70095902D01*
X126422569Y-70140522D01*
X126494209Y-70187402D01*
X126506159Y-70195222D01*
X126512763Y-70197678D01*
X126512765Y-70197679D01*
X126669558Y-70255990D01*
X126669560Y-70255990D01*
X126676168Y-70258448D01*
X126759995Y-70269633D01*
X126848980Y-70281507D01*
X126848984Y-70281507D01*
X126855961Y-70282438D01*
X126862972Y-70281800D01*
X126862976Y-70281800D01*
X127005459Y-70268832D01*
X127036600Y-70265998D01*
X127043302Y-70263820D01*
X127043304Y-70263820D01*
X127202409Y-70212124D01*
X127202412Y-70212123D01*
X127209108Y-70209947D01*
X127305513Y-70152478D01*
X127358860Y-70120677D01*
X127358862Y-70120676D01*
X127364912Y-70117069D01*
X127496266Y-69991982D01*
X127596643Y-69840902D01*
X127640624Y-69725123D01*
X127658555Y-69677920D01*
X127658556Y-69677918D01*
X127661055Y-69671338D01*
X127662035Y-69664366D01*
X127685748Y-69495639D01*
X127685748Y-69495636D01*
X127686299Y-69491717D01*
X127686616Y-69469000D01*
X127666397Y-69288745D01*
X127664080Y-69282091D01*
X127609064Y-69124106D01*
X127609062Y-69124103D01*
X127606745Y-69117448D01*
X127596662Y-69101312D01*
X127514359Y-68969598D01*
X127510626Y-68963624D01*
X127495118Y-68948007D01*
X127387778Y-68839915D01*
X127387774Y-68839912D01*
X127382815Y-68834918D01*
X127371697Y-68827862D01*
X127307587Y-68787177D01*
X127229666Y-68737727D01*
X127196050Y-68725757D01*
X127065425Y-68679243D01*
X127065420Y-68679242D01*
X127058790Y-68676881D01*
X127051802Y-68676048D01*
X127051799Y-68676047D01*
X126915042Y-68659740D01*
X126878680Y-68655404D01*
X126871677Y-68656140D01*
X126871676Y-68656140D01*
X126705288Y-68673628D01*
X126705286Y-68673629D01*
X126698288Y-68674364D01*
X126526579Y-68732818D01*
X126520575Y-68736512D01*
X126378095Y-68824166D01*
X126378092Y-68824168D01*
X126372088Y-68827862D01*
X126367053Y-68832793D01*
X126367050Y-68832795D01*
X126282166Y-68915920D01*
X126242493Y-68954771D01*
X126144235Y-69107238D01*
X126141826Y-69113858D01*
X126141824Y-69113861D01*
X126094271Y-69244512D01*
X126082197Y-69277685D01*
X126059463Y-69457640D01*
X122478342Y-69457640D01*
X122459397Y-69288745D01*
X122457080Y-69282091D01*
X122402064Y-69124106D01*
X122402062Y-69124103D01*
X122399745Y-69117448D01*
X122389662Y-69101312D01*
X122307359Y-68969598D01*
X122303626Y-68963624D01*
X122288118Y-68948007D01*
X122180778Y-68839915D01*
X122180774Y-68839912D01*
X122175815Y-68834918D01*
X122164697Y-68827862D01*
X122100587Y-68787177D01*
X122022666Y-68737727D01*
X121989050Y-68725757D01*
X121858425Y-68679243D01*
X121858420Y-68679242D01*
X121851790Y-68676881D01*
X121844802Y-68676048D01*
X121844799Y-68676047D01*
X121708042Y-68659740D01*
X121671680Y-68655404D01*
X121664677Y-68656140D01*
X121664676Y-68656140D01*
X121498288Y-68673628D01*
X121498286Y-68673629D01*
X121491288Y-68674364D01*
X121319579Y-68732818D01*
X121313575Y-68736512D01*
X121171095Y-68824166D01*
X121171092Y-68824168D01*
X121165088Y-68827862D01*
X121160053Y-68832793D01*
X121160050Y-68832795D01*
X121075166Y-68915920D01*
X121035493Y-68954771D01*
X120937235Y-69107238D01*
X120934826Y-69113858D01*
X120934824Y-69113861D01*
X120887271Y-69244512D01*
X120875197Y-69277685D01*
X120852463Y-69457640D01*
X113091287Y-69457640D01*
X113114419Y-69450124D01*
X113114422Y-69450123D01*
X113121118Y-69447947D01*
X113260481Y-69364870D01*
X113270870Y-69358677D01*
X113270872Y-69358676D01*
X113276922Y-69355069D01*
X113408276Y-69229982D01*
X113508653Y-69078902D01*
X113554342Y-68958627D01*
X113570565Y-68915920D01*
X113570566Y-68915918D01*
X113573065Y-68909338D01*
X113576555Y-68884507D01*
X113597758Y-68733639D01*
X113597758Y-68733636D01*
X113598309Y-68729717D01*
X113598626Y-68707000D01*
X113578407Y-68526745D01*
X113576085Y-68520077D01*
X113521074Y-68362106D01*
X113521072Y-68362103D01*
X113518755Y-68355448D01*
X113430358Y-68213982D01*
X113426369Y-68207598D01*
X113422636Y-68201624D01*
X113413564Y-68192488D01*
X113299788Y-68077915D01*
X113299784Y-68077912D01*
X113294825Y-68072918D01*
X113286698Y-68067760D01*
X113235548Y-68035300D01*
X113141676Y-67975727D01*
X113072726Y-67951175D01*
X112977435Y-67917243D01*
X112977430Y-67917242D01*
X112970800Y-67914881D01*
X112963812Y-67914048D01*
X112963809Y-67914047D01*
X112840708Y-67899368D01*
X112790690Y-67893404D01*
X112783687Y-67894140D01*
X112783686Y-67894140D01*
X112617298Y-67911628D01*
X112617296Y-67911629D01*
X112610298Y-67912364D01*
X112438589Y-67970818D01*
X112387015Y-68002547D01*
X112290105Y-68062166D01*
X112290102Y-68062168D01*
X112284098Y-68065862D01*
X112279063Y-68070793D01*
X112279060Y-68070795D01*
X112159963Y-68187424D01*
X112154503Y-68192771D01*
X112127522Y-68234637D01*
X112111412Y-68259635D01*
X112057698Y-68306060D01*
X111987411Y-68316075D01*
X111922868Y-68286500D01*
X111884560Y-68226725D01*
X111879501Y-68191380D01*
X111879501Y-67679640D01*
X115391463Y-67679640D01*
X115409163Y-67860160D01*
X115466418Y-68032273D01*
X115470065Y-68038295D01*
X115470066Y-68038297D01*
X115554641Y-68177947D01*
X115560380Y-68187424D01*
X115565269Y-68192487D01*
X115565270Y-68192488D01*
X115618727Y-68247844D01*
X115686382Y-68317902D01*
X115739466Y-68352639D01*
X115821912Y-68406590D01*
X115838159Y-68417222D01*
X115844763Y-68419678D01*
X115844765Y-68419679D01*
X116001558Y-68477990D01*
X116001560Y-68477990D01*
X116008168Y-68480448D01*
X116091995Y-68491633D01*
X116180980Y-68503507D01*
X116180984Y-68503507D01*
X116187961Y-68504438D01*
X116194972Y-68503800D01*
X116194976Y-68503800D01*
X116337459Y-68490832D01*
X116368600Y-68487998D01*
X116375302Y-68485820D01*
X116375304Y-68485820D01*
X116534409Y-68434124D01*
X116534412Y-68434123D01*
X116541108Y-68431947D01*
X116658267Y-68362106D01*
X116690860Y-68342677D01*
X116690862Y-68342676D01*
X116696912Y-68339069D01*
X116828266Y-68213982D01*
X116860359Y-68165679D01*
X116927230Y-68065029D01*
X116981587Y-68019358D01*
X117052007Y-68010326D01*
X117116131Y-68040799D01*
X117139954Y-68069485D01*
X117205641Y-68177947D01*
X117211380Y-68187424D01*
X117216269Y-68192487D01*
X117216270Y-68192488D01*
X117269727Y-68247844D01*
X117337382Y-68317902D01*
X117390466Y-68352639D01*
X117472912Y-68406590D01*
X117489159Y-68417222D01*
X117495763Y-68419678D01*
X117495765Y-68419679D01*
X117652558Y-68477990D01*
X117652560Y-68477990D01*
X117659168Y-68480448D01*
X117742995Y-68491633D01*
X117831980Y-68503507D01*
X117831984Y-68503507D01*
X117838961Y-68504438D01*
X117845972Y-68503800D01*
X117845976Y-68503800D01*
X117988459Y-68490832D01*
X118019600Y-68487998D01*
X118026302Y-68485820D01*
X118026304Y-68485820D01*
X118185409Y-68434124D01*
X118185412Y-68434123D01*
X118192108Y-68431947D01*
X118309267Y-68362106D01*
X118341860Y-68342677D01*
X118341862Y-68342676D01*
X118347912Y-68339069D01*
X118479266Y-68213982D01*
X118579643Y-68062902D01*
X118634974Y-67917243D01*
X118641555Y-67899920D01*
X118641556Y-67899918D01*
X118644055Y-67893338D01*
X118645035Y-67886366D01*
X118668748Y-67717639D01*
X118668748Y-67717636D01*
X118669299Y-67713717D01*
X118669616Y-67691000D01*
X118649397Y-67510745D01*
X118646149Y-67501418D01*
X118592064Y-67346106D01*
X118592062Y-67346103D01*
X118589745Y-67339448D01*
X118586009Y-67333469D01*
X118497359Y-67191598D01*
X118493626Y-67185624D01*
X118484835Y-67176771D01*
X118370778Y-67061915D01*
X118370774Y-67061912D01*
X118365815Y-67056918D01*
X118357688Y-67051760D01*
X118280995Y-67003090D01*
X118212666Y-66959727D01*
X118168449Y-66943982D01*
X118048425Y-66901243D01*
X118048420Y-66901242D01*
X118041790Y-66898881D01*
X118034802Y-66898048D01*
X118034799Y-66898047D01*
X117885052Y-66880191D01*
X117861680Y-66877404D01*
X117854677Y-66878140D01*
X117854676Y-66878140D01*
X117688288Y-66895628D01*
X117688286Y-66895629D01*
X117681288Y-66896364D01*
X117509579Y-66954818D01*
X117482710Y-66971348D01*
X117361095Y-67046166D01*
X117361092Y-67046168D01*
X117355088Y-67049862D01*
X117350053Y-67054793D01*
X117350050Y-67054795D01*
X117230525Y-67171843D01*
X117225493Y-67176771D01*
X117188329Y-67234438D01*
X117135849Y-67315871D01*
X117082135Y-67362296D01*
X117011848Y-67372311D01*
X116947305Y-67342736D01*
X116923084Y-67314385D01*
X116846359Y-67191598D01*
X116842626Y-67185624D01*
X116833835Y-67176771D01*
X116719778Y-67061915D01*
X116719774Y-67061912D01*
X116714815Y-67056918D01*
X116706688Y-67051760D01*
X116629995Y-67003090D01*
X116561666Y-66959727D01*
X116517449Y-66943982D01*
X116397425Y-66901243D01*
X116397420Y-66901242D01*
X116390790Y-66898881D01*
X116383802Y-66898048D01*
X116383799Y-66898047D01*
X116234052Y-66880191D01*
X116210680Y-66877404D01*
X116203677Y-66878140D01*
X116203676Y-66878140D01*
X116037288Y-66895628D01*
X116037286Y-66895629D01*
X116030288Y-66896364D01*
X115858579Y-66954818D01*
X115831710Y-66971348D01*
X115710095Y-67046166D01*
X115710092Y-67046168D01*
X115704088Y-67049862D01*
X115699053Y-67054793D01*
X115699050Y-67054795D01*
X115579525Y-67171843D01*
X115574493Y-67176771D01*
X115476235Y-67329238D01*
X115473826Y-67335858D01*
X115473824Y-67335861D01*
X115426603Y-67465599D01*
X115414197Y-67499685D01*
X115391463Y-67679640D01*
X111879501Y-67679640D01*
X111879501Y-66800423D01*
X111899503Y-66732302D01*
X111918610Y-66709177D01*
X111933659Y-66694846D01*
X111933662Y-66694843D01*
X111938766Y-66689982D01*
X112039143Y-66538902D01*
X112090902Y-66402646D01*
X112101055Y-66375920D01*
X112101056Y-66375918D01*
X112103555Y-66369338D01*
X112109595Y-66326364D01*
X112128248Y-66193639D01*
X112128248Y-66193636D01*
X112128799Y-66189717D01*
X112129116Y-66167000D01*
X112108897Y-65986745D01*
X112105950Y-65978281D01*
X112051564Y-65822106D01*
X112051562Y-65822103D01*
X112049245Y-65815448D01*
X112012182Y-65756134D01*
X136221500Y-65756134D01*
X136228255Y-65818316D01*
X136279385Y-65954705D01*
X136366739Y-66071261D01*
X136483295Y-66158615D01*
X136619684Y-66209745D01*
X136681866Y-66216500D01*
X140178134Y-66216500D01*
X140240316Y-66209745D01*
X140376705Y-66158615D01*
X140493261Y-66071261D01*
X140580615Y-65954705D01*
X140631745Y-65818316D01*
X140638500Y-65756134D01*
X140638500Y-62259866D01*
X140631745Y-62197684D01*
X140580615Y-62061295D01*
X140493261Y-61944739D01*
X140376705Y-61857385D01*
X140240316Y-61806255D01*
X140178134Y-61799500D01*
X136681866Y-61799500D01*
X136619684Y-61806255D01*
X136483295Y-61857385D01*
X136366739Y-61944739D01*
X136279385Y-62061295D01*
X136228255Y-62197684D01*
X136221500Y-62259866D01*
X136221500Y-65756134D01*
X112012182Y-65756134D01*
X111990722Y-65721791D01*
X111956859Y-65667598D01*
X111953126Y-65661624D01*
X111941486Y-65649902D01*
X111830278Y-65537915D01*
X111830274Y-65537912D01*
X111825315Y-65532918D01*
X111817664Y-65528062D01*
X111742462Y-65480338D01*
X111672166Y-65435727D01*
X111641594Y-65424841D01*
X111507925Y-65377243D01*
X111507920Y-65377242D01*
X111501290Y-65374881D01*
X111494302Y-65374048D01*
X111494299Y-65374047D01*
X111365962Y-65358744D01*
X111321180Y-65353404D01*
X111314177Y-65354140D01*
X111314176Y-65354140D01*
X111147788Y-65371628D01*
X111147786Y-65371629D01*
X111140788Y-65372364D01*
X110969079Y-65430818D01*
X110963075Y-65434512D01*
X110820595Y-65522166D01*
X110820592Y-65522168D01*
X110814588Y-65525862D01*
X110809553Y-65530793D01*
X110809550Y-65530795D01*
X110690299Y-65647575D01*
X110684993Y-65652771D01*
X110586735Y-65805238D01*
X110584326Y-65811858D01*
X110584324Y-65811861D01*
X110527106Y-65969066D01*
X110524697Y-65975685D01*
X110521011Y-66004862D01*
X110511842Y-66077443D01*
X110508982Y-66090562D01*
X110508588Y-66091434D01*
X110507385Y-66097927D01*
X110507348Y-66098054D01*
X110507071Y-66099327D01*
X110506135Y-66102313D01*
X110502147Y-66116314D01*
X110501250Y-66119806D01*
X110498489Y-66126888D01*
X110497497Y-66134421D01*
X110497497Y-66134422D01*
X110490268Y-66189329D01*
X110489236Y-66195842D01*
X110480914Y-66240745D01*
X110477756Y-66257786D01*
X110478193Y-66265366D01*
X110478193Y-66265367D01*
X110481292Y-66319111D01*
X110481501Y-66326364D01*
X110481501Y-74385443D01*
X110461499Y-74453564D01*
X110407843Y-74500057D01*
X110368672Y-74510753D01*
X110322288Y-74515628D01*
X110322286Y-74515628D01*
X110315288Y-74516364D01*
X110244259Y-74540544D01*
X110173328Y-74543562D01*
X110112024Y-74507752D01*
X110084664Y-74462703D01*
X110080745Y-74451448D01*
X110024674Y-74361715D01*
X110005539Y-74293349D01*
X110026581Y-74225221D01*
X110043128Y-74200316D01*
X110070643Y-74158902D01*
X110131273Y-73999295D01*
X110132555Y-73995920D01*
X110132556Y-73995918D01*
X110135055Y-73989338D01*
X110136833Y-73976685D01*
X110159748Y-73813639D01*
X110159748Y-73813636D01*
X110160299Y-73809717D01*
X110160616Y-73787000D01*
X110140397Y-73606745D01*
X110137053Y-73597143D01*
X110083064Y-73442106D01*
X110083062Y-73442103D01*
X110080745Y-73435448D01*
X110030625Y-73355238D01*
X109988359Y-73287598D01*
X109984626Y-73281624D01*
X109970941Y-73267843D01*
X109861778Y-73157915D01*
X109861774Y-73157912D01*
X109856815Y-73152918D01*
X109845697Y-73145862D01*
X109797538Y-73115300D01*
X109703666Y-73055727D01*
X109674463Y-73045328D01*
X109539425Y-72997243D01*
X109539420Y-72997242D01*
X109532790Y-72994881D01*
X109525802Y-72994048D01*
X109525799Y-72994047D01*
X109402698Y-72979368D01*
X109352680Y-72973404D01*
X109345677Y-72974140D01*
X109345676Y-72974140D01*
X109179288Y-72991628D01*
X109179286Y-72991629D01*
X109172288Y-72992364D01*
X109000579Y-73050818D01*
X108967145Y-73071387D01*
X108852095Y-73142166D01*
X108852092Y-73142168D01*
X108846088Y-73145862D01*
X108841053Y-73150793D01*
X108841050Y-73150795D01*
X108733540Y-73256077D01*
X108716493Y-73272771D01*
X108618235Y-73425238D01*
X108615826Y-73431858D01*
X108615824Y-73431861D01*
X108569310Y-73559658D01*
X108556197Y-73595685D01*
X108533463Y-73775640D01*
X108551163Y-73956160D01*
X108608418Y-74128273D01*
X108612065Y-74134295D01*
X108612066Y-74134297D01*
X108626967Y-74158902D01*
X108667132Y-74225221D01*
X108670101Y-74230124D01*
X108688280Y-74298753D01*
X108668236Y-74363650D01*
X108622054Y-74435310D01*
X108622050Y-74435319D01*
X108618235Y-74441238D01*
X108615826Y-74447858D01*
X108615825Y-74447859D01*
X108563144Y-74592598D01*
X108556197Y-74611685D01*
X108533463Y-74791640D01*
X108551163Y-74972160D01*
X108608418Y-75144273D01*
X108612065Y-75150295D01*
X108612066Y-75150297D01*
X108689929Y-75278864D01*
X108702380Y-75299424D01*
X108707269Y-75304487D01*
X108707270Y-75304488D01*
X108765182Y-75364457D01*
X108828382Y-75429902D01*
X108834278Y-75433760D01*
X108947232Y-75507675D01*
X108980159Y-75529222D01*
X108986763Y-75531678D01*
X108986765Y-75531679D01*
X109143558Y-75589990D01*
X109143560Y-75589990D01*
X109150168Y-75592448D01*
X109233995Y-75603633D01*
X109322980Y-75615507D01*
X109322984Y-75615507D01*
X109329961Y-75616438D01*
X109336972Y-75615800D01*
X109336976Y-75615800D01*
X109479459Y-75602832D01*
X109510600Y-75599998D01*
X109517302Y-75597820D01*
X109517304Y-75597820D01*
X109593341Y-75573114D01*
X109664309Y-75571087D01*
X109725107Y-75607749D01*
X109746658Y-75640098D01*
X109749193Y-75645583D01*
X109751418Y-75652273D01*
X109845380Y-75807424D01*
X109850269Y-75812487D01*
X109850270Y-75812488D01*
X109903727Y-75867844D01*
X109971382Y-75937902D01*
X109977278Y-75941760D01*
X110106912Y-76026590D01*
X110123159Y-76037222D01*
X110129763Y-76039678D01*
X110129765Y-76039679D01*
X110286558Y-76097990D01*
X110286560Y-76097990D01*
X110293168Y-76100448D01*
X110300153Y-76101380D01*
X110300157Y-76101381D01*
X110315781Y-76103465D01*
X110326192Y-76104854D01*
X110391068Y-76133688D01*
X110430057Y-76193021D01*
X110430779Y-76264014D01*
X110398623Y-76318842D01*
X110237370Y-76480095D01*
X110175058Y-76514121D01*
X110148275Y-76517000D01*
X103872139Y-76517000D01*
X103804018Y-76496998D01*
X103757525Y-76443342D01*
X103747421Y-76373068D01*
X103776915Y-76308488D01*
X103785247Y-76299755D01*
X103869159Y-76219846D01*
X103869162Y-76219843D01*
X103874266Y-76214982D01*
X103974643Y-76063902D01*
X104021041Y-75941760D01*
X104036555Y-75900920D01*
X104036556Y-75900918D01*
X104039055Y-75894338D01*
X104040035Y-75887366D01*
X104063748Y-75718639D01*
X104063748Y-75718636D01*
X104064299Y-75714717D01*
X104064616Y-75692000D01*
X104044397Y-75511745D01*
X104042080Y-75505091D01*
X103987993Y-75349774D01*
X103984479Y-75278864D01*
X103989196Y-75263594D01*
X104036554Y-75138924D01*
X104036556Y-75138917D01*
X104039055Y-75132338D01*
X104042779Y-75105844D01*
X104063748Y-74956638D01*
X104063748Y-74956637D01*
X104064299Y-74952717D01*
X104064616Y-74930000D01*
X104044397Y-74749745D01*
X104042080Y-74743091D01*
X103987064Y-74585106D01*
X103987062Y-74585103D01*
X103984745Y-74578448D01*
X103901654Y-74445474D01*
X103892359Y-74430598D01*
X103888626Y-74424624D01*
X103883664Y-74419627D01*
X103765778Y-74300915D01*
X103765774Y-74300912D01*
X103760815Y-74295918D01*
X103749697Y-74288862D01*
X103649414Y-74225221D01*
X103607666Y-74198727D01*
X103532501Y-74171962D01*
X103443425Y-74140243D01*
X103443420Y-74140242D01*
X103436790Y-74137881D01*
X103429802Y-74137048D01*
X103429799Y-74137047D01*
X103300171Y-74121590D01*
X103256680Y-74116404D01*
X103249677Y-74117140D01*
X103249676Y-74117140D01*
X103083288Y-74134628D01*
X103083286Y-74134629D01*
X103076288Y-74135364D01*
X102904579Y-74193818D01*
X102845565Y-74230124D01*
X102756095Y-74285166D01*
X102756092Y-74285168D01*
X102750088Y-74288862D01*
X102745053Y-74293793D01*
X102745050Y-74293795D01*
X102625525Y-74410843D01*
X102620493Y-74415771D01*
X102522235Y-74568238D01*
X102519826Y-74574858D01*
X102519824Y-74574861D01*
X102475791Y-74695841D01*
X102460197Y-74738685D01*
X102437463Y-74918640D01*
X102455163Y-75099160D01*
X102490994Y-75206870D01*
X102512418Y-75271273D01*
X102510156Y-75272026D01*
X102518928Y-75331178D01*
X102512533Y-75356893D01*
X102485960Y-75429902D01*
X102460197Y-75500685D01*
X102437463Y-75680640D01*
X102455163Y-75861160D01*
X102512418Y-76033273D01*
X102516065Y-76039295D01*
X102516066Y-76039297D01*
X102555769Y-76104854D01*
X102606380Y-76188424D01*
X102611269Y-76193487D01*
X102611270Y-76193488D01*
X102717482Y-76303473D01*
X102750414Y-76366369D01*
X102744114Y-76437086D01*
X102700582Y-76493170D01*
X102626845Y-76517000D01*
X96646500Y-76517000D01*
X96578379Y-76496998D01*
X96531886Y-76443342D01*
X96520500Y-76391000D01*
X96520500Y-74446225D01*
X96540502Y-74378104D01*
X96557405Y-74357130D01*
X96757895Y-74156640D01*
X100278463Y-74156640D01*
X100296163Y-74337160D01*
X100353418Y-74509273D01*
X100357065Y-74515295D01*
X100357066Y-74515297D01*
X100419674Y-74618675D01*
X100447380Y-74664424D01*
X100452269Y-74669487D01*
X100452270Y-74669488D01*
X100523348Y-74743091D01*
X100573382Y-74794902D01*
X100579278Y-74798760D01*
X100705200Y-74881161D01*
X100725159Y-74894222D01*
X100731763Y-74896678D01*
X100731765Y-74896679D01*
X100888558Y-74954990D01*
X100888560Y-74954990D01*
X100895168Y-74957448D01*
X100978995Y-74968633D01*
X101067980Y-74980507D01*
X101067984Y-74980507D01*
X101074961Y-74981438D01*
X101081972Y-74980800D01*
X101081976Y-74980800D01*
X101224459Y-74967832D01*
X101255600Y-74964998D01*
X101262302Y-74962820D01*
X101262304Y-74962820D01*
X101421409Y-74911124D01*
X101421412Y-74911123D01*
X101428108Y-74908947D01*
X101538913Y-74842894D01*
X101577860Y-74819677D01*
X101577862Y-74819676D01*
X101583912Y-74816069D01*
X101715266Y-74690982D01*
X101815643Y-74539902D01*
X101861642Y-74418810D01*
X101877555Y-74376920D01*
X101877556Y-74376918D01*
X101880055Y-74370338D01*
X101881035Y-74363366D01*
X101904748Y-74194639D01*
X101904748Y-74194636D01*
X101905299Y-74190717D01*
X101905616Y-74168000D01*
X101885397Y-73987745D01*
X101883080Y-73981091D01*
X101828064Y-73823106D01*
X101828062Y-73823103D01*
X101825745Y-73816448D01*
X101729626Y-73662624D01*
X101715941Y-73648843D01*
X101606778Y-73538915D01*
X101606774Y-73538912D01*
X101601815Y-73533918D01*
X101593688Y-73528760D01*
X101510038Y-73475675D01*
X101448666Y-73436727D01*
X101416401Y-73425238D01*
X101284425Y-73378243D01*
X101284420Y-73378242D01*
X101277790Y-73375881D01*
X101270802Y-73375048D01*
X101270799Y-73375047D01*
X101115081Y-73356479D01*
X101097680Y-73354404D01*
X101090677Y-73355140D01*
X101090676Y-73355140D01*
X100924288Y-73372628D01*
X100924286Y-73372629D01*
X100917288Y-73373364D01*
X100745579Y-73431818D01*
X100726914Y-73443301D01*
X100597095Y-73523166D01*
X100597092Y-73523168D01*
X100591088Y-73526862D01*
X100586053Y-73531793D01*
X100586050Y-73531795D01*
X100466525Y-73648843D01*
X100461493Y-73653771D01*
X100363235Y-73806238D01*
X100360826Y-73812858D01*
X100360824Y-73812861D01*
X100306235Y-73962844D01*
X100301197Y-73976685D01*
X100278463Y-74156640D01*
X96757895Y-74156640D01*
X97311538Y-73602997D01*
X97317804Y-73597143D01*
X97355049Y-73564652D01*
X97360774Y-73559658D01*
X97396994Y-73508122D01*
X97400927Y-73502826D01*
X97435106Y-73459237D01*
X97435108Y-73459234D01*
X97439792Y-73453260D01*
X97442918Y-73446336D01*
X97444756Y-73443301D01*
X97452000Y-73430602D01*
X97453688Y-73427454D01*
X97458056Y-73421239D01*
X97480938Y-73362550D01*
X97483478Y-73356505D01*
X97509413Y-73299065D01*
X97510798Y-73291592D01*
X97511869Y-73288174D01*
X97515854Y-73274185D01*
X97516751Y-73270693D01*
X97519512Y-73263611D01*
X97527733Y-73201170D01*
X97528765Y-73194657D01*
X97538861Y-73140182D01*
X97538861Y-73140180D01*
X97540245Y-73132713D01*
X97536709Y-73071387D01*
X97536500Y-73064134D01*
X97536500Y-72886640D01*
X102056463Y-72886640D01*
X102074163Y-73067160D01*
X102131418Y-73239273D01*
X102135065Y-73245295D01*
X102135066Y-73245297D01*
X102215581Y-73378243D01*
X102225380Y-73394424D01*
X102230269Y-73399487D01*
X102230270Y-73399488D01*
X102301348Y-73473091D01*
X102351382Y-73524902D01*
X102357278Y-73528760D01*
X102470232Y-73602675D01*
X102503159Y-73624222D01*
X102509763Y-73626678D01*
X102509765Y-73626679D01*
X102666558Y-73684990D01*
X102666560Y-73684990D01*
X102673168Y-73687448D01*
X102756995Y-73698633D01*
X102845980Y-73710507D01*
X102845984Y-73710507D01*
X102852961Y-73711438D01*
X102859972Y-73710800D01*
X102859976Y-73710800D01*
X103002459Y-73697832D01*
X103033600Y-73694998D01*
X103040302Y-73692820D01*
X103040304Y-73692820D01*
X103199409Y-73641124D01*
X103199412Y-73641123D01*
X103206108Y-73638947D01*
X103330739Y-73564652D01*
X103355860Y-73549677D01*
X103355862Y-73549676D01*
X103361912Y-73546069D01*
X103493266Y-73420982D01*
X103593643Y-73269902D01*
X103658055Y-73100338D01*
X103661545Y-73075507D01*
X103682748Y-72924639D01*
X103682748Y-72924636D01*
X103683299Y-72920717D01*
X103683452Y-72909738D01*
X103683561Y-72901962D01*
X103683561Y-72901957D01*
X103683616Y-72898000D01*
X103663397Y-72717745D01*
X103661080Y-72711091D01*
X103606064Y-72553106D01*
X103606062Y-72553103D01*
X103603745Y-72546448D01*
X103507626Y-72392624D01*
X103429984Y-72314438D01*
X103384778Y-72268915D01*
X103384774Y-72268912D01*
X103379815Y-72263918D01*
X103372164Y-72259062D01*
X103315912Y-72223364D01*
X103226666Y-72166727D01*
X103187209Y-72152677D01*
X103062425Y-72108243D01*
X103062420Y-72108242D01*
X103055790Y-72105881D01*
X103048802Y-72105048D01*
X103048799Y-72105047D01*
X102920462Y-72089744D01*
X102875680Y-72084404D01*
X102868677Y-72085140D01*
X102868676Y-72085140D01*
X102702288Y-72102628D01*
X102702286Y-72102629D01*
X102695288Y-72103364D01*
X102523579Y-72161818D01*
X102517575Y-72165512D01*
X102375095Y-72253166D01*
X102375092Y-72253168D01*
X102369088Y-72256862D01*
X102364053Y-72261793D01*
X102364050Y-72261795D01*
X102310293Y-72314438D01*
X102239493Y-72383771D01*
X102141235Y-72536238D01*
X102138826Y-72542858D01*
X102138824Y-72542861D01*
X102107722Y-72628314D01*
X102079197Y-72706685D01*
X102056463Y-72886640D01*
X97536500Y-72886640D01*
X97536500Y-71749779D01*
X97556502Y-71681658D01*
X97568859Y-71665475D01*
X97576540Y-71656944D01*
X97650469Y-71528896D01*
X97668723Y-71497279D01*
X97668724Y-71497278D01*
X97672027Y-71491556D01*
X97731042Y-71309928D01*
X97751004Y-71120000D01*
X97736462Y-70981640D01*
X102056463Y-70981640D01*
X102074163Y-71162160D01*
X102131418Y-71334273D01*
X102135065Y-71340295D01*
X102135066Y-71340297D01*
X102216422Y-71474632D01*
X102225380Y-71489424D01*
X102230269Y-71494487D01*
X102230270Y-71494488D01*
X102259298Y-71524547D01*
X102351382Y-71619902D01*
X102420582Y-71665185D01*
X102478886Y-71703338D01*
X102503159Y-71719222D01*
X102509763Y-71721678D01*
X102509765Y-71721679D01*
X102666558Y-71779990D01*
X102666560Y-71779990D01*
X102673168Y-71782448D01*
X102756995Y-71793633D01*
X102845980Y-71805507D01*
X102845984Y-71805507D01*
X102852961Y-71806438D01*
X102859972Y-71805800D01*
X102859976Y-71805800D01*
X103012558Y-71791913D01*
X103033600Y-71789998D01*
X103040302Y-71787820D01*
X103040304Y-71787820D01*
X103199409Y-71736124D01*
X103199412Y-71736123D01*
X103206108Y-71733947D01*
X103302513Y-71676478D01*
X103355860Y-71644677D01*
X103355862Y-71644676D01*
X103361912Y-71641069D01*
X103493266Y-71515982D01*
X103593643Y-71364902D01*
X103658055Y-71195338D01*
X103659035Y-71188366D01*
X103682748Y-71019639D01*
X103682748Y-71019636D01*
X103683299Y-71015717D01*
X103683616Y-70993000D01*
X103663397Y-70812745D01*
X103661080Y-70806091D01*
X103606064Y-70648106D01*
X103606062Y-70648103D01*
X103603745Y-70641448D01*
X103560528Y-70572285D01*
X103511359Y-70493598D01*
X103507626Y-70487624D01*
X103471955Y-70451703D01*
X103384778Y-70363915D01*
X103384774Y-70363912D01*
X103379815Y-70358918D01*
X103373084Y-70354646D01*
X103317800Y-70319562D01*
X103226666Y-70261727D01*
X103169073Y-70241219D01*
X103062425Y-70203243D01*
X103062420Y-70203242D01*
X103055790Y-70200881D01*
X103048802Y-70200048D01*
X103048799Y-70200047D01*
X102925698Y-70185368D01*
X102875680Y-70179404D01*
X102868677Y-70180140D01*
X102868676Y-70180140D01*
X102702288Y-70197628D01*
X102702286Y-70197629D01*
X102695288Y-70198364D01*
X102523579Y-70256818D01*
X102507619Y-70266637D01*
X102375095Y-70348166D01*
X102375092Y-70348168D01*
X102369088Y-70351862D01*
X102364053Y-70356793D01*
X102364050Y-70356795D01*
X102244953Y-70473424D01*
X102239493Y-70478771D01*
X102141235Y-70631238D01*
X102138826Y-70637858D01*
X102138824Y-70637861D01*
X102081952Y-70794116D01*
X102079197Y-70801685D01*
X102056463Y-70981640D01*
X97736462Y-70981640D01*
X97731732Y-70936635D01*
X97731732Y-70936633D01*
X97731042Y-70930072D01*
X97672027Y-70748444D01*
X97655677Y-70720124D01*
X97600981Y-70625389D01*
X97576540Y-70583056D01*
X97568863Y-70574530D01*
X97538147Y-70510524D01*
X97536500Y-70490221D01*
X97536500Y-69366225D01*
X97556502Y-69298104D01*
X97573405Y-69277130D01*
X98550630Y-68299905D01*
X98612942Y-68265879D01*
X98639725Y-68263000D01*
X99705220Y-68263000D01*
X99773341Y-68283002D01*
X99819834Y-68336658D01*
X99829938Y-68406932D01*
X99823621Y-68432094D01*
X99796212Y-68507402D01*
X99793197Y-68515685D01*
X99770463Y-68695640D01*
X99788163Y-68876160D01*
X99845418Y-69048273D01*
X99849065Y-69054295D01*
X99849066Y-69054297D01*
X99931720Y-69190775D01*
X99939380Y-69203424D01*
X99965027Y-69229982D01*
X99988042Y-69253815D01*
X100020974Y-69316712D01*
X100014674Y-69387428D01*
X99985565Y-69431364D01*
X99953493Y-69462771D01*
X99855235Y-69615238D01*
X99852826Y-69621858D01*
X99852824Y-69621861D01*
X99815240Y-69725123D01*
X99793197Y-69785685D01*
X99770463Y-69965640D01*
X99788163Y-70146160D01*
X99845418Y-70318273D01*
X99849065Y-70324295D01*
X99849066Y-70324297D01*
X99911815Y-70427908D01*
X99939380Y-70473424D01*
X99944269Y-70478487D01*
X99944270Y-70478488D01*
X99948267Y-70482627D01*
X100065382Y-70603902D01*
X100141271Y-70653562D01*
X100192987Y-70687404D01*
X100217159Y-70703222D01*
X100223763Y-70705678D01*
X100223765Y-70705679D01*
X100380558Y-70763990D01*
X100380560Y-70763990D01*
X100387168Y-70766448D01*
X100470995Y-70777633D01*
X100559980Y-70789507D01*
X100559984Y-70789507D01*
X100566961Y-70790438D01*
X100573972Y-70789800D01*
X100573976Y-70789800D01*
X100716459Y-70776832D01*
X100747600Y-70773998D01*
X100754302Y-70771820D01*
X100754304Y-70771820D01*
X100913409Y-70720124D01*
X100913412Y-70720123D01*
X100920108Y-70717947D01*
X101049290Y-70640939D01*
X101069860Y-70628677D01*
X101069862Y-70628676D01*
X101075912Y-70625069D01*
X101207266Y-70499982D01*
X101307643Y-70348902D01*
X101362974Y-70203243D01*
X101369555Y-70185920D01*
X101369556Y-70185918D01*
X101372055Y-70179338D01*
X101373035Y-70172366D01*
X101396748Y-70003639D01*
X101396748Y-70003636D01*
X101397299Y-69999717D01*
X101397616Y-69977000D01*
X101396342Y-69965640D01*
X104596463Y-69965640D01*
X104614163Y-70146160D01*
X104671418Y-70318273D01*
X104675065Y-70324295D01*
X104675066Y-70324297D01*
X104737815Y-70427908D01*
X104765380Y-70473424D01*
X104770269Y-70478487D01*
X104770270Y-70478488D01*
X104774267Y-70482627D01*
X104891382Y-70603902D01*
X104967271Y-70653562D01*
X105018987Y-70687404D01*
X105043159Y-70703222D01*
X105049763Y-70705678D01*
X105049765Y-70705679D01*
X105206558Y-70763990D01*
X105206560Y-70763990D01*
X105213168Y-70766448D01*
X105296995Y-70777633D01*
X105385980Y-70789507D01*
X105385984Y-70789507D01*
X105392961Y-70790438D01*
X105399972Y-70789800D01*
X105399976Y-70789800D01*
X105542459Y-70776832D01*
X105573600Y-70773998D01*
X105580302Y-70771820D01*
X105580304Y-70771820D01*
X105739409Y-70720124D01*
X105739412Y-70720123D01*
X105746108Y-70717947D01*
X105875290Y-70640939D01*
X105895860Y-70628677D01*
X105895862Y-70628676D01*
X105901912Y-70625069D01*
X105941479Y-70587390D01*
X108292713Y-70587390D01*
X108310413Y-70767910D01*
X108367668Y-70940023D01*
X108371315Y-70946045D01*
X108371316Y-70946047D01*
X108453808Y-71082258D01*
X108461630Y-71095174D01*
X108466519Y-71100237D01*
X108466520Y-71100238D01*
X108520472Y-71156106D01*
X108587632Y-71225652D01*
X108739409Y-71324972D01*
X108746013Y-71327428D01*
X108746015Y-71327429D01*
X108902808Y-71385740D01*
X108902810Y-71385740D01*
X108909418Y-71388198D01*
X108991670Y-71399173D01*
X109082230Y-71411257D01*
X109082234Y-71411257D01*
X109089211Y-71412188D01*
X109096222Y-71411550D01*
X109096226Y-71411550D01*
X109238709Y-71398582D01*
X109269850Y-71395748D01*
X109276552Y-71393570D01*
X109276554Y-71393570D01*
X109435659Y-71341874D01*
X109435662Y-71341873D01*
X109442358Y-71339697D01*
X109598162Y-71246819D01*
X109729516Y-71121732D01*
X109829893Y-70970652D01*
X109894305Y-70801088D01*
X109895802Y-70790438D01*
X109918998Y-70625389D01*
X109918998Y-70625386D01*
X109919549Y-70621467D01*
X109919866Y-70598750D01*
X109899647Y-70418495D01*
X109896554Y-70409614D01*
X109842314Y-70253856D01*
X109842312Y-70253853D01*
X109839995Y-70247198D01*
X109743876Y-70093374D01*
X109730191Y-70079593D01*
X109621028Y-69969665D01*
X109621024Y-69969662D01*
X109616065Y-69964668D01*
X109604947Y-69957612D01*
X109502026Y-69892297D01*
X109462916Y-69867477D01*
X109418376Y-69851617D01*
X109298675Y-69808993D01*
X109298670Y-69808992D01*
X109292040Y-69806631D01*
X109285052Y-69805798D01*
X109285049Y-69805797D01*
X109161948Y-69791118D01*
X109111930Y-69785154D01*
X109104927Y-69785890D01*
X109104926Y-69785890D01*
X108938538Y-69803378D01*
X108938536Y-69803379D01*
X108931538Y-69804114D01*
X108759829Y-69862568D01*
X108703919Y-69896964D01*
X108611345Y-69953916D01*
X108611342Y-69953918D01*
X108605338Y-69957612D01*
X108600303Y-69962543D01*
X108600300Y-69962545D01*
X108480775Y-70079593D01*
X108475743Y-70084521D01*
X108377485Y-70236988D01*
X108375076Y-70243608D01*
X108375074Y-70243611D01*
X108333440Y-70358000D01*
X108315447Y-70407435D01*
X108292713Y-70587390D01*
X105941479Y-70587390D01*
X106033266Y-70499982D01*
X106133643Y-70348902D01*
X106188974Y-70203243D01*
X106195555Y-70185920D01*
X106195556Y-70185918D01*
X106198055Y-70179338D01*
X106199035Y-70172366D01*
X106222748Y-70003639D01*
X106222748Y-70003636D01*
X106223299Y-69999717D01*
X106223616Y-69977000D01*
X106203397Y-69796745D01*
X106199617Y-69785890D01*
X106146064Y-69632106D01*
X106146062Y-69632103D01*
X106143745Y-69625448D01*
X106047626Y-69471624D01*
X106041110Y-69465062D01*
X105924778Y-69347915D01*
X105924774Y-69347912D01*
X105919815Y-69342918D01*
X105913067Y-69338635D01*
X105828038Y-69284675D01*
X105766666Y-69245727D01*
X105722449Y-69229982D01*
X105602425Y-69187243D01*
X105602420Y-69187242D01*
X105595790Y-69184881D01*
X105588802Y-69184048D01*
X105588799Y-69184047D01*
X105465698Y-69169368D01*
X105415680Y-69163404D01*
X105408677Y-69164140D01*
X105408676Y-69164140D01*
X105242288Y-69181628D01*
X105242286Y-69181629D01*
X105235288Y-69182364D01*
X105063579Y-69240818D01*
X105014412Y-69271066D01*
X104915095Y-69332166D01*
X104915092Y-69332168D01*
X104909088Y-69335862D01*
X104904053Y-69340793D01*
X104904050Y-69340795D01*
X104784525Y-69457843D01*
X104779493Y-69462771D01*
X104681235Y-69615238D01*
X104678826Y-69621858D01*
X104678824Y-69621861D01*
X104641240Y-69725123D01*
X104619197Y-69785685D01*
X104596463Y-69965640D01*
X101396342Y-69965640D01*
X101377397Y-69796745D01*
X101373617Y-69785890D01*
X101320064Y-69632106D01*
X101320062Y-69632103D01*
X101317745Y-69625448D01*
X101221626Y-69471624D01*
X101215110Y-69465062D01*
X101181979Y-69431699D01*
X101148172Y-69369268D01*
X101153484Y-69298470D01*
X101184492Y-69251670D01*
X101198272Y-69238547D01*
X101207266Y-69229982D01*
X101307643Y-69078902D01*
X101353332Y-68958627D01*
X101369555Y-68915920D01*
X101369556Y-68915918D01*
X101372055Y-68909338D01*
X101375545Y-68884507D01*
X101396748Y-68733639D01*
X101396748Y-68733636D01*
X101397299Y-68729717D01*
X101397616Y-68707000D01*
X101377397Y-68526745D01*
X101375075Y-68520077D01*
X101320064Y-68362106D01*
X101320062Y-68362103D01*
X101317745Y-68355448D01*
X101221626Y-68201624D01*
X101224010Y-68200134D01*
X101202145Y-68146090D01*
X101215327Y-68076328D01*
X101222582Y-68063929D01*
X101222600Y-68063902D01*
X101307643Y-67935902D01*
X101358389Y-67802314D01*
X101369555Y-67772920D01*
X101369556Y-67772918D01*
X101372055Y-67766338D01*
X101379009Y-67716861D01*
X101396748Y-67590639D01*
X101396748Y-67590636D01*
X101397299Y-67586717D01*
X101397616Y-67564000D01*
X101377397Y-67383745D01*
X101375080Y-67377091D01*
X101320064Y-67219106D01*
X101320062Y-67219103D01*
X101317745Y-67212448D01*
X101299657Y-67183500D01*
X101221626Y-67058624D01*
X101224010Y-67057134D01*
X101202145Y-67003090D01*
X101215327Y-66933328D01*
X101222582Y-66920929D01*
X101222728Y-66920709D01*
X101307643Y-66792902D01*
X101358970Y-66657785D01*
X101369555Y-66629920D01*
X101369556Y-66629918D01*
X101372055Y-66623338D01*
X101375778Y-66596845D01*
X101396748Y-66447639D01*
X101396748Y-66447636D01*
X101397299Y-66443717D01*
X101397452Y-66432738D01*
X101397561Y-66424962D01*
X101397561Y-66424957D01*
X101397616Y-66421000D01*
X101377397Y-66240745D01*
X101374743Y-66233124D01*
X101320064Y-66076106D01*
X101320062Y-66076103D01*
X101317745Y-66069448D01*
X101240845Y-65946381D01*
X101225359Y-65921598D01*
X101221626Y-65915624D01*
X101207941Y-65901843D01*
X101098778Y-65791915D01*
X101098774Y-65791912D01*
X101093815Y-65786918D01*
X101082697Y-65779862D01*
X100958373Y-65700964D01*
X100911574Y-65647575D01*
X100901069Y-65577360D01*
X100930193Y-65512612D01*
X100961367Y-65486352D01*
X101075912Y-65418069D01*
X101207266Y-65292982D01*
X101307643Y-65141902D01*
X101351433Y-65026624D01*
X101369555Y-64978920D01*
X101369556Y-64978918D01*
X101372055Y-64972338D01*
X101373712Y-64960548D01*
X101396748Y-64796639D01*
X101396748Y-64796636D01*
X101397299Y-64792717D01*
X101397616Y-64770000D01*
X101377397Y-64589745D01*
X101375080Y-64583091D01*
X101320064Y-64425106D01*
X101320062Y-64425103D01*
X101317745Y-64418448D01*
X101249025Y-64308472D01*
X101225359Y-64270598D01*
X101221626Y-64264624D01*
X101183491Y-64226222D01*
X101098778Y-64140915D01*
X101098774Y-64140912D01*
X101093815Y-64135918D01*
X101085688Y-64130760D01*
X101034538Y-64098300D01*
X100940666Y-64038727D01*
X100911463Y-64028328D01*
X100776425Y-63980243D01*
X100776420Y-63980242D01*
X100769790Y-63977881D01*
X100762802Y-63977048D01*
X100762799Y-63977047D01*
X100639698Y-63962368D01*
X100589680Y-63956404D01*
X100582677Y-63957140D01*
X100582676Y-63957140D01*
X100416288Y-63974628D01*
X100416286Y-63974629D01*
X100409288Y-63975364D01*
X100237579Y-64033818D01*
X100196065Y-64059358D01*
X100089095Y-64125166D01*
X100089092Y-64125168D01*
X100083088Y-64128862D01*
X100078053Y-64133793D01*
X100078050Y-64133795D01*
X99958953Y-64250424D01*
X99953493Y-64255771D01*
X99855235Y-64408238D01*
X99852826Y-64414858D01*
X99852824Y-64414861D01*
X99795606Y-64572066D01*
X99793197Y-64578685D01*
X99770463Y-64758640D01*
X99788163Y-64939160D01*
X99845418Y-65111273D01*
X99849065Y-65117295D01*
X99849066Y-65117297D01*
X99933641Y-65256947D01*
X99939380Y-65266424D01*
X99944269Y-65271487D01*
X99944270Y-65271488D01*
X100015348Y-65345091D01*
X100065382Y-65396902D01*
X100071274Y-65400757D01*
X100071278Y-65400761D01*
X100209469Y-65491190D01*
X100255518Y-65545227D01*
X100265041Y-65615582D01*
X100235016Y-65679917D01*
X100206501Y-65703938D01*
X100083088Y-65779862D01*
X100078053Y-65784793D01*
X100078050Y-65784795D01*
X100003732Y-65857573D01*
X99953493Y-65906771D01*
X99855235Y-66059238D01*
X99852826Y-66065858D01*
X99852824Y-66065861D01*
X99800144Y-66210598D01*
X99793197Y-66229685D01*
X99770463Y-66409640D01*
X99788163Y-66590160D01*
X99790387Y-66596845D01*
X99824445Y-66699228D01*
X99826968Y-66770180D01*
X99790731Y-66831232D01*
X99727239Y-66863002D01*
X99704887Y-66865000D01*
X98326599Y-66865000D01*
X98318029Y-66864708D01*
X98268723Y-66861346D01*
X98268719Y-66861346D01*
X98261148Y-66860830D01*
X98253672Y-66862135D01*
X98253668Y-66862135D01*
X98199076Y-66871663D01*
X98192551Y-66872626D01*
X98137582Y-66879278D01*
X98137580Y-66879279D01*
X98130040Y-66880191D01*
X98122938Y-66882875D01*
X98119500Y-66883719D01*
X98105377Y-66887583D01*
X98101965Y-66888613D01*
X98094483Y-66889919D01*
X98087530Y-66892971D01*
X98087524Y-66892973D01*
X98036806Y-66915237D01*
X98030710Y-66917725D01*
X98018106Y-66922488D01*
X97978885Y-66937308D01*
X97978882Y-66937310D01*
X97971778Y-66939994D01*
X97965514Y-66944299D01*
X97962347Y-66945955D01*
X97949582Y-66953060D01*
X97946525Y-66954868D01*
X97939567Y-66957922D01*
X97933539Y-66962547D01*
X97933538Y-66962548D01*
X97889604Y-66996260D01*
X97884267Y-67000138D01*
X97842849Y-67028604D01*
X97832348Y-67035821D01*
X97827296Y-67041491D01*
X97827295Y-67041492D01*
X97791482Y-67081688D01*
X97786501Y-67086964D01*
X96363462Y-68510003D01*
X96357197Y-68515856D01*
X96314226Y-68553342D01*
X96309859Y-68559556D01*
X96278006Y-68604878D01*
X96274073Y-68610174D01*
X96239894Y-68653763D01*
X96239892Y-68653766D01*
X96235208Y-68659740D01*
X96232082Y-68666664D01*
X96230244Y-68669699D01*
X96223000Y-68682398D01*
X96221312Y-68685546D01*
X96216944Y-68691761D01*
X96197550Y-68741506D01*
X96194067Y-68750439D01*
X96191522Y-68756495D01*
X96165587Y-68813935D01*
X96164202Y-68821408D01*
X96163131Y-68824826D01*
X96159146Y-68838815D01*
X96158249Y-68842307D01*
X96155488Y-68849389D01*
X96154496Y-68856922D01*
X96154496Y-68856923D01*
X96147267Y-68911830D01*
X96146235Y-68918343D01*
X96136736Y-68969598D01*
X96134755Y-68980287D01*
X96135192Y-68987867D01*
X96135192Y-68987868D01*
X96138291Y-69041612D01*
X96138500Y-69048865D01*
X96138500Y-70295000D01*
X96118498Y-70363121D01*
X96064842Y-70409614D01*
X96012500Y-70421000D01*
X93940725Y-70421000D01*
X93872604Y-70400998D01*
X93851630Y-70384095D01*
X92747405Y-69279870D01*
X92713379Y-69217558D01*
X92710500Y-69190775D01*
X92710500Y-67465599D01*
X92710792Y-67457029D01*
X92714154Y-67407723D01*
X92714154Y-67407719D01*
X92714670Y-67400148D01*
X92713365Y-67392672D01*
X92713365Y-67392668D01*
X92703837Y-67338076D01*
X92702874Y-67331551D01*
X92696222Y-67276582D01*
X92696221Y-67276580D01*
X92695309Y-67269040D01*
X92692625Y-67261938D01*
X92691781Y-67258500D01*
X92687917Y-67244377D01*
X92686887Y-67240965D01*
X92685581Y-67233483D01*
X92682529Y-67226530D01*
X92682527Y-67226524D01*
X92660263Y-67175806D01*
X92657770Y-67169698D01*
X92657693Y-67169492D01*
X92635506Y-67110778D01*
X92631201Y-67104514D01*
X92629545Y-67101347D01*
X92622440Y-67088582D01*
X92620632Y-67085525D01*
X92617578Y-67078567D01*
X92610290Y-67069069D01*
X92579240Y-67028604D01*
X92575362Y-67023267D01*
X92543981Y-66977607D01*
X92543979Y-66977605D01*
X92539679Y-66971348D01*
X92530878Y-66963506D01*
X92493812Y-66930482D01*
X92488536Y-66925501D01*
X92290175Y-66727140D01*
X93356963Y-66727140D01*
X93374663Y-66907660D01*
X93431918Y-67079773D01*
X93435565Y-67085795D01*
X93435566Y-67085797D01*
X93520793Y-67226524D01*
X93525880Y-67234924D01*
X93530769Y-67239987D01*
X93530770Y-67239988D01*
X93566109Y-67276582D01*
X93651882Y-67365402D01*
X93707599Y-67401862D01*
X93796011Y-67459717D01*
X93803659Y-67464722D01*
X93810263Y-67467178D01*
X93810265Y-67467179D01*
X93967058Y-67525490D01*
X93967060Y-67525490D01*
X93973668Y-67527948D01*
X94057495Y-67539133D01*
X94146480Y-67551007D01*
X94146484Y-67551007D01*
X94153461Y-67551938D01*
X94160472Y-67551300D01*
X94160476Y-67551300D01*
X94302959Y-67538332D01*
X94334100Y-67535498D01*
X94340802Y-67533320D01*
X94340804Y-67533320D01*
X94499909Y-67481624D01*
X94499912Y-67481623D01*
X94506608Y-67479447D01*
X94626926Y-67407723D01*
X94656360Y-67390177D01*
X94656362Y-67390176D01*
X94662412Y-67386569D01*
X94793766Y-67261482D01*
X94894143Y-67110402D01*
X94948885Y-66966295D01*
X94956055Y-66947420D01*
X94956056Y-66947418D01*
X94958555Y-66940838D01*
X94959535Y-66933866D01*
X94983248Y-66765139D01*
X94983248Y-66765136D01*
X94983799Y-66761217D01*
X94983952Y-66750238D01*
X94984061Y-66742462D01*
X94984061Y-66742457D01*
X94984116Y-66738500D01*
X94963897Y-66558245D01*
X94961580Y-66551591D01*
X94906564Y-66393606D01*
X94906562Y-66393603D01*
X94904245Y-66386948D01*
X94861856Y-66319111D01*
X94811859Y-66239098D01*
X94808126Y-66233124D01*
X94782155Y-66206971D01*
X94685278Y-66109415D01*
X94685274Y-66109412D01*
X94680315Y-66104418D01*
X94670075Y-66097919D01*
X94616754Y-66064081D01*
X94527166Y-66007227D01*
X94458216Y-65982675D01*
X94362925Y-65948743D01*
X94362920Y-65948742D01*
X94356290Y-65946381D01*
X94349302Y-65945548D01*
X94349299Y-65945547D01*
X94226198Y-65930868D01*
X94176180Y-65924904D01*
X94169177Y-65925640D01*
X94169176Y-65925640D01*
X94002788Y-65943128D01*
X94002786Y-65943129D01*
X93995788Y-65943864D01*
X93824079Y-66002318D01*
X93818075Y-66006012D01*
X93675595Y-66093666D01*
X93675592Y-66093668D01*
X93669588Y-66097362D01*
X93664553Y-66102293D01*
X93664550Y-66102295D01*
X93557659Y-66206971D01*
X93539993Y-66224271D01*
X93441735Y-66376738D01*
X93439326Y-66383358D01*
X93439324Y-66383361D01*
X93382712Y-66538902D01*
X93379697Y-66547185D01*
X93356963Y-66727140D01*
X92290175Y-66727140D01*
X91509997Y-65946962D01*
X91504143Y-65940696D01*
X91482271Y-65915624D01*
X91466658Y-65897726D01*
X91415122Y-65861506D01*
X91409826Y-65857573D01*
X91366237Y-65823394D01*
X91366234Y-65823392D01*
X91360260Y-65818708D01*
X91353336Y-65815582D01*
X91350301Y-65813744D01*
X91337602Y-65806500D01*
X91334454Y-65804812D01*
X91328239Y-65800444D01*
X91269550Y-65777562D01*
X91263505Y-65775022D01*
X91206065Y-65749087D01*
X91198592Y-65747702D01*
X91195174Y-65746631D01*
X91181185Y-65742646D01*
X91177693Y-65741749D01*
X91170611Y-65738988D01*
X91163078Y-65737996D01*
X91163077Y-65737996D01*
X91108170Y-65730767D01*
X91101657Y-65729735D01*
X91047182Y-65719639D01*
X91047180Y-65719639D01*
X91039713Y-65718255D01*
X91032133Y-65718692D01*
X91032132Y-65718692D01*
X90978388Y-65721791D01*
X90971135Y-65722000D01*
X88889903Y-65722000D01*
X88821782Y-65701998D01*
X88775289Y-65648342D01*
X88765185Y-65578068D01*
X88772113Y-65551262D01*
X88799055Y-65480338D01*
X88805325Y-65435727D01*
X88823748Y-65304639D01*
X88823748Y-65304636D01*
X88824299Y-65300717D01*
X88824616Y-65278000D01*
X88804397Y-65097745D01*
X88800678Y-65087066D01*
X88747064Y-64933106D01*
X88747062Y-64933103D01*
X88744745Y-64926448D01*
X88648626Y-64772624D01*
X88642110Y-64766062D01*
X88525778Y-64648915D01*
X88525774Y-64648912D01*
X88520815Y-64643918D01*
X88509697Y-64636862D01*
X88450822Y-64599499D01*
X88367666Y-64546727D01*
X88334050Y-64534757D01*
X88203425Y-64488243D01*
X88203420Y-64488242D01*
X88196790Y-64485881D01*
X88189802Y-64485048D01*
X88189799Y-64485047D01*
X88066698Y-64470368D01*
X88016680Y-64464404D01*
X88009677Y-64465140D01*
X88009676Y-64465140D01*
X87843288Y-64482628D01*
X87843286Y-64482629D01*
X87836288Y-64483364D01*
X87691393Y-64532690D01*
X87672029Y-64539282D01*
X87664579Y-64541818D01*
X87638016Y-64558160D01*
X87516095Y-64633166D01*
X87516092Y-64633168D01*
X87510088Y-64636862D01*
X87505053Y-64641793D01*
X87505050Y-64641795D01*
X87385525Y-64758843D01*
X87380493Y-64763771D01*
X87282235Y-64916238D01*
X87279826Y-64922858D01*
X87279824Y-64922861D01*
X87225235Y-65072844D01*
X87220197Y-65086685D01*
X87197463Y-65266640D01*
X87215163Y-65447160D01*
X87222893Y-65470397D01*
X87225417Y-65541346D01*
X87189180Y-65602399D01*
X87125689Y-65634169D01*
X87055100Y-65626570D01*
X87014240Y-65599263D01*
X86671438Y-65256461D01*
X86665584Y-65250195D01*
X86633093Y-65212950D01*
X86628099Y-65207225D01*
X86576563Y-65171005D01*
X86571267Y-65167072D01*
X86527678Y-65132893D01*
X86527675Y-65132891D01*
X86521701Y-65128207D01*
X86514777Y-65125081D01*
X86511742Y-65123243D01*
X86499043Y-65115999D01*
X86495895Y-65114311D01*
X86489680Y-65109943D01*
X86430991Y-65087061D01*
X86424946Y-65084521D01*
X86367506Y-65058586D01*
X86360033Y-65057201D01*
X86356615Y-65056130D01*
X86342626Y-65052145D01*
X86339134Y-65051248D01*
X86332052Y-65048487D01*
X86324519Y-65047495D01*
X86324518Y-65047495D01*
X86269611Y-65040266D01*
X86263098Y-65039234D01*
X86208623Y-65029138D01*
X86208621Y-65029138D01*
X86201154Y-65027754D01*
X86193574Y-65028191D01*
X86193573Y-65028191D01*
X86139829Y-65031290D01*
X86132576Y-65031499D01*
X85101472Y-65031499D01*
X85033351Y-65011497D01*
X84986858Y-64957841D01*
X84976754Y-64887567D01*
X84979765Y-64872888D01*
X84985740Y-64850590D01*
X84989815Y-64835383D01*
X84991682Y-64829082D01*
X85010313Y-64771740D01*
X85012355Y-64765456D01*
X85013072Y-64758640D01*
X85013772Y-64751971D01*
X85017376Y-64732523D01*
X85019180Y-64725793D01*
X85019180Y-64725792D01*
X85020889Y-64719415D01*
X85021609Y-64705685D01*
X85024390Y-64652613D01*
X85024907Y-64646039D01*
X85026656Y-64629395D01*
X85026656Y-64629391D01*
X85027000Y-64626120D01*
X85027000Y-64606093D01*
X85027173Y-64599499D01*
X85030329Y-64539282D01*
X85030329Y-64539278D01*
X85030674Y-64532690D01*
X85028551Y-64519285D01*
X85027000Y-64499575D01*
X85027000Y-63897425D01*
X85028551Y-63877714D01*
X85029642Y-63870827D01*
X85029642Y-63870825D01*
X85030674Y-63864310D01*
X85030257Y-63856340D01*
X85027173Y-63797501D01*
X85027000Y-63790907D01*
X85027000Y-63770880D01*
X85025848Y-63759915D01*
X85024907Y-63750961D01*
X85024390Y-63744387D01*
X85024298Y-63742640D01*
X88340463Y-63742640D01*
X88358163Y-63923160D01*
X88415418Y-64095273D01*
X88419065Y-64101295D01*
X88419066Y-64101297D01*
X88492976Y-64223337D01*
X88509380Y-64250424D01*
X88514269Y-64255487D01*
X88514270Y-64255488D01*
X88581919Y-64325540D01*
X88635382Y-64380902D01*
X88687277Y-64414861D01*
X88762987Y-64464404D01*
X88787159Y-64480222D01*
X88793763Y-64482678D01*
X88793765Y-64482679D01*
X88950558Y-64540990D01*
X88950560Y-64540990D01*
X88957168Y-64543448D01*
X89040995Y-64554633D01*
X89129980Y-64566507D01*
X89129984Y-64566507D01*
X89136961Y-64567438D01*
X89143972Y-64566800D01*
X89143976Y-64566800D01*
X89286459Y-64553832D01*
X89317600Y-64550998D01*
X89324302Y-64548820D01*
X89324304Y-64548820D01*
X89483409Y-64497124D01*
X89483412Y-64497123D01*
X89490108Y-64494947D01*
X89623148Y-64415639D01*
X89639860Y-64405677D01*
X89639862Y-64405676D01*
X89645912Y-64402069D01*
X89777266Y-64276982D01*
X89877643Y-64125902D01*
X89923332Y-64005627D01*
X89939555Y-63962920D01*
X89939556Y-63962918D01*
X89942055Y-63956338D01*
X89945414Y-63932438D01*
X89966748Y-63780639D01*
X89966748Y-63780636D01*
X89967299Y-63776717D01*
X89967452Y-63765738D01*
X89967561Y-63757962D01*
X89967561Y-63757957D01*
X89967616Y-63754000D01*
X89947397Y-63573745D01*
X89944277Y-63564785D01*
X89917761Y-63488640D01*
X103961463Y-63488640D01*
X103979163Y-63669160D01*
X104036418Y-63841273D01*
X104040065Y-63847295D01*
X104040066Y-63847297D01*
X104122112Y-63982771D01*
X104130380Y-63996424D01*
X104135269Y-64001487D01*
X104135270Y-64001488D01*
X104139267Y-64005627D01*
X104256382Y-64126902D01*
X104408159Y-64226222D01*
X104515070Y-64265982D01*
X104571942Y-64308472D01*
X104596804Y-64374937D01*
X104596463Y-64377640D01*
X104597077Y-64383900D01*
X104597077Y-64383906D01*
X104600189Y-64415639D01*
X104614163Y-64558160D01*
X104671418Y-64730273D01*
X104675065Y-64736295D01*
X104675066Y-64736297D01*
X104761730Y-64879398D01*
X104761733Y-64879401D01*
X104765380Y-64885424D01*
X104766496Y-64886579D01*
X104791433Y-64950749D01*
X104777291Y-65020322D01*
X104771809Y-65029694D01*
X104681235Y-65170238D01*
X104678826Y-65176858D01*
X104678824Y-65176861D01*
X104621606Y-65334066D01*
X104619197Y-65340685D01*
X104596463Y-65520640D01*
X104614163Y-65701160D01*
X104671418Y-65873273D01*
X104675065Y-65879295D01*
X104675066Y-65879297D01*
X104693449Y-65909651D01*
X104711628Y-65978281D01*
X104691586Y-66043174D01*
X104685055Y-66053309D01*
X104685054Y-66053312D01*
X104681235Y-66059238D01*
X104678826Y-66065858D01*
X104678825Y-66065859D01*
X104626144Y-66210598D01*
X104619197Y-66229685D01*
X104596463Y-66409640D01*
X104614163Y-66590160D01*
X104671418Y-66762273D01*
X104675065Y-66768295D01*
X104675066Y-66768297D01*
X104685978Y-66786314D01*
X104731419Y-66861346D01*
X104733101Y-66864124D01*
X104751280Y-66932753D01*
X104731236Y-66997650D01*
X104685054Y-67069310D01*
X104685050Y-67069319D01*
X104681235Y-67075238D01*
X104678826Y-67081858D01*
X104678825Y-67081859D01*
X104623114Y-67234924D01*
X104619197Y-67245685D01*
X104596463Y-67425640D01*
X104614163Y-67606160D01*
X104671418Y-67778273D01*
X104675065Y-67784295D01*
X104675066Y-67784297D01*
X104755581Y-67917243D01*
X104765380Y-67933424D01*
X104770269Y-67938487D01*
X104770270Y-67938488D01*
X104799298Y-67968547D01*
X104891382Y-68063902D01*
X104967271Y-68113562D01*
X105035511Y-68158217D01*
X105043159Y-68163222D01*
X105049763Y-68165678D01*
X105049765Y-68165679D01*
X105206558Y-68223990D01*
X105206560Y-68223990D01*
X105213168Y-68226448D01*
X105296995Y-68237633D01*
X105385980Y-68249507D01*
X105385984Y-68249507D01*
X105392961Y-68250438D01*
X105399972Y-68249800D01*
X105399976Y-68249800D01*
X105542459Y-68236832D01*
X105573600Y-68233998D01*
X105580302Y-68231820D01*
X105580304Y-68231820D01*
X105739409Y-68180124D01*
X105739412Y-68180123D01*
X105746108Y-68177947D01*
X105836370Y-68124140D01*
X108342963Y-68124140D01*
X108360663Y-68304660D01*
X108417918Y-68476773D01*
X108421565Y-68482795D01*
X108421566Y-68482797D01*
X108506529Y-68623088D01*
X108511880Y-68631924D01*
X108516769Y-68636987D01*
X108516770Y-68636988D01*
X108566656Y-68688646D01*
X108637882Y-68762402D01*
X108703251Y-68805178D01*
X108777616Y-68853841D01*
X108789659Y-68861722D01*
X108796263Y-68864178D01*
X108796265Y-68864179D01*
X108953058Y-68922490D01*
X108953060Y-68922490D01*
X108959668Y-68924948D01*
X109032245Y-68934632D01*
X109132480Y-68948007D01*
X109132484Y-68948007D01*
X109139461Y-68948938D01*
X109146472Y-68948300D01*
X109146476Y-68948300D01*
X109296652Y-68934632D01*
X109320100Y-68932498D01*
X109326802Y-68930320D01*
X109326804Y-68930320D01*
X109485909Y-68878624D01*
X109485912Y-68878623D01*
X109492608Y-68876447D01*
X109599130Y-68812947D01*
X109642360Y-68787177D01*
X109642362Y-68787176D01*
X109648412Y-68783569D01*
X109779766Y-68658482D01*
X109880143Y-68507402D01*
X109929223Y-68378200D01*
X109942055Y-68344420D01*
X109942056Y-68344418D01*
X109944555Y-68337838D01*
X109948069Y-68312834D01*
X109969248Y-68162139D01*
X109969248Y-68162136D01*
X109969799Y-68158217D01*
X109970116Y-68135500D01*
X109949897Y-67955245D01*
X109947427Y-67948151D01*
X109892564Y-67790606D01*
X109892562Y-67790603D01*
X109890245Y-67783948D01*
X109831309Y-67689630D01*
X109797859Y-67636098D01*
X109794126Y-67630124D01*
X109764730Y-67600522D01*
X109671278Y-67506415D01*
X109671274Y-67506412D01*
X109666315Y-67501418D01*
X109655197Y-67494362D01*
X109602412Y-67460864D01*
X109513166Y-67404227D01*
X109473709Y-67390177D01*
X109348925Y-67345743D01*
X109348920Y-67345742D01*
X109342290Y-67343381D01*
X109335302Y-67342548D01*
X109335299Y-67342547D01*
X109212198Y-67327868D01*
X109162180Y-67321904D01*
X109155177Y-67322640D01*
X109155176Y-67322640D01*
X108988788Y-67340128D01*
X108988786Y-67340129D01*
X108981788Y-67340864D01*
X108810079Y-67399318D01*
X108764813Y-67427166D01*
X108661595Y-67490666D01*
X108661592Y-67490668D01*
X108655588Y-67494362D01*
X108650553Y-67499293D01*
X108650550Y-67499295D01*
X108534598Y-67612844D01*
X108525993Y-67621271D01*
X108427735Y-67773738D01*
X108425326Y-67780358D01*
X108425324Y-67780361D01*
X108369614Y-67933424D01*
X108365697Y-67944185D01*
X108342963Y-68124140D01*
X105836370Y-68124140D01*
X105859221Y-68110518D01*
X105895860Y-68088677D01*
X105895862Y-68088676D01*
X105901912Y-68085069D01*
X106033266Y-67959982D01*
X106133643Y-67808902D01*
X106198055Y-67639338D01*
X106201287Y-67616343D01*
X106222748Y-67463639D01*
X106222748Y-67463636D01*
X106223299Y-67459717D01*
X106223616Y-67437000D01*
X106203397Y-67256745D01*
X106201080Y-67250091D01*
X106146064Y-67092106D01*
X106146062Y-67092103D01*
X106143745Y-67085448D01*
X106087674Y-66995715D01*
X106068539Y-66927349D01*
X106089581Y-66859221D01*
X106114941Y-66821051D01*
X106133643Y-66792902D01*
X106184970Y-66657785D01*
X106195555Y-66629920D01*
X106195556Y-66629918D01*
X106198055Y-66623338D01*
X106201778Y-66596845D01*
X106222748Y-66447639D01*
X106222748Y-66447636D01*
X106223299Y-66443717D01*
X106223452Y-66432738D01*
X106223561Y-66424962D01*
X106223561Y-66424957D01*
X106223616Y-66421000D01*
X106203397Y-66240745D01*
X106200743Y-66233124D01*
X106146064Y-66076106D01*
X106146062Y-66076103D01*
X106143745Y-66069448D01*
X106128569Y-66045162D01*
X106109435Y-65976794D01*
X106127972Y-65916780D01*
X106126524Y-65916036D01*
X106129745Y-65909770D01*
X106133643Y-65903902D01*
X106163344Y-65825715D01*
X106195555Y-65740920D01*
X106195556Y-65740918D01*
X106198055Y-65734338D01*
X106199789Y-65722000D01*
X106222748Y-65558639D01*
X106222748Y-65558636D01*
X106223299Y-65554717D01*
X106223486Y-65541346D01*
X106223561Y-65535962D01*
X106223561Y-65535957D01*
X106223616Y-65532000D01*
X106203397Y-65351745D01*
X106201080Y-65345091D01*
X106146064Y-65187106D01*
X106146062Y-65187103D01*
X106143745Y-65180448D01*
X106047626Y-65026624D01*
X106050010Y-65025134D01*
X106028145Y-64971090D01*
X106041327Y-64901328D01*
X106048582Y-64888929D01*
X106133643Y-64760902D01*
X106183598Y-64629395D01*
X106195555Y-64597920D01*
X106195556Y-64597918D01*
X106198055Y-64591338D01*
X106199911Y-64578132D01*
X106210240Y-64504640D01*
X116026463Y-64504640D01*
X116044163Y-64685160D01*
X116101418Y-64857273D01*
X116105065Y-64863295D01*
X116105066Y-64863297D01*
X116162324Y-64957841D01*
X116195380Y-65012424D01*
X116200269Y-65017487D01*
X116200270Y-65017488D01*
X116267461Y-65087066D01*
X116321382Y-65142902D01*
X116373277Y-65176861D01*
X116456912Y-65231590D01*
X116473159Y-65242222D01*
X116479763Y-65244678D01*
X116479765Y-65244679D01*
X116636558Y-65302990D01*
X116636560Y-65302990D01*
X116643168Y-65305448D01*
X116726995Y-65316633D01*
X116815980Y-65328507D01*
X116815984Y-65328507D01*
X116822961Y-65329438D01*
X116829972Y-65328800D01*
X116829976Y-65328800D01*
X116972459Y-65315832D01*
X117003600Y-65312998D01*
X117010302Y-65310820D01*
X117010304Y-65310820D01*
X117169409Y-65259124D01*
X117169412Y-65259123D01*
X117176108Y-65256947D01*
X117304436Y-65180448D01*
X117325860Y-65167677D01*
X117325862Y-65167676D01*
X117331912Y-65164069D01*
X117463266Y-65038982D01*
X117563643Y-64887902D01*
X117564502Y-64885640D01*
X122249463Y-64885640D01*
X122267163Y-65066160D01*
X122324418Y-65238273D01*
X122328065Y-65244295D01*
X122328066Y-65244297D01*
X122408581Y-65377243D01*
X122418380Y-65393424D01*
X122423269Y-65398487D01*
X122423270Y-65398488D01*
X122492710Y-65470394D01*
X122544382Y-65523902D01*
X122552391Y-65529143D01*
X122671987Y-65607404D01*
X122696159Y-65623222D01*
X122702763Y-65625678D01*
X122702765Y-65625679D01*
X122859558Y-65683990D01*
X122859560Y-65683990D01*
X122866168Y-65686448D01*
X122949995Y-65697633D01*
X123038980Y-65709507D01*
X123038984Y-65709507D01*
X123045961Y-65710438D01*
X123052972Y-65709800D01*
X123052976Y-65709800D01*
X123195459Y-65696832D01*
X123226600Y-65693998D01*
X123233302Y-65691820D01*
X123233304Y-65691820D01*
X123392409Y-65640124D01*
X123392412Y-65640123D01*
X123399108Y-65637947D01*
X123532148Y-65558639D01*
X123548860Y-65548677D01*
X123548862Y-65548676D01*
X123554912Y-65545069D01*
X123686266Y-65419982D01*
X123786643Y-65268902D01*
X123833041Y-65146760D01*
X123848555Y-65105920D01*
X123848556Y-65105918D01*
X123851055Y-65099338D01*
X123852833Y-65086685D01*
X123875748Y-64923639D01*
X123875748Y-64923636D01*
X123876299Y-64919717D01*
X123876616Y-64897000D01*
X123856397Y-64716745D01*
X123854080Y-64710091D01*
X123799064Y-64552106D01*
X123799062Y-64552103D01*
X123796745Y-64545448D01*
X123746625Y-64465238D01*
X123704359Y-64397598D01*
X123700626Y-64391624D01*
X123686941Y-64377843D01*
X123577778Y-64267915D01*
X123577774Y-64267912D01*
X123572815Y-64262918D01*
X123566683Y-64259026D01*
X123487452Y-64208745D01*
X123419666Y-64165727D01*
X123349986Y-64140915D01*
X123255425Y-64107243D01*
X123255420Y-64107242D01*
X123248790Y-64104881D01*
X123241802Y-64104048D01*
X123241799Y-64104047D01*
X123112171Y-64088590D01*
X123068680Y-64083404D01*
X123061677Y-64084140D01*
X123061676Y-64084140D01*
X122895288Y-64101628D01*
X122895286Y-64101629D01*
X122888288Y-64102364D01*
X122716579Y-64160818D01*
X122675739Y-64185943D01*
X122568095Y-64252166D01*
X122568092Y-64252168D01*
X122562088Y-64255862D01*
X122557053Y-64260793D01*
X122557050Y-64260795D01*
X122437525Y-64377843D01*
X122432493Y-64382771D01*
X122334235Y-64535238D01*
X122331826Y-64541858D01*
X122331824Y-64541861D01*
X122277235Y-64691844D01*
X122272197Y-64705685D01*
X122249463Y-64885640D01*
X117564502Y-64885640D01*
X117610156Y-64765456D01*
X117625555Y-64724920D01*
X117625556Y-64724918D01*
X117628055Y-64718338D01*
X117629833Y-64705685D01*
X117652748Y-64542639D01*
X117652748Y-64542636D01*
X117653299Y-64538717D01*
X117653616Y-64516000D01*
X117633397Y-64335745D01*
X117629843Y-64325540D01*
X117576064Y-64171106D01*
X117576062Y-64171103D01*
X117573745Y-64164448D01*
X117545542Y-64119314D01*
X117481359Y-64016598D01*
X117477626Y-64010624D01*
X117449967Y-63982771D01*
X117354778Y-63886915D01*
X117354774Y-63886912D01*
X117349815Y-63881918D01*
X117338697Y-63874862D01*
X117290538Y-63844300D01*
X117196666Y-63784727D01*
X117157779Y-63770880D01*
X117032425Y-63726243D01*
X117032420Y-63726242D01*
X117025790Y-63723881D01*
X117018802Y-63723048D01*
X117018799Y-63723047D01*
X116875610Y-63705973D01*
X116845680Y-63702404D01*
X116838677Y-63703140D01*
X116838676Y-63703140D01*
X116672288Y-63720628D01*
X116672286Y-63720629D01*
X116665288Y-63721364D01*
X116493579Y-63779818D01*
X116470202Y-63794200D01*
X116345095Y-63871166D01*
X116345092Y-63871168D01*
X116339088Y-63874862D01*
X116334053Y-63879793D01*
X116334050Y-63879795D01*
X116214953Y-63996424D01*
X116209493Y-64001771D01*
X116111235Y-64154238D01*
X116108826Y-64160858D01*
X116108824Y-64160861D01*
X116064791Y-64281841D01*
X116049197Y-64324685D01*
X116026463Y-64504640D01*
X106210240Y-64504640D01*
X106222748Y-64415639D01*
X106222748Y-64415636D01*
X106223299Y-64411717D01*
X106223496Y-64397598D01*
X106223561Y-64392962D01*
X106223561Y-64392957D01*
X106223616Y-64389000D01*
X106203397Y-64208745D01*
X106196766Y-64189703D01*
X106146064Y-64044106D01*
X106146062Y-64044103D01*
X106143745Y-64037448D01*
X106093625Y-63957238D01*
X106051359Y-63889598D01*
X106047626Y-63883624D01*
X106034918Y-63870827D01*
X105924778Y-63759915D01*
X105924774Y-63759912D01*
X105919815Y-63754918D01*
X105912164Y-63750062D01*
X105838380Y-63703238D01*
X105766666Y-63657727D01*
X105672286Y-63624120D01*
X105614822Y-63582426D01*
X105589022Y-63516283D01*
X105588618Y-63505144D01*
X105588561Y-63503970D01*
X105588616Y-63500000D01*
X105568397Y-63319745D01*
X105565743Y-63312124D01*
X105511064Y-63155106D01*
X105511062Y-63155103D01*
X105508745Y-63148448D01*
X105493569Y-63124162D01*
X105474435Y-63055794D01*
X105492972Y-62995780D01*
X105491524Y-62995036D01*
X105494745Y-62988770D01*
X105498643Y-62982902D01*
X105501145Y-62976316D01*
X105560555Y-62819920D01*
X105560556Y-62819918D01*
X105563055Y-62813338D01*
X105565773Y-62793997D01*
X105587748Y-62637639D01*
X105587748Y-62637636D01*
X105588299Y-62633717D01*
X105588616Y-62611000D01*
X105568397Y-62430745D01*
X105564546Y-62419685D01*
X105508745Y-62259448D01*
X105510160Y-62258955D01*
X105500065Y-62196842D01*
X105528371Y-62131732D01*
X105586152Y-62092655D01*
X105619108Y-62081947D01*
X105774912Y-61989069D01*
X105906266Y-61863982D01*
X106006643Y-61712902D01*
X106053762Y-61588862D01*
X106055746Y-61583640D01*
X115391463Y-61583640D01*
X115409163Y-61764160D01*
X115466418Y-61936273D01*
X115470065Y-61942295D01*
X115470066Y-61942297D01*
X115554641Y-62081947D01*
X115560380Y-62091424D01*
X115565269Y-62096487D01*
X115565270Y-62096488D01*
X115567361Y-62098653D01*
X115686382Y-62221902D01*
X115838159Y-62321222D01*
X115844763Y-62323678D01*
X115844765Y-62323679D01*
X116001558Y-62381990D01*
X116001560Y-62381990D01*
X116008168Y-62384448D01*
X116091995Y-62395633D01*
X116180980Y-62407507D01*
X116180984Y-62407507D01*
X116187961Y-62408438D01*
X116194972Y-62407800D01*
X116194976Y-62407800D01*
X116337459Y-62394832D01*
X116368600Y-62391998D01*
X116375302Y-62389820D01*
X116375304Y-62389820D01*
X116534409Y-62338124D01*
X116534412Y-62338123D01*
X116541108Y-62335947D01*
X116637513Y-62278478D01*
X116690860Y-62246677D01*
X116690862Y-62246676D01*
X116696912Y-62243069D01*
X116828266Y-62117982D01*
X116845095Y-62092653D01*
X116927230Y-61969029D01*
X116981587Y-61923358D01*
X117052007Y-61914326D01*
X117116131Y-61944799D01*
X117139954Y-61973485D01*
X117205641Y-62081947D01*
X117211380Y-62091424D01*
X117216269Y-62096487D01*
X117216270Y-62096488D01*
X117218361Y-62098653D01*
X117337382Y-62221902D01*
X117489159Y-62321222D01*
X117495763Y-62323678D01*
X117495765Y-62323679D01*
X117652558Y-62381990D01*
X117652560Y-62381990D01*
X117659168Y-62384448D01*
X117742995Y-62395633D01*
X117831980Y-62407507D01*
X117831984Y-62407507D01*
X117838961Y-62408438D01*
X117845972Y-62407800D01*
X117845976Y-62407800D01*
X117988459Y-62394832D01*
X118019600Y-62391998D01*
X118026302Y-62389820D01*
X118026304Y-62389820D01*
X118185409Y-62338124D01*
X118185412Y-62338123D01*
X118192108Y-62335947D01*
X118288513Y-62278478D01*
X118341860Y-62246677D01*
X118341862Y-62246676D01*
X118347912Y-62243069D01*
X118373565Y-62218640D01*
X132917463Y-62218640D01*
X132935163Y-62399160D01*
X132992418Y-62571273D01*
X132996065Y-62577295D01*
X132996066Y-62577297D01*
X133013845Y-62606653D01*
X133086380Y-62726424D01*
X133091269Y-62731487D01*
X133091270Y-62731488D01*
X133144727Y-62786844D01*
X133212382Y-62856902D01*
X133218278Y-62860760D01*
X133347912Y-62945590D01*
X133364159Y-62956222D01*
X133370763Y-62958678D01*
X133370765Y-62958679D01*
X133527558Y-63016990D01*
X133527560Y-63016990D01*
X133534168Y-63019448D01*
X133617995Y-63030633D01*
X133706980Y-63042507D01*
X133706984Y-63042507D01*
X133713961Y-63043438D01*
X133720972Y-63042800D01*
X133720976Y-63042800D01*
X133863459Y-63029832D01*
X133894600Y-63026998D01*
X133901302Y-63024820D01*
X133901304Y-63024820D01*
X134060409Y-62973124D01*
X134060412Y-62973123D01*
X134067108Y-62970947D01*
X134222912Y-62878069D01*
X134228018Y-62873207D01*
X134311197Y-62793997D01*
X134374322Y-62761504D01*
X134444992Y-62768297D01*
X134488724Y-62797714D01*
X134545882Y-62856902D01*
X134551778Y-62860760D01*
X134681412Y-62945590D01*
X134697659Y-62956222D01*
X134704263Y-62958678D01*
X134704265Y-62958679D01*
X134861058Y-63016990D01*
X134861060Y-63016990D01*
X134867668Y-63019448D01*
X134951495Y-63030633D01*
X135040480Y-63042507D01*
X135040484Y-63042507D01*
X135047461Y-63043438D01*
X135054472Y-63042800D01*
X135054476Y-63042800D01*
X135196959Y-63029832D01*
X135228100Y-63026998D01*
X135234802Y-63024820D01*
X135234804Y-63024820D01*
X135393909Y-62973124D01*
X135393912Y-62973123D01*
X135400608Y-62970947D01*
X135556412Y-62878069D01*
X135687766Y-62752982D01*
X135788143Y-62601902D01*
X135844406Y-62453790D01*
X135850055Y-62438920D01*
X135850056Y-62438918D01*
X135852555Y-62432338D01*
X135854737Y-62416810D01*
X135877248Y-62256639D01*
X135877248Y-62256636D01*
X135877799Y-62252717D01*
X135877952Y-62241738D01*
X135878061Y-62233962D01*
X135878061Y-62233957D01*
X135878116Y-62230000D01*
X135857897Y-62049745D01*
X135855580Y-62043091D01*
X135800564Y-61885106D01*
X135800562Y-61885103D01*
X135798245Y-61878448D01*
X135743206Y-61790366D01*
X135705859Y-61730598D01*
X135702126Y-61724624D01*
X135688441Y-61710843D01*
X135579278Y-61600915D01*
X135579274Y-61600912D01*
X135574315Y-61595918D01*
X135566664Y-61591062D01*
X135510412Y-61555364D01*
X135421166Y-61498727D01*
X135381709Y-61484677D01*
X135256925Y-61440243D01*
X135256920Y-61440242D01*
X135250290Y-61437881D01*
X135243302Y-61437048D01*
X135243299Y-61437047D01*
X135114962Y-61421744D01*
X135070180Y-61416404D01*
X135063177Y-61417140D01*
X135063176Y-61417140D01*
X134896788Y-61434628D01*
X134896786Y-61434629D01*
X134889788Y-61435364D01*
X134718079Y-61493818D01*
X134712075Y-61497512D01*
X134569595Y-61585166D01*
X134569592Y-61585168D01*
X134563588Y-61588862D01*
X134558553Y-61593793D01*
X134558550Y-61593795D01*
X134538166Y-61613757D01*
X134504794Y-61646438D01*
X134485794Y-61665044D01*
X134423129Y-61698415D01*
X134352370Y-61692609D01*
X134308230Y-61663805D01*
X134245778Y-61600915D01*
X134245774Y-61600912D01*
X134240815Y-61595918D01*
X134233164Y-61591062D01*
X134176912Y-61555364D01*
X134087666Y-61498727D01*
X134048209Y-61484677D01*
X133923425Y-61440243D01*
X133923420Y-61440242D01*
X133916790Y-61437881D01*
X133909802Y-61437048D01*
X133909799Y-61437047D01*
X133781462Y-61421744D01*
X133736680Y-61416404D01*
X133729677Y-61417140D01*
X133729676Y-61417140D01*
X133563288Y-61434628D01*
X133563286Y-61434629D01*
X133556288Y-61435364D01*
X133384579Y-61493818D01*
X133378575Y-61497512D01*
X133236095Y-61585166D01*
X133236092Y-61585168D01*
X133230088Y-61588862D01*
X133225053Y-61593793D01*
X133225050Y-61593795D01*
X133134700Y-61682273D01*
X133100493Y-61715771D01*
X133002235Y-61868238D01*
X132999826Y-61874858D01*
X132999824Y-61874861D01*
X132942606Y-62032066D01*
X132940197Y-62038685D01*
X132917463Y-62218640D01*
X118373565Y-62218640D01*
X118479266Y-62117982D01*
X118579643Y-61966902D01*
X118644055Y-61797338D01*
X118645035Y-61790366D01*
X118668748Y-61621639D01*
X118668748Y-61621636D01*
X118669299Y-61617717D01*
X118669452Y-61606738D01*
X118669561Y-61598962D01*
X118669561Y-61598957D01*
X118669616Y-61595000D01*
X118649397Y-61414745D01*
X118647080Y-61408091D01*
X118592064Y-61250106D01*
X118592062Y-61250103D01*
X118589745Y-61243448D01*
X118500153Y-61100069D01*
X118497359Y-61095598D01*
X118493626Y-61089624D01*
X118446254Y-61041920D01*
X118370778Y-60965915D01*
X118370774Y-60965912D01*
X118365815Y-60960918D01*
X118357688Y-60955760D01*
X118301912Y-60920364D01*
X118212666Y-60863727D01*
X118168449Y-60847982D01*
X118048425Y-60805243D01*
X118048420Y-60805242D01*
X118041790Y-60802881D01*
X118034802Y-60802048D01*
X118034799Y-60802047D01*
X117911698Y-60787368D01*
X117861680Y-60781404D01*
X117854677Y-60782140D01*
X117854676Y-60782140D01*
X117688288Y-60799628D01*
X117688286Y-60799629D01*
X117681288Y-60800364D01*
X117509579Y-60858818D01*
X117503575Y-60862512D01*
X117361095Y-60950166D01*
X117361092Y-60950168D01*
X117355088Y-60953862D01*
X117350053Y-60958793D01*
X117350050Y-60958795D01*
X117230953Y-61075424D01*
X117225493Y-61080771D01*
X117188329Y-61138438D01*
X117135849Y-61219871D01*
X117082135Y-61266296D01*
X117011848Y-61276311D01*
X116947305Y-61246736D01*
X116923084Y-61218385D01*
X116846359Y-61095598D01*
X116842626Y-61089624D01*
X116795254Y-61041920D01*
X116719778Y-60965915D01*
X116719774Y-60965912D01*
X116714815Y-60960918D01*
X116706688Y-60955760D01*
X116650912Y-60920364D01*
X116561666Y-60863727D01*
X116517449Y-60847982D01*
X116397425Y-60805243D01*
X116397420Y-60805242D01*
X116390790Y-60802881D01*
X116383802Y-60802048D01*
X116383799Y-60802047D01*
X116260698Y-60787368D01*
X116210680Y-60781404D01*
X116203677Y-60782140D01*
X116203676Y-60782140D01*
X116037288Y-60799628D01*
X116037286Y-60799629D01*
X116030288Y-60800364D01*
X115858579Y-60858818D01*
X115852575Y-60862512D01*
X115710095Y-60950166D01*
X115710092Y-60950168D01*
X115704088Y-60953862D01*
X115699053Y-60958793D01*
X115699050Y-60958795D01*
X115579953Y-61075424D01*
X115574493Y-61080771D01*
X115476235Y-61233238D01*
X115473826Y-61239858D01*
X115473824Y-61239861D01*
X115416606Y-61397066D01*
X115414197Y-61403685D01*
X115391463Y-61583640D01*
X106055746Y-61583640D01*
X106068555Y-61549920D01*
X106068556Y-61549918D01*
X106071055Y-61543338D01*
X106072035Y-61536366D01*
X106095748Y-61367639D01*
X106095748Y-61367636D01*
X106096299Y-61363717D01*
X106096616Y-61341000D01*
X106076397Y-61160745D01*
X106074080Y-61154091D01*
X106019064Y-60996106D01*
X106019062Y-60996103D01*
X106016745Y-60989448D01*
X105926019Y-60844255D01*
X105924359Y-60841598D01*
X105920626Y-60835624D01*
X105913810Y-60828760D01*
X105797778Y-60711915D01*
X105797774Y-60711912D01*
X105792815Y-60706918D01*
X105781697Y-60699862D01*
X105733538Y-60669300D01*
X105639666Y-60609727D01*
X105564501Y-60582962D01*
X105475425Y-60551243D01*
X105475420Y-60551242D01*
X105468790Y-60548881D01*
X105461802Y-60548048D01*
X105461799Y-60548047D01*
X105332171Y-60532590D01*
X105288680Y-60527404D01*
X105281677Y-60528140D01*
X105281676Y-60528140D01*
X105115288Y-60545628D01*
X105115286Y-60545629D01*
X105108288Y-60546364D01*
X104936579Y-60604818D01*
X104930575Y-60608512D01*
X104788095Y-60696166D01*
X104788092Y-60696168D01*
X104782088Y-60699862D01*
X104777053Y-60704793D01*
X104777050Y-60704795D01*
X104657525Y-60821843D01*
X104652493Y-60826771D01*
X104554235Y-60979238D01*
X104551826Y-60985858D01*
X104551824Y-60985861D01*
X104494606Y-61143066D01*
X104492197Y-61149685D01*
X104469463Y-61329640D01*
X104487163Y-61510160D01*
X104513314Y-61588771D01*
X104542193Y-61675586D01*
X104542195Y-61675590D01*
X104544418Y-61682273D01*
X104547646Y-61687604D01*
X104558016Y-61757513D01*
X104528811Y-61822224D01*
X104473825Y-61859415D01*
X104428579Y-61874818D01*
X104379412Y-61905066D01*
X104280095Y-61966166D01*
X104280092Y-61966168D01*
X104274088Y-61969862D01*
X104269053Y-61974793D01*
X104269050Y-61974795D01*
X104149525Y-62091843D01*
X104144493Y-62096771D01*
X104046235Y-62249238D01*
X104043826Y-62255858D01*
X104043824Y-62255861D01*
X103986606Y-62413066D01*
X103984197Y-62419685D01*
X103961463Y-62599640D01*
X103979163Y-62780160D01*
X104036418Y-62952273D01*
X104040065Y-62958295D01*
X104040066Y-62958297D01*
X104058449Y-62988651D01*
X104076628Y-63057281D01*
X104056586Y-63122174D01*
X104050055Y-63132309D01*
X104050052Y-63132315D01*
X104046235Y-63138238D01*
X104043828Y-63144852D01*
X104043825Y-63144859D01*
X103990348Y-63291785D01*
X103984197Y-63308685D01*
X103961463Y-63488640D01*
X89917761Y-63488640D01*
X89890064Y-63409106D01*
X89890062Y-63409103D01*
X89887745Y-63402448D01*
X89791626Y-63248624D01*
X89782683Y-63239618D01*
X89668778Y-63124915D01*
X89668774Y-63124912D01*
X89663815Y-63119918D01*
X89652697Y-63112862D01*
X89604538Y-63082300D01*
X89510666Y-63022727D01*
X89434990Y-62995780D01*
X89346425Y-62964243D01*
X89346420Y-62964242D01*
X89339790Y-62961881D01*
X89332802Y-62961048D01*
X89332799Y-62961047D01*
X89203171Y-62945590D01*
X89159680Y-62940404D01*
X89152677Y-62941140D01*
X89152676Y-62941140D01*
X88986288Y-62958628D01*
X88986286Y-62958629D01*
X88979288Y-62959364D01*
X88807579Y-63017818D01*
X88791619Y-63027637D01*
X88659095Y-63109166D01*
X88659092Y-63109168D01*
X88653088Y-63112862D01*
X88648053Y-63117793D01*
X88648050Y-63117795D01*
X88528525Y-63234843D01*
X88523493Y-63239771D01*
X88425235Y-63392238D01*
X88422826Y-63398858D01*
X88422824Y-63398861D01*
X88384790Y-63503359D01*
X88363197Y-63562685D01*
X88340463Y-63742640D01*
X85024298Y-63742640D01*
X85021235Y-63684184D01*
X85021235Y-63684182D01*
X85020889Y-63677585D01*
X85017375Y-63664472D01*
X85013772Y-63645029D01*
X85013046Y-63638115D01*
X85013045Y-63638111D01*
X85012355Y-63631544D01*
X84991682Y-63567918D01*
X84989809Y-63561594D01*
X84987812Y-63554141D01*
X84972494Y-63496976D01*
X84966333Y-63484884D01*
X84958769Y-63466623D01*
X84956616Y-63459997D01*
X84954575Y-63453715D01*
X84921124Y-63395776D01*
X84917977Y-63389980D01*
X84916108Y-63386312D01*
X84887607Y-63330375D01*
X84879068Y-63319830D01*
X84867875Y-63303545D01*
X84864384Y-63297498D01*
X84864381Y-63297495D01*
X84861085Y-63291785D01*
X84856673Y-63286885D01*
X84856670Y-63286881D01*
X84819583Y-63245693D01*
X84816319Y-63242068D01*
X84812037Y-63237054D01*
X84801514Y-63224059D01*
X84799437Y-63221494D01*
X84785290Y-63207347D01*
X84780749Y-63202563D01*
X84740385Y-63157734D01*
X84740383Y-63157733D01*
X84735970Y-63152831D01*
X84724982Y-63144848D01*
X84709954Y-63132011D01*
X83050060Y-61472117D01*
X83016034Y-61409805D01*
X83021099Y-61338990D01*
X83063646Y-61282154D01*
X83127734Y-61257541D01*
X83214579Y-61249637D01*
X83221600Y-61248998D01*
X83228302Y-61246820D01*
X83228304Y-61246820D01*
X83387409Y-61195124D01*
X83387412Y-61195123D01*
X83394108Y-61192947D01*
X83513126Y-61121998D01*
X83543860Y-61103677D01*
X83543862Y-61103676D01*
X83549912Y-61100069D01*
X83681266Y-60974982D01*
X83781643Y-60823902D01*
X83846055Y-60654338D01*
X83847833Y-60641685D01*
X83870748Y-60478639D01*
X83870748Y-60478636D01*
X83871299Y-60474717D01*
X83871616Y-60452000D01*
X83851397Y-60271745D01*
X83821760Y-60186640D01*
X88721463Y-60186640D01*
X88739163Y-60367160D01*
X88796418Y-60539273D01*
X88800065Y-60545295D01*
X88800066Y-60545297D01*
X88865139Y-60652745D01*
X88890380Y-60694424D01*
X88895269Y-60699487D01*
X88895270Y-60699488D01*
X88948727Y-60754844D01*
X89016382Y-60824902D01*
X89068211Y-60858818D01*
X89151912Y-60913590D01*
X89168159Y-60924222D01*
X89174763Y-60926678D01*
X89174765Y-60926679D01*
X89331558Y-60984990D01*
X89331560Y-60984990D01*
X89338168Y-60987448D01*
X89421995Y-60998633D01*
X89510980Y-61010507D01*
X89510984Y-61010507D01*
X89517961Y-61011438D01*
X89524972Y-61010800D01*
X89524976Y-61010800D01*
X89667459Y-60997832D01*
X89698600Y-60994998D01*
X89705302Y-60992820D01*
X89705304Y-60992820D01*
X89864409Y-60941124D01*
X89864412Y-60941123D01*
X89871108Y-60938947D01*
X90026912Y-60846069D01*
X90029359Y-60843738D01*
X90094355Y-60819000D01*
X90163829Y-60833627D01*
X90194820Y-60857088D01*
X90204881Y-60867506D01*
X90286382Y-60951902D01*
X90353216Y-60995637D01*
X90413886Y-61035338D01*
X90438159Y-61051222D01*
X90444763Y-61053678D01*
X90444765Y-61053679D01*
X90601558Y-61111990D01*
X90601560Y-61111990D01*
X90608168Y-61114448D01*
X90691995Y-61125633D01*
X90780980Y-61137507D01*
X90780984Y-61137507D01*
X90787961Y-61138438D01*
X90794972Y-61137800D01*
X90794976Y-61137800D01*
X90937459Y-61124832D01*
X90968600Y-61121998D01*
X90975302Y-61119820D01*
X90975304Y-61119820D01*
X91134409Y-61068124D01*
X91134412Y-61068123D01*
X91141108Y-61065947D01*
X91237513Y-61008478D01*
X91290860Y-60976677D01*
X91290862Y-60976676D01*
X91296912Y-60973069D01*
X91428266Y-60847982D01*
X91528643Y-60696902D01*
X91577745Y-60567640D01*
X93420463Y-60567640D01*
X93438163Y-60748160D01*
X93495418Y-60920273D01*
X93499065Y-60926295D01*
X93499066Y-60926297D01*
X93583641Y-61065947D01*
X93589380Y-61075424D01*
X93594269Y-61080487D01*
X93594270Y-61080488D01*
X93665348Y-61154091D01*
X93715382Y-61205902D01*
X93767277Y-61239861D01*
X93842987Y-61289404D01*
X93867159Y-61305222D01*
X93873763Y-61307678D01*
X93873765Y-61307679D01*
X94030558Y-61365990D01*
X94030560Y-61365990D01*
X94037168Y-61368448D01*
X94120995Y-61379633D01*
X94209980Y-61391507D01*
X94209984Y-61391507D01*
X94216961Y-61392438D01*
X94223972Y-61391800D01*
X94223976Y-61391800D01*
X94366459Y-61378832D01*
X94397600Y-61375998D01*
X94404302Y-61373820D01*
X94404304Y-61373820D01*
X94563409Y-61322124D01*
X94563412Y-61322123D01*
X94570108Y-61319947D01*
X94689126Y-61248998D01*
X94719860Y-61230677D01*
X94719862Y-61230676D01*
X94725912Y-61227069D01*
X94857266Y-61101982D01*
X94957643Y-60950902D01*
X95004082Y-60828653D01*
X95019555Y-60787920D01*
X95019556Y-60787918D01*
X95022055Y-60781338D01*
X95025554Y-60756444D01*
X95046748Y-60605639D01*
X95046748Y-60605636D01*
X95047299Y-60601717D01*
X95047616Y-60579000D01*
X95027397Y-60398745D01*
X95025080Y-60392091D01*
X94970064Y-60234106D01*
X94970062Y-60234103D01*
X94967745Y-60227448D01*
X94871626Y-60073624D01*
X94855946Y-60057834D01*
X94748778Y-59949915D01*
X94748774Y-59949912D01*
X94743815Y-59944918D01*
X94732697Y-59937862D01*
X94645726Y-59882669D01*
X94590666Y-59847727D01*
X94541759Y-59830312D01*
X94426425Y-59789243D01*
X94426420Y-59789242D01*
X94419790Y-59786881D01*
X94412802Y-59786048D01*
X94412799Y-59786047D01*
X94283171Y-59770590D01*
X94239680Y-59765404D01*
X94232677Y-59766140D01*
X94232676Y-59766140D01*
X94066288Y-59783628D01*
X94066286Y-59783629D01*
X94059288Y-59784364D01*
X93887579Y-59842818D01*
X93881575Y-59846512D01*
X93739095Y-59934166D01*
X93739092Y-59934168D01*
X93733088Y-59937862D01*
X93728053Y-59942793D01*
X93728050Y-59942795D01*
X93610577Y-60057834D01*
X93603493Y-60064771D01*
X93505235Y-60217238D01*
X93502826Y-60223858D01*
X93502824Y-60223861D01*
X93448235Y-60373844D01*
X93443197Y-60387685D01*
X93420463Y-60567640D01*
X91577745Y-60567640D01*
X91583974Y-60551243D01*
X91590555Y-60533920D01*
X91590556Y-60533918D01*
X91593055Y-60527338D01*
X91598569Y-60488106D01*
X91617748Y-60351639D01*
X91617748Y-60351636D01*
X91618299Y-60347717D01*
X91618616Y-60325000D01*
X91598397Y-60144745D01*
X91596080Y-60138091D01*
X91541064Y-59980106D01*
X91541062Y-59980103D01*
X91538745Y-59973448D01*
X91455700Y-59840547D01*
X91446359Y-59825598D01*
X91442626Y-59819624D01*
X91437664Y-59814627D01*
X91319778Y-59695915D01*
X91319774Y-59695912D01*
X91314815Y-59690918D01*
X91303697Y-59683862D01*
X91255285Y-59653139D01*
X91161666Y-59593727D01*
X91091986Y-59568915D01*
X90997425Y-59535243D01*
X90997420Y-59535242D01*
X90990790Y-59532881D01*
X90983802Y-59532048D01*
X90983799Y-59532047D01*
X90860698Y-59517368D01*
X90810680Y-59511404D01*
X90803677Y-59512140D01*
X90803676Y-59512140D01*
X90637288Y-59529628D01*
X90637286Y-59529629D01*
X90630288Y-59530364D01*
X90458579Y-59588818D01*
X90304088Y-59683862D01*
X90302721Y-59681641D01*
X90247863Y-59703394D01*
X90178194Y-59689729D01*
X90146892Y-59666710D01*
X90049778Y-59568915D01*
X90049774Y-59568912D01*
X90044815Y-59563918D01*
X90033697Y-59556862D01*
X89963380Y-59512238D01*
X89891666Y-59466727D01*
X89834146Y-59446245D01*
X89727425Y-59408243D01*
X89727420Y-59408242D01*
X89720790Y-59405881D01*
X89713802Y-59405048D01*
X89713799Y-59405047D01*
X89590698Y-59390368D01*
X89540680Y-59384404D01*
X89533677Y-59385140D01*
X89533676Y-59385140D01*
X89367288Y-59402628D01*
X89367286Y-59402629D01*
X89360288Y-59403364D01*
X89188579Y-59461818D01*
X89182575Y-59465512D01*
X89040095Y-59553166D01*
X89040092Y-59553168D01*
X89034088Y-59556862D01*
X89029053Y-59561793D01*
X89029050Y-59561795D01*
X88977942Y-59611844D01*
X88904493Y-59683771D01*
X88806235Y-59836238D01*
X88803826Y-59842858D01*
X88803824Y-59842861D01*
X88756294Y-59973448D01*
X88744197Y-60006685D01*
X88721463Y-60186640D01*
X83821760Y-60186640D01*
X83791745Y-60100448D01*
X83788012Y-60094473D01*
X83787438Y-60093276D01*
X83776043Y-60023200D01*
X83783281Y-59994090D01*
X83843555Y-59835420D01*
X83843556Y-59835418D01*
X83846055Y-59828838D01*
X83852069Y-59786047D01*
X83870748Y-59653139D01*
X83870748Y-59653136D01*
X83871299Y-59649217D01*
X83871616Y-59626500D01*
X83851397Y-59446245D01*
X83846316Y-59431653D01*
X83794064Y-59281606D01*
X83794062Y-59281603D01*
X83791745Y-59274948D01*
X83695626Y-59121124D01*
X83649066Y-59074238D01*
X83572778Y-58997415D01*
X83572774Y-58997412D01*
X83567815Y-58992418D01*
X83555126Y-58984365D01*
X83465824Y-58927693D01*
X83414666Y-58895227D01*
X83385463Y-58884828D01*
X83250425Y-58836743D01*
X83250420Y-58836742D01*
X83243790Y-58834381D01*
X83236802Y-58833548D01*
X83236799Y-58833547D01*
X83137604Y-58821719D01*
X83063680Y-58812904D01*
X83063784Y-58812033D01*
X83001434Y-58793252D01*
X82955317Y-58739273D01*
X82944983Y-58700902D01*
X82944631Y-58697547D01*
X82936821Y-58623238D01*
X82936232Y-58617635D01*
X82936232Y-58617633D01*
X82935542Y-58611072D01*
X82876527Y-58429444D01*
X82781040Y-58264056D01*
X82653253Y-58122134D01*
X82610594Y-58091140D01*
X93293463Y-58091140D01*
X93311163Y-58271660D01*
X93368418Y-58443773D01*
X93462380Y-58598924D01*
X93467269Y-58603987D01*
X93467270Y-58603988D01*
X93497198Y-58634979D01*
X93588382Y-58729402D01*
X93619769Y-58749941D01*
X93716890Y-58813495D01*
X93740159Y-58828722D01*
X93746763Y-58831178D01*
X93746765Y-58831179D01*
X93903558Y-58889490D01*
X93903560Y-58889490D01*
X93910168Y-58891948D01*
X93993995Y-58903133D01*
X94082980Y-58915007D01*
X94082984Y-58915007D01*
X94089961Y-58915938D01*
X94096972Y-58915300D01*
X94096976Y-58915300D01*
X94239459Y-58902332D01*
X94270600Y-58899498D01*
X94277302Y-58897320D01*
X94277304Y-58897320D01*
X94436409Y-58845624D01*
X94436412Y-58845623D01*
X94443108Y-58843447D01*
X94454354Y-58836743D01*
X94483664Y-58819271D01*
X94548181Y-58801500D01*
X97316901Y-58801500D01*
X97325471Y-58801792D01*
X97374777Y-58805154D01*
X97374781Y-58805154D01*
X97382352Y-58805670D01*
X97389828Y-58804365D01*
X97389832Y-58804365D01*
X97444424Y-58794837D01*
X97450949Y-58793874D01*
X97505918Y-58787222D01*
X97505920Y-58787221D01*
X97513460Y-58786309D01*
X97520562Y-58783625D01*
X97524000Y-58782781D01*
X97538123Y-58778917D01*
X97541534Y-58777887D01*
X97549017Y-58776581D01*
X97606697Y-58751261D01*
X97612804Y-58748770D01*
X97664617Y-58729191D01*
X97664618Y-58729190D01*
X97671722Y-58726506D01*
X97677977Y-58722207D01*
X97681118Y-58720565D01*
X97693872Y-58713467D01*
X97696978Y-58711630D01*
X97703933Y-58708577D01*
X97709960Y-58703952D01*
X97709964Y-58703950D01*
X97753902Y-58670235D01*
X97759220Y-58666371D01*
X97811152Y-58630679D01*
X97852035Y-58584793D01*
X97856998Y-58579537D01*
X99624593Y-56811942D01*
X99674752Y-56781204D01*
X99770409Y-56750124D01*
X99770412Y-56750123D01*
X99777108Y-56747947D01*
X99873513Y-56690478D01*
X99926860Y-56658677D01*
X99926862Y-56658676D01*
X99932912Y-56655069D01*
X100064266Y-56529982D01*
X100087249Y-56495390D01*
X114502463Y-56495390D01*
X114520163Y-56675910D01*
X114577418Y-56848023D01*
X114581065Y-56854045D01*
X114581066Y-56854047D01*
X114591978Y-56872064D01*
X114671380Y-57003174D01*
X114797382Y-57133652D01*
X114949159Y-57232972D01*
X114955763Y-57235428D01*
X114955765Y-57235429D01*
X115112558Y-57293740D01*
X115112560Y-57293740D01*
X115119168Y-57296198D01*
X115201083Y-57307128D01*
X115291980Y-57319257D01*
X115291984Y-57319257D01*
X115298961Y-57320188D01*
X115305972Y-57319550D01*
X115305976Y-57319550D01*
X115448459Y-57306582D01*
X115479600Y-57303748D01*
X115486302Y-57301570D01*
X115486304Y-57301570D01*
X115645409Y-57249874D01*
X115645412Y-57249873D01*
X115652108Y-57247697D01*
X115749374Y-57189715D01*
X115801860Y-57158427D01*
X115801862Y-57158426D01*
X115807912Y-57154819D01*
X115844335Y-57120134D01*
X136221500Y-57120134D01*
X136228255Y-57182316D01*
X136279385Y-57318705D01*
X136366739Y-57435261D01*
X136483295Y-57522615D01*
X136619684Y-57573745D01*
X136681866Y-57580500D01*
X140178134Y-57580500D01*
X140240316Y-57573745D01*
X140376705Y-57522615D01*
X140493261Y-57435261D01*
X140580615Y-57318705D01*
X140631745Y-57182316D01*
X140638500Y-57120134D01*
X140638500Y-53623866D01*
X140631745Y-53561684D01*
X140580615Y-53425295D01*
X140493261Y-53308739D01*
X140376705Y-53221385D01*
X140240316Y-53170255D01*
X140178134Y-53163500D01*
X136681866Y-53163500D01*
X136619684Y-53170255D01*
X136483295Y-53221385D01*
X136366739Y-53308739D01*
X136279385Y-53425295D01*
X136228255Y-53561684D01*
X136221500Y-53623866D01*
X136221500Y-57120134D01*
X115844335Y-57120134D01*
X115939266Y-57029732D01*
X116039643Y-56878652D01*
X116104055Y-56709088D01*
X116105035Y-56702116D01*
X116128748Y-56533389D01*
X116128748Y-56533386D01*
X116129299Y-56529467D01*
X116129616Y-56506750D01*
X116109397Y-56326495D01*
X116107080Y-56319841D01*
X116052064Y-56161856D01*
X116052062Y-56161853D01*
X116049745Y-56155198D01*
X115953626Y-56001374D01*
X115939941Y-55987593D01*
X115830778Y-55877665D01*
X115830774Y-55877662D01*
X115825815Y-55872668D01*
X115814697Y-55865612D01*
X115751252Y-55825349D01*
X115672666Y-55775477D01*
X115643463Y-55765078D01*
X115508425Y-55716993D01*
X115508420Y-55716992D01*
X115501790Y-55714631D01*
X115494802Y-55713798D01*
X115494799Y-55713797D01*
X115371698Y-55699118D01*
X115321680Y-55693154D01*
X115314677Y-55693890D01*
X115314676Y-55693890D01*
X115148288Y-55711378D01*
X115148286Y-55711379D01*
X115141288Y-55712114D01*
X114969579Y-55770568D01*
X114963575Y-55774262D01*
X114821095Y-55861916D01*
X114821092Y-55861918D01*
X114815088Y-55865612D01*
X114810053Y-55870543D01*
X114810050Y-55870545D01*
X114781897Y-55898115D01*
X114685493Y-55992521D01*
X114587235Y-56144988D01*
X114584826Y-56151608D01*
X114584824Y-56151611D01*
X114527606Y-56308816D01*
X114525197Y-56315435D01*
X114502463Y-56495390D01*
X100087249Y-56495390D01*
X100164643Y-56378902D01*
X100229055Y-56209338D01*
X100254299Y-56029717D01*
X100254616Y-56007000D01*
X100234397Y-55826745D01*
X100216544Y-55775477D01*
X100177064Y-55662106D01*
X100177062Y-55662103D01*
X100174745Y-55655448D01*
X100078626Y-55501624D01*
X99969268Y-55391500D01*
X99955778Y-55377915D01*
X99955774Y-55377912D01*
X99950815Y-55372918D01*
X99939697Y-55365862D01*
X99800632Y-55277609D01*
X99753833Y-55224220D01*
X99743328Y-55154005D01*
X99772452Y-55089257D01*
X99816897Y-55056117D01*
X99891722Y-55022803D01*
X99891724Y-55022802D01*
X99897752Y-55020118D01*
X100052253Y-54907866D01*
X100056675Y-54902955D01*
X100175621Y-54770852D01*
X100175622Y-54770851D01*
X100180040Y-54765944D01*
X100275527Y-54600556D01*
X100334542Y-54418928D01*
X100354504Y-54229000D01*
X100345588Y-54144166D01*
X100335232Y-54045635D01*
X100335232Y-54045633D01*
X100334542Y-54039072D01*
X100275527Y-53857444D01*
X100256016Y-53823649D01*
X100226729Y-53772924D01*
X100180040Y-53692056D01*
X100118580Y-53623797D01*
X100056675Y-53555045D01*
X100056674Y-53555044D01*
X100052253Y-53550134D01*
X99917657Y-53452344D01*
X99903094Y-53441763D01*
X99903093Y-53441762D01*
X99897752Y-53437882D01*
X99891724Y-53435198D01*
X99891722Y-53435197D01*
X99729319Y-53362891D01*
X99729318Y-53362891D01*
X99723288Y-53360206D01*
X99629887Y-53340353D01*
X99542944Y-53321872D01*
X99542939Y-53321872D01*
X99536487Y-53320500D01*
X99345513Y-53320500D01*
X99339061Y-53321872D01*
X99339056Y-53321872D01*
X99252112Y-53340353D01*
X99158712Y-53360206D01*
X99152682Y-53362891D01*
X99152681Y-53362891D01*
X98990278Y-53435197D01*
X98990276Y-53435198D01*
X98984248Y-53437882D01*
X98978907Y-53441762D01*
X98978906Y-53441763D01*
X98964343Y-53452344D01*
X98829747Y-53550134D01*
X98825326Y-53555044D01*
X98825325Y-53555045D01*
X98763421Y-53623797D01*
X98701960Y-53692056D01*
X98655271Y-53772924D01*
X98625985Y-53823649D01*
X98606473Y-53857444D01*
X98547458Y-54039072D01*
X98546768Y-54045633D01*
X98546768Y-54045635D01*
X98536412Y-54144166D01*
X98527496Y-54229000D01*
X98547458Y-54418928D01*
X98606473Y-54600556D01*
X98701960Y-54765944D01*
X98706378Y-54770851D01*
X98706379Y-54770852D01*
X98825325Y-54902955D01*
X98829747Y-54907866D01*
X98984248Y-55020118D01*
X98990276Y-55022802D01*
X98990278Y-55022803D01*
X99066350Y-55056672D01*
X99120446Y-55102652D01*
X99141095Y-55170579D01*
X99121743Y-55238887D01*
X99081125Y-55279095D01*
X98940088Y-55365862D01*
X98935053Y-55370793D01*
X98935050Y-55370795D01*
X98915308Y-55390128D01*
X98810493Y-55492771D01*
X98712235Y-55645238D01*
X98709826Y-55651858D01*
X98709824Y-55651861D01*
X98663422Y-55779349D01*
X98634116Y-55825349D01*
X97092870Y-57366595D01*
X97030558Y-57400621D01*
X97003775Y-57403500D01*
X94551126Y-57403500D01*
X94483614Y-57383887D01*
X94463666Y-57371227D01*
X94434463Y-57360828D01*
X94299425Y-57312743D01*
X94299420Y-57312742D01*
X94292790Y-57310381D01*
X94285802Y-57309548D01*
X94285799Y-57309547D01*
X94162698Y-57294868D01*
X94112680Y-57288904D01*
X94105677Y-57289640D01*
X94105676Y-57289640D01*
X93939288Y-57307128D01*
X93939286Y-57307129D01*
X93932288Y-57307864D01*
X93760579Y-57366318D01*
X93732023Y-57383886D01*
X93612095Y-57457666D01*
X93612092Y-57457668D01*
X93606088Y-57461362D01*
X93601053Y-57466293D01*
X93601050Y-57466295D01*
X93494159Y-57570971D01*
X93476493Y-57588271D01*
X93378235Y-57740738D01*
X93375826Y-57747358D01*
X93375824Y-57747361D01*
X93344290Y-57834000D01*
X93316197Y-57911185D01*
X93293463Y-58091140D01*
X82610594Y-58091140D01*
X82498752Y-58009882D01*
X82492724Y-58007198D01*
X82492722Y-58007197D01*
X82330319Y-57934891D01*
X82330318Y-57934891D01*
X82324288Y-57932206D01*
X82208795Y-57907657D01*
X82143944Y-57893872D01*
X82143939Y-57893872D01*
X82137487Y-57892500D01*
X82044699Y-57892500D01*
X81976578Y-57872498D01*
X81930085Y-57818842D01*
X81919981Y-57748568D01*
X81946892Y-57689644D01*
X81945904Y-57688904D01*
X81949298Y-57684375D01*
X81949475Y-57683988D01*
X81950056Y-57683364D01*
X82027786Y-57579649D01*
X82036324Y-57564054D01*
X82081478Y-57443606D01*
X82085105Y-57428351D01*
X82090631Y-57377486D01*
X82091000Y-57370672D01*
X82091000Y-55898115D01*
X82086525Y-55882876D01*
X82085135Y-55881671D01*
X82077452Y-55880000D01*
X80155115Y-55880000D01*
X80139876Y-55884475D01*
X80138671Y-55885865D01*
X80137000Y-55893548D01*
X80137000Y-57815884D01*
X80141475Y-57831123D01*
X80142865Y-57832328D01*
X80150548Y-57833999D01*
X81439542Y-57833999D01*
X81507663Y-57854001D01*
X81554156Y-57907657D01*
X81564260Y-57977931D01*
X81534766Y-58042511D01*
X81513603Y-58061935D01*
X81430747Y-58122134D01*
X81302960Y-58264056D01*
X81207473Y-58429444D01*
X81148458Y-58611072D01*
X81147768Y-58617633D01*
X81147768Y-58617635D01*
X81130817Y-58778917D01*
X81128496Y-58801000D01*
X81129186Y-58807565D01*
X81138916Y-58900137D01*
X81148458Y-58990928D01*
X81149936Y-58995477D01*
X81152500Y-59019867D01*
X81152500Y-59471133D01*
X81149936Y-59495523D01*
X81148458Y-59500072D01*
X81147768Y-59506633D01*
X81147768Y-59506635D01*
X81138217Y-59597506D01*
X81128496Y-59690000D01*
X81129186Y-59696565D01*
X81145074Y-59847727D01*
X81148458Y-59879928D01*
X81149936Y-59884477D01*
X81152500Y-59908867D01*
X81152500Y-61246820D01*
X81132498Y-61314941D01*
X81078842Y-61361434D01*
X81008568Y-61371538D01*
X80984234Y-61365519D01*
X80837428Y-61313244D01*
X80837422Y-61313243D01*
X80830790Y-61310881D01*
X80823802Y-61310048D01*
X80823799Y-61310047D01*
X80700698Y-61295368D01*
X80650680Y-61289404D01*
X80643677Y-61290140D01*
X80643676Y-61290140D01*
X80477288Y-61307628D01*
X80477286Y-61307629D01*
X80470288Y-61308364D01*
X80298579Y-61366818D01*
X80282619Y-61376637D01*
X80150095Y-61458166D01*
X80150092Y-61458168D01*
X80144088Y-61461862D01*
X80139053Y-61466793D01*
X80139050Y-61466795D01*
X80019525Y-61583843D01*
X80014493Y-61588771D01*
X79916235Y-61741238D01*
X79913826Y-61747858D01*
X79913824Y-61747861D01*
X79867600Y-61874861D01*
X79854197Y-61911685D01*
X79831463Y-62091640D01*
X79849163Y-62272160D01*
X79851387Y-62278845D01*
X79885981Y-62382838D01*
X79888504Y-62453790D01*
X79854581Y-62512633D01*
X79765733Y-62599640D01*
X79760493Y-62604771D01*
X79662235Y-62757238D01*
X79659826Y-62763858D01*
X79659824Y-62763861D01*
X79602606Y-62921066D01*
X79600197Y-62927685D01*
X79577463Y-63107640D01*
X79595163Y-63288160D01*
X79652418Y-63460273D01*
X79656065Y-63466295D01*
X79656066Y-63466297D01*
X79733878Y-63594780D01*
X79746380Y-63615424D01*
X79751270Y-63620487D01*
X79751274Y-63620493D01*
X79833822Y-63705973D01*
X79866755Y-63768869D01*
X79860455Y-63839586D01*
X79816924Y-63895670D01*
X79743186Y-63919500D01*
X78349866Y-63919500D01*
X78287684Y-63926255D01*
X78151295Y-63977385D01*
X78034739Y-64064739D01*
X77947385Y-64181295D01*
X77896255Y-64317684D01*
X77889500Y-64379866D01*
X77889500Y-66176134D01*
X77896255Y-66238316D01*
X77947385Y-66374705D01*
X78034739Y-66491261D01*
X78151295Y-66578615D01*
X78159704Y-66581767D01*
X78159705Y-66581768D01*
X78268451Y-66622535D01*
X78325216Y-66665176D01*
X78349916Y-66731738D01*
X78334709Y-66801087D01*
X78315316Y-66827568D01*
X78200783Y-66947420D01*
X78188629Y-66960138D01*
X78185715Y-66964410D01*
X78185714Y-66964411D01*
X78107020Y-67079773D01*
X78062743Y-67144680D01*
X78023649Y-67228901D01*
X77970897Y-67342547D01*
X77968688Y-67347305D01*
X77908989Y-67562570D01*
X77885251Y-67784695D01*
X77885548Y-67789848D01*
X77885548Y-67789851D01*
X77896576Y-67981106D01*
X77898110Y-68007715D01*
X77899247Y-68012761D01*
X77899248Y-68012767D01*
X77912326Y-68070795D01*
X77947222Y-68225639D01*
X77997504Y-68349469D01*
X78023449Y-68413364D01*
X78031266Y-68432616D01*
X78075278Y-68504438D01*
X78138484Y-68607580D01*
X78147987Y-68623088D01*
X78294250Y-68791938D01*
X78417971Y-68894653D01*
X78454462Y-68924948D01*
X78466126Y-68934632D01*
X78489015Y-68948007D01*
X78539445Y-68977476D01*
X78588169Y-69029114D01*
X78601240Y-69098897D01*
X78574509Y-69164669D01*
X78534055Y-69198027D01*
X78521607Y-69204507D01*
X78517474Y-69207610D01*
X78517471Y-69207612D01*
X78347100Y-69335530D01*
X78342965Y-69338635D01*
X78339393Y-69342373D01*
X78200461Y-69487757D01*
X78188629Y-69500138D01*
X78062743Y-69684680D01*
X78047378Y-69717781D01*
X77976138Y-69871256D01*
X77968688Y-69887305D01*
X77908989Y-70102570D01*
X77885251Y-70324695D01*
X77885548Y-70329848D01*
X77885548Y-70329851D01*
X77891011Y-70424590D01*
X77898110Y-70547715D01*
X77899247Y-70552761D01*
X77899248Y-70552767D01*
X77919119Y-70640939D01*
X77947222Y-70765639D01*
X77983981Y-70856166D01*
X78020478Y-70946047D01*
X78031266Y-70972616D01*
X78041344Y-70989062D01*
X78135965Y-71143469D01*
X78147987Y-71163088D01*
X78294250Y-71331938D01*
X78466126Y-71474632D01*
X78659000Y-71587338D01*
X78663825Y-71589180D01*
X78663826Y-71589181D01*
X78684501Y-71597076D01*
X78867692Y-71667030D01*
X78872760Y-71668061D01*
X78872763Y-71668062D01*
X78939590Y-71681658D01*
X79086597Y-71711567D01*
X79091772Y-71711757D01*
X79091774Y-71711757D01*
X79304673Y-71719564D01*
X79304677Y-71719564D01*
X79309837Y-71719753D01*
X79314957Y-71719097D01*
X79314959Y-71719097D01*
X79526288Y-71692025D01*
X79526289Y-71692025D01*
X79531416Y-71691368D01*
X79563781Y-71681658D01*
X79740429Y-71628661D01*
X79740434Y-71628659D01*
X79745384Y-71627174D01*
X79945994Y-71528896D01*
X80127860Y-71399173D01*
X80138874Y-71388198D01*
X80224303Y-71303066D01*
X80286096Y-71241489D01*
X80338297Y-71168844D01*
X80413435Y-71064277D01*
X80416453Y-71060077D01*
X80420108Y-71052683D01*
X80513136Y-70864453D01*
X80513137Y-70864451D01*
X80515430Y-70859811D01*
X80567588Y-70688140D01*
X80578865Y-70651023D01*
X80578865Y-70651021D01*
X80580370Y-70646069D01*
X80609529Y-70424590D01*
X80609678Y-70418495D01*
X80611074Y-70361365D01*
X80611074Y-70361361D01*
X80611156Y-70358000D01*
X80592852Y-70135361D01*
X80538431Y-69918702D01*
X80449354Y-69713840D01*
X80388303Y-69619469D01*
X80330822Y-69530617D01*
X80330820Y-69530614D01*
X80328014Y-69526277D01*
X80177670Y-69361051D01*
X80173619Y-69357852D01*
X80173615Y-69357848D01*
X80006414Y-69225800D01*
X80006410Y-69225798D01*
X80002359Y-69222598D01*
X79961053Y-69199796D01*
X79911084Y-69149364D01*
X79896312Y-69079921D01*
X79921428Y-69013516D01*
X79948780Y-68986909D01*
X80003319Y-68948007D01*
X80127860Y-68859173D01*
X80147186Y-68839915D01*
X80224970Y-68762402D01*
X80286096Y-68701489D01*
X80293408Y-68691314D01*
X80413435Y-68524277D01*
X80416453Y-68520077D01*
X80419931Y-68513041D01*
X80513136Y-68324453D01*
X80513137Y-68324451D01*
X80515430Y-68319811D01*
X80568211Y-68146090D01*
X80578865Y-68111023D01*
X80578865Y-68111021D01*
X80580370Y-68106069D01*
X80609529Y-67884590D01*
X80609611Y-67881240D01*
X80611074Y-67821365D01*
X80611074Y-67821361D01*
X80611156Y-67818000D01*
X80592852Y-67595361D01*
X80538431Y-67378702D01*
X80449354Y-67173840D01*
X80387719Y-67078567D01*
X80330822Y-66990617D01*
X80330820Y-66990614D01*
X80328014Y-66986277D01*
X80309832Y-66966295D01*
X80180798Y-66824488D01*
X80149746Y-66760642D01*
X80158141Y-66690143D01*
X80203317Y-66635375D01*
X80229761Y-66621706D01*
X80336297Y-66581767D01*
X80344705Y-66578615D01*
X80461261Y-66491261D01*
X80548615Y-66374705D01*
X80599745Y-66238316D01*
X80606500Y-66176134D01*
X80606500Y-64379866D01*
X80599745Y-64317684D01*
X80548615Y-64181295D01*
X80543230Y-64174110D01*
X80543229Y-64174108D01*
X80495540Y-64110477D01*
X80470692Y-64043970D01*
X80485745Y-63974588D01*
X80535919Y-63924358D01*
X80557430Y-63915079D01*
X80720409Y-63862124D01*
X80720412Y-63862123D01*
X80727108Y-63859947D01*
X80767664Y-63835771D01*
X80832181Y-63818000D01*
X81001774Y-63818000D01*
X81069895Y-63838002D01*
X81090870Y-63854905D01*
X81814096Y-64578132D01*
X81848121Y-64640444D01*
X81851000Y-64667227D01*
X81851000Y-73214969D01*
X81830912Y-73283223D01*
X81821235Y-73298238D01*
X81818826Y-73304858D01*
X81818824Y-73304861D01*
X81771294Y-73435448D01*
X81759197Y-73468685D01*
X81740872Y-73613744D01*
X81739160Y-73627292D01*
X81710778Y-73692369D01*
X81651718Y-73731770D01*
X81614154Y-73737500D01*
X78134866Y-73737500D01*
X78072684Y-73744255D01*
X77936295Y-73795385D01*
X77819739Y-73882739D01*
X77732385Y-73999295D01*
X77681255Y-74135684D01*
X77674500Y-74197866D01*
X77674500Y-77694134D01*
X77343500Y-77694134D01*
X77343500Y-60821640D01*
X78180463Y-60821640D01*
X78198163Y-61002160D01*
X78255418Y-61174273D01*
X78259065Y-61180295D01*
X78259066Y-61180297D01*
X78343641Y-61319947D01*
X78349380Y-61329424D01*
X78354269Y-61334487D01*
X78354270Y-61334488D01*
X78425348Y-61408091D01*
X78475382Y-61459902D01*
X78551271Y-61509562D01*
X78602886Y-61543338D01*
X78627159Y-61559222D01*
X78633763Y-61561678D01*
X78633765Y-61561679D01*
X78790558Y-61619990D01*
X78790560Y-61619990D01*
X78797168Y-61622448D01*
X78880995Y-61633633D01*
X78969980Y-61645507D01*
X78969984Y-61645507D01*
X78976961Y-61646438D01*
X78983972Y-61645800D01*
X78983976Y-61645800D01*
X79126459Y-61632832D01*
X79157600Y-61629998D01*
X79164302Y-61627820D01*
X79164304Y-61627820D01*
X79323409Y-61576124D01*
X79323412Y-61576123D01*
X79330108Y-61573947D01*
X79426513Y-61516478D01*
X79479860Y-61484677D01*
X79479862Y-61484676D01*
X79485912Y-61481069D01*
X79617266Y-61355982D01*
X79717643Y-61204902D01*
X79763332Y-61084627D01*
X79779555Y-61041920D01*
X79779556Y-61041918D01*
X79782055Y-61035338D01*
X79785545Y-61010507D01*
X79806748Y-60859639D01*
X79806748Y-60859636D01*
X79807299Y-60855717D01*
X79807616Y-60833000D01*
X79787397Y-60652745D01*
X79785080Y-60646091D01*
X79730064Y-60488106D01*
X79730062Y-60488103D01*
X79727745Y-60481448D01*
X79631626Y-60327624D01*
X79553984Y-60249438D01*
X79508778Y-60203915D01*
X79508774Y-60203912D01*
X79503815Y-60198918D01*
X79492697Y-60191862D01*
X79418452Y-60144745D01*
X79350666Y-60101727D01*
X79321463Y-60091328D01*
X79186425Y-60043243D01*
X79186420Y-60043242D01*
X79179790Y-60040881D01*
X79172802Y-60040048D01*
X79172799Y-60040047D01*
X79049698Y-60025368D01*
X78999680Y-60019404D01*
X78992677Y-60020140D01*
X78992676Y-60020140D01*
X78826288Y-60037628D01*
X78826286Y-60037629D01*
X78819288Y-60038364D01*
X78647579Y-60096818D01*
X78641575Y-60100512D01*
X78499095Y-60188166D01*
X78499092Y-60188168D01*
X78493088Y-60191862D01*
X78488053Y-60196793D01*
X78488050Y-60196795D01*
X78434293Y-60249438D01*
X78363493Y-60318771D01*
X78265235Y-60471238D01*
X78262826Y-60477858D01*
X78262824Y-60477861D01*
X78215271Y-60608512D01*
X78203197Y-60641685D01*
X78180463Y-60821640D01*
X77343500Y-60821640D01*
X77343500Y-57370669D01*
X77675001Y-57370669D01*
X77675371Y-57377490D01*
X77680895Y-57428352D01*
X77684521Y-57443604D01*
X77729676Y-57564054D01*
X77738214Y-57579649D01*
X77814715Y-57681724D01*
X77827276Y-57694285D01*
X77929351Y-57770786D01*
X77944946Y-57779324D01*
X78065394Y-57824478D01*
X78080649Y-57828105D01*
X78131514Y-57833631D01*
X78138328Y-57834000D01*
X79610885Y-57834000D01*
X79626124Y-57829525D01*
X79627329Y-57828135D01*
X79629000Y-57820452D01*
X79629000Y-55898115D01*
X79624525Y-55882876D01*
X79623135Y-55881671D01*
X79615452Y-55880000D01*
X77693116Y-55880000D01*
X77677877Y-55884475D01*
X77676672Y-55885865D01*
X77675001Y-55893548D01*
X77675001Y-57370669D01*
X77343500Y-57370669D01*
X77343500Y-55353885D01*
X77675000Y-55353885D01*
X77679475Y-55369124D01*
X77680865Y-55370329D01*
X77688548Y-55372000D01*
X79610885Y-55372000D01*
X79626124Y-55367525D01*
X79627329Y-55366135D01*
X79629000Y-55358452D01*
X79629000Y-55353885D01*
X80137000Y-55353885D01*
X80141475Y-55369124D01*
X80142865Y-55370329D01*
X80150548Y-55372000D01*
X82072884Y-55372000D01*
X82088123Y-55367525D01*
X82089328Y-55366135D01*
X82090999Y-55358452D01*
X82090999Y-53881331D01*
X82090629Y-53874510D01*
X82085105Y-53823648D01*
X82081479Y-53808396D01*
X82036324Y-53687946D01*
X82027786Y-53672351D01*
X81951285Y-53570276D01*
X81938724Y-53557715D01*
X81836649Y-53481214D01*
X81821054Y-53472676D01*
X81700606Y-53427522D01*
X81685351Y-53423895D01*
X81634486Y-53418369D01*
X81627672Y-53418000D01*
X80155115Y-53418000D01*
X80139876Y-53422475D01*
X80138671Y-53423865D01*
X80137000Y-53431548D01*
X80137000Y-55353885D01*
X79629000Y-55353885D01*
X79629000Y-53436116D01*
X79624525Y-53420877D01*
X79623135Y-53419672D01*
X79615452Y-53418001D01*
X78138331Y-53418001D01*
X78131510Y-53418371D01*
X78080648Y-53423895D01*
X78065396Y-53427521D01*
X77944946Y-53472676D01*
X77929351Y-53481214D01*
X77827276Y-53557715D01*
X77814715Y-53570276D01*
X77738214Y-53672351D01*
X77729676Y-53687946D01*
X77684522Y-53808394D01*
X77680895Y-53823649D01*
X77675369Y-53874514D01*
X77675000Y-53881328D01*
X77675000Y-55353885D01*
X77343500Y-55353885D01*
X77343500Y-53274000D01*
X86909496Y-53274000D01*
X86910186Y-53280565D01*
X86925632Y-53427522D01*
X86929458Y-53463928D01*
X86988473Y-53645556D01*
X87083960Y-53810944D01*
X87088378Y-53815851D01*
X87088379Y-53815852D01*
X87147334Y-53881328D01*
X87211747Y-53952866D01*
X87366248Y-54065118D01*
X87372276Y-54067802D01*
X87372278Y-54067803D01*
X87534681Y-54140109D01*
X87540712Y-54142794D01*
X87634112Y-54162647D01*
X87721056Y-54181128D01*
X87721061Y-54181128D01*
X87727513Y-54182500D01*
X87751142Y-54182500D01*
X87819263Y-54202502D01*
X87865756Y-54256158D01*
X87876452Y-54321670D01*
X87859496Y-54483000D01*
X87879458Y-54672928D01*
X87938473Y-54854556D01*
X88033960Y-55019944D01*
X88038378Y-55024851D01*
X88038379Y-55024852D01*
X88139808Y-55137500D01*
X88161747Y-55161866D01*
X88316248Y-55274118D01*
X88322276Y-55276802D01*
X88322278Y-55276803D01*
X88484681Y-55349109D01*
X88490712Y-55351794D01*
X88572243Y-55369124D01*
X88671056Y-55390128D01*
X88671061Y-55390128D01*
X88677513Y-55391500D01*
X88868487Y-55391500D01*
X88874939Y-55390128D01*
X88874944Y-55390128D01*
X88973757Y-55369124D01*
X89055288Y-55351794D01*
X89061319Y-55349109D01*
X89223722Y-55276803D01*
X89223724Y-55276802D01*
X89229752Y-55274118D01*
X89384253Y-55161866D01*
X89406192Y-55137500D01*
X89507621Y-55024852D01*
X89507622Y-55024851D01*
X89512040Y-55019944D01*
X89607527Y-54854556D01*
X89666542Y-54672928D01*
X89686504Y-54483000D01*
X89666542Y-54293072D01*
X89607527Y-54111444D01*
X89595111Y-54089938D01*
X89542529Y-53998864D01*
X89512040Y-53946056D01*
X89453762Y-53881331D01*
X89388675Y-53809045D01*
X89388674Y-53809044D01*
X89384253Y-53804134D01*
X89229752Y-53691882D01*
X89223724Y-53689198D01*
X89223722Y-53689197D01*
X89061319Y-53616891D01*
X89061318Y-53616891D01*
X89055288Y-53614206D01*
X88961887Y-53594353D01*
X88874944Y-53575872D01*
X88874939Y-53575872D01*
X88868487Y-53574500D01*
X88844858Y-53574500D01*
X88776737Y-53554498D01*
X88730244Y-53500842D01*
X88719548Y-53435330D01*
X88735814Y-53280565D01*
X88736504Y-53274000D01*
X88735573Y-53265140D01*
X132663463Y-53265140D01*
X132681163Y-53445660D01*
X132738418Y-53617773D01*
X132742065Y-53623795D01*
X132742066Y-53623797D01*
X132818769Y-53750449D01*
X132832380Y-53772924D01*
X132837269Y-53777987D01*
X132837270Y-53777988D01*
X132862519Y-53804134D01*
X132958382Y-53903402D01*
X133110159Y-54002722D01*
X133116763Y-54005178D01*
X133116765Y-54005179D01*
X133273558Y-54063490D01*
X133273560Y-54063490D01*
X133280168Y-54065948D01*
X133363995Y-54077133D01*
X133452980Y-54089007D01*
X133452984Y-54089007D01*
X133459961Y-54089938D01*
X133466972Y-54089300D01*
X133466976Y-54089300D01*
X133609459Y-54076332D01*
X133640600Y-54073498D01*
X133647302Y-54071320D01*
X133647304Y-54071320D01*
X133806409Y-54019624D01*
X133806412Y-54019623D01*
X133813108Y-54017447D01*
X133914930Y-53956749D01*
X133962860Y-53928177D01*
X133962862Y-53928176D01*
X133968912Y-53924569D01*
X134100266Y-53799482D01*
X134104167Y-53793610D01*
X134108691Y-53788219D01*
X134110299Y-53789568D01*
X134156851Y-53750449D01*
X134227270Y-53741412D01*
X134291396Y-53771880D01*
X134298087Y-53778316D01*
X134418882Y-53903402D01*
X134570659Y-54002722D01*
X134577263Y-54005178D01*
X134577265Y-54005179D01*
X134734058Y-54063490D01*
X134734060Y-54063490D01*
X134740668Y-54065948D01*
X134824495Y-54077133D01*
X134913480Y-54089007D01*
X134913484Y-54089007D01*
X134920461Y-54089938D01*
X134927472Y-54089300D01*
X134927476Y-54089300D01*
X135069959Y-54076332D01*
X135101100Y-54073498D01*
X135107802Y-54071320D01*
X135107804Y-54071320D01*
X135266909Y-54019624D01*
X135266912Y-54019623D01*
X135273608Y-54017447D01*
X135375430Y-53956749D01*
X135423360Y-53928177D01*
X135423362Y-53928176D01*
X135429412Y-53924569D01*
X135560766Y-53799482D01*
X135661143Y-53648402D01*
X135702923Y-53538417D01*
X135723055Y-53485420D01*
X135723056Y-53485418D01*
X135725555Y-53478838D01*
X135726768Y-53470206D01*
X135750248Y-53303139D01*
X135750248Y-53303136D01*
X135750799Y-53299217D01*
X135750952Y-53288238D01*
X135751061Y-53280462D01*
X135751061Y-53280457D01*
X135751116Y-53276500D01*
X135730897Y-53096245D01*
X135728580Y-53089591D01*
X135673564Y-52931606D01*
X135673562Y-52931603D01*
X135671245Y-52924948D01*
X135575126Y-52771124D01*
X135536421Y-52732148D01*
X135452278Y-52647415D01*
X135452274Y-52647412D01*
X135447315Y-52642418D01*
X135436197Y-52635362D01*
X135316064Y-52559124D01*
X135294166Y-52545227D01*
X135264963Y-52534828D01*
X135129925Y-52486743D01*
X135129920Y-52486742D01*
X135123290Y-52484381D01*
X135116302Y-52483548D01*
X135116299Y-52483547D01*
X134983207Y-52467677D01*
X134943180Y-52462904D01*
X134936177Y-52463640D01*
X134936176Y-52463640D01*
X134769788Y-52481128D01*
X134769786Y-52481129D01*
X134762788Y-52481864D01*
X134591079Y-52540318D01*
X134528609Y-52578750D01*
X134442595Y-52631666D01*
X134442592Y-52631668D01*
X134436588Y-52635362D01*
X134431553Y-52640293D01*
X134431550Y-52640295D01*
X134378412Y-52692332D01*
X134306993Y-52762271D01*
X134304262Y-52766509D01*
X134246360Y-52806210D01*
X134175395Y-52808328D01*
X134115291Y-52772189D01*
X134114626Y-52771124D01*
X134075441Y-52731665D01*
X133991778Y-52647415D01*
X133991774Y-52647412D01*
X133986815Y-52642418D01*
X133975697Y-52635362D01*
X133855564Y-52559124D01*
X133833666Y-52545227D01*
X133804463Y-52534828D01*
X133669425Y-52486743D01*
X133669420Y-52486742D01*
X133662790Y-52484381D01*
X133655802Y-52483548D01*
X133655799Y-52483547D01*
X133522707Y-52467677D01*
X133482680Y-52462904D01*
X133475677Y-52463640D01*
X133475676Y-52463640D01*
X133309288Y-52481128D01*
X133309286Y-52481129D01*
X133302288Y-52481864D01*
X133130579Y-52540318D01*
X133068109Y-52578750D01*
X132982095Y-52631666D01*
X132982092Y-52631668D01*
X132976088Y-52635362D01*
X132971053Y-52640293D01*
X132971050Y-52640295D01*
X132851525Y-52757343D01*
X132846493Y-52762271D01*
X132759846Y-52896721D01*
X132752108Y-52908729D01*
X132748235Y-52914738D01*
X132745826Y-52921358D01*
X132745824Y-52921361D01*
X132688887Y-53077794D01*
X132686197Y-53085185D01*
X132663463Y-53265140D01*
X88735573Y-53265140D01*
X88725600Y-53170255D01*
X88717232Y-53090635D01*
X88717232Y-53090633D01*
X88716542Y-53084072D01*
X88657527Y-52902444D01*
X88562040Y-52737056D01*
X88470475Y-52635362D01*
X88438675Y-52600045D01*
X88438674Y-52600044D01*
X88434253Y-52595134D01*
X88279752Y-52482882D01*
X88273724Y-52480198D01*
X88273722Y-52480197D01*
X88111319Y-52407891D01*
X88111318Y-52407891D01*
X88105288Y-52405206D01*
X88011887Y-52385353D01*
X87924944Y-52366872D01*
X87924939Y-52366872D01*
X87918487Y-52365500D01*
X87727513Y-52365500D01*
X87721061Y-52366872D01*
X87721056Y-52366872D01*
X87634113Y-52385353D01*
X87540712Y-52405206D01*
X87534682Y-52407891D01*
X87534681Y-52407891D01*
X87372278Y-52480197D01*
X87372276Y-52480198D01*
X87366248Y-52482882D01*
X87211747Y-52595134D01*
X87207326Y-52600044D01*
X87207325Y-52600045D01*
X87175526Y-52635362D01*
X87083960Y-52737056D01*
X86988473Y-52902444D01*
X86929458Y-53084072D01*
X86928768Y-53090633D01*
X86928768Y-53090635D01*
X86920400Y-53170255D01*
X86909496Y-53274000D01*
X77343500Y-53274000D01*
X77343500Y-51434500D01*
X77363502Y-51366379D01*
X77417158Y-51319886D01*
X77469500Y-51308500D01*
X77630333Y-51308500D01*
X77698454Y-51328502D01*
G37*
G04 #@! TD.AperFunction*
M02*
